<svg xmlns="http://www.w3.org/2000/svg" width="112" height="112" viewBox="0 0 112 112"><path d="M75 83.3c10-9.2 20.3-23.2 20.3-41.6C95.4 19.5 78.1 2 56 2 33.9 2 16.6 19.5 16.6 41.8 16.6 60.1 27 74.1 37 83.3c-12.4 1.1-35 4.2-35 13C2 107.1 37.3 110 56 110c18.7 0 54-2.9 54-13.7 0-8.8-23.2-11.9-35-13zM21.1 41.8C21.1 22 36.4 6.5 56 6.5c19.6 0 34.9 15.5 34.9 35.3 0 28.7-29 46.6-34.9 50-5.9-3.4-34.9-21.2-34.9-50zM56 105.5c-32 0-49.5-6.1-49.5-9.2 0-2.1 10.1-7 33.6-8.7.5 0 .8-.2 1.2-.5 7.1 5.7 13.1 8.9 13.7 9.2.3.2.7.2 1 .2.3 0 .7-.1 1-.2.6-.3 6.4-3.3 13.3-8.9.1 0 .2.1.4.1 24.3 1.6 34.8 6.6 34.8 8.8 0 3.1-17.5 9.2-49.5 9.2zm0-52.3c9.4 0 17.1-7.7 17.1-17.1C73.1 26.7 65.4 19 56 19c-9.4 0-17.1 7.7-17.1 17.1 0 9.4 7.7 17.1 17.1 17.1zm0-29.8c6.9 0 12.6 5.7 12.6 12.6 0 7-5.7 12.6-12.6 12.6S43.4 43 43.4 36c0-6.9 5.7-12.6 12.6-12.6z"/></svg>