<svg id="Calque_1" xmlns="http://www.w3.org/2000/svg" width="100" height="63" viewBox="0 0 100 63"><style>.st0{fill:#0073a5}.st1{fill:#fff}</style><path class="st0" d="M99.6 59.5c0 1.8-1.5 3.3-3.3 3.3H4.8c-1.8 0-3.3-1.5-3.3-3.3V4.8C1.6 3 3 1.5 4.8 1.5h91.5c1.8 0 3.3 1.5 3.3 3.3v54.7z"/><path class="st1" d="M32 30.7v-1l-.5 1h-4.1l-.5-1.1v1.1h-7.6l-.9-2.1h-1.5l-.9 2.1H9.3L15 17.8h5.5l.8 1.8v-1.8H28l1.5 3.1 1.5-3.1h21.3s1.1 0 1.9.5v-.5h5.4v.7s1-.7 2.4-.7h9.5l.8 1.9v-1.9h6.1l1.1 1.9v-1.9h5.8v12.9h-6l-1.4-2.3v2.2h-7.4l-1-2.3H68l-1 2.3h-4.5s-1.7 0-2.9-.9v.9h-8.9v-3c0-.4-.3-.4-.3-.4h-.3v3.4H32zM27.5 33.5h11.7l1.7 1.9 1.7-1.9h9s.8 0 1.7.5v-.5h8c1 0 1.9.5 1.9.5v-.5h10.3v.5s.7-.5 1.7-.5h6.7v.5s.8-.5 1.7-.5h6.9v10.4c0 1.8-1.8 2.6-3.8 2.6h-7v-.4s-.7.4-1.7.4H59.5v-3.2c0-.3-.1-.4-.4-.4h-.3v3.5H53V43s-.6.3-1.7.3h-2.1v3.2h-7.1l-1.6-2-1.7 2H27.5v-13z"/><path class="st0" d="M64.5 35.5h7.4v2h-5.1v1.7h4.9v1.7h-4.9v1.8h5.1v2h-7.4zM86.1 39.1c2.8.1 3 1.5 3 3 0 1.7-1.4 2.6-2.9 2.6h-4.7v-2h3.7c.6 0 1.6 0 1.6-.9 0-.4-.2-.7-.8-.8-.3 0-1.4-.1-1.6-.1-2.5-.1-3.1-1.3-3.1-2.8 0-1.7 1.2-2.7 2.7-2.7h4.7v2h-3.5c-.8 0-1.6-.1-1.6.8 0 .6.4.7 1 .7.1.1 1.3.2 1.5.2zM77.6 39.1c2.8.1 3 1.5 3 3 0 1.7-1.4 2.6-2.9 2.6H73v-2h3.7c.6 0 1.6 0 1.6-.9 0-.4-.2-.7-.8-.8-.3 0-1.4-.1-1.6-.1-2.5-.1-3.1-1.3-3.1-2.8 0-1.7 1.2-2.7 2.7-2.7h4.7v2h-3.5c-.8 0-1.6-.1-1.6.8 0 .6.4.7 1 .7.1.1 1.3.2 1.5.2zM50.9 35.5H43l-2.6 2.8-2.5-2.9H29v9.2h8.6l2.7-3 2.6 3.1h4.3v-3.1h3c1.2 0 3.3 0 3.3-3.3.1-2.3-1.5-2.8-2.6-2.8zm-14.4 7.2h-5.2v-1.8h5v-1.7h-5v-1.7h5.5L39 40l-2.5 2.7zm8.6 1.1L41.8 40l3.2-3.6v7.4zm5.1-4.1h-2.8v-2.2h2.8c.9 0 1.2.6 1.2 1.1 0 .5-.3 1.1-1.2 1.1zM61.8 40.5c1.2-.6 1.6-1.4 1.6-2.5 0-2-1.6-2.5-2.7-2.5h-5.9v9.2H57v-3.2h3c.8 0 1.1.8 1.1 1.6l.1 1.7h2.2l-.1-1.9c0-1.6-.4-2.3-1.5-2.4zm-2-.9H57v-2.1h2.8c.9 0 1.2.6 1.2 1.1.1.5-.2 1-1.2 1zM55.7 19.6H58v9.2h-2.3zM37.3 19.7h7.3v1.9h-5.1v1.8h5v1.7h-5v1.8h5.1v1.9h-7.3zM53 24.7c1.2-.6 1.6-1.4 1.6-2.5 0-2-1.6-2.5-2.7-2.5H46v9.2h2.3v-3.2h2.9c.8 0 1.1.8 1.1 1.6l.1 1.7h2.2l-.1-1.9c-.1-1.6-.5-2.3-1.5-2.4zm-2-1h-2.8v-2.1H51c.9 0 1.2.6 1.2 1.1.1.6-.3 1-1.2 1zM32.1 19.7l-2.8 6.2-2.8-6.2H23v8.8l-3.9-8.8h-3l-4 9.2h2.4l.9-2h4.5l.9 2h4.5V22l3 6.8h2l3.1-6.7v6.7h2.3v-9.2h-3.6zm-15.9 5.1l1.3-3.2 1.4 3.2h-2.7zM81.2 19.7V26l-3.8-6.4h-3.3v8.6l-3.8-8.6h-3l-3.1 7.1h-1.4c-.5-.1-1.4-.5-1.4-2.1V24c0-2.2 1.2-2.3 2.7-2.3h1.4v-2h-2.9c-1 0-3.3.8-3.3 4.5-.1 2.5 1.1 4.6 3.6 4.6h3l.9-2H71l.9 2h4.4v-6.7l4.1 6.7h3.1v-9.2h-2.3zm-13.9 5.1l1.3-3.2 1.4 3.2h-2.7z"/></svg>