<svg xmlns="http://www.w3.org/2000/svg" width="115" height="84" viewBox="0 0 115 84"><g fill="#05F"><path d="M90.7 44.7h-9.5c-5 0-9.1 4.1-9.1 9.1s4.1 9.1 9.1 9.1c4 0 5.8-1 8.9-2.8l1.4-.8c2.5-1.4 5.9-3.4 5.9-7.9.1-3.6-2.9-6.7-6.7-6.7zm-1.1 11.2l-1.4.8c-3 1.7-3.9 2.3-6.9 2.3-2.8 0-5.1-2.3-5.1-5.1s2.3-5.1 5.1-5.1h9.5c1.5 0 2.8 1.2 2.8 2.8-.1 1.8-1.3 2.7-4 4.3zM33.7 44.7h-9.5c-3.7 0-6.8 3-6.8 6.8 0 4.5 3.4 6.5 6 7.9l1.4.8C28 62 29.7 63 33.7 63c5 0 9.1-4.1 9.1-9.1.1-5.1-4-9.2-9.1-9.2zm0 14.3c-2.9 0-3.9-.6-6.9-2.3l-1.4-.8c-2.8-1.6-3.9-2.5-3.9-4.4 0-1.5 1.2-2.8 2.8-2.8h9.5c2.8 0 5.1 2.3 5.1 5.1S36.6 59 33.7 59z"/><path d="M104.8 28.1h-7.3C94.7 21 91.9 14 91.1 12c-1.9-4.4-7.3-6.4-11.3-7.5C78.7 4 73 2 57.5 2 41.8 2 36.2 4.1 35.1 4.5c-3.6 1.2-9 3.1-11.3 7.6-.7 1.5-3.5 8.6-6.4 16h-7.2c-6.9 0-9.4 4.2-9.4 8.1 0 2 .9 5.4 6.9 5.4h4.5c-1 2.7-1.7 4.5-1.8 4.8l-.1.3v28.5c0 3.7 3 6.8 6.8 6.8h9.5c3.7 0 6.8-3 6.8-6.8v-2.7h48.2v2.7c0 3.7 3 6.8 6.8 6.8h9.5c3.7 0 6.8-3 6.8-6.8V46.8l-.1-.3c-.1-.3-.8-2.1-1.8-4.8h4.5c6 0 6.9-3.4 6.9-5.4-.1-4-2.5-8.2-9.4-8.2zM27.4 13.9c1.6-3.1 5.9-4.5 9.1-5.6l.2-.1S41.8 6 57.5 6s20.7 2.2 20.8 2.2l.3.1c1.8.5 7.4 2.1 8.8 5.3.8 1.8 3.3 8.1 5.9 14.8l.2.5c.6 1.5 1.8 4.5.6 6.3-1 1.5-3.8 2.4-8.1 2.4H29c-4.2 0-7-.8-8.1-2.4-1.2-1.8 0-4.9.6-6.3l.2-.5h-.1c2.7-7 5.2-13.3 5.8-14.5zM7.8 37.6c-2.9 0-2.9-.7-2.9-1.4 0-2.8 1.8-4.1 5.4-4.1H16c-.7 1.9-1.4 3.8-2.1 5.5H7.8zm21.6 37.6c0 1.5-1.2 2.8-2.8 2.8h-9.5c-1.5 0-2.8-1.2-2.8-2.8V72c.8.3 1.6.5 2.5.5h12.5v2.7zM97.9 78h-9.5c-1.5 0-2.8-1.2-2.8-2.8v-2.7h12.5c.9 0 1.7-.2 2.5-.5v3.2c0 1.6-1.2 2.8-2.7 2.8zm2.7-11.9c0 1.3-1.1 2.4-2.5 2.4H16.9c-1.4 0-2.5-1.1-2.5-2.4V47.5c.9-2.4 2.2-5.8 3.6-9.6 2 2.5 5.6 3.7 11 3.7h57c5.4 0 9-1.2 11-3.6 1.8 4.6 3.2 8.4 3.7 9.5v18.6zm6.6-28.5h-6.1c-.7-1.7-1.4-3.6-2.1-5.5h5.8c3.6 0 5.4 1.4 5.4 4.1-.1.7-.1 1.4-3 1.4z"/></g></svg>