<svg id="Calque_1" xmlns="http://www.w3.org/2000/svg" width="100" height="100" viewBox="0 0 100 100"><style>.st0{fill:#fff}</style><title>icon-cloudy</title><path class="st0" d="M77.9 87H26.2C12.3 87.1 1 75.9 1 62c-.1-12.7 9.4-23.5 22.1-25 1.7-14.9 15.2-25.5 30.1-23.8 9.4 1.1 17.6 7 21.5 15.7 5 .2 9.6 2.6 12.7 6.5 3.1 3.9 4.3 8.9 3.4 13.7 9.2 7.1 10.9 20.4 3.8 29.7-4.1 5.1-10.2 8.2-16.7 8.2zM50.1 19.6c-11.4 0-20.6 9.1-20.7 20.5 0 1.8-1.5 3.2-3.3 3.2-10.3 0-18.6 8.3-18.6 18.6s8.3 18.6 18.6 18.6h51.7c8.1 0 14.6-6.6 14.6-14.7 0-5.1-2.7-9.9-7.2-12.5-1.3-.8-1.9-2.4-1.4-3.8 1.2-3.4.6-7.2-1.7-10-2.2-2.8-5.7-4.3-9.3-4-1.5.2-2.9-.7-3.4-2.2-2.8-8.3-10.6-13.8-19.3-13.7z"/></svg>