<svg id="Calque_1" xmlns="http://www.w3.org/2000/svg" width="100" height="100" viewBox="0 0 100 100"><style>.st0{fill:#fff}</style><title>icon-partly-cloudy</title><path class="st0" d="M8.3 43.3h-4C2.5 43.3 1 41.8 1 40c0-1.8 1.5-3.3 3.3-3.3h4c1.8 0 3.3 1.5 3.3 3.3-.1 1.9-1.5 3.3-3.3 3.3zm7.9-23.9c-.9 0-1.7-.3-2.3-1l-4-4c-1.3-1.3-1.3-3.4 0-4.7s3.4-1.3 4.7 0l4 4c1.3 1.2 1.3 3.3.1 4.6-.7.7-1.6 1.1-2.5 1.1zm47.7 0c-1.8 0-3.3-1.4-3.3-3.2 0-.9.3-1.7 1-2.3l4-4c1.3-1.3 3.4-1.3 4.7 0 1.3 1.3 1.3 3.4 0 4.7l-4 3.9c-.7.5-1.5.9-2.4.9zM40 11.6c-1.8 0-3.3-1.5-3.3-3.3v-4C36.7 2.5 38.2 1 40 1c1.8 0 3.3 1.5 3.3 3.3v4c0 1.8-1.5 3.3-3.3 3.3zm39.6 87.3H36c-12.8-.2-23-10.6-22.9-23.4.1-10.8 7.7-20 18.2-22.3 2.6-13.7 15.7-22.6 29.3-20 7.7 1.5 14.3 6.4 17.7 13.5 8.4.4 14.8 7.4 14.5 15.8 0 1-.2 1.9-.4 2.9 8 7 8.8 19.1 1.8 27-3.6 4.2-8.9 6.6-14.6 6.5zM55.8 39.3c-9.7-.1-17.7 7.4-18.4 17-.1 1.6-1.4 2.9-3 3.1C25.3 60.6 18.9 68.9 20 78c1 8.1 7.8 14.3 15.9 14.5h43.7c7-.1 12.6-5.8 12.5-12.8 0-4.2-2.1-8-5.5-10.3-1.3-.9-1.8-2.5-1.2-4 1.9-4.4-.1-9.4-4.5-11.3-1.4-.6-3-.8-4.5-.6-1.4.1-2.8-.8-3.3-2.1-2.6-7.5-9.5-12.2-17.3-12.1zM17.5 51c-1.4 0-2.7-1-3.1-2.3-1-2.8-1.5-5.8-1.5-8.8.1-15 12.3-27 27.3-26.9 7.7.1 15 3.4 20.1 9.1 1.4 1.1 1.7 3.1.6 4.6-1.1 1.4-3.1 1.7-4.6.6-.3-.2-.5-.5-.7-.7-7.4-8.6-20.4-9.6-29-2.2C22 28.2 19.4 34 19.4 40c0 2.3.4 4.6 1.1 6.8.6 1.7-.3 3.5-2 4.1-.3.1-.7.1-1 .1z"/></svg>