<svg xmlns="http://www.w3.org/2000/svg" width="124" height="124" viewBox="0 0 124 124"><path fill="#FFF" d="M119.3 69.8c-1.1-.2-2.2.6-2.4 1.7-4.6 26.8-27.7 46.3-54.9 46.3-30.7.1-55.8-25-55.8-55.8 0-30.8 25-55.9 55.8-55.9 2.8 0 5.5.2 8.1.6L51.4 17.4c-1 .6-1.3 1.8-.8 2.8l4 7.1-9 15.3-24.4 7.3c-.5.2-1 .5-1.2 1-.3.5-.3 1.1-.2 1.6l10.1 32.7c.2.6.7 1.1 1.3 1.3l26.3 9.6v11.1c0 1.1.9 2.1 2.1 2.1 1.1 0 2.1-.9 2.1-2.1V94.7c0-.9-.5-1.6-1.4-1.9l-26.7-9.7-9.1-29.8 23.1-7c.5-.1.9-.5 1.2-.9l10.1-17c.4-.6.4-1.4 0-2.1L55.2 20 76.3 8c9.7 2.6 18.6 7.8 25.6 15l-8.7 9.9c-.8.9-.7 2.2.2 2.9.4.3.9.5 1.4.5.6 0 1.1-.2 1.5-.7l8.4-9.5c1.1 1.3 2.2 2.7 3.2 4.2.6.9 1.9 1.2 2.9.5.9-.6 1.2-1.9.5-2.9-1.6-2.3-3.3-4.5-5.2-6.5v-.1C98.2 12.8 87.9 6.7 76.7 3.8h-.1C71.8 2.6 67 2 62 2 29 2 2.1 28.9 2.1 62S29 122 62 122c29.2 0 54.1-20.9 59-49.8.2-1.1-.5-2.2-1.7-2.4zm1.8-23.6c-1.9-4.2-6.7-6.1-10.9-4.4l-17.5 7-19.5-12.2c-.6-.4-1.4-.4-2-.1L61 41.8c-.6.3-1.1 1-1.1 1.7s.3 1.4.9 1.8L76 55.5l-15.4 6.1L48.1 56c-.6-.3-1.3-.2-1.9.1L36.1 62c-.6.4-1 1-1 1.7s.3 1.4.9 1.8l23 14.8c.6.4 1.3.4 1.9.2l18.5-7.3-8 20.8c-.3.8-.1 1.7.6 2.3.4.3.9.5 1.4.5.3 0 .7-.1 1-.2l11.4-6c.4-.2.7-.5.9-.8l13.6-24.9 16.7-7.4c2.1-.9 3.7-2.6 4.5-4.7.6-2.1.6-4.5-.4-6.6zm-55.2-2.4l6.1-3.1 16 10-7.3 2.9-14.8-9.8zm51.6 7.5c-.4 1.1-1.3 2-2.3 2.4l-17.4 7.7c-.4.2-.8.5-1 .9L83.2 87.2l-6 3.1 7.7-20.1c.3-.8.1-1.6-.5-2.2-.4-.4-.9-.6-1.5-.6-.3 0-.5 0-.8.1l-21.9 8.6-19.1-12.3 6.2-3.6 12.4 5.6c.5.2 1.1.2 1.6 0l50.4-20.2c2.2-.9 4.6.1 5.6 2.3.5 1.1.6 2.3.2 3.4z"/></svg>