<svg xmlns="http://www.w3.org/2000/svg" width="98" height="98" viewBox="0 0 98 98"><path fill="#FFF" d="M49.1 62.9H38.4c-.8 0-1.1.2-1 1v9.6c0 2.4-1.6 4.2-3.8 4.2-2.2 0-3.8-1.7-3.8-4.2V64c0-.8-.2-1.1-1.1-1.1-1.7.1-3.4 0-5.1 0-2.8 0-4.7-2.3-3.9-5 1.5-5.2 3.1-10.4 4.7-15.5.6-1.8 1.6-3.3 3.7-3.7.3-.1.6-.5.7-.9 1.2-3.8 2.3-7.7 3.5-11.5.5-1.7 1.5-3.1 3.4-3.4 1.1-.2 2.3-.1 3.4-.1.8 0 1.3-.2 1.5-1.1.2-1.1.6-2.1.9-3.2.4-1.2.8-1.5 2-1.5s1.2 0 1.2-1.3V4.4c0-2.7 1.9-4.6 4.5-4.5C63.8.3 76 5.8 85.8 16.6c6.1 6.8 10.1 14.7 11.5 23.7 3.1 19.7-3.4 35.8-19.1 48.1-6.3 4.9-13.6 7.9-21.4 9-14.7 2.1-27.8-1.5-39.2-11C9.1 79.5 3.8 70.6 1.3 60 .3 55.6-.2 51.2.1 46.7 1.8 26.4 12 12 30.6 3.7c2.4-1.1 4.7-.2 5.8 1.9 1.1 2.2.2 4.7-2.1 5.8-2 1-4.1 1.8-6 3-10.4 6.5-17 15.8-19 27.9-2.3 14 1.8 26.2 12.1 36.1 6 5.8 13.3 9.4 21.6 10.5 15.9 2.1 28.9-3.3 38.7-16 4.1-5.3 6.6-11.4 7.4-18.1C90.8 40.7 86.5 28.6 76 19c-5.7-5.2-12.4-8.3-20-9.6l-1.8-.3c-.5-.1-.8 0-.8.6v6.7c0 .5.2.8.7.7 1.7-.2 2.1.1 2.6 2 .3.9.6 1.9.8 2.8.2.7.5.9 1.2.9.9-.1 1.8 0 2.7 0 1.9 0 3.5 1.1 4.1 3 1.2 3.9 2.4 7.8 3.6 11.8.2.8.5 1.2 1.4 1.3 1.5.3 2.4 1.4 2.9 2.7.9 2.7 1.7 5.4 2.6 8.1.8 2.5 1.5 5.1 2.4 7.6 1.1 3.3-1.3 5.8-4.1 5.6-1.6-.1-3.2 0-4.9 0-.8 0-1 .3-1 1v9c0 .8-.1 1.7-.4 2.4-.6 1.7-2.4 2.6-4.2 2.3-1.7-.3-3-1.9-3.1-3.8V64c0-.8-.2-1.1-1.1-1.1H49.1zm14.3-24.3v-.3c-.8-2.9-1.6-5.8-2.5-8.7-.4-1.3-1-1.6-2.4-1.6H40c-1.9 0-2.4.4-3 2.2l-1.8 6.3c-.2.7-.3 1.4-.5 2.1h28.7zM37.1 50.8c0-2.1-1.5-3.6-3.5-3.6-2.1 0-3.6 1.5-3.5 3.6 0 2.1 1.6 3.7 3.6 3.6 1.8 0 3.4-1.5 3.4-3.6zm24 0c0 2.1 1.5 3.7 3.5 3.7s3.5-1.6 3.6-3.6c0-2.1-1.4-3.7-3.5-3.7s-3.6 1.5-3.6 3.6z"/></svg>