<svg id="Calque_1" xmlns="http://www.w3.org/2000/svg" width="100" height="100" viewBox="0 0 100 100"><style>.st0{fill:#0eadff}</style><path class="st0" d="M94.5.8H63.1c-2.5 0-4.5 2-4.5 4.5s2 4.5 4.5 4.5H84L39.3 54.5c-1.8 1.8-1.8 4.7 0 6.4.9.9 2.1 1.3 3.2 1.3s2.3-.4 3.2-1.3l44.1-44.1v19.9c0 2.5 2 4.5 4.5 4.5s4.5-2 4.5-4.5V5.4C99 2.8 97 .8 94.5.8z"/><path class="st0" d="M78.7 46.6c-2.5 0-4.5 2-4.5 4.5V87c0 1.6-1.4 3-3 3h-58c-1.6 0-3-1.4-3-3V29c0-1.6 1.4-3 3-3h36c2.5 0 4.5-2 4.5-4.5s-2-4.5-4.5-4.5h-36C6.4 16.9 1 22.4 1 29.1v58c0 6.7 5.4 12.1 12.1 12.1h58c6.7 0 12.1-5.4 12.1-12.1V51.2c.1-2.5-2-4.6-4.5-4.6z"/></svg>