<svg xmlns="http://www.w3.org/2000/svg" width="104" height="104" viewBox="0 0 104 104"><path d="M52 2C24.4 2 2 24.4 2 52s22.4 50 50 50 50-22.4 50-50S79.6 2 52 2zm47.4 48.5l-34.7-5.8 7.4-11.1c.3-.5.3-1.2-.2-1.6-.4-.4-1.1-.5-1.6-.2l-11.1 7.4-5.7-34.6c25 .8 45.1 20.9 45.9 45.9zM47 63.2l5-3.4 5 3.4-5 30-5-30zm5.7-5.9c-.2-.1-.5-.2-.7-.2-.2 0-.5.1-.7.2l-13.9 9.3 9.3-13.9c.3-.4.3-1 0-1.4l-9.3-13.9 13.9 9.3c.4.3 1 .3 1.4 0l13.9-9.3-9.3 13.9c-.3.4-.3 1 0 1.4l9.3 13.9-13.9-9.3zM44.1 52l-3.4 5-30-5 30-5 3.4 5zM57 40.8l-5 3.4-5-3.4 5-30 5 30zM59.9 52l3.4-5 30 5-30 5-3.4-5zM50.5 4.6l-5.8 34.7-11.1-7.4c-.5-.3-1.2-.3-1.6.2-.4.4-.5 1.1-.2 1.6l7.4 11.1-34.6 5.7c.8-25 20.9-45.1 45.9-45.9zM4.6 53.5l34.7 5.8-7.4 11.1c-.3.5-.3 1.2.2 1.6.4.4 1.1.5 1.6.2l11.1-7.4 5.8 34.7c-25.1-.9-45.2-21-46-46zm48.9 45.9l5.8-34.7 11.1 7.4c.2.1.5.2.7.2.3 0 .6-.1.9-.4.4-.4.5-1.1.2-1.6l-7.4-11.1 34.7-5.8c-.9 25.1-21 45.2-46 46z"/></svg>