<svg id="Calque_1" xmlns="http://www.w3.org/2000/svg" width="100" height="100" viewBox="0 0 100 100"><style>.st0{fill:#fff}</style><path class="st0" d="M70.4 34.6c-.5-1.2-1-2.1-2-3s-1.8-1.5-3-2c-.9-.4-2.3-.8-4.9-.9-2.8-.1-3.6-.2-10.6-.2s-7.8 0-10.6.2c-2.6.1-3.9.5-4.9.9-1.2.5-2.1 1-3 2s-1.5 1.8-2 3c-.4.9-.8 2.3-.9 4.9-.1 2.8-.2 3.6-.2 10.6s0 7.8.2 10.6c.1 2.6.5 3.9.9 4.9.5 1.2 1 2.1 2 3s1.8 1.5 3 2c.9.4 2.3.8 4.9.9 2.8.1 3.6.2 10.6.2s7.8 0 10.6-.2c2.6-.1 3.9-.5 4.9-.9 1.2-.5 2.1-1 3-2 .9-.9 1.5-1.8 2-3 .4-.9.8-2.3.9-4.9.1-2.8.2-3.6.2-10.6s0-7.8-.2-10.6c-.1-2.6-.5-4-.9-4.9zM50 63.5c-7.4 0-13.5-6-13.5-13.5 0-7.4 6-13.5 13.5-13.5s13.5 6 13.5 13.5c0 7.4-6.1 13.5-13.5 13.5zm14-24.3c-1.7 0-3.1-1.4-3.1-3.1 0-1.7 1.4-3.1 3.1-3.1s3.1 1.4 3.1 3.1c0 1.7-1.4 3.1-3.1 3.1z"/><circle class="st0" cx="50" cy="50" r="8.7"/><path class="st0" d="M50 1C22.9 1 1 22.9 1 50s21.9 49 49 49 49-21.9 49-49S77.1 1 50 1zm26 59.8c-.1 2.8-.6 4.7-1.2 6.4-.7 1.7-1.6 3.2-3 4.6s-2.9 2.4-4.6 3c-1.7.6-3.6 1.1-6.4 1.2-2.8.1-3.7.2-10.8.2s-8 0-10.8-.2c-2.8-.1-4.7-.6-6.4-1.2-1.7-.7-3.2-1.6-4.6-3s-2.4-2.9-3-4.6c-.6-1.7-1.1-3.6-1.2-6.4-.1-2.8-.2-3.7-.2-10.8 0-7.1 0-8 .2-10.8.1-2.8.6-4.7 1.2-6.4.7-1.7 1.6-3.2 3-4.6s2.9-2.4 4.6-3c1.7-.6 3.6-1.1 6.4-1.2 2.8-.1 3.7-.2 10.8-.2s8 0 10.8.2c2.8.1 4.7.6 6.4 1.2 1.7.7 3.2 1.6 4.6 3s2.4 2.9 3 4.6c.6 1.7 1.1 3.6 1.2 6.4.1 2.8.2 3.7.2 10.8s0 8-.2 10.8z"/></svg>