<svg xmlns="http://www.w3.org/2000/svg" width="126" height="124" viewBox="0 0 126 124"><path fill="#FFF" d="M37.8 69.8c.4.4.9.6 1.5.6.5 0 1.1-.2 1.5-.6l7.5-7.4c.8-.8.8-2.1 0-2.9l-7.5-7.4c-.8-.8-2.1-.8-2.9 0l-7.5 7.4c-.8.8-.8 2.1 0 2.9l7.4 7.4zm1.5-13.5l4.5 4.5-4.5 4.5-4.6-4.5 4.6-4.5zm13.5-1.4c.4.4.9.6 1.5.6s1.1-.2 1.5-.6l7.5-7.4c.8-.8.8-2.1 0-2.9L55.8 37c-.8-.8-2.2-.8-2.9 0l-7.5 7.4c-.8.8-.8 2.1 0 2.9l7.4 7.6zm1.5-13.5l4.5 4.5-4.5 4.5-4.6-4.4 4.6-4.6zm58 13.3h-3.2v-8c6.2-2.8 10.6-9 10.6-16.3 0-9.9-8.1-17.9-18-17.9-1.6 0-3.1.2-4.6.6C94.4 6.6 88 2 80.5 2c-9.9 0-18 8-18 17.9 0 .9.1 1.8.2 2.7-3.6-2.2-7.8-3.4-12.2-3.4-6.2 0-12.1 2.4-16.5 6.8L7.8 51.9c-9.1 9-9.1 23.7 0 32.7l7.5 7.4c4.4 4.4 10.2 6.8 16.5 6.8 6.2 0 12.1-2.4 16.5-6.8l26.2-26c4.4-4.4 6.8-10.2 6.8-16.4 0-4.4-1.2-8.5-3.5-12.2.9.1 1.8.2 2.7.2 1.6 0 3.1-.2 4.6-.6 2.7 6.5 9.1 11.1 16.6 11.1 1.1 0 2.2-.1 3.2-.3v6.7h-3.2c-7 0-12.7 5.7-12.7 12.6v15.8c0 1.1.9 2.1 2.1 2.1h8.5v24.3c0 .3.1.7.2 1l5.5 10.5c.4.7 1.1 1.1 1.8 1.1.8 0 1.5-.5 1.8-1.2l5.1-10.5c.1-.3.2-.6.2-.9V85.1h8.5c1.2 0 2.1-.9 2.1-2.1V67.3c.2-7-5.5-12.6-12.5-12.6zM64.1 28.8l3.6 3.6.2.2 3.7 3.7c2.1 2.1 3.7 4.6 4.6 7.4L45.3 74.3c-3.3 3.3-8.7 3.3-12 0l-7.5-7.5c-1.6-1.6-2.5-3.7-2.5-6s.9-4.4 2.5-6l30.8-30.6c2.8.9 5.3 2.5 7.5 4.6zm7.5 34.3L45.3 89.2c-3.6 3.6-8.4 5.6-13.5 5.6s-9.9-2-13.5-5.6l-7.5-7.4c-7.5-7.4-7.5-19.5 0-26.9L37 28.8c3.6-3.6 8.4-5.6 13.5-5.6.4 0 .8 0 1.1.1L22.8 51.9c-2.4 2.4-3.7 5.5-3.7 8.9 0 3.4 1.3 6.5 3.7 8.9l7.5 7.5c2.5 2.5 5.7 3.7 9 3.7 3.2 0 6.5-1.2 9-3.7l28.8-28.7c0 .4.1.7.1 1.1 0 5.2-2 9.9-5.6 13.5zm12.3-30c-1.1.3-2.3.5-3.5.5-3.7 0-7.1-1.5-9.6-3.9l-.2-.2c-2.4-2.5-3.9-5.9-3.9-9.6 0-7.6 6.2-13.7 13.8-13.7 5.8 0 10.7 3.5 12.8 8.5-5.7 3-9.6 8.9-9.6 15.8 0 .8.1 1.7.2 2.6zm4-2.7c0-4.8 2.6-9.1 6.4-11.6 0 .3.1.7.1 1 0 4.9-2.6 9.1-6.4 11.6-.1-.3-.1-.7-.1-1zm13.8 13.7c-5.8 0-10.7-3.5-12.8-8.5 5.7-3 9.5-8.9 9.5-15.8 0-.9-.1-1.8-.2-2.7 1.1-.3 2.3-.5 3.5-.5 7.6 0 13.8 6.2 13.8 13.7 0 4.9-2.6 9.1-6.4 11.6v-3.7c0-1.1-.9-2.1-2.1-2.1-1.2 0-2.1.9-2.1 2.1v5.4c-1 .4-2.1.5-3.2.5zm8.5 64.8l-3.1 6.4-3.4-6.4V85.1h6.4v23.8zM120.8 81H93.2V67.3c0-4.7 3.8-8.5 8.5-8.5h3.2v5.8c0 1.1.9 2.1 2.1 2.1 1.2 0 2.1-.9 2.1-2.1v-5.8h3.2c4.7 0 8.5 3.8 8.5 8.5V81z"/></svg>