<svg id="Calque_1" xmlns="http://www.w3.org/2000/svg" width="152" height="66" viewBox="0 0 152 66"><style>.st0{fill:#05f}</style><path transform="rotate(-45.001 138.757 12.967)" d="M138.5-4h.6v33.9h-.6z"/><path transform="rotate(-45.001 114.77 36.973)" d="M114.5 20h.6v33.9h-.6z"/><path class="st0" d="M13 25.1c3.7 0 6.8 3 6.8 6.8s-3 6.8-6.8 6.8-6.8-3-6.8-6.8 3-6.8 6.8-6.8"/><path d="M75 41.1c0-.3.1-.6.2-.9.1-.3.3-.5.5-.8.2-.2.4-.4.7-.5.3-.1.6-.2 1-.2s.7.1 1 .2.5.3.7.5.4.5.5.8.2.6.2.9c0 .3-.1.6-.2.9-.1.3-.3.5-.4.7l.4.3-.6.6-.5-.4c-.2.1-.3.1-.5.2-.2 0-.4.1-.6.1-.4 0-.7-.1-1-.2-.3-.1-.5-.3-.7-.5s-.4-.5-.5-.8c-.1-.4-.2-.6-.2-.9zm3.7-.1c0-.2 0-.4-.1-.6-.1-.2-.1-.4-.3-.5-.1-.1-.3-.3-.4-.3-.2-.1-.4-.1-.6-.1s-.4 0-.6.1-.3.2-.4.3-.2.3-.3.5v.6c0 .2 0 .4.1.6.1.2.1.4.3.5.1.1.3.3.4.3.2.1.4.1.6.1s.3 0 .4-.1l-.5-.4.5-.5.6.5c.1-.1.2-.3.2-.5.1-.1.1-.3.1-.5zM82.3 42.9c-.1.2-.3.3-.5.4-.2.1-.3.1-.5.1s-.4 0-.5-.1-.3-.1-.3-.2c-.1-.1-.2-.2-.2-.3s-.1-.3-.1-.4v-2.1h.9V42.5c0 .1.1.1.1.2.1 0 .1.1.2.1h.2c.2 0 .3-.1.4-.2.1-.1.2-.3.2-.5v-1.8h.9v3.1h-.9v-.5h.1zM84.5 42c0 .1 0 .2.1.3 0 .1.1.2.2.2.1.1.2.1.3.2.1 0 .2.1.4.1.3 0 .6-.1.7-.4l.8.2c-.1.3-.3.5-.6.6-.2.1-.6.2-1 .2-.3 0-.5 0-.7-.1s-.4-.2-.5-.3-.3-.3-.3-.5c-.1-.2-.1-.4-.1-.7s0-.5.1-.7.2-.4.3-.5.3-.3.5-.3c.2-.1.4-.1.7-.1.5 0 .9.1 1.2.4.3.3.4.7.4 1.2v.2h-2.5zm1.5-.6v-.2c0-.1-.1-.2-.1-.2l-.2-.2c-.1 0-.2-.1-.3-.1-.2 0-.3 0-.4.1-.1 0-.2.1-.2.2-.1.1-.1.1-.1.2s-.1.2-.1.2H86zm-.5-2.6h.9l-.9.9h-.6l.6-.9zM87.3 38.6h.9v2c.2-.2.3-.3.5-.4.2-.1.3-.1.5-.1s.4 0 .6.1.3.2.5.4c.1.2.2.3.3.5.1.2.1.4.1.6 0 .2 0 .4-.1.6-.1.2-.2.4-.3.5-.1.2-.3.3-.5.4-.2.1-.4.1-.6.1s-.4 0-.6-.1-.3-.2-.5-.4v.4h-.9l.1-4.6zm2.5 3.2v-.3c0-.1-.1-.2-.1-.3-.1-.1-.1-.2-.2-.2-.1-.1-.2-.1-.3-.1-.1 0-.3 0-.4.1s-.2.1-.2.2c-.1.1-.1.2-.2.3v.3c0 .1 0 .3.1.4 0 .1.1.2.2.3s.1.2.2.2.2.1.3.1c.1 0 .2 0 .3-.1.1-.1.2-.1.2-.2.1-.1.1-.2.2-.3-.2-.2-.1-.3-.1-.4zM91.9 42c0 .1 0 .2.1.3 0 .1.1.2.2.2.1.1.2.1.3.2.1 0 .2.1.4.1.3 0 .6-.1.7-.4l.8.2c-.1.3-.3.5-.6.6-.2.1-.6.2-1 .2-.3 0-.5 0-.7-.1s-.4-.2-.5-.3-.3-.3-.3-.5c-.2-.3-.3-.5-.3-.7 0-.3 0-.5.1-.7s.2-.4.3-.5.3-.3.5-.3c.2-.1.4-.1.7-.1.5 0 .9.1 1.2.4.3.3.4.7.4 1.2v.2h-2.3zm1.5-.6v-.2c0-.1-.1-.2-.1-.2l-.2-.2c-.1 0-.2-.1-.3-.1-.2 0-.3 0-.4.1-.1 0-.2.1-.2.2-.1 0-.2.1-.2.2s-.1.2-.1.2h1.5zM97.1 41.2c0-.1-.1-.2-.2-.3s-.3-.1-.4-.1c-.2 0-.3 0-.4.1s-.2.1-.3.2c-.1.1-.1.2-.1.3v.4c0 .3.1.5.2.6s.3.3.6.3c.2 0 .3 0 .4-.1l.3-.3.8.3c-.1.2-.3.4-.6.6-.2.2-.6.2-.9.2s-.5 0-.8-.1c-.2-.1-.4-.2-.5-.3s-.2-.3-.3-.5c-.1-.2-.1-.4-.1-.7 0-.2 0-.5.1-.7s.2-.4.3-.5c.1-.1.3-.3.5-.4.2-.1.4-.1.7-.1.4 0 .7.1 1 .2.2.2.4.4.5.6l-.8.3zM103.2 40.4c-.1-.3-.2-.5-.4-.6-.2-.1-.4-.2-.7-.2-.2 0-.4 0-.5.1-.2.1-.3.2-.4.3s-.2.3-.3.5c-.1.2-.1.4-.1.6 0 .2 0 .5.1.6.1.2.1.3.3.5.1.1.2.2.4.3.2.1.3.1.5.1s.4-.1.6-.2c.2-.1.3-.3.4-.5l1 .1c-.1.2-.2.5-.3.6-.1.2-.3.3-.5.4-.2.1-.4.2-.6.2-.2.1-.5.1-.7.1-.3 0-.6-.1-.9-.2-.3-.1-.5-.3-.7-.5s-.4-.4-.5-.7-.2-.6-.2-1c0-.3.1-.6.2-.9s.3-.5.5-.7.4-.4.7-.5c.3-.1.6-.2.9-.2s.5 0 .7.1.4.1.6.3c.2.1.3.3.5.5.1.2.2.4.3.7l-.9.2zM104.5 39.2V39c0-.1.1-.1.1-.2 0 0 .1-.1.2-.1h.4c.1 0 .1.1.2.1s.1.1.1.2v.4c0 .1-.1.1-.1.2 0 0-.1.1-.2.1h-.4c-.1 0-.1-.1-.2-.1 0 0-.1-.1-.1-.2v-.2zm0 1h.9v3.1h-.9v-3.1zM105.8 40.2h.5v-.9h.9v.9h.7v.7h-.7v1.5c0 .1 0 .2.1.2s.1.1.3.1h.3v.7h-1c-.1 0-.2-.1-.3-.1-.1-.1-.1-.2-.2-.3 0-.1-.1-.3-.1-.4V41h-.5v-.8zM109.2 43.3l-1.2-3.1h1l.7 2.1.7-2.1h.9l-1.7 4.4h-.9l.5-1.3zM75.8 48.8c.2 0 .4-.1.5-.2.1-.1.1-.3.1-.6v-2.2h-.8V45h1.7v3c0 .3 0 .6-.1.8s-.2.4-.3.5c-.1.1-.3.2-.5.3s-.4.1-.6.1h-.4v-.8h.2c.1-.1.2-.1.2-.1zM78.8 48.1c0 .1 0 .2.1.3 0 .1.1.2.2.2.1.1.2.1.3.2.1 0 .2.1.4.1.3 0 .5-.1.7-.4l.8.2c-.1.3-.3.5-.6.6s-.6.2-1 .2c-.3 0-.5 0-.7-.1s-.4-.2-.5-.3-.3-.3-.3-.5c-.1-.2-.1-.4-.1-.7s0-.5.1-.7.2-.4.3-.5c.1-.1.3-.3.5-.3s.4-.1.7-.1c.5 0 .9.1 1.2.4.3.3.4.7.4 1.2v.2h-2.5zm1.5-.5v-.2c0-.1-.1-.2-.1-.2-.1-.2-.2-.2-.3-.3-.1 0-.2-.1-.3-.1-.2 0-.3 0-.4.1s-.2.1-.2.2c-.1.1-.1.1-.1.2s-.1.2-.1.2l1.5.1zM83.6 49c-.1.2-.2.3-.4.4-.2.1-.4.1-.6.1h-.4c-.1 0-.2-.1-.3-.2l-.3-.3c-.1-.1-.1-.3-.1-.5s0-.4.1-.5l.3-.3c.1-.1.3-.1.5-.2h1v-.1c0-.2 0-.3-.1-.4-.1-.1-.2-.1-.4-.1s-.3 0-.4.1-.1.2-.1.3h-.8c0-.1 0-.3.1-.4.1-.1.1-.2.3-.3.1-.1.3-.2.5-.2.2-.1.4-.1.6-.1.3 0 .5 0 .6.1.2.1.3.1.4.2.1.1.2.2.2.4 0 .1.1.3.1.5v2h-.8V49zm0-.9h-.5c-.1 0-.2 0-.3.1-.1 0-.2.1-.2.1-.1.1-.1.1-.1.2 0 .2 0 .3.1.3.1.1.2.1.4.1h.2c.1 0 .2-.1.2-.1l.2-.2c0-.1.1-.2.1-.3l-.1-.2zM87 47.6v-.3c0-.1-.1-.1-.1-.2-.1 0-.1-.1-.2-.1h-.2c-.2 0-.3.1-.4.2-.1.1-.2.3-.2.5v1.8H85v-3.1h.8v.4c.1-.2.3-.3.4-.4.2-.1.3-.1.5-.1s.3 0 .5.1c.1.1.3.1.3.2.1.1.2.2.2.3s.1.3.1.4v2.1H87v-1.8zM90.1 45h.9v3.7h1.7v.8h-2.6V45zM93.8 48.1c0 .1 0 .2.1.3 0 .1.1.2.2.2.1.1.2.1.3.2s.2.1.4.1c.3 0 .5-.1.7-.4l.8.2c-.1.3-.3.5-.6.6-.2.1-.6.2-1 .2-.3 0-.5 0-.7-.1s-.4-.2-.5-.3-.3-.3-.3-.5-.1-.4-.1-.7 0-.5.1-.7.2-.4.3-.5c.1-.1.3-.3.5-.3.2-.1.4-.1.7-.1.5 0 .9.1 1.2.4.3.3.4.7.4 1.2v.2h-2.5zm1.5-.5v-.2c0-.1-.1-.2-.1-.2-.1-.2-.2-.2-.2-.3-.1 0-.2-.1-.3-.1-.2 0-.3 0-.4.1-.1 0-.2.1-.2.2-.1.1-.1.1-.1.2s-.1.2-.1.2l1.4.1zM98.4 47.3c0-.1-.1-.2-.2-.3s-.2-.1-.4-.1c-.1 0-.2 0-.3.1-.1 0-.1.1-.1.2s0 .2.1.2c.1.1.2.1.4.1.1 0 .3.1.5.1s.3.1.5.1c.1.1.3.2.4.3s.1.3.1.5c0 .1 0 .2-.1.3 0 .1-.1.2-.2.3s-.3.2-.4.3c-.2.1-.4.1-.7.1h-.5c-.2 0-.3-.1-.4-.2l-.3-.3c-.1-.1-.1-.3-.1-.5h.8c0 .2.1.3.2.3.1.1.2.1.4.1h.4c.1 0 .1-.1.1-.1v-.2c0-.1 0-.2-.1-.2s-.2-.1-.3-.1c-.1 0-.3-.1-.4-.1-.2 0-.3-.1-.4-.1-.1-.1-.3-.2-.3-.3-.1-.1-.1-.3-.1-.5 0-.1 0-.2.1-.4 0-.1.1-.2.2-.3s.2-.2.4-.2.4-.1.6-.1c.4 0 .7.1 1 .2.2.2.4.4.4.7l-1.3.1zM101.8 49c-.1.2-.2.3-.4.4-.2.1-.4.1-.6.1h-.4c-.1 0-.2-.1-.3-.2l-.3-.3c-.1-.1-.1-.3-.1-.5s0-.4.1-.5l.3-.3c.1-.1.3-.1.5-.2h1v-.1c0-.2 0-.3-.1-.4s-.2-.1-.4-.1-.3 0-.4.1-.1.2-.1.3h-.8c0-.1 0-.3.1-.4.1-.1.1-.2.3-.3.1-.1.3-.2.5-.2.2-.1.4-.1.6-.1.3 0 .5 0 .6.1s.3.1.4.2c.1.1.2.2.2.4 0 .1.1.3.1.5v2h-.8V49zm0-.9h-.5c-.1 0-.2 0-.3.1-.1 0-.2.1-.2.1-.1.1-.1.1-.1.2 0 .2 0 .3.1.3.1.1.2.1.4.1h.2c.1 0 .2-.1.2-.1l.2-.2c0-.1.1-.2.1-.3l-.1-.2zM105.5 46.3h.8v2.9c0 .2 0 .4-.1.6-.1.2-.2.4-.3.5-.1.1-.3.2-.5.3s-.5.1-.8.1c-.5 0-.8-.1-1.1-.2-.3-.2-.4-.4-.5-.7l.8-.1c0 .1.1.2.3.3s.3.1.5.1c.3 0 .5-.1.7-.2.1-.1.2-.4.2-.7v-.3c-.1.2-.2.3-.4.4s-.4.1-.6.1-.4 0-.6-.1-.3-.2-.5-.3c-.1-.1-.2-.3-.3-.5-.1-.2-.1-.4-.1-.7 0-.2 0-.4.1-.6.1-.2.2-.4.3-.5.1-.1.3-.3.5-.4.2-.1.4-.1.6-.1s.4.1.6.2c.2.1.3.2.4.4v-.5zm0 1.6c0-.3-.1-.5-.2-.6s-.3-.2-.6-.2c-.1 0-.2 0-.3.1-.1 0-.2.1-.2.2-.1.1-.1.2-.2.3 0 .1-.1.2-.1.3 0 .2 0 .3.1.5.1.1.1.2.2.3s.2.1.3.1h.5c.1 0 .2-.1.3-.1.1-.1.2-.2.2-.3v-.6zM107.7 48.1c0 .1 0 .2.1.3 0 .1.1.2.2.2.1.1.2.1.3.2.1 0 .2.1.4.1.3 0 .5-.1.7-.4l.8.2c-.1.3-.3.5-.6.6s-.6.2-1 .2c-.3 0-.5 0-.7-.1s-.4-.2-.5-.3-.3-.3-.3-.5c-.1-.2-.1-.4-.1-.7s0-.5.1-.7.2-.4.3-.5c.1-.1.3-.3.5-.3s.4-.1.7-.1c.5 0 .9.1 1.2.4.3.3.4.7.4 1.2v.2h-2.5zm1.5-.5v-.2c0-.1-.1-.2-.1-.2l-.2-.2c-.1 0-.2-.1-.3-.1-.2 0-.3 0-.4.1-.1 0-.2.1-.2.2-.1.1-.1.1-.1.2s-.1.2-.1.2h1.4zM75.7 51.1h.9v4.5h-.9v-4.5zM79.4 53.7v-.3c0-.1-.1-.1-.1-.2-.1 0-.1-.1-.2-.1h-.2c-.2 0-.3.1-.4.2-.1.1-.2.3-.2.5v1.8h-.9v-3.1h.8v.4c.1-.2.3-.3.4-.4.2-.1.3-.1.5-.1s.3 0 .5.1c.1.1.3.1.3.2.1.1.2.2.2.3s.1.3.1.4v2.1h-.9l.1-1.8zM80.7 52.5h.5v-.9h.8v.9h.7v.7H82v1.5c0 .1 0 .2.1.2s.1.1.3.1h.3v.7h-1c-.1 0-.2-.1-.3-.1-.1-.1-.1-.2-.2-.3 0-.1-.1-.3-.1-.4v-1.6h-.5l.1-.8zM83.9 54.3c0 .1 0 .2.1.3 0 .1.1.2.2.2.1.1.2.1.3.2s.2.1.4.1c.3 0 .5-.1.7-.4l.8.2c-.1.3-.3.5-.6.6-.2.1-.6.2-1 .2-.3 0-.5 0-.7-.1s-.4-.2-.5-.3-.3-.3-.3-.5-.3-.5-.3-.8 0-.5.1-.7.2-.4.3-.5c.1-.1.3-.3.5-.3.2-.1.4-.1.7-.1.5 0 .9.1 1.2.4.3.3.4.7.4 1.2v.2l-2.3.1zm1.5-.6v-.2c0-.1-.1-.2-.1-.2l-.2-.2c-.1 0-.2-.1-.3-.1-.2 0-.3 0-.4.1-.1 0-.2.1-.2.2-.1.1-.1.1-.1.2s-.1.2-.1.2h1.4zM86.8 52.5h.8v.8c0-.1.1-.2.1-.3.1-.1.1-.2.2-.3s.2-.2.3-.2c.1-.1.2-.1.3-.1h.1v.8h-.1c-.1 0-.3 0-.4.1-.1 0-.2.1-.3.2-.1.1-.2.2-.2.3-.1.1-.1.2-.1.4v1.4h-.9v-3.1h.2zM91.1 53.7v-.3c0-.1-.1-.1-.1-.2-.1 0-.1-.1-.2-.1h-.2c-.2 0-.3.1-.4.2-.2.1-.2.3-.2.5v1.8h-.9v-3.1h.8v.4c.1-.2.3-.3.4-.4.2-.1.3-.1.5-.1s.3 0 .5.1c.1.1.3.1.3.2.1.1.2.2.2.3s.1.3.1.4v2.1H91l.1-1.8zM94.5 55.2c-.1.2-.2.3-.4.4-.2.1-.4.1-.6.1h-.4c-.1 0-.2-.1-.3-.2l-.3-.3c-.1-.1-.1-.3-.1-.5s0-.4.1-.5l.3-.3c.1-.1.3-.1.5-.2h1v-.1c0-.2 0-.3-.1-.4s-.1-.2-.3-.2-.3 0-.4.1-.1.2-.1.3h-.8c0-.1 0-.3.1-.4s.1-.2.3-.3c.1-.1.3-.2.5-.2.2-.1.4-.1.6-.1.3 0 .5 0 .6.1.2.1.3.1.4.2.1.1.2.2.2.4 0 .1.1.3.1.5v2h-.8l-.1-.4zm0-1H94c-.1 0-.2 0-.3.1-.1 0-.2.1-.2.1-.1.1-.1.1-.1.2 0 .2 0 .3.1.3s.2.1.4.1h.2c.1 0 .2-.1.2-.1l.2-.2c0-.1.1-.2.1-.3l-.1-.2zM95.7 52.5h.5v-.9h.8v.9h.7v.7H97v1.5c0 .1 0 .2.1.2s.1.1.3.1h.3v.7h-1c-.1 0-.2-.1-.3-.1-.1-.1-.1-.2-.2-.3 0-.1-.1-.3-.1-.4v-1.6h-.5l.1-.8zM98.1 51.5v-.2c0-.1.1-.1.1-.2 0 0 .1-.1.2-.1h.4c.1 0 .1.1.2.1 0 0 .1.1.1.2v.4c0 .1-.1.1-.1.2 0 0-.1.1-.2.1h-.4c-.1 0-.1-.1-.2-.1 0 0-.1-.1-.1-.2v-.2zm.1 1h.9v3.1h-.9v-3.1zM103 54c0 .2 0 .4-.1.6-.1.2-.2.4-.3.5-.1.2-.3.3-.5.4-.2.1-.5.1-.7.1-.3 0-.6 0-.8-.1-.2-.1-.4-.2-.5-.4s-.2-.3-.3-.5c-.1-.2-.1-.4-.1-.6 0-.2 0-.4.1-.6.1-.2.2-.4.3-.5.1-.2.3-.3.5-.4.2-.1.5-.1.7-.1.3 0 .6 0 .8.1.2.1.4.2.5.4s.2.3.3.5c.1.2.1.4.1.6zm-2.6 0c0 .3.1.5.2.7s.3.3.6.3.5-.1.6-.3.2-.4.2-.7-.1-.5-.2-.7-.3-.3-.6-.3-.5.1-.6.3-.2.5-.2.7zM105.5 53.7v-.3c0-.1-.1-.1-.1-.2-.1 0-.1-.1-.2-.1h-.2c-.2 0-.3.1-.4.2-.1.1-.2.3-.2.5v1.8h-.9v-3.1h.8v.4c.1-.2.3-.3.4-.4.2-.1.3-.1.5-.1s.3 0 .5.1c.1.1.3.1.3.2.1.1.2.2.2.3s.1.3.1.4v2.1h-.9l.1-1.8zM108.9 55.2c-.1.2-.2.3-.4.4-.2.1-.4.1-.6.1h-.4c-.1 0-.2-.1-.3-.2l-.3-.3c-.1-.1-.1-.3-.1-.5s0-.4.1-.5l.3-.3c.1-.1.3-.1.5-.2h1v-.1c0-.2 0-.3-.1-.4s-.2-.1-.4-.1-.3 0-.4.1-.1.2-.1.3h-.8c0-.1 0-.3.1-.4.1-.1.1-.2.3-.3.1-.1.3-.2.5-.2.2-.1.4-.1.6-.1.3 0 .5 0 .6.1s.3.1.4.2c.1.1.2.2.2.4 0 .1.1.3.1.5v2h-.7l-.1-.5zm0-1h-.5c-.1 0-.2 0-.3.1-.1 0-.2.1-.2.1-.1.1-.1.1-.1.2 0 .2 0 .3.1.3.1.1.2.1.4.1h.2c.1 0 .2-.1.2-.1l.2-.2c0-.1.1-.2.1-.3l-.1-.2zM110.3 50.9h.9v4.7h-.9v-4.7zM78 60.8h-1.6l-.3.9h-1l1.6-4.5h.9l1.6 4.5h-1l-.2-.9zm-.8-2.5l-.6 1.7h1.2l-.6-1.7zM79.5 57.7v-.2c0-.1.1-.1.1-.2 0 0 .1-.1.2-.1h.4c.1 0 .1.1.2.1s.1.1.1.2v.4c0 .1-.1.1-.1.2 0 0-.1.1-.2.1h-.4c-.1 0-.1-.1-.2-.1 0 0-.1-.1-.1-.2.1-.1 0-.2 0-.2zm.1.9h.9v3.1h-.9v-3.1zM81.2 58.6h.8v.8c0-.1.1-.2.1-.3.1-.1.1-.2.2-.3s.2-.2.3-.2c.1-.1.2-.1.3-.1h.1v.8h-.1c-.1 0-.3 0-.4.1-.1 0-.2.1-.3.2-.1.1-.2.2-.2.3-.1.1-.1.2-.1.4v1.4H81v-3.1h.2zM83.5 58.6h.8v.4c.1-.2.3-.3.5-.4.2-.1.4-.1.6-.1s.4 0 .6.1.3.2.5.4c.1.2.2.3.3.5.1.2.1.4.1.6s0 .4-.1.6c-.1.2-.2.4-.3.5-.1.2-.3.3-.5.4-.2.1-.4.1-.6.1s-.4 0-.5-.1c-.2-.1-.3-.2-.5-.4v1.7h-.9v-4.3zm2.4 1.6v-.4c0-.1-.1-.2-.1-.3-.1-.1-.1-.2-.2-.2s-.2-.1-.3-.1c-.1 0-.2 0-.3.1-.1 0-.2.1-.2.2-.1.1-.1.2-.2.3 0 .1-.1.2-.1.4v.3c0 .1.1.2.2.3s.2.2.3.2c.1.1.2.1.4.1.1 0 .2 0 .3-.1.1-.1.2-.1.2-.2.1-.1.1-.2.1-.3-.1-.1-.1-.2-.1-.3zM90.5 60.2c0 .2 0 .4-.1.6-.1.2-.2.4-.3.5-.1.2-.3.3-.5.4-.2.1-.5.1-.7.1-.3 0-.6 0-.8-.1-.2-.1-.4-.2-.5-.4s-.2-.3-.3-.5c-.1-.2-.1-.4-.1-.6 0-.2 0-.4.1-.6.1-.2.2-.4.3-.5.1-.2.3-.3.5-.4.2-.1.5-.1.7-.1.3 0 .6 0 .8.1.2.1.4.2.5.4s.2.3.3.5c0 .2.1.4.1.6zm-2.6 0c0 .3.1.5.2.7s.3.3.6.3.5-.1.6-.3.2-.4.2-.7-.1-.5-.2-.7-.3-.3-.6-.3-.5.1-.6.3-.2.4-.2.7zM90.9 58.6h.8v.8c0-.1.1-.2.1-.3.1-.1.1-.2.2-.3s.2-.2.3-.2c.1-.1.2-.1.3-.1h.1v.8h-.1c-.1 0-.3 0-.4.1-.1 0-.2.1-.3.2-.1.1-.2.2-.2.3-.1.1-.1.2-.1.4v1.4h-.9v-3.1h.2zM93.1 58.6h.5v-.9h.9v.9h.7v.7h-.7v1.5c0 .1 0 .2.1.2s.1.1.3.1h.3v.7h-1c-.1 0-.2-.1-.3-.1-.1-.1-.1-.2-.2-.3 0-.1-.1-.3-.1-.4v-1.6h-.5v-.8z"/><g><path d="M109 22h3.9v1l-.6 1.2c-.2.4-.4.9-.6 1.4s-.3.9-.4 1.4l-.3 1.2h-1.3c.1-.3.2-.7.3-1.2.1-.4.3-.9.5-1.4s.4-.9.6-1.3l.6-1.2H109V22zM113.6 22h3.3v1h-2.3l-.1 1.4c.2-.1.3-.2.5-.2.1 0 .3-.1.5-.1s.4 0 .7.1l.6.3c.2.2.3.4.4.6s.2.5.2.9c0 .3 0 .5-.1.8s-.2.5-.4.7c-.2.2-.4.4-.7.5-.3.1-.6.2-.9.2-.5 0-1-.1-1.3-.3-.3-.2-.6-.6-.7-1.1l1.2-.1c0 .2.1.3.2.4s.3.2.6.2.5-.1.6-.3c.1-.2.2-.5.2-.8s-.1-.5-.2-.7-.4-.3-.7-.3c-.1 0-.3 0-.4.1s-.3.1-.4.2h-.9l.1-3.5zM123.1 22h1.3l-1.9 3.7v2.4h-1.2v-2.4l-1.9-3.7h1.4l1.1 2.5 1.2-2.5zM124.9 22h3.7v1.1h-2.5v1.4h2.4v1.1h-2.4V27h2.5v1.1h-3.7V22zM132.7 26.8h-2.1l-.4 1.3h-1.3l2.2-6.1h1.3l2.1 6.1h-1.3l-.5-1.3zm-1-3.4l-.8 2.4h1.6l-.8-2.4zM136.9 25.7h-.7v2.4H135V22h2.3c.3 0 .6 0 .9.1.2.1.5.2.6.4.2.2.3.4.4.6.1.2.1.5.1.7s0 .3-.1.5c0 .2-.1.3-.2.5s-.2.3-.3.4-.3.2-.5.3l1.4 2.6h-1.4l-1.3-2.4zm.1-1c.2 0 .4 0 .5-.1s.2-.1.3-.2.1-.2.2-.3v-.3-.3c0-.1-.1-.2-.2-.3-.1-.1-.2-.1-.3-.2-.1 0-.3-.1-.5-.1h-.8v1.7l.8.1zM143.2 23.6c0-.2-.1-.4-.3-.5s-.4-.2-.7-.2-.5.1-.7.2-.3.3-.3.5c0 .1 0 .2.1.3 0 .1.1.2.2.2.1.1.2.1.4.2s.3.1.6.2.6.2.8.3c.2.1.4.2.6.4.2.1.3.3.4.5.1.2.1.4.1.7 0 .3-.1.5-.2.8-.1.2-.3.4-.5.6s-.4.3-.7.4-.6.1-1 .1-.8-.1-1.1-.2-.5-.2-.7-.4c-.2-.2-.3-.4-.4-.6-.1-.2-.1-.5-.2-.7h1.2c0 .3.1.6.3.7s.5.2.8.2.6-.1.8-.2.3-.3.3-.6c0-.2-.1-.4-.3-.6-.2-.1-.6-.2-1-.4-.3-.1-.6-.2-.8-.3l-.6-.3c-.2-.1-.3-.3-.3-.5-.1-.2-.1-.4-.1-.7 0-.3 0-.5.1-.7s.2-.4.4-.6.4-.3.7-.4.6-.2 1-.2.7 0 .9.1.5.2.7.4c.2.2.3.3.4.5.1.2.1.4.1.6l-1 .2z"/></g><path d="M10.5 61.7h4.8v-9l9.5-10.5-3.5-3.5-8.5 9.3-8.5-9.3L1 42.2l9.5 10.5v9zM49.3 61.7l-4-4c1.6-2 2.6-4.6 2.6-7.4 0-6.5-5.2-11.7-11.7-11.7s-11.7 5.2-11.7 11.7S29.8 62 36.3 62c1.9 0 3.6-.4 5.2-1.2l4.4 4.4 3.4-3.5zM29.5 50.3c0-3.7 3-6.8 6.8-6.8 3.7 0 6.8 3 6.8 6.8 0 3.7-3 6.8-6.8 6.8s-6.8-3-6.8-6.8z"/><g><path d="M62.7 61.7H51.2V39h10.3c4.7 0 7.4 2.2 7.4 6 0 2-.8 3.6-2.4 4.6 2.3.9 3.7 2.9 3.7 5.5.1 3.8-3.1 6.6-7.5 6.6zM56 57.4h6c2.9 0 3.2-1.8 3.2-2.6 0-1-.4-2.6-3.4-2.6H56v5.2zm0-9.4h5.1c1.3 0 2.8-.6 2.8-2.4 0-1.8-1.6-2.2-3-2.2H56V48z"/></g></svg>