<svg xmlns="http://www.w3.org/2000/svg" width="82" height="135" viewBox="0 0 82 135"><path fill="#FFF" d="M68.3 32.6H55.6V6.9h5.2c1.2 0 2.2-1 2.2-2.2s-1-2.2-2.2-2.2H21.1c-1.2 0-2.2 1-2.2 2.2s1 2.2 2.2 2.2h5.3v25.7H13.7C7 32.6 1.5 38.1 1.5 44.9v70.3c0 6.8 5.4 12.3 12.1 12.3h2.8v2.8c0 1.2 1 2.2 2.2 2.2 1.2 0 2.2-1 2.2-2.2v-2.8h40.4v2.8c0 1.2 1 2.2 2.2 2.2s2.2-1 2.2-2.2v-2.8h2.8c6.7 0 12.1-5.5 12.1-12.3V44.9c0-6.8-5.5-12.3-12.2-12.3zM30.7 6.9h20.5v25.7H30.7V6.9zm45.4 108.3c0 4.3-3.5 7.8-7.7 7.8H13.7c-4.3 0-7.7-3.5-7.7-7.8V44.9c0-4.3 3.5-7.8 7.7-7.8h54.7c4.3 0 7.7 3.5 7.7 7.8v70.3zM63.4 47.7H18.6c-1.2 0-2.2 1-2.2 2.2 0 1.2 1 2.2 2.2 2.2h2.8V55c0 1.2 1 2.2 2.2 2.2 1.2 0 2.2-1 2.2-2.2v-2.8h37.6c1.2 0 2.2-1 2.2-2.2 0-1.3-1-2.3-2.2-2.3zm0 40.2H18.6c-1.2 0-2.2 1-2.2 2.2v15.1c0 4 3.2 7.2 7.2 7.2h34.8c3.9 0 7.2-3.3 7.2-7.2V90.1c0-1.2-1-2.2-2.2-2.2zm-2.2 17.3c0 1.5-1.2 2.8-2.8 2.8H23.6c-1.5 0-2.8-1.3-2.8-2.8V92.3h40.4v12.9z"/></svg>