<svg id="Calque_1" xmlns="http://www.w3.org/2000/svg" width="64.8" height="100.8" viewBox="0 0 64.8 100.8"><style>.st0{fill:#fff}</style><path class="st0" d="M32.4 2.4c-17.7 0-32 14.3-32 32C.4 49 8.1 64.7 15.7 76.9s15.2 20.8 15.2 20.8c.7.8 2 .9 2.8.2l.2-.2s7.6-8.8 15.2-21.1 15.3-27.9 15.3-42.3c0-17.6-14.3-31.9-32-31.9zm0 4c15.5 0 28 12.5 28 28 0 12.9-7.3 28.2-14.7 40.1-6.2 10-11.5 16.5-13.3 18.7-1.9-2.2-7.1-8.5-13.3-18.4C11.7 62.9 4.4 47.6 4.4 34.4c0-15.5 12.5-28 28-28zm0 16c-7.7 0-14 6.3-14 14s6.3 14 14 14 14-6.3 14-14-6.3-14-14-14zm0 4c5.5 0 10 4.5 10 10s-4.5 10-10 10-10-4.5-10-10 4.5-10 10-10z"/></svg>