<svg id="Calque_1" xmlns="http://www.w3.org/2000/svg" width="100" height="63" viewBox="0 0 100 63"><style>.st0{fill:#13457c}.st1,.st2,.st3{fill-rule:evenodd;clip-rule:evenodd;fill:#fbb231}.st2,.st3{fill:#ec1c2e}.st3{fill:#fff}.st4{fill:none;stroke:#fff;stroke-width:.216;stroke-miterlimit:2.6131}</style><path class="st0" d="M99.6 59.2c0 1.8-1.5 3.3-3.3 3.3H4.8c-1.8 0-3.3-1.5-3.3-3.3V4.5c0-1.8 1.5-3.3 3.3-3.3h91.5c1.8 0 3.3 1.5 3.3 3.3v54.7z"/><path class="st1" d="M62.3 49.4h.9l.9-.1.9-.1.9-.1.8-.2.9-.3.8-.2.8-.4.8-.3.7-.4.8-.4.7-.5.7-.5.6-.5.7-.6.6-.5.6-.7.5-.6.6-.7.4-.6.5-.8.4-.7.4-.8.4-.7.3-.8.3-.9.2-.8.2-.8.2-.9.1-.9v-.9l.1-.9-.1-.9V30l-.1-.9-.2-.8-.2-.9-.2-.8-.3-.8-.3-.8-.4-.8-.4-.8-.4-.7-.5-.7-.4-.7-.6-.6-.5-.7-.6-.6-.6-.6-.7-.5-.6-.6-.7-.4-.7-.5-.8-.4-.7-.4-.8-.4-.8-.3-.8-.3-.9-.2-.8-.2-.9-.1-.9-.2h-3.6l-.8.2-.9.1-.9.2-.8.2-.8.3-.8.3-.8.4-.7.4-.8.4-.7.5-.7.4-.6.6-.7.5-.6.6-.6.6-.5.7-.5.6-.5.7-.5.7-.4.7-.4.8-.3.8-.3.8-.3.8-.3.8-.2.9-.1.8-.1.9-.1.9v1.8l.1.9.1.9.1.9.2.8.3.8.3.9.3.8.3.7.4.8.4.7.5.8.5.6.5.7.5.6.6.7.6.5.7.6.6.5.7.5.7.5.8.4.7.4.8.3.8.4.8.2.8.3.9.2.9.1.8.1.9.1h.9z"/><path class="st2" d="M38.8 49.4h.9l.9-.1.9-.1.9-.1.8-.2.8-.3.9-.2.8-.4.7-.3.8-.4.7-.4.7-.5.7-.5.7-.5.6-.6.6-.5.6-.7.6-.6.5-.7.5-.6.4-.8.4-.7.4-.8.4-.7.3-.8.3-.9.2-.8.2-.8.2-.9.1-.9v-.9l.1-.9-.1-.9V30l-.1-.9-.2-.8-.2-.9-.2-.8-.3-.8-.3-.8-.4-.8-.4-.8-.4-.7-.4-.7-.5-.7-.5-.6-.6-.7-.6-.6-.6-.6-.6-.5-.7-.6-.7-.4-.7-.5-.7-.4-.8-.4-.7-.4-.8-.3-.9-.3-.8-.2-.8-.2-.9-.1-.9-.2H37l-.9.2-.8.1-.9.2-.8.2-.8.3-.8.3-.8.4-.8.4-.7.4-.7.5-.7.4-.7.6-.6.5-.6.6-.6.6-.6.7-.5.6-.5.7-.4.7-.5.7-.4.8-.3.8-.3.8-.3.8-.2.8-.2.9-.2.8-.1.9-.1.9v1.8l.1.9.1.9.2.9.2.8.2.8.3.9.3.8.3.7.4.8.5.7.4.8.5.6.5.7.6.6.6.7.6.5.6.6.7.5.7.5.7.5.7.4.8.4.8.3.8.4.8.2.8.3.9.2.8.1.9.1.9.1h.9z"/><path class="st1" d="M48.5 21h9.4v-1h-8.6l-.8 1zM47.1 23.1h10.8v-.9H47.7l-.6.9zM46.1 25.2h11.8v-.9H46.5l-.4.9zM45.4 27.4h12.5v-1H45.7l-.3 1zM45.8 37.6h12.1v-.9H45.5l.3.9zM46.7 39.7h11.2v-.9H46.2l.5.9zM47.9 41.9h10v-1H47.3l.6 1zM49.7 44h8.2v-1h-9.1l.9 1zM44.9 29.5h13v-1H45.1l-.2 1zM52.8 35.5h4.9v-.9H53l-.2.9zM53.2 33.4h4.5v-1h-4.3l-.2 1zM44.6 32.4h1.3v1h-1.2l-.1-1z"/><path class="st3" d="M42.2 31.3h-.1l-.1-.1h-1.6l-.1.1h-.2l-.1.1-.1.1v.1h-.1v.2h.1v.2l.1.1.1.1.1.1.2.1h.2l.2.1h.2l.2.1.2.1.1.1.2.1.2.2.1.1.1.3v.2l.1.4-.1.3v.3l-.1.3-.1.2-.1.2-.1.1-.2.2-.2.1-.1.1-.2.1-.2.1-.2.1h-.4l-.2.1H38.4l-.2-.1h-.5l-.1-.1h-.2l-.1-.1h-.1l.3-1.3h.1l.1.1H38l.2.1H38.8l.1.1H39.6l.2-.1h.1l.1-.1.1-.1h.1v-.1l.1-.1V34.2l-.1-.1-.1-.2-.1-.1-.2-.1h-.2l-.2-.1-.3-.1-.2-.1-.2-.2-.2-.1-.2-.2-.2-.2-.1-.3V31.5l.1-.2v-.2l.1-.2.1-.2.1-.2.1-.1.2-.1.1-.1.2-.1.2-.1.3-.1.2-.1H42l.1.1h.4l-.3 1.4z"/><path class="st4" d="M42.2 31.3h-.1l-.1-.1h-1.6l-.1.1h-.2l-.1.1-.1.1v.1h-.1v.2h.1v.2l.1.1.1.1.1.1.2.1h.2l.2.1h.2l.2.1.2.1.1.1.2.1.2.2.1.1.1.3v.2l.1.4-.1.3v.3l-.1.3-.1.2-.1.2-.1.1-.2.2-.2.1-.1.1-.2.1-.2.1-.2.1h-.4l-.2.1H38.4l-.2-.1h-.5l-.1-.1h-.2l-.1-.1h-.1l.3-1.3h.1l.1.1H38l.2.1H38.8l.1.1H39.6l.2-.1h.1l.1-.1.1-.1h.1v-.1l.1-.1V34.2l-.1-.1-.1-.2-.1-.1-.2-.1h-.2l-.2-.1-.3-.1-.2-.1-.2-.2-.2-.1-.2-.2-.2-.2-.1-.3V31.5l.1-.2v-.2l.1-.2.1-.2.1-.2.1-.1.2-.1.1-.1.2-.1.2-.1.3-.1.2-.1H42l.1.1h.4l-.3 1.4"/><path class="st3" d="M43.6 28.5h1.7l-.3 1.4h1l-.2 1.3h-1l-.6 3.3v.2l.1.1.1.1h.1l.1.1h.6l.1-.1h.2l-.2 1.1h-.1l-.1.1H45l-.1.1h-.5l-.1.1h-.5l-.2-.1h-.4l-.2-.1h-.1l-.1-.1h-.1l-.1-.1v-.1l-.1-.1v-.8l1.1-6.4z"/><path class="st4" d="M43.6 28.5h1.7l-.3 1.4h1l-.2 1.3h-1l-.6 3.3v.2l.1.1.1.1h.1l.1.1h.6l.1-.1h.2l-.2 1.1h-.1l-.1.1H45l-.1.1h-.5l-.1.1h-.5l-.2-.1h-.4l-.2-.1h-.1l-.1-.1h-.1l-.1-.1v-.1l-.1-.1v-.8l1.1-6.4"/><path class="st4" d="M47.3 33.5v.4l.1.1v.1l.1.1.1.1v.1l.1.1.1.1.1.1.1.1h.2l.1.1H49l.2.1h.1l.2-.1h.5l.1-.1h.2l.2-.1h.1l.2-.1.2-.1-.3 1.4-.1.1h-.1l-.1.1h-.2l-.1.1h-.9l-.2.1h-.2l-.3-.1h-.6l-.3-.1-.3-.1-.3-.1-.2-.1-.3-.2-.2-.2-.2-.3-.2-.2-.1-.3-.1-.4-.1-.4v-1.1l.1-.2v-.3l.1-.2.1-.3.1-.2.1-.3.2-.2.2-.3.2-.2.3-.2.3-.2.3-.1.4-.1.4-.1h1.2l.3.1.2.1.2.1.3.1.1.2.2.2.2.3.1.2.1.3V32.6l-.1.5v.4h-4.4l.3-1.2h2.6v-.5l-.1-.1v-.1l-.1-.1v-.1l-.1-.1h-.1l-.1-.1-.1-.1h-.7l-.1.1h-.1v.1h-.1l-.1.1-.1.1-.1.1v.1l-.1.1v.1l-.1.1V32.3l-.3 1.2"/><path class="st3" d="M61.5 30.3l-.1-.1h-.1l-.1-.1h-.1L61 30H60.7l-.1-.1H60.3l-.2-.1h-.7l-.2.1H58.9l-.2.1-.1.1-.2.1-.1.1-.2.2-.1.2-.2.2-.1.3-.1.2-.2.4v.4l-.1.2v1l.1.2.1.1.1.2.1.2.1.1.1.1.2.1.2.1.2.1h.2l.1.1H60l.1-.1h.2l.1-.1.1-.1.2-.1.1-.1-.3 1.6-.1.1h-.1v.1h-.1l-.1.1H60l-.1.1h-2l-.3-.1-.2-.1-.3-.1-.3-.1-.2-.2-.3-.2-.2-.2-.2-.3-.1-.3-.2-.3-.1-.4-.1-.4v-.9l.1-.5v-.2l.1-.2.1-.3v-.2l.1-.2.1-.2v-.2l.1-.2.1-.2.1-.1.1-.2.1-.2.1-.1.1-.2.2-.1.1-.1.1-.1.1-.1.2-.1.1-.1.2-.1.2-.1.1-.1h.2l.2-.1.2-.1h.4l.2-.1h1.2l.1.1h.5l.2.1h.1l.1.1h.2l.1.1h.2l-.3 1.7z"/><path class="st4" d="M61.5 30.3l-.1-.1h-.1l-.1-.1h-.1L61 30H60.7l-.1-.1H60.3l-.2-.1h-.7l-.2.1H58.9l-.2.1-.1.1-.2.1-.1.1-.2.2-.1.2-.2.2-.1.3-.1.2-.2.4v.4l-.1.2v1l.1.2.1.1.1.2.1.2.1.1.1.1.2.1.2.1.2.1h.2l.1.1H60l.1-.1h.2l.1-.1.1-.1.2-.1.1-.1-.3 1.6-.1.1h-.1v.1h-.1l-.1.1H60l-.1.1h-2l-.3-.1-.2-.1-.3-.1-.3-.1-.2-.2-.3-.2-.2-.2-.2-.3-.1-.3-.2-.3-.1-.4-.1-.4v-.9l.1-.5v-.2l.1-.2.1-.3v-.2l.1-.2.1-.2v-.2l.1-.2.1-.2.1-.1.1-.2.1-.2.1-.1.1-.2.2-.1.1-.1.1-.1.1-.1.2-.1.1-.1.2-.1.2-.1.1-.1h.2l.2-.1.2-.1h.4l.2-.1h1.2l.1.1h.5l.2.1h.1l.1.1h.2l.1.1h.2l-.3 1.7"/><path class="st3" d="M76.1 36.3h-1.7l.2-.7v-.1l-.1.2-.1.1-.1.1h-.2l-.1.1-.1.1h-.1l-.1.1h-.1l-.1.1h-1.3l-.3-.1-.2-.2-.2-.2-.2-.2-.2-.2-.1-.2-.1-.3-.1-.3-.1-.3V34l-.1-.3v-.3l.1-.3v-.3l.1-.3.1-.4.1-.3.2-.2.2-.3.1-.3.2-.2.2-.2.2-.1.2-.2.3-.1.2-.1.2-.1.3-.1h.8l.1.1H74.5l.1.1.2.1h.1l.1.1v.1l.1.1h.1v.1l.1.1v.1h.1l.4-2.3h1.6l-1.3 7.8z"/><path class="st4" d="M76.1 36.3h-1.7l.2-.7v-.1l-.1.2-.1.1-.1.1h-.2l-.1.1-.1.1h-.1l-.1.1h-.1l-.1.1h-1.3l-.3-.1-.2-.2-.2-.2-.2-.2-.2-.2-.1-.2-.1-.3-.1-.3-.1-.3V34l-.1-.3v-.3l.1-.3v-.3l.1-.3.1-.4.1-.3.2-.2.2-.3.1-.3.2-.2.2-.2.2-.1.2-.2.3-.1.2-.1.2-.1.3-.1h.8l.1.1H74.5l.1.1.2.1h.1l.1.1v.1l.1.1h.1v.1l.1.1v.1h.1l.4-2.3h1.6l-1.3 7.8"/><path class="st1" d="M73.4 34.8H73.7l.1-.1h.2l.1-.1.1-.1.1-.1.1-.1.1-.1.1-.2.1-.1.1-.1v-.2l.1-.1v-.4l.1-.1v-.7l-.1-.1V32l-.1-.1v-.1l-.1-.1-.1-.1v-.1l-.2-.1h-.1l-.1-.1H73.9l-.1.1h-.1l-.2.1-.1.1h-.1l-.1.1-.1.2-.1.1-.1.1-.1.2v.1l-.1.2v.1l-.1.2v.2l-.1.2.1.3v.3l.1.3.1.2.2.2.1.2h.3z"/><path class="st3" d="M37 34.9l-.3 1.4h-1.5l.1-.3v-.4l.1-.1-.1.1-.1.1-.1.1-.2.1-.1.1-.2.1h-.1l-.2.1h-.1l-.2.1h-.5l-.2.1-.2-.1H32.8l-.2-.1-.2-.1-.1-.1-.2-.1-.1-.1-.1-.1-.1-.1v-.1l-.1-.2v-.1l-.1-.1v-1l.1-.2.1-.2v-.2l.2-.2.1-.1.1-.2.2-.1.1-.1.2-.2.2-.1h.2l.2-.1.2-.1h.7l.1-.1h1.4l.1-.1v-.4l-.1-.1v-.1l-.1-.1-.2-.1h-.1l-.1-.1H33.9l-.2.1h-.5l-.2.1h-.2l-.1.1h-.2l.4-1.4h.2l.1-.1h.1l.2-.1h.4l.2-.1H35.8l.1.1h.2l.2.1h.2l.2.1.2.1.1.1.2.2.1.1.1.2.1.2.1.1v.7l-.6 3.1z"/><path class="st4" d="M37 34.9l-.3 1.4h-1.5l.1-.3v-.4l.1-.1-.1.1-.1.1-.1.1-.2.1-.1.1-.2.1h-.1l-.2.1h-.1l-.2.1h-.5l-.2.1-.2-.1H32.8l-.2-.1-.2-.1-.1-.1-.2-.1-.1-.1-.1-.1-.1-.1v-.1l-.1-.2v-.1l-.1-.1v-1l.1-.2.1-.2v-.2l.2-.2.1-.1.1-.2.2-.1.1-.1.2-.2.2-.1h.2l.2-.1.2-.1h.7l.1-.1h1.4l.1-.1v-.4l-.1-.1v-.1l-.1-.1-.2-.1h-.1l-.1-.1H33.9l-.2.1h-.5l-.2.1h-.2l-.1.1h-.2l.4-1.4h.2l.1-.1h.1l.2-.1h.4l.2-.1H35.8l.1.1h.2l.2.1h.2l.2.1.2.1.1.1.2.2.1.1.1.2.1.2.1.1v.7l-.6 3.1"/><path class="st2" d="M35.5 33.4v-.1H34.6l-.1.1H34.2v.1h-.1l-.1.1h-.1l-.1.1-.1.1h-.1v.1l-.1.1v.1l-.1.1v.4l.1.1.1.1.1.1H34.6l.1-.1h.1l.1-.1.1-.1h.1l.1-.1v-.1h.1v-.2h.1V33.9l.1-.2V33.4z"/><path class="st3" d="M24.5 36.3h-1.6l1.3-7.8H27l.3 4.6 1.9-4.6h3l-1.4 7.8h-1.6l1-5.9h-.1l-2.4 5.9h-1.8V36l-.1-.6v-1l-.1-1v-1.1l-.1-.9v-1h-.1l-1 5.9z"/><path class="st4" d="M24.5 36.3h-1.6l1.3-7.8H27l.3 4.6 1.9-4.6h3l-1.4 7.8h-1.6l1-5.9h-.1l-2.4 5.9h-1.8V36l-.1-.6v-1l-.1-1v-1.1l-.1-.9v-1h-.1l-1 5.9"/><path class="st3" d="M66.4 34.9l-.2 1.4h-1.5v-.7l-.1.1h-.1l-.1.1-.1.1-.1.1-.2.1h-.1l-.2.1h-.1l-.2.1h-.5l-.2.1-.1-.1h-.4l-.2-.1-.1-.1-.2-.1-.1-.1-.1-.1-.1-.1-.1-.1-.1-.1v-.2l-.1-.1V34.9l-.1-.1v-.5l.1-.2v-.2l.1-.2.1-.2.1-.2.1-.1.2-.2.1-.1.2-.1.2-.2.1-.1h.2l.2-.1.2-.1h.7l.1-.1H65.2v-.6l-.1-.1-.1-.1-.1-.1h-.1l-.2-.1h-1.2l-.2.1h-.5l-.2.1H62.2l-.1.1H62l.4-1.4h.1l.2-.1h.1l.1-.1h.5l.2-.1H65.2l.2.1h.2l.1.1h.2l.2.1.2.1.2.1.1.2.1.1.2.2v.2l.1.1.1.2v.3l-.1.2-.6 3.1z"/><path class="st3" d="M66.2 36.3l.2-1.4-.3 1.3h.1v.1z"/><path class="st3" d="M64.6 36.3h1.6v-.1h-1.5v.1h-.1.1-.1z"/><path class="st3" d="M64.7 35.6v-.1.1l-.1.2v.5h.1V35.5v.1z"/><path class="st3" d="M62.4 36.3l.2.1h.5l.2-.1H63.6l.2-.1h.1l.2-.1.1-.1.1-.1h.1l.2-.1.1-.1v-.2l-.1.1-.1.1-.1.1-.1.1-.1.1H64l-.1.1-.2.1H63.4l-.2.1h-.8z"/><path class="st3" d="M61 34.6v.5l.1.1v.2l.1.1.1.1v.1l.1.2.2.1.1.1.1.1h.2l.2.1h.2l-.2-.1H62l-.1-.1-.2-.1-.1-.1-.1-.1-.1-.1-.1-.1-.1-.1v-.2l-.1-.1v-.6H61z"/><path class="st3" d="M63.1 32.3h-.2l-.2.1h-.2l-.2.1-.2.1-.1.1-.2.2-.2.1-.1.1-.1.2-.1.2-.1.2-.1.2-.1.2v.5h.1v-.5l.1-.2v-.2l.1-.2.1-.1.2-.2.1-.2.1-.1.2-.1.2-.1.2-.1.1-.1.2-.1h.2l.2-.1z"/><path class="st3" d="M64.3 32.1l-.1.1H63.3v.1h-.2H63.9l.1-.1H64.3v-.1zM65.1 32.2h.1H64.6l-.1-.1h-.2v.1h.7l.1.1h.1v-.1.1-.1h-.1z"/><path class="st3" d="M65.2 31.8V32.1l-.1.1h.1v-.1l.1-.2v-.1h-.1z"/><path class="st3" d="M64.5 31.2v.1h.4l.1.1.1.1v.1l.1.1v.1h.1l-.1-.1v-.1l-.1-.1-.1-.1-.1-.1-.1-.1H64.5zM61.9 31.5l.1.1.1-.1h.1l.2-.1H62.7l.1-.1h.8l.2-.1h.7H63l-.2.1H62.5l-.1.1H62.1l-.1.1h-.1z"/><path class="st3" d="M62.4 30.1l-.5 1.4h.1l.4-1.4z"/><path class="st3" d="M65 29.8h-1.8l-.1.1H62.8l-.1.1h-.2l-.1.1h.1l.2-.1h.2l.2-.1H65v-.1zM67.1 31.8v-.5l-.1-.2v-.2l-.1-.1-.1-.2-.2-.2-.1-.1-.2-.1-.2-.1-.2-.1-.1-.1h-.2l-.2-.1H65v.1h.4l.1.1h.2l.2.1.2.1.2.1.1.1.2.1.1.1.1.2.1.2.1.1v.7h.1z"/><path class="st3" d="M66.4 34.9l.7-3.1H67l-.6 3.1z"/><path class="st1" d="M65 33.4l-.1-.1H64v.1H63.7l-.1.1h-.1l-.1.1h-.1l-.1.1-.1.1-.1.1v.1l-.1.1v.6l.1.1.1.1H63.9l.1-.1h.2l.1-.1h.1l.1-.1.1-.1.1-.1.1-.1v-.1l.1-.1v-.4l.1-.2v-.1z"/><path class="st3" d="M77.2 35.4V35.1l.1-.1.1-.1.2-.1.1-.1h.1l.2-.1.2.1h.1l.2.1.1.1.1.1.1.1V35.4h-.1v-.1l-.1-.1v-.1l-.1-.1-.1-.1-.1-.1H77.7l-.1.1-.1.1v.1l-.1.1v.2h-.2z"/><path class="st3" d="M77.7 35.4v-.3h.6V35.4H78h.2v-.2H77.9v.2h-.2z"/><path class="st3" d="M77.2 35.4v.4l.1.2.1.1.2.1h.1l.1.1h.4l.1-.1h.2l.1-.1.1-.1.1-.2v-.2l.1-.1-.1-.1h-.1v.2l-.1.2v.1l-.1.1h-.1l-.1.1-.2.1h-.2l-.2-.1-.1-.1h-.1v-.1l-.1-.1v-.4h-.2z"/><path class="st3" d="M77.7 35.4v.4h.2v-.3h.1l.2.3h.1l-.2-.3h.2v-.1H77.7z"/><path class="st4" d="M77.2 35.5v-.4l.1-.1.1-.1.1-.1.1-.1h.8l.1.1.1.1.1.1.1.1v.8l-.1.1-.1.1-.1.1-.1.1h-.8l-.1-.1-.1-.1-.1-.1-.1-.1v-.4m.7.3h-.1v-.7h.4v.1l.2.3h-.5v.3m.1-.4h.1-.2v.2h.1m0 .6h.2l.1-.1.1-.1.1-.1.1-.1v-.4l-.1-.1V35l-.1-.1-.1-.1h-.4l-.1.1-.3.1-.1.1-.1.1v.4l.1.1.1.1.1.1.1.1h.1l.2.2"/><path class="st3" d="M66.8 36.3h1.7l.6-3.4v-.2l.1-.1v-.1l.1-.1v-.2l.1-.1.1-.1.1-.1.1-.1.1-.1.1-.1.2-.1h.1l.2-.1h.6l.3-1.6h-.2l-.1.1H70.7l-.2.1h-.1l-.1.1-.1.1-.1.1H70l-.1.1-.1.1-.1.1-.1.1-.1.2-.1.1.2-1.1H68l-1.2 6.4z"/><path class="st4" d="M66.8 36.3h1.7l.6-3.4v-.2l.1-.1v-.1l.1-.1v-.2l.1-.1.1-.1.1-.1.1-.1.1-.1.1-.1.2-.1h.1l.2-.1h.6l.3-1.6h-.2l-.1.1H70.7l-.2.1h-.1l-.1.1-.1.1-.1.1H70l-.1.1-.1.1-.1.1-.1.1-.1.2-.1.1.2-1.1H68l-1.2 6.4"/><path class="st3" d="M51.1 36.3h1.7l.6-3.4v-.2l.1-.1v-.2l.1-.1v-.2l.1-.1.1-.1h.1l.1-.1.1-.1.2-.1h.1l.2-.1h.6l.1-.1v-.2l.1-.2V30.7l.1-.2v-.1l.1-.1.1-.1v-.1l.1-.1v-.1h.1-.1v-.1h-.4l-.2.1H54.9l-.1.1h-.1l-.1.1-.1.1h-.1l-.1.1-.1.1-.1.1-.1.1-.1.1-.1.2-.1.1.3-1.1h-1.7l-1.2 6.4z"/><path class="st4" d="M51.1 36.3h1.7l.6-3.4v-.2l.1-.1v-.2l.1-.1v-.2l.1-.1.1-.1h.1l.1-.1.1-.1.2-.1h.1l.2-.1h.6l.1-.1v-.2l.1-.2V30.7l.1-.2v-.1l.1-.1.1-.1v-.1l.1-.1v-.1h.1-.1v-.1h-.4l-.2.1H54.9l-.1.1h-.1l-.1.1-.1.1h-.1l-.1.1-.1.1-.1.1-.1.1-.1.1-.1.2-.1.1.3-1.1h-1.7l-1.2 6.4"/><path class="st1" d="M77.2 42.5v-.2l.1-.1.1-.1.2-.1.1-.1h.1l.2-.1.2.1h.1l.2.1.1.1.1.1.1.1v.2h-.1l-.1-.1v-.1l-.1-.1-.1-.1-.1-.1H77.7l-.1.1-.1.1v.1l-.1.1v.1h-.2z"/><path class="st1" d="M77.7 42.5v-.2h.6v.2h-.1v-.1H77.9v.1h-.2zM77.2 42.6v-.1h.2v.1h-.2zM77.7 42.6v-.1h.2v.1H78.2v-.1h.1v.1h-.6zM78.7 42.6v-.1h.1l.1.1h-.2z"/><path class="st1" d="M77.2 42.6v.4l.1.1.1.1.2.1.1.1.1.1h.4l.1-.1.2-.1.1-.1.1-.1.1-.1v-.2l.1-.2h-.2v.2l-.1.1v.1l-.1.1-.1.1-.1.1H77.7l-.1-.1-.1-.1V43l-.1-.1V42.6h-.2z"/><path class="st1" d="M77.7 42.6v.4h.2v-.3h.1l.2.3h.1l-.2-.3h.1l.1-.1h-.6z"/><path class="st3" d="M51.3 31.8v-.4l-.1-.3-.1-.3-.1-.2-.2-.2-.2-.2-.2-.1-.3-.1-.2-.1-.2-.1h-1.1l-.6.1-.4.1-.3.1-.3.2-.3.2-.2.2-.2.3-.2.2-.1.3-.1.3-.1.2-.1.3v1.5l.1.4.1.3.1.3.2.3.2.2.2.2.2.2.3.1.3.1.3.1.3.1H50.8l.2-1.5-.2.1-.2.1-.2.1-.2.1-.2.1H47.7l.3-.3-.1-.1-.1-.1-.1-.1-.1-.1-.1-.1-.1-.1-.1-.1v-.6h3.8v-.4l.1-.5v-.5l.1-.3zm-1.6.5h-2.2v-.4l.1-.1.1-.1.1-.1.1-.1.1-.1.1-.1.1-.1.1-.1H49.3l.1.1.1.1.1.1.1.1.1.1v.5l-.1.2z"/></svg>