<svg xmlns="http://www.w3.org/2000/svg" width="37.8" height="45" viewBox="0 0 37.8 45"><path fill="none" stroke="#FFF" stroke-width="2" stroke-linecap="round" stroke-miterlimit="10" d="M26.1 2.8h9.4c.7 0 1.3.6 1.3 1.3v38.5c0 .7-.6 1.3-1.3 1.3H2.3c-.7.1-1.3-.5-1.3-1.2V4.1c0-.7.6-1.3 1.3-1.3h9.4"/><path fill="none" stroke="#FFF" stroke-width="2" stroke-linecap="round" stroke-miterlimit="10" d="M11.7 1H26v7.2H11.7z"/><path fill="none" stroke="#FFF" stroke-width="2" stroke-linecap="round" stroke-miterlimit="10" d="M26.1 6.4h6.3v33.1H5.5V6.4h6.3"/><path fill="none" stroke="#FFF" stroke-width="2" stroke-miterlimit="10" d="M10 35h17.9M10 30.6h17.9M10 26.1h17.9M10 21.6h17.9M10 17.1h17.9M10 12.6h17.9"/></svg>