<svg xmlns="http://www.w3.org/2000/svg" width="98" height="98" viewBox="0 0 98 98"><path fill="#1D1D1B" d="M85.7 3.1c5.1 0 9.2 4.1 9.2 9.2v73.5c0 5.1-4.1 9.2-9.2 9.2H12.3c-5.1 0-9.2-4.1-9.2-9.2V12.3c0-5.1 4.1-9.2 9.2-9.2h73.4m0-3.1H12.3C5.5 0 0 5.5 0 12.3v73.5C0 92.5 5.5 98 12.3 98h73.5C92.5 98 98 92.5 98 85.8V12.3C98 5.5 92.5 0 85.7 0z"/><path fill="#1D1D1B" d="M33.7 24.5v49h6.1V56h12.3c9.2 0 15.8-6.5 15.8-15.7 0-9.3-6.4-15.9-15.7-15.9H33.7zm6.1 5.4h10.8c7.1 0 11 3.7 11 10.4 0 6.5-4 10.2-11 10.2H39.8V29.9z"/></svg>