<svg xmlns="http://www.w3.org/2000/svg" width="112" height="112" viewBox="0 0 112 112"><path d="M43.6 109.3c-.2-.2-.3-.4-.5-.6L29.9 82.2 3.4 68.9c-.7-.3-1.2-1-1.3-1.8-.1-.8.1-1.6.6-2.1l3.2-3.2c.4-.4 1.1-.7 1.7-.7l26.4-.2 17.6-17.6-34.9-22.2c-.6-.4-1-1.1-1.1-1.8-.1-.7.2-1.5.7-2l6.8-6.8c.6-.6 1.5-.9 2.4-.6l46.2 13.4L89.5 5.5c4.7-4.7 12.3-4.7 17 0 4.7 4.7 4.7 12.3 0 17L88.6 40.4 102 86.5c.2.8 0 1.8-.6 2.4l-6.8 6.8c-.5.5-1.2.8-1.9.7-.7-.1-1.4-.5-1.8-1.1L68.6 60.4 51 78l-.1 26.4c0 .6-.3 1.2-.7 1.7l-3.2 3.2c-.5.5-1.3.8-2.1.7-.5-.1-.9-.3-1.3-.7zM33.4 78.7c.2.2.3.4.4.6l12.1 24.2.2-.2.1-26.4c0-.6.3-1.2.7-1.7l20.4-20.4c.5-.5 1.3-.7 2-.7.7.1 1.4.5 1.8 1.1l22.2 34.9 3.7-3.7-13.4-46.1c-.2-.8 0-1.8.6-2.4L103.1 19c2.8-2.8 2.8-7.4 0-10.2s-7.4-2.8-10.2 0L74 27.7c-.6.6-1.5.9-2.4.6L25.5 15l-3.7 3.7 35 22.3c.6.4 1 1 1.1 1.8.1.7-.2 1.4-.7 2L36.7 65c-.4.4-1.1.7-1.7.7l-26.4.2-.2.2 24.3 12.2c.3 0 .5.2.7.4z"/></svg>