<svg xmlns="http://www.w3.org/2000/svg" width="75" height="112" viewBox="0 0 75 112"><path d="M71.3 15.5H60v-3.7c0-2.6-1.8-5.3-6.7-5.3h-9.4c-.4-3.4-2-4.5-5.5-4.5h-.6c-2.7 0-5.3.4-6 4.5h-9.4c-4.4 0-7.3 2.1-7.3 5.3v3.7H3.8c-1.2 0-2.2 1-2.2 2.2v90c0 1.2 1 2.2 2.2 2.2h67.5c1.2 0 2.2-1 2.2-2.2v-90c0-1.2-1-2.2-2.2-2.2zm-51.8-3.7c0-.3 1.1-.8 2.8-.8h11.5C35 11 36 10 36 8.8c0-1.6.2-2.1.2-2.2.2-.1 1-.1 1.5-.1h1.6c.1.3.1 1 .1 2.2 0 1.2 1 2.2 2.2 2.2h11.5c.7 0 2.2.1 2.2.8v3.7h-36v-3.6zM69 105.5H6V20h63v85.5zM31.5 77.9c.4.4 1 .7 1.6.7h.2c.7-.1 1.3-.4 1.6-1l18-27.2c.7-1 .4-2.4-.6-3.1-1-.7-2.4-.4-3.1.6L32.7 72.8l-7.3-7.2c-.9-.9-2.3-.9-3.2 0-.9.9-.9 2.3 0 3.2l9.3 9.1z"/></svg>