<svg xmlns="http://www.w3.org/2000/svg" width="98" height="49.9" viewBox="0 0 98 49.9"><path fill="#FFF" d="M11.7 40.2c-.1.8-.3 1.5-.7 2.1-.3.6-.8 1-1.3 1.4-.5.3-1.1.6-1.7.7-.7.2-1.4.2-2.1.2H4l-.6 4.1H0L1.8 36h5.5c.7 0 1.4.1 2 .2.6.2 1.1.4 1.5.7.4.3.7.8.8 1.3.2.6.2 1.3.1 2m-3.6.1c.1-.4 0-.8-.2-1-.2-.3-.6-.4-1.2-.4H4.9l-.4 2.9h1.9c.6 0 1-.1 1.3-.4.2-.3.4-.6.4-1.1M18.5 48.8L17 44.5h-1.4l-.6 4.3h-3.5L13.3 36H19c.7 0 1.4.1 2 .2.6.2 1.1.4 1.5.7.4.3.7.8.8 1.3.2.5.2 1.2.1 1.9-.1 1-.5 1.7-1 2.4-.5.6-1.1 1.1-1.9 1.4l1.9 4.9h-3.9m1.3-8.5c.1-.4 0-.7-.2-1-.2-.3-.6-.4-1.1-.4h-2.1l-.4 2.8h2c.6 0 1-.1 1.3-.4.3-.2.5-.6.5-1M35.8 42.4c-.2 1.1-.4 2-.8 2.8-.4.8-.9 1.5-1.5 2.1-.6.6-1.3 1-2.1 1.3-.8.2-1.6.4-2.4.4-.9 0-1.6-.1-2.3-.4-.7-.3-1.2-.7-1.7-1.3-.4-.6-.8-1.2-.9-2.1-.2-.8-.2-1.8 0-2.8.1-1.1.4-2 .8-2.8.4-.8.9-1.5 1.5-2.1.6-.6 1.3-1 2.1-1.3.8-.3 1.6-.4 2.5-.4.9 0 1.6.1 2.3.4.7.3 1.2.7 1.7 1.3.4.6.7 1.2.9 2.1.1.8.1 1.7-.1 2.8m-3.6 0c.2-1.2.1-2-.2-2.6-.3-.6-.8-.9-1.5-.9s-1.3.3-1.8.9c-.5.6-.8 1.5-.9 2.6-.2 1.2-.1 2 .2 2.6.3.6.8.9 1.5.9s1.3-.3 1.8-.9c.4-.6.7-1.4.9-2.6"/><path fill="#FFF" d="M42.6 48.8l-.6-1.5c-.2-.4-.3-.8-.5-1.2-.2-.4-.3-.8-.4-1.1-.2.3-.4.7-.7 1.1l-.9 1.2-1.1 1.5h-4l5.1-6.5-3.1-6.3h4.1l.5 1.2c.2.4.3.8.5 1.2.2.4.3.8.4 1.1.2-.3.4-.7.7-1.1l.9-1.2.9-1.2h4l-4.9 6.2 3.3 6.5h-4.2M47.7 48.8L49.5 36h3.6l-1.8 12.8zM64 40c0 .7-.1 1.2-.3 1.7-.2.5-.5.9-.9 1.3-.4.3-.8.6-1.3.8-.5.2-1.1.3-1.7.3h-3.3v4.8h-1.9V36h5.3c.6 0 1.1.1 1.6.3.5.2.9.4 1.3.8.4.3.7.8.9 1.3.2.4.3.9.3 1.6m-2 0c0-.7-.2-1.2-.6-1.6-.4-.4-.9-.6-1.6-.6h-3.4v4.4h3.4c.7 0 1.3-.2 1.6-.6.5-.4.6-.9.6-1.6M72.7 48.8l-1.1-3h-5.1l-1.1 3h-2L68.1 36h2l4.7 12.8h-2.1M70 41.1c-.1-.2-.2-.5-.3-.8-.1-.3-.2-.6-.3-.8-.1-.3-.2-.5-.3-.8-.1-.2-.1-.4-.2-.6 0 .1-.1.3-.2.6-.1.2-.2.5-.2.8-.1.3-.2.6-.3.8-.1.3-.2.6-.3.8l-1 2.9H71l-1-2.9zM86 39.8c0 1-.3 1.9-.7 2.5-.5.6-1.2 1-2.1 1.3l2.6 5.2h-2.2l-2.5-5.1h-2.9v5.1h-1.9V36h5.6c.6 0 1.1.1 1.6.2.5.2.9.4 1.3.7.4.3.7.7.9 1.2.2.5.3 1.1.3 1.7m-1.9.1c0-.7-.2-1.2-.6-1.5-.4-.4-.9-.5-1.6-.5h-3.7V42H82c.6 0 1.2-.2 1.6-.5.3-.4.5-.9.5-1.6M98 42.4c0 1.1-.2 2.1-.5 3-.3.9-.8 1.6-1.5 2.2l.9 1.3-1.6 1-.9-1.3c-.6.2-1.2.3-1.9.3-.8 0-1.6-.2-2.2-.5-.7-.3-1.2-.8-1.7-1.4-.5-.6-.8-1.3-1.1-2.1-.3-.8-.4-1.7-.4-2.7 0-1 .1-1.8.4-2.7.3-.8.6-1.5 1.1-2.1.5-.6 1-1 1.7-1.4.7-.3 1.4-.5 2.2-.5.8 0 1.6.2 2.2.5.7.3 1.2.8 1.7 1.4.5.6.8 1.3 1.1 2.1.4 1 .5 1.9.5 2.9m-2 0c0-1.4-.3-2.6-.9-3.4-.6-.8-1.5-1.3-2.6-1.3s-2 .4-2.6 1.3c-.6.8-.9 2-.9 3.4 0 .7.1 1.4.2 1.9.2.6.4 1.1.7 1.5.3.4.7.7 1.1.9.4.2.9.3 1.5.3h.5c.1 0 .3 0 .4-.1l-.9-1.4 1.6-1L95 46c.4-.4.6-.9.8-1.5.2-.6.2-1.3.2-2.1M48.1 13.2c0 .8-.1 1.5-.4 2.1-.3.6-.6 1-1.1 1.4-.5.3-1 .6-1.7.7-.6.1-1.3.2-2.1.2H41v4.1h-3.5V9H43c.7 0 1.4.1 2 .2.6.2 1.1.4 1.6.7.4.3.8.8 1 1.3.4.6.5 1.2.5 2m-3.5.1c0-.4-.1-.8-.3-1-.3-.3-.7-.4-1.3-.4h-1.9v2.9H43c.6 0 1-.1 1.2-.4.2-.3.4-.6.4-1.1M48.8 21.8c0-1.1.2-2 .4-2.8.3-.8.6-1.5 1.1-2.2.5-.6 1-1.2 1.6-1.6.6-.5 1.4-.9 2.2-1.2.3-.1.6-.3.8-.4.2-.1.4-.2.5-.3s.2-.2.2-.3c0-.1.1-.2.1-.3 0-.3-.1-.5-.3-.6-.2-.2-.6-.2-1.1-.2-.6 0-1.3.1-1.9.3-.6.2-1.3.5-1.9 1l-1.6-2.6c.8-.5 1.7-.9 2.5-1.2.9-.3 1.8-.4 2.9-.4 1.6 0 2.8.3 3.6.9.8.6 1.2 1.5 1.2 2.7 0 .4 0 .8-.1 1.1-.1.3-.2.7-.5 1-.2.3-.5.6-.9.9-.4.3-.9.6-1.5.8l-1.6.8c-.4.2-.8.5-1 .7-.3.2-.5.4-.6.6l-.3.6h6.7V22H48.8"/><path fill="#FFF" d="M59.6 30.3H36.3c-1.9 0-3.5-1.6-3.5-3.5V3.5c0-1.9 1.6-3.5 3.5-3.5h23.3c1.9 0 3.5 1.6 3.5 3.5v23.3c0 2-1.6 3.5-3.5 3.5M36.3 1.9c-.9 0-1.6.7-1.6 1.6v23.3c0 .9.7 1.6 1.6 1.6h23.3c.9 0 1.6-.7 1.6-1.6V3.5c0-.9-.7-1.6-1.6-1.6H36.3z"/></svg>