<svg id="Calque_1" xmlns="http://www.w3.org/2000/svg" width="100" height="100" viewBox="0 0 100 100"><style>.st0{fill:#fff}</style><title>icon-rain</title><path class="st0" d="M50 99c-.9 0-1.8-.4-2.5-1-1.4-1.3-1.4-3.4-.1-4.8l.1-.1 20.4-20.2c1.4-1.3 3.5-1.3 4.9 0 1.4 1.3 1.4 3.5.1 4.8l-.1.1L52.4 98c-.6.7-1.5 1-2.4 1zm-20.4 0c-.9 0-1.8-.4-2.5-1-1.4-1.3-1.4-3.5-.1-4.8l.1-.1L47.5 73c1.4-1.3 3.5-1.3 4.9 0 1.4 1.3 1.4 3.5.1 4.8l-.1.1L32 98.1c-.6.6-1.5.9-2.4.9zm-20.4-.3c-.9 0-1.8-.4-2.5-1-1.4-1.3-1.4-3.5-.1-4.8l.1-.1 20.4-20.2c1.4-1.3 3.5-1.3 4.9 0 1.4 1.3 1.4 3.4.1 4.8l-.1.1-20.4 20.2c-.6.7-1.5 1-2.4 1zm65.3-30.4H29.6c-13-.1-23.5-10.7-23.5-23.7.1-11 7.8-20.6 18.6-22.9 2.9-14 16.6-23 30.6-20.1C63 3.1 69.5 8.1 73.1 15.1c4.7.2 9.1 2.4 11.9 6.2 2.8 3.7 3.8 8.4 2.7 12.9 8.1 7.1 8.8 19.4 1.7 27.5-3.7 4.3-9.2 6.7-14.9 6.6zM50 7.7c-9.8 0-18 7.4-18.9 17.2-.1 1.7-1.4 3-3.1 3.1-9.2.9-16 9-15.1 18.3.8 8.6 8.1 15.2 16.7 15.2h44.9c7 0 12.8-5.7 12.8-12.7 0-4.2-2-8.1-5.5-10.5-1.4-.9-1.9-2.7-1.3-4.2 1.3-2.9.8-6.2-1.1-8.6-1.9-2.5-5-3.9-8.2-3.4-1.6.2-3.1-.7-3.7-2.2C64.9 12.5 57.8 7.7 50 7.7z"/></svg>