<svg xmlns="http://www.w3.org/2000/svg" width="72" height="122" viewBox="0 0 72 122"><path fill="#FFF" d="M53.2 2c-1.4 0-2.5 1.1-2.5 2.5V117.6c0 1.4 1.1 2.5 2.5 2.5s2.5-1.1 2.5-2.5V80.7H68c1.4 0 2.5-1.1 2.5-2.5C70.5 47.1 64.4 2 53.2 2zm2.5 73.7V10.3c4.1 8.6 9.6 32.6 9.8 65.4h-9.8zM33.5 2C32.1 2 31 3.1 31 4.5V29c0 5.9-4.2 10.9-9.9 12V4.5C21.1 3.1 20 2 18.6 2s-2.5 1.1-2.5 2.5v36.6c-5.6-1.1-9.9-6.1-9.9-12V4.5C6.4 3.1 5.3 2 4 2S1.5 3.1 1.5 4.5V29c0 8.7 6.4 15.8 14.8 17v71.5c0 1.4 1.1 2.5 2.5 2.5s2.5-1.1 2.5-2.5V46.1C29.6 44.9 36 37.7 36 29V4.5C36 3.1 34.9 2 33.5 2z"/></svg>