<svg xmlns="http://www.w3.org/2000/svg" width="104" height="104" viewBox="0 0 104 104"><path d="M99.9 89.5L71.8 61.4c10-14.8 8.5-35.1-4.7-48.2C59.9 6 50.3 2 40.1 2s-19.8 4-27 11.2c-14.9 14.9-14.9 39 0 53.9 7.2 7.2 16.8 11.2 27 11.2 7.7 0 15-2.3 21.2-6.4L89.4 100c1.3 1.3 3.1 2.1 5 2.1s3.7-.7 5-2.1l.4-.4c2.9-2.8 2.9-7.3.1-10.1zM16.3 63.9c-13.1-13.1-13.1-34.5 0-47.6 6.4-6.4 14.8-9.9 23.8-9.9s17.5 3.5 23.8 9.9c13.1 13 13.1 34.2.2 47.4l-.5.5c-6.3 6.2-14.7 9.6-23.6 9.6-8.9 0-17.3-3.5-23.7-9.9zm80.5 32.5l-.4.4c-1 1-2.8 1-3.8 0L65 69.2l1.8-1.8c.1-.1.2-.2.3-.2.1-.1.1-.2.2-.3l1.8-1.8 27.7 27.6c1 1 1 2.7 0 3.7z"/></svg>