<svg id="Calque_1" xmlns="http://www.w3.org/2000/svg" width="100" height="100" viewBox="0 0 100 100"><style>.st0{fill:#fff}</style><title>icon-sunny</title><path class="st0" d="M50 74.9c-13.7 0-24.7-11.1-24.7-24.7s11-24.8 24.7-24.8 24.7 11.1 24.7 24.7c0 13.7-11.1 24.8-24.7 24.8zm0-42.7c-9.9 0-17.9 8-17.9 17.9S40.1 68 50 68s17.9-8 17.9-17.9c0-9.8-8-17.8-17.9-17.9zM50 99c-1.9 0-3.4-1.5-3.4-3.4v-8.3c-.2-1.9 1.2-3.5 3.1-3.7 1.9-.2 3.5 1.2 3.7 3.1v8.9c0 1.9-1.5 3.4-3.4 3.4zm33-12.4c-.9 0-1.8-.4-2.4-1l-6.2-6.1c-1.4-1.2-1.6-3.4-.4-4.8 1.2-1.4 3.4-1.6 4.8-.4l.5.3 6.2 6.2c1.3 1.3 1.3 3.5 0 4.8-.7.6-1.6 1-2.5 1zm12.4-33h-8.3c-1.9.1-3.5-1.4-3.5-3.3-.1-1.8 1.3-3.3 3-3.5h8.8c1.9.2 3.3 1.8 3.1 3.7-.1 1.6-1.4 2.9-3.1 3.1zM76.9 26.7c-1.9 0-3.4-1.5-3.5-3.4 0-.9.4-1.8 1-2.5l6.2-6.1c1.3-1.3 3.5-1.3 4.9 0s1.3 3.5 0 4.9l-6.2 6.1c-.6.7-1.5 1-2.4 1zM50 16.4c-1.9 0-3.4-1.5-3.4-3.4V4.7c-.2-1.9 1.2-3.5 3.1-3.7s3.5 1.2 3.7 3.1V13c0 1.9-1.5 3.4-3.4 3.4zM23.1 26.7c-.9 0-1.8-.3-2.4-1l-6.1-6.2c-1.3-1.3-1.3-3.5 0-4.9s3.5-1.3 4.9 0l6.1 6.2c1.3 1.3 1.4 3.5.1 4.8-.7.7-1.6 1.1-2.6 1.1zM12.8 53.6H4.6c-1.9-.2-3.3-1.8-3.1-3.7.1-1.7 1.5-3 3.1-3.1h8.3c1.9-.1 3.5 1.4 3.5 3.3.1 1.8-1.3 3.3-3 3.5h-.6zm4.2 33c-1.9 0-3.4-1.5-3.4-3.4 0-.9.4-1.8 1-2.4l6.2-6.2c1.2-1.4 3.4-1.6 4.8-.4 1.4 1.2 1.6 3.4.4 4.8l-.3.5-6.2 6.1c-.8.6-1.6 1-2.5 1z"/></svg>