<?xml version="1.0" encoding="UTF-8"?>
<svg width="18px" height="14px" viewBox="0 0 18 14" version="1.1" xmlns="http://www.w3.org/2000/svg" xmlns:xlink="http://www.w3.org/1999/xlink">
    <title>arrow-back</title>
    <g id="Page-1" stroke="none" stroke-width="1" fill="none" fill-rule="evenodd">
        <g id="arrow-back" transform="translate(8.916667, 6.924375) scale(-1, 1) translate(-8.916667, -6.924375) translate(0.666667, 0.049375)" fill="#ffffff" fill-rule="nonzero">
            <path d="M9.23821003,0.305497531 C8.85038421,0.712827573 8.85038421,1.37082226 9.23821003,1.7781523 L13.0965798,5.830564 L0.994425192,5.830564 C0.447491336,5.830564 0,6.3005602 0,6.875 C0,7.4494398 0.447491336,7.919436 0.994425192,7.919436 L13.106524,7.919436 L9.24815429,11.9718477 C8.86032846,12.3791777 8.86032846,13.0371724 9.24815429,13.4445025 C9.63598011,13.8518325 10.262468,13.8518325 10.6502938,13.4445025 L16.2091306,7.6061052 C16.5969565,7.19877516 16.5969565,6.54078048 16.2091306,6.13345044 L10.6403496,0.305497531 C10.262468,-0.10183251 9.62603586,-0.10183251 9.23821003,0.305497531 Z" id="Path"></path>
        </g>
    </g>
</svg>
