<?xml version="1.0" encoding="utf-8"?>
<!-- Generator: Adobe Illustrator 20.0.0, SVG Export Plug-In . SVG Version: 6.00 Build 0)  -->
<svg version="1.1" id="Calque_1" xmlns="http://www.w3.org/2000/svg" xmlns:xlink="http://www.w3.org/1999/xlink" x="0px" y="0px"
	 width="102px" height="90px" viewBox="0 0 102 90" style="enable-background:new 0 0 102 90;" xml:space="preserve">
<style type="text/css">
	.st0{fill:#0EADFF;}
</style>
<path class="st0" d="M41,1c-3.3,0-6,2.7-6,6v6H7c-3.3,0-6,2.7-6,6v29.6c0,0.1,0,0.3,0,0.4v34c0,3.3,2.7,6,6,6h88c3.3,0,6-2.7,6-6V19
	c0-3.3-2.7-6-6-6H67V7c0-3.3-2.7-6-6-6H41z M41,5h20c1.1,0,2,0.9,2,2v6H39V7C39,5.9,39.9,5,41,5z M7,17h88c1.1,0,2,0.9,2,2v29.7
	c0,0.1,0,0.1,0,0.2V49c0,1.1-0.9,2-2,2H7c-1.1,0-2-0.9-2-2c0-0.1,0-0.3,0-0.4V19C5,17.9,5.9,17,7,17z M51,39c-2.2,0-4,1.8-4,4
	s1.8,4,4,4s4-1.8,4-4S53.2,39,51,39z M5,54.6C5.6,54.9,6.3,55,7,55h88c0.7,0,1.4-0.1,2-0.4V83c0,1.1-0.9,2-2,2H7c-1.1,0-2-0.9-2-2
	V54.6z"/>
</svg>
