<?xml version="1.0" encoding="utf-8"?>
<!-- Generator: Adobe Illustrator 18.0.0, SVG Export Plug-In . SVG Version: 6.00 Build 0)  -->
<!DOCTYPE svg PUBLIC "-//W3C//DTD SVG 1.1//EN" "http://www.w3.org/Graphics/SVG/1.1/DTD/svg11.dtd">
<svg version="1.1" id="Layer_1" xmlns="http://www.w3.org/2000/svg" xmlns:xlink="http://www.w3.org/1999/xlink" x="0px" y="0px"
	 width="115px" height="84px" viewBox="0 0 115 84" enable-background="new 0 0 115 84" xml:space="preserve">
<g>
	<path fill="#0055FF" d="M90.7,44.7h-9.5c-5,0-9.1,4.1-9.1,9.1c0,5,4.1,9.1,9.1,9.1c4,0,5.8-1,8.9-2.8l1.4-0.8
		c2.5-1.4,5.9-3.4,5.9-7.9C97.5,47.8,94.5,44.7,90.7,44.7z M89.6,55.9l-1.4,0.8c-3,1.7-3.9,2.3-6.9,2.3c-2.8,0-5.1-2.3-5.1-5.1
		s2.3-5.1,5.1-5.1h9.5c1.5,0,2.8,1.2,2.8,2.8C93.5,53.4,92.3,54.3,89.6,55.9z"/>
	<path fill="#0055FF" d="M33.7,44.7h-9.5c-3.7,0-6.8,3-6.8,6.8c0,4.5,3.4,6.5,6,7.9l1.4,0.8C28,62,29.7,63,33.7,63
		c5,0,9.1-4.1,9.1-9.1C42.9,48.8,38.8,44.7,33.7,44.7z M33.7,59c-2.9,0-3.9-0.6-6.9-2.3l-1.4-0.8c-2.8-1.6-3.9-2.5-3.9-4.4
		c0-1.5,1.2-2.8,2.8-2.8h9.5c2.8,0,5.1,2.3,5.1,5.1S36.6,59,33.7,59z"/>
	<path fill="#0055FF" d="M104.8,28.1h-7.3C94.7,21,91.9,14,91.1,12c-1.9-4.4-7.3-6.4-11.3-7.5C78.7,4,73,2,57.5,2
		C41.8,2,36.2,4.1,35.1,4.5c-3.6,1.2-9,3.1-11.3,7.6c-0.7,1.5-3.5,8.6-6.4,16h-7.2c-6.9,0-9.4,4.2-9.4,8.1c0,2,0.9,5.4,6.9,5.4h4.5
		c-1,2.7-1.7,4.5-1.8,4.8l-0.1,0.3v16.6v2.7v9.2c0,3.7,3,6.8,6.8,6.8h9.5c3.7,0,6.8-3,6.8-6.8v-2.7h48.2v2.7c0,3.7,3,6.8,6.8,6.8
		h9.5c3.7,0,6.8-3,6.8-6.8v-9.2v-2.7V46.8l-0.1-0.3c-0.1-0.3-0.8-2.1-1.8-4.8h4.5c6,0,6.9-3.4,6.9-5.4
		C114.1,32.3,111.7,28.1,104.8,28.1z M27.4,13.9c1.6-3.1,5.9-4.5,9.1-5.6l0.2-0.1c0,0,5.1-2.2,20.8-2.2s20.7,2.2,20.8,2.2l0.3,0.1
		c1.8,0.5,7.4,2.1,8.8,5.3c0.8,1.8,3.3,8.1,5.9,14.8l0,0l0.2,0.5c0.6,1.5,1.8,4.5,0.6,6.3c-1,1.5-3.8,2.4-8.1,2.4H29
		c-4.2,0-7-0.8-8.1-2.4c-1.2-1.8,0-4.9,0.6-6.3l0.2-0.5l-0.1,0C24.3,21.4,26.8,15.1,27.4,13.9z M7.8,37.6c-2.9,0-2.9-0.7-2.9-1.4
		c0-2.8,1.8-4.1,5.4-4.1h5.7c-0.7,1.9-1.4,3.8-2.1,5.5H7.8z M29.4,75.2c0,1.5-1.2,2.8-2.8,2.8h-9.5c-1.5,0-2.8-1.2-2.8-2.8V72
		c0.8,0.3,1.6,0.5,2.5,0.5h12.5V75.2z M97.9,78h-9.5c-1.5,0-2.8-1.2-2.8-2.8v-2.7h12.5c0.9,0,1.7-0.2,2.5-0.5v3.2
		C100.6,76.8,99.4,78,97.9,78z M100.6,66.1c0,1.3-1.1,2.4-2.5,2.4H16.9c-1.4,0-2.5-1.1-2.5-2.4v-2.7V47.5c0.9-2.4,2.2-5.8,3.6-9.6
		c2,2.5,5.6,3.7,11,3.7h57c5.4,0,9-1.2,11-3.6c1.8,4.6,3.2,8.4,3.7,9.5v15.8V66.1z M107.2,37.6h-6.1c-0.7-1.7-1.4-3.6-2.1-5.5h5.8
		c3.6,0,5.4,1.4,5.4,4.1C110.1,36.9,110.1,37.6,107.2,37.6z"/>
</g>
</svg>
