<?xml version="1.0" encoding="utf-8"?>
<!-- Generator: Adobe Illustrator 18.0.0, SVG Export Plug-In . SVG Version: 6.00 Build 0)  -->
<!DOCTYPE svg PUBLIC "-//W3C//DTD SVG 1.1//EN" "http://www.w3.org/Graphics/SVG/1.1/DTD/svg11.dtd">
<svg version="1.1" id="Calque_1" xmlns="http://www.w3.org/2000/svg" xmlns:xlink="http://www.w3.org/1999/xlink" x="0px" y="0px"
	 width="98px" height="65.8px" viewBox="0 0 98 65.8" enable-background="new 0 0 98 65.8" xml:space="preserve">
<path fill="#FFFFFF" d="M67,21.1c-0.7-1.3-1.7-3.4-2.3-4.8l-1.5-4c-0.5-1.4-2.1-2.5-3.6-2.5H37.7c-1.5,0-3.1,1.1-3.6,2.5l-1.6,4
	c-0.5,1.4-1.5,3.5-2.3,4.8l-1,1.7c-0.7,1.3-1.2,3.5-1,4.9l0.9,7.7c0.2,1.4,1.5,2.6,2.9,2.6h33c1.5,0,2.8-1.2,2.9-2.6l0.9-7.7
	c0.2-1.4-0.3-3.7-1-4.9L67,21.1 M35,17.3l1.6-4c0.1-0.3,0.8-0.8,1.1-0.8h21.9c0.4,0,1,0.4,1.1,0.8l1.6,4c0.5,1.3,1.4,3.2,2.1,4.6
	H32.8C33.6,20.5,34.5,18.6,35,17.3 M33.6,33.6c-1.8,0-3.2-1.4-3.2-3.2c0-1.8,0-3.2,1.8-3.2c4.3,0,8.3,1.9,8.3,4.4
	C40.4,33.6,35.3,33.6,33.6,33.6 M53.7,35.6c0,0.5-0.4,0.9-0.9,0.9h-8.5c-0.5,0-0.9-0.4-0.9-0.9v-2c0-0.5,0.4-0.9,0.9-0.9h8.5
	c0.5,0,0.9,0.4,0.9,0.9V35.6z M63.7,33.6c-1.8,0-6.9,0-6.9-2c0-2.4,4-4.4,8.3-4.4c1.8,0,1.8,1.4,1.8,3.2
	C66.9,32.2,65.5,33.6,63.7,33.6"/>
<path fill="#FFFFFF" d="M31.8,43.7c0,0.6,0.5,1,1,1h4.3c0.6,0,1-0.5,1-1v-4.7h-6.4V43.7"/>
<path fill="#FFFFFF" d="M59.1,43.7c0,0.6,0.5,1,1,1h4.3c0.6,0,1-0.5,1-1v-4.7h-6.4V43.7"/>
<path fill="#FFFFFF" d="M69.9,19.1c0-0.4-0.3-0.6-0.7-0.5L67,19.2c0.3,0.5,0.5,1,0.7,1.4l0.8,1.5l0.9-0.6c0.3-0.2,0.5-0.7,0.5-1
	L69.9,19.1"/>
<path fill="#FFFFFF" d="M29.5,20.6c0.2-0.4,0.5-0.9,0.7-1.4L28,18.6c-0.3-0.1-0.6,0.1-0.7,0.5l-0.1,1.4c0,0.4,0.2,0.8,0.5,1l0.9,0.6
	L29.5,20.6"/>
<path fill="#FF5000" d="M59.2,17.2c0,1.8-1.5,3.3-3.3,3.3c-1.8,0-3.3-1.5-3.3-3.3c0-1.8,1.5-3.3,3.3-3.3
	C57.7,13.9,59.2,15.4,59.2,17.2"/>
<path fill="#FFFFFF" d="M57.5,7.8c-0.4-0.4-1-0.6-1.6-0.6c-0.6,0-1.1,0.2-1.6,0.6c-0.2,0.2-0.7,0.2-0.9,0c-0.2-0.2-0.2-0.7,0-0.9
	c0.7-0.7,1.6-1,2.5-1s1.8,0.3,2.5,1c0.2,0.2,0.2,0.6,0,0.9C58.3,7.9,58.1,8,57.9,8C57.8,8,57.6,7.9,57.5,7.8"/>
<path fill="#FFFFFF" d="M51.8,5.5c-0.2-0.2-0.2-0.7,0-0.9c1.1-1.1,2.6-1.7,4.1-1.7c1.5,0,3,0.6,4.1,1.7v0c0.2,0.2,0.2,0.7,0,0.9
	c-0.2,0.2-0.6,0.2-0.9,0c-0.9-0.9-2.1-1.3-3.2-1.3c-1.2,0-2.3,0.4-3.2,1.3c-0.1,0.1-0.3,0.2-0.5,0.2C52.1,5.7,51.9,5.6,51.8,5.5"/>
<path fill="#FFFFFF" d="M61.6,3.6c-1.6-1.6-3.6-2.4-5.7-2.4c-2.1,0-4.1,0.8-5.7,2.4c-0.2,0.2-0.7,0.2-0.9,0C49,3.4,49,3,49.3,2.7
	C51.1,0.9,53.5,0,55.9,0c2.4,0,4.8,0.9,6.6,2.7c0.2,0.2,0.2,0.7,0,0.9c-0.1,0.1-0.3,0.2-0.5,0.2C61.9,3.8,61.8,3.8,61.6,3.6"/>
<path fill="#FF5000" d="M13.1,52.7c-0.1-0.3-0.3-0.5-0.5-0.6c-0.5-0.6-1.2-1-1.9-1.4c-0.7-0.3-1.6-0.5-2.6-0.5
	c-2.3,0-4.3,1.1-5.8,2.7C0.9,54.6,0,56.8,0,59.2c0,2,0.7,3.7,1.8,4.8s2.7,1.8,4.6,1.8h0c1.7,0,3.4-0.6,4.4-1.6v0l0,0
	c0.3-0.3,0.6-0.8,0.6-1.4c0-0.5-0.2-0.9-0.4-1.3c-0.3-0.3-0.7-0.6-1.2-0.6c-0.5,0-0.8,0.2-1.1,0.4c-0.4,0.3-0.8,0.5-1.1,0.7
	c-0.3,0.1-0.7,0.2-1.2,0.2c-0.8,0-1.5-0.3-2-0.9c-0.5-0.5-0.8-1.3-0.8-2.3c0-1.5,0.5-2.8,1.3-3.8c0.8-1,1.9-1.5,2.9-1.5
	c0.6,0,1.1,0.1,1.5,0.3c0.4,0.2,0.7,0.5,1,0.9c0.2,0.2,0.3,0.3,0.6,0.4c0.2,0.1,0.4,0.1,0.7,0.1c0.5,0,1-0.2,1.3-0.6
	c0.3-0.4,0.5-0.8,0.5-1.4C13.3,53.3,13.2,53,13.1,52.7"/>
<path fill="#FF5000" d="M25.1,51c-0.3-0.3-0.7-0.5-1.1-0.5H17c-0.5,0-0.9,0.2-1.2,0.5c-0.3,0.3-0.6,0.8-0.7,1.3l-2.6,10.8
	c-0.1,0.3-0.1,0.5-0.1,0.8c0,0.5,0.1,0.9,0.4,1.2c0.3,0.3,0.7,0.5,1.1,0.5h0h7.2c0.4,0,0.8-0.2,1.1-0.5c0.3-0.3,0.5-0.7,0.5-1.2
	c0-0.5-0.2-0.9-0.5-1.2c-0.3-0.3-0.7-0.5-1.1-0.5h-5l0.6-2.4h4.9c0.4,0,0.8-0.2,1.1-0.5c0.3-0.3,0.5-0.7,0.5-1.2
	c0-0.5-0.2-0.9-0.5-1.2c-0.3-0.3-0.7-0.5-1.1-0.5h-4.1l0.6-2.3h5.7c0.4,0,0.8-0.2,1.1-0.5c0.3-0.3,0.5-0.7,0.5-1.2
	C25.5,51.7,25.3,51.3,25.1,51"/>
<path fill="#FF5000" d="M33.9,62.6c-0.3-0.3-0.7-0.5-1.1-0.5h-4.5l2.2-9.2c0.1-0.3,0.1-0.5,0.1-0.8c0-0.5-0.1-0.9-0.4-1.2
	c-0.3-0.3-0.7-0.5-1.1-0.5c-0.5,0-0.9,0.2-1.2,0.5c-0.3,0.3-0.6,0.8-0.7,1.3l-2.6,10.9c-0.1,0.3-0.1,0.5-0.1,0.8
	c0,0.5,0.1,0.9,0.4,1.2c0.3,0.3,0.7,0.5,1.1,0.5h0h6.8c0.4,0,0.8-0.2,1.1-0.5c0.3-0.3,0.5-0.8,0.5-1.2
	C34.3,63.3,34.1,62.9,33.9,62.6"/>
<path fill="#FF5000" d="M45.1,62.6c-0.3-0.3-0.7-0.5-1.1-0.5h-4.5l2.2-9.2c0.1-0.3,0.1-0.5,0.1-0.8c0-0.5-0.1-0.9-0.4-1.2
	c-0.3-0.3-0.7-0.5-1.1-0.5c-0.5,0-0.9,0.2-1.2,0.5c-0.3,0.3-0.6,0.8-0.7,1.3l-2.6,10.9c-0.1,0.3-0.1,0.5-0.1,0.8
	c0,0.5,0.1,0.9,0.4,1.2c0.3,0.3,0.7,0.5,1.1,0.5h0h6.8c0.4,0,0.8-0.2,1.1-0.5c0.3-0.3,0.5-0.8,0.5-1.2
	C45.5,63.3,45.4,62.9,45.1,62.6"/>
<path fill="#FFFFFF" d="M47.4,51.3c0-0.5,0.3-0.9,0.7-0.9h4.3c3,0,5,1.8,5,4.8v0c0,3.2-2.4,4.9-5.3,4.9h-3.3v4.6
	c0,0.5-0.3,0.9-0.8,0.9c-0.4,0-0.7-0.4-0.7-0.9V51.3 M52.2,58.6c2.2,0,3.7-1.3,3.7-3.3v0c0-2.2-1.4-3.3-3.6-3.3h-3.4v6.6H52.2z"/>
<path fill="#FFFFFF" d="M57.2,64.4L62.6,51c0.2-0.5,0.5-0.8,1-0.8h0.1c0.5,0,0.8,0.3,0.9,0.8L70,64.3c0.1,0.2,0.1,0.3,0.1,0.4
	c0,0.5-0.3,0.8-0.7,0.8c-0.4,0-0.6-0.3-0.7-0.6l-1.4-3.5h-7.4L58.5,65c-0.1,0.4-0.4,0.6-0.7,0.6c-0.4,0-0.7-0.3-0.7-0.8
	C57.1,64.7,57.1,64.5,57.2,64.4 M66.6,60l-3.1-7.7L60.5,60H66.6z"/>
<path fill="#FFFFFF" d="M72,51.3c0-0.5,0.3-0.9,0.7-0.9h5c1.6,0,3,0.6,3.8,1.5c0.7,0.7,1,1.8,1,3v0c0,2.5-1.5,3.9-3.6,4.4l3.3,4.8
	c0.2,0.2,0.2,0.4,0.2,0.6c0,0.5-0.4,0.8-0.8,0.8c-0.3,0-0.5-0.2-0.7-0.5l-3.8-5.5h-3.9v5.1c0,0.5-0.3,0.9-0.8,0.9
	c-0.4,0-0.7-0.4-0.7-0.9V51.3 M77.7,58.1c2,0,3.4-1.2,3.4-3.1v0c0-1.8-1.3-3-3.4-3h-4.1v6.1H77.7z"/>
<path fill="#FFFFFF" d="M84.3,58L84.3,58c0-4.2,2.8-7.8,6.9-7.8c4.1,0,6.8,3.6,6.8,7.7v0c0,1.9-0.6,3.7-1.6,5.1l1.3,1.2
	c0.2,0.2,0.3,0.4,0.3,0.7c0,0.5-0.3,0.8-0.7,0.8c-0.2,0-0.4-0.1-0.6-0.3l-1.3-1.3c-1.1,1-2.6,1.6-4.2,1.6
	C87.1,65.7,84.3,62.1,84.3,58 M91.9,60.4c0-0.5,0.3-0.9,0.7-0.9c0.2,0,0.4,0.1,0.6,0.3l2.1,2.1c0.7-1.1,1.1-2.4,1.1-3.9v0
	c0-3.4-2.2-6.2-5.3-6.2s-5.2,2.8-5.2,6.2v0c0,3.4,2.2,6.2,5.3,6.2c1.2,0,2.3-0.4,3.1-1.1l-2-2C92,60.9,91.9,60.7,91.9,60.4"/>
</svg>
