<?xml version="1.0" encoding="utf-8"?>
<!-- Generator: Adobe Illustrator 19.2.1, SVG Export Plug-In . SVG Version: 6.00 Build 0)  -->
<svg version="1.1" id="Layer_1" xmlns="http://www.w3.org/2000/svg" xmlns:xlink="http://www.w3.org/1999/xlink" x="0px" y="0px"
	 width="100px" height="100px" viewBox="0 0 100 100" style="enable-background:new 0 0 100 100;" xml:space="preserve">
<style type="text/css">
	.st0{fill:#FFFFFF;}
</style>
<path class="st0" d="M98.1,93.5L54.6,50L98.1,6.5c1.3-1.3,1.3-3.3,0-4.6c-1.3-1.3-3.3-1.3-4.6,0L50,45.4L6.5,1.9
	c-1.3-1.3-3.3-1.3-4.6,0s-1.3,3.3,0,4.6L45.4,50L1.9,93.5c-1.3,1.3-1.3,3.3,0,4.6c1.3,1.3,3.3,1.3,4.6,0L50,54.6l43.5,43.5
	c1.3,1.3,3.3,1.3,4.6,0C99.3,96.8,99.3,94.7,98.1,93.5z"/>
</svg>
