<?xml version="1.0" encoding="utf-8"?>
<!-- Generator: Adobe Illustrator 19.2.1, SVG Export Plug-In . SVG Version: 6.00 Build 0)  -->
<svg version="1.1" id="Calque_1" xmlns="http://www.w3.org/2000/svg" xmlns:xlink="http://www.w3.org/1999/xlink" x="0px" y="0px"
	 width="100px" height="100px" viewBox="0 0 100 100" style="enable-background:new 0 0 100 100;" xml:space="preserve">
<style type="text/css">
	.st0{fill:#FFFFFF;}
</style>
<title>icon-cloudy</title>
<path class="st0" d="M77.9,87H26.2C12.3,87.1,1,75.9,1,62C0.9,49.3,10.4,38.5,23.1,37c1.7-14.9,15.2-25.5,30.1-23.8
	c9.4,1.1,17.6,7,21.5,15.7c5,0.2,9.6,2.6,12.7,6.5c3.1,3.9,4.3,8.9,3.4,13.7c9.2,7.1,10.9,20.4,3.8,29.7C90.5,83.9,84.4,87,77.9,87z
	 M50.1,19.6c-11.4,0-20.6,9.1-20.7,20.5c0,0,0,0,0,0c0,1.8-1.5,3.2-3.3,3.2c-10.3,0-18.6,8.3-18.6,18.6s8.3,18.6,18.6,18.6h51.7
	c8.1,0,14.6-6.6,14.6-14.7c0-5.1-2.7-9.9-7.2-12.5c-1.3-0.8-1.9-2.4-1.4-3.8c1.2-3.4,0.6-7.2-1.7-10c-2.2-2.8-5.7-4.3-9.3-4
	c-1.5,0.2-2.9-0.7-3.4-2.2C66.6,25,58.8,19.5,50.1,19.6z"/>
</svg>
