<?xml version="1.0" encoding="utf-8"?>
<!-- Generator: Adobe Illustrator 18.0.0, SVG Export Plug-In . SVG Version: 6.00 Build 0)  -->
<!DOCTYPE svg PUBLIC "-//W3C//DTD SVG 1.1//EN" "http://www.w3.org/Graphics/SVG/1.1/DTD/svg11.dtd">
<svg version="1.1" id="Calque_1" xmlns="http://www.w3.org/2000/svg" xmlns:xlink="http://www.w3.org/1999/xlink" x="0px" y="0px"
	 width="98px" height="98px" viewBox="0 0 98 98" enable-background="new 0 0 98 98" xml:space="preserve">
<path fill="#FFFFFF" d="M49.1,62.9c-3.6,0-7.1,0-10.7,0c-0.8,0-1.1,0.2-1,1c0,3.2,0,6.4,0,9.6c0,2.4-1.6,4.2-3.8,4.2
	c-2.2,0-3.8-1.7-3.8-4.2c0-3.2,0-6.3,0-9.5c0-0.8-0.2-1.1-1.1-1.1c-1.7,0.1-3.4,0-5.1,0c-2.8,0-4.7-2.3-3.9-5
	c1.5-5.2,3.1-10.4,4.7-15.5c0.6-1.8,1.6-3.3,3.7-3.7c0.3-0.1,0.6-0.5,0.7-0.9c1.2-3.8,2.3-7.7,3.5-11.5c0.5-1.7,1.5-3.1,3.4-3.4
	c1.1-0.2,2.3-0.1,3.4-0.1c0.8,0,1.3-0.2,1.5-1.1c0.2-1.1,0.6-2.1,0.9-3.2c0.4-1.2,0.8-1.5,2-1.5c1.2,0,1.2,0,1.2-1.3
	c0-3.8,0-7.5,0-11.3c0-2.7,1.9-4.6,4.5-4.5C63.8,0.3,76,5.8,85.8,16.6c6.1,6.8,10.1,14.7,11.5,23.7c3.1,19.7-3.4,35.8-19.1,48.1
	c-6.3,4.9-13.6,7.9-21.4,9c-14.7,2.1-27.8-1.5-39.2-11C9.1,79.5,3.8,70.6,1.3,60c-1-4.4-1.5-8.8-1.2-13.3C1.8,26.4,12,12,30.6,3.7
	c2.4-1.1,4.7-0.2,5.8,1.9c1.1,2.2,0.2,4.7-2.1,5.8c-2,1-4.1,1.8-6,3C17.9,20.9,11.3,30.2,9.3,42.3c-2.3,14,1.8,26.2,12.1,36.1
	c6,5.8,13.3,9.4,21.6,10.5c15.9,2.1,28.9-3.3,38.7-16c4.1-5.3,6.6-11.4,7.4-18.1C90.8,40.7,86.5,28.6,76,19
	c-5.7-5.2-12.4-8.3-20-9.6c-0.6-0.1-1.2-0.2-1.8-0.3c-0.5-0.1-0.8,0-0.8,0.6c0,2.2,0,4.5,0,6.7c0,0.5,0.2,0.8,0.7,0.7
	c1.7-0.2,2.1,0.1,2.6,2c0.3,0.9,0.6,1.9,0.8,2.8c0.2,0.7,0.5,0.9,1.2,0.9c0.9-0.1,1.8,0,2.7,0c1.9,0,3.5,1.1,4.1,3
	c1.2,3.9,2.4,7.8,3.6,11.8c0.2,0.8,0.5,1.2,1.4,1.3c1.5,0.3,2.4,1.4,2.9,2.7c0.9,2.7,1.7,5.4,2.6,8.1c0.8,2.5,1.5,5.1,2.4,7.6
	c1.1,3.3-1.3,5.8-4.1,5.6c-1.6-0.1-3.2,0-4.9,0c-0.8,0-1,0.3-1,1c0,3,0,6,0,9c0,0.8-0.1,1.7-0.4,2.4c-0.6,1.7-2.4,2.6-4.2,2.3
	c-1.7-0.3-3-1.9-3.1-3.8c0-3.3,0-6.6,0-9.8c0-0.8-0.2-1.1-1.1-1.1C56.2,62.9,52.6,62.9,49.1,62.9z M63.4,38.6c0-0.2,0-0.2,0-0.3
	c-0.8-2.9-1.6-5.8-2.5-8.7c-0.4-1.3-1-1.6-2.4-1.6c-6.2,0-12.3,0-18.5,0c-1.9,0-2.4,0.4-3,2.2c-0.6,2.1-1.2,4.2-1.8,6.3
	c-0.2,0.7-0.3,1.4-0.5,2.1C44.3,38.6,53.8,38.6,63.4,38.6z M37.1,50.8c0-2.1-1.5-3.6-3.5-3.6c-2.1,0-3.6,1.5-3.5,3.6
	c0,2.1,1.6,3.7,3.6,3.6C35.5,54.4,37.1,52.9,37.1,50.8z M61.1,50.8c0,2.1,1.5,3.7,3.5,3.7c2,0,3.5-1.6,3.6-3.6
	c0-2.1-1.4-3.7-3.5-3.7C62.6,47.2,61.1,48.7,61.1,50.8z"/>
</svg>
