<?xml version="1.0" encoding="utf-8"?>
<!-- Generator: Adobe Illustrator 19.2.1, SVG Export Plug-In . SVG Version: 6.00 Build 0)  -->
<svg version="1.1" id="Calque_1" xmlns="http://www.w3.org/2000/svg" xmlns:xlink="http://www.w3.org/1999/xlink" x="0px" y="0px"
	 width="100px" height="100px" viewBox="0 0 100 100" style="enable-background:new 0 0 100 100;" xml:space="preserve">
<style type="text/css">
	.st0{fill:#FFFFFF;}
</style>
<path class="st0" d="M50,1C22.9,1,1,22.9,1,50c0,27.1,21.9,49,49,49c27.1,0,49-21.9,49-49C99,22.9,77.1,1,50,1z M64.3,31.6l-5.2,0
	c-4.1,0-4.9,1.9-4.9,4.8v6.2H64l-1.3,9.8h-8.4v25.1H44.2V52.4h-8.5v-9.8h8.5v-7.2c0-8.4,5.1-12.9,12.6-12.9c3.6,0,6.7,0.3,7.6,0.4
	V31.6z"/>
</svg>
