<?xml version="1.0" encoding="utf-8"?>
<!-- Generator: Adobe Illustrator 18.0.0, SVG Export Plug-In . SVG Version: 6.00 Build 0)  -->
<!DOCTYPE svg PUBLIC "-//W3C//DTD SVG 1.1//EN" "http://www.w3.org/Graphics/SVG/1.1/DTD/svg11.dtd">
<svg version="1.1" id="Calque_1" xmlns="http://www.w3.org/2000/svg" xmlns:xlink="http://www.w3.org/1999/xlink" x="0px" y="0px"
	 width="104px" height="104px" viewBox="0 0 104 104" enable-background="new 0 0 104 104" xml:space="preserve">
<g>
	<g>
		<path d="M52,2C24.4,2,2,24.4,2,52c0,27.6,22.4,50,50,50c27.6,0,50-22.4,50-50C102,24.4,79.6,2,52,2z M99.4,50.5l-34.7-5.8
			l7.4-11.1c0.3-0.5,0.3-1.2-0.2-1.6c-0.4-0.4-1.1-0.5-1.6-0.2l-11.1,7.4L53.5,4.6C78.5,5.4,98.6,25.5,99.4,50.5z M47,63.2l5-3.4
			l5,3.4l-5,30L47,63.2z M52.7,57.3c-0.2-0.1-0.5-0.2-0.7-0.2c-0.2,0-0.5,0.1-0.7,0.2l-13.9,9.3l9.3-13.9c0.3-0.4,0.3-1,0-1.4
			l-9.3-13.9l13.9,9.3c0.4,0.3,1,0.3,1.4,0l13.9-9.3l-9.3,13.9c-0.3,0.4-0.3,1,0,1.4l9.3,13.9L52.7,57.3z M44.1,52l-3.4,5l-30-5
			l30-5L44.1,52z M57,40.8l-5,3.4l-5-3.4l5-30L57,40.8z M59.9,52l3.4-5l30,5l-30,5L59.9,52z M50.5,4.6l-5.8,34.7l-11.1-7.4
			c-0.5-0.3-1.2-0.3-1.6,0.2c-0.4,0.4-0.5,1.1-0.2,1.6l7.4,11.1L4.6,50.5C5.4,25.5,25.5,5.4,50.5,4.6z M4.6,53.5l34.7,5.8l-7.4,11.1
			c-0.3,0.5-0.3,1.2,0.2,1.6c0.4,0.4,1.1,0.5,1.6,0.2l11.1-7.4l5.8,34.7C25.5,98.6,5.4,78.5,4.6,53.5z M53.5,99.4l5.8-34.7l11.1,7.4
			c0.2,0.1,0.5,0.2,0.7,0.2c0.3,0,0.6-0.1,0.9-0.4c0.4-0.4,0.5-1.1,0.2-1.6l-7.4-11.1l34.7-5.8C98.6,78.5,78.5,98.6,53.5,99.4z"/>
	</g>
</g>
</svg>
