<?xml version="1.0" standalone="no"?>
<!DOCTYPE svg PUBLIC "-//W3C//DTD SVG 20010904//EN"
 "http://www.w3.org/TR/2001/REC-SVG-20010904/DTD/svg10.dtd">
<svg version="1.0" xmlns="http://www.w3.org/2000/svg"
 width="100.000000pt" height="100.000000pt" viewBox="0 0 100.000000 100.000000"
 preserveAspectRatio="xMidYMid meet">

<g transform="translate(0.000000,100.000000) scale(0.100000,-0.100000)"
fill="#000000" stroke="none">
<path d="M325 677 c-4 -13 -5 -49 -3 -82 l3 -59 88 -43 87 -43 88 43 87 43 3
59 c6 112 17 105 -178 105 -168 0 -170 0 -175 -23z m275 -67 c0 -6 -40 -10
-100 -10 -60 0 -100 4 -100 10 0 6 40 10 100 10 60 0 100 -4 100 -10z m0 -50
c0 -6 -40 -10 -100 -10 -60 0 -100 4 -100 10 0 6 40 10 100 10 60 0 100 -4
100 -10z"/>
<path d="M274 589 c-16 -17 -16 -22 -4 -29 24 -16 30 -12 30 20 0 36 -1 36
-26 9z"/>
<path d="M700 582 c0 -34 5 -38 30 -22 13 8 12 13 -7 32 l-23 22 0 -32z"/>
<path d="M250 420 l0 -120 250 0 250 0 0 120 c0 66 -2 120 -4 120 -2 0 -55
-25 -117 -55 -63 -30 -121 -55 -129 -55 -8 0 -66 25 -129 55 -62 30 -115 55
-117 55 -2 0 -4 -54 -4 -120z"/>
</g>
</svg>
