<?xml version="1.0" encoding="utf-8"?>
<!-- Generator: Adobe Illustrator 18.0.0, SVG Export Plug-In . SVG Version: 6.00 Build 0)  -->
<!DOCTYPE svg PUBLIC "-//W3C//DTD SVG 1.1//EN" "http://www.w3.org/Graphics/SVG/1.1/DTD/svg11.dtd">
<svg version="1.1" id="Calque_1" xmlns="http://www.w3.org/2000/svg" xmlns:xlink="http://www.w3.org/1999/xlink" x="0px" y="0px"
	 width="126px" height="124px" viewBox="0 0 126 124" enable-background="new 0 0 126 124" xml:space="preserve">
<g>
	<g>
		<path fill="#FFFFFF" d="M37.8,69.8c0.4,0.4,0.9,0.6,1.5,0.6c0.5,0,1.1-0.2,1.5-0.6l7.5-7.4c0.8-0.8,0.8-2.1,0-2.9l-7.5-7.4
			c-0.8-0.8-2.1-0.8-2.9,0l-7.5,7.4c-0.8,0.8-0.8,2.1,0,2.9L37.8,69.8z M39.3,56.3l4.5,4.5l-4.5,4.5l-4.6-4.5L39.3,56.3z M52.8,54.9
			c0.4,0.4,0.9,0.6,1.5,0.6c0.6,0,1.1-0.2,1.5-0.6l7.5-7.4c0.8-0.8,0.8-2.1,0-2.9L55.8,37c-0.8-0.8-2.2-0.8-2.9,0l-7.5,7.4
			c-0.8,0.8-0.8,2.1,0,2.9L52.8,54.9z M54.3,41.4l4.5,4.5l-4.5,4.5L49.7,46L54.3,41.4z M112.3,54.7h-3.2v-8
			c6.2-2.8,10.6-9,10.6-16.3c0-9.9-8.1-17.9-18-17.9c-1.6,0-3.1,0.2-4.6,0.6C94.4,6.6,88,2,80.5,2c-9.9,0-18,8-18,17.9
			c0,0.9,0.1,1.8,0.2,2.7c-3.6-2.2-7.8-3.4-12.2-3.4c-6.2,0-12.1,2.4-16.5,6.8L7.8,51.9c-9.1,9-9.1,23.7,0,32.7l7.5,7.4
			c4.4,4.4,10.2,6.8,16.5,6.8c6.2,0,12.1-2.4,16.5-6.8L74.5,66c4.4-4.4,6.8-10.2,6.8-16.4c0-4.4-1.2-8.5-3.5-12.2
			c0.9,0.1,1.8,0.2,2.7,0.2c1.6,0,3.1-0.2,4.6-0.6c2.7,6.5,9.1,11.1,16.6,11.1c1.1,0,2.2-0.1,3.2-0.3v6.7h-3.2
			c-7,0-12.7,5.7-12.7,12.6v15.8c0,1.1,0.9,2.1,2.1,2.1h8.5v24.3c0,0.3,0.1,0.7,0.2,1l5.5,10.5c0.4,0.7,1.1,1.1,1.8,1.1h0
			c0.8,0,1.5-0.5,1.8-1.2l5.1-10.5c0.1-0.3,0.2-0.6,0.2-0.9V85.1h8.5c1.2,0,2.1-0.9,2.1-2.1V67.3C125,60.3,119.3,54.7,112.3,54.7z
			 M64.1,28.8l3.6,3.6c0.1,0.1,0.1,0.1,0.2,0.2l3.7,3.7c2.1,2.1,3.7,4.6,4.6,7.4L45.3,74.3c-3.3,3.3-8.7,3.3-12,0l-7.5-7.5
			c-1.6-1.6-2.5-3.7-2.5-6c0-2.3,0.9-4.4,2.5-6l30.8-30.6C59.4,25.1,61.9,26.7,64.1,28.8z M71.6,63.1L45.3,89.2
			c-3.6,3.6-8.4,5.6-13.5,5.6c-5.1,0-9.9-2-13.5-5.6l-7.5-7.4c-7.5-7.4-7.5-19.5,0-26.9L37,28.8c3.6-3.6,8.4-5.6,13.5-5.6
			c0.4,0,0.8,0,1.1,0.1L22.8,51.9c-2.4,2.4-3.7,5.5-3.7,8.9c0,3.4,1.3,6.5,3.7,8.9l7.5,7.5c2.5,2.5,5.7,3.7,9,3.7
			c3.2,0,6.5-1.2,9-3.7l28.8-28.7c0,0.4,0.1,0.7,0.1,1.1C77.2,54.8,75.2,59.5,71.6,63.1z M83.9,33.1c-1.1,0.3-2.3,0.5-3.5,0.5
			c-3.7,0-7.1-1.5-9.6-3.9l-0.2-0.2c-2.4-2.5-3.9-5.9-3.9-9.6c0-7.6,6.2-13.7,13.8-13.7c5.8,0,10.7,3.5,12.8,8.5
			c-5.7,3-9.6,8.9-9.6,15.8C83.7,31.3,83.8,32.2,83.9,33.1z M87.9,30.4c0-4.8,2.6-9.1,6.4-11.6c0,0.3,0.1,0.7,0.1,1
			c0,4.9-2.6,9.1-6.4,11.6C87.9,31.1,87.9,30.7,87.9,30.4z M101.7,44.1c-5.8,0-10.7-3.5-12.8-8.5c5.7-3,9.5-8.9,9.5-15.8
			c0-0.9-0.1-1.8-0.2-2.7c1.1-0.3,2.3-0.5,3.5-0.5c7.6,0,13.8,6.2,13.8,13.7c0,4.9-2.6,9.1-6.4,11.6v-3.7c0-1.1-0.9-2.1-2.1-2.1
			c-1.2,0-2.1,0.9-2.1,2.1v5.4C103.9,44,102.8,44.1,101.7,44.1z M110.2,108.9l-3.1,6.4l-3.4-6.4V85.1h6.4V108.9z M120.8,81H93.2
			V67.3c0-4.7,3.8-8.5,8.5-8.5h3.2v5.8c0,1.1,0.9,2.1,2.1,2.1c1.2,0,2.1-0.9,2.1-2.1v-5.8h3.2c4.7,0,8.5,3.8,8.5,8.5V81z"/>
	</g>
</g>
</svg>
