<?xml version="1.0" encoding="utf-8"?>
<!-- Generator: Adobe Illustrator 19.2.1, SVG Export Plug-In . SVG Version: 6.00 Build 0)  -->
<svg version="1.1" id="Calque_1" xmlns="http://www.w3.org/2000/svg" xmlns:xlink="http://www.w3.org/1999/xlink" x="0px" y="0px"
	 width="100px" height="100px" viewBox="0 0 100 100" style="enable-background:new 0 0 100 100;" xml:space="preserve">
<style type="text/css">
	.st0{fill:#FFFFFF;}
</style>
<path class="st0" d="M50,1C22.9,1,1,22.9,1,50c0,27.1,21.9,49,49,49c27.1,0,49-21.9,49-49C99,22.9,77.1,1,50,1z M38.2,71.4h-8.9
	V42.8h8.9V71.4z M33.7,38.9c-2.9,0-5.2-2.3-5.2-5.2c0-2.8,2.3-5.1,5.2-5.1c2.8,0,5.1,2.3,5.1,5.1C38.9,36.6,36.6,38.9,33.7,38.9z
	 M71.4,71.4h-8.9V57.5c0-3.3-0.1-7.6-4.6-7.6c-4.6,0-5.3,3.6-5.3,7.3v14.1h-8.9V42.8h8.5v3.9h0.1c1.2-2.2,4.1-4.6,8.4-4.6
	c9,0,10.6,5.9,10.6,13.6V71.4z"/>
</svg>
