<?xml version="1.0" encoding="utf-8"?>
<!-- Generator: Adobe Illustrator 19.2.1, SVG Export Plug-In . SVG Version: 6.00 Build 0)  -->
<svg version="1.1" id="Calque_1" xmlns="http://www.w3.org/2000/svg" xmlns:xlink="http://www.w3.org/1999/xlink" x="0px" y="0px"
	 width="552px" height="204px" viewBox="0 0 552 204" style="enable-background:new 0 0 552 204;" xml:space="preserve">
<style type="text/css">
	.st0{fill:#0055FF;}
</style>
<g>
	<path class="st0" d="M60.8,1.8c18.7,0,33.9,15.2,33.9,33.9S79.5,69.7,60.8,69.7S26.9,54.4,26.9,35.7S42.1,1.8,60.8,1.8"/>
	<g>
		<path d="M371.8,82.7c0-1.5,0.3-3,0.8-4.4s1.3-2.6,2.3-3.7c1-1.1,2.2-2,3.6-2.6c1.4-0.7,3.1-1,4.9-1c1.9,0,3.5,0.3,4.9,1
			s2.6,1.5,3.6,2.6c1,1.1,1.7,2.3,2.3,3.7c0.5,1.4,0.8,2.9,0.8,4.4c0,1.5-0.3,2.9-0.8,4.3c-0.5,1.4-1.2,2.6-2.2,3.7l1.9,1.7
			l-2.6,2.8l-2.4-2.1c-0.8,0.4-1.6,0.7-2.5,0.9c-0.9,0.2-1.9,0.3-3,0.3c-1.9,0-3.5-0.3-4.9-1c-1.4-0.7-2.6-1.5-3.6-2.6
			c-1-1.1-1.7-2.3-2.3-3.7S371.8,84.2,371.8,82.7z M390.2,82.7c0-1-0.1-2-0.4-2.9c-0.3-0.9-0.7-1.7-1.3-2.5s-1.3-1.3-2.1-1.7
			c-0.9-0.4-1.8-0.6-2.9-0.6s-2.1,0.2-2.9,0.6c-0.8,0.4-1.5,1-2.1,1.7s-1,1.5-1.3,2.5c-0.3,0.9-0.4,1.9-0.4,2.9c0,1,0.1,2,0.4,2.9
			c0.3,0.9,0.7,1.7,1.3,2.5s1.3,1.3,2.1,1.7c0.8,0.4,1.8,0.6,2.9,0.6c0.8,0,1.5-0.1,2.1-0.3l-2.3-2l2.4-2.7l2.9,2.5
			c0.5-0.7,0.9-1.5,1.2-2.4C390.1,84.6,390.2,83.6,390.2,82.7z"/>
		<path d="M407.8,91.9L407.8,91.9c-0.7,1-1.4,1.6-2.3,2c-0.8,0.4-1.7,0.5-2.6,0.5c-1,0-1.8-0.1-2.5-0.4c-0.7-0.3-1.2-0.7-1.7-1.2
			c-0.4-0.5-0.8-1.1-1-1.7c-0.2-0.7-0.3-1.4-0.3-2.1V78.3h4.4v9.5c0,0.6,0.1,1,0.2,1.4c0.2,0.4,0.4,0.7,0.6,0.9
			c0.3,0.2,0.6,0.4,0.9,0.5c0.3,0.1,0.6,0.1,1,0.1c0.9,0,1.6-0.3,2.2-1c0.6-0.7,0.9-1.6,0.9-2.6v-8.8h4.4v15.6h-4.2V91.9z"/>
		<path d="M418.5,87.3c0,0.5,0.1,0.9,0.3,1.4c0.2,0.5,0.4,0.9,0.8,1.2c0.4,0.3,0.8,0.6,1.3,0.8c0.5,0.2,1.2,0.3,1.9,0.3
			c1.6,0,2.7-0.6,3.3-1.8l4,1c-0.6,1.4-1.5,2.5-2.8,3.2c-1.2,0.7-2.8,1-4.8,1c-1.3,0-2.5-0.2-3.6-0.6c-1-0.4-1.9-0.9-2.7-1.6
			c-0.7-0.7-1.3-1.6-1.7-2.6c-0.4-1-0.6-2.1-0.6-3.4c0-1.3,0.2-2.4,0.6-3.4c0.4-1,1-1.9,1.7-2.6s1.6-1.3,2.7-1.7
			c1-0.4,2.2-0.6,3.4-0.6c2.6,0,4.6,0.7,5.9,2.2c1.3,1.4,2,3.4,2,6v1.2H418.5z M426,84.5c0-0.4-0.1-0.8-0.2-1.2
			c-0.1-0.4-0.3-0.8-0.5-1.1c-0.3-0.3-0.6-0.6-1-0.8c-0.4-0.2-1-0.3-1.6-0.3c-0.8,0-1.4,0.1-1.9,0.3c-0.5,0.2-0.9,0.5-1.2,0.9
			c-0.3,0.3-0.5,0.7-0.7,1.1c-0.2,0.4-0.3,0.8-0.3,1.1H426z M423.6,71.4h4.4l-4.2,4.2h-2.8L423.6,71.4z"/>
		<path d="M432.7,70.5h4.4v9.9h0c0.7-0.9,1.5-1.6,2.3-2c0.8-0.4,1.7-0.6,2.7-0.6c1.1,0,2.1,0.2,3,0.7c0.9,0.4,1.6,1,2.3,1.8
			c0.6,0.8,1.1,1.6,1.4,2.6c0.3,1,0.5,2,0.5,3.1c0,1.1-0.2,2.1-0.5,3.1c-0.4,1-0.8,1.9-1.5,2.6c-0.6,0.8-1.4,1.4-2.3,1.8
			c-0.9,0.5-1.9,0.7-3,0.7c-1,0-1.9-0.2-2.8-0.6c-0.9-0.4-1.6-1.1-2.2-2h-0.1v2.2h-4.2V70.5z M444.7,86.2c0-0.6-0.1-1.2-0.2-1.7
			c-0.2-0.5-0.4-1-0.7-1.5c-0.3-0.4-0.7-0.8-1.2-1c-0.5-0.3-1-0.4-1.6-0.4c-0.7,0-1.3,0.1-1.8,0.4c-0.5,0.3-0.9,0.6-1.2,1
			c-0.3,0.4-0.6,0.9-0.7,1.4c-0.2,0.5-0.2,1.1-0.2,1.7c0,0.6,0.1,1.2,0.3,1.8c0.2,0.6,0.4,1.1,0.8,1.5c0.3,0.4,0.7,0.8,1.2,1
			c0.5,0.2,1,0.4,1.6,0.4c0.6,0,1.2-0.1,1.7-0.4c0.5-0.3,0.9-0.6,1.2-1c0.3-0.4,0.6-0.9,0.7-1.5C444.6,87.4,444.7,86.8,444.7,86.2z"
			/>
		<path d="M455.4,87.3c0,0.5,0.1,0.9,0.3,1.4c0.2,0.5,0.4,0.9,0.8,1.2c0.4,0.3,0.8,0.6,1.3,0.8c0.5,0.2,1.2,0.3,1.9,0.3
			c1.6,0,2.7-0.6,3.3-1.8l4,1c-0.6,1.4-1.5,2.5-2.8,3.2c-1.2,0.7-2.8,1-4.8,1c-1.3,0-2.5-0.2-3.6-0.6c-1-0.4-1.9-0.9-2.7-1.6
			c-0.7-0.7-1.3-1.6-1.7-2.6c-0.4-1-0.6-2.1-0.6-3.4c0-1.3,0.2-2.4,0.6-3.4c0.4-1,1-1.9,1.7-2.6s1.6-1.3,2.7-1.7
			c1-0.4,2.2-0.6,3.4-0.6c2.6,0,4.6,0.7,5.9,2.2c1.3,1.4,2,3.4,2,6v1.2H455.4z M462.9,84.5c0-0.4-0.1-0.8-0.2-1.2
			c-0.1-0.4-0.3-0.8-0.5-1.1c-0.3-0.3-0.6-0.6-1-0.8c-0.4-0.2-1-0.3-1.6-0.3c-0.8,0-1.4,0.1-1.9,0.3c-0.5,0.2-0.9,0.5-1.2,0.9
			c-0.3,0.3-0.5,0.7-0.7,1.1c-0.2,0.4-0.3,0.8-0.3,1.1H462.9z"/>
		<path d="M481.1,83.5c-0.2-0.6-0.6-1.1-1.1-1.5c-0.5-0.5-1.2-0.7-2.2-0.7c-0.8,0-1.4,0.1-1.9,0.4c-0.5,0.3-0.9,0.7-1.2,1.1
			c-0.3,0.5-0.6,1-0.7,1.7c-0.1,0.6-0.2,1.3-0.2,1.9c0,1.3,0.3,2.3,1,3.1c0.7,0.8,1.7,1.2,2.9,1.2c0.9,0,1.6-0.2,2.1-0.6
			c0.5-0.4,0.9-0.9,1.3-1.6l3.9,1.5c-0.6,1.2-1.5,2.2-2.7,3c-1.2,0.8-2.8,1.2-4.7,1.2c-1.4,0-2.7-0.2-3.7-0.6
			c-1.1-0.4-1.9-1-2.6-1.7c-0.7-0.7-1.2-1.6-1.5-2.5c-0.3-1-0.5-2.1-0.5-3.2c0-1.2,0.2-2.3,0.6-3.3c0.4-1,1-1.9,1.7-2.6
			s1.6-1.3,2.7-1.7c1-0.4,2.2-0.6,3.5-0.6c2.1,0,3.7,0.4,4.8,1.1c1.2,0.8,2,1.7,2.6,3L481.1,83.5z"/>
		<path d="M511.1,79.2c-0.4-1.4-1-2.5-2-3.1c-1-0.6-2.1-1-3.5-1c-1,0-1.8,0.2-2.6,0.6c-0.8,0.4-1.4,1-2,1.7c-0.5,0.7-1,1.5-1.2,2.4
			c-0.3,0.9-0.4,1.9-0.4,2.9c0,1.2,0.2,2.2,0.5,3.2c0.3,0.9,0.7,1.7,1.3,2.4c0.6,0.6,1.2,1.1,2,1.5c0.8,0.3,1.7,0.5,2.6,0.5
			c1.1,0,2.2-0.3,3.2-0.8c1-0.5,1.7-1.5,2.1-2.7l4.8,0.6c-0.4,1.2-0.9,2.3-1.6,3.1c-0.7,0.9-1.5,1.6-2.3,2.1c-0.9,0.6-1.9,1-3,1.2
			c-1.1,0.3-2.2,0.4-3.4,0.4c-1.6,0-3.1-0.3-4.5-0.8c-1.4-0.5-2.5-1.2-3.5-2.2c-1-1-1.7-2.2-2.3-3.6c-0.5-1.4-0.8-3.1-0.8-5
			c0-1.6,0.3-3.1,0.8-4.5c0.5-1.4,1.3-2.6,2.3-3.7c1-1,2.2-1.9,3.5-2.5c1.4-0.6,2.9-0.9,4.5-0.9c1.2,0,2.4,0.1,3.5,0.4
			c1.1,0.3,2.1,0.7,3,1.2c0.9,0.6,1.7,1.3,2.3,2.2c0.6,0.9,1.1,2,1.4,3.3L511.1,79.2z"/>
		<path d="M517.4,73.8c0-0.3,0.1-0.6,0.2-1c0.1-0.3,0.3-0.6,0.5-0.8c0.2-0.2,0.5-0.4,0.8-0.6c0.3-0.1,0.6-0.2,1-0.2
			c0.3,0,0.6,0.1,0.9,0.2s0.6,0.3,0.8,0.5c0.2,0.2,0.4,0.5,0.6,0.8c0.1,0.3,0.2,0.6,0.2,1c0,0.3-0.1,0.6-0.2,1
			c-0.1,0.3-0.3,0.6-0.5,0.8c-0.2,0.2-0.5,0.4-0.8,0.6c-0.3,0.1-0.6,0.2-1,0.2c-0.4,0-0.7-0.1-1-0.2c-0.3-0.2-0.6-0.3-0.8-0.6
			c-0.2-0.2-0.4-0.5-0.5-0.8C517.5,74.4,517.4,74.1,517.4,73.8z M517.8,78.5h4.3v15.4h-4.3V78.5z"/>
		<path d="M524,78.5h2.3v-4.4h4.3v4.4h3.6v3.4h-3.6v7.4c0,0.5,0.1,0.9,0.4,1.1c0.3,0.2,0.7,0.3,1.3,0.3c0.4,0,0.8,0,1.3-0.1v3.4
			c-0.3,0-0.8,0.1-1.3,0.1c-0.5,0-0.9,0-1.3,0c-0.7,0-1.3-0.1-1.9-0.2c-0.6-0.1-1.1-0.4-1.5-0.7c-0.4-0.3-0.7-0.8-1-1.3
			c-0.2-0.6-0.3-1.3-0.3-2.1v-7.9H524V78.5z"/>
		<path d="M540.7,93.9l-5.8-15.4h4.8l3.2,10.3h0.1l3.3-10.3h4.6l-8.5,22H538L540.7,93.9z"/>
		<path d="M375.8,120.9c1.2,0,2.1-0.3,2.5-1c0.5-0.6,0.7-1.7,0.7-3.1V106h-3.7v-4h8.2v14.9c0,1.5-0.2,2.7-0.5,3.7
			c-0.4,1-0.9,1.8-1.5,2.4c-0.6,0.6-1.4,1-2.3,1.3c-0.9,0.3-1.9,0.4-2.9,0.4c-0.3,0-0.7,0-1.1,0c-0.4,0-0.8-0.1-1.2-0.1v-3.7
			c0.3,0,0.6,0.1,0.9,0.1C375.2,120.9,375.5,120.9,375.8,120.9z"/>
		<path d="M390.4,117.7c0,0.5,0.1,0.9,0.3,1.4c0.2,0.4,0.4,0.8,0.8,1.2c0.3,0.3,0.8,0.6,1.3,0.8c0.5,0.2,1.2,0.3,1.9,0.3
			c1.6,0,2.7-0.6,3.3-1.8l4,1c-0.6,1.4-1.5,2.5-2.7,3.1s-2.8,1-4.7,1c-1.3,0-2.5-0.2-3.6-0.6c-1-0.4-1.9-0.9-2.6-1.6
			c-0.7-0.7-1.3-1.5-1.7-2.5c-0.4-1-0.6-2.1-0.6-3.3c0-1.2,0.2-2.4,0.6-3.4c0.4-1,1-1.9,1.7-2.6s1.6-1.3,2.6-1.6
			c1-0.4,2.2-0.6,3.4-0.6c2.6,0,4.6,0.7,5.9,2.1c1.3,1.4,2,3.4,2,5.9v1.2H390.4z M397.8,114.9c0-0.4-0.1-0.8-0.2-1.2
			c-0.1-0.4-0.3-0.8-0.5-1.1c-0.3-0.3-0.6-0.6-1-0.8c-0.4-0.2-1-0.3-1.6-0.3c-0.7,0-1.4,0.1-1.9,0.3c-0.5,0.2-0.9,0.5-1.2,0.9
			c-0.3,0.3-0.5,0.7-0.7,1.1c-0.2,0.4-0.3,0.8-0.3,1.1H397.8z"/>
		<path d="M414.2,122.2L414.2,122.2c-0.5,0.8-1.1,1.4-1.9,1.8c-0.8,0.4-1.8,0.6-3,0.6c-0.6,0-1.2-0.1-1.9-0.2
			c-0.6-0.2-1.2-0.4-1.7-0.8c-0.5-0.4-0.9-0.9-1.3-1.5c-0.3-0.6-0.5-1.4-0.5-2.3c0-1,0.2-1.8,0.6-2.4c0.4-0.6,1-1.1,1.7-1.5
			c0.7-0.4,1.6-0.6,2.7-0.8c1-0.1,2.2-0.2,3.5-0.2h1.7v-0.6c0-0.9-0.2-1.6-0.6-2.1c-0.4-0.5-1.1-0.7-2.1-0.7c-0.9,0-1.6,0.2-2,0.6
			c-0.4,0.4-0.7,0.8-0.7,1.4h-4.1c0-0.7,0.2-1.3,0.5-1.9c0.3-0.6,0.7-1.2,1.3-1.6c0.6-0.5,1.3-0.8,2.2-1.1c0.9-0.3,2-0.4,3.2-0.4
			c1.3,0,2.3,0.1,3.2,0.4c0.8,0.3,1.5,0.7,2,1.2c0.5,0.5,0.9,1.1,1,1.9c0.2,0.7,0.3,1.5,0.3,2.4v7.5c0,0.4,0,0.8,0.1,1.3
			c0,0.4,0.1,0.8,0.2,1.1h-3.9L414.2,122.2z M414,117.5h-1.2c-0.6,0-1.1,0-1.7,0.1s-1,0.2-1.5,0.3c-0.4,0.2-0.8,0.4-1,0.7
			c-0.3,0.3-0.4,0.7-0.4,1.1c0,0.7,0.2,1.3,0.7,1.5c0.5,0.3,1,0.4,1.8,0.4c0.4,0,0.8-0.1,1.2-0.2c0.4-0.1,0.7-0.3,1.1-0.6
			c0.3-0.3,0.6-0.6,0.8-1c0.2-0.4,0.3-0.9,0.3-1.5V117.5z"/>
		<path d="M431.3,114.9c0-0.5-0.1-1-0.2-1.4c-0.2-0.4-0.4-0.7-0.6-0.9c-0.3-0.2-0.5-0.4-0.9-0.5c-0.3-0.1-0.7-0.1-1-0.1
			c-0.8,0-1.6,0.3-2.1,1c-0.6,0.7-0.9,1.5-0.9,2.6v8.7h-4.3v-15.4h4.1v2h0.1c0.7-0.9,1.4-1.6,2.2-1.9c0.8-0.3,1.7-0.5,2.5-0.5
			c0.9,0,1.7,0.1,2.4,0.4c0.7,0.3,1.2,0.7,1.7,1.1c0.4,0.5,0.8,1,1,1.7c0.2,0.7,0.3,1.4,0.3,2.1v10.5h-4.3V114.9z"/>
		<path d="M446.2,102h4.5v18.1h8.6v4.2h-13V102z"/>
		<path d="M464.7,117.7c0,0.5,0.1,0.9,0.3,1.4c0.2,0.4,0.4,0.8,0.8,1.2c0.3,0.3,0.8,0.6,1.3,0.8c0.5,0.2,1.2,0.3,1.9,0.3
			c1.6,0,2.7-0.6,3.3-1.8l4,1c-0.6,1.4-1.5,2.5-2.7,3.1c-1.2,0.7-2.8,1-4.7,1c-1.3,0-2.5-0.2-3.6-0.6c-1-0.4-1.9-0.9-2.6-1.6
			c-0.7-0.7-1.3-1.5-1.7-2.5c-0.4-1-0.6-2.1-0.6-3.3c0-1.2,0.2-2.4,0.6-3.4c0.4-1,1-1.9,1.7-2.6c0.7-0.7,1.6-1.3,2.6-1.6
			c1-0.4,2.2-0.6,3.4-0.6c2.6,0,4.6,0.7,5.9,2.1c1.3,1.4,2,3.4,2,5.9v1.2H464.7z M472.1,114.9c0-0.4-0.1-0.8-0.2-1.2
			c-0.1-0.4-0.3-0.8-0.5-1.1c-0.3-0.3-0.6-0.6-1-0.8c-0.4-0.2-1-0.3-1.6-0.3c-0.7,0-1.4,0.1-1.9,0.3c-0.5,0.2-0.9,0.5-1.2,0.9
			c-0.3,0.3-0.5,0.7-0.7,1.1c-0.2,0.4-0.3,0.8-0.3,1.1H472.1z"/>
		<path d="M487.6,113.5c0-0.6-0.3-1.1-0.8-1.4c-0.5-0.3-1.2-0.5-2-0.5c-0.6,0-1.1,0.1-1.6,0.3c-0.5,0.2-0.7,0.6-0.7,1
			c0,0.5,0.2,0.9,0.7,1.2c0.5,0.3,1.1,0.4,1.8,0.6c0.7,0.1,1.5,0.3,2.3,0.4s1.6,0.3,2.3,0.7c0.7,0.3,1.3,0.7,1.8,1.3
			c0.5,0.6,0.7,1.4,0.7,2.4c0,0.5-0.1,1.1-0.3,1.7c-0.2,0.6-0.6,1.2-1.1,1.7c-0.5,0.5-1.2,1-2.2,1.3c-0.9,0.3-2.1,0.5-3.5,0.5
			c-0.9,0-1.8-0.1-2.6-0.2s-1.5-0.4-2-0.8c-0.6-0.4-1.1-0.9-1.4-1.5c-0.4-0.6-0.6-1.4-0.7-2.3l4.2-0.1c0,0.8,0.3,1.3,0.9,1.5
			c0.5,0.3,1.1,0.4,1.8,0.4c0.3,0,0.5,0,0.9-0.1c0.3,0,0.6-0.1,0.8-0.2c0.3-0.1,0.5-0.3,0.6-0.5c0.2-0.2,0.2-0.5,0.2-0.8
			c0-0.5-0.2-0.9-0.7-1.1c-0.4-0.2-1-0.4-1.7-0.5c-0.7-0.1-1.4-0.3-2.2-0.4c-0.8-0.1-1.5-0.4-2.2-0.7c-0.7-0.3-1.2-0.8-1.7-1.4
			c-0.4-0.6-0.7-1.4-0.7-2.5c0-0.6,0.1-1.2,0.4-1.8c0.2-0.6,0.6-1.1,1.1-1.6c0.5-0.5,1.2-0.9,2-1.1s1.8-0.4,2.9-0.4
			c2,0,3.6,0.4,4.8,1.2c1.2,0.8,1.9,2,2,3.7L487.6,113.5z"/>
		<path d="M504.2,122.2L504.2,122.2c-0.5,0.8-1.1,1.4-1.9,1.8c-0.8,0.4-1.8,0.6-3,0.6c-0.6,0-1.2-0.1-1.9-0.2
			c-0.6-0.2-1.2-0.4-1.7-0.8c-0.5-0.4-0.9-0.9-1.3-1.5s-0.5-1.4-0.5-2.3c0-1,0.2-1.8,0.6-2.4c0.4-0.6,1-1.1,1.7-1.5
			c0.7-0.4,1.6-0.6,2.7-0.8c1-0.1,2.2-0.2,3.5-0.2h1.7v-0.6c0-0.9-0.2-1.6-0.6-2.1c-0.4-0.5-1.1-0.7-2.1-0.7c-0.9,0-1.6,0.2-2,0.6
			c-0.4,0.4-0.7,0.8-0.7,1.4h-4.1c0-0.7,0.2-1.3,0.5-1.9c0.3-0.6,0.7-1.2,1.3-1.6c0.6-0.5,1.3-0.8,2.2-1.1c0.9-0.3,2-0.4,3.2-0.4
			c1.3,0,2.3,0.1,3.2,0.4s1.5,0.7,2,1.2c0.5,0.5,0.9,1.1,1,1.9c0.2,0.7,0.3,1.5,0.3,2.4v7.5c0,0.4,0,0.8,0.1,1.3
			c0,0.4,0.1,0.8,0.2,1.1h-3.9L504.2,122.2z M504.1,117.5h-1.2c-0.6,0-1.1,0-1.7,0.1s-1,0.2-1.5,0.3c-0.4,0.2-0.8,0.4-1,0.7
			c-0.3,0.3-0.4,0.7-0.4,1.1c0,0.7,0.2,1.3,0.7,1.5c0.5,0.3,1,0.4,1.8,0.4c0.4,0,0.8-0.1,1.2-0.2c0.4-0.1,0.7-0.3,1.1-0.6
			c0.3-0.3,0.6-0.6,0.8-1c0.2-0.4,0.3-0.9,0.3-1.5V117.5z"/>
		<path d="M522.7,108.9h4.1v14.2c0,1.2-0.2,2.2-0.5,3.2c-0.3,1-0.8,1.8-1.5,2.5c-0.7,0.7-1.6,1.2-2.7,1.6c-1.1,0.4-2.4,0.6-4,0.6
			c-2.2,0-4-0.4-5.2-1.2c-1.3-0.8-2.1-1.9-2.4-3.3l4.2-0.6c0.2,0.6,0.6,1.1,1.2,1.4s1.4,0.4,2.3,0.4c1.6,0,2.7-0.3,3.4-1
			s1.1-1.8,1.1-3.5v-1.6l0,0c-0.5,1-1.2,1.7-2,2.2s-1.9,0.7-3,0.7c-1,0-1.9-0.2-2.8-0.5c-0.9-0.3-1.6-0.8-2.3-1.5
			c-0.7-0.7-1.2-1.5-1.6-2.5c-0.4-1-0.6-2.1-0.6-3.3c0-1.1,0.2-2.1,0.5-3.1c0.4-1,0.9-1.8,1.5-2.6c0.6-0.7,1.4-1.3,2.3-1.8
			c0.9-0.4,1.9-0.7,3-0.7c1.2,0,2.2,0.3,3,0.8c0.8,0.5,1.4,1.2,1.8,2h0V108.9z M522.7,116.4c0-1.4-0.3-2.5-1-3.2
			c-0.7-0.7-1.7-1.1-3-1.1c-0.6,0-1.1,0.1-1.5,0.3c-0.5,0.2-0.9,0.5-1.2,0.9s-0.6,0.8-0.8,1.4c-0.2,0.5-0.3,1.1-0.3,1.6
			c0,0.9,0.1,1.7,0.4,2.3s0.6,1,1,1.4c0.4,0.3,0.8,0.6,1.3,0.7s0.9,0.2,1.3,0.2c0.3,0,0.6-0.1,1.1-0.2c0.4-0.1,0.8-0.3,1.2-0.6
			c0.4-0.3,0.8-0.8,1-1.4S522.7,117.4,522.7,116.4z"/>
		<path d="M533.6,117.7c0,0.5,0.1,0.9,0.3,1.4c0.2,0.4,0.4,0.8,0.8,1.2c0.3,0.3,0.8,0.6,1.3,0.8c0.5,0.2,1.2,0.3,1.9,0.3
			c1.6,0,2.7-0.6,3.3-1.8l4,1c-0.6,1.4-1.5,2.5-2.7,3.1s-2.8,1-4.7,1c-1.3,0-2.5-0.2-3.6-0.6c-1-0.4-1.9-0.9-2.6-1.6
			c-0.7-0.7-1.3-1.5-1.7-2.5c-0.4-1-0.6-2.1-0.6-3.3c0-1.2,0.2-2.4,0.6-3.4c0.4-1,1-1.9,1.7-2.6c0.7-0.7,1.6-1.3,2.6-1.6
			s2.2-0.6,3.4-0.6c2.6,0,4.6,0.7,5.9,2.1c1.3,1.4,2,3.4,2,5.9v1.2H533.6z M541,114.9c0-0.4-0.1-0.8-0.2-1.2
			c-0.1-0.4-0.3-0.8-0.5-1.1c-0.3-0.3-0.6-0.6-1-0.8c-0.4-0.2-1-0.3-1.6-0.3c-0.7,0-1.4,0.1-1.9,0.3c-0.5,0.2-0.9,0.5-1.2,0.9
			c-0.3,0.3-0.5,0.7-0.7,1.1c-0.2,0.4-0.3,0.8-0.3,1.1H541z"/>
		<path d="M375.1,132.3h4.5v22.3h-4.5V132.3z"/>
		<path d="M393.5,145.3c0-0.5-0.1-1-0.2-1.4c-0.2-0.4-0.4-0.7-0.6-0.9c-0.3-0.2-0.5-0.4-0.9-0.5c-0.3-0.1-0.7-0.1-1-0.1
			c-0.8,0-1.6,0.3-2.1,1c-0.6,0.7-0.9,1.5-0.9,2.6v8.7h-4.3v-15.4h4.1v2h0.1c0.7-0.9,1.4-1.6,2.2-1.9c0.8-0.3,1.7-0.5,2.5-0.5
			c0.9,0,1.7,0.1,2.4,0.4c0.7,0.3,1.2,0.7,1.7,1.1c0.4,0.5,0.8,1,1,1.7c0.2,0.7,0.3,1.4,0.3,2.1v10.5h-4.3V145.3z"/>
		<path d="M399.8,139.2h2.3v-4.4h4.3v4.4h3.6v3.4h-3.6v7.4c0,0.5,0.1,0.9,0.4,1.1c0.3,0.2,0.7,0.3,1.3,0.3c0.4,0,0.8,0,1.3-0.1v3.4
			c-0.4,0-0.8,0.1-1.3,0.1c-0.5,0-0.9,0-1.3,0c-0.7,0-1.3-0.1-1.9-0.2c-0.6-0.1-1.1-0.4-1.5-0.7c-0.4-0.3-0.7-0.8-1-1.3
			c-0.2-0.6-0.3-1.3-0.3-2.1v-7.9h-2.3V139.2z"/>
		<path d="M415.6,148c0,0.5,0.1,0.9,0.3,1.4c0.2,0.4,0.4,0.8,0.8,1.2c0.4,0.3,0.8,0.6,1.3,0.8s1.2,0.3,1.9,0.3
			c1.6,0,2.7-0.6,3.3-1.8l4,1c-0.6,1.4-1.5,2.5-2.7,3.1c-1.2,0.7-2.8,1-4.7,1c-1.3,0-2.5-0.2-3.6-0.6c-1-0.4-1.9-0.9-2.6-1.6
			c-0.7-0.7-1.3-1.5-1.7-2.5c-0.4-1-0.6-2.1-0.6-3.3c0-1.2,0.2-2.4,0.6-3.4c0.4-1,1-1.9,1.7-2.6c0.7-0.7,1.6-1.3,2.6-1.6
			c1-0.4,2.2-0.6,3.4-0.6c2.6,0,4.6,0.7,5.9,2.1c1.3,1.4,2,3.4,2,5.9v1.2H415.6z M423,145.3c0-0.4-0.1-0.8-0.2-1.2
			c-0.1-0.4-0.3-0.8-0.5-1.1c-0.3-0.3-0.6-0.6-1-0.8c-0.4-0.2-1-0.3-1.6-0.3c-0.7,0-1.4,0.1-1.9,0.3c-0.5,0.2-0.9,0.5-1.2,0.9
			c-0.3,0.3-0.5,0.7-0.7,1.1c-0.2,0.4-0.3,0.8-0.3,1.1H423z"/>
		<path d="M430,139.2h4.2v3.9h0.1c0.2-0.5,0.4-1,0.7-1.6c0.3-0.5,0.7-1,1.1-1.4c0.4-0.4,0.9-0.7,1.4-1c0.5-0.3,1.1-0.4,1.7-0.4h0.4
			v4.2h-0.4c-0.7,0-1.3,0.1-1.9,0.4c-0.6,0.2-1.1,0.6-1.5,1c-0.4,0.4-0.8,0.9-1,1.5c-0.3,0.6-0.4,1.2-0.4,1.9v6.9H430V139.2z"/>
		<path d="M451.6,145.3c0-0.5-0.1-1-0.2-1.4c-0.2-0.4-0.4-0.7-0.6-0.9c-0.3-0.2-0.5-0.4-0.9-0.5c-0.3-0.1-0.7-0.1-1-0.1
			c-0.8,0-1.6,0.3-2.1,1c-0.6,0.7-0.9,1.5-0.9,2.6v8.7h-4.3v-15.4h4.1v2h0.1c0.7-0.9,1.4-1.6,2.2-1.9c0.8-0.3,1.7-0.5,2.5-0.5
			c0.9,0,1.7,0.1,2.4,0.4c0.7,0.3,1.2,0.7,1.7,1.1c0.4,0.5,0.8,1,1,1.7c0.2,0.7,0.3,1.4,0.3,2.1v10.5h-4.3V145.3z"/>
		<path d="M468.2,152.6L468.2,152.6c-0.5,0.8-1.1,1.4-1.9,1.8c-0.8,0.4-1.8,0.6-3,0.6c-0.6,0-1.2-0.1-1.9-0.2
			c-0.6-0.2-1.2-0.4-1.7-0.8c-0.5-0.4-0.9-0.9-1.3-1.5c-0.3-0.6-0.5-1.4-0.5-2.3c0-1,0.2-1.8,0.6-2.4c0.4-0.6,1-1.1,1.7-1.5
			c0.7-0.4,1.6-0.6,2.7-0.8c1-0.1,2.2-0.2,3.5-0.2h1.7v-0.6c0-0.9-0.2-1.6-0.6-2.1c-0.4-0.5-1.1-0.7-2.1-0.7c-0.9,0-1.6,0.2-2,0.6
			c-0.4,0.4-0.7,0.8-0.7,1.4h-4.1c0-0.7,0.2-1.3,0.5-1.9c0.3-0.6,0.7-1.2,1.3-1.6c0.6-0.5,1.3-0.8,2.2-1.1c0.9-0.3,2-0.4,3.2-0.4
			c1.3,0,2.3,0.1,3.2,0.4s1.5,0.7,2,1.2c0.5,0.5,0.9,1.1,1,1.9s0.3,1.5,0.3,2.4v7.5c0,0.4,0,0.8,0.1,1.3c0,0.4,0.1,0.8,0.2,1.1h-3.9
			L468.2,152.6z M468.1,147.9h-1.2c-0.6,0-1.1,0-1.7,0.1s-1,0.2-1.5,0.3c-0.4,0.2-0.8,0.4-1,0.7c-0.3,0.3-0.4,0.7-0.4,1.1
			c0,0.7,0.2,1.3,0.7,1.5s1,0.4,1.8,0.4c0.4,0,0.8-0.1,1.2-0.2c0.4-0.1,0.7-0.3,1.1-0.6c0.3-0.3,0.6-0.6,0.8-1
			c0.2-0.4,0.3-0.9,0.3-1.5V147.9z"/>
		<path d="M474,139.2h2.3v-4.4h4.3v4.4h3.6v3.4h-3.6v7.4c0,0.5,0.1,0.9,0.4,1.1c0.3,0.2,0.7,0.3,1.3,0.3c0.4,0,0.8,0,1.3-0.1v3.4
			c-0.3,0-0.8,0.1-1.3,0.1c-0.5,0-0.9,0-1.3,0c-0.7,0-1.3-0.1-1.9-0.2c-0.6-0.1-1.1-0.4-1.5-0.7c-0.4-0.3-0.7-0.8-1-1.3
			c-0.2-0.6-0.3-1.3-0.3-2.1v-7.9H474V139.2z"/>
		<path d="M486.1,134.5c0-0.3,0.1-0.6,0.2-1c0.1-0.3,0.3-0.6,0.5-0.8c0.2-0.2,0.5-0.4,0.8-0.6c0.3-0.1,0.6-0.2,1-0.2
			c0.3,0,0.6,0.1,0.9,0.2c0.3,0.1,0.6,0.3,0.8,0.5c0.2,0.2,0.4,0.5,0.6,0.8c0.1,0.3,0.2,0.6,0.2,1c0,0.3-0.1,0.6-0.2,1
			c-0.1,0.3-0.3,0.6-0.5,0.8c-0.2,0.2-0.5,0.4-0.8,0.6c-0.3,0.1-0.6,0.2-1,0.2c-0.4,0-0.7-0.1-1-0.2c-0.3-0.2-0.6-0.3-0.8-0.6
			c-0.2-0.2-0.4-0.5-0.5-0.8C486.2,135.1,486.1,134.8,486.1,134.5z M486.5,139.2h4.3v15.4h-4.3V139.2z"/>
		<path d="M510.2,146.9c0,1-0.2,2-0.5,3c-0.4,1-0.9,1.9-1.6,2.6c-0.7,0.8-1.6,1.4-2.7,1.8c-1.1,0.5-2.3,0.7-3.7,0.7
			c-1.5,0-2.8-0.2-3.9-0.7s-1.9-1.1-2.6-1.8c-0.7-0.8-1.2-1.6-1.5-2.6c-0.3-1-0.5-2-0.5-3c0-1,0.2-2,0.5-3c0.4-1,0.9-1.8,1.6-2.6
			c0.7-0.8,1.6-1.4,2.7-1.8c1.1-0.5,2.3-0.7,3.7-0.7c1.5,0,2.8,0.2,3.8,0.7c1.1,0.5,2,1.1,2.7,1.8c0.7,0.8,1.2,1.6,1.5,2.6
			C510,144.9,510.2,145.9,510.2,146.9z M497.5,146.9c0,1.4,0.3,2.5,1,3.4c0.7,0.9,1.7,1.3,3.1,1.3c1.4,0,2.5-0.4,3.1-1.3
			c0.7-0.9,1-2,1-3.4s-0.3-2.5-1-3.4c-0.7-0.9-1.7-1.3-3.1-1.3c-1.4,0-2.5,0.4-3.1,1.3C497.8,144.4,497.5,145.5,497.5,146.9z"/>
		<path d="M522.5,145.3c0-0.5-0.1-1-0.2-1.4s-0.4-0.7-0.6-0.9c-0.3-0.2-0.5-0.4-0.9-0.5c-0.3-0.1-0.7-0.1-1-0.1
			c-0.8,0-1.6,0.3-2.1,1c-0.6,0.7-0.9,1.5-0.9,2.6v8.7h-4.3v-15.4h4.1v2h0.1c0.7-0.9,1.4-1.6,2.2-1.9c0.8-0.3,1.7-0.5,2.5-0.5
			c0.9,0,1.7,0.1,2.4,0.4c0.7,0.3,1.2,0.7,1.7,1.1c0.4,0.5,0.8,1,1,1.7c0.2,0.7,0.3,1.4,0.3,2.1v10.5h-4.3V145.3z"/>
		<path d="M539.4,152.6L539.4,152.6c-0.5,0.8-1.1,1.4-1.9,1.8c-0.8,0.4-1.8,0.6-3,0.6c-0.6,0-1.2-0.1-1.9-0.2
			c-0.6-0.2-1.2-0.4-1.7-0.8c-0.5-0.4-0.9-0.9-1.3-1.5c-0.3-0.6-0.5-1.4-0.5-2.3c0-1,0.2-1.8,0.6-2.4c0.4-0.6,1-1.1,1.7-1.5
			c0.7-0.4,1.6-0.6,2.7-0.8c1-0.1,2.2-0.2,3.5-0.2h1.7v-0.6c0-0.9-0.2-1.6-0.6-2.1c-0.4-0.5-1.1-0.7-2.1-0.7c-0.9,0-1.6,0.2-2,0.6
			c-0.4,0.4-0.7,0.8-0.7,1.4h-4.1c0-0.7,0.2-1.3,0.5-1.9c0.3-0.6,0.7-1.2,1.3-1.6c0.6-0.5,1.3-0.8,2.2-1.1c0.9-0.3,2-0.4,3.2-0.4
			c1.3,0,2.3,0.1,3.2,0.4c0.8,0.3,1.5,0.7,2,1.2c0.5,0.5,0.9,1.1,1,1.9c0.2,0.7,0.3,1.5,0.3,2.4v7.5c0,0.4,0,0.8,0.1,1.3
			c0,0.4,0.1,0.8,0.2,1.1h-3.9L539.4,152.6z M539.2,147.9H538c-0.6,0-1.1,0-1.7,0.1s-1,0.2-1.5,0.3c-0.4,0.2-0.8,0.4-1,0.7
			c-0.3,0.3-0.4,0.7-0.4,1.1c0,0.7,0.2,1.3,0.7,1.5s1,0.4,1.8,0.4c0.4,0,0.8-0.1,1.2-0.2c0.4-0.1,0.7-0.3,1.1-0.6
			c0.3-0.3,0.6-0.6,0.8-1c0.2-0.4,0.3-0.9,0.3-1.5V147.9z"/>
		<path d="M546.6,131.5h4.3v23.1h-4.3V131.5z"/>
		<path d="M386.7,180.3h-7.8l-1.4,4.7h-4.8l8-22.3h4.7L393,185h-4.9L386.7,180.3z M382.8,168.1L382.8,168.1l-2.9,8.6h5.7
			L382.8,168.1z"/>
		<path d="M394.2,164.8c0-0.3,0.1-0.6,0.2-1c0.1-0.3,0.3-0.6,0.5-0.8c0.2-0.2,0.5-0.4,0.8-0.6c0.3-0.1,0.6-0.2,1-0.2
			c0.3,0,0.6,0.1,0.9,0.2c0.3,0.1,0.6,0.3,0.8,0.5s0.4,0.5,0.6,0.8c0.1,0.3,0.2,0.6,0.2,1c0,0.3-0.1,0.6-0.2,1
			c-0.1,0.3-0.3,0.6-0.5,0.8c-0.2,0.2-0.5,0.4-0.8,0.6c-0.3,0.1-0.6,0.2-1,0.2c-0.4,0-0.7-0.1-1-0.2c-0.3-0.2-0.6-0.3-0.8-0.6
			c-0.2-0.2-0.4-0.5-0.5-0.8C394.2,165.4,394.2,165.1,394.2,164.8z M394.5,169.6h4.3V185h-4.3V169.6z"/>
		<path d="M402.5,169.6h4.2v3.9h0.1c0.2-0.5,0.4-1,0.7-1.6c0.3-0.5,0.7-1,1.1-1.4c0.4-0.4,0.9-0.7,1.4-1c0.5-0.3,1.1-0.4,1.7-0.4
			h0.4v4.2h-0.4c-0.7,0-1.3,0.1-1.9,0.4c-0.6,0.2-1.1,0.6-1.5,1c-0.4,0.4-0.8,0.9-1,1.5c-0.3,0.6-0.4,1.2-0.4,1.9v6.9h-4.3V169.6z"
			/>
		<path d="M413.8,169.6h4.1v2.1h0.1c0.6-0.9,1.4-1.6,2.2-2c0.9-0.4,1.8-0.6,2.8-0.6c1.1,0,2,0.2,2.9,0.7c0.9,0.4,1.6,1,2.3,1.8
			c0.6,0.8,1.1,1.6,1.5,2.6c0.3,1,0.5,2,0.5,3.1s-0.2,2.1-0.5,3.1c-0.3,1-0.8,1.8-1.4,2.6s-1.4,1.3-2.2,1.8c-0.9,0.4-1.9,0.7-3,0.7
			c-1,0-1.9-0.2-2.7-0.5c-0.8-0.4-1.5-1-2.2-2h-0.1v8.6h-4.3V169.6z M425.7,177.2c0-0.6-0.1-1.2-0.2-1.7s-0.4-1-0.7-1.4
			c-0.3-0.4-0.7-0.7-1.2-1c-0.5-0.2-1-0.4-1.7-0.4c-0.6,0-1.2,0.1-1.6,0.4c-0.5,0.2-0.9,0.6-1.2,1c-0.3,0.4-0.6,0.9-0.8,1.4
			c-0.2,0.6-0.3,1.2-0.3,1.8c0,0.6,0.1,1.1,0.2,1.7c0.2,0.5,0.4,1,0.8,1.4c0.3,0.4,0.8,0.7,1.3,1c0.5,0.3,1.1,0.4,1.8,0.4
			c0.6,0,1.1-0.1,1.6-0.4c0.5-0.3,0.9-0.6,1.2-1c0.3-0.4,0.5-0.9,0.7-1.5C425.7,178.3,425.7,177.8,425.7,177.2z"/>
		<path d="M448.3,177.3c0,1-0.2,2-0.5,3c-0.4,1-0.9,1.9-1.6,2.6c-0.7,0.8-1.6,1.4-2.7,1.8c-1.1,0.5-2.3,0.7-3.7,0.7
			c-1.5,0-2.8-0.2-3.9-0.7c-1.1-0.5-1.9-1.1-2.6-1.8c-0.7-0.8-1.2-1.6-1.5-2.6c-0.3-1-0.5-2-0.5-3c0-1,0.2-2,0.5-3
			c0.4-1,0.9-1.8,1.6-2.6c0.7-0.8,1.6-1.4,2.7-1.8c1.1-0.5,2.3-0.7,3.7-0.7c1.5,0,2.8,0.2,3.8,0.7c1.1,0.5,2,1.1,2.7,1.8
			c0.7,0.8,1.2,1.6,1.5,2.6C448.1,175.3,448.3,176.2,448.3,177.3z M435.6,177.3c0,1.4,0.3,2.5,1,3.4c0.7,0.9,1.7,1.3,3.1,1.3
			s2.5-0.4,3.1-1.3c0.7-0.9,1-2,1-3.4c0-1.4-0.3-2.5-1-3.4c-0.7-0.9-1.7-1.3-3.1-1.3s-2.5,0.4-3.1,1.3
			C435.9,174.8,435.6,175.9,435.6,177.3z"/>
		<path d="M450.2,169.6h4.2v3.9h0.1c0.2-0.5,0.4-1,0.7-1.6c0.3-0.5,0.7-1,1.1-1.4c0.4-0.4,0.9-0.7,1.4-1c0.5-0.3,1.1-0.4,1.7-0.4
			h0.4v4.2h-0.4c-0.7,0-1.3,0.1-1.9,0.4c-0.6,0.2-1.1,0.6-1.5,1c-0.4,0.4-0.8,0.9-1,1.5c-0.3,0.6-0.4,1.2-0.4,1.9v6.9h-4.3V169.6z"
			/>
		<path d="M461.2,169.6h2.3v-4.4h4.3v4.4h3.6v3.4h-3.6v7.4c0,0.5,0.1,0.9,0.4,1.1c0.3,0.2,0.7,0.3,1.3,0.3c0.4,0,0.8,0,1.3-0.1v3.4
			c-0.3,0-0.8,0.1-1.3,0.1c-0.5,0-0.9,0-1.3,0c-0.7,0-1.3-0.1-1.9-0.2c-0.6-0.1-1.1-0.4-1.5-0.7c-0.4-0.3-0.7-0.8-1-1.3
			c-0.2-0.6-0.3-1.3-0.3-2.1V173h-2.3V169.6z"/>
	</g>
	<path d="M48.6,185h24.2v-44.8l47.6-52.5L103,70.2l-42.3,46.6L18.4,70.2L1,87.6l47.6,52.5L48.6,185z"/>
	<path d="M242.5,185l-20-20c8.2-10.1,13.1-22.9,13.1-36.9c0-32.2-26.1-58.4-58.4-58.4s-58.4,26.1-58.4,58.4s26.1,58.4,58.4,58.4
		c9.3,0,18.2-2.2,26-6.1l22,22L242.5,185z M143.3,128.1c0-18.7,15.2-33.9,33.9-33.9s33.9,15.2,33.9,33.9S196,162,177.3,162
		S143.3,146.8,143.3,128.1z"/>
	<g>
		<g>
			<path d="M309.2,185h-57.4V71.3H303c23.3,0,37.1,11.2,37.1,30c0,10.1-4.1,18-11.8,23.2c11.6,4.4,18.7,14.7,18.7,27.5
				C347.1,171.1,331.2,185,309.2,185z M276.1,163.2h30.2c14.3,0,15.9-9.2,15.9-13.1c0-4.9-2.2-13.2-17.2-13.2h-28.9V163.2z
				 M276.1,116.4h25.6c6.5,0,14-3.2,14-12.1c0-9.2-8.1-11.2-14.9-11.2h-24.7V116.4z"/>
		</g>
	</g>
</g>
</svg>
