<?xml version="1.0" encoding="utf-8"?>
<!-- Generator: Adobe Illustrator 19.2.1, SVG Export Plug-In . SVG Version: 6.00 Build 0)  -->
<svg version="1.1" id="Calque_1" xmlns="http://www.w3.org/2000/svg" xmlns:xlink="http://www.w3.org/1999/xlink" x="0px" y="0px"
	 width="152px" height="66px" viewBox="0 0 152 66" style="enable-background:new 0 0 152 66;" xml:space="preserve">
<style type="text/css">
	.st0{fill:#0055FF;}
</style>
<g>
	<g>
		<rect x="134.1" y="-4" transform="matrix(0.7071 -0.7071 0.7071 0.7071 30.1899 98.7957)" width="0.6" height="33.9"/>
		<rect x="110.1" y="20" transform="matrix(0.7071 -0.7071 0.7071 0.7071 6.1898 88.8666)" width="0.6" height="33.9"/>
	</g>
	<g>
		<path d="M108.7,22h3.9v1c-0.2,0.4-0.4,0.8-0.6,1.2c-0.2,0.4-0.4,0.9-0.6,1.4s-0.3,0.9-0.4,1.4c-0.1,0.4-0.2,0.8-0.3,1.2h-1.3
			c0.1-0.3,0.2-0.7,0.3-1.2c0.1-0.4,0.3-0.9,0.5-1.4s0.4-0.9,0.6-1.3s0.4-0.8,0.6-1.2h-2.6L108.7,22L108.7,22z"/>
		<path d="M113.3,22h3.3v1h-2.3l-0.1,1.4c0.2-0.1,0.3-0.2,0.5-0.2c0.1,0,0.3-0.1,0.5-0.1s0.4,0,0.7,0.1c0.2,0.1,0.4,0.2,0.6,0.3
			c0.2,0.2,0.3,0.4,0.4,0.6s0.2,0.5,0.2,0.9c0,0.3,0,0.5-0.1,0.8s-0.2,0.5-0.4,0.7c-0.2,0.2-0.4,0.4-0.7,0.5
			c-0.3,0.1-0.6,0.2-0.9,0.2c-0.5,0-1-0.1-1.3-0.3c-0.3-0.2-0.6-0.6-0.7-1.1l1.2-0.1c0,0.2,0.1,0.3,0.2,0.4s0.3,0.2,0.6,0.2
			c0.3,0,0.5-0.1,0.6-0.3c0.1-0.2,0.2-0.5,0.2-0.8s-0.1-0.5-0.2-0.7s-0.4-0.3-0.7-0.3c-0.1,0-0.3,0-0.4,0.1s-0.3,0.1-0.4,0.2h-0.9
			L113.3,22z"/>
		<path d="M123,26.8h-2.1l-0.4,1.3h-1.3l2.2-6.1h1.3l2.1,6.1h-1.3L123,26.8z M121.9,23.4L121.9,23.4l-0.8,2.4h1.6L121.9,23.4z"/>
		<path d="M126.4,23.7L126.4,23.7V28h-1.2v-6h1.4l2.6,4.2l0,0V22h1.2v6.1H129L126.4,23.7z"/>
		<path d="M134.3,23.6c0-0.2-0.1-0.4-0.3-0.5s-0.4-0.2-0.7-0.2s-0.5,0.1-0.7,0.2s-0.3,0.3-0.3,0.5c0,0.1,0,0.2,0.1,0.3
			c0,0.1,0.1,0.2,0.2,0.2c0.1,0.1,0.2,0.1,0.4,0.2s0.3,0.1,0.6,0.2s0.6,0.2,0.8,0.3c0.2,0.1,0.4,0.2,0.6,0.4
			c0.2,0.1,0.3,0.3,0.4,0.5c0.1,0.2,0.1,0.4,0.1,0.7c0,0.3-0.1,0.5-0.2,0.8c-0.1,0.2-0.3,0.4-0.5,0.6s-0.4,0.3-0.7,0.4
			s-0.6,0.1-1,0.1s-0.8-0.1-1.1-0.2s-0.5-0.2-0.7-0.4c-0.2-0.2-0.3-0.4-0.4-0.6c-0.1-0.2-0.1-0.5-0.2-0.7h1.2c0,0.3,0.1,0.6,0.3,0.7
			s0.5,0.2,0.8,0.2s0.6-0.1,0.8-0.2s0.3-0.3,0.3-0.6c0-0.2-0.1-0.4-0.3-0.6c-0.2-0.1-0.6-0.2-1-0.4c-0.3-0.1-0.6-0.2-0.8-0.3
			c-0.2-0.1-0.4-0.2-0.6-0.3c-0.2-0.1-0.3-0.3-0.3-0.5c-0.1-0.2-0.1-0.4-0.1-0.7c0-0.3,0-0.5,0.1-0.7s0.2-0.4,0.4-0.6
			s0.4-0.3,0.7-0.4s0.6-0.2,1-0.2s0.7,0,0.9,0.1c0.3,0.1,0.5,0.2,0.7,0.4c0.2,0.2,0.3,0.3,0.4,0.5c0.1,0.2,0.1,0.4,0.1,0.6
			L134.3,23.6z"/>
	</g>
	<path class="st0" d="M13,25.1c3.7,0,6.8,3,6.8,6.8s-3,6.8-6.8,6.8s-6.8-3-6.8-6.8S9.2,25.1,13,25.1"/>
	<g>
		<path d="M78.3,42.6h-1.6l-0.3,0.9h-1L77,39h1l1.6,4.5h-1L78.3,42.6z M77.5,40.1L77.5,40.1l-0.6,1.7h1.2L77.5,40.1z"/>
		<path d="M80.5,42.2c0,0.1,0,0.2,0.1,0.3c0,0.1,0.1,0.2,0.2,0.2c0.1,0.1,0.2,0.1,0.3,0.2c0.1,0,0.2,0.1,0.4,0.1
			c0.3,0,0.5-0.1,0.7-0.4l0.8,0.2c-0.1,0.3-0.3,0.5-0.6,0.6c-0.2,0.1-0.6,0.2-1,0.2c-0.3,0-0.5,0-0.7-0.1s-0.4-0.2-0.5-0.3
			s-0.3-0.3-0.3-0.5c-0.1-0.2-0.1-0.4-0.1-0.7s0-0.5,0.1-0.7s0.2-0.4,0.3-0.5c0.1-0.1,0.3-0.3,0.5-0.3c0.2-0.1,0.4-0.1,0.7-0.1
			c0.5,0,0.9,0.1,1.2,0.4c0.3,0.3,0.4,0.7,0.4,1.2v0.2C83,42.2,80.5,42.2,80.5,42.2z M82,41.6c0-0.1,0-0.2,0-0.2
			c0-0.1-0.1-0.2-0.1-0.2S81.8,41,81.7,41c-0.1,0-0.2-0.1-0.3-0.1c-0.2,0-0.3,0-0.4,0.1c-0.1,0-0.2,0.1-0.2,0.2
			c-0.1,0.1-0.1,0.1-0.1,0.2c0,0.1-0.1,0.2-0.1,0.2S82,41.6,82,41.6z M81.5,39h0.9l-0.8,0.8H81L81.5,39z"/>
		<path d="M83.4,40.4h0.8v0.8l0,0c0-0.1,0.1-0.2,0.1-0.3c0.1-0.1,0.1-0.2,0.2-0.3s0.2-0.2,0.3-0.2c0.1-0.1,0.2-0.1,0.3-0.1h0.1v0.8
			h-0.1c-0.1,0-0.3,0-0.4,0.1c-0.1,0-0.2,0.1-0.3,0.2c-0.1,0.1-0.2,0.2-0.2,0.3c-0.1,0.1-0.1,0.2-0.1,0.4v1.4h-0.9v-3.1H83.4z"/>
		<path d="M88.9,41.9c0,0.2,0,0.4-0.1,0.6c-0.1,0.2-0.2,0.4-0.3,0.5c-0.1,0.2-0.3,0.3-0.5,0.4c-0.2,0.1-0.5,0.1-0.7,0.1
			c-0.3,0-0.6,0-0.8-0.1c-0.2-0.1-0.4-0.2-0.5-0.4s-0.2-0.3-0.3-0.5c-0.1-0.2-0.1-0.4-0.1-0.6c0-0.2,0-0.4,0.1-0.6
			c0.1-0.2,0.2-0.4,0.3-0.5c0.1-0.2,0.3-0.3,0.5-0.4c0.2-0.1,0.5-0.1,0.7-0.1c0.3,0,0.6,0,0.8,0.1c0.2,0.1,0.4,0.2,0.5,0.4
			s0.2,0.3,0.3,0.5C88.9,41.5,88.9,41.7,88.9,41.9z M86.3,41.9c0,0.3,0.1,0.5,0.2,0.7s0.3,0.3,0.6,0.3s0.5-0.1,0.6-0.3
			s0.2-0.4,0.2-0.7s-0.1-0.5-0.2-0.7s-0.3-0.3-0.6-0.3s-0.5,0.1-0.6,0.3S86.3,41.7,86.3,41.9z"/>
		<path d="M89.3,40.4h0.8v0.4l0,0c0.1-0.2,0.3-0.3,0.5-0.4c0.2-0.1,0.4-0.1,0.6-0.1s0.4,0,0.6,0.1s0.3,0.2,0.5,0.4
			c0.1,0.2,0.2,0.3,0.3,0.5c0.1,0.2,0.1,0.4,0.1,0.6c0,0.2,0,0.4-0.1,0.6c-0.1,0.2-0.2,0.4-0.3,0.5c-0.1,0.2-0.3,0.3-0.5,0.4
			c-0.2,0.1-0.4,0.1-0.6,0.1s-0.4,0-0.5-0.1c-0.2-0.1-0.3-0.2-0.5-0.4l0,0v1.7h-0.9V40.4z M91.7,41.9c0-0.1,0-0.2,0-0.4
			c0-0.1-0.1-0.2-0.1-0.3c-0.1-0.1-0.1-0.2-0.2-0.2c-0.2,0-0.3,0-0.4,0s-0.2,0-0.3,0.1c-0.1,0-0.2,0.1-0.2,0.2
			c-0.1,0.1-0.1,0.2-0.2,0.3c0,0.1-0.1,0.2-0.1,0.4c0,0.1,0,0.2,0,0.3s0.1,0.2,0.2,0.3s0.2,0.2,0.3,0.2s0.2,0.1,0.4,0.1
			c0.1,0,0.2,0,0.3-0.1c0.1-0.1,0.2-0.1,0.2-0.2c0.1-0.1,0.1-0.2,0.1-0.3C91.7,42.2,91.7,42,91.7,41.9z"/>
		<path d="M96.4,41.9c0,0.2,0,0.4-0.1,0.6c-0.1,0.2-0.2,0.4-0.3,0.5c-0.1,0.2-0.3,0.3-0.5,0.4c-0.2,0.1-0.5,0.1-0.7,0.1
			c-0.3,0-0.6,0-0.8-0.1c-0.2-0.1-0.4-0.2-0.5-0.4s-0.2-0.3-0.3-0.5C93,42.4,93,42.1,93,41.9c0-0.2,0-0.4,0.1-0.6
			c0.1-0.2,0.2-0.4,0.3-0.5c0.1-0.2,0.3-0.3,0.5-0.4c0.2-0.1,0.5-0.1,0.7-0.1c0.3,0,0.6,0,0.8,0.1c0.2,0.1,0.4,0.2,0.5,0.4
			s0.2,0.3,0.3,0.5C96.4,41.5,96.4,41.7,96.4,41.9z M93.9,41.9c0,0.3,0.1,0.5,0.2,0.7s0.3,0.3,0.6,0.3c0.3,0,0.5-0.1,0.6-0.3
			s0.2-0.4,0.2-0.7s-0.1-0.5-0.2-0.7C95.2,41.1,95,41,94.7,41s-0.5,0.1-0.6,0.3C94,41.4,93.9,41.7,93.9,41.9z"/>
		<path d="M96.8,40.4h0.8v0.8l0,0c0-0.1,0.1-0.2,0.1-0.3c0.1-0.1,0.1-0.2,0.2-0.3s0.2-0.2,0.3-0.2c0.1-0.1,0.2-0.1,0.3-0.1h0.1v0.8
			h-0.1c-0.1,0-0.3,0-0.4,0.1c-0.1,0-0.2,0.1-0.3,0.2c-0.1,0.1-0.2,0.2-0.2,0.3c-0.1,0.1-0.1,0.2-0.1,0.4v1.4h-0.9v-3.1H96.8z"/>
		<path d="M99.1,40.4h0.5v-0.9h0.9v0.9h0.7v0.7h-0.7v1.5c0,0.1,0,0.2,0.1,0.2s0.1,0.1,0.3,0.1c0.1,0,0.2,0,0.3,0v0.7
			c-0.1,0-0.2,0-0.3,0c-0.1,0-0.2,0-0.3,0c-0.1,0-0.3,0-0.4,0s-0.2-0.1-0.3-0.1c-0.1-0.1-0.1-0.2-0.2-0.3c0-0.1-0.1-0.3-0.1-0.4
			v-1.6h-0.5V40.4z"/>
		<path d="M75.7,45.5c0-0.1,0-0.1,0-0.2c0-0.1,0.1-0.1,0.1-0.2c0,0,0.1-0.1,0.2-0.1s0.1,0,0.2,0s0.1,0,0.2,0s0.1,0.1,0.2,0.1
			c0,0,0.1,0.1,0.1,0.2c0,0.1,0,0.1,0,0.2c0,0.1,0,0.1,0,0.2c0,0.1-0.1,0.1-0.1,0.2c0,0-0.1,0.1-0.2,0.1s-0.1,0-0.2,0s-0.1,0-0.2,0
			s-0.1-0.1-0.2-0.1c0,0-0.1-0.1-0.1-0.2S75.7,45.6,75.7,45.5z M75.7,46.5h0.9v3.1h-0.9V46.5z"/>
		<path d="M79.4,47.7c0-0.1,0-0.2,0-0.3s-0.1-0.1-0.1-0.2c-0.1,0-0.1-0.1-0.2-0.1s-0.1,0-0.2,0c-0.2,0-0.3,0.1-0.4,0.2
			c-0.1,0.1-0.2,0.3-0.2,0.5v1.8h-0.9v-3.1h0.8v0.4l0,0c0.1-0.2,0.3-0.3,0.4-0.4c0.2-0.1,0.3-0.1,0.5-0.1s0.3,0,0.5,0.1
			c0.1,0.1,0.3,0.1,0.3,0.2c0.1,0.1,0.2,0.2,0.2,0.3s0.1,0.3,0.1,0.4v2.1h-0.9L79.4,47.7L79.4,47.7z"/>
		<path d="M80.6,46.5h0.5v-0.9H82v0.9h0.7v0.7H82v1.5c0,0.1,0,0.2,0.1,0.2s0.1,0.1,0.3,0.1c0.1,0,0.2,0,0.3,0v0.7
			c-0.1,0-0.2,0-0.3,0c-0.1,0-0.2,0-0.3,0c-0.1,0-0.3,0-0.4,0s-0.2-0.1-0.3-0.1c-0.1-0.1-0.1-0.2-0.2-0.3c0-0.1-0.1-0.3-0.1-0.4
			v-1.6h-0.5V46.5z"/>
		<path d="M83.8,48.2c0,0.1,0,0.2,0.1,0.3c0,0.1,0.1,0.2,0.2,0.2c0.1,0.1,0.2,0.1,0.3,0.2c0.1,0,0.2,0.1,0.4,0.1
			c0.3,0,0.5-0.1,0.7-0.4l0.8,0.2c-0.1,0.3-0.3,0.5-0.6,0.6c-0.2,0.1-0.6,0.2-1,0.2c-0.3,0-0.5,0-0.7-0.1s-0.4-0.2-0.5-0.3
			s-0.3-0.3-0.3-0.5c-0.1-0.2-0.1-0.4-0.1-0.7s0-0.5,0.1-0.7s0.2-0.4,0.3-0.5c0.1-0.1,0.3-0.3,0.5-0.3c0.2-0.1,0.4-0.1,0.7-0.1
			c0.5,0,0.9,0.1,1.2,0.4c0.3,0.3,0.4,0.7,0.4,1.2v0.2C86.3,48.2,83.8,48.2,83.8,48.2z M85.3,47.7c0-0.1,0-0.2,0-0.2
			c0-0.1-0.1-0.2-0.1-0.2c-0.1-0.1-0.1-0.1-0.2-0.2c-0.1,0-0.2-0.1-0.3-0.1c-0.2,0-0.3,0-0.4,0.1c-0.1,0-0.2,0.1-0.2,0.2
			C84,47.4,84,47.4,84,47.5c0,0.1-0.1,0.2-0.1,0.2H85.3z"/>
		<path d="M86.7,46.5h0.8v0.8l0,0c0-0.1,0.1-0.2,0.1-0.3c0.1-0.1,0.1-0.2,0.2-0.3s0.2-0.2,0.3-0.2c0.1-0.1,0.2-0.1,0.3-0.1h0.1v0.8
			h-0.1c-0.1,0-0.3,0-0.4,0.1c-0.1,0-0.2,0.1-0.3,0.2c-0.1,0.1-0.2,0.2-0.2,0.3s-0.1,0.2-0.1,0.4v1.4h-0.9v-3.1H86.7z"/>
		<path d="M91.1,47.7c0-0.1,0-0.2,0-0.3S91,47.3,91,47.2c-0.1,0-0.1-0.1-0.2-0.1s-0.1,0-0.2,0c-0.2,0-0.3,0.1-0.4,0.2
			c-0.1,0.1-0.2,0.3-0.2,0.5v1.8h-0.9v-3.1h0.8v0.4l0,0c0.1-0.2,0.3-0.3,0.4-0.4c0.2-0.1,0.3-0.1,0.5-0.1s0.3,0,0.5,0.1
			c0.1,0.1,0.3,0.1,0.3,0.2c0.1,0.1,0.2,0.2,0.2,0.3s0.1,0.3,0.1,0.4v2.1H91L91.1,47.7L91.1,47.7z"/>
		<path d="M94.5,49.2L94.5,49.2c-0.1,0.2-0.2,0.3-0.4,0.4c-0.2,0.1-0.4,0.1-0.6,0.1c-0.1,0-0.2,0-0.4,0c-0.1,0-0.2-0.1-0.3-0.2
			c-0.1-0.1-0.2-0.2-0.3-0.3c-0.1-0.1-0.1-0.3-0.1-0.5s0-0.4,0.1-0.5s0.2-0.2,0.3-0.3c0.1-0.1,0.3-0.1,0.5-0.2s0.4,0,0.7,0h0.3v-0.1
			c0-0.2,0-0.3-0.1-0.4c-0.1-0.1-0.2-0.1-0.4-0.1c-0.2,0-0.3,0-0.4,0.1s-0.1,0.2-0.1,0.3h-0.8c0-0.1,0-0.3,0.1-0.4
			c0.1-0.1,0.1-0.2,0.3-0.3s0.3-0.2,0.5-0.2c0.2-0.1,0.4-0.1,0.6-0.1c0.3,0,0.5,0,0.6,0.1c0.2,0.1,0.3,0.1,0.4,0.2
			c0.1,0.1,0.2,0.2,0.2,0.4c0,0.1,0.1,0.3,0.1,0.5v1.5c0,0.1,0,0.2,0,0.3s0,0.2,0,0.2h-0.8L94.5,49.2z M94.4,48.2h-0.2
			c-0.1,0-0.2,0-0.3,0c-0.1,0-0.2,0-0.3,0.1c-0.1,0-0.2,0.1-0.2,0.1c-0.1,0.1-0.1,0.1-0.1,0.2c0,0.2,0,0.3,0.1,0.3
			c0.1,0.1,0.2,0.1,0.4,0.1c0.1,0,0.2,0,0.2,0c0.1,0,0.2-0.1,0.2-0.1c0.1-0.1,0.1-0.1,0.2-0.2c0-0.1,0.1-0.2,0.1-0.3L94.4,48.2
			L94.4,48.2z"/>
		<path d="M95.6,46.5h0.5v-0.9H97v0.9h0.7v0.7H97v1.5c0,0.1,0,0.2,0.1,0.2s0.1,0.1,0.3,0.1c0.1,0,0.2,0,0.3,0v0.7
			c-0.1,0-0.2,0-0.3,0c-0.1,0-0.2,0-0.3,0c-0.1,0-0.3,0-0.4,0s-0.2-0.1-0.3-0.1c-0.1-0.1-0.1-0.2-0.2-0.3c0-0.1-0.1-0.3-0.1-0.4
			v-1.6h-0.5V46.5z"/>
		<path d="M98.1,45.5c0-0.1,0-0.1,0-0.2c0-0.1,0.1-0.1,0.1-0.2c0,0,0.1-0.1,0.2-0.1s0.1,0,0.2,0s0.1,0,0.2,0s0.1,0.1,0.2,0.1
			c0,0,0.1,0.1,0.1,0.2c0,0.1,0,0.1,0,0.2c0,0.1,0,0.1,0,0.2c0,0.1-0.1,0.1-0.1,0.2c0,0-0.1,0.1-0.2,0.1s-0.1,0-0.2,0s-0.1,0-0.2,0
			s-0.1-0.1-0.2-0.1c0,0-0.1-0.1-0.1-0.2S98.1,45.6,98.1,45.5z M98.2,46.5H99v3.1h-0.9L98.2,46.5L98.2,46.5z"/>
		<path d="M103,48c0,0.2,0,0.4-0.1,0.6c-0.1,0.2-0.2,0.4-0.3,0.5c-0.1,0.2-0.3,0.3-0.5,0.4c-0.2,0.1-0.5,0.1-0.7,0.1
			c-0.3,0-0.6,0-0.8-0.1c-0.2-0.1-0.4-0.2-0.5-0.4s-0.2-0.3-0.3-0.5c-0.1-0.2-0.1-0.4-0.1-0.6c0-0.2,0-0.4,0.1-0.6
			c0.1-0.2,0.2-0.4,0.3-0.5c0.1-0.2,0.3-0.3,0.5-0.4c0.2-0.1,0.5-0.1,0.7-0.1c0.3,0,0.6,0,0.8,0.1c0.2,0.1,0.4,0.2,0.5,0.4
			s0.2,0.3,0.3,0.5C102.9,47.6,103,47.8,103,48z M100.4,48c0,0.3,0.1,0.5,0.2,0.7s0.3,0.3,0.6,0.3s0.5-0.1,0.6-0.3s0.2-0.4,0.2-0.7
			s-0.1-0.5-0.2-0.7s-0.3-0.3-0.6-0.3s-0.5,0.1-0.6,0.3S100.4,47.7,100.4,48z"/>
		<path d="M105.5,47.7c0-0.1,0-0.2,0-0.3s-0.1-0.1-0.1-0.2c-0.1,0-0.1-0.1-0.2-0.1s-0.1,0-0.2,0c-0.2,0-0.3,0.1-0.4,0.2
			s-0.2,0.3-0.2,0.5v1.8h-0.9v-3.1h0.8v0.4l0,0c0.1-0.2,0.3-0.3,0.4-0.4c0.2-0.1,0.3-0.1,0.5-0.1s0.3,0,0.5,0.1
			c0.1,0.1,0.3,0.1,0.3,0.2c0.1,0.1,0.2,0.2,0.2,0.3s0.1,0.3,0.1,0.4v2.1h-0.9L105.5,47.7L105.5,47.7z"/>
		<path d="M108.8,49.2L108.8,49.2c-0.1,0.2-0.2,0.3-0.4,0.4c-0.2,0.1-0.4,0.1-0.6,0.1c-0.1,0-0.2,0-0.4,0c-0.1,0-0.2-0.1-0.3-0.2
			c-0.1-0.1-0.2-0.2-0.3-0.3c-0.1-0.1-0.1-0.3-0.1-0.5s0-0.4,0.1-0.5s0.2-0.2,0.3-0.3c0.1-0.1,0.3-0.1,0.5-0.2s0.4,0,0.7,0h0.3v-0.1
			c0-0.2,0-0.3-0.1-0.4s-0.2-0.1-0.4-0.1c-0.2,0-0.3,0-0.4,0.1s-0.1,0.2-0.1,0.3h-0.8c0-0.1,0-0.3,0.1-0.4s0.1-0.2,0.3-0.3
			s0.3-0.2,0.5-0.2c0.2-0.1,0.4-0.1,0.6-0.1c0.3,0,0.5,0,0.6,0.1c0.2,0.1,0.3,0.1,0.4,0.2c0.1,0.1,0.2,0.2,0.2,0.4
			c0,0.1,0.1,0.3,0.1,0.5v1.5c0,0.1,0,0.2,0,0.3s0,0.2,0,0.2h-0.8L108.8,49.2z M108.8,48.2h-0.2c-0.1,0-0.2,0-0.3,0
			c-0.1,0-0.2,0-0.3,0.1c-0.1,0-0.2,0.1-0.2,0.1c-0.1,0.1-0.1,0.1-0.1,0.2c0,0.2,0,0.3,0.1,0.3c0.1,0.1,0.2,0.1,0.4,0.1
			c0.1,0,0.2,0,0.2,0c0.1,0,0.2-0.1,0.2-0.1c0.1-0.1,0.1-0.1,0.2-0.2c0-0.1,0.1-0.2,0.1-0.3L108.8,48.2L108.8,48.2z"/>
		<path d="M110.2,44.9h0.9v4.7h-0.9V44.9z"/>
		<path d="M75.8,55c0.2,0,0.4-0.1,0.5-0.2c0.1-0.1,0.1-0.3,0.1-0.6V52h-0.8v-0.8h1.7v3c0,0.3,0,0.6-0.1,0.8s-0.2,0.4-0.3,0.5
			c-0.1,0.1-0.3,0.2-0.5,0.3s-0.4,0.1-0.6,0.1c-0.1,0-0.1,0-0.2,0s-0.2,0-0.2,0v-0.8c0.1,0,0.1,0,0.2,0C75.7,55,75.8,55,75.8,55z"/>
		<path d="M78.8,54.3c0,0.1,0,0.2,0.1,0.3c0,0.1,0.1,0.2,0.2,0.2c0.1,0.1,0.2,0.1,0.3,0.2c0.1,0,0.2,0.1,0.4,0.1
			c0.3,0,0.5-0.1,0.7-0.4l0.8,0.2c-0.1,0.3-0.3,0.5-0.6,0.6c-0.2,0.1-0.6,0.2-1,0.2c-0.3,0-0.5,0-0.7-0.1s-0.4-0.2-0.5-0.3
			s-0.3-0.3-0.3-0.5c-0.1-0.2-0.1-0.4-0.1-0.7s0-0.5,0.1-0.7s0.2-0.4,0.3-0.5c0.1-0.1,0.3-0.3,0.5-0.3c0.2-0.1,0.4-0.1,0.7-0.1
			c0.5,0,0.9,0.1,1.2,0.4c0.3,0.3,0.4,0.7,0.4,1.2v0.2C81.3,54.3,78.8,54.3,78.8,54.3z M80.3,53.8c0-0.1,0-0.2,0-0.2
			c0-0.1-0.1-0.2-0.1-0.2c-0.1-0.1-0.1-0.1-0.2-0.2c-0.1,0-0.2-0.1-0.3-0.1c-0.2,0-0.3,0-0.4,0.1c-0.1,0-0.2,0.1-0.2,0.2
			C79,53.5,79,53.5,79,53.6c0,0.1-0.1,0.2-0.1,0.2H80.3z"/>
		<path d="M83.6,55.2L83.6,55.2c-0.1,0.2-0.2,0.3-0.4,0.4c-0.2,0.1-0.4,0.1-0.6,0.1c-0.1,0-0.2,0-0.4,0c-0.1,0-0.2-0.1-0.3-0.2
			c-0.1-0.1-0.2-0.2-0.3-0.3c-0.1-0.1-0.1-0.3-0.1-0.5s0-0.4,0.1-0.5s0.2-0.2,0.3-0.3c0.1-0.1,0.3-0.1,0.5-0.2s0.4,0,0.7,0h0.3v-0.1
			c0-0.2,0-0.3-0.1-0.4s-0.2-0.1-0.4-0.1c-0.2,0-0.3,0-0.4,0.1s-0.1,0.2-0.1,0.3h-0.8c0-0.1,0-0.3,0.1-0.4c0.1-0.1,0.1-0.2,0.3-0.3
			c0.1-0.1,0.3-0.2,0.5-0.2c0.2-0.1,0.4-0.1,0.6-0.1c0.3,0,0.5,0,0.6,0.1c0.2,0.1,0.3,0.1,0.4,0.2c0.1,0.1,0.2,0.2,0.2,0.4
			c0,0.1,0.1,0.3,0.1,0.5v1.5c0,0.1,0,0.2,0,0.3s0,0.2,0,0.2h-0.8L83.6,55.2z M83.6,54.3h-0.2c-0.1,0-0.2,0-0.3,0
			c-0.1,0-0.2,0-0.3,0.1c-0.1,0-0.2,0.1-0.2,0.1c-0.1,0.1-0.1,0.1-0.1,0.2c0,0.2,0,0.3,0.1,0.3s0.2,0.1,0.4,0.1c0.1,0,0.2,0,0.2,0
			c0.1,0,0.2-0.1,0.2-0.1c0.1-0.1,0.1-0.1,0.2-0.2c0-0.1,0.1-0.2,0.1-0.3L83.6,54.3L83.6,54.3z"/>
		<path d="M87.1,53.8c0-0.1,0-0.2,0-0.3S87,53.4,87,53.3c-0.1,0-0.1-0.1-0.2-0.1s-0.1,0-0.2,0c-0.2,0-0.3,0.1-0.4,0.2
			c-0.1,0.1-0.2,0.3-0.2,0.5v1.8h-1v-3.1h0.8V53l0,0c0.1-0.2,0.3-0.3,0.4-0.4c0.2-0.1,0.3-0.1,0.5-0.1s0.3,0,0.5,0.1
			c0.1,0.1,0.3,0.1,0.3,0.2c0.1,0.1,0.2,0.2,0.2,0.3s0.1,0.3,0.1,0.4v2.1h-0.9v-1.8H87.1z"/>
		<path d="M88.6,53.7h1.5v0.7h-1.5V53.7z"/>
		<path d="M90.8,51.1h0.9v3.7h1.7v0.8h-2.6V51.1z"/>
		<path d="M94.5,54.3c0,0.1,0,0.2,0.1,0.3c0,0.1,0.1,0.2,0.2,0.2c0.1,0.1,0.2,0.1,0.3,0.2c0.1,0,0.2,0.1,0.4,0.1
			c0.3,0,0.5-0.1,0.7-0.4l0.8,0.2c-0.1,0.3-0.3,0.5-0.6,0.6c-0.2,0.1-0.6,0.2-1,0.2c-0.3,0-0.5,0-0.7-0.1s-0.4-0.2-0.5-0.3
			s-0.3-0.3-0.3-0.5c-0.1-0.2-0.1-0.4-0.1-0.7s0-0.5,0.1-0.7s0.2-0.4,0.3-0.5c0.1-0.1,0.3-0.3,0.5-0.3c0.2-0.1,0.4-0.1,0.7-0.1
			c0.5,0,0.9,0.1,1.2,0.4c0.3,0.3,0.4,0.7,0.4,1.2v0.2C97,54.3,94.5,54.3,94.5,54.3z M96,53.8c0-0.1,0-0.2,0-0.2
			c0-0.1-0.1-0.2-0.1-0.2c-0.1-0.1-0.1-0.1-0.2-0.2c-0.1,0-0.2-0.1-0.3-0.1c-0.2,0-0.3,0-0.4,0.1c-0.1,0-0.2,0.1-0.2,0.2
			c-0.1,0.1-0.1,0.1-0.1,0.2c0,0.1-0.1,0.2-0.1,0.2H96z"/>
		<path d="M99.1,53.5c0-0.1-0.1-0.2-0.2-0.3s-0.2-0.1-0.4-0.1c-0.1,0-0.2,0-0.3,0.1c-0.1,0-0.1,0.1-0.1,0.2c0,0.1,0,0.2,0.1,0.2
			c0.1,0.1,0.2,0.1,0.4,0.1c0.1,0,0.3,0.1,0.5,0.1s0.3,0.1,0.5,0.1c0.1,0.1,0.3,0.2,0.4,0.3s0.1,0.3,0.1,0.5c0,0.1,0,0.2-0.1,0.3
			c0,0.1-0.1,0.2-0.2,0.3s-0.3,0.2-0.4,0.3c-0.2,0.1-0.4,0.1-0.7,0.1c-0.2,0-0.4,0-0.5,0c-0.2,0-0.3-0.1-0.4-0.2
			c-0.1-0.1-0.2-0.2-0.3-0.3c-0.1-0.1-0.1-0.3-0.1-0.5h0.8c0,0.2,0.1,0.3,0.2,0.3c0.1,0.1,0.2,0.1,0.4,0.1c0.1,0,0.1,0,0.2,0
			s0.1,0,0.2,0s0.1-0.1,0.1-0.1s0-0.1,0-0.2c0-0.1,0-0.2-0.1-0.2s-0.2-0.1-0.3-0.1c-0.1,0-0.3-0.1-0.4-0.1s-0.3-0.1-0.4-0.1
			c-0.1-0.1-0.3-0.2-0.3-0.3c-0.1-0.1-0.1-0.3-0.1-0.5c0-0.1,0-0.2,0.1-0.4s0.1-0.2,0.2-0.3s0.2-0.2,0.4-0.2s0.4-0.1,0.6-0.1
			c0.4,0,0.7,0.1,1,0.2c0.2,0.2,0.4,0.4,0.4,0.7L99.1,53.5z"/>
		<path d="M102.5,55.2L102.5,55.2c-0.1,0.2-0.2,0.3-0.4,0.4c-0.2,0.1-0.4,0.1-0.6,0.1c-0.1,0-0.2,0-0.4,0c-0.1,0-0.2-0.1-0.3-0.2
			c-0.1-0.1-0.2-0.2-0.3-0.3c-0.1-0.1-0.1-0.3-0.1-0.5s0-0.4,0.1-0.5s0.2-0.2,0.3-0.3c0.1-0.1,0.3-0.1,0.5-0.2s0.4,0,0.7,0h0.3v-0.1
			c0-0.2,0-0.3-0.1-0.4s-0.2-0.1-0.4-0.1c-0.2,0-0.3,0-0.4,0.1s-0.1,0.2-0.1,0.3h-0.8c0-0.1,0-0.3,0.1-0.4c0.1-0.1,0.1-0.2,0.3-0.3
			s0.3-0.2,0.5-0.2c0.2-0.1,0.4-0.1,0.6-0.1c0.3,0,0.5,0,0.6,0.1c0.2,0.1,0.3,0.1,0.4,0.2c0.1,0.1,0.2,0.2,0.2,0.4
			c0,0.1,0.1,0.3,0.1,0.5v1.5c0,0.1,0,0.2,0,0.3s0,0.2,0,0.2h-0.8L102.5,55.2z M102.5,54.3h-0.2c-0.1,0-0.2,0-0.3,0
			c-0.1,0-0.2,0-0.3,0.1c-0.1,0-0.2,0.1-0.2,0.1c-0.1,0.1-0.1,0.1-0.1,0.2c0,0.2,0,0.3,0.1,0.3s0.2,0.1,0.4,0.1c0.1,0,0.2,0,0.2,0
			c0.1,0,0.2-0.1,0.2-0.1c0.1-0.1,0.1-0.1,0.2-0.2c0-0.1,0.1-0.2,0.1-0.3L102.5,54.3L102.5,54.3z"/>
		<path d="M106.2,52.5h0.8v2.9c0,0.2,0,0.4-0.1,0.6s-0.2,0.4-0.3,0.5c-0.1,0.1-0.3,0.2-0.5,0.3s-0.5,0.1-0.8,0.1
			c-0.5,0-0.8-0.1-1.1-0.2c-0.3-0.2-0.4-0.4-0.5-0.7l0.8-0.1c0,0.1,0.1,0.2,0.3,0.3c0.1,0.1,0.3,0.1,0.5,0.1c0.3,0,0.5-0.1,0.7-0.2
			c0.1-0.1,0.2-0.4,0.2-0.7v-0.3l0,0c-0.1,0.2-0.2,0.3-0.4,0.4c-0.2,0.1-0.4,0.1-0.6,0.1s-0.4,0-0.6-0.1s-0.3-0.2-0.5-0.3
			c-0.1-0.1-0.2-0.3-0.3-0.5c-0.1-0.2-0.1-0.4-0.1-0.7c0-0.2,0-0.4,0.1-0.6c0.1-0.2,0.2-0.4,0.3-0.5c0.1-0.1,0.3-0.3,0.5-0.4
			c0.2-0.1,0.4-0.1,0.6-0.1s0.4,0.1,0.6,0.2c0.2,0.1,0.3,0.2,0.4,0.4l0,0V52.5z M106.2,54.1c0-0.3-0.1-0.5-0.2-0.7
			c-0.1-0.1-0.3-0.2-0.6-0.2c-0.1,0-0.2,0-0.3,0.1c-0.1,0-0.2,0.1-0.2,0.2c-0.1,0.1-0.1,0.2-0.2,0.3c0,0.1-0.1,0.2-0.1,0.3
			c0,0.2,0,0.3,0.1,0.5c0.1,0.1,0.1,0.2,0.2,0.3s0.2,0.1,0.3,0.1c0.1,0,0.2,0,0.3,0c0.1,0,0.1,0,0.2,0s0.2-0.1,0.3-0.1
			c0.1-0.1,0.2-0.2,0.2-0.3C106.2,54.4,106.2,54.3,106.2,54.1z"/>
		<path d="M108.4,54.3c0,0.1,0,0.2,0.1,0.3c0,0.1,0.1,0.2,0.2,0.2c0.1,0.1,0.2,0.1,0.3,0.2c0.1,0,0.2,0.1,0.4,0.1
			c0.3,0,0.5-0.1,0.7-0.4l0.8,0.2c-0.1,0.3-0.3,0.5-0.6,0.6c-0.2,0.1-0.6,0.2-1,0.2c-0.3,0-0.5,0-0.7-0.1s-0.4-0.2-0.5-0.3
			s-0.3-0.3-0.3-0.5c-0.1-0.2-0.1-0.4-0.1-0.7s0-0.5,0.1-0.7s0.2-0.4,0.3-0.5c0.1-0.1,0.3-0.3,0.5-0.3c0.2-0.1,0.4-0.1,0.7-0.1
			c0.5,0,0.9,0.1,1.2,0.4c0.3,0.3,0.4,0.7,0.4,1.2v0.2C110.9,54.3,108.4,54.3,108.4,54.3z M109.9,53.8c0-0.1,0-0.2,0-0.2
			c0-0.1-0.1-0.2-0.1-0.2c-0.1-0.1-0.1-0.1-0.2-0.2c-0.1,0-0.2-0.1-0.3-0.1c-0.2,0-0.3,0-0.4,0.1c-0.1,0-0.2,0.1-0.2,0.2
			c-0.1,0.1-0.1,0.1-0.1,0.2c0,0.1-0.1,0.2-0.1,0.2H109.9z"/>
		<path d="M77.6,61.3L77.6,61.3c-0.1,0.2-0.3,0.3-0.5,0.4c-0.2,0.1-0.4,0.1-0.6,0.1s-0.4,0-0.6-0.1s-0.3-0.2-0.5-0.4
			c-0.1-0.2-0.2-0.3-0.3-0.5C75,60.6,75,60.4,75,60.2c0-0.2,0-0.4,0.1-0.6c0.1-0.2,0.2-0.4,0.3-0.5c0.1-0.2,0.3-0.3,0.5-0.4
			c0.2-0.1,0.4-0.1,0.6-0.1s0.4,0,0.5,0.1c0.2,0.1,0.3,0.2,0.5,0.4l0,0v-2h0.9v4.7h-0.8V61.3z M77.6,60.2c0-0.1,0-0.2,0-0.3
			s-0.1-0.2-0.1-0.3c-0.1-0.1-0.1-0.2-0.3-0.2c-0.1-0.1-0.2-0.1-0.4-0.1c-0.1,0-0.2,0-0.3,0.1c-0.1,0.1-0.2,0.1-0.2,0.2
			c-0.1,0.1-0.1,0.2-0.1,0.3s0,0.2,0,0.3s0,0.2,0.1,0.4c0,0.1,0.1,0.2,0.2,0.3s0.1,0.2,0.2,0.2c0.1,0.1,0.2,0.1,0.3,0.1
			c0.1,0,0.2,0,0.3-0.1c0.1,0,0.2-0.1,0.2-0.2c0.1-0.1,0.1-0.2,0.2-0.3C77.6,60.4,77.6,60.3,77.6,60.2z"/>
		<path d="M79.9,60.4c0,0.1,0,0.2,0.1,0.3c0,0.1,0.1,0.2,0.2,0.2c0.1,0.1,0.2,0.1,0.3,0.2c0.1,0,0.2,0.1,0.4,0.1
			c0.3,0,0.5-0.1,0.7-0.4l0.8,0.2c-0.1,0.3-0.3,0.5-0.6,0.6c-0.2,0.1-0.6,0.2-1,0.2c-0.3,0-0.5,0-0.7-0.1s-0.4-0.2-0.5-0.3
			s-0.3-0.3-0.3-0.5C79,60.7,79,60.4,79,60.2c0-0.3,0-0.5,0.1-0.7s0.2-0.4,0.3-0.5c0.1-0.1,0.3-0.3,0.5-0.3c0.2-0.1,0.4-0.1,0.7-0.1
			c0.5,0,0.9,0.1,1.2,0.4c0.3,0.3,0.4,0.7,0.4,1.2v0.2C82.2,60.4,79.9,60.4,79.9,60.4z M81.4,59.8c0-0.1,0-0.2,0-0.2
			c0-0.1-0.1-0.2-0.1-0.2c-0.1-0.1-0.1-0.1-0.2-0.2c-0.1,0-0.2-0.1-0.3-0.1c-0.2,0-0.3,0-0.4,0.1c-0.1,0-0.2,0.1-0.2,0.2
			c-0.1,0.1-0.1,0.1-0.1,0.2c0,0.1-0.1,0.2-0.1,0.2H81.4z"/>
		<path d="M84.2,59.5c0-0.3,0.1-0.6,0.2-0.9c0.1-0.3,0.3-0.5,0.5-0.7s0.4-0.4,0.7-0.5c0.3-0.1,0.6-0.2,1-0.2s0.7,0.1,1,0.2
			c0.3,0.1,0.5,0.3,0.7,0.5s0.3,0.5,0.5,0.7c0.1,0.3,0.2,0.6,0.2,0.9c0,0.3-0.1,0.6-0.2,0.9c-0.1,0.3-0.2,0.5-0.4,0.7l0.4,0.3
			L88.1,62l-0.5-0.4c-0.2,0.1-0.3,0.1-0.5,0.2c-0.2,0-0.4,0.1-0.6,0.1c-0.4,0-0.7-0.1-1-0.2c-0.3-0.1-0.5-0.3-0.7-0.5
			s-0.3-0.5-0.5-0.7S84.2,59.8,84.2,59.5z M87.9,59.5c0-0.2,0-0.4-0.1-0.6c-0.1-0.2-0.1-0.3-0.3-0.5c-0.1-0.1-0.3-0.3-0.4-0.3
			C86.9,58,86.7,58,86.5,58s-0.4,0-0.6,0.1s-0.3,0.2-0.4,0.3s-0.2,0.3-0.3,0.5c-0.1,0.2-0.1,0.4-0.1,0.6c0,0.2,0,0.4,0.1,0.6
			c0.1,0.2,0.1,0.3,0.3,0.5c0.1,0.1,0.3,0.3,0.4,0.3c0.2,0.1,0.4,0.1,0.6,0.1s0.3,0,0.4-0.1l-0.5-0.4L87,60l0.6,0.5
			c0.1-0.1,0.2-0.3,0.2-0.5C87.9,59.9,87.9,59.7,87.9,59.5z"/>
		<path d="M91.4,61.3L91.4,61.3c-0.1,0.2-0.3,0.3-0.5,0.4c-0.2,0.1-0.3,0.1-0.5,0.1s-0.4,0-0.5-0.1s-0.2-0.1-0.3-0.2
			c-0.1-0.1-0.2-0.2-0.2-0.3s-0.1-0.3-0.1-0.4v-2.1h0.9v1.9c0,0.1,0,0.2,0,0.3s0.1,0.1,0.1,0.2c0.1,0,0.1,0.1,0.2,0.1s0.1,0,0.2,0
			c0.2,0,0.3-0.1,0.4-0.2c0.1-0.1,0.2-0.3,0.2-0.5v-1.8h0.9v3.1h-0.8C91.4,61.8,91.4,61.3,91.4,61.3z"/>
		<path d="M93.6,60.4c0,0.1,0,0.2,0.1,0.3c0,0.1,0.1,0.2,0.2,0.2c0.1,0.1,0.2,0.1,0.3,0.2c0.1,0,0.2,0.1,0.4,0.1
			c0.3,0,0.5-0.1,0.7-0.4l0.8,0.2c-0.1,0.3-0.3,0.5-0.6,0.6c-0.2,0.1-0.6,0.2-1,0.2c-0.3,0-0.5,0-0.7-0.1s-0.4-0.2-0.5-0.3
			S93,61.1,93,60.9c-0.1-0.2-0.1-0.4-0.1-0.7s0-0.5,0.1-0.7s0.2-0.4,0.3-0.5c0.1-0.1,0.3-0.3,0.5-0.3c0.2-0.1,0.4-0.1,0.7-0.1
			c0.5,0,0.9,0.1,1.2,0.4c0.3,0.3,0.4,0.7,0.4,1.2v0.2C96.1,60.4,93.6,60.4,93.6,60.4z M95.1,59.8c0-0.1,0-0.2,0-0.2
			c0-0.1-0.1-0.2-0.1-0.2c-0.1-0.1-0.1-0.1-0.2-0.2c-0.1,0-0.2-0.1-0.3-0.1c-0.2,0-0.3,0-0.4,0.1c-0.1,0-0.2,0.1-0.2,0.2
			c-0.1,0.1-0.1,0.1-0.1,0.2c0,0.1-0.1,0.2-0.1,0.2H95.1z M94.6,57.2h0.9L94.7,58H94L94.6,57.2z"/>
		<path d="M96.4,57.1h0.9v2l0,0c0.1-0.2,0.3-0.3,0.5-0.4c0.2-0.1,0.3-0.1,0.5-0.1s0.4,0,0.6,0.1s0.3,0.2,0.5,0.4
			c0.1,0.2,0.2,0.3,0.3,0.5c0.1,0.2,0.1,0.4,0.1,0.6c0,0.2,0,0.4-0.1,0.6c-0.1,0.2-0.2,0.4-0.3,0.5s-0.3,0.3-0.5,0.4
			c-0.2,0.1-0.4,0.1-0.6,0.1s-0.4,0-0.6-0.1s-0.3-0.2-0.4-0.4l0,0v0.4h-0.8L96.4,57.1L96.4,57.1z M98.8,60.2c0-0.1,0-0.2,0-0.3
			s-0.1-0.2-0.1-0.3c-0.1-0.1-0.1-0.2-0.2-0.2c-0.1-0.1-0.2-0.1-0.3-0.1c-0.1,0-0.3,0-0.4,0.1s-0.2,0.1-0.2,0.2
			c-0.1,0.1-0.1,0.2-0.1,0.3s0,0.2,0,0.3s0,0.2,0.1,0.4c0,0.1,0.1,0.2,0.2,0.3s0.1,0.2,0.2,0.2s0.2,0.1,0.3,0.1c0.1,0,0.2,0,0.3-0.1
			c0.1-0.1,0.2-0.1,0.2-0.2c0.1-0.1,0.1-0.2,0.1-0.3C98.8,60.4,98.8,60.3,98.8,60.2z"/>
		<path d="M100.9,60.4c0,0.1,0,0.2,0.1,0.3c0,0.1,0.1,0.2,0.2,0.2c0.1,0.1,0.2,0.1,0.3,0.2c0.1,0,0.2,0.1,0.4,0.1
			c0.3,0,0.5-0.1,0.7-0.4l0.8,0.2c-0.1,0.3-0.3,0.5-0.6,0.6c-0.2,0.1-0.6,0.2-1,0.2c-0.3,0-0.5,0-0.7-0.1s-0.4-0.2-0.5-0.3
			s-0.3-0.3-0.3-0.5c-0.1-0.2-0.1-0.4-0.1-0.7s0-0.5,0.1-0.7s0.2-0.4,0.3-0.5c0.1-0.1,0.3-0.3,0.5-0.3c0.2-0.1,0.4-0.1,0.7-0.1
			c0.5,0,0.9,0.1,1.2,0.4c0.3,0.3,0.4,0.7,0.4,1.2v0.2C103.4,60.4,100.9,60.4,100.9,60.4z M102.4,59.8c0-0.1,0-0.2,0-0.2
			c0-0.1-0.1-0.2-0.1-0.2c-0.1-0.1-0.1-0.1-0.2-0.2c-0.1,0-0.2-0.1-0.3-0.1c-0.2,0-0.3,0-0.4,0.1c-0.1,0-0.2,0.1-0.2,0.2
			c-0.1,0.1-0.1,0.1-0.1,0.2c0,0.1-0.1,0.2-0.1,0.2H102.4z"/>
		<path d="M106.1,59.6c0-0.1-0.1-0.2-0.2-0.3s-0.2-0.1-0.4-0.1c-0.2,0-0.3,0-0.4,0.1s-0.2,0.1-0.2,0.2c-0.1,0.1-0.1,0.2-0.1,0.3
			s0,0.3,0,0.4c0,0.3,0.1,0.5,0.2,0.6c0.1,0.2,0.3,0.2,0.6,0.2c0.2,0,0.3,0,0.4-0.1s0.2-0.2,0.3-0.3l0.8,0.3
			c-0.1,0.2-0.3,0.4-0.5,0.6c-0.2,0.2-0.6,0.2-0.9,0.2s-0.5,0-0.7-0.1s-0.4-0.2-0.5-0.3s-0.2-0.3-0.3-0.5c-0.1-0.2-0.1-0.4-0.1-0.6
			c0-0.2,0-0.5,0.1-0.7s0.2-0.4,0.3-0.5c0.1-0.1,0.3-0.3,0.5-0.3c0.2-0.1,0.4-0.1,0.7-0.1c0.4,0,0.7,0.1,1,0.2
			c0.2,0.2,0.4,0.3,0.5,0.6L106.1,59.6z"/>
	</g>
	<path d="M10.5,61.7h4.8v-9l9.5-10.5l-3.5-3.5L12.8,48l-8.5-9.3L1,42.2l9.5,10.5V61.7z"/>
	<path d="M49.3,61.7l-4-4c1.6-2,2.6-4.6,2.6-7.4c0-6.5-5.2-11.7-11.7-11.7s-11.7,5.2-11.7,11.7S29.7,62,36.2,62
		c1.9,0,3.6-0.4,5.2-1.2l4.4,4.4L49.3,61.7z M29.5,50.3c0-3.7,3-6.8,6.8-6.8c3.7,0,6.8,3,6.8,6.8c0,3.7-3,6.8-6.8,6.8
		S29.5,54.1,29.5,50.3z"/>
	<g>
		<g>
			<path d="M62.7,61.7H51.2V39h10.3c4.7,0,7.4,2.2,7.4,6c0,2-0.8,3.6-2.4,4.6c2.3,0.9,3.7,2.9,3.7,5.5
				C70.3,58.9,67.1,61.7,62.7,61.7z M56,57.4h6c2.9,0,3.2-1.8,3.2-2.6c0-1-0.4-2.6-3.4-2.6H56V57.4z M56,48h5.1
				c1.3,0,2.8-0.6,2.8-2.4c0-1.8-1.6-2.2-3-2.2H56V48z"/>
		</g>
	</g>
</g>
</svg>
