<?xml version="1.0" encoding="utf-8"?>
<!-- Generator: Adobe Illustrator 19.2.1, SVG Export Plug-In . SVG Version: 6.00 Build 0)  -->
<svg version="1.1" id="Calque_1" xmlns="http://www.w3.org/2000/svg" xmlns:xlink="http://www.w3.org/1999/xlink" x="0px" y="0px"
	 width="152px" height="66px" viewBox="0 0 152 66" style="enable-background:new 0 0 152 66;" xml:space="preserve">
<style type="text/css">
	.st0{fill:#0055FF;}
</style>
<g>
	<g>
		<rect x="138.5" y="-4" transform="matrix(0.7071 -0.7071 0.7071 0.7071 31.4726 101.9129)" width="0.6" height="33.9"/>
		<rect x="114.5" y="20" transform="matrix(0.7071 -0.7071 0.7071 0.7071 7.4726 91.9838)" width="0.6" height="33.9"/>
	</g>
	<path class="st0" d="M13,25.1c3.7,0,6.8,3,6.8,6.8s-3,6.8-6.8,6.8s-6.8-3-6.8-6.8S9.2,25.1,13,25.1"/>
	<g>
		<path d="M75,41.1c0-0.3,0.1-0.6,0.2-0.9c0.1-0.3,0.3-0.5,0.5-0.8c0.2-0.2,0.4-0.4,0.7-0.5c0.3-0.1,0.6-0.2,1-0.2s0.7,0.1,1,0.2
			s0.5,0.3,0.7,0.5s0.4,0.5,0.5,0.8s0.2,0.6,0.2,0.9c0,0.3-0.1,0.6-0.2,0.9c-0.1,0.3-0.3,0.5-0.4,0.7l0.4,0.3L79,43.6l-0.5-0.4
			c-0.2,0.1-0.3,0.1-0.5,0.2c-0.2,0-0.4,0.1-0.6,0.1c-0.4,0-0.7-0.1-1-0.2c-0.3-0.1-0.5-0.3-0.7-0.5s-0.4-0.5-0.5-0.8
			C75.1,41.6,75,41.4,75,41.1z M78.7,41c0-0.2,0-0.4-0.1-0.6c-0.1-0.2-0.1-0.4-0.3-0.5c-0.1-0.1-0.3-0.3-0.4-0.3
			c-0.2-0.1-0.4-0.1-0.6-0.1s-0.4,0-0.6,0.1s-0.3,0.2-0.4,0.3s-0.2,0.3-0.3,0.5c0,0.2,0,0.4,0,0.6s0,0.4,0.1,0.6
			c0.1,0.2,0.1,0.4,0.3,0.5c0.1,0.1,0.3,0.3,0.4,0.3c0.2,0.1,0.4,0.1,0.6,0.1s0.3,0,0.4-0.1L77.3,42l0.5-0.5l0.6,0.5
			c0.1-0.1,0.2-0.3,0.2-0.5C78.7,41.4,78.7,41.2,78.7,41z"/>
		<path d="M82.3,42.9L82.3,42.9c-0.1,0.2-0.3,0.3-0.5,0.4c-0.2,0.1-0.3,0.1-0.5,0.1s-0.4,0-0.5-0.1s-0.3-0.1-0.3-0.2
			c-0.1-0.1-0.2-0.2-0.2-0.3s-0.1-0.3-0.1-0.4v-2.1h0.9v1.9c0,0.1,0,0.2,0,0.3s0.1,0.1,0.1,0.2c0.1,0,0.1,0.1,0.2,0.1s0.1,0,0.2,0
			c0.2,0,0.3-0.1,0.4-0.2c0.1-0.1,0.2-0.3,0.2-0.5v-1.8h0.9v3.1h-0.9v-0.5H82.3z"/>
		<path d="M84.5,42c0,0.1,0,0.2,0.1,0.3c0,0.1,0.1,0.2,0.2,0.2c0.1,0.1,0.2,0.1,0.3,0.2c0.1,0,0.2,0.1,0.4,0.1
			c0.3,0,0.6-0.1,0.7-0.4l0.8,0.2c-0.1,0.3-0.3,0.5-0.6,0.6c-0.2,0.1-0.6,0.2-1,0.2c-0.3,0-0.5,0-0.7-0.1s-0.4-0.2-0.5-0.3
			s-0.3-0.3-0.3-0.5c-0.1-0.2-0.1-0.4-0.1-0.7s0-0.5,0.1-0.7s0.2-0.4,0.3-0.5s0.3-0.3,0.5-0.3c0.2-0.1,0.4-0.1,0.7-0.1
			c0.5,0,0.9,0.1,1.2,0.4c0.3,0.3,0.4,0.7,0.4,1.2V42H84.5z M86,41.4c0-0.1,0-0.2,0-0.2c0-0.1-0.1-0.2-0.1-0.2
			c-0.1-0.1-0.1-0.1-0.2-0.2c-0.1,0-0.2-0.1-0.3-0.1c-0.2,0-0.3,0-0.4,0.1c-0.1,0-0.2,0.1-0.2,0.2c-0.1,0.1-0.1,0.1-0.1,0.2
			c0,0.1-0.1,0.2-0.1,0.2H86z M85.5,38.8h0.9l-0.9,0.9h-0.6L85.5,38.8z"/>
		<path d="M87.3,38.6h0.9v2l0,0c0.2-0.2,0.3-0.3,0.5-0.4c0.2-0.1,0.3-0.1,0.5-0.1s0.4,0,0.6,0.1s0.3,0.2,0.5,0.4
			c0.1,0.2,0.2,0.3,0.3,0.5c0.1,0.2,0.1,0.4,0.1,0.6c0,0.2,0,0.4-0.1,0.6c-0.1,0.2-0.2,0.4-0.3,0.5c-0.1,0.2-0.3,0.3-0.5,0.4
			c-0.2,0.1-0.4,0.1-0.6,0.1s-0.4,0-0.6-0.1s-0.3-0.2-0.5-0.4l0,0v0.4h-0.9L87.3,38.6L87.3,38.6z M89.8,41.8c0-0.1,0-0.2,0-0.3
			s-0.1-0.2-0.1-0.3c-0.1-0.1-0.1-0.2-0.2-0.2c-0.1-0.1-0.2-0.1-0.3-0.1c-0.1,0-0.3,0-0.4,0.1s-0.2,0.1-0.2,0.2
			c-0.1,0.1-0.1,0.2-0.2,0.3c0,0.1,0,0.2,0,0.3s0,0.3,0.1,0.4c0,0.1,0.1,0.2,0.2,0.3s0.1,0.2,0.2,0.2s0.2,0.1,0.3,0.1
			c0.1,0,0.2,0,0.3-0.1c0.1-0.1,0.2-0.1,0.2-0.2c0.1-0.1,0.1-0.2,0.2-0.3C89.7,42,89.8,41.9,89.8,41.8z"/>
		<path d="M91.9,42c0,0.1,0,0.2,0.1,0.3c0,0.1,0.1,0.2,0.2,0.2c0.1,0.1,0.2,0.1,0.3,0.2c0.1,0,0.2,0.1,0.4,0.1
			c0.3,0,0.6-0.1,0.7-0.4l0.8,0.2c-0.1,0.3-0.3,0.5-0.6,0.6c-0.2,0.1-0.6,0.2-1,0.2c-0.3,0-0.5,0-0.7-0.1s-0.4-0.2-0.5-0.3
			s-0.3-0.3-0.3-0.5C91.1,42.2,91,42,91,41.8c0-0.3,0-0.5,0.1-0.7s0.2-0.4,0.3-0.5s0.3-0.3,0.5-0.3c0.2-0.1,0.4-0.1,0.7-0.1
			c0.5,0,0.9,0.1,1.2,0.4c0.3,0.3,0.4,0.7,0.4,1.2V42H91.9z M93.4,41.4c0-0.1,0-0.2,0-0.2c0-0.1-0.1-0.2-0.1-0.2
			c-0.1-0.1-0.1-0.1-0.2-0.2c-0.1,0-0.2-0.1-0.3-0.1c-0.2,0-0.3,0-0.4,0.1c-0.1,0-0.2,0.1-0.2,0.2c-0.1,0-0.2,0.1-0.2,0.2
			c0,0.1-0.1,0.2-0.1,0.2H93.4z"/>
		<path d="M97.1,41.2c0-0.1-0.1-0.2-0.2-0.3s-0.3-0.1-0.4-0.1c-0.2,0-0.3,0-0.4,0.1s-0.2,0.1-0.3,0.2c-0.1,0.1-0.1,0.2-0.1,0.3
			s0,0.3,0,0.4c0,0.3,0.1,0.5,0.2,0.6s0.3,0.3,0.6,0.3c0.2,0,0.3,0,0.4-0.1s0.2-0.2,0.3-0.3l0.8,0.3c-0.1,0.2-0.3,0.4-0.6,0.6
			c-0.2,0.2-0.6,0.2-0.9,0.2s-0.5,0-0.8-0.1c-0.2-0.1-0.4-0.2-0.5-0.3s-0.2-0.3-0.3-0.5c-0.1-0.2-0.1-0.4-0.1-0.7
			c0-0.2,0-0.5,0.1-0.7s0.2-0.4,0.3-0.5c0.1-0.1,0.3-0.3,0.5-0.4c0.2-0.1,0.4-0.1,0.7-0.1c0.4,0,0.7,0.1,1,0.2
			c0.2,0.2,0.4,0.4,0.5,0.6L97.1,41.2z"/>
		<path d="M103.2,40.4c-0.1-0.3-0.2-0.5-0.4-0.6c-0.2-0.1-0.4-0.2-0.7-0.2c-0.2,0-0.4,0-0.5,0.1c-0.2,0.1-0.3,0.2-0.4,0.3
			s-0.2,0.3-0.3,0.5c-0.1,0.2-0.1,0.4-0.1,0.6c0,0.2,0,0.5,0.1,0.6c0.1,0.2,0.1,0.3,0.3,0.5c0.1,0.1,0.2,0.2,0.4,0.3
			c0.2,0.1,0.3,0.1,0.5,0.1s0.4-0.1,0.6-0.2c0.2-0.1,0.3-0.3,0.4-0.5l1,0.1c-0.1,0.2-0.2,0.5-0.3,0.6c-0.1,0.2-0.3,0.3-0.5,0.4
			c-0.2,0.1-0.4,0.2-0.6,0.2c-0.2,0.1-0.5,0.1-0.7,0.1c-0.3,0-0.6-0.1-0.9-0.2c-0.3-0.1-0.5-0.3-0.7-0.5s-0.4-0.4-0.5-0.7
			s-0.2-0.6-0.2-1c0-0.3,0.1-0.6,0.2-0.9s0.3-0.5,0.5-0.7s0.4-0.4,0.7-0.5c0.3-0.1,0.6-0.2,0.9-0.2s0.5,0,0.7,0.1s0.4,0.1,0.6,0.3
			c0.2,0.1,0.3,0.3,0.5,0.5c0.1,0.2,0.2,0.4,0.3,0.7L103.2,40.4z"/>
		<path d="M104.5,39.2c0-0.1,0-0.1,0-0.2c0-0.1,0.1-0.1,0.1-0.2c0,0,0.1-0.1,0.2-0.1s0.1,0,0.2,0s0.1,0,0.2,0s0.1,0.1,0.2,0.1
			s0.1,0.1,0.1,0.2c0,0.1,0,0.1,0,0.2c0,0.1,0,0.1,0,0.2c0,0.1-0.1,0.1-0.1,0.2c0,0-0.1,0.1-0.2,0.1s-0.1,0-0.2,0s-0.1,0-0.2,0
			s-0.1-0.1-0.2-0.1c0,0-0.1-0.1-0.1-0.2C104.5,39.4,104.5,39.3,104.5,39.2z M104.5,40.2h0.9v3.1h-0.9V40.2z"/>
		<path d="M105.8,40.2h0.5v-0.9h0.9v0.9h0.7v0.7h-0.7v1.5c0,0.1,0,0.2,0.1,0.2s0.1,0.1,0.3,0.1c0.1,0,0.2,0,0.3,0v0.7
			c-0.1,0-0.2,0-0.3,0c-0.1,0-0.2,0-0.3,0c-0.1,0-0.3,0-0.4,0s-0.2-0.1-0.3-0.1c-0.1-0.1-0.1-0.2-0.2-0.3c0-0.1-0.1-0.3-0.1-0.4V41
			h-0.5V40.2z"/>
		<path d="M109.2,43.3l-1.2-3.1h1l0.7,2.1l0,0l0.7-2.1h0.9l-1.7,4.4h-0.9L109.2,43.3z"/>
		<path d="M75.8,48.8c0.2,0,0.4-0.1,0.5-0.2c0.1-0.1,0.1-0.3,0.1-0.6v-2.2h-0.8V45h1.7v3c0,0.3,0,0.6-0.1,0.8s-0.2,0.4-0.3,0.5
			c-0.1,0.1-0.3,0.2-0.5,0.3s-0.4,0.1-0.6,0.1c-0.1,0-0.1,0-0.2,0s-0.2,0-0.2,0v-0.8c0.1,0,0.1,0,0.2,0
			C75.7,48.8,75.8,48.8,75.8,48.8z"/>
		<path d="M78.8,48.1c0,0.1,0,0.2,0.1,0.3c0,0.1,0.1,0.2,0.2,0.2c0.1,0.1,0.2,0.1,0.3,0.2c0.1,0,0.2,0.1,0.4,0.1
			c0.3,0,0.5-0.1,0.7-0.4l0.8,0.2c-0.1,0.3-0.3,0.5-0.6,0.6s-0.6,0.2-1,0.2c-0.3,0-0.5,0-0.7-0.1s-0.4-0.2-0.5-0.3s-0.3-0.3-0.3-0.5
			c-0.1-0.2-0.1-0.4-0.1-0.7s0-0.5,0.1-0.7s0.2-0.4,0.3-0.5c0.1-0.1,0.3-0.3,0.5-0.3s0.4-0.1,0.7-0.1c0.5,0,0.9,0.1,1.2,0.4
			c0.3,0.3,0.4,0.7,0.4,1.2v0.2C81.3,48.1,78.8,48.1,78.8,48.1z M80.3,47.6c0-0.1,0-0.2,0-0.2c0-0.1-0.1-0.2-0.1-0.2
			C80.1,47,80,47,79.9,46.9c-0.1,0-0.2-0.1-0.3-0.1c-0.2,0-0.3,0-0.4,0.1S79,47,79,47.1c-0.1,0.1-0.1,0.1-0.1,0.2
			c0,0.1-0.1,0.2-0.1,0.2L80.3,47.6L80.3,47.6z"/>
		<path d="M83.6,49L83.6,49c-0.1,0.2-0.2,0.3-0.4,0.4c-0.2,0.1-0.4,0.1-0.6,0.1c-0.1,0-0.2,0-0.4,0c-0.1,0-0.2-0.1-0.3-0.2
			c-0.1-0.1-0.2-0.2-0.3-0.3c-0.1-0.1-0.1-0.3-0.1-0.5s0-0.4,0.1-0.5s0.2-0.2,0.3-0.3c0.1-0.1,0.3-0.1,0.5-0.2c0.2,0,0.4,0,0.7,0
			h0.3v-0.1c0-0.2,0-0.3-0.1-0.4c-0.1-0.1-0.2-0.1-0.4-0.1c-0.2,0-0.3,0-0.4,0.1s-0.1,0.2-0.1,0.3h-0.8c0-0.1,0-0.3,0.1-0.4
			c0.1-0.1,0.1-0.2,0.3-0.3c0.1-0.1,0.3-0.2,0.5-0.2c0.2-0.1,0.4-0.1,0.6-0.1c0.3,0,0.5,0,0.6,0.1c0.2,0.1,0.3,0.1,0.4,0.2
			c0.1,0.1,0.2,0.2,0.2,0.4c0,0.1,0.1,0.3,0.1,0.5V49c0,0.1,0,0.2,0,0.3s0,0.2,0,0.2h-0.8L83.6,49z M83.6,48.1h-0.2
			c-0.1,0-0.2,0-0.3,0c-0.1,0-0.2,0-0.3,0.1c-0.1,0-0.2,0.1-0.2,0.1c-0.1,0.1-0.1,0.1-0.1,0.2c0,0.2,0,0.3,0.1,0.3
			c0.1,0.1,0.2,0.1,0.4,0.1c0.1,0,0.2,0,0.2,0c0.1,0,0.2-0.1,0.2-0.1c0.1-0.1,0.1-0.1,0.2-0.2c0-0.1,0.1-0.2,0.1-0.3L83.6,48.1
			L83.6,48.1z"/>
		<path d="M87,47.6c0-0.1,0-0.2,0-0.3s-0.1-0.1-0.1-0.2c-0.1,0-0.1-0.1-0.2-0.1s-0.1,0-0.2,0c-0.2,0-0.3,0.1-0.4,0.2
			c-0.1,0.1-0.2,0.3-0.2,0.5v1.8H85v-3.1h0.8v0.4l0,0c0.1-0.2,0.3-0.3,0.4-0.4c0.2-0.1,0.3-0.1,0.5-0.1s0.3,0,0.5,0.1
			c0.1,0.1,0.3,0.1,0.3,0.2c0.1,0.1,0.2,0.2,0.2,0.3s0.1,0.3,0.1,0.4v2.1H87V47.6z"/>
		<path d="M90.1,45H91v3.7h1.7v0.8h-2.6V45z"/>
		<path d="M93.8,48.1c0,0.1,0,0.2,0.1,0.3c0,0.1,0.1,0.2,0.2,0.2c0.1,0.1,0.2,0.1,0.3,0.2s0.2,0.1,0.4,0.1c0.3,0,0.5-0.1,0.7-0.4
			l0.8,0.2c-0.1,0.3-0.3,0.5-0.6,0.6c-0.2,0.1-0.6,0.2-1,0.2c-0.3,0-0.5,0-0.7-0.1s-0.4-0.2-0.5-0.3s-0.3-0.3-0.3-0.5
			s-0.1-0.4-0.1-0.7s0-0.5,0.1-0.7s0.2-0.4,0.3-0.5c0.1-0.1,0.3-0.3,0.5-0.3c0.2-0.1,0.4-0.1,0.7-0.1c0.5,0,0.9,0.1,1.2,0.4
			c0.3,0.3,0.4,0.7,0.4,1.2v0.2C96.3,48.1,93.8,48.1,93.8,48.1z M95.3,47.6c0-0.1,0-0.2,0-0.2c0-0.1-0.1-0.2-0.1-0.2
			C95.1,47,95,47,95,46.9c-0.1,0-0.2-0.1-0.3-0.1c-0.2,0-0.3,0-0.4,0.1c-0.1,0-0.2,0.1-0.2,0.2C94,47.2,94,47.2,94,47.3
			c0,0.1-0.1,0.2-0.1,0.2L95.3,47.6L95.3,47.6z"/>
		<path d="M98.4,47.3c0-0.1-0.1-0.2-0.2-0.3s-0.2-0.1-0.4-0.1c-0.1,0-0.2,0-0.3,0.1c-0.1,0-0.1,0.1-0.1,0.2c0,0.1,0,0.2,0.1,0.2
			c0.1,0.1,0.2,0.1,0.4,0.1c0.1,0,0.3,0.1,0.5,0.1s0.3,0.1,0.5,0.1c0.1,0.1,0.3,0.2,0.4,0.3s0.1,0.3,0.1,0.5c0,0.1,0,0.2-0.1,0.3
			c0,0.1-0.1,0.2-0.2,0.3s-0.3,0.2-0.4,0.3c-0.2,0.1-0.4,0.1-0.7,0.1c-0.2,0-0.4,0-0.5,0c-0.2,0-0.3-0.1-0.4-0.2
			c-0.1-0.1-0.2-0.2-0.3-0.3c-0.1-0.1-0.1-0.3-0.1-0.5h0.8c0,0.2,0.1,0.3,0.2,0.3c0.1,0.1,0.2,0.1,0.4,0.1c0.1,0,0.1,0,0.2,0
			s0.1,0,0.2,0s0.1-0.1,0.1-0.1s0-0.1,0-0.2c0-0.1,0-0.2-0.1-0.2s-0.2-0.1-0.3-0.1c-0.1,0-0.3-0.1-0.4-0.1c-0.2,0-0.3-0.1-0.4-0.1
			c-0.1-0.1-0.3-0.2-0.3-0.3C97,47.7,97,47.5,97,47.3c0-0.1,0-0.2,0.1-0.4c0-0.1,0.1-0.2,0.2-0.3s0.2-0.2,0.4-0.2s0.4-0.1,0.6-0.1
			c0.4,0,0.7,0.1,1,0.2c0.2,0.2,0.4,0.4,0.4,0.7L98.4,47.3z"/>
		<path d="M101.8,49L101.8,49c-0.1,0.2-0.2,0.3-0.4,0.4c-0.2,0.1-0.4,0.1-0.6,0.1c-0.1,0-0.2,0-0.4,0c-0.1,0-0.2-0.1-0.3-0.2
			c-0.1-0.1-0.2-0.2-0.3-0.3c-0.1-0.1-0.1-0.3-0.1-0.5s0-0.4,0.1-0.5s0.2-0.2,0.3-0.3c0.1-0.1,0.3-0.1,0.5-0.2c0.2,0,0.4,0,0.7,0
			h0.3v-0.1c0-0.2,0-0.3-0.1-0.4s-0.2-0.1-0.4-0.1c-0.2,0-0.3,0-0.4,0.1s-0.1,0.2-0.1,0.3h-0.8c0-0.1,0-0.3,0.1-0.4
			c0.1-0.1,0.1-0.2,0.3-0.3c0.1-0.1,0.3-0.2,0.5-0.2c0.2-0.1,0.4-0.1,0.6-0.1c0.3,0,0.5,0,0.6,0.1s0.3,0.1,0.4,0.2
			c0.1,0.1,0.2,0.2,0.2,0.4c0,0.1,0.1,0.3,0.1,0.5V49c0,0.1,0,0.2,0,0.3s0,0.2,0,0.2h-0.8L101.8,49z M101.8,48.1h-0.2
			c-0.1,0-0.2,0-0.3,0c-0.1,0-0.2,0-0.3,0.1c-0.1,0-0.2,0.1-0.2,0.1c-0.1,0.1-0.1,0.1-0.1,0.2c0,0.2,0,0.3,0.1,0.3
			c0.1,0.1,0.2,0.1,0.4,0.1c0.1,0,0.2,0,0.2,0c0.1,0,0.2-0.1,0.2-0.1c0.1-0.1,0.1-0.1,0.2-0.2c0-0.1,0.1-0.2,0.1-0.3L101.8,48.1
			L101.8,48.1z"/>
		<path d="M105.5,46.3h0.8v2.9c0,0.2,0,0.4-0.1,0.6c-0.1,0.2-0.2,0.4-0.3,0.5c-0.1,0.1-0.3,0.2-0.5,0.3s-0.5,0.1-0.8,0.1
			c-0.5,0-0.8-0.1-1.1-0.2c-0.3-0.2-0.4-0.4-0.5-0.7l0.8-0.1c0,0.1,0.1,0.2,0.3,0.3s0.3,0.1,0.5,0.1c0.3,0,0.5-0.1,0.7-0.2
			c0.1-0.1,0.2-0.4,0.2-0.7v-0.3l0,0c-0.1,0.2-0.2,0.3-0.4,0.4s-0.4,0.1-0.6,0.1s-0.4,0-0.6-0.1s-0.3-0.2-0.5-0.3
			c-0.1-0.1-0.2-0.3-0.3-0.5c-0.1-0.2-0.1-0.4-0.1-0.7c0-0.2,0-0.4,0.1-0.6c0.1-0.2,0.2-0.4,0.3-0.5c0.1-0.1,0.3-0.3,0.5-0.4
			c0.2-0.1,0.4-0.1,0.6-0.1s0.4,0.1,0.6,0.2c0.2,0.1,0.3,0.2,0.4,0.4l0,0V46.3z M105.5,47.9c0-0.3-0.1-0.5-0.2-0.6s-0.3-0.2-0.6-0.2
			c-0.1,0-0.2,0-0.3,0.1c-0.1,0-0.2,0.1-0.2,0.2c-0.1,0.1-0.1,0.2-0.2,0.3c0,0.1-0.1,0.2-0.1,0.3c0,0.2,0,0.3,0.1,0.5
			c0.1,0.1,0.1,0.2,0.2,0.3s0.2,0.1,0.3,0.1s0.2,0,0.3,0c0.1,0,0.1,0,0.2,0s0.2-0.1,0.3-0.1c0.1-0.1,0.2-0.2,0.2-0.3
			C105.5,48.2,105.5,48.1,105.5,47.9z"/>
		<path d="M107.7,48.1c0,0.1,0,0.2,0.1,0.3c0,0.1,0.1,0.2,0.2,0.2c0.1,0.1,0.2,0.1,0.3,0.2c0.1,0,0.2,0.1,0.4,0.1
			c0.3,0,0.5-0.1,0.7-0.4l0.8,0.2c-0.1,0.3-0.3,0.5-0.6,0.6s-0.6,0.2-1,0.2c-0.3,0-0.5,0-0.7-0.1s-0.4-0.2-0.5-0.3s-0.3-0.3-0.3-0.5
			c-0.1-0.2-0.1-0.4-0.1-0.7s0-0.5,0.1-0.7s0.2-0.4,0.3-0.5c0.1-0.1,0.3-0.3,0.5-0.3s0.4-0.1,0.7-0.1c0.5,0,0.9,0.1,1.2,0.4
			c0.3,0.3,0.4,0.7,0.4,1.2v0.2C110.2,48.1,107.7,48.1,107.7,48.1z M109.2,47.6c0-0.1,0-0.2,0-0.2c0-0.1-0.1-0.2-0.1-0.2
			c-0.1-0.1-0.1-0.1-0.2-0.2c-0.1,0-0.2-0.1-0.3-0.1c-0.2,0-0.3,0-0.4,0.1c-0.1,0-0.2,0.1-0.2,0.2c-0.1,0.1-0.1,0.1-0.1,0.2
			c0,0.1-0.1,0.2-0.1,0.2H109.2z"/>
		<path d="M75.7,51.1h0.9v4.5h-0.9V51.1z"/>
		<path d="M79.4,53.7c0-0.1,0-0.2,0-0.3s-0.1-0.1-0.1-0.2c-0.1,0-0.1-0.1-0.2-0.1s-0.1,0-0.2,0c-0.2,0-0.3,0.1-0.4,0.2
			c-0.1,0.1-0.2,0.3-0.2,0.5v1.8h-0.9v-3.1h0.8v0.4l0,0c0.1-0.2,0.3-0.3,0.4-0.4c0.2-0.1,0.3-0.1,0.5-0.1s0.3,0,0.5,0.1
			c0.1,0.1,0.3,0.1,0.3,0.2c0.1,0.1,0.2,0.2,0.2,0.3s0.1,0.3,0.1,0.4v2.1h-0.9L79.4,53.7L79.4,53.7z"/>
		<path d="M80.7,52.5h0.5v-0.9H82v0.9h0.7v0.7H82v1.5c0,0.1,0,0.2,0.1,0.2s0.1,0.1,0.3,0.1c0.1,0,0.2,0,0.3,0v0.7
			c-0.1,0-0.2,0-0.3,0c-0.1,0-0.2,0-0.3,0c-0.1,0-0.3,0-0.4,0s-0.2-0.1-0.3-0.1c-0.1-0.1-0.1-0.2-0.2-0.3c0-0.1-0.1-0.3-0.1-0.4
			v-1.6h-0.5L80.7,52.5L80.7,52.5z"/>
		<path d="M83.9,54.3c0,0.1,0,0.2,0.1,0.3c0,0.1,0.1,0.2,0.2,0.2c0.1,0.1,0.2,0.1,0.3,0.2s0.2,0.1,0.4,0.1c0.3,0,0.5-0.1,0.7-0.4
			l0.8,0.2c-0.1,0.3-0.3,0.5-0.6,0.6c-0.2,0.1-0.6,0.2-1,0.2c-0.3,0-0.5,0-0.7-0.1s-0.4-0.2-0.5-0.3s-0.3-0.3-0.3-0.5S83,54.3,83,54
			s0-0.5,0.1-0.7s0.2-0.4,0.3-0.5c0.1-0.1,0.3-0.3,0.5-0.3c0.2-0.1,0.4-0.1,0.7-0.1c0.5,0,0.9,0.1,1.2,0.4c0.3,0.3,0.4,0.7,0.4,1.2
			v0.2L83.9,54.3L83.9,54.3z M85.4,53.7c0-0.1,0-0.2,0-0.2c0-0.1-0.1-0.2-0.1-0.2c-0.1-0.1-0.1-0.1-0.2-0.2c-0.1,0-0.2-0.1-0.3-0.1
			c-0.2,0-0.3,0-0.4,0.1c-0.1,0-0.2,0.1-0.2,0.2c-0.1,0.1-0.1,0.1-0.1,0.2S84,53.7,84,53.7H85.4z"/>
		<path d="M86.8,52.5h0.8v0.8l0,0c0-0.1,0.1-0.2,0.1-0.3c0.1-0.1,0.1-0.2,0.2-0.3s0.2-0.2,0.3-0.2c0.1-0.1,0.2-0.1,0.3-0.1h0.1v0.8
			h-0.1c-0.1,0-0.3,0-0.4,0.1c-0.1,0-0.2,0.1-0.3,0.2c-0.1,0.1-0.2,0.2-0.2,0.3c-0.1,0.1-0.1,0.2-0.1,0.4v1.4h-0.9v-3.1H86.8z"/>
		<path d="M91.1,53.7c0-0.1,0-0.2,0-0.3S91,53.3,91,53.2c-0.1,0-0.1-0.1-0.2-0.1s-0.1,0-0.2,0c-0.2,0-0.3,0.1-0.4,0.2
			C90,53.4,90,53.6,90,53.8v1.8h-0.9v-3.1h0.8v0.4l0,0c0.1-0.2,0.3-0.3,0.4-0.4c0.2-0.1,0.3-0.1,0.5-0.1s0.3,0,0.5,0.1
			c0.1,0.1,0.3,0.1,0.3,0.2c0.1,0.1,0.2,0.2,0.2,0.3s0.1,0.3,0.1,0.4v2.1H91L91.1,53.7L91.1,53.7z"/>
		<path d="M94.5,55.2L94.5,55.2c-0.1,0.2-0.2,0.3-0.4,0.4c-0.2,0.1-0.4,0.1-0.6,0.1c-0.1,0-0.2,0-0.4,0c-0.1,0-0.2-0.1-0.3-0.2
			c-0.1-0.1-0.2-0.2-0.3-0.3c-0.1-0.1-0.1-0.3-0.1-0.5s0-0.4,0.1-0.5s0.2-0.2,0.3-0.3c0.1-0.1,0.3-0.1,0.5-0.2c0.2,0,0.4,0,0.7,0
			h0.3v-0.1c0-0.2,0-0.3-0.1-0.4S94.1,53,93.9,53s-0.3,0-0.4,0.1s-0.1,0.2-0.1,0.3h-0.8c0-0.1,0-0.3,0.1-0.4s0.1-0.2,0.3-0.3
			c0.1-0.1,0.3-0.2,0.5-0.2c0.2-0.1,0.4-0.1,0.6-0.1c0.3,0,0.5,0,0.6,0.1c0.2,0.1,0.3,0.1,0.4,0.2c0.1,0.1,0.2,0.2,0.2,0.4
			c0,0.1,0.1,0.3,0.1,0.5v1.5c0,0.1,0,0.2,0,0.3s0,0.2,0,0.2h-0.8L94.5,55.2z M94.5,54.2h-0.2c-0.1,0-0.2,0-0.3,0s-0.2,0-0.3,0.1
			c-0.1,0-0.2,0.1-0.2,0.1c-0.1,0.1-0.1,0.1-0.1,0.2c0,0.2,0,0.3,0.1,0.3s0.2,0.1,0.4,0.1c0.1,0,0.2,0,0.2,0c0.1,0,0.2-0.1,0.2-0.1
			c0.1-0.1,0.1-0.1,0.2-0.2c0-0.1,0.1-0.2,0.1-0.3L94.5,54.2L94.5,54.2z"/>
		<path d="M95.7,52.5h0.5v-0.9H97v0.9h0.7v0.7H97v1.5c0,0.1,0,0.2,0.1,0.2s0.1,0.1,0.3,0.1c0.1,0,0.2,0,0.3,0v0.7
			c-0.1,0-0.2,0-0.3,0c-0.1,0-0.2,0-0.3,0c-0.1,0-0.3,0-0.4,0s-0.2-0.1-0.3-0.1c-0.1-0.1-0.1-0.2-0.2-0.3c0-0.1-0.1-0.3-0.1-0.4
			v-1.6h-0.5L95.7,52.5L95.7,52.5z"/>
		<path d="M98.1,51.5c0-0.1,0-0.1,0-0.2c0-0.1,0.1-0.1,0.1-0.2c0,0,0.1-0.1,0.2-0.1s0.1,0,0.2,0s0.1,0,0.2,0s0.1,0.1,0.2,0.1
			c0,0,0.1,0.1,0.1,0.2c0,0.1,0,0.1,0,0.2c0,0.1,0,0.1,0,0.2c0,0.1-0.1,0.1-0.1,0.2c0,0-0.1,0.1-0.2,0.1s-0.1,0-0.2,0s-0.1,0-0.2,0
			s-0.1-0.1-0.2-0.1c0,0-0.1-0.1-0.1-0.2S98.1,51.6,98.1,51.5z M98.2,52.5h0.9v3.1h-0.9V52.5z"/>
		<path d="M103,54c0,0.2,0,0.4-0.1,0.6c-0.1,0.2-0.2,0.4-0.3,0.5c-0.1,0.2-0.3,0.3-0.5,0.4c-0.2,0.1-0.5,0.1-0.7,0.1
			c-0.3,0-0.6,0-0.8-0.1c-0.2-0.1-0.4-0.2-0.5-0.4s-0.2-0.3-0.3-0.5c-0.1-0.2-0.1-0.4-0.1-0.6c0-0.2,0-0.4,0.1-0.6
			c0.1-0.2,0.2-0.4,0.3-0.5c0.1-0.2,0.3-0.3,0.5-0.4c0.2-0.1,0.5-0.1,0.7-0.1c0.3,0,0.6,0,0.8,0.1c0.2,0.1,0.4,0.2,0.5,0.4
			s0.2,0.3,0.3,0.5C103,53.6,103,53.8,103,54z M100.4,54c0,0.3,0.1,0.5,0.2,0.7s0.3,0.3,0.6,0.3c0.3,0,0.5-0.1,0.6-0.3
			s0.2-0.4,0.2-0.7s-0.1-0.5-0.2-0.7s-0.3-0.3-0.6-0.3c-0.3,0-0.5,0.1-0.6,0.3S100.4,53.8,100.4,54z"/>
		<path d="M105.5,53.7c0-0.1,0-0.2,0-0.3s-0.1-0.1-0.1-0.2c-0.1,0-0.1-0.1-0.2-0.1s-0.1,0-0.2,0c-0.2,0-0.3,0.1-0.4,0.2
			c-0.1,0.1-0.2,0.3-0.2,0.5v1.8h-0.9v-3.1h0.8v0.4l0,0c0.1-0.2,0.3-0.3,0.4-0.4c0.2-0.1,0.3-0.1,0.5-0.1s0.3,0,0.5,0.1
			c0.1,0.1,0.3,0.1,0.3,0.2c0.1,0.1,0.2,0.2,0.2,0.3s0.1,0.3,0.1,0.4v2.1h-0.9L105.5,53.7L105.5,53.7z"/>
		<path d="M108.9,55.2L108.9,55.2c-0.1,0.2-0.2,0.3-0.4,0.4c-0.2,0.1-0.4,0.1-0.6,0.1c-0.1,0-0.2,0-0.4,0c-0.1,0-0.2-0.1-0.3-0.2
			c-0.1-0.1-0.2-0.2-0.3-0.3c-0.1-0.1-0.1-0.3-0.1-0.5s0-0.4,0.1-0.5s0.2-0.2,0.3-0.3c0.1-0.1,0.3-0.1,0.5-0.2c0.2,0,0.4,0,0.7,0
			h0.3v-0.1c0-0.2,0-0.3-0.1-0.4s-0.2-0.1-0.4-0.1c-0.2,0-0.3,0-0.4,0.1s-0.1,0.2-0.1,0.3h-0.8c0-0.1,0-0.3,0.1-0.4
			c0.1-0.1,0.1-0.2,0.3-0.3c0.1-0.1,0.3-0.2,0.5-0.2c0.2-0.1,0.4-0.1,0.6-0.1c0.3,0,0.5,0,0.6,0.1s0.3,0.1,0.4,0.2
			c0.1,0.1,0.2,0.2,0.2,0.4c0,0.1,0.1,0.3,0.1,0.5v1.5c0,0.1,0,0.2,0,0.3s0,0.2,0,0.2H109L108.9,55.2z M108.9,54.2h-0.2
			c-0.1,0-0.2,0-0.3,0c-0.1,0-0.2,0-0.3,0.1c-0.1,0-0.2,0.1-0.2,0.1c-0.1,0.1-0.1,0.1-0.1,0.2c0,0.2,0,0.3,0.1,0.3
			c0.1,0.1,0.2,0.1,0.4,0.1c0.1,0,0.2,0,0.2,0c0.1,0,0.2-0.1,0.2-0.1c0.1-0.1,0.1-0.1,0.2-0.2c0-0.1,0.1-0.2,0.1-0.3L108.9,54.2
			L108.9,54.2z"/>
		<path d="M110.3,50.9h0.9v4.7h-0.9V50.9z"/>
		<path d="M78,60.8h-1.6l-0.3,0.9h-1l1.6-4.5h0.9l1.6,4.5h-1L78,60.8z M77.2,58.3L77.2,58.3L76.6,60h1.2L77.2,58.3z"/>
		<path d="M79.5,57.7c0-0.1,0-0.1,0-0.2c0-0.1,0.1-0.1,0.1-0.2c0,0,0.1-0.1,0.2-0.1s0.1,0,0.2,0s0.1,0,0.2,0s0.1,0.1,0.2,0.1
			s0.1,0.1,0.1,0.2c0,0.1,0,0.1,0,0.2c0,0.1,0,0.1,0,0.2c0,0.1-0.1,0.1-0.1,0.2c0,0-0.1,0.1-0.2,0.1s-0.1,0-0.2,0s-0.1,0-0.2,0
			s-0.1-0.1-0.2-0.1c0,0-0.1-0.1-0.1-0.2C79.6,57.8,79.5,57.7,79.5,57.7z M79.6,58.6h0.9v3.1h-0.9V58.6z"/>
		<path d="M81.2,58.6H82v0.8l0,0c0-0.1,0.1-0.2,0.1-0.3c0.1-0.1,0.1-0.2,0.2-0.3s0.2-0.2,0.3-0.2c0.1-0.1,0.2-0.1,0.3-0.1H83v0.8
			h-0.1c-0.1,0-0.3,0-0.4,0.1c-0.1,0-0.2,0.1-0.3,0.2c-0.1,0.1-0.2,0.2-0.2,0.3c-0.1,0.1-0.1,0.2-0.1,0.4v1.4H81v-3.1H81.2z"/>
		<path d="M83.5,58.6h0.8V59l0,0c0.1-0.2,0.3-0.3,0.5-0.4c0.2-0.1,0.4-0.1,0.6-0.1s0.4,0,0.6,0.1s0.3,0.2,0.5,0.4
			c0.1,0.2,0.2,0.3,0.3,0.5c0.1,0.2,0.1,0.4,0.1,0.6s0,0.4-0.1,0.6c-0.1,0.2-0.2,0.4-0.3,0.5c-0.1,0.2-0.3,0.3-0.5,0.4
			c-0.2,0.1-0.4,0.1-0.6,0.1s-0.4,0-0.5-0.1c-0.2-0.1-0.3-0.2-0.5-0.4l0,0v1.7h-0.9V58.6z M85.9,60.2c0-0.1,0-0.2,0-0.4
			c0-0.1-0.1-0.2-0.1-0.3c-0.1-0.1-0.1-0.2-0.2-0.2s-0.2-0.1-0.3-0.1c-0.1,0-0.2,0-0.3,0.1c-0.1,0-0.2,0.1-0.2,0.2
			c-0.1,0.1-0.1,0.2-0.2,0.3c0,0.1-0.1,0.2-0.1,0.4c0,0.1,0,0.2,0,0.3s0.1,0.2,0.2,0.3S84.9,61,85,61c0.1,0.1,0.2,0.1,0.4,0.1
			c0.1,0,0.2,0,0.3-0.1c0.1-0.1,0.2-0.1,0.2-0.2c0.1-0.1,0.1-0.2,0.1-0.3C85.9,60.4,85.9,60.3,85.9,60.2z"/>
		<path d="M90.5,60.2c0,0.2,0,0.4-0.1,0.6c-0.1,0.2-0.2,0.4-0.3,0.5c-0.1,0.2-0.3,0.3-0.5,0.4c-0.2,0.1-0.5,0.1-0.7,0.1
			c-0.3,0-0.6,0-0.8-0.1c-0.2-0.1-0.4-0.2-0.5-0.4s-0.2-0.3-0.3-0.5c-0.1-0.2-0.1-0.4-0.1-0.6c0-0.2,0-0.4,0.1-0.6
			c0.1-0.2,0.2-0.4,0.3-0.5c0.1-0.2,0.3-0.3,0.5-0.4c0.2-0.1,0.5-0.1,0.7-0.1c0.3,0,0.6,0,0.8,0.1c0.2,0.1,0.4,0.2,0.5,0.4
			s0.2,0.3,0.3,0.5C90.4,59.8,90.5,60,90.5,60.2z M87.9,60.2c0,0.3,0.1,0.5,0.2,0.7s0.3,0.3,0.6,0.3s0.5-0.1,0.6-0.3
			s0.2-0.4,0.2-0.7s-0.1-0.5-0.2-0.7s-0.3-0.3-0.6-0.3s-0.5,0.1-0.6,0.3S87.9,59.9,87.9,60.2z"/>
		<path d="M90.9,58.6h0.8v0.8l0,0c0-0.1,0.1-0.2,0.1-0.3c0.1-0.1,0.1-0.2,0.2-0.3s0.2-0.2,0.3-0.2c0.1-0.1,0.2-0.1,0.3-0.1h0.1v0.8
			h-0.1c-0.1,0-0.3,0-0.4,0.1c-0.1,0-0.2,0.1-0.3,0.2c-0.1,0.1-0.2,0.2-0.2,0.3c-0.1,0.1-0.1,0.2-0.1,0.4v1.4h-0.9v-3.1H90.9z"/>
		<path d="M93.1,58.6h0.5v-0.9h0.9v0.9h0.7v0.7h-0.7v1.5c0,0.1,0,0.2,0.1,0.2s0.1,0.1,0.3,0.1c0.1,0,0.2,0,0.3,0v0.7
			c-0.1,0-0.2,0-0.3,0c-0.1,0-0.2,0-0.3,0c-0.1,0-0.3,0-0.4,0s-0.2-0.1-0.3-0.1c-0.1-0.1-0.1-0.2-0.2-0.3c0-0.1-0.1-0.3-0.1-0.4
			v-1.6h-0.5V58.6z"/>
	</g>
	<g>
		<path d="M109,22h3.9v1c-0.2,0.4-0.4,0.8-0.6,1.2c-0.2,0.4-0.4,0.9-0.6,1.4s-0.3,0.9-0.4,1.4c-0.1,0.4-0.2,0.8-0.3,1.2h-1.3
			c0.1-0.3,0.2-0.7,0.3-1.2c0.1-0.4,0.3-0.9,0.5-1.4s0.4-0.9,0.6-1.3s0.4-0.8,0.6-1.2H109V22z"/>
		<path d="M113.6,22h3.3v1h-2.3l-0.1,1.4c0.2-0.1,0.3-0.2,0.5-0.2c0.1,0,0.3-0.1,0.5-0.1s0.4,0,0.7,0.1c0.2,0.1,0.4,0.2,0.6,0.3
			c0.2,0.2,0.3,0.4,0.4,0.6s0.2,0.5,0.2,0.9c0,0.3,0,0.5-0.1,0.8s-0.2,0.5-0.4,0.7c-0.2,0.2-0.4,0.4-0.7,0.5
			c-0.3,0.1-0.6,0.2-0.9,0.2c-0.5,0-1-0.1-1.3-0.3c-0.3-0.2-0.6-0.6-0.7-1.1l1.2-0.1c0,0.2,0.1,0.3,0.2,0.4s0.3,0.2,0.6,0.2
			c0.3,0,0.5-0.1,0.6-0.3c0.1-0.2,0.2-0.5,0.2-0.8s-0.1-0.5-0.2-0.7s-0.4-0.3-0.7-0.3c-0.1,0-0.3,0-0.4,0.1s-0.3,0.1-0.4,0.2h-0.9
			L113.6,22z"/>
		<path d="M123.1,22h1.3l-1.9,3.7v2.4h-1.2v-2.4l-1.9-3.7h1.4l1.1,2.5L123.1,22z"/>
		<path d="M124.9,22h3.7v1.1h-2.5v1.4h2.4v1.1h-2.4V27h2.5v1.1h-3.7C124.9,28.1,124.9,22,124.9,22z"/>
		<path d="M132.7,26.8h-2.1l-0.4,1.3h-1.3l2.2-6.1h1.3l2.1,6.1h-1.3L132.7,26.8z M131.7,23.4L131.7,23.4l-0.8,2.4h1.6L131.7,23.4z"
			/>
		<path d="M136.9,25.7h-0.7v2.4H135V22h2.3c0.3,0,0.6,0,0.9,0.1c0.2,0.1,0.5,0.2,0.6,0.4c0.2,0.2,0.3,0.4,0.4,0.6
			c0.1,0.2,0.1,0.5,0.1,0.7s0,0.3-0.1,0.5c0,0.2-0.1,0.3-0.2,0.5c-0.1,0.2-0.2,0.3-0.3,0.4s-0.3,0.2-0.5,0.3l1.4,2.6h-1.4
			L136.9,25.7z M137,24.7c0.2,0,0.4,0,0.5-0.1s0.2-0.1,0.3-0.2s0.1-0.2,0.2-0.3c0-0.1,0-0.2,0-0.3c0-0.1,0-0.2,0-0.3
			c0-0.1-0.1-0.2-0.2-0.3c-0.1-0.1-0.2-0.1-0.3-0.2c-0.1,0-0.3-0.1-0.5-0.1h-0.8v1.7L137,24.7L137,24.7z"/>
		<path d="M143.2,23.6c0-0.2-0.1-0.4-0.3-0.5s-0.4-0.2-0.7-0.2s-0.5,0.1-0.7,0.2s-0.3,0.3-0.3,0.5c0,0.1,0,0.2,0.1,0.3
			c0,0.1,0.1,0.2,0.2,0.2c0.1,0.1,0.2,0.1,0.4,0.2s0.3,0.1,0.6,0.2s0.6,0.2,0.8,0.3c0.2,0.1,0.4,0.2,0.6,0.4
			c0.2,0.1,0.3,0.3,0.4,0.5c0.1,0.2,0.1,0.4,0.1,0.7c0,0.3-0.1,0.5-0.2,0.8c-0.1,0.2-0.3,0.4-0.5,0.6s-0.4,0.3-0.7,0.4
			s-0.6,0.1-1,0.1s-0.8-0.1-1.1-0.2s-0.5-0.2-0.7-0.4c-0.2-0.2-0.3-0.4-0.4-0.6c-0.1-0.2-0.1-0.5-0.2-0.7h1.2c0,0.3,0.1,0.6,0.3,0.7
			s0.5,0.2,0.8,0.2s0.6-0.1,0.8-0.2s0.3-0.3,0.3-0.6c0-0.2-0.1-0.4-0.3-0.6c-0.2-0.1-0.6-0.2-1-0.4c-0.3-0.1-0.6-0.2-0.8-0.3
			c-0.2-0.1-0.4-0.2-0.6-0.3c-0.2-0.1-0.3-0.3-0.3-0.5c-0.1-0.2-0.1-0.4-0.1-0.7c0-0.3,0-0.5,0.1-0.7s0.2-0.4,0.4-0.6
			s0.4-0.3,0.7-0.4s0.6-0.2,1-0.2s0.7,0,0.9,0.1s0.5,0.2,0.7,0.4c0.2,0.2,0.3,0.3,0.4,0.5c0.1,0.2,0.1,0.4,0.1,0.6L143.2,23.6z"/>
	</g>
	<path d="M10.5,61.7h4.8v-9l9.5-10.5l-3.5-3.5L12.8,48l-8.5-9.3L1,42.2l9.5,10.5V61.7z"/>
	<path d="M49.3,61.7l-4-4c1.6-2,2.6-4.6,2.6-7.4c0-6.5-5.2-11.7-11.7-11.7s-11.7,5.2-11.7,11.7S29.8,62,36.3,62
		c1.9,0,3.6-0.4,5.2-1.2l4.4,4.4L49.3,61.7z M29.5,50.3c0-3.7,3-6.8,6.8-6.8c3.7,0,6.8,3,6.8,6.8c0,3.7-3,6.8-6.8,6.8
		S29.5,54.1,29.5,50.3z"/>
	<g>
		<g>
			<path d="M62.7,61.7H51.2V39h10.3c4.7,0,7.4,2.2,7.4,6c0,2-0.8,3.6-2.4,4.6c2.3,0.9,3.7,2.9,3.7,5.5
				C70.3,58.9,67.1,61.7,62.7,61.7z M56,57.4h6c2.9,0,3.2-1.8,3.2-2.6c0-1-0.4-2.6-3.4-2.6H56V57.4z M56,48h5.1
				c1.3,0,2.8-0.6,2.8-2.4c0-1.8-1.6-2.2-3-2.2H56V48z"/>
		</g>
	</g>
</g>
</svg>
