<?xml version="1.0" encoding="utf-8"?>
<!-- Generator: Adobe Illustrator 19.2.1, SVG Export Plug-In . SVG Version: 6.00 Build 0)  -->
<svg version="1.1" xmlns="http://www.w3.org/2000/svg" xmlns:xlink="http://www.w3.org/1999/xlink" x="0px" y="0px" width="100px"
	 height="100px" viewBox="0 0 100 100" style="enable-background:new 0 0 100 100;" xml:space="preserve">
<g>
	<path d="M46,29.8V70c0,1.1,0.9,2,2,2s2-0.9,2-2V29.8c6.8-1,12-6.8,12-13.8c0-7.7-6.3-14-14-14S34,8.3,34,16
		C34,23,39.2,28.8,46,29.8z M48,6c5.5,0,10,4.5,10,10s-4.5,10-10,10s-10-4.5-10-10S42.5,6,48,6z"/>
	<path d="M96.5,50.1l-28-8c-0.3-0.1-0.7-0.1-1,0l-8,1.8c-1.1,0.2-1.8,1.3-1.5,2.4c0.2,1.1,1.3,1.7,2.4,1.5l5.6-1.2v39.9l-32,7.1
		V53.6l2.4-0.5c1.1-0.2,1.8-1.3,1.5-2.4c-0.2-1.1-1.3-1.8-2.4-1.5l-3.5,0.8L4.5,42.1c-0.6-0.2-1.3-0.1-1.8,0.3C2.3,42.8,2,43.4,2,44
		v44c0,0.9,0.6,1.7,1.5,1.9l28,8c0.3,0.1,0.7,0.1,1,0l35.5-7.9l27.5,7.9C95.6,98,95.8,98,96,98c0.4,0,0.9-0.1,1.2-0.4
		c0.5-0.4,0.8-1,0.8-1.6V52C98,51.1,97.4,50.3,96.5,50.1z M6,46.7l24,6.9v39.8L6,86.5V46.7z M94,93.3l-24-6.9V46.6l24,6.9V93.3z"/>
	<path d="M48,14c1.1,0,2,0.9,2,2c0,1.1,0.9,2,2,2s2-0.9,2-2c0-3.3-2.7-6-6-6c-1.1,0-2,0.9-2,2S46.9,14,48,14z"/>
</g>
</svg>
