<?xml version="1.0" encoding="utf-8"?>
<!-- Generator: Adobe Illustrator 19.2.1, SVG Export Plug-In . SVG Version: 6.00 Build 0)  -->
<svg version="1.1" id="Calque_1" xmlns="http://www.w3.org/2000/svg" xmlns:xlink="http://www.w3.org/1999/xlink" x="0px" y="0px"
	 width="100px" height="63px" viewBox="0 0 100 63" style="enable-background:new 0 0 100 63;" xml:space="preserve">
<style type="text/css">
	.st0{fill:#13457C;}
	.st1{fill-rule:evenodd;clip-rule:evenodd;fill:#FBB231;}
	.st2{fill-rule:evenodd;clip-rule:evenodd;fill:#EC1C2E;}
	.st3{fill-rule:evenodd;clip-rule:evenodd;fill:#FFFFFF;}
	.st4{fill:none;stroke:#FFFFFF;stroke-width:0.216;stroke-miterlimit:2.6131;}
</style>
<g>
	<path class="st0" d="M99.6,59.2c0,1.8-1.5,3.3-3.3,3.3H4.8c-1.8,0-3.3-1.5-3.3-3.3V4.5c0-1.8,1.5-3.3,3.3-3.3h91.5
		c1.8,0,3.3,1.5,3.3,3.3V59.2z"/>
	<g>
		<polygon class="st1" points="62.3,49.4 63.2,49.4 64.1,49.3 65,49.2 65.9,49.1 66.7,48.9 67.6,48.6 68.4,48.4 69.2,48 70,47.7 
			70.7,47.3 71.5,46.9 72.2,46.4 72.9,45.9 73.5,45.4 74.2,44.8 74.8,44.3 75.4,43.6 75.9,43 76.5,42.3 76.9,41.7 77.4,40.9 
			77.8,40.2 78.2,39.4 78.6,38.7 78.9,37.9 79.2,37 79.4,36.2 79.6,35.4 79.8,34.5 79.9,33.6 79.9,32.7 80,31.8 79.9,30.9 79.9,30 
			79.8,29.1 79.6,28.3 79.4,27.4 79.2,26.6 78.9,25.8 78.6,25 78.2,24.2 77.8,23.4 77.4,22.7 76.9,22 76.5,21.3 75.9,20.7 75.4,20 
			74.8,19.4 74.2,18.8 73.5,18.3 72.9,17.7 72.2,17.3 71.5,16.8 70.7,16.4 70,16 69.2,15.6 68.4,15.3 67.6,15 66.7,14.8 65.9,14.6 
			65,14.5 64.1,14.3 63.2,14.3 62.3,14.3 61.4,14.3 60.5,14.3 59.7,14.5 58.8,14.6 57.9,14.8 57.1,15 56.3,15.3 55.5,15.6 54.7,16 
			54,16.4 53.2,16.8 52.5,17.3 51.8,17.7 51.2,18.3 50.5,18.8 49.9,19.4 49.3,20 48.8,20.7 48.3,21.3 47.8,22 47.3,22.7 46.9,23.4 
			46.5,24.2 46.2,25 45.9,25.8 45.6,26.6 45.3,27.4 45.1,28.3 45,29.1 44.9,30 44.8,30.9 44.8,31.8 44.8,32.7 44.9,33.6 45,34.5 
			45.1,35.4 45.3,36.2 45.6,37 45.9,37.9 46.2,38.7 46.5,39.4 46.9,40.2 47.3,40.9 47.8,41.7 48.3,42.3 48.8,43 49.3,43.6 
			49.9,44.3 50.5,44.8 51.2,45.4 51.8,45.9 52.5,46.4 53.2,46.9 54,47.3 54.7,47.7 55.5,48 56.3,48.4 57.1,48.6 57.9,48.9 
			58.8,49.1 59.7,49.2 60.5,49.3 61.4,49.4 62.3,49.4 62.3,49.4 		"/>
		<polygon class="st2" points="38.8,49.4 39.7,49.4 40.6,49.3 41.5,49.2 42.4,49.1 43.2,48.9 44,48.6 44.9,48.4 45.7,48 46.4,47.7 
			47.2,47.3 47.9,46.9 48.6,46.4 49.3,45.9 50,45.4 50.6,44.8 51.2,44.3 51.8,43.6 52.4,43 52.9,42.3 53.4,41.7 53.8,40.9 
			54.2,40.2 54.6,39.4 55,38.7 55.3,37.9 55.6,37 55.8,36.2 56,35.4 56.2,34.5 56.3,33.6 56.3,32.7 56.4,31.8 56.3,30.9 56.3,30 
			56.2,29.1 56,28.3 55.8,27.4 55.6,26.6 55.3,25.8 55,25 54.6,24.2 54.2,23.4 53.8,22.7 53.4,22 52.9,21.3 52.4,20.7 51.8,20 
			51.2,19.4 50.6,18.8 50,18.3 49.3,17.7 48.6,17.3 47.9,16.8 47.2,16.4 46.4,16 45.7,15.6 44.9,15.3 44,15 43.2,14.8 42.4,14.6 
			41.5,14.5 40.6,14.3 39.7,14.3 38.8,14.3 37.9,14.3 37,14.3 36.1,14.5 35.3,14.6 34.4,14.8 33.6,15 32.8,15.3 32,15.6 31.2,16 
			30.4,16.4 29.7,16.8 29,17.3 28.3,17.7 27.6,18.3 27,18.8 26.4,19.4 25.8,20 25.2,20.7 24.7,21.3 24.2,22 23.8,22.7 23.3,23.4 
			22.9,24.2 22.6,25 22.3,25.8 22,26.6 21.8,27.4 21.6,28.3 21.4,29.1 21.3,30 21.2,30.9 21.2,31.8 21.2,32.7 21.3,33.6 21.4,34.5 
			21.6,35.4 21.8,36.2 22,37 22.3,37.9 22.6,38.7 22.9,39.4 23.3,40.2 23.8,40.9 24.2,41.7 24.7,42.3 25.2,43 25.8,43.6 26.4,44.3 
			27,44.8 27.6,45.4 28.3,45.9 29,46.4 29.7,46.9 30.4,47.3 31.2,47.7 32,48 32.8,48.4 33.6,48.6 34.4,48.9 35.3,49.1 36.1,49.2 
			37,49.3 37.9,49.4 38.8,49.4 38.8,49.4 		"/>
		<polygon class="st1" points="48.5,21 57.9,21 57.9,20 49.3,20 48.5,21 48.5,21 		"/>
		<polygon class="st1" points="47.1,23.1 57.9,23.1 57.9,22.2 47.7,22.2 47.1,23.1 47.1,23.1 		"/>
		<polygon class="st1" points="46.1,25.2 57.9,25.2 57.9,24.3 46.5,24.3 46.1,25.2 46.1,25.2 		"/>
		<polygon class="st1" points="45.4,27.4 57.9,27.4 57.9,26.4 45.7,26.4 45.4,27.4 45.4,27.4 		"/>
		<polygon class="st1" points="45.8,37.6 57.9,37.6 57.9,36.7 45.5,36.7 45.8,37.6 45.8,37.6 		"/>
		<polygon class="st1" points="46.7,39.7 57.9,39.7 57.9,38.8 46.2,38.8 46.7,39.7 46.7,39.7 		"/>
		<polygon class="st1" points="47.9,41.9 57.9,41.9 57.9,40.9 47.3,40.9 47.9,41.9 47.9,41.9 		"/>
		<polygon class="st1" points="49.7,44 57.9,44 57.9,43 48.8,43 49.7,44 49.7,44 		"/>
		<polygon class="st1" points="44.9,29.5 57.9,29.5 57.9,28.5 45.1,28.5 44.9,29.5 44.9,29.5 		"/>
		<polygon class="st1" points="52.8,35.5 57.7,35.5 57.7,34.6 53,34.6 52.8,35.5 52.8,35.5 		"/>
		<polygon class="st1" points="53.2,33.4 57.7,33.4 57.7,32.4 53.4,32.4 53.2,33.4 53.2,33.4 		"/>
		<polygon class="st1" points="44.6,32.4 45.9,32.4 45.9,33.4 44.7,33.4 44.6,32.4 44.6,32.4 		"/>
		<polygon class="st3" points="42.2,31.3 42.1,31.3 42.1,31.3 42,31.2 41.9,31.2 41.8,31.2 41.8,31.2 41.7,31.2 41.6,31.2 
			41.5,31.2 41.4,31.2 41.3,31.2 41.2,31.2 41.1,31.2 40.9,31.2 40.8,31.2 40.6,31.2 40.5,31.2 40.4,31.2 40.3,31.3 40.2,31.3 
			40.1,31.3 40,31.4 40,31.4 39.9,31.5 39.9,31.6 39.8,31.6 39.8,31.7 39.8,31.8 39.9,31.8 39.9,31.9 39.9,32 40,32.1 40.1,32.2 
			40.2,32.3 40.4,32.4 40.6,32.4 40.8,32.5 41,32.5 41.2,32.6 41.4,32.7 41.5,32.8 41.7,32.9 41.9,33.1 42,33.2 42.1,33.5 
			42.1,33.7 42.2,34.1 42.1,34.4 42.1,34.7 42,35 41.9,35.2 41.8,35.4 41.7,35.5 41.5,35.7 41.3,35.8 41.2,35.9 41,36 40.8,36.1 
			40.6,36.2 40.4,36.2 40.2,36.2 40,36.3 39.8,36.3 39.6,36.3 39.3,36.3 39.1,36.3 38.9,36.3 38.7,36.3 38.5,36.3 38.4,36.3 
			38.2,36.2 38.1,36.2 38,36.2 37.8,36.2 37.7,36.2 37.6,36.1 37.5,36.1 37.4,36.1 37.3,36 37.2,36 37.5,34.7 37.6,34.7 37.6,34.7 
			37.7,34.8 37.8,34.8 37.9,34.8 38,34.8 38.2,34.9 38.3,34.9 38.5,34.9 38.6,34.9 38.8,34.9 38.9,35 39.1,35 39.3,35 39.5,35 
			39.6,35 39.8,34.9 39.9,34.9 40,34.8 40.1,34.7 40.2,34.7 40.2,34.6 40.3,34.5 40.3,34.4 40.3,34.2 40.2,34.1 40.1,33.9 40,33.8 
			39.8,33.7 39.6,33.7 39.4,33.6 39.1,33.5 38.9,33.4 38.7,33.2 38.5,33.1 38.3,32.9 38.1,32.7 38,32.4 38,32.1 38,31.7 38,31.5 
			38.1,31.3 38.1,31.1 38.2,30.9 38.3,30.7 38.4,30.5 38.5,30.4 38.7,30.3 38.8,30.2 39,30.1 39.2,30 39.5,29.9 39.7,29.8 40,29.8 
			40.3,29.8 40.7,29.8 40.9,29.8 41.1,29.8 41.3,29.8 41.5,29.8 41.6,29.8 41.8,29.8 41.9,29.8 42,29.8 42.1,29.9 42.2,29.9 
			42.2,29.9 42.3,29.9 42.4,29.9 42.4,29.9 42.5,29.9 42.5,29.9 42.2,31.3 42.2,31.3 		"/>
		<polyline class="st4" points="42.2,31.3 42.2,31.3 42.1,31.3 42.1,31.3 42,31.2 41.9,31.2 41.8,31.2 41.8,31.2 41.7,31.2 
			41.6,31.2 41.5,31.2 41.4,31.2 41.3,31.2 41.2,31.2 41.1,31.2 40.9,31.2 40.8,31.2 40.6,31.2 40.6,31.2 40.5,31.2 40.4,31.2 
			40.3,31.3 40.2,31.3 40.1,31.3 40,31.4 40,31.4 39.9,31.5 39.9,31.6 39.8,31.6 39.8,31.7 39.8,31.8 39.9,31.8 39.9,31.9 39.9,32 
			40,32.1 40,32.1 40.1,32.2 40.2,32.3 40.4,32.4 40.6,32.4 40.8,32.5 41,32.5 41.2,32.6 41.4,32.7 41.5,32.8 41.7,32.9 41.9,33.1 
			42,33.2 42.1,33.5 42.1,33.7 42.2,34.1 42.1,34.4 42.1,34.4 42.1,34.7 42,35 41.9,35.2 41.8,35.4 41.7,35.5 41.5,35.7 41.3,35.8 
			41.2,35.9 41,36 40.8,36.1 40.6,36.2 40.4,36.2 40.2,36.2 40,36.3 39.8,36.3 39.6,36.3 39.6,36.3 39.3,36.3 39.1,36.3 38.9,36.3 
			38.7,36.3 38.5,36.3 38.4,36.3 38.2,36.2 38.1,36.2 38,36.2 37.8,36.2 37.7,36.2 37.6,36.1 37.5,36.1 37.4,36.1 37.3,36 37.2,36 
			37.5,34.7 37.5,34.7 37.6,34.7 37.6,34.7 37.7,34.8 37.8,34.8 37.9,34.8 38,34.8 38.2,34.9 38.3,34.9 38.5,34.9 38.6,34.9 
			38.8,34.9 38.9,35 39.1,35 39.3,35 39.5,35 39.6,35 39.6,35 39.8,34.9 39.9,34.9 40,34.8 40.1,34.7 40.2,34.7 40.2,34.6 
			40.3,34.5 40.3,34.4 40.3,34.4 40.3,34.2 40.2,34.1 40.1,33.9 40,33.8 39.8,33.7 39.6,33.7 39.4,33.6 39.1,33.5 38.9,33.4 
			38.7,33.2 38.5,33.1 38.3,32.9 38.1,32.7 38,32.4 38,32.1 38,31.7 38,31.7 38,31.5 38.1,31.3 38.1,31.1 38.2,30.9 38.3,30.7 
			38.4,30.5 38.5,30.4 38.7,30.3 38.8,30.2 39,30.1 39.2,30 39.5,29.9 39.7,29.8 40,29.8 40.3,29.8 40.7,29.8 40.7,29.8 40.9,29.8 
			41.1,29.8 41.3,29.8 41.5,29.8 41.6,29.8 41.8,29.8 41.9,29.8 42,29.8 42.1,29.9 42.2,29.9 42.2,29.9 42.3,29.9 42.4,29.9 
			42.4,29.9 42.5,29.9 42.5,29.9 42.2,31.3 		"/>
		<polygon class="st3" points="43.6,28.5 45.3,28.5 45,29.9 46,29.9 45.8,31.2 44.8,31.2 44.2,34.5 44.2,34.6 44.2,34.7 44.3,34.8 
			44.4,34.9 44.5,34.9 44.6,35 44.7,35 44.8,35 45,35 45.1,35 45.2,35 45.3,34.9 45.4,34.9 45.4,34.9 45.5,34.9 45.5,34.9 45.3,36 
			45.2,36 45.2,36 45.1,36.1 45.1,36.1 45.1,36.1 45,36.1 45,36.1 44.9,36.2 44.8,36.2 44.8,36.2 44.7,36.2 44.6,36.2 44.6,36.2 
			44.5,36.2 44.4,36.2 44.3,36.3 43.8,36.3 43.6,36.2 43.4,36.2 43.2,36.2 43,36.1 42.9,36.1 42.8,36 42.7,36 42.6,35.9 42.6,35.8 
			42.5,35.7 42.5,35.6 42.5,35.5 42.5,35.4 42.5,35.2 42.5,35.1 42.5,34.9 43.6,28.5 43.6,28.5 		"/>
		<polyline class="st4" points="43.6,28.5 45.3,28.5 45,29.9 46,29.9 45.8,31.2 44.8,31.2 44.2,34.5 44.2,34.5 44.2,34.6 44.2,34.7 
			44.3,34.8 44.4,34.9 44.5,34.9 44.6,35 44.7,35 44.8,35 44.8,35 45,35 45.1,35 45.2,35 45.3,34.9 45.4,34.9 45.4,34.9 45.5,34.9 
			45.5,34.9 45.3,36 45.3,36 45.2,36 45.2,36 45.1,36.1 45.1,36.1 45.1,36.1 45,36.1 45,36.1 44.9,36.2 44.8,36.2 44.8,36.2 
			44.7,36.2 44.6,36.2 44.6,36.2 44.5,36.2 44.4,36.2 44.3,36.3 43.8,36.3 43.8,36.3 43.6,36.2 43.4,36.2 43.2,36.2 43,36.1 
			42.9,36.1 42.8,36 42.7,36 42.6,35.9 42.6,35.8 42.5,35.7 42.5,35.6 42.5,35.5 42.5,35.4 42.5,35.2 42.5,35.1 42.5,34.9 
			43.6,28.5 		"/>
		<polyline class="st4" points="47.3,33.5 47.3,33.5 47.3,33.6 47.3,33.7 47.3,33.8 47.3,33.9 47.4,34 47.4,34.1 47.5,34.2 
			47.6,34.3 47.6,34.4 47.7,34.5 47.8,34.6 47.9,34.7 48,34.8 48.2,34.8 48.3,34.9 48.4,34.9 48.4,34.9 48.6,34.9 48.7,34.9 
			48.9,34.9 49,34.9 49.2,35 49.3,35 49.5,34.9 49.6,34.9 49.8,34.9 50,34.9 50.1,34.8 50.3,34.8 50.5,34.7 50.6,34.7 50.8,34.6 
			51,34.5 50.7,35.9 50.7,35.9 50.6,36 50.5,36 50.4,36.1 50.4,36.1 50.3,36.1 50.2,36.1 50.1,36.2 50,36.2 49.9,36.2 49.7,36.2 
			49.6,36.2 49.5,36.2 49.3,36.2 49.2,36.2 49,36.3 48.8,36.3 48.8,36.3 48.5,36.2 48.2,36.2 47.9,36.2 47.6,36.1 47.3,36 47,35.9 
			46.8,35.8 46.5,35.6 46.3,35.4 46.1,35.1 45.9,34.9 45.8,34.6 45.7,34.2 45.6,33.8 45.6,33.4 45.6,32.9 45.6,32.9 45.6,32.7 
			45.7,32.5 45.7,32.2 45.8,32 45.9,31.7 46,31.5 46.1,31.2 46.3,31 46.5,30.7 46.7,30.5 47,30.3 47.3,30.1 47.6,30 48,29.9 
			48.4,29.8 48.9,29.8 48.9,29.8 49.1,29.8 49.4,29.8 49.6,29.8 49.9,29.9 50.1,30 50.3,30.1 50.6,30.2 50.7,30.4 50.9,30.6 
			51.1,30.9 51.2,31.1 51.3,31.4 51.3,31.8 51.3,32.2 51.3,32.6 51.2,33.1 51.2,33.5 46.8,33.5 47.1,32.3 49.7,32.3 49.7,32.3 
			49.7,32.2 49.7,32 49.7,31.9 49.7,31.8 49.6,31.7 49.6,31.6 49.5,31.5 49.5,31.4 49.4,31.3 49.3,31.3 49.2,31.2 49.2,31.2 
			49.1,31.1 49,31.1 48.9,31.1 48.8,31.1 48.8,31.1 48.6,31.1 48.5,31.1 48.4,31.1 48.3,31.2 48.2,31.2 48.2,31.3 48.1,31.3 
			48,31.4 47.9,31.5 47.8,31.6 47.8,31.7 47.7,31.8 47.7,31.9 47.6,32 47.6,32.1 47.6,32.3 47.3,33.5 		"/>
		<polygon class="st3" points="61.5,30.3 61.4,30.2 61.3,30.2 61.2,30.1 61.1,30.1 61.1,30.1 61,30 60.9,30 60.7,30 60.6,29.9 
			60.5,29.9 60.4,29.9 60.3,29.9 60.1,29.8 60,29.8 59.9,29.8 59.7,29.8 59.6,29.8 59.4,29.8 59.2,29.9 59.1,29.9 58.9,29.9 
			58.7,30 58.6,30.1 58.4,30.2 58.3,30.3 58.1,30.5 58,30.7 57.8,30.9 57.7,31.2 57.6,31.4 57.4,31.8 57.4,32.2 57.3,32.4 
			57.3,32.6 57.3,32.8 57.3,33 57.3,33.2 57.3,33.4 57.4,33.6 57.5,33.7 57.6,33.9 57.7,34.1 57.8,34.2 57.9,34.3 58.1,34.4 
			58.3,34.5 58.5,34.6 58.7,34.6 58.8,34.7 58.9,34.7 59,34.7 59.1,34.7 59.2,34.7 59.4,34.7 59.5,34.7 59.7,34.7 59.8,34.7 
			60,34.7 60.1,34.6 60.3,34.6 60.4,34.5 60.5,34.4 60.7,34.3 60.8,34.2 60.5,35.8 60.5,35.8 60.4,35.9 60.4,35.9 60.3,35.9 
			60.3,36 60.2,36 60.1,36.1 60,36.1 59.9,36.2 59.7,36.2 59.5,36.2 59.3,36.2 59.1,36.2 58.8,36.2 58.5,36.2 58.2,36.2 57.9,36.2 
			57.6,36.1 57.4,36 57.1,35.9 56.8,35.8 56.6,35.6 56.3,35.4 56.1,35.2 55.9,34.9 55.8,34.6 55.6,34.3 55.5,33.9 55.4,33.5 
			55.4,33.1 55.4,32.6 55.5,32.1 55.5,31.9 55.6,31.7 55.7,31.4 55.7,31.2 55.8,31 55.9,30.8 55.9,30.6 56,30.4 56.1,30.2 
			56.2,30.1 56.3,29.9 56.4,29.7 56.5,29.6 56.6,29.4 56.8,29.3 56.9,29.2 57,29.1 57.1,29 57.3,28.9 57.4,28.8 57.6,28.7 
			57.8,28.6 57.9,28.5 58.1,28.5 58.3,28.4 58.5,28.3 58.7,28.3 58.9,28.3 59.1,28.2 59.3,28.2 59.5,28.2 59.7,28.2 59.9,28.2 
			60.1,28.2 60.3,28.2 60.4,28.3 60.6,28.3 60.8,28.3 60.9,28.3 61.1,28.4 61.2,28.4 61.3,28.5 61.4,28.5 61.5,28.5 61.6,28.6 
			61.7,28.6 61.7,28.6 61.8,28.6 61.5,30.3 61.5,30.3 		"/>
		<polyline class="st4" points="61.5,30.3 61.5,30.3 61.4,30.2 61.3,30.2 61.2,30.1 61.1,30.1 61.1,30.1 61,30 60.9,30 60.7,30 
			60.6,29.9 60.5,29.9 60.4,29.9 60.3,29.9 60.1,29.8 60,29.8 59.9,29.8 59.7,29.8 59.7,29.8 59.6,29.8 59.4,29.8 59.2,29.9 
			59.1,29.9 58.9,29.9 58.7,30 58.6,30.1 58.4,30.2 58.3,30.3 58.1,30.5 58,30.7 57.8,30.9 57.7,31.2 57.6,31.4 57.4,31.8 
			57.4,32.2 57.4,32.2 57.3,32.4 57.3,32.6 57.3,32.8 57.3,33 57.3,33.2 57.3,33.4 57.4,33.6 57.5,33.7 57.6,33.9 57.7,34.1 
			57.8,34.2 57.9,34.3 58.1,34.4 58.3,34.5 58.5,34.6 58.7,34.6 58.7,34.6 58.8,34.7 58.9,34.7 59,34.7 59.1,34.7 59.2,34.7 
			59.4,34.7 59.5,34.7 59.7,34.7 59.8,34.7 60,34.7 60.1,34.6 60.3,34.6 60.4,34.5 60.5,34.4 60.7,34.3 60.8,34.2 60.5,35.8 
			60.5,35.8 60.5,35.8 60.4,35.9 60.4,35.9 60.3,35.9 60.3,36 60.2,36 60.1,36.1 60,36.1 59.9,36.2 59.7,36.2 59.5,36.2 59.3,36.2 
			59.1,36.2 58.8,36.2 58.5,36.2 58.2,36.2 58.2,36.2 57.9,36.2 57.6,36.1 57.4,36 57.1,35.9 56.8,35.8 56.6,35.6 56.3,35.4 
			56.1,35.2 55.9,34.9 55.8,34.6 55.6,34.3 55.5,33.9 55.4,33.5 55.4,33.1 55.4,32.6 55.5,32.1 55.5,32.1 55.5,31.9 55.6,31.7 
			55.7,31.4 55.7,31.2 55.8,31 55.9,30.8 55.9,30.6 56,30.4 56.1,30.2 56.2,30.1 56.3,29.9 56.4,29.7 56.5,29.6 56.6,29.4 
			56.8,29.3 56.9,29.2 57,29.1 57.1,29 57.3,28.9 57.4,28.8 57.6,28.7 57.8,28.6 57.9,28.5 58.1,28.5 58.3,28.4 58.5,28.3 
			58.7,28.3 58.9,28.3 59.1,28.2 59.3,28.2 59.5,28.2 59.7,28.2 59.7,28.2 59.9,28.2 60.1,28.2 60.3,28.2 60.4,28.3 60.6,28.3 
			60.8,28.3 60.9,28.3 61.1,28.4 61.2,28.4 61.3,28.5 61.4,28.5 61.5,28.5 61.6,28.6 61.7,28.6 61.7,28.6 61.8,28.6 61.5,30.3 		"/>
		<polygon class="st3" points="76.1,36.3 74.4,36.3 74.6,35.6 74.6,35.5 74.5,35.7 74.4,35.8 74.3,35.9 74.1,35.9 74,36 73.9,36.1 
			73.8,36.1 73.7,36.2 73.6,36.2 73.5,36.3 73.4,36.3 73.3,36.3 73.1,36.3 73,36.3 72.9,36.3 72.8,36.3 72.5,36.3 72.2,36.3 
			71.9,36.2 71.7,36 71.5,35.8 71.3,35.6 71.1,35.4 71,35.2 70.9,34.9 70.8,34.6 70.7,34.3 70.7,34 70.6,33.7 70.6,33.4 70.7,33.1 
			70.7,32.8 70.8,32.5 70.9,32.1 71,31.8 71.2,31.6 71.4,31.3 71.5,31 71.7,30.8 71.9,30.6 72.1,30.5 72.3,30.3 72.6,30.2 
			72.8,30.1 73,30 73.3,29.9 73.5,29.9 73.7,29.9 73.9,29.9 74.1,29.9 74.2,30 74.4,30 74.5,30 74.6,30.1 74.8,30.2 74.9,30.2 
			75,30.3 75,30.4 75.1,30.5 75.2,30.5 75.2,30.6 75.3,30.7 75.3,30.8 75.4,30.8 75.4,30.8 75.8,28.5 77.4,28.5 76.1,36.3 
			76.1,36.3 		"/>
		<polyline class="st4" points="76.1,36.3 74.4,36.3 74.6,35.6 74.6,35.5 74.6,35.5 74.5,35.7 74.4,35.8 74.3,35.9 74.1,35.9 74,36 
			73.9,36.1 73.8,36.1 73.7,36.2 73.6,36.2 73.5,36.3 73.4,36.3 73.3,36.3 73.1,36.3 73,36.3 72.9,36.3 72.8,36.3 72.8,36.3 
			72.5,36.3 72.2,36.3 71.9,36.2 71.7,36 71.5,35.8 71.3,35.6 71.1,35.4 71,35.2 70.9,34.9 70.8,34.6 70.7,34.3 70.7,34 70.6,33.7 
			70.6,33.4 70.7,33.1 70.7,32.8 70.7,32.8 70.8,32.5 70.9,32.1 71,31.8 71.2,31.6 71.4,31.3 71.5,31 71.7,30.8 71.9,30.6 
			72.1,30.5 72.3,30.3 72.6,30.2 72.8,30.1 73,30 73.3,29.9 73.5,29.9 73.7,29.9 73.7,29.9 73.9,29.9 74.1,29.9 74.2,30 74.4,30 
			74.5,30 74.6,30.1 74.8,30.2 74.9,30.2 75,30.3 75,30.4 75.1,30.5 75.2,30.5 75.2,30.6 75.3,30.7 75.3,30.8 75.4,30.8 75.4,30.8 
			75.8,28.5 77.4,28.5 76.1,36.3 		"/>
		<polygon class="st1" points="73.4,34.8 73.6,34.8 73.7,34.8 73.8,34.7 74,34.7 74.1,34.6 74.2,34.5 74.3,34.4 74.4,34.3 
			74.5,34.2 74.6,34 74.7,33.9 74.8,33.8 74.8,33.6 74.9,33.5 74.9,33.3 74.9,33.1 75,33 75,32.8 75,32.6 75,32.5 75,32.3 
			74.9,32.2 74.9,32 74.8,31.9 74.8,31.8 74.7,31.7 74.6,31.6 74.6,31.5 74.4,31.4 74.3,31.4 74.2,31.3 74.1,31.3 73.9,31.3 
			73.8,31.4 73.7,31.4 73.5,31.5 73.4,31.6 73.3,31.6 73.2,31.7 73.1,31.9 73,32 72.9,32.1 72.8,32.3 72.8,32.4 72.7,32.6 
			72.7,32.7 72.6,32.9 72.6,33.1 72.5,33.3 72.6,33.6 72.6,33.9 72.7,34.2 72.8,34.4 73,34.6 73.1,34.8 73.4,34.8 73.4,34.8 		"/>
		<polygon class="st3" points="37,34.9 36.7,36.3 35.2,36.3 35.3,36 35.3,35.8 35.3,35.6 35.4,35.5 35.3,35.6 35.2,35.7 35.1,35.8 
			34.9,35.9 34.8,36 34.6,36.1 34.5,36.1 34.3,36.2 34.2,36.2 34,36.3 33.8,36.3 33.6,36.3 33.5,36.3 33.3,36.4 33.1,36.3 33,36.3 
			32.8,36.3 32.6,36.2 32.4,36.1 32.3,36 32.1,35.9 32,35.8 31.9,35.7 31.8,35.6 31.8,35.5 31.7,35.3 31.7,35.2 31.6,35.1 
			31.6,34.9 31.6,34.8 31.6,34.7 31.6,34.6 31.6,34.3 31.6,34.1 31.7,33.9 31.8,33.7 31.8,33.5 32,33.3 32.1,33.2 32.2,33 
			32.4,32.9 32.5,32.8 32.7,32.6 32.9,32.5 33.1,32.5 33.3,32.4 33.5,32.3 33.7,32.3 33.7,32.3 33.7,32.3 33.8,32.3 33.8,32.3 
			33.9,32.3 34,32.3 34.1,32.3 34.2,32.3 34.3,32.2 34.4,32.2 34.5,32.2 34.6,32.2 34.7,32.2 34.8,32.2 34.8,32.2 34.9,32.2 
			35,32.2 35.2,32.2 35.3,32.2 35.4,32.2 35.6,32.2 35.6,32.2 35.7,32.2 35.7,32.2 35.7,32.2 35.8,32.1 35.8,31.9 35.8,31.8 
			35.8,31.7 35.7,31.6 35.7,31.5 35.6,31.4 35.4,31.3 35.3,31.3 35.2,31.2 35,31.2 34.9,31.2 34.7,31.2 34.5,31.2 34.3,31.2 
			34.1,31.2 33.9,31.2 33.7,31.3 33.5,31.3 33.4,31.3 33.2,31.3 33,31.4 32.9,31.4 32.8,31.4 32.7,31.5 32.6,31.5 32.5,31.5 
			32.9,30.1 33.1,30.1 33.2,30 33.3,30 33.5,29.9 33.6,29.9 33.8,29.9 33.9,29.9 34.1,29.8 34.3,29.8 34.4,29.8 34.6,29.8 
			34.8,29.8 35,29.8 35.2,29.8 35.4,29.8 35.6,29.8 35.8,29.8 35.9,29.9 36.1,29.9 36.3,30 36.5,30 36.7,30.1 36.9,30.2 37,30.3 
			37.2,30.5 37.3,30.6 37.4,30.8 37.5,31 37.6,31.1 37.6,31.3 37.6,31.6 37.6,31.8 37,34.9 37,34.9 		"/>
		<polyline class="st4" points="37,34.9 36.7,36.3 35.2,36.3 35.2,36.3 35.3,36 35.3,35.8 35.3,35.6 35.4,35.5 35.4,35.5 35.3,35.6 
			35.2,35.7 35.1,35.8 34.9,35.9 34.8,36 34.6,36.1 34.5,36.1 34.3,36.2 34.2,36.2 34,36.3 33.8,36.3 33.6,36.3 33.5,36.3 
			33.3,36.4 33.1,36.3 33,36.3 33,36.3 32.8,36.3 32.6,36.2 32.4,36.1 32.3,36 32.1,35.9 32,35.8 31.9,35.7 31.8,35.6 31.8,35.5 
			31.7,35.3 31.7,35.2 31.6,35.1 31.6,34.9 31.6,34.8 31.6,34.7 31.6,34.6 31.6,34.6 31.6,34.3 31.6,34.1 31.7,33.9 31.8,33.7 
			31.8,33.5 32,33.3 32.1,33.2 32.2,33 32.4,32.9 32.5,32.8 32.7,32.6 32.9,32.5 33.1,32.5 33.3,32.4 33.5,32.3 33.7,32.3 
			33.7,32.3 33.7,32.3 33.7,32.3 33.8,32.3 33.8,32.3 33.9,32.3 34,32.3 34.1,32.3 34.2,32.3 34.3,32.2 34.4,32.2 34.5,32.2 
			34.6,32.2 34.7,32.2 34.8,32.2 34.8,32.2 34.9,32.2 34.9,32.2 35,32.2 35.2,32.2 35.3,32.2 35.4,32.2 35.6,32.2 35.6,32.2 
			35.7,32.2 35.7,32.2 35.7,32.2 35.7,32.2 35.8,32.1 35.8,31.9 35.8,31.8 35.8,31.8 35.8,31.7 35.7,31.6 35.7,31.5 35.6,31.4 
			35.4,31.3 35.3,31.3 35.2,31.2 35,31.2 35,31.2 34.9,31.2 34.7,31.2 34.5,31.2 34.3,31.2 34.1,31.2 33.9,31.2 33.7,31.3 
			33.5,31.3 33.4,31.3 33.2,31.3 33,31.4 32.9,31.4 32.8,31.4 32.7,31.5 32.6,31.5 32.5,31.5 32.9,30.1 32.9,30.1 33.1,30.1 
			33.2,30 33.3,30 33.5,29.9 33.6,29.9 33.8,29.9 33.9,29.9 34.1,29.8 34.3,29.8 34.4,29.8 34.6,29.8 34.8,29.8 35,29.8 35.2,29.8 
			35.4,29.8 35.6,29.8 35.6,29.8 35.8,29.8 35.9,29.9 36.1,29.9 36.3,30 36.5,30 36.7,30.1 36.9,30.2 37,30.3 37.2,30.5 37.3,30.6 
			37.4,30.8 37.5,31 37.6,31.1 37.6,31.3 37.6,31.6 37.6,31.8 37,34.9 		"/>
		<polygon class="st2" points="35.5,33.4 35.5,33.4 35.5,33.3 35.5,33.3 35.4,33.3 35.3,33.3 35.3,33.3 35.2,33.3 35.1,33.3 
			35,33.3 34.9,33.3 34.8,33.3 34.7,33.3 34.6,33.3 34.5,33.4 34.5,33.4 34.4,33.4 34.4,33.4 34.3,33.4 34.2,33.4 34.2,33.5 
			34.1,33.5 34,33.6 33.9,33.6 33.9,33.6 33.8,33.7 33.7,33.8 33.6,33.8 33.6,33.9 33.5,34 33.5,34.1 33.4,34.2 33.4,34.2 
			33.4,34.5 33.4,34.6 33.5,34.7 33.6,34.8 33.7,34.9 33.8,34.9 33.9,34.9 34,34.9 34.1,34.9 34.3,34.9 34.4,34.9 34.6,34.9 
			34.7,34.8 34.8,34.8 34.9,34.7 35,34.6 35.1,34.6 35.2,34.5 35.2,34.4 35.3,34.4 35.3,34.3 35.3,34.2 35.4,34.2 35.4,34.1 
			35.4,33.9 35.5,33.7 35.5,33.5 35.5,33.4 35.5,33.4 		"/>
		<polygon class="st3" points="24.5,36.3 22.9,36.3 24.2,28.5 27,28.5 27.3,33.1 29.2,28.5 32.2,28.5 30.8,36.3 29.2,36.3 
			30.2,30.4 30.1,30.4 27.7,36.3 25.9,36.3 25.9,36 25.8,35.4 25.8,34.4 25.7,33.4 25.7,32.3 25.6,31.4 25.6,30.7 25.6,30.4 
			25.5,30.4 25.5,30.4 25.5,30.4 25.5,30.4 24.5,36.3 24.5,36.3 		"/>
		<polyline class="st4" points="24.5,36.3 22.9,36.3 24.2,28.5 27,28.5 27.3,33.1 29.2,28.5 32.2,28.5 30.8,36.3 29.2,36.3 
			30.2,30.4 30.1,30.4 27.7,36.3 25.9,36.3 25.9,36.3 25.9,36 25.8,35.4 25.8,34.4 25.7,33.4 25.7,32.3 25.6,31.4 25.6,30.7 
			25.6,30.4 25.6,30.4 25.5,30.4 25.5,30.4 25.5,30.4 25.5,30.4 24.5,36.3 		"/>
		<polygon class="st3" points="66.4,34.9 66.2,36.3 64.7,36.3 64.7,36 64.7,35.8 64.7,35.6 64.7,35.6 64.6,35.7 64.5,35.7 
			64.4,35.8 64.3,35.9 64.2,36 64,36.1 63.9,36.1 63.7,36.2 63.6,36.2 63.4,36.3 63.3,36.3 63.1,36.3 62.9,36.3 62.7,36.4 
			62.6,36.3 62.4,36.3 62.2,36.3 62,36.2 61.9,36.1 61.7,36 61.6,35.9 61.5,35.8 61.4,35.7 61.3,35.6 61.2,35.5 61.2,35.3 
			61.1,35.2 61.1,35.1 61.1,34.9 61,34.8 61,34.7 61,34.6 61,34.3 61.1,34.1 61.1,33.9 61.2,33.7 61.3,33.5 61.4,33.3 61.5,33.2 
			61.7,33 61.8,32.9 62,32.8 62.2,32.6 62.3,32.5 62.5,32.5 62.7,32.4 62.9,32.3 63.1,32.3 63.1,32.3 63.2,32.3 63.2,32.3 
			63.3,32.3 63.3,32.3 63.4,32.3 63.5,32.3 63.6,32.3 63.7,32.2 63.8,32.2 63.9,32.2 64,32.2 64.1,32.2 64.2,32.2 64.3,32.2 
			64.3,32.2 64.5,32.2 64.6,32.2 64.8,32.2 64.9,32.2 65,32.2 65.1,32.2 65.1,32.2 65.2,32.2 65.2,32.2 65.2,32.1 65.2,31.9 
			65.2,31.8 65.2,31.7 65.2,31.6 65.1,31.5 65,31.4 64.9,31.3 64.8,31.3 64.6,31.2 64.5,31.2 64.3,31.2 64.1,31.2 64,31.2 
			63.8,31.2 63.6,31.2 63.4,31.2 63.2,31.3 63,31.3 62.8,31.3 62.7,31.3 62.5,31.4 62.4,31.4 62.2,31.4 62.1,31.5 62,31.5 62,31.5 
			62.4,30.1 62.5,30.1 62.7,30 62.8,30 62.9,29.9 63.1,29.9 63.2,29.9 63.4,29.9 63.6,29.8 63.7,29.8 63.9,29.8 64.1,29.8 
			64.2,29.8 64.4,29.8 64.6,29.8 64.8,29.8 65,29.8 65.2,29.8 65.4,29.9 65.6,29.9 65.7,30 65.9,30 66.1,30.1 66.3,30.2 66.5,30.3 
			66.6,30.5 66.7,30.6 66.9,30.8 66.9,31 67,31.1 67.1,31.3 67.1,31.6 67,31.8 66.4,34.9 66.4,34.9 		"/>
		<polygon class="st3" points="66.2,36.3 66.2,36.3 66.4,34.9 66.4,34.9 66.1,36.2 66.2,36.2 66.2,36.3 66.2,36.3 66.2,36.3 
			66.2,36.3 66.2,36.3 		"/>
		<polygon class="st3" points="64.6,36.3 64.7,36.3 66.2,36.3 66.2,36.2 64.7,36.2 64.7,36.3 64.6,36.3 64.6,36.3 64.7,36.3 
			64.6,36.3 64.6,36.3 		"/>
		<polygon class="st3" points="64.7,35.6 64.7,35.5 64.7,35.6 64.6,35.8 64.6,36 64.6,36.3 64.7,36.3 64.7,36 64.7,35.8 64.7,35.6 
			64.7,35.6 64.7,35.5 64.7,35.6 64.7,35.6 		"/>
		<polygon class="st3" points="62.4,36.3 62.4,36.3 62.6,36.4 62.7,36.4 62.9,36.4 63.1,36.4 63.3,36.3 63.4,36.3 63.6,36.3 
			63.8,36.2 63.9,36.2 64.1,36.1 64.2,36 64.3,35.9 64.4,35.9 64.6,35.8 64.7,35.7 64.7,35.6 64.7,35.5 64.6,35.6 64.5,35.7 
			64.4,35.8 64.3,35.9 64.2,36 64,36 63.9,36.1 63.7,36.2 63.6,36.2 63.4,36.2 63.2,36.3 63.1,36.3 62.9,36.3 62.7,36.3 62.6,36.3 
			62.4,36.3 62.4,36.3 62.4,36.3 62.4,36.3 		"/>
		<polygon class="st3" points="61,34.6 61,34.6 61,34.7 61,34.8 61,35 61,35.1 61.1,35.2 61.1,35.4 61.2,35.5 61.3,35.6 61.3,35.7 
			61.4,35.9 61.6,36 61.7,36.1 61.8,36.2 62,36.2 62.2,36.3 62.4,36.3 62.4,36.3 62.2,36.2 62,36.2 61.9,36.1 61.7,36 61.6,35.9 
			61.5,35.8 61.4,35.7 61.3,35.6 61.2,35.5 61.2,35.3 61.1,35.2 61.1,35.1 61.1,34.9 61.1,34.8 61.1,34.7 61.1,34.6 61.1,34.6 
			61,34.6 61,34.6 		"/>
		<polygon class="st3" points="63.1,32.3 63.1,32.3 62.9,32.3 62.7,32.4 62.5,32.4 62.3,32.5 62.1,32.6 62,32.7 61.8,32.9 61.6,33 
			61.5,33.1 61.4,33.3 61.3,33.5 61.2,33.7 61.1,33.9 61,34.1 61,34.3 61,34.6 61.1,34.6 61.1,34.3 61.1,34.1 61.2,33.9 61.2,33.7 
			61.3,33.5 61.4,33.4 61.6,33.2 61.7,33 61.8,32.9 62,32.8 62.2,32.7 62.4,32.6 62.5,32.5 62.7,32.4 62.9,32.4 63.1,32.3 
			63.1,32.3 63.1,32.3 63.1,32.3 		"/>
		<polygon class="st3" points="64.3,32.1 64.3,32.1 64.3,32.1 64.2,32.2 64.1,32.2 64,32.2 63.9,32.2 63.8,32.2 63.7,32.2 
			63.6,32.2 63.5,32.2 63.4,32.2 63.3,32.2 63.3,32.3 63.2,32.3 63.2,32.3 63.1,32.3 63.1,32.3 63.1,32.3 63.1,32.3 63.2,32.3 
			63.2,32.3 63.3,32.3 63.3,32.3 63.4,32.3 63.5,32.3 63.6,32.3 63.7,32.3 63.8,32.3 63.9,32.3 64,32.2 64.1,32.2 64.2,32.2 
			64.3,32.2 64.3,32.2 64.3,32.2 64.3,32.1 64.3,32.1 		"/>
		<polygon class="st3" points="65.1,32.2 65.2,32.2 65.1,32.2 65.1,32.2 65,32.2 64.9,32.2 64.8,32.2 64.6,32.2 64.5,32.1 
			64.3,32.1 64.3,32.2 64.5,32.2 64.6,32.2 64.8,32.2 64.9,32.2 65,32.2 65.1,32.3 65.1,32.3 65.2,32.3 65.2,32.2 65.2,32.3 
			65.2,32.3 65.2,32.2 65.1,32.2 65.1,32.2 		"/>
		<polygon class="st3" points="65.2,31.8 65.2,31.8 65.2,31.9 65.2,32.1 65.1,32.2 65.1,32.2 65.2,32.2 65.2,32.2 65.2,32.1 
			65.3,31.9 65.3,31.8 65.3,31.8 65.2,31.8 65.2,31.8 		"/>
		<polygon class="st3" points="64.5,31.2 64.5,31.3 64.6,31.3 64.8,31.3 64.9,31.3 65,31.4 65.1,31.5 65.1,31.6 65.2,31.7 
			65.2,31.8 65.3,31.8 65.2,31.7 65.2,31.6 65.1,31.5 65,31.4 64.9,31.3 64.8,31.2 64.6,31.2 64.5,31.2 64.5,31.2 64.5,31.2 
			64.5,31.2 		"/>
		<polygon class="st3" points="61.9,31.5 62,31.6 62.1,31.5 62.1,31.5 62.2,31.5 62.4,31.4 62.5,31.4 62.7,31.4 62.8,31.3 63,31.3 
			63.2,31.3 63.4,31.3 63.6,31.3 63.8,31.2 64,31.2 64.1,31.2 64.3,31.2 64.5,31.2 64.5,31.2 64.3,31.2 64.1,31.2 64,31.2 
			63.8,31.2 63.6,31.2 63.4,31.2 63.2,31.2 63,31.2 62.8,31.3 62.7,31.3 62.5,31.3 62.4,31.4 62.2,31.4 62.1,31.4 62,31.5 62,31.5 
			62,31.5 61.9,31.5 61.9,31.5 		"/>
		<polygon class="st3" points="62.4,30.1 62.4,30.1 61.9,31.5 62,31.5 62.4,30.1 62.4,30.1 62.4,30.1 62.4,30.1 62.4,30.1 
			62.4,30.1 62.4,30.1 		"/>
		<polygon class="st3" points="65,29.8 65,29.8 64.8,29.8 64.6,29.8 64.4,29.8 64.2,29.8 64.1,29.8 63.9,29.8 63.7,29.8 63.6,29.8 
			63.4,29.8 63.2,29.8 63.1,29.9 62.9,29.9 62.8,29.9 62.7,30 62.5,30 62.4,30.1 62.4,30.1 62.5,30.1 62.7,30 62.8,30 62.9,30 
			63.1,29.9 63.2,29.9 63.4,29.9 63.6,29.9 63.7,29.9 63.9,29.9 64.1,29.9 64.2,29.9 64.4,29.9 64.6,29.9 64.8,29.9 65,29.9 
			65,29.9 65,29.8 65,29.8 		"/>
		<polygon class="st3" points="67.1,31.8 67.1,31.8 67.1,31.6 67.1,31.3 67,31.1 67,30.9 66.9,30.8 66.8,30.6 66.6,30.4 66.5,30.3 
			66.3,30.2 66.1,30.1 65.9,30 65.8,29.9 65.6,29.9 65.4,29.8 65.2,29.8 65,29.8 65,29.9 65.2,29.9 65.4,29.9 65.5,30 65.7,30 
			65.9,30.1 66.1,30.2 66.3,30.3 66.4,30.4 66.6,30.5 66.7,30.6 66.8,30.8 66.9,31 67,31.1 67,31.3 67,31.6 67,31.8 67,31.8 
			67.1,31.8 67.1,31.8 		"/>
		<polygon class="st3" points="66.4,34.9 66.4,34.9 67.1,31.8 67,31.8 66.4,34.9 66.4,34.9 66.4,34.9 66.4,34.9 		"/>
		<polygon class="st1" points="65,33.4 65,33.4 64.9,33.3 64.9,33.3 64.8,33.3 64.8,33.3 64.7,33.3 64.6,33.3 64.5,33.3 64.4,33.3 
			64.3,33.3 64.2,33.3 64.1,33.3 64,33.3 64,33.4 63.9,33.4 63.8,33.4 63.8,33.4 63.7,33.4 63.7,33.4 63.6,33.5 63.5,33.5 
			63.5,33.5 63.4,33.6 63.3,33.6 63.2,33.7 63.2,33.7 63.1,33.8 63,33.9 63,34 62.9,34.1 62.9,34.1 62.9,34.2 62.9,34.5 62.9,34.6 
			62.9,34.7 63,34.8 63.1,34.9 63.2,34.9 63.3,34.9 63.4,34.9 63.6,34.9 63.8,34.9 63.9,34.9 64,34.8 64.2,34.8 64.3,34.7 
			64.4,34.7 64.5,34.6 64.6,34.5 64.6,34.5 64.7,34.4 64.8,34.3 64.8,34.2 64.8,34.2 64.9,34.1 64.9,34 64.9,33.9 64.9,33.7 
			65,33.5 65,33.4 65,33.4 		"/>
		<polygon class="st3" points="77.2,35.4 77.2,35.3 77.2,35.1 77.3,35 77.4,34.9 77.6,34.8 77.7,34.7 77.8,34.7 78,34.6 78.2,34.7 
			78.3,34.7 78.5,34.8 78.6,34.9 78.7,35 78.8,35.1 78.8,35.3 78.8,35.4 78.7,35.4 78.7,35.3 78.6,35.2 78.6,35.1 78.5,35 
			78.4,34.9 78.3,34.8 78.1,34.8 78,34.8 77.9,34.8 77.7,34.8 77.6,34.9 77.5,35 77.5,35.1 77.4,35.2 77.4,35.3 77.4,35.4 
			77.2,35.4 77.2,35.4 		"/>
		<polygon class="st3" points="77.7,35.4 77.7,35.1 78,35.1 78.1,35.1 78.2,35.1 78.2,35.1 78.3,35.1 78.3,35.2 78.3,35.2 
			78.3,35.3 78.3,35.3 78.3,35.4 78.3,35.4 78.3,35.4 78.3,35.4 78,35.4 78.1,35.4 78.1,35.4 78.1,35.4 78.2,35.4 78.2,35.4 
			78.2,35.4 78.2,35.3 78.2,35.3 78.2,35.3 78.2,35.2 78.2,35.2 78.2,35.2 78.1,35.2 78.1,35.2 78.1,35.2 78,35.2 77.9,35.2 
			77.9,35.4 77.7,35.4 77.7,35.4 		"/>
		<polygon class="st3" points="77.2,35.4 77.2,35.5 77.2,35.6 77.2,35.8 77.3,36 77.4,36.1 77.6,36.2 77.7,36.2 77.8,36.3 78,36.3 
			78.2,36.3 78.3,36.2 78.5,36.2 78.6,36.1 78.7,36 78.8,35.8 78.8,35.6 78.9,35.5 78.8,35.4 78.7,35.4 78.7,35.5 78.7,35.6 
			78.6,35.8 78.6,35.9 78.5,36 78.4,36 78.3,36.1 78.1,36.2 78,36.2 77.9,36.2 77.7,36.1 77.6,36 77.5,36 77.5,35.9 77.4,35.8 
			77.4,35.6 77.4,35.5 77.4,35.4 77.2,35.4 77.2,35.4 		"/>
		<polygon class="st3" points="77.7,35.4 77.7,35.8 77.9,35.8 77.9,35.5 78,35.5 78.2,35.8 78.3,35.8 78.1,35.5 78.2,35.5 
			78.2,35.5 78.3,35.5 78.3,35.5 78.3,35.4 78,35.4 78,35.4 77.9,35.4 77.9,35.4 77.7,35.4 77.7,35.4 		"/>
		<path class="st4" d="M77.2,35.5L77.2,35.5l0-0.2l0-0.2l0.1-0.1l0.1-0.1l0.1-0.1l0.1-0.1l0.2,0l0.2,0l0,0l0.2,0l0.2,0l0.1,0.1
			l0.1,0.1l0.1,0.1l0.1,0.1l0,0.2l0,0.2l0,0l0,0.2l0,0.2L78.7,36l-0.1,0.1l-0.1,0.1l-0.1,0.1l-0.2,0l-0.2,0l0,0l-0.2,0l-0.2,0
			l-0.1-0.1l-0.1-0.1L77.3,36l-0.1-0.1l0-0.2L77.2,35.5 M77.9,35.8h-0.1v-0.7H78l0,0l0.1,0l0.1,0l0,0l0,0l0,0l0,0l0,0l0,0l0,0l0,0.1
			l0,0l0,0l0,0l0,0l0,0l0,0h0l0.2,0.3h-0.1L78,35.5h-0.1V35.8 M78,35.4L78,35.4L78,35.4L78,35.4l0.1,0l0,0l0,0l0,0l0,0v0l0,0l0,0
			l0,0l0,0l0,0l0,0l0,0h0h0h-0.2v0.2H78 M78,36.2L78,36.2l0.1,0l0.1,0l0.1-0.1l0.1-0.1l0.1-0.1l0.1-0.1l0-0.1l0-0.1l0,0l0-0.1l0-0.1
			l-0.1-0.1L78.5,35l-0.1-0.1l-0.1-0.1l-0.1,0l-0.1,0l0,0l-0.1,0l-0.1,0l-0.1,0.1L77.5,35l-0.1,0.1l-0.1,0.1l0,0.1l0,0.1l0,0l0,0.1
			l0,0.1l0.1,0.1l0.1,0.1l0.1,0.1l0.1,0.1l0.1,0L78,36.2"/>
		<polygon class="st3" points="66.8,36.3 68.5,36.3 68.5,36.3 69.1,32.9 69.1,32.7 69.2,32.6 69.2,32.5 69.3,32.4 69.3,32.2 
			69.4,32.1 69.5,32 69.6,31.9 69.7,31.8 69.8,31.7 69.9,31.6 70.1,31.5 70.2,31.5 70.4,31.4 70.6,31.4 70.9,31.4 71,31.4 71,31.4 
			71,31.4 71,31.4 71.3,29.8 71.1,29.8 71,29.9 70.8,29.9 70.7,29.9 70.5,30 70.4,30 70.3,30.1 70.2,30.2 70.1,30.3 70,30.3 
			69.9,30.4 69.8,30.5 69.7,30.6 69.6,30.7 69.5,30.9 69.4,31 69.6,29.9 68,29.9 66.8,36.3 66.8,36.3 66.8,36.3 		"/>
		<polyline class="st4" points="66.8,36.3 68.5,36.3 68.5,36.3 69.1,32.9 69.1,32.9 69.1,32.7 69.2,32.6 69.2,32.5 69.3,32.4 
			69.3,32.2 69.4,32.1 69.5,32 69.6,31.9 69.7,31.8 69.8,31.7 69.9,31.6 70.1,31.5 70.2,31.5 70.4,31.4 70.6,31.4 70.9,31.4 
			70.9,31.4 71,31.4 71,31.4 71,31.4 71,31.4 71.3,29.8 71.3,29.8 71.1,29.8 71,29.9 70.8,29.9 70.7,29.9 70.5,30 70.4,30 
			70.3,30.1 70.2,30.2 70.1,30.3 70,30.3 69.9,30.4 69.8,30.5 69.7,30.6 69.6,30.7 69.5,30.9 69.4,31 69.6,29.9 68,29.9 66.8,36.3 
			66.8,36.3 		"/>
		<polygon class="st3" points="51.1,36.3 52.8,36.3 52.8,36.3 53.4,32.9 53.4,32.7 53.5,32.6 53.5,32.5 53.5,32.4 53.6,32.3 
			53.6,32.1 53.7,32 53.8,31.9 53.9,31.9 54,31.8 54.1,31.7 54.3,31.6 54.4,31.6 54.6,31.5 54.8,31.5 55.1,31.5 55.1,31.5 
			55.1,31.5 55.1,31.5 55.2,31.5 55.2,31.5 55.2,31.5 55.2,31.5 55.2,31.5 55.2,31.5 55.3,31.4 55.3,31.3 55.3,31.2 55.4,31 
			55.4,30.9 55.4,30.7 55.5,30.5 55.5,30.4 55.6,30.3 55.7,30.2 55.7,30.1 55.8,30 55.8,29.9 55.8,29.9 55.9,29.9 55.9,29.9 
			55.8,29.9 55.8,29.9 55.8,29.8 55.7,29.8 55.7,29.8 55.6,29.8 55.6,29.8 55.4,29.8 55.2,29.9 55.1,29.9 54.9,29.9 54.8,30 
			54.7,30 54.6,30.1 54.5,30.2 54.4,30.2 54.3,30.3 54.2,30.4 54.1,30.5 54,30.6 53.9,30.7 53.8,30.9 53.7,31 54,29.9 52.3,29.9 
			51.1,36.3 51.1,36.3 51.1,36.3 		"/>
		<polyline class="st4" points="51.1,36.3 52.8,36.3 52.8,36.3 53.4,32.9 53.4,32.9 53.4,32.7 53.5,32.6 53.5,32.5 53.5,32.4 
			53.6,32.3 53.6,32.1 53.7,32 53.8,31.9 53.9,31.9 54,31.8 54.1,31.7 54.3,31.6 54.4,31.6 54.6,31.5 54.8,31.5 55.1,31.5 
			55.1,31.5 55.1,31.5 55.1,31.5 55.1,31.5 55.2,31.5 55.2,31.5 55.2,31.5 55.2,31.5 55.2,31.5 55.2,31.5 55.2,31.5 55.3,31.4 
			55.3,31.3 55.3,31.2 55.4,31 55.4,30.9 55.4,30.7 55.5,30.5 55.5,30.5 55.5,30.4 55.6,30.3 55.7,30.2 55.7,30.1 55.8,30 
			55.8,29.9 55.8,29.9 55.9,29.9 55.9,29.9 55.9,29.9 55.8,29.9 55.8,29.9 55.8,29.8 55.7,29.8 55.7,29.8 55.6,29.8 55.6,29.8 
			55.6,29.8 55.4,29.8 55.2,29.9 55.1,29.9 54.9,29.9 54.8,30 54.7,30 54.6,30.1 54.5,30.2 54.4,30.2 54.3,30.3 54.2,30.4 
			54.1,30.5 54,30.6 53.9,30.7 53.8,30.9 53.7,31 54,29.9 52.3,29.9 51.1,36.3 51.1,36.3 		"/>
		<polygon class="st1" points="77.2,42.5 77.2,42.5 77.2,42.3 77.3,42.2 77.4,42.1 77.6,42 77.7,41.9 77.8,41.9 78,41.8 78.2,41.9 
			78.3,41.9 78.5,42 78.6,42.1 78.7,42.2 78.8,42.3 78.8,42.5 78.8,42.5 78.7,42.5 78.6,42.4 78.6,42.3 78.5,42.2 78.4,42.1 
			78.3,42 78.1,42 78,42 77.9,42 77.7,42 77.6,42.1 77.5,42.2 77.5,42.3 77.4,42.4 77.4,42.5 77.2,42.5 77.2,42.5 		"/>
		<polygon class="st1" points="77.7,42.5 77.7,42.3 78,42.3 78.1,42.3 78.2,42.3 78.2,42.3 78.3,42.3 78.3,42.4 78.3,42.4 
			78.3,42.4 78.3,42.5 78.2,42.5 78.2,42.5 78.2,42.4 78.2,42.4 78.2,42.4 78.2,42.4 78.1,42.4 78.1,42.4 78.1,42.4 78,42.4 
			77.9,42.4 77.9,42.5 77.7,42.5 77.7,42.5 		"/>
		<polygon class="st1" points="77.2,42.6 77.2,42.5 77.4,42.5 77.4,42.5 77.4,42.6 77.2,42.6 77.2,42.6 		"/>
		<polygon class="st1" points="77.7,42.6 77.7,42.5 77.9,42.5 77.9,42.6 78,42.6 78.1,42.6 78.1,42.6 78.1,42.6 78.2,42.6 
			78.2,42.6 78.2,42.5 78.2,42.5 78.2,42.5 78.3,42.5 78.3,42.5 78.3,42.5 78.3,42.6 78.3,42.6 78.3,42.6 77.7,42.6 77.7,42.6 		"/>
		<polygon class="st1" points="78.7,42.6 78.7,42.5 78.7,42.5 78.8,42.5 78.9,42.6 78.7,42.6 78.7,42.6 		"/>
		<polygon class="st1" points="77.2,42.6 77.2,42.6 77.2,42.8 77.2,43 77.3,43.1 77.4,43.2 77.6,43.3 77.7,43.4 77.8,43.5 78,43.5 
			78.2,43.5 78.3,43.4 78.5,43.3 78.6,43.2 78.7,43.1 78.8,43 78.8,42.8 78.9,42.6 78.9,42.6 78.7,42.6 78.7,42.6 78.7,42.8 
			78.6,42.9 78.6,43 78.5,43.1 78.4,43.2 78.3,43.3 78.1,43.3 78,43.3 77.9,43.3 77.7,43.3 77.6,43.2 77.5,43.1 77.5,43 77.4,42.9 
			77.4,42.8 77.4,42.6 77.4,42.6 77.2,42.6 77.2,42.6 		"/>
		<polygon class="st1" points="77.7,42.6 77.7,43 77.9,43 77.9,42.7 78,42.7 78.2,43 78.3,43 78.1,42.7 78.2,42.7 78.2,42.7 
			78.3,42.6 78.3,42.6 78.3,42.6 77.7,42.6 77.7,42.6 		"/>
		<path class="st3" d="M51.3,31.8l0-0.4l-0.1-0.3l-0.1-0.3l-0.1-0.2l-0.2-0.2l-0.2-0.2l-0.2-0.1L50.1,30l-0.2-0.1l-0.2-0.1l-0.2,0
			l-0.2,0l-0.2,0l-0.5,0L48,29.9L47.6,30l-0.3,0.1L47,30.3l-0.3,0.2l-0.2,0.2L46.3,31l-0.2,0.2L46,31.5l-0.1,0.3L45.8,32l-0.1,0.3
			l0,0.2l0,0.2l0,0.2l0,0.5l0,0.4l0.1,0.4l0.1,0.3l0.1,0.3l0.2,0.3l0.2,0.2l0.2,0.2l0.2,0.2l0.3,0.1l0.3,0.1l0.3,0.1l0.3,0.1l0.3,0
			l0.3,0l0.3,0H49l0.2,0h0.2l0.2,0l0.1,0l0.1,0l0.1,0l0.1,0l0.1,0l0.1,0l0.1,0l0.1,0l0.1,0l0.1,0l0.1,0l0.1,0l0.2-1.5l-0.2,0.1
			l-0.2,0.1l-0.2,0.1l-0.2,0.1l-0.2,0.1l-0.2,0l-0.2,0l-0.2,0l-0.2,0l-0.2,0h-0.2l-0.2,0l-0.2,0l-0.2,0l-0.1,0l-0.2,0l-0.1,0l-0.1,0
			L48,34.8l-0.1-0.1l-0.1-0.1l-0.1-0.1l-0.1-0.1l-0.1-0.1l-0.1-0.1l-0.1-0.1l0-0.1l0-0.1l0-0.1l0-0.1l0-0.1l0-0.1h3.8l0-0.4l0.1-0.5
			l0-0.5L51.3,31.8z M49.7,32.3h-2.2l0,0l0,0l0-0.1l0-0.1l0-0.1l0-0.1l0.1-0.1l0.1-0.1l0.1-0.1l0.1-0.1l0.1-0.1l0.1-0.1l0.1-0.1
			l0.1-0.1l0.1,0l0.1,0l0.1,0l0.1,0l0.1,0l0.1,0l0.1,0l0.1,0l0.1,0l0.1,0l0.1,0.1l0.1,0.1l0.1,0.1l0.1,0.1l0.1,0.1l0,0.1l0,0.1
			l0,0.1l0,0.1l0,0.1L49.7,32.3z"/>
	</g>
</g>
</svg>
