<?xml version="1.0" encoding="utf-8"?>
<!-- Generator: Adobe Illustrator 19.2.1, SVG Export Plug-In . SVG Version: 6.00 Build 0)  -->
<svg version="1.1" id="Calque_1" xmlns="http://www.w3.org/2000/svg" xmlns:xlink="http://www.w3.org/1999/xlink" x="0px" y="0px"
	 width="100px" height="100px" viewBox="0 0 100 100" style="enable-background:new 0 0 100 100;" xml:space="preserve">
<style type="text/css">
	.st0{fill:#FFFFFF;}
</style>
<title>Cloudy Night</title>
<path class="st0" d="M67.9,98.9H24.3C11.5,99,1.1,88.7,1,76C0.9,65,8.6,55.4,19.4,53.2C22,39.6,35.1,30.6,48.7,33.3
	c7.7,1.5,14.2,6.5,17.7,13.5C74.8,47,81.3,54.1,81,62.4c0,1-0.2,2.1-0.4,3.1c7.9,7,8.6,19.1,1.6,27C78.6,96.6,73.4,98.9,67.9,98.9z
	 M44,39.3c-9.7-0.1-17.7,7.3-18.5,17c-0.1,1.6-1.4,2.8-2.9,3c-9.1,1-15.7,9.2-14.7,18.3c0.9,8.4,7.9,14.7,16.4,14.8h43.6
	c7,0,12.7-5.7,12.7-12.6c-0.1-4.2-2.2-8.1-5.6-10.5c-1.3-0.9-1.7-2.5-1.1-4c1.9-4.4-0.1-9.4-4.4-11.4c-1.5-0.7-3.1-0.9-4.7-0.6
	c-1.5,0.2-2.9-0.7-3.4-2.1c-2.7-7.2-9.6-11.9-17.3-11.9l0,0L44,39.3z M89.8,62.5c-1.8,0-3.3-1.4-3.3-3.2c0-1.2,0.7-2.4,1.8-2.9
	C74.9,45.8,72.6,26.4,83.1,13c1.5-1.9,3.1-3.6,5-5c-1.4-0.3-2.9-0.4-4.3-0.4c-11.5,0-21.4,7.9-24,19.1c-0.5,1.7-2.3,2.7-4.1,2.2
	c-1.6-0.5-2.6-2-2.3-3.6C56.7,11.1,69.3,1.1,83.8,1.1c4.6,0,9.1,1.1,13.3,3.1c1.6,0.8,2.3,2.7,1.6,4.3c-0.3,0.7-0.9,1.2-1.6,1.6
	c-12.2,5.8-17.4,20.4-11.6,32.6c2.4,5.1,6.5,9.2,11.6,11.6c1.6,0.8,2.3,2.7,1.5,4.3c-0.3,0.7-0.9,1.2-1.5,1.5
	c-2.1,1-4.3,1.8-6.6,2.3C90.3,62.4,90,62.4,89.8,62.5L89.8,62.5z"/>
</svg>
