<?xml version="1.0" encoding="utf-8"?>
<!-- Generator: Adobe Illustrator 18.0.0, SVG Export Plug-In . SVG Version: 6.00 Build 0)  -->
<!DOCTYPE svg PUBLIC "-//W3C//DTD SVG 1.1//EN" "http://www.w3.org/Graphics/SVG/1.1/DTD/svg11.dtd">
<svg version="1.1" id="Calque_1" xmlns="http://www.w3.org/2000/svg" xmlns:xlink="http://www.w3.org/1999/xlink" x="0px" y="0px"
	 width="75px" height="112px" viewBox="0 0 75 112" enable-background="new 0 0 75 112" xml:space="preserve">
<g>
	<g>
		<path d="M71.3,15.5H60v-3.7c0-2.6-1.8-5.3-6.7-5.3h-9.4c-0.4-3.4-2-4.5-5.5-4.5h-0.6c-2.7,0-5.3,0.4-6,4.5h-9.4
			c-4.4,0-7.3,2.1-7.3,5.3v3.7H3.8c-1.2,0-2.2,1-2.2,2.2v90c0,1.2,1,2.2,2.2,2.2h67.5c1.2,0,2.2-1,2.2-2.2v-90
			C73.5,16.5,72.5,15.5,71.3,15.5z M19.5,11.8c0-0.3,1.1-0.8,2.8-0.8h11.5c1.2,0,2.2-1,2.2-2.2c0-1.6,0.2-2.1,0.2-2.2
			c0.2-0.1,1-0.1,1.5-0.1h0.6c0.3,0,0.7,0,1,0c0.1,0.3,0.1,1,0.1,2.2c0,1.2,1,2.2,2.2,2.2h11.5c0.7,0,2.2,0.1,2.2,0.8v3.7h-36V11.8z
			 M69,105.5H6V20h63V105.5z M31.5,77.9c0.4,0.4,1,0.7,1.6,0.7c0.1,0,0.1,0,0.2,0c0.7-0.1,1.3-0.4,1.6-1l18-27.2
			c0.7-1,0.4-2.4-0.6-3.1c-1-0.7-2.4-0.4-3.1,0.6L32.7,72.8l-7.3-7.2c-0.9-0.9-2.3-0.9-3.2,0c-0.9,0.9-0.9,2.3,0,3.2L31.5,77.9z"/>
	</g>
</g>
</svg>
