<?xml version="1.0" encoding="utf-8"?>
<!-- Generator: Adobe Illustrator 18.0.0, SVG Export Plug-In . SVG Version: 6.00 Build 0)  -->
<!DOCTYPE svg PUBLIC "-//W3C//DTD SVG 1.1//EN" "http://www.w3.org/Graphics/SVG/1.1/DTD/svg11.dtd">
<svg version="1.1" id="Calque_1" xmlns="http://www.w3.org/2000/svg" xmlns:xlink="http://www.w3.org/1999/xlink" x="0px" y="0px"
	 width="112px" height="82px" viewBox="0 0 112 82" enable-background="new 0 0 112 82" xml:space="preserve">
<path fill="#0055FF" d="M109.8,11.2c-2.4-5.9-9.1-8.7-14.9-6.3c0,0,0,0,0,0l-19.7,8.7L45.7,1.2c-0.6-0.2-1.2-0.2-1.7,0L27,8.3
	c-0.9,0.4-1.4,1.2-1.4,2.1c0,0.9,0.6,1.8,1.4,2.1l25.8,10.8L33.4,32l-12.8-6.5c-0.6-0.3-1.3-0.3-1.9-0.1l-16,7
	c-0.7,0.3-1.2,0.9-1.3,1.7c-0.1,0.8,0.1,1.5,0.6,2.1l20.6,20.9c0.6,0.7,1.6,0.9,2.5,0.5l29.5-12L42.6,77.8c-0.3,0.9-0.1,1.9,0.6,2.5
	c0.4,0.4,1,0.6,1.5,0.6c0.3,0,0.7-0.1,1-0.2L64,71.5c0.4-0.2,0.8-0.6,1-1l17.9-36.3l20.7-7.8c2.8-1.2,5-3.4,6.2-6.3
	C111,17.2,111,14,109.8,11.2z M33.9,10.4l10.9-4.6l24.6,10.3l-10.7,4.7L33.9,10.4z M105.6,18.3c-0.7,1.7-2,3.1-3.6,3.7l-21.5,8.1
	c-0.5,0.2-1,0.6-1.2,1.1L61.3,67.7l-12.4,6.3l11.7-31.6c0.3-0.9,0.1-1.8-0.5-2.5c-0.4-0.4-1-0.7-1.6-0.7c-0.3,0-0.6,0.1-0.8,0.2
	L24.7,52.7L7.6,35.4l11.9-5.2l12.8,6.5c0.6,0.3,1.3,0.3,1.9,0.1L96.7,9.2c1.7-0.7,3.5-0.7,5.2,0c1.7,0.7,3,2,3.7,3.8
	C106.3,14.6,106.3,16.5,105.6,18.3z"/>
</svg>
