<?xml version="1.0" encoding="utf-8"?>
<!-- Generator: Adobe Illustrator 18.0.0, SVG Export Plug-In . SVG Version: 6.00 Build 0)  -->
<!DOCTYPE svg PUBLIC "-//W3C//DTD SVG 1.1//EN" "http://www.w3.org/Graphics/SVG/1.1/DTD/svg11.dtd">
<svg version="1.1" id="Calque_1" xmlns="http://www.w3.org/2000/svg" xmlns:xlink="http://www.w3.org/1999/xlink" x="0px" y="0px"
	 width="110px" height="82px" viewBox="0 0 110 82" enable-background="new 0 0 110 82" xml:space="preserve">
<path fill="#0055FF" d="M108.1,60.1c-1.3-3.2-3.8-5.7-7-7c0,0,0,0-0.1,0l-22.4-8.7L65,10.4c-0.3-0.6-0.7-1.1-1.4-1.4l-18-7.7
	c-1-0.4-2-0.2-2.8,0.5c-0.7,0.7-1,1.8-0.6,2.8l11.4,30l-24.9-9.7l-4.8-14.3c-0.2-0.7-0.8-1.3-1.4-1.6l-18-7.7C3.7,0.9,2.7,1,2,1.4
	C1.3,1.9,0.9,2.7,0.9,3.6v33.5c0,1.1,0.6,2,1.6,2.4l33.1,13.3L2.4,68.3c-0.9,0.4-1.5,1.4-1.5,2.4c0,1,0.7,1.9,1.7,2.3l20.6,7.7
	c0.3,0.1,0.6,0.2,0.9,0.2c0.2,0,0.5,0,0.7-0.1l42.9-12.7L91.4,77c3.2,1.3,6.7,1.3,9.8,0c3.2-1.3,5.6-3.8,7-7
	C109.5,66.8,109.5,63.3,108.1,60.1z M49.1,8.4l11.5,4.9l11.6,28.5L60,37.1L49.1,8.4z M103.4,68c-0.8,1.9-2.3,3.4-4.2,4.2
	c-1.9,0.8-4,0.8-6,0l-24.6-9.1c-0.5-0.2-1.1-0.2-1.6-0.1L24.1,75.7l-14-5.3l33-15.5c0.9-0.4,1.5-1.4,1.5-2.4c0-1-0.7-1.9-1.6-2.3
	L6,35.4V7.5l13.4,5.7l4.8,14.4c0.2,0.7,0.8,1.3,1.5,1.6l73.6,28.7c1.9,0.8,3.4,2.3,4.1,4.2C104.2,64,104.2,66.1,103.4,68z"/>
</svg>
