<?xml version="1.0" encoding="utf-8"?>
<!-- Generator: Adobe Illustrator 18.0.0, SVG Export Plug-In . SVG Version: 6.00 Build 0)  -->
<!DOCTYPE svg PUBLIC "-//W3C//DTD SVG 1.1//EN" "http://www.w3.org/Graphics/SVG/1.1/DTD/svg11.dtd">
<svg version="1.1" id="Calque_1" xmlns="http://www.w3.org/2000/svg" xmlns:xlink="http://www.w3.org/1999/xlink" x="0px" y="0px"
	 width="104px" height="104px" viewBox="0 0 104 104" enable-background="new 0 0 104 104" xml:space="preserve">
<g>
	<g>
		<path d="M99.9,89.5L71.8,61.4c10-14.8,8.5-35.1-4.7-48.2C59.9,6,50.3,2,40.1,2c-10.2,0-19.8,4-27,11.2c-14.9,14.9-14.9,39,0,53.9
			c7.2,7.2,16.8,11.2,27,11.2c7.7,0,15-2.3,21.2-6.4l28.1,28.1c1.3,1.3,3.1,2.1,5,2.1c1.9,0,3.7-0.7,5-2.1l0.4-0.4
			C102.7,96.8,102.7,92.3,99.9,89.5z M16.3,63.9c-13.1-13.1-13.1-34.5,0-47.6c6.4-6.4,14.8-9.9,23.8-9.9c9,0,17.5,3.5,23.8,9.9
			c13.1,13,13.1,34.2,0.2,47.4l-0.5,0.5c-6.3,6.2-14.7,9.6-23.6,9.6C31.1,73.8,22.7,70.3,16.3,63.9z M96.8,96.4l-0.4,0.4
			c-1,1-2.8,1-3.8,0L65,69.2l1.8-1.8c0.1-0.1,0.2-0.2,0.3-0.2c0.1-0.1,0.1-0.2,0.2-0.3l1.8-1.8l27.7,27.6
			C97.8,93.7,97.8,95.4,96.8,96.4z"/>
	</g>
</g>
</svg>
