<?xml version="1.0" encoding="utf-8"?>
<!-- Generator: Adobe Illustrator 20.0.0, SVG Export Plug-In . SVG Version: 6.00 Build 0)  -->
<svg version="1.1" id="Calque_1" xmlns="http://www.w3.org/2000/svg" xmlns:xlink="http://www.w3.org/1999/xlink" x="0px" y="0px"
	 width="50px" height="94px" viewBox="0 0 50 94" style="enable-background:new 0 0 50 94;" xml:space="preserve">
<style type="text/css">
	.st0{fill:#0EADFF;}
</style>
<path class="st0" d="M31,1C16.1,1,7,11.2,7,23c-1,0-2.1,0.4-2.9,1.1S3,26,3,27v60c0,3.5,3.3,6,6.8,6h30.4c3.5,0,6.8-2.5,6.8-6V27
	c0-2.3-1.9-4-4-4c0-4.7-3.4-7.8-6.3-9.6c-1.9-1.1-2.8-1.2-3.9-1.6c0.1-0.1,0.1-0.3,0.2-0.4c0.4-0.3,1.1-0.5,1.8-0.5h3.8
	c0.5,0,1-0.1,1.6-0.5c0.4-0.3,0.6-1,0.8-1.6L41.3,9l1.2-4V4.9l0.1-0.1c0.2-0.8,0.1-1.8-0.4-2.6S40.5,1,39.6,1H31z M31,5h7.3l-0.6,2
	h-2.9c-1.5,0-3,0.4-4.3,1.4s-2.2,2.7-2.2,4.6v1.6l1.6,0.3c0,0,2.4,0.6,4.8,1.9S39,20.1,39,23H11C11,13.2,17.9,5,31,5z M7,27h36v60
	c0,0.9-1.1,2-2.8,2H9.8C8.1,89,7,87.9,7,87V27z"/>
</svg>
