<?xml version="1.0" encoding="utf-8"?>
<!-- Generator: Adobe Illustrator 19.2.1, SVG Export Plug-In . SVG Version: 6.00 Build 0)  -->
<svg version="1.1" id="Calque_1" xmlns="http://www.w3.org/2000/svg" xmlns:xlink="http://www.w3.org/1999/xlink" x="0px" y="0px"
	 width="100px" height="100px" viewBox="0 0 100 100" style="enable-background:new 0 0 100 100;" xml:space="preserve">
<style type="text/css">
	.st0{fill:#FFFFFF;}
</style>
<title>icon-snow</title>
<path class="st0" d="M73.9,66.9H30.1c-12.8,0.2-23.2-10-23.4-22.8C6.5,33,14.3,23.4,25.2,21.2C28.1,7.4,41.6-1.4,55.4,1.6
	C62.8,3.1,69.1,8,72.6,14.7c4.6,0.2,8.8,2.4,11.6,6.1C87,24.4,88,29,86.9,33.4c4.1,3.6,6.5,8.8,6.4,14.3
	C93.3,58.3,84.6,67,73.9,66.9z M49.9,7.7c-9.6-0.1-17.6,7.2-18.4,16.7c-0.1,1.7-1.5,3-3.1,3.1c-9,0.7-15.7,8.5-15.1,17.5
	c0.6,8.7,8,15.3,16.7,15.1h43.8c6.9,0,12.5-5.5,12.6-12.4c0,0,0,0,0,0c0-4.1-2.1-8-5.5-10.3c-1.4-0.9-1.9-2.7-1.3-4.2
	c1.2-2.8,0.9-6-1-8.4c-1.9-2.4-4.9-3.7-7.9-3.3c-1.6,0.2-3.1-0.7-3.6-2.2C64.4,12.3,57.5,7.6,49.9,7.7z M50.6,99
	c-1.6,0-2.9-1.4-2.9-3c0-1.6,1.4-2.9,3-2.9c1.6,0,2.9,1.3,2.9,3C53.6,97.7,52.3,99,50.6,99C50.6,99,50.6,99,50.6,99z M32.3,99
	c-1.6,0-3-1.3-3-3c0-1.6,1.3-3,3-3c1.6,0.1,2.9,1.3,3,2.9C35.4,97.6,34,99,32.3,99C32.4,99,32.4,99,32.3,99L32.3,99L32.3,99z
	 M13.9,99c-1.6,0-3-1.4-2.9-3c0-1.6,1.4-3,3-2.9c1.6,0,3,1.4,2.9,3C16.9,97.7,15.6,99,13.9,99C13.9,99,13.9,99,13.9,99
	C13.9,99,13.9,99,13.9,99z M59.9,92.2c-1.6,0-3-1.3-3-3c0-1.6,1.3-3,3-3l0,0c1.6,0.1,2.9,1.4,3,3C62.9,90.8,61.6,92.2,59.9,92.2
	C59.9,92.2,59.9,92.2,59.9,92.2L59.9,92.2L59.9,92.2z M41.5,92.2c-1.6,0-3-1.4-2.9-3c0-1.6,1.4-3,3-2.9c1.6,0,2.9,1.3,2.9,3
	C44.5,90.8,43.1,92.2,41.5,92.2C41.5,92.2,41.5,92.2,41.5,92.2L41.5,92.2L41.5,92.2z M23,92.2c-1.6,0-3-1.3-3-3c0-1.6,1.3-3,3-3l0,0
	c1.6,0,3,1.2,3,2.8c0,0,0,0.1,0,0.1c0,0,0,0,0,0.1c0,1.7-1.4,3-3,3c0,0,0,0,0,0l0,0L23,92.2z M69,85.3c-1.6,0-3-1.4-2.9-3
	c0-1.6,1.4-3,3-2.9c1.6,0,2.9,1.3,2.9,3C72,84,70.7,85.3,69,85.3C69,85.3,69,85.3,69,85.3L69,85.3z M50.6,85.3c-1.6,0-2.9-1.4-2.9-3
	c0-1.6,1.4-2.9,3-2.9c1.6,0,2.9,1.3,2.9,3C53.6,84,52.3,85.3,50.6,85.3C50.6,85.3,50.6,85.3,50.6,85.3L50.6,85.3z M32.3,85.3
	c-1.6,0-3-1.3-3-3c0-1.6,1.3-3,3-3c1.6,0,3,1.3,3,3C35.3,84,34,85.3,32.3,85.3C32.3,85.3,32.3,85.3,32.3,85.3
	C32.3,85.3,32.3,85.3,32.3,85.3z M14,85.3c-1.6,0-3-1.4-2.9-3s1.4-3,3-2.9c1.6,0,2.9,1.3,2.9,3C17,84,15.7,85.3,14,85.3L14,85.3
	L14,85.3z M59.9,78.6c-1.6,0-3-1.3-3-3c0-1.6,1.3-3,3-3l0,0c1.6,0,3,1.3,3,3C62.9,77.3,61.5,78.6,59.9,78.6
	C59.9,78.6,59.9,78.6,59.9,78.6C59.9,78.6,59.9,78.6,59.9,78.6z M41.5,78.6c-1.6,0-2.9-1.4-2.9-3c0-1.6,1.4-2.9,3-2.9
	c1.6,0,2.9,1.3,2.9,3C44.5,77.3,43.2,78.6,41.5,78.6C41.5,78.6,41.5,78.6,41.5,78.6C41.5,78.6,41.5,78.6,41.5,78.6z M23,78.6
	c-1.6,0-3-1.3-3-3c0-1.6,1.3-3,3-3l0,0c1.6,0,3,1.2,3,2.8c0,0,0,0,0,0c0,0,0,0,0,0.1C26,77.3,24.6,78.6,23,78.6
	C23,78.6,23,78.6,23,78.6L23,78.6L23,78.6z"/>
</svg>
