<svg xmlns="http://www.w3.org/2000/svg" viewBox="0 0 57 49" width="57" height="49">
	<style>
		tspan { white-space:pre }
		.shp0 { fill: #ffffff } 
	</style>
	<g id="np_parking_1541332_000000 copy 4">
		<path id="Shape" fill-rule="evenodd" class="shp0" d="M56.17 0C56.39 0 56.6 0.08 56.76 0.23C56.91 0.38 57 0.59 57 0.8L57 18.4C57 18.61 56.91 18.82 56.76 18.97C56.6 19.12 56.39 19.2 56.17 19.2L49.5 19.2L49.5 47.2C49.5 47.41 49.41 47.62 49.26 47.77C49.1 47.92 48.89 48 48.67 48L45.33 48C45.11 48 44.9 47.92 44.74 47.77C44.59 47.62 44.5 47.41 44.5 47.2L44.5 19.2L37.83 19.2C37.61 19.2 37.4 19.12 37.24 18.97C37.09 18.82 37 18.61 37 18.4L37 0.8C37 0.36 37.37 0 37.83 0L56.17 0ZM47.83 19.2L46.17 19.2L46.17 46.4L47.83 46.4L47.83 19.2ZM55.33 1.6L38.67 1.6L38.67 17.6L55.33 17.6L55.33 1.6Z" />
		<path id="Shape" fill-rule="evenodd" class="shp0" d="M44.77 16C44.57 16 44.37 15.92 44.23 15.78C44.08 15.64 44 15.45 44 15.25L44 4.75C44 4.34 44.35 4 44.77 4L47.87 4C48.71 3.99 49.5 4.31 50.09 4.88C50.67 5.44 51 6.2 51 7C51 7.8 50.67 8.56 50.09 9.12C49.5 9.69 48.71 10.01 47.87 10L45.55 10L45.55 15.25C45.55 15.45 45.47 15.64 45.32 15.78C45.18 15.92 44.98 16 44.77 16L44.77 16ZM45.55 8.5L47.87 8.5C48.3 8.5 48.7 8.34 49.01 8.06C49.61 7.47 49.61 6.53 49.01 5.94C48.7 5.66 48.3 5.5 47.87 5.5L45.55 5.5L45.55 8.5Z" />
	</g>
	<g id="icon icon-car-parking copy 4">
		<g id="svg">
			<g id="Group">
				<path id="Shape" fill-rule="evenodd" class="shp0" d="M31.3 35.74C32.6 35.74 33.62 36.76 33.58 37.94C33.58 39.43 32.43 40.09 31.58 40.55L31.1 40.81C30.04 41.4 29.43 41.73 28.07 41.73C26.37 41.73 24.97 40.38 24.97 38.74C24.97 37.09 26.37 35.74 28.07 35.74L31.3 35.74ZM30.93 39.43C31.85 38.9 32.26 38.6 32.29 38.01C32.29 37.48 31.85 37.09 31.34 37.09L28.1 37.09C27.15 37.09 26.37 37.85 26.37 38.77C26.37 39.69 27.15 40.45 28.1 40.45C29.12 40.45 29.43 40.25 30.45 39.69L30.93 39.43ZM15 38.77C15 40.42 13.6 41.77 11.9 41.77C10.54 41.77 9.96 41.44 8.87 40.84L8.39 40.58C7.51 40.12 6.35 39.46 6.35 37.98C6.35 36.73 7.4 35.74 8.66 35.74L11.9 35.74C13.63 35.74 15.03 37.09 15 38.77ZM13.67 38.74C13.67 37.81 12.88 37.06 11.93 37.06L8.7 37.06C8.15 37.06 7.74 37.48 7.74 37.98C7.74 38.6 8.12 38.9 9.07 39.43L9.55 39.69C10.57 40.25 10.91 40.45 11.9 40.45C12.88 40.45 13.67 39.66 13.67 38.74Z" />
				<path id="Shape" fill-rule="evenodd" class="shp0" d="M39.3 32.97C39.3 33.63 39 34.75 36.95 34.75L35.42 34.75C35.76 35.64 36 36.23 36.03 36.33L36.07 36.43L36.07 45.79C36.07 47.04 35.01 48.03 33.75 48.03L30.52 48.03C29.23 48.03 28.2 47.01 28.2 45.79L28.2 44.9L11.8 44.9L11.8 45.79C11.8 47.04 10.74 48.03 9.48 48.03L6.25 48.03C4.95 48.03 3.93 47.01 3.93 45.79L3.93 36.4L3.96 36.3C4 36.2 4.24 35.61 4.58 34.72L3.05 34.72C1 34.72 0.7 33.6 0.7 32.94C0.7 31.65 1.55 30.27 3.9 30.27L6.35 30.27C7.34 27.83 8.29 25.49 8.53 24.99C9.31 23.51 11.15 22.89 12.37 22.49C12.75 22.36 14.65 21.67 20 21.67C25.28 21.67 27.22 22.33 27.59 22.49C28.95 22.85 30.79 23.51 31.44 24.96C31.71 25.62 32.66 27.93 33.62 30.27L36.1 30.27C38.45 30.27 39.27 31.65 39.3 32.97ZM7.78 30.37L7.81 30.37L7.74 30.53C7.54 30.99 7.13 32.01 7.54 32.61C7.91 33.13 8.87 33.4 10.3 33.4L29.7 33.4C31.17 33.4 32.12 33.1 32.46 32.61C32.87 32.01 32.46 31.02 32.26 30.53L32.19 30.37C31.3 28.16 30.45 26.08 30.18 25.49C29.7 24.43 27.8 23.91 27.18 23.74L27.08 23.71C27.05 23.71 25.34 22.98 20 22.98C14.65 22.98 12.92 23.71 12.92 23.71L12.85 23.74C11.76 24.11 10.3 24.57 9.75 25.59C9.55 25.98 8.7 28.06 7.78 30.37ZM5.16 33.4C5.39 32.84 5.63 32.21 5.87 31.59L3.93 31.59C2.71 31.59 2.09 32.01 2.09 32.94C2.09 33.17 2.09 33.4 3.08 33.4L5.16 33.4ZM10.4 45.79L10.4 44.9L6.14 44.9C5.84 44.9 5.57 44.83 5.29 44.73L5.29 45.79C5.29 46.31 5.74 46.71 6.25 46.71L9.48 46.71C10.02 46.71 10.43 46.28 10.43 45.79L10.4 45.79ZM34.67 45.79L34.67 44.73C34.4 44.83 34.13 44.9 33.82 44.9L29.57 44.9L29.57 45.79C29.57 46.31 30.01 46.71 30.52 46.71L33.75 46.71C34.26 46.71 34.67 46.31 34.67 45.79ZM34.71 42.79L34.71 36.66C34.54 36.3 34.06 35.05 33.45 33.53C32.77 34.32 31.54 34.72 29.7 34.72L10.3 34.72C8.46 34.72 7.23 34.32 6.55 33.5C6.08 34.75 5.63 35.87 5.33 36.66L5.33 42.79C5.33 43.22 5.7 43.58 6.18 43.58L33.82 43.58C34.3 43.58 34.67 43.22 34.67 42.79L34.71 42.79ZM36.92 33.4C37.91 33.4 37.91 33.17 37.94 32.94C37.94 32.05 37.33 31.59 36.1 31.59L34.13 31.59C34.37 32.21 34.61 32.84 34.84 33.4L36.92 33.4Z" />
			</g>
		</g>
	</g>
</svg>