<?xml version="1.0" encoding="utf-8"?>
<!-- Generator: Adobe Illustrator 19.2.1, SVG Export Plug-In . SVG Version: 6.00 Build 0)  -->
<svg version="1.1" id="Calque_1" xmlns="http://www.w3.org/2000/svg" xmlns:xlink="http://www.w3.org/1999/xlink" x="0px" y="0px"
	 width="100px" height="100px" viewBox="0 0 100 100" style="enable-background:new 0 0 100 100;" xml:space="preserve">
<style type="text/css">
	.st0{fill:#FFFFFF;}
</style>
<title>icon-sunny</title>
<path class="st0" d="M50,74.9c-13.7,0-24.7-11.1-24.7-24.7S36.3,25.4,50,25.4s24.7,11.1,24.7,24.7l0,0C74.7,63.8,63.6,74.9,50,74.9z
	 M50,32.2c-9.9,0-17.9,8-17.9,17.9s8,17.9,17.9,17.9s17.9-8,17.9-17.9l0,0C67.9,40.3,59.9,32.3,50,32.2z M50,99
	c-1.9,0-3.4-1.5-3.4-3.4l0,0v-8.3c-0.2-1.9,1.2-3.5,3.1-3.7c1.9-0.2,3.5,1.2,3.7,3.1c0,0.2,0,0.4,0,0.6v8.3C53.4,97.5,51.9,99,50,99
	L50,99z M83,86.6c-0.9,0-1.8-0.4-2.4-1l-6.2-6.1c-1.4-1.2-1.6-3.4-0.4-4.8c1.2-1.4,3.4-1.6,4.8-0.4l0,0l0.5,0.3l6.2,6.2
	c1.3,1.3,1.3,3.5,0,4.8C84.8,86.2,83.9,86.6,83,86.6L83,86.6z M95.4,53.6h-8.3c-1.9,0.1-3.5-1.4-3.5-3.3c-0.1-1.8,1.3-3.3,3-3.5h8.8
	c1.9,0.2,3.3,1.8,3.1,3.7C98.4,52.1,97.1,53.4,95.4,53.6z M76.9,26.7c-1.9,0-3.4-1.5-3.5-3.4c0-0.9,0.4-1.8,1-2.5l6.2-6.1
	c1.3-1.3,3.5-1.3,4.9,0s1.3,3.5,0,4.9l-6.2,6.1C78.7,26.4,77.8,26.7,76.9,26.7L76.9,26.7L76.9,26.7z M50,16.4
	c-1.9,0-3.4-1.5-3.4-3.4V4.7c-0.2-1.9,1.2-3.5,3.1-3.7s3.5,1.2,3.7,3.1c0,0.2,0,0.4,0,0.6V13C53.4,14.9,51.9,16.4,50,16.4L50,16.4z
	 M23.1,26.7c-0.9,0-1.8-0.3-2.4-1l-6.1-6.2c-1.3-1.3-1.3-3.5,0-4.9s3.5-1.3,4.9,0l0,0l6.1,6.2c1.3,1.3,1.4,3.5,0.1,4.8
	C25,26.3,24.1,26.7,23.1,26.7L23.1,26.7z M12.8,53.6H4.6c-1.9-0.2-3.3-1.8-3.1-3.7c0.1-1.7,1.5-3,3.1-3.1h8.3
	c1.9-0.1,3.5,1.4,3.5,3.3c0.1,1.8-1.3,3.3-3,3.5H12.8z M17,86.6c-1.9,0-3.4-1.5-3.4-3.4c0-0.9,0.4-1.8,1-2.4l6.2-6.2
	c1.2-1.4,3.4-1.6,4.8-0.4c1.4,1.2,1.6,3.4,0.4,4.8l-0.3,0.5l-6.2,6.1C18.7,86.2,17.9,86.6,17,86.6L17,86.6L17,86.6z"/>
</svg>
