<?xml version="1.0" encoding="utf-8"?>
<!-- Generator: Adobe Illustrator 19.2.1, SVG Export Plug-In . SVG Version: 6.00 Build 0)  -->
<svg version="1.1" id="Calque_1" xmlns="http://www.w3.org/2000/svg" xmlns:xlink="http://www.w3.org/1999/xlink" x="0px" y="0px"
	 width="100px" height="92px" viewBox="0 0 100 92" style="enable-background:new 0 0 100 92;" xml:space="preserve">
<style type="text/css">
	.st0{fill:#FFFFFF;}
</style>
<g>
	<g>
		<path class="st0" d="M50.2,50.2c13.7,0,24.9-11,24.9-24.4c0-13.5-11.2-24.5-24.9-24.5c-13.7,0-24.9,11-24.9,24.5
			C25.3,39.2,36.4,50.2,50.2,50.2z M84.8,69.5c-19.4-12.9-46-13.7-66.2-1.9c-5.5,3.2-10.4,7.2-14.7,11.9c-0.8,0.8-1.4,1.8-2.9,3.8
			l10,7.4l1.1-1.5c0.4-0.5,0.7-1.1,1.2-1.5c3.4-3.8,7.4-7,11.7-9.5c16.1-9.4,37.3-8.7,52.8,1.5c4.3,2.9,8.1,6.4,11.2,10.1l0.5,0.8
			l9.5-8.1C95,77.5,90.2,73.1,84.8,69.5z"/>
	</g>
</g>
</svg>
