<?xml version="1.0" encoding="utf-8"?>
<!-- Generator: Adobe Illustrator 19.2.1, SVG Export Plug-In . SVG Version: 6.00 Build 0)  -->
<svg version="1.1" id="Calque_1" xmlns="http://www.w3.org/2000/svg" xmlns:xlink="http://www.w3.org/1999/xlink" x="0px" y="0px"
	 width="100px" height="63px" viewBox="0 0 100 63" style="enable-background:new 0 0 100 63;" xml:space="preserve">
<style type="text/css">
	.st0{fill:#3957A7;}
	.st1{fill:#FFFFFF;}
	.st2{fill:#F9A533;}
</style>
<g>
	<path class="st0" d="M99,58.9c0,1.8-1.5,3.3-3.3,3.3H4.3c-1.8,0-3.3-1.5-3.3-3.3V4.1c0-1.8,1.5-3.3,3.3-3.3h91.5
		c1.8,0,3.3,1.5,3.3,3.3V58.9z"/>
	<g>
		<polygon class="st1" points="46.1,40.7 41.3,40.7 44.3,22.3 49.1,22.3 		"/>
		<path class="st1" d="M37.3,22.3L32.7,35l-0.5-2.7v0L30.6,24c0,0-0.2-1.7-2.3-1.7h-7.5l-0.1,0.3c0,0,2.3,0.5,5,2.1l4.2,16h5
			l7.6-18.4H37.3z"/>
		<path class="st1" d="M74.9,40.7h4.4l-3.8-18.4h-3.8c-1.8,0-2.2,1.4-2.2,1.4l-7.1,17h5l1-2.7h6.1L74.9,40.7z M69.7,34.2l2.5-6.9
			l1.4,6.9H69.7z"/>
		<path class="st1" d="M62.7,26.7l0.7-3.9c0,0-2.1-0.8-4.3-0.8c-2.4,0-8,1-8,6.1c0,4.8,6.6,4.8,6.6,7.3c0,2.5-5.9,2-7.9,0.5L49,40
			c0,0,2.1,1,5.4,1c3.3,0,8.2-1.7,8.2-6.3c0-4.8-6.7-5.2-6.7-7.3C56,25.3,60.6,25.6,62.7,26.7z"/>
	</g>
	<path class="st2" d="M32.2,32.2L30.6,24c0,0-0.2-1.7-2.3-1.7h-7.5l-0.1,0.3c0,0,3.6,0.8,7.1,3.6C31.1,28.9,32.2,32.2,32.2,32.2z"/>
</g>
</svg>
