<?xml version="1.0" encoding="utf-8"?>
<!-- Generator: Adobe Illustrator 19.2.1, SVG Export Plug-In . SVG Version: 6.00 Build 0)  -->
<svg version="1.1" id="Calque_1" xmlns="http://www.w3.org/2000/svg" xmlns:xlink="http://www.w3.org/1999/xlink" x="0px" y="0px"
	 width="100px" height="100px" viewBox="0 0 100 100" style="enable-background:new 0 0 100 100;" xml:space="preserve">
<style type="text/css">
	.st0{fill:#FFFFFF;}
</style>
<g>
	<polygon class="st0" points="44.6,56.8 58.7,49.5 44.6,42.1 	"/>
	<path class="st0" d="M50,1C22.9,1,1,22.9,1,50c0,27.1,21.9,49,49,49c27.1,0,49-21.9,49-49C99,22.9,77.1,1,50,1z M76.2,52
		c0,4.2-0.5,8.5-0.5,8.5s-0.5,3.6-2.1,5.2c-2,2.1-4.2,2.1-5.2,2.2C61,68.4,50,68.4,50,68.4s-13.6-0.1-17.8-0.5
		c-1.2-0.2-3.8-0.2-5.8-2.2c-1.6-1.6-2.1-5.2-2.1-5.2s-0.5-4.2-0.5-8.5v-4c0-4.2,0.5-8.5,0.5-8.5s0.5-3.6,2.1-5.2
		c2-2.1,4.2-2.1,5.2-2.2C39,31.6,50,31.6,50,31.6h0c0,0,11,0,18.3,0.5c1,0.1,3.3,0.1,5.2,2.2c1.6,1.6,2.1,5.2,2.1,5.2
		s0.5,4.2,0.5,8.5V52z"/>
</g>
</svg>
