<svg id="Calque_1" xmlns="http://www.w3.org/2000/svg" width="102" height="90" viewBox="0 0 102 90"><style>.st0{fill:#0eadff}</style><path class="st0" d="M41 1c-3.3 0-6 2.7-6 6v6H7c-3.3 0-6 2.7-6 6v64c0 3.3 2.7 6 6 6h88c3.3 0 6-2.7 6-6V19c0-3.3-2.7-6-6-6H67V7c0-3.3-2.7-6-6-6H41zm0 4h20c1.1 0 2 .9 2 2v6H39V7c0-1.1.9-2 2-2zM7 17h88c1.1 0 2 .9 2 2v30c0 1.1-.9 2-2 2H7c-1.1 0-2-.9-2-2V19c0-1.1.9-2 2-2zm44 22c-2.2 0-4 1.8-4 4s1.8 4 4 4 4-1.8 4-4-1.8-4-4-4zM5 54.6c.6.3 1.3.4 2 .4h88c.7 0 1.4-.1 2-.4V83c0 1.1-.9 2-2 2H7c-1.1 0-2-.9-2-2V54.6z"/></svg>