<svg xmlns="http://www.w3.org/2000/svg" width="98" height="65.8" viewBox="0 0 98 65.8"><path fill="#FFF" d="M67 21.1c-.7-1.3-1.7-3.4-2.3-4.8l-1.5-4c-.5-1.4-2.1-2.5-3.6-2.5H37.7c-1.5 0-3.1 1.1-3.6 2.5l-1.6 4c-.5 1.4-1.5 3.5-2.3 4.8l-1 1.7c-.7 1.3-1.2 3.5-1 4.9l.9 7.7c.2 1.4 1.5 2.6 2.9 2.6h33c1.5 0 2.8-1.2 2.9-2.6l.9-7.7c.2-1.4-.3-3.7-1-4.9l-.8-1.7m-32-3.8l1.6-4c.1-.3.8-.8 1.1-.8h21.9c.4 0 1 .4 1.1.8l1.6 4c.5 1.3 1.4 3.2 2.1 4.6H32.8c.8-1.4 1.7-3.3 2.2-4.6m-1.4 16.3c-1.8 0-3.2-1.4-3.2-3.2 0-1.8 0-3.2 1.8-3.2 4.3 0 8.3 1.9 8.3 4.4-.1 2-5.2 2-6.9 2m20.1 2c0 .5-.4.9-.9.9h-8.5c-.5 0-.9-.4-.9-.9v-2c0-.5.4-.9.9-.9h8.5c.5 0 .9.4.9.9v2zm10-2c-1.8 0-6.9 0-6.9-2 0-2.4 4-4.4 8.3-4.4 1.8 0 1.8 1.4 1.8 3.2 0 1.8-1.4 3.2-3.2 3.2M31.8 43.7c0 .6.5 1 1 1h4.3c.6 0 1-.5 1-1V39h-6.4v4.7M59.1 43.7c0 .6.5 1 1 1h4.3c.6 0 1-.5 1-1V39H59v4.7M69.9 19.1c0-.4-.3-.6-.7-.5l-2.2.6c.3.5.5 1 .7 1.4l.8 1.5.9-.6c.3-.2.5-.7.5-1v-1.4M29.5 20.6c.2-.4.5-.9.7-1.4l-2.2-.6c-.3-.1-.6.1-.7.5l-.1 1.4c0 .4.2.8.5 1l.9.6.9-1.5"/><path fill="#FF5000" d="M59.2 17.2c0 1.8-1.5 3.3-3.3 3.3-1.8 0-3.3-1.5-3.3-3.3 0-1.8 1.5-3.3 3.3-3.3 1.8 0 3.3 1.5 3.3 3.3"/><path fill="#FFF" d="M57.5 7.8c-.4-.4-1-.6-1.6-.6-.6 0-1.1.2-1.6.6-.2.2-.7.2-.9 0-.2-.2-.2-.7 0-.9.7-.7 1.6-1 2.5-1s1.8.3 2.5 1c.2.2.2.6 0 .9-.1.1-.3.2-.5.2-.1 0-.3-.1-.4-.2M51.8 5.5c-.2-.2-.2-.7 0-.9 1.1-1.1 2.6-1.7 4.1-1.7 1.5 0 3 .6 4.1 1.7.2.2.2.7 0 .9-.2.2-.6.2-.9 0-.9-.9-2.1-1.3-3.2-1.3-1.2 0-2.3.4-3.2 1.3-.1.1-.3.2-.5.2-.1 0-.3-.1-.4-.2"/><path fill="#FFF" d="M61.6 3.6C60 2 58 1.2 55.9 1.2s-4.1.8-5.7 2.4c-.2.2-.7.2-.9 0-.3-.2-.3-.6 0-.9C51.1.9 53.5 0 55.9 0c2.4 0 4.8.9 6.6 2.7.2.2.2.7 0 .9-.1.1-.3.2-.5.2-.1 0-.2 0-.4-.2"/><path fill="#FF5000" d="M13.1 52.7c-.1-.3-.3-.5-.5-.6-.5-.6-1.2-1-1.9-1.4-.7-.3-1.6-.5-2.6-.5-2.3 0-4.3 1.1-5.8 2.7C.9 54.6 0 56.8 0 59.2c0 2 .7 3.7 1.8 4.8s2.7 1.8 4.6 1.8c1.7 0 3.4-.6 4.4-1.6.3-.3.6-.8.6-1.4 0-.5-.2-.9-.4-1.3-.3-.3-.7-.6-1.2-.6s-.8.2-1.1.4c-.4.3-.8.5-1.1.7-.3.1-.7.2-1.2.2-.8 0-1.5-.3-2-.9-.5-.5-.8-1.3-.8-2.3 0-1.5.5-2.8 1.3-3.8s1.9-1.5 2.9-1.5c.6 0 1.1.1 1.5.3.4.2.7.5 1 .9.2.2.3.3.6.4.2.1.4.1.7.1.5 0 1-.2 1.3-.6.3-.4.5-.8.5-1.4-.1-.1-.2-.4-.3-.7M25.1 51c-.3-.3-.7-.5-1.1-.5h-7c-.5 0-.9.2-1.2.5-.3.3-.6.8-.7 1.3l-2.6 10.8c-.1.3-.1.5-.1.8 0 .5.1.9.4 1.2.3.3.7.5 1.1.5h7.2c.4 0 .8-.2 1.1-.5.3-.3.5-.7.5-1.2s-.2-.9-.5-1.2c-.3-.3-.7-.5-1.1-.5h-5l.6-2.4h4.9c.4 0 .8-.2 1.1-.5.3-.3.5-.7.5-1.2s-.2-.9-.5-1.2c-.3-.3-.7-.5-1.1-.5h-4.1l.6-2.3h5.7c.4 0 .8-.2 1.1-.5.3-.3.5-.7.5-1.2.1-.7-.1-1.1-.3-1.4M33.9 62.6c-.3-.3-.7-.5-1.1-.5h-4.5l2.2-9.2c.1-.3.1-.5.1-.8 0-.5-.1-.9-.4-1.2-.3-.3-.7-.5-1.1-.5-.5 0-.9.2-1.2.5-.3.3-.6.8-.7 1.3l-2.6 10.9c-.1.3-.1.5-.1.8 0 .5.1.9.4 1.2.3.3.7.5 1.1.5h6.8c.4 0 .8-.2 1.1-.5.3-.3.5-.8.5-1.2-.1-.6-.3-1-.5-1.3M45.1 62.6c-.3-.3-.7-.5-1.1-.5h-4.5l2.2-9.2c.1-.3.1-.5.1-.8 0-.5-.1-.9-.4-1.2-.3-.3-.7-.5-1.1-.5-.5 0-.9.2-1.2.5-.3.3-.6.8-.7 1.3l-2.6 10.9c-.1.3-.1.5-.1.8 0 .5.1.9.4 1.2.3.3.7.5 1.1.5H44c.4 0 .8-.2 1.1-.5.3-.3.5-.8.5-1.2-.1-.6-.2-1-.5-1.3"/><path fill="#FFF" d="M47.4 51.3c0-.5.3-.9.7-.9h4.3c3 0 5 1.8 5 4.8 0 3.2-2.4 4.9-5.3 4.9h-3.3v4.6c0 .5-.3.9-.8.9-.4 0-.7-.4-.7-.9V51.3m4.9 7.3c2.2 0 3.7-1.3 3.7-3.3 0-2.2-1.4-3.3-3.6-3.3h-3.4v6.6h3.3zM57.2 64.4L62.6 51c.2-.5.5-.8 1-.8h.1c.5 0 .8.3.9.8L70 64.3c.1.2.1.3.1.4 0 .5-.3.8-.7.8-.4 0-.6-.3-.7-.6l-1.4-3.5h-7.4L58.5 65c-.1.4-.4.6-.7.6-.4 0-.7-.3-.7-.8 0-.1 0-.3.1-.4m9.4-4.4l-3.1-7.7-3 7.7h6.1zM72 51.3c0-.5.3-.9.7-.9h5c1.6 0 3 .6 3.8 1.5.7.7 1 1.8 1 3 0 2.5-1.5 3.9-3.6 4.4l3.3 4.8c.2.2.2.4.2.6 0 .5-.4.8-.8.8-.3 0-.5-.2-.7-.5l-3.8-5.5h-3.9v5.1c0 .5-.3.9-.8.9-.4 0-.7-.4-.7-.9V51.3m6 6.8c2 0 3.4-1.2 3.4-3.1 0-1.8-1.3-3-3.4-3h-4.1v6.1h4.1zM84.3 58c0-4.2 2.8-7.8 6.9-7.8 4.1 0 6.8 3.6 6.8 7.7 0 1.9-.6 3.7-1.6 5.1l1.3 1.2c.2.2.3.4.3.7 0 .5-.3.8-.7.8-.2 0-.4-.1-.6-.3l-1.3-1.3c-1.1 1-2.6 1.6-4.2 1.6-4.1 0-6.9-3.6-6.9-7.7m7.6 2.4c0-.5.3-.9.7-.9.2 0 .4.1.6.3l2.1 2.1c.7-1.1 1.1-2.4 1.1-3.9 0-3.4-2.2-6.2-5.3-6.2s-5.2 2.8-5.2 6.2c0 3.4 2.2 6.2 5.3 6.2 1.2 0 2.3-.4 3.1-1.1l-2-2c-.3-.2-.4-.4-.4-.7"/></svg>