<svg id="Calque_1" xmlns="http://www.w3.org/2000/svg" width="100" height="100" viewBox="0 0 100 100"><style>.st0{fill:#fff}</style><title>icon-night</title><path class="st0" d="M70.1 99C43 98.9 21.2 76.9 21.3 49.8 21.4 22.8 43.4.9 70.4 1c1.8 0 3.6.1 5.4.3 1.5.2 2.6 1.3 2.9 2.7.2 1.4-.5 2.9-1.8 3.5-16 8.1-26 24.6-25.7 42.5-.3 17.9 9.7 34.4 25.7 42.5 1.3.6 2.1 2 1.8 3.5-.3 1.4-1.4 2.5-2.9 2.7-1.9.2-3.8.3-5.7.3zM64 7.9c-23.2 3-39.6 24.1-36.7 47.4C29.7 74.5 44.8 89.6 64 92c-23.2-19.6-26.1-54.4-6.5-77.6 2-2.3 4.2-4.5 6.5-6.5z"/></svg>