<svg id="Calque_1" xmlns="http://www.w3.org/2000/svg" width="100" height="100" viewBox="0 0 100 100"><style>.st0{fill:#fff}</style><path class="st0" d="M24.6 2c-3.9 0-6.7 1.3-8.4 3.3S14 9.9 14 12c0 5.1 2.8 9.3 6.6 11.9 1.2.8 2.4 1.5 3.8 2.1H2v22h4v50h88V48h4V26H75.7c1.3-.6 2.6-1.2 3.8-2.1C83.2 21.3 86 17.1 86 12c0-2.1-.5-4.7-2.2-6.7S79.2 2 75.4 2c-4 0-7.2 1.7-9.6 4-2.4 2.3-4.1 5.2-5.8 8s-3.1 5.4-4.8 7.3c-1.6 1.8-3 2.7-5.2 2.7s-3.6-.9-5.3-2.8c-1.6-1.8-3.1-4.5-4.8-7.3s-3.3-5.7-5.8-8S28.6 2 24.6 2zm0 4c2.9 0 4.9 1.1 6.8 2.9 1.9 1.8 3.5 4.4 5.1 7.1s3.1 5.6 5.2 7.9l.1.1H34c-4 0-8.2-1.2-11.2-3.3S18 15.7 18 12c0-1.5.4-3 1.3-4.1S21.6 6 24.6 6zm50.8 0c3 0 4.5.9 5.4 1.9S82 10.5 82 12c0 3.7-1.8 6.6-4.8 8.7S70 24 66 24h-7.9l.1-.1c2-2.3 3.6-5.2 5.2-7.9s3.2-5.3 5.1-7.1S72.4 6 75.4 6zM6 30h32v14H6V30zm36 0h16v64H42V46.4 46v-.3V30zm20 0h32v14H62V30zM10 48h28v46H10V48zm52 0h28v46H62V48z"/></svg>