<svg xmlns="http://www.w3.org/2000/svg" width="112" height="112" viewBox="0 0 112 112"><path d="M62.8 48.4H49.3c-1.2 0-2.2 1-2.2 2.2v31.5c0 1.2 1 2.2 2.2 2.2h13.5c1.2 0 2.2-1 2.2-2.2V50.6c.1-1.2-.9-2.2-2.2-2.2zm-2.2 31.5h-9v-27h9v27zM56 42.7c5 0 9-4 9-9s-4-9-9-9-9 4-9 9 4 9 9 9zm0-13.5c2.5 0 4.5 2 4.5 4.5s-2 4.5-4.5 4.5-4.5-2-4.5-4.5 2-4.5 4.5-4.5zM56 2C26.2 2 2 26.2 2 56s24.2 54 54 54 54-24.2 54-54S85.8 2 56 2zm0 103.5C28.7 105.5 6.5 83.3 6.5 56S28.7 6.5 56 6.5s49.5 22.2 49.5 49.5-22.2 49.5-49.5 49.5z"/></svg>