<svg version="1" xmlns="http://www.w3.org/2000/svg" width="133.333" height="133.333" viewBox="0 0 100.000000 100.000000"><path d="M32.5 32.3c-.4 1.3-.5 4.9-.3 8.2l.3 5.9 8.8 4.3L50 55l8.8-4.3 8.7-4.3.3-5.9C68.4 29.3 69.5 30 50 30c-16.8 0-17 0-17.5 2.3zM60 39c0 .6-4 1-10 1s-10-.4-10-1 4-1 10-1 10 .4 10 1zm0 5c0 .6-4 1-10 1s-10-.4-10-1 4-1 10-1 10 .4 10 1zm-32.6-2.9c-1.6 1.7-1.6 2.2-.4 2.9 2.4 1.6 3 1.2 3-2 0-3.6-.1-3.6-2.6-.9zm42.6.7c0 3.4.5 3.8 3 2.2 1.3-.8 1.2-1.3-.7-3.2L70 38.6v3.2z"/><path d="M25 58v12h50V58c0-6.6-.2-12-.4-12s-5.5 2.5-11.7 5.5C56.6 54.5 50.8 57 50 57c-.8 0-6.6-2.5-12.9-5.5-6.2-3-11.5-5.5-11.7-5.5-.2 0-.4 5.4-.4 12z"/></svg>