<svg xmlns="http://www.w3.org/2000/svg" width="98" height="77.2" viewBox="0 0 98 77.2"><path fill="#FFF" d="M0 75.4l2.8-19.8h5.6L5.6 75.4zM21.3 75.4l-3.8-6.5c-.2-.3-.4-.7-.6-1.1-.2-.4-.5-.9-.7-1.3-.2-.4-.4-.9-.6-1.3-.2-.4-.3-.7-.4-.9v.9c0 .4-.1.8-.1 1.3s-.1 1-.2 1.5-.1 1-.2 1.4l-.8 6.1H8.3l2.8-19.8H16l3.5 5.9c.2.3.4.7.6 1.1.3.5.5.9.7 1.4.2.5.4.9.6 1.3.2.4.3.7.4.9v-.9c0-.4.1-.8.1-1.3s.1-1 .2-1.5.1-1 .2-1.4l.8-5.4h5.3l-2.8 19.8h-4.3M45.3 61.8c0 1-.2 1.9-.5 2.7-.3.8-.8 1.4-1.4 2-.6.5-1.3.9-2.1 1.2-.8.3-1.7.4-2.6.4h-5.2v7.4h-2.9V55.6h8.3c.9 0 1.7.1 2.5.4.8.3 1.5.7 2 1.2.6.5 1 1.2 1.3 1.9.4.8.6 1.7.6 2.7m-3.1 0c0-1.1-.3-1.9-.9-2.5-.6-.6-1.4-.9-2.5-.9h-5.3v6.8h5.3c1.1 0 2-.3 2.5-.9.6-.6.9-1.4.9-2.5M58.8 75.4l-1.7-4.7h-7.9l-1.6 4.7h-3.1l7.1-19.8h3.1l7.2 19.8h-3.1m-4.2-11.9c-.1-.4-.2-.8-.4-1.2-.2-.4-.3-.9-.4-1.3-.1-.4-.3-.8-.4-1.2-.1-.4-.2-.7-.3-.9-.1.2-.1.5-.3.9-.1.4-.2.8-.4 1.2-.1.4-.3.9-.4 1.3-.1.5-.3.9-.4 1.2L50.1 68h6.1l-1.6-4.5zM79.5 61.5c0 1.6-.4 2.9-1.2 3.8-.8 1-1.8 1.6-3.2 2l4 8.1h-3.4l-3.9-7.8h-4.5v7.8h-2.9V55.6h8.7c.9 0 1.7.1 2.5.4.8.2 1.4.6 2 1.1.6.5 1.1 1.1 1.4 1.8.3.7.5 1.6.5 2.6m-3 .1c0-1-.3-1.8-.9-2.4-.6-.5-1.4-.8-2.4-.8h-5.8v6.4h5.8c1 0 1.8-.3 2.4-.8.6-.5.9-1.3.9-2.4M98 65.5c0 1.8-.3 3.3-.8 4.7-.5 1.4-1.3 2.5-2.2 3.4l1.3 2.1-2.4 1.5-1.3-2c-.9.4-1.9.5-2.9.5-1.3 0-2.4-.3-3.5-.7-1-.5-1.9-1.2-2.6-2.1-.7-.9-1.3-2-1.7-3.2-.4-1.2-.6-2.6-.6-4.1 0-1.5.2-2.9.6-4.1.4-1.3 1-2.3 1.7-3.2.7-.9 1.6-1.6 2.6-2.1s2.2-.8 3.5-.8c1.3 0 2.4.2 3.5.8 1 .5 1.9 1.2 2.6 2.1.7.9 1.3 2 1.7 3.2.3 1.1.5 2.5.5 4m-3 0c0-2.2-.5-4-1.4-5.3-.9-1.3-2.3-2-4-2-1.7 0-3.1.7-4 2-.9 1.3-1.4 3.1-1.4 5.3 0 1.1.1 2.1.4 3 .2.9.6 1.7 1 2.3.5.6 1 1.1 1.7 1.5.7.3 1.4.5 2.3.5h.7c.2 0 .4-.1.6-.1l-1.4-2.2 2.4-1.5 1.4 2.3c.6-.6 1-1.4 1.2-2.4.3-1.1.5-2.2.5-3.4M50.3 20.3c0 1.3-.2 2.3-.6 3.2-.4.9-1 1.6-1.7 2.1s-1.6.9-2.6 1.2c-1 .2-2.1.4-3.3.4h-2.7v6.4H34V13.7h8.5c1.1 0 2.2.1 3.2.4 1 .2 1.8.6 2.4 1.1.7.5 1.2 1.2 1.6 2 .4.9.6 1.9.6 3.1m-5.5 0c0-.7-.2-1.2-.5-1.6-.4-.4-1-.6-1.9-.6h-3v4.4h2.9c.9 0 1.6-.2 1.9-.6.4-.2.6-.8.6-1.6M55.7 33.5V19.9h-3.3v-3.5c.6 0 1.2-.1 1.6-.2.5-.1.8-.3 1.2-.5.3-.2.6-.5.8-.8.2-.3.4-.7.5-1.2h4.6v19.8h-5.4"/><path fill="#FFF" d="M65.4 47.1H29.3c-3 0-5.5-2.5-5.5-5.5V5.5c0-3 2.5-5.5 5.5-5.5h36.1c3 0 5.5 2.5 5.5 5.5v36.1c0 3-2.5 5.5-5.5 5.5M29.3 2.9c-1.4 0-2.5 1.1-2.5 2.5v36.1c0 1.4 1.1 2.5 2.5 2.5h36.1c1.4 0 2.5-1.1 2.5-2.5v-36c0-1.4-1.1-2.5-2.5-2.5H29.3z"/></svg>