<svg id="Calque_1" xmlns="http://www.w3.org/2000/svg" width="102" height="102" viewBox="0 0 102 102"><style>.st0{fill:#0eadff}</style><path class="st0" d="M51 1c-7.6 0-16.8 1.8-17.9 2h-.3c-.1 0-.3 0-.4.1-.1 0-.1 0-.2.1-1.1.2-1.8 1.3-1.5 2.4.1.5.4.9.8 1.2.4 1.1 1.8 4.6 2.4 8.1-3.5 1.1-8.7 2.9-9.1 3-.2 0-.3.1-.5.2-.1 0-.1.1-.2.1-.6.3-9.6 4.9-13.3 15.9-.7 2.2-3.2 8.9-5.4 15.6-1.1 3.3-2.3 6.6-3.1 9.4S1 63.6 1 65.3V97c0 1.1.9 2 2 2h14c1.1 0 2-.9 2-2V67c0 .2.1-.2.3-.8s.5-1.4.9-2.3c.7-1.7 1.7-3.9 2.7-6l.2-.4V89c0 1.1.9 2 2 2h52c1.1 0 2-.9 2-2V57.6l.2.4c1 2.1 2 4.3 2.7 6 .4.9.7 1.7.9 2.3s.1.9.1.7v30c0 1.1.9 2 2 2h14c1.1 0 2-.9 2-2V65.3c0-1.7-.6-3.6-1.4-6.4s-1.9-6-3.1-9.4c-2.3-6.7-4.7-13.4-5.4-15.6-3.5-10.4-11.6-15-12.9-15.7-.1 0-.1-.1-.2-.1l-.3-.2c-.2-.1-.4-.2-.6-.2-.4-.2-5.9-2-9.2-3.1.3-3.7 1.1-9.4 1.1-9.4v-.1V5v-.1-.1-.1-.2-.1s0-.1-.1-.1v-.1s0-.1-.1-.1V4s0-.1-.1-.1l-.1-.1s0-.1-.1-.1c0 0 0-.1-.1-.1l-.1-.1s0-.1-.1-.1h-.1l-.1-.1-.1-.1-.1-.1-.1-.1s-.1 0-.1-.1h-.1s-.1 0-.1-.1l-.1-.1h-.1s-.1 0-.1-.1H67c-.1 0-.1 0-.2-.1h-.2C65.9 2.7 58.5 1 51 1zm0 4c4 0 8 .5 11 1.1l-4.8 3.3c-.4.2-.6.6-.8 1 0 0-2.7 9-5.5 21.6-2.9-12.7-5.5-21.6-5.5-21.6-.1-.5-.5-.9-.9-1.1L39 6.1C42.6 5.6 47.1 5 51 5zm13.5 4.1c-.3 2.5-.7 4.4-.8 6.9 0 .9.6 1.7 1.4 2 2 .6 7.5 2.5 9.4 3.1-.6 2.6-3.4 15.7.3 27.5 0 .3 0 .6.1.8V87H27V49.4v-.1l.1-.1c0-.1 0-.1.1-.2 2.7-5.3 2.6-12.3 2-18.3-.6-5.3-1.4-8.2-1.8-9.6 1.8-.6 7-2.3 9.4-3.1.9-.3 1.5-1.1 1.4-2-.1-2.3-.8-4.5-1.5-6.6l5.1 2.9c.3.9 3.8 11.4 7.2 28.9.3 1.1 1.4 1.7 2.5 1.4.7-.2 1.2-.8 1.4-1.5C56.2 23.6 59.7 13 60 12.2l4.5-3.1zM23.9 22.9c.4 2 .9 4.7 1.3 8.3.6 5.8.4 12.7-1.8 16.6-.1.1-.1.2-.2.4-.1.1-.1.2-.1.3-.2.4-2 3.9-3.9 7.9-1 2.1-2 4.3-2.8 6.1-.4.9-.7 1.8-.9 2.5s-.5 1.1-.5 2v28H5V65.3c0-.3.5-2.5 1.3-5.2s1.8-6 2.9-9.3c2.2-6.6 4.7-13.2 5.5-15.6 2.2-6.6 6.6-10.5 9.2-12.3zm54.4.1c2.6 1.9 6.9 5.7 9.1 12.2.8 2.4 3.3 9 5.5 15.6 1.1 3.3 2.2 6.6 2.9 9.3S97 65 97 65.3V95H87V67c0-.9-.2-1.4-.4-2.1-.2-.7-.6-1.6-.9-2.5-.8-1.9-1.8-4-2.8-6.1-1.9-4-3.7-7.6-3.9-7.9-3.2-8.6-1.7-20.2-.7-25.4z"/></svg>