<svg id="Calque_1" xmlns="http://www.w3.org/2000/svg" width="152" height="66" viewBox="0 0 152 66"><style>.st0{fill:#05f}</style><path transform="rotate(-45.001 134.352 12.957)" d="M134.1-4h.6v33.9h-.6z"/><path transform="rotate(-45.001 110.366 36.963)" d="M110.1 20h.6v33.9h-.6z"/><path d="M108.7 22h3.9v1l-.6 1.2c-.2.4-.4.9-.6 1.4s-.3.9-.4 1.4l-.3 1.2h-1.3c.1-.3.2-.7.3-1.2.1-.4.3-.9.5-1.4s.4-.9.6-1.3l.6-1.2h-2.6l-.1-1.1zM113.3 22h3.3v1h-2.3l-.1 1.4c.2-.1.3-.2.5-.2.1 0 .3-.1.5-.1s.4 0 .7.1l.6.3c.2.2.3.4.4.6s.2.5.2.9c0 .3 0 .5-.1.8s-.2.5-.4.7c-.2.2-.4.4-.7.5-.3.1-.6.2-.9.2-.5 0-1-.1-1.3-.3-.3-.2-.6-.6-.7-1.1l1.2-.1c0 .2.1.3.2.4s.3.2.6.2.5-.1.6-.3c.1-.2.2-.5.2-.8s-.1-.5-.2-.7-.4-.3-.7-.3c-.1 0-.3 0-.4.1s-.3.1-.4.2h-.9l.1-3.5zM123 26.8h-2.1l-.4 1.3h-1.3l2.2-6.1h1.3l2.1 6.1h-1.3l-.5-1.3zm-1.1-3.4l-.8 2.4h1.6l-.8-2.4zM126.4 23.7V28h-1.2v-6h1.4l2.6 4.2V22h1.2v6.1H129l-2.6-4.4zM134.3 23.6c0-.2-.1-.4-.3-.5s-.4-.2-.7-.2-.5.1-.7.2-.3.3-.3.5c0 .1 0 .2.1.3 0 .1.1.2.2.2.1.1.2.1.4.2s.3.1.6.2.6.2.8.3c.2.1.4.2.6.4.2.1.3.3.4.5.1.2.1.4.1.7 0 .3-.1.5-.2.8-.1.2-.3.4-.5.6s-.4.3-.7.4-.6.1-1 .1-.8-.1-1.1-.2-.5-.2-.7-.4c-.2-.2-.3-.4-.4-.6-.1-.2-.1-.5-.2-.7h1.2c0 .3.1.6.3.7s.5.2.8.2.6-.1.8-.2.3-.3.3-.6c0-.2-.1-.4-.3-.6-.2-.1-.6-.2-1-.4-.3-.1-.6-.2-.8-.3l-.6-.3c-.2-.1-.3-.3-.3-.5-.1-.2-.1-.4-.1-.7 0-.3 0-.5.1-.7s.2-.4.4-.6.4-.3.7-.4.6-.2 1-.2.7 0 .9.1c.3.1.5.2.7.4.2.2.3.3.4.5.1.2.1.4.1.6l-1 .2z"/><path class="st0" d="M13 25.1c3.7 0 6.8 3 6.8 6.8s-3 6.8-6.8 6.8-6.8-3-6.8-6.8 3-6.8 6.8-6.8"/><g><path d="M78.3 42.6h-1.6l-.3.9h-1L77 39h1l1.6 4.5h-1l-.3-.9zm-.8-2.5l-.6 1.7h1.2l-.6-1.7zM80.5 42.2c0 .1 0 .2.1.3 0 .1.1.2.2.2.1.1.2.1.3.2.1 0 .2.1.4.1.3 0 .5-.1.7-.4l.8.2c-.1.3-.3.5-.6.6-.2.1-.6.2-1 .2-.3 0-.5 0-.7-.1s-.4-.2-.5-.3-.3-.3-.3-.5c-.1-.2-.1-.4-.1-.7s0-.5.1-.7.2-.4.3-.5c.1-.1.3-.3.5-.3.2-.1.4-.1.7-.1.5 0 .9.1 1.2.4.3.3.4.7.4 1.2v.2h-2.5zm1.5-.6v-.2c0-.1-.1-.2-.1-.2s-.1-.2-.2-.2-.2-.1-.3-.1c-.2 0-.3 0-.4.1-.1 0-.2.1-.2.2-.1.1-.1.1-.1.2s-.1.2-.1.2H82zm-.5-2.6h.9l-.8.8H81l.5-.8zM83.4 40.4h.8v.8c0-.1.1-.2.1-.3.1-.1.1-.2.2-.3s.2-.2.3-.2c.1-.1.2-.1.3-.1h.1v.8h-.1c-.1 0-.3 0-.4.1-.1 0-.2.1-.3.2-.1.1-.2.2-.2.3-.1.1-.1.2-.1.4v1.4h-.9v-3.1h.2zM88.9 41.9c0 .2 0 .4-.1.6-.1.2-.2.4-.3.5-.1.2-.3.3-.5.4-.2.1-.5.1-.7.1-.3 0-.6 0-.8-.1-.2-.1-.4-.2-.5-.4s-.2-.3-.3-.5c-.1-.2-.1-.4-.1-.6 0-.2 0-.4.1-.6.1-.2.2-.4.3-.5.1-.2.3-.3.5-.4.2-.1.5-.1.7-.1.3 0 .6 0 .8.1.2.1.4.2.5.4s.2.3.3.5c.1.2.1.4.1.6zm-2.6 0c0 .3.1.5.2.7s.3.3.6.3.5-.1.6-.3.2-.4.2-.7-.1-.5-.2-.7-.3-.3-.6-.3-.5.1-.6.3-.2.5-.2.7zM89.3 40.4h.8v.4c.1-.2.3-.3.5-.4.2-.1.4-.1.6-.1s.4 0 .6.1.3.2.5.4c.1.2.2.3.3.5.1.2.1.4.1.6 0 .2 0 .4-.1.6-.1.2-.2.4-.3.5-.1.2-.3.3-.5.4-.2.1-.4.1-.6.1s-.4 0-.5-.1c-.2-.1-.3-.2-.5-.4v1.7h-.9v-4.3zm2.4 1.5v-.4c0-.1-.1-.2-.1-.3-.1-.1-.1-.2-.2-.2H91c-.1 0-.2 0-.3.1-.1 0-.2.1-.2.2-.1.1-.1.2-.2.3 0 .1-.1.2-.1.4v.3c0 .1.1.2.2.3s.2.2.3.2.2.1.4.1c.1 0 .2 0 .3-.1.1-.1.2-.1.2-.2.1-.1.1-.2.1-.3v-.4zM96.4 41.9c0 .2 0 .4-.1.6-.1.2-.2.4-.3.5-.1.2-.3.3-.5.4-.2.1-.5.1-.7.1-.3 0-.6 0-.8-.1-.2-.1-.4-.2-.5-.4s-.2-.3-.3-.5c-.2-.1-.2-.4-.2-.6 0-.2 0-.4.1-.6.1-.2.2-.4.3-.5.1-.2.3-.3.5-.4.2-.1.5-.1.7-.1.3 0 .6 0 .8.1.2.1.4.2.5.4s.2.3.3.5c.2.2.2.4.2.6zm-2.5 0c0 .3.1.5.2.7s.3.3.6.3.5-.1.6-.3.2-.4.2-.7-.1-.5-.2-.7c-.1-.1-.3-.2-.6-.2s-.5.1-.6.3c-.1.1-.2.4-.2.6zM96.8 40.4h.8v.8c0-.1.1-.2.1-.3.1-.1.1-.2.2-.3s.2-.2.3-.2c.1-.1.2-.1.3-.1h.1v.8h-.1c-.1 0-.3 0-.4.1-.1 0-.2.1-.3.2-.1.1-.2.2-.2.3-.1.1-.1.2-.1.4v1.4h-.9v-3.1h.2zM99.1 40.4h.5v-.9h.9v.9h.7v.7h-.7v1.5c0 .1 0 .2.1.2s.1.1.3.1h.3v.7h-1c-.1 0-.2-.1-.3-.1-.1-.1-.1-.2-.2-.3 0-.1-.1-.3-.1-.4v-1.6h-.5v-.8zM75.7 45.5v-.2c0-.1.1-.1.1-.2 0 0 .1-.1.2-.1h.4c.1 0 .1.1.2.1 0 0 .1.1.1.2v.4c0 .1-.1.1-.1.2 0 0-.1.1-.2.1H76c-.1 0-.1-.1-.2-.1 0 0-.1-.1-.1-.2v-.2zm0 1h.9v3.1h-.9v-3.1zM79.4 47.7v-.3c0-.1-.1-.1-.1-.2-.1 0-.1-.1-.2-.1h-.2c-.2 0-.3.1-.4.2-.1.1-.2.3-.2.5v1.8h-.9v-3.1h.8v.4c.1-.2.3-.3.4-.4.2-.1.3-.1.5-.1s.3 0 .5.1c.1.1.3.1.3.2.1.1.2.2.2.3s.1.3.1.4v2.1h-.9l.1-1.8zM80.6 46.5h.5v-.9h.9v.9h.7v.7H82v1.5c0 .1 0 .2.1.2s.1.1.3.1h.3v.7h-1c-.1 0-.2-.1-.3-.1-.1-.1-.1-.2-.2-.3 0-.1-.1-.3-.1-.4v-1.6h-.5v-.8zM83.8 48.2c0 .1 0 .2.1.3 0 .1.1.2.2.2.1.1.2.1.3.2.1 0 .2.1.4.1.3 0 .5-.1.7-.4l.8.2c-.1.3-.3.5-.6.6-.2.1-.6.2-1 .2-.3 0-.5 0-.7-.1s-.4-.2-.5-.3-.3-.3-.3-.5c-.1-.2-.1-.4-.1-.7s0-.5.1-.7.2-.4.3-.5c.1-.1.3-.3.5-.3.2-.1.4-.1.7-.1.5 0 .9.1 1.2.4.3.3.4.7.4 1.2v.2h-2.5zm1.5-.5v-.2c0-.1-.1-.2-.1-.2l-.2-.2c-.1 0-.2-.1-.3-.1-.2 0-.3 0-.4.1-.1 0-.2.1-.2.2-.1.1-.1.1-.1.2s-.1.2-.1.2h1.4zM86.7 46.5h.8v.8c0-.1.1-.2.1-.3.1-.1.1-.2.2-.3s.2-.2.3-.2c.1-.1.2-.1.3-.1h.1v.8h-.1c-.1 0-.3 0-.4.1-.1 0-.2.1-.3.2-.1.1-.2.2-.2.3s-.1.2-.1.4v1.4h-.9v-3.1h.2zM91.1 47.7v-.3c0-.1-.1-.1-.1-.2-.1 0-.1-.1-.2-.1h-.2c-.2 0-.3.1-.4.2-.1.1-.2.3-.2.5v1.8h-.9v-3.1h.8v.4c.1-.2.3-.3.4-.4.2-.1.3-.1.5-.1s.3 0 .5.1c.1.1.3.1.3.2.1.1.2.2.2.3s.1.3.1.4v2.1H91l.1-1.8zM94.5 49.2c-.1.2-.2.3-.4.4-.2.1-.4.1-.6.1h-.4c-.1 0-.2-.1-.3-.2l-.3-.3c-.1-.1-.1-.3-.1-.5s0-.4.1-.5l.3-.3c.1-.1.3-.1.5-.2s.4 0 .7 0h.3v-.1c0-.2 0-.3-.1-.4-.1-.1-.2-.1-.4-.1s-.3 0-.4.1-.1.2-.1.3h-.8c0-.1 0-.3.1-.4.1-.1.1-.2.3-.3s.3-.2.5-.2c.2-.1.4-.1.6-.1.3 0 .5 0 .6.1.2.1.3.1.4.2.1.1.2.2.2.4 0 .1.1.3.1.5v2h-.8v-.5zm-.1-1h-.5c-.1 0-.2 0-.3.1-.1 0-.2.1-.2.1-.1.1-.1.1-.1.2 0 .2 0 .3.1.3.1.1.2.1.4.1h.2c.1 0 .2-.1.2-.1l.2-.2c0-.1.1-.2.1-.3l-.1-.2zM95.6 46.5h.5v-.9h.9v.9h.7v.7H97v1.5c0 .1 0 .2.1.2s.1.1.3.1h.3v.7h-1c-.1 0-.2-.1-.3-.1-.1-.1-.1-.2-.2-.3 0-.1-.1-.3-.1-.4v-1.6h-.5v-.8zM98.1 45.5v-.2c0-.1.1-.1.1-.2 0 0 .1-.1.2-.1h.4c.1 0 .1.1.2.1 0 0 .1.1.1.2v.4c0 .1-.1.1-.1.2 0 0-.1.1-.2.1h-.4c-.1 0-.1-.1-.2-.1 0 0-.1-.1-.1-.2v-.2zm.1 1h.8v3.1h-.9l.1-3.1zM103 48c0 .2 0 .4-.1.6-.1.2-.2.4-.3.5-.1.2-.3.3-.5.4-.2.1-.5.1-.7.1-.3 0-.6 0-.8-.1-.2-.1-.4-.2-.5-.4s-.2-.3-.3-.5c-.1-.2-.1-.4-.1-.6 0-.2 0-.4.1-.6.1-.2.2-.4.3-.5.1-.2.3-.3.5-.4.2-.1.5-.1.7-.1.3 0 .6 0 .8.1.2.1.4.2.5.4s.2.3.3.5c0 .2.1.4.1.6zm-2.6 0c0 .3.1.5.2.7s.3.3.6.3.5-.1.6-.3.2-.4.2-.7-.1-.5-.2-.7-.3-.3-.6-.3-.5.1-.6.3-.2.4-.2.7zM105.5 47.7v-.3c0-.1-.1-.1-.1-.2-.1 0-.1-.1-.2-.1h-.2c-.2 0-.3.1-.4.2s-.2.3-.2.5v1.8h-.9v-3.1h.8v.4c.1-.2.3-.3.4-.4.2-.1.3-.1.5-.1s.3 0 .5.1c.1.1.3.1.3.2.1.1.2.2.2.3s.1.3.1.4v2.1h-.9l.1-1.8zM108.8 49.2c-.1.2-.2.3-.4.4-.2.1-.4.1-.6.1h-.4c-.1 0-.2-.1-.3-.2l-.3-.3c-.1-.1-.1-.3-.1-.5s0-.4.1-.5l.3-.3c.1-.1.3-.1.5-.2s.4 0 .7 0h.3v-.1c0-.2 0-.3-.1-.4s-.2-.1-.4-.1-.3 0-.4.1-.1.2-.1.3h-.8c0-.1 0-.3.1-.4s.1-.2.3-.3.3-.2.5-.2c.2-.1.4-.1.6-.1.3 0 .5 0 .6.1.2.1.3.1.4.2.1.1.2.2.2.4 0 .1.1.3.1.5v2h-.8v-.5zm0-1h-.5c-.1 0-.2 0-.3.1-.1 0-.2.1-.2.1-.1.1-.1.1-.1.2 0 .2 0 .3.1.3.1.1.2.1.4.1h.2c.1 0 .2-.1.2-.1l.2-.2c0-.1.1-.2.1-.3l-.1-.2zM110.2 44.9h.9v4.7h-.9v-4.7zM75.8 55c.2 0 .4-.1.5-.2.1-.1.1-.3.1-.6V52h-.8v-.8h1.7v3c0 .3 0 .6-.1.8s-.2.4-.3.5c-.1.1-.3.2-.5.3s-.4.1-.6.1h-.4v-.8h.2c.1-.1.2-.1.2-.1zM78.8 54.3c0 .1 0 .2.1.3 0 .1.1.2.2.2.1.1.2.1.3.2.1 0 .2.1.4.1.3 0 .5-.1.7-.4l.8.2c-.1.3-.3.5-.6.6-.2.1-.6.2-1 .2-.3 0-.5 0-.7-.1s-.4-.2-.5-.3-.3-.3-.3-.5c-.1-.2-.1-.4-.1-.7s0-.5.1-.7.2-.4.3-.5c.1-.1.3-.3.5-.3.2-.1.4-.1.7-.1.5 0 .9.1 1.2.4.3.3.4.7.4 1.2v.2h-2.5zm1.5-.5v-.2c0-.1-.1-.2-.1-.2l-.2-.2c-.1 0-.2-.1-.3-.1-.2 0-.3 0-.4.1-.1 0-.2.1-.2.2-.1.1-.1.1-.1.2s-.1.2-.1.2h1.4zM83.6 55.2c-.1.2-.2.3-.4.4-.2.1-.4.1-.6.1h-.4c-.1 0-.2-.1-.3-.2l-.3-.3c-.1-.1-.1-.3-.1-.5s0-.4.1-.5l.3-.3c.1-.1.3-.1.5-.2s.4 0 .7 0h.3v-.1c0-.2 0-.3-.1-.4s-.2-.1-.4-.1-.3 0-.4.1-.1.2-.1.3h-.8c0-.1 0-.3.1-.4.1-.1.1-.2.3-.3.1-.1.3-.2.5-.2.2-.1.4-.1.6-.1.3 0 .5 0 .6.1.2.1.3.1.4.2.1.1.2.2.2.4 0 .1.1.3.1.5v2h-.8v-.5zm0-.9h-.5c-.1 0-.2 0-.3.1-.1 0-.2.1-.2.1-.1.1-.1.1-.1.2 0 .2 0 .3.1.3s.2.1.4.1h.2c.1 0 .2-.1.2-.1l.2-.2c0-.1.1-.2.1-.3l-.1-.2zM87.1 53.8v-.3c0-.1-.1-.1-.1-.2-.1 0-.1-.1-.2-.1h-.2c-.2 0-.3.1-.4.2-.1.1-.2.3-.2.5v1.8h-1v-3.1h.8v.4c.1-.2.3-.3.4-.4.2-.1.3-.1.5-.1s.3 0 .5.1c.1.1.3.1.3.2.1.1.2.2.2.3s.1.3.1.4v2.1h-.9v-1.8h.2zM88.6 53.7h1.5v.7h-1.5v-.7zM90.8 51.1h.9v3.7h1.7v.8h-2.6v-4.5zM94.5 54.3c0 .1 0 .2.1.3 0 .1.1.2.2.2.1.1.2.1.3.2.1 0 .2.1.4.1.3 0 .5-.1.7-.4l.8.2c-.1.3-.3.5-.6.6-.2.1-.6.2-1 .2-.3 0-.5 0-.7-.1s-.4-.2-.5-.3-.3-.3-.3-.5c-.1-.2-.1-.4-.1-.7s0-.5.1-.7.2-.4.3-.5c.1-.1.3-.3.5-.3.2-.1.4-.1.7-.1.5 0 .9.1 1.2.4.3.3.4.7.4 1.2v.2h-2.5zm1.5-.5v-.2c0-.1-.1-.2-.1-.2l-.2-.2c-.1 0-.2-.1-.3-.1-.2 0-.3 0-.4.1-.1 0-.2.1-.2.2-.1.1-.1.1-.1.2s-.1.2-.1.2H96zM99.1 53.5c0-.1-.1-.2-.2-.3s-.2-.1-.4-.1c-.1 0-.2 0-.3.1-.1 0-.1.1-.1.2s0 .2.1.2c.1.1.2.1.4.1.1 0 .3.1.5.1s.3.1.5.1c.1.1.3.2.4.3s.1.3.1.5c0 .1 0 .2-.1.3 0 .1-.1.2-.2.3s-.3.2-.4.3c-.2.1-.4.1-.7.1h-.5c-.2 0-.3-.1-.4-.2l-.3-.3c-.1-.1-.1-.3-.1-.5h.8c0 .2.1.3.2.3.1.1.2.1.4.1h.4c.1 0 .1-.1.1-.1v-.2c0-.1 0-.2-.1-.2s-.2-.1-.3-.1c-.1 0-.3-.1-.4-.1s-.3-.1-.4-.1c-.1-.1-.3-.2-.3-.3-.1-.1-.1-.3-.1-.5 0-.1 0-.2.1-.4s.1-.2.2-.3.2-.2.4-.2.4-.1.6-.1c.4 0 .7.1 1 .2.2.2.4.4.4.7l-1.3.1zM102.5 55.2c-.1.2-.2.3-.4.4-.2.1-.4.1-.6.1h-.4c-.1 0-.2-.1-.3-.2l-.3-.3c-.1-.1-.1-.3-.1-.5s0-.4.1-.5l.3-.3c.1-.1.3-.1.5-.2s.4 0 .7 0h.3v-.1c0-.2 0-.3-.1-.4s-.2-.1-.4-.1-.3 0-.4.1-.1.2-.1.3h-.8c0-.1 0-.3.1-.4.1-.1.1-.2.3-.3s.3-.2.5-.2c.2-.1.4-.1.6-.1.3 0 .5 0 .6.1.2.1.3.1.4.2.1.1.2.2.2.4 0 .1.1.3.1.5v2h-.8v-.5zm0-.9h-.5c-.1 0-.2 0-.3.1-.1 0-.2.1-.2.1-.1.1-.1.1-.1.2 0 .2 0 .3.1.3s.2.1.4.1h.2c.1 0 .2-.1.2-.1l.2-.2c0-.1.1-.2.1-.3l-.1-.2zM106.2 52.5h.8v2.9c0 .2 0 .4-.1.6s-.2.4-.3.5c-.1.1-.3.2-.5.3s-.5.1-.8.1c-.5 0-.8-.1-1.1-.2-.3-.2-.4-.4-.5-.7l.8-.1c0 .1.1.2.3.3.1.1.3.1.5.1.3 0 .5-.1.7-.2.1-.1.2-.4.2-.7v-.3c-.1.2-.2.3-.4.4-.2.1-.4.1-.6.1s-.4 0-.6-.1-.3-.2-.5-.3c-.1-.1-.2-.3-.3-.5-.1-.2-.1-.4-.1-.7 0-.2 0-.4.1-.6.1-.2.2-.4.3-.5.1-.1.3-.3.5-.4.2-.1.4-.1.6-.1s.4.1.6.2c.2.1.3.2.4.4v-.5zm0 1.6c0-.3-.1-.5-.2-.7-.1-.1-.3-.2-.6-.2-.1 0-.2 0-.3.1-.1 0-.2.1-.2.2-.1.1-.1.2-.2.3 0 .1-.1.2-.1.3 0 .2 0 .3.1.5.1.1.1.2.2.3s.2.1.3.1h.5c.1 0 .2-.1.3-.1.1-.1.2-.2.2-.3v-.5zM108.4 54.3c0 .1 0 .2.1.3 0 .1.1.2.2.2.1.1.2.1.3.2.1 0 .2.1.4.1.3 0 .5-.1.7-.4l.8.2c-.1.3-.3.5-.6.6-.2.1-.6.2-1 .2-.3 0-.5 0-.7-.1s-.4-.2-.5-.3-.3-.3-.3-.5c-.1-.2-.1-.4-.1-.7s0-.5.1-.7.2-.4.3-.5c.1-.1.3-.3.5-.3.2-.1.4-.1.7-.1.5 0 .9.1 1.2.4.3.3.4.7.4 1.2v.2h-2.5zm1.5-.5v-.2c0-.1-.1-.2-.1-.2l-.2-.2c-.1 0-.2-.1-.3-.1-.2 0-.3 0-.4.1-.1 0-.2.1-.2.2-.1.1-.1.1-.1.2s-.1.2-.1.2h1.4zM77.6 61.3c-.1.2-.3.3-.5.4-.2.1-.4.1-.6.1s-.4 0-.6-.1-.3-.2-.5-.4c-.1-.2-.2-.3-.3-.5-.1-.2-.1-.4-.1-.6 0-.2 0-.4.1-.6.1-.2.2-.4.3-.5.1-.2.3-.3.5-.4.2-.1.4-.1.6-.1s.4 0 .5.1c.2.1.3.2.5.4v-2h.9v4.7h-.8v-.5zm0-1.1v-.3c0-.1-.1-.2-.1-.3-.1-.1-.1-.2-.3-.2-.1-.1-.2-.1-.4-.1-.1 0-.2 0-.3.1-.1.1-.2.1-.2.2-.1.1-.1.2-.1.3v.3c0 .1 0 .2.1.4 0 .1.1.2.2.3s.1.2.2.2c.1.1.2.1.3.1.1 0 .2 0 .3-.1.1 0 .2-.1.2-.2.1-.1.1-.2.2-.3-.1-.2-.1-.3-.1-.4zM79.9 60.4c0 .1 0 .2.1.3 0 .1.1.2.2.2.1.1.2.1.3.2.1 0 .2.1.4.1.3 0 .5-.1.7-.4l.8.2c-.1.3-.3.5-.6.6-.2.1-.6.2-1 .2-.3 0-.5 0-.7-.1s-.4-.2-.5-.3-.3-.3-.3-.5c-.3-.2-.3-.5-.3-.7 0-.3 0-.5.1-.7s.2-.4.3-.5c.1-.1.3-.3.5-.3.2-.1.4-.1.7-.1.5 0 .9.1 1.2.4.3.3.4.7.4 1.2v.2h-2.3zm1.5-.6v-.2c0-.1-.1-.2-.1-.2l-.2-.2c-.1 0-.2-.1-.3-.1-.2 0-.3 0-.4.1-.1 0-.2.1-.2.2-.1.1-.1.1-.1.2s-.1.2-.1.2h1.4zM84.2 59.5c0-.3.1-.6.2-.9.1-.3.3-.5.5-.7s.4-.4.7-.5c.3-.1.6-.2 1-.2s.7.1 1 .2c.3.1.5.3.7.5s.3.5.5.7c.1.3.2.6.2.9 0 .3-.1.6-.2.9-.1.3-.2.5-.4.7l.4.3-.7.6-.5-.4c-.2.1-.3.1-.5.2-.2 0-.4.1-.6.1-.4 0-.7-.1-1-.2-.3-.1-.5-.3-.7-.5s-.3-.5-.5-.7-.1-.7-.1-1zm3.7 0c0-.2 0-.4-.1-.6-.1-.2-.1-.3-.3-.5-.1-.1-.3-.3-.4-.3-.2-.1-.4-.1-.6-.1s-.4 0-.6.1-.3.2-.4.3-.2.3-.3.5c-.1.2-.1.4-.1.6 0 .2 0 .4.1.6.1.2.1.3.3.5.1.1.3.3.4.3.2.1.4.1.6.1s.3 0 .4-.1l-.5-.4.6-.5.6.5c.1-.1.2-.3.2-.5.1-.1.1-.3.1-.5zM91.4 61.3c-.1.2-.3.3-.5.4-.2.1-.3.1-.5.1s-.4 0-.5-.1-.2-.1-.3-.2c-.1-.1-.2-.2-.2-.3s-.1-.3-.1-.4v-2.1h.9V60.9c0 .1.1.1.1.2.1 0 .1.1.2.1h.2c.2 0 .3-.1.4-.2.1-.1.2-.3.2-.5v-1.8h.9v3.1h-.8v-.5zM93.6 60.4c0 .1 0 .2.1.3 0 .1.1.2.2.2.1.1.2.1.3.2.1 0 .2.1.4.1.3 0 .5-.1.7-.4l.8.2c-.1.3-.3.5-.6.6-.2.1-.6.2-1 .2-.3 0-.5 0-.7-.1s-.4-.2-.5-.3-.3-.3-.3-.5c-.1-.2-.1-.4-.1-.7s0-.5.1-.7.2-.4.3-.5c.1-.1.3-.3.5-.3.2-.1.4-.1.7-.1.5 0 .9.1 1.2.4.3.3.4.7.4 1.2v.2h-2.5zm1.5-.6v-.2c0-.1-.1-.2-.1-.2l-.2-.2c-.1 0-.2-.1-.3-.1-.2 0-.3 0-.4.1-.1 0-.2.1-.2.2-.1.1-.1.1-.1.2s-.1.2-.1.2h1.4zm-.5-2.6h.9l-.8.8H94l.6-.8zM96.4 57.1h.9v2c.1-.2.3-.3.5-.4.2-.1.3-.1.5-.1s.4 0 .6.1.3.2.5.4c.1.2.2.3.3.5.1.2.1.4.1.6 0 .2 0 .4-.1.6-.1.2-.2.4-.3.5s-.3.3-.5.4c-.2.1-.4.1-.6.1s-.4 0-.6-.1-.3-.2-.4-.4v.4h-.8l-.1-4.6zm2.4 3.1v-.3c0-.1-.1-.2-.1-.3-.1-.1-.1-.2-.2-.2-.1-.1-.2-.1-.3-.1-.1 0-.3 0-.4.1s-.2.1-.2.2c-.1.1-.1.2-.1.3v.3c0 .1 0 .2.1.4 0 .1.1.2.2.3s.1.2.2.2.2.1.3.1c.1 0 .2 0 .3-.1.1-.1.2-.1.2-.2.1-.1.1-.2.1-.3-.1-.2-.1-.3-.1-.4zM100.9 60.4c0 .1 0 .2.1.3 0 .1.1.2.2.2.1.1.2.1.3.2.1 0 .2.1.4.1.3 0 .5-.1.7-.4l.8.2c-.1.3-.3.5-.6.6-.2.1-.6.2-1 .2-.3 0-.5 0-.7-.1s-.4-.2-.5-.3-.3-.3-.3-.5c-.1-.2-.1-.4-.1-.7s0-.5.1-.7.2-.4.3-.5c.1-.1.3-.3.5-.3.2-.1.4-.1.7-.1.5 0 .9.1 1.2.4.3.3.4.7.4 1.2v.2h-2.5zm1.5-.6v-.2c0-.1-.1-.2-.1-.2l-.2-.2c-.1 0-.2-.1-.3-.1-.2 0-.3 0-.4.1-.1 0-.2.1-.2.2-.1.1-.1.1-.1.2s-.1.2-.1.2h1.4zM106.1 59.6c0-.1-.1-.2-.2-.3s-.2-.1-.4-.1-.3 0-.4.1-.2.1-.2.2c-.1.1-.1.2-.1.3v.4c0 .3.1.5.2.6.1.2.3.2.6.2.2 0 .3 0 .4-.1l.3-.3.8.3c-.1.2-.3.4-.5.6-.2.2-.6.2-.9.2s-.5 0-.7-.1-.4-.2-.5-.3-.2-.3-.3-.5c-.1-.2-.1-.4-.1-.6 0-.2 0-.5.1-.7s.2-.4.3-.5c.1-.1.3-.3.5-.3.2-.1.4-.1.7-.1.4 0 .7.1 1 .2.2.2.4.3.5.6l-1.1.2z"/></g><path d="M10.5 61.7h4.8v-9l9.5-10.5-3.5-3.5-8.5 9.3-8.5-9.3L1 42.2l9.5 10.5v9zM49.3 61.7l-4-4c1.6-2 2.6-4.6 2.6-7.4 0-6.5-5.2-11.7-11.7-11.7s-11.7 5.2-11.7 11.7S29.7 62 36.2 62c1.9 0 3.6-.4 5.2-1.2l4.4 4.4 3.5-3.5zM29.5 50.3c0-3.7 3-6.8 6.8-6.8 3.7 0 6.8 3 6.8 6.8 0 3.7-3 6.8-6.8 6.8s-6.8-3-6.8-6.8z"/><g><path d="M62.7 61.7H51.2V39h10.3c4.7 0 7.4 2.2 7.4 6 0 2-.8 3.6-2.4 4.6 2.3.9 3.7 2.9 3.7 5.5.1 3.8-3.1 6.6-7.5 6.6zM56 57.4h6c2.9 0 3.2-1.8 3.2-2.6 0-1-.4-2.6-3.4-2.6H56v5.2zm0-9.4h5.1c1.3 0 2.8-.6 2.8-2.4 0-1.8-1.6-2.2-3-2.2H56V48z"/></g></svg>