<svg id="Calque_1" xmlns="http://www.w3.org/2000/svg" width="552" height="204" viewBox="0 0 552 204"><style>.st0{fill:#05f}</style><path class="st0" d="M60.8 1.8c18.7 0 33.9 15.2 33.9 33.9s-15.2 34-33.9 34-33.9-15.3-33.9-34S42.1 1.8 60.8 1.8"/><path d="M371.8 82.7c0-1.5.3-3 .8-4.4s1.3-2.6 2.3-3.7c1-1.1 2.2-2 3.6-2.6 1.4-.7 3.1-1 4.9-1 1.9 0 3.5.3 4.9 1s2.6 1.5 3.6 2.6 1.7 2.3 2.3 3.7c.5 1.4.8 2.9.8 4.4 0 1.5-.3 2.9-.8 4.3s-1.2 2.6-2.2 3.7l1.9 1.7-2.6 2.8-2.4-2.1c-.8.4-1.6.7-2.5.9-.9.2-1.9.3-3 .3-1.9 0-3.5-.3-4.9-1-1.4-.7-2.6-1.5-3.6-2.6s-1.7-2.3-2.3-3.7-.8-2.8-.8-4.3zm18.4 0c0-1-.1-2-.4-2.9-.3-.9-.7-1.7-1.3-2.5s-1.3-1.3-2.1-1.7c-.9-.4-1.8-.6-2.9-.6s-2.1.2-2.9.6c-.8.4-1.5 1-2.1 1.7s-1 1.5-1.3 2.5c-.3.9-.4 1.9-.4 2.9s.1 2 .4 2.9c.3.9.7 1.7 1.3 2.5s1.3 1.3 2.1 1.7c.8.4 1.8.6 2.9.6.8 0 1.5-.1 2.1-.3l-2.3-2 2.4-2.7 2.9 2.5c.5-.7.9-1.5 1.2-2.4.3-.9.4-1.9.4-2.8zM407.8 91.9c-.7 1-1.4 1.6-2.3 2-.8.4-1.7.5-2.6.5-1 0-1.8-.1-2.5-.4-.7-.3-1.2-.7-1.7-1.2-.4-.5-.8-1.1-1-1.7-.2-.7-.3-1.4-.3-2.1V78.3h4.4v9.5c0 .6.1 1 .2 1.4.2.4.4.7.6.9.3.2.6.4.9.5.3.1.6.1 1 .1.9 0 1.6-.3 2.2-1 .6-.7.9-1.6.9-2.6v-8.8h4.4v15.6h-4.2v-2zM418.5 87.3c0 .5.1.9.3 1.4.2.5.4.9.8 1.2.4.3.8.6 1.3.8.5.2 1.2.3 1.9.3 1.6 0 2.7-.6 3.3-1.8l4 1c-.6 1.4-1.5 2.5-2.8 3.2-1.2.7-2.8 1-4.8 1-1.3 0-2.5-.2-3.6-.6-1-.4-1.9-.9-2.7-1.6-.7-.7-1.3-1.6-1.7-2.6-.4-1-.6-2.1-.6-3.4 0-1.3.2-2.4.6-3.4.4-1 1-1.9 1.7-2.6s1.6-1.3 2.7-1.7c1-.4 2.2-.6 3.4-.6 2.6 0 4.6.7 5.9 2.2 1.3 1.4 2 3.4 2 6v1.2h-11.7zm7.5-2.8c0-.4-.1-.8-.2-1.2-.1-.4-.3-.8-.5-1.1-.3-.3-.6-.6-1-.8-.4-.2-1-.3-1.6-.3-.8 0-1.4.1-1.9.3-.5.2-.9.5-1.2.9-.3.3-.5.7-.7 1.1-.2.4-.3.8-.3 1.1h7.4zm-2.4-13.1h4.4l-4.2 4.2H421l2.6-4.2zM432.7 70.5h4.4v9.9c.7-.9 1.5-1.6 2.3-2 .8-.4 1.7-.6 2.7-.6 1.1 0 2.1.2 3 .7.9.4 1.6 1 2.3 1.8.6.8 1.1 1.6 1.4 2.6.3 1 .5 2 .5 3.1s-.2 2.1-.5 3.1c-.4 1-.8 1.9-1.5 2.6-.6.8-1.4 1.4-2.3 1.8-.9.5-1.9.7-3 .7-1 0-1.9-.2-2.8-.6-.9-.4-1.6-1.1-2.2-2h-.1v2.2h-4.2V70.5zm12 15.7c0-.6-.1-1.2-.2-1.7-.2-.5-.4-1-.7-1.5-.3-.4-.7-.8-1.2-1-.5-.3-1-.4-1.6-.4-.7 0-1.3.1-1.8.4-.5.3-.9.6-1.2 1-.3.4-.6.9-.7 1.4-.2.5-.2 1.1-.2 1.7 0 .6.1 1.2.3 1.8.2.6.4 1.1.8 1.5.3.4.7.8 1.2 1 .5.2 1 .4 1.6.4.6 0 1.2-.1 1.7-.4.5-.3.9-.6 1.2-1 .3-.4.6-.9.7-1.5 0-.5.1-1.1.1-1.7zM455.4 87.3c0 .5.1.9.3 1.4.2.5.4.9.8 1.2.4.3.8.6 1.3.8.5.2 1.2.3 1.9.3 1.6 0 2.7-.6 3.3-1.8l4 1c-.6 1.4-1.5 2.5-2.8 3.2-1.2.7-2.8 1-4.8 1-1.3 0-2.5-.2-3.6-.6-1-.4-1.9-.9-2.7-1.6-.7-.7-1.3-1.6-1.7-2.6-.4-1-.6-2.1-.6-3.4 0-1.3.2-2.4.6-3.4.4-1 1-1.9 1.7-2.6s1.6-1.3 2.7-1.7c1-.4 2.2-.6 3.4-.6 2.6 0 4.6.7 5.9 2.2 1.3 1.4 2 3.4 2 6v1.2h-11.7zm7.5-2.8c0-.4-.1-.8-.2-1.2-.1-.4-.3-.8-.5-1.1-.3-.3-.6-.6-1-.8-.4-.2-1-.3-1.6-.3-.8 0-1.4.1-1.9.3-.5.2-.9.5-1.2.9-.3.3-.5.7-.7 1.1-.2.4-.3.8-.3 1.1h7.4zM481.1 83.5c-.2-.6-.6-1.1-1.1-1.5-.5-.5-1.2-.7-2.2-.7-.8 0-1.4.1-1.9.4-.5.3-.9.7-1.2 1.1-.3.5-.6 1-.7 1.7-.1.6-.2 1.3-.2 1.9 0 1.3.3 2.3 1 3.1.7.8 1.7 1.2 2.9 1.2.9 0 1.6-.2 2.1-.6.5-.4.9-.9 1.3-1.6L485 90c-.6 1.2-1.5 2.2-2.7 3-1.2.8-2.8 1.2-4.7 1.2-1.4 0-2.7-.2-3.7-.6-1.1-.4-1.9-1-2.6-1.7-.7-.7-1.2-1.6-1.5-2.5-.3-1-.5-2.1-.5-3.2 0-1.2.2-2.3.6-3.3.4-1 1-1.9 1.7-2.6s1.6-1.3 2.7-1.7c1-.4 2.2-.6 3.5-.6 2.1 0 3.7.4 4.8 1.1 1.2.8 2 1.7 2.6 3l-4.1 1.4zM511.1 79.2c-.4-1.4-1-2.5-2-3.1-1-.6-2.1-1-3.5-1-1 0-1.8.2-2.6.6-.8.4-1.4 1-2 1.7-.5.7-1 1.5-1.2 2.4-.3.9-.4 1.9-.4 2.9 0 1.2.2 2.2.5 3.2.3.9.7 1.7 1.3 2.4.6.6 1.2 1.1 2 1.5.8.3 1.7.5 2.6.5 1.1 0 2.2-.3 3.2-.8s1.7-1.5 2.1-2.7l4.8.6c-.4 1.2-.9 2.3-1.6 3.1-.7.9-1.5 1.6-2.3 2.1-.9.6-1.9 1-3 1.2-1.1.3-2.2.4-3.4.4-1.6 0-3.1-.3-4.5-.8s-2.5-1.2-3.5-2.2c-1-1-1.7-2.2-2.3-3.6-.5-1.4-.8-3.1-.8-5 0-1.6.3-3.1.8-4.5s1.3-2.6 2.3-3.7c1-1 2.2-1.9 3.5-2.5 1.4-.6 2.9-.9 4.5-.9 1.2 0 2.4.1 3.5.4 1.1.3 2.1.7 3 1.2.9.6 1.7 1.3 2.3 2.2.6.9 1.1 2 1.4 3.3l-4.7 1.1zM517.4 73.8c0-.3.1-.6.2-1 .1-.3.3-.6.5-.8.2-.2.5-.4.8-.6.3-.1.6-.2 1-.2.3 0 .6.1.9.2s.6.3.8.5c.2.2.4.5.6.8.1.3.2.6.2 1 0 .3-.1.6-.2 1-.1.3-.3.6-.5.8-.2.2-.5.4-.8.6-.3.1-.6.2-1 .2s-.7-.1-1-.2c-.3-.2-.6-.3-.8-.6-.2-.2-.4-.5-.5-.8-.1-.3-.2-.6-.2-.9zm.4 4.7h4.3v15.4h-4.3V78.5zM524 78.5h2.3v-4.4h4.3v4.4h3.6v3.4h-3.6v7.4c0 .5.1.9.4 1.1.3.2.7.3 1.3.3.4 0 .8 0 1.3-.1V94c-.3 0-.8.1-1.3.1H531c-.7 0-1.3-.1-1.9-.2-.6-.1-1.1-.4-1.5-.7-.4-.3-.7-.8-1-1.3-.2-.6-.3-1.3-.3-2.1v-7.9H524v-3.4zM540.7 93.9l-5.8-15.4h4.8l3.2 10.3h.1l3.3-10.3h4.6l-8.5 22H538l2.7-6.6zM375.8 120.9c1.2 0 2.1-.3 2.5-1 .5-.6.7-1.7.7-3.1V106h-3.7v-4h8.2v14.9c0 1.5-.2 2.7-.5 3.7-.4 1-.9 1.8-1.5 2.4-.6.6-1.4 1-2.3 1.3-.9.3-1.9.4-2.9.4h-1.1c-.4 0-.8-.1-1.2-.1v-3.7c.3 0 .6.1.9.1.3-.1.6-.1.9-.1zM390.4 117.7c0 .5.1.9.3 1.4.2.4.4.8.8 1.2.3.3.8.6 1.3.8.5.2 1.2.3 1.9.3 1.6 0 2.7-.6 3.3-1.8l4 1c-.6 1.4-1.5 2.5-2.7 3.1s-2.8 1-4.7 1c-1.3 0-2.5-.2-3.6-.6-1-.4-1.9-.9-2.6-1.6-.7-.7-1.3-1.5-1.7-2.5-.4-1-.6-2.1-.6-3.3 0-1.2.2-2.4.6-3.4.4-1 1-1.9 1.7-2.6s1.6-1.3 2.6-1.6c1-.4 2.2-.6 3.4-.6 2.6 0 4.6.7 5.9 2.1 1.3 1.4 2 3.4 2 5.9v1.2h-11.9zm7.4-2.8c0-.4-.1-.8-.2-1.2-.1-.4-.3-.8-.5-1.1-.3-.3-.6-.6-1-.8-.4-.2-1-.3-1.6-.3-.7 0-1.4.1-1.9.3-.5.2-.9.5-1.2.9-.3.3-.5.7-.7 1.1-.2.4-.3.8-.3 1.1h7.4zM414.2 122.2c-.5.8-1.1 1.4-1.9 1.8-.8.4-1.8.6-3 .6-.6 0-1.2-.1-1.9-.2-.6-.2-1.2-.4-1.7-.8s-.9-.9-1.3-1.5c-.3-.6-.5-1.4-.5-2.3 0-1 .2-1.8.6-2.4.4-.6 1-1.1 1.7-1.5.7-.4 1.6-.6 2.7-.8 1-.1 2.2-.2 3.5-.2h1.7v-.6c0-.9-.2-1.6-.6-2.1-.4-.5-1.1-.7-2.1-.7-.9 0-1.6.2-2 .6-.4.4-.7.8-.7 1.4h-4.1c0-.7.2-1.3.5-1.9.3-.6.7-1.2 1.3-1.6.6-.5 1.3-.8 2.2-1.1.9-.3 2-.4 3.2-.4 1.3 0 2.3.1 3.2.4.8.3 1.5.7 2 1.2s.9 1.1 1 1.9c.2.7.3 1.5.3 2.4v7.5c0 .4 0 .8.1 1.3 0 .4.1.8.2 1.1h-3.9l-.5-2.1zm-.2-4.7h-1.2c-.6 0-1.1 0-1.7.1s-1 .2-1.5.3c-.4.2-.8.4-1 .7-.3.3-.4.7-.4 1.1 0 .7.2 1.3.7 1.5.5.3 1 .4 1.8.4.4 0 .8-.1 1.2-.2.4-.1.7-.3 1.1-.6.3-.3.6-.6.8-1 .2-.4.3-.9.3-1.5v-.8zM431.3 114.9c0-.5-.1-1-.2-1.4-.2-.4-.4-.7-.6-.9-.3-.2-.5-.4-.9-.5-.3-.1-.7-.1-1-.1-.8 0-1.6.3-2.1 1-.6.7-.9 1.5-.9 2.6v8.7h-4.3v-15.4h4.1v2h.1c.7-.9 1.4-1.6 2.2-1.9.8-.3 1.7-.5 2.5-.5.9 0 1.7.1 2.4.4.7.3 1.2.7 1.7 1.1.4.5.8 1 1 1.7.2.7.3 1.4.3 2.1v10.5h-4.3v-9.4zM446.2 102h4.5v18.1h8.6v4.2h-13V102zM464.7 117.7c0 .5.1.9.3 1.4.2.4.4.8.8 1.2.3.3.8.6 1.3.8.5.2 1.2.3 1.9.3 1.6 0 2.7-.6 3.3-1.8l4 1c-.6 1.4-1.5 2.5-2.7 3.1-1.2.7-2.8 1-4.7 1-1.3 0-2.5-.2-3.6-.6-1-.4-1.9-.9-2.6-1.6-.7-.7-1.3-1.5-1.7-2.5-.4-1-.6-2.1-.6-3.3 0-1.2.2-2.4.6-3.4.4-1 1-1.9 1.7-2.6.7-.7 1.6-1.3 2.6-1.6 1-.4 2.2-.6 3.4-.6 2.6 0 4.6.7 5.9 2.1 1.3 1.4 2 3.4 2 5.9v1.2h-11.9zm7.4-2.8c0-.4-.1-.8-.2-1.2-.1-.4-.3-.8-.5-1.1-.3-.3-.6-.6-1-.8-.4-.2-1-.3-1.6-.3-.7 0-1.4.1-1.9.3-.5.2-.9.5-1.2.9-.3.3-.5.7-.7 1.1-.2.4-.3.8-.3 1.1h7.4zM487.6 113.5c0-.6-.3-1.1-.8-1.4-.5-.3-1.2-.5-2-.5-.6 0-1.1.1-1.6.3-.5.2-.7.6-.7 1 0 .5.2.9.7 1.2.5.3 1.1.4 1.8.6.7.1 1.5.3 2.3.4s1.6.3 2.3.7c.7.3 1.3.7 1.8 1.3.5.6.7 1.4.7 2.4 0 .5-.1 1.1-.3 1.7-.2.6-.6 1.2-1.1 1.7-.5.5-1.2 1-2.2 1.3-.9.3-2.1.5-3.5.5-.9 0-1.8-.1-2.6-.2s-1.5-.4-2-.8c-.6-.4-1.1-.9-1.4-1.5-.4-.6-.6-1.4-.7-2.3l4.2-.1c0 .8.3 1.3.9 1.5.5.3 1.1.4 1.8.4.3 0 .5 0 .9-.1.3 0 .6-.1.8-.2.3-.1.5-.3.6-.5.2-.2.2-.5.2-.8 0-.5-.2-.9-.7-1.1-.4-.2-1-.4-1.7-.5-.7-.1-1.4-.3-2.2-.4-.8-.1-1.5-.4-2.2-.7-.7-.3-1.2-.8-1.7-1.4-.4-.6-.7-1.4-.7-2.5 0-.6.1-1.2.4-1.8.2-.6.6-1.1 1.1-1.6.5-.5 1.2-.9 2-1.1s1.8-.4 2.9-.4c2 0 3.6.4 4.8 1.2 1.2.8 1.9 2 2 3.7h-4.1zM504.2 122.2c-.5.8-1.1 1.4-1.9 1.8-.8.4-1.8.6-3 .6-.6 0-1.2-.1-1.9-.2-.6-.2-1.2-.4-1.7-.8s-.9-.9-1.3-1.5-.5-1.4-.5-2.3c0-1 .2-1.8.6-2.4.4-.6 1-1.1 1.7-1.5.7-.4 1.6-.6 2.7-.8 1-.1 2.2-.2 3.5-.2h1.7v-.6c0-.9-.2-1.6-.6-2.1-.4-.5-1.1-.7-2.1-.7-.9 0-1.6.2-2 .6-.4.4-.7.8-.7 1.4h-4.1c0-.7.2-1.3.5-1.9.3-.6.7-1.2 1.3-1.6.6-.5 1.3-.8 2.2-1.1.9-.3 2-.4 3.2-.4 1.3 0 2.3.1 3.2.4s1.5.7 2 1.2.9 1.1 1 1.9c.2.7.3 1.5.3 2.4v7.5c0 .4 0 .8.1 1.3 0 .4.1.8.2 1.1h-3.9l-.5-2.1zm-.1-4.7h-1.2c-.6 0-1.1 0-1.7.1s-1 .2-1.5.3c-.4.2-.8.4-1 .7-.3.3-.4.7-.4 1.1 0 .7.2 1.3.7 1.5.5.3 1 .4 1.8.4.4 0 .8-.1 1.2-.2.4-.1.7-.3 1.1-.6.3-.3.6-.6.8-1 .2-.4.3-.9.3-1.5v-.8zM522.7 108.9h4.1v14.2c0 1.2-.2 2.2-.5 3.2s-.8 1.8-1.5 2.5-1.6 1.2-2.7 1.6c-1.1.4-2.4.6-4 .6-2.2 0-4-.4-5.2-1.2-1.3-.8-2.1-1.9-2.4-3.3l4.2-.6c.2.6.6 1.1 1.2 1.4s1.4.4 2.3.4c1.6 0 2.7-.3 3.4-1s1.1-1.8 1.1-3.5v-1.6c-.5 1-1.2 1.7-2 2.2s-1.9.7-3 .7c-1 0-1.9-.2-2.8-.5-.9-.3-1.6-.8-2.3-1.5-.7-.7-1.2-1.5-1.6-2.5-.4-1-.6-2.1-.6-3.3 0-1.1.2-2.1.5-3.1.4-1 .9-1.8 1.5-2.6.6-.7 1.4-1.3 2.3-1.8.9-.4 1.9-.7 3-.7 1.2 0 2.2.3 3 .8.8.5 1.4 1.2 1.8 2v-2.4zm0 7.5c0-1.4-.3-2.5-1-3.2-.7-.7-1.7-1.1-3-1.1-.6 0-1.1.1-1.5.3-.5.2-.9.5-1.2.9s-.6.8-.8 1.4c-.2.5-.3 1.1-.3 1.6 0 .9.1 1.7.4 2.3s.6 1 1 1.4c.4.3.8.6 1.3.7s.9.2 1.3.2c.3 0 .6-.1 1.1-.2.4-.1.8-.3 1.2-.6.4-.3.8-.8 1-1.4s.5-1.3.5-2.3zM533.6 117.7c0 .5.1.9.3 1.4.2.4.4.8.8 1.2.3.3.8.6 1.3.8.5.2 1.2.3 1.9.3 1.6 0 2.7-.6 3.3-1.8l4 1c-.6 1.4-1.5 2.5-2.7 3.1s-2.8 1-4.7 1c-1.3 0-2.5-.2-3.6-.6-1-.4-1.9-.9-2.6-1.6-.7-.7-1.3-1.5-1.7-2.5-.4-1-.6-2.1-.6-3.3 0-1.2.2-2.4.6-3.4.4-1 1-1.9 1.7-2.6.7-.7 1.6-1.3 2.6-1.6s2.2-.6 3.4-.6c2.6 0 4.6.7 5.9 2.1 1.3 1.4 2 3.4 2 5.9v1.2h-11.9zm7.4-2.8c0-.4-.1-.8-.2-1.2-.1-.4-.3-.8-.5-1.1-.3-.3-.6-.6-1-.8-.4-.2-1-.3-1.6-.3-.7 0-1.4.1-1.9.3-.5.2-.9.5-1.2.9-.3.3-.5.7-.7 1.1-.2.4-.3.8-.3 1.1h7.4zM375.1 132.3h4.5v22.3h-4.5v-22.3zM393.5 145.3c0-.5-.1-1-.2-1.4-.2-.4-.4-.7-.6-.9-.3-.2-.5-.4-.9-.5-.3-.1-.7-.1-1-.1-.8 0-1.6.3-2.1 1-.6.7-.9 1.5-.9 2.6v8.7h-4.3v-15.4h4.1v2h.1c.7-.9 1.4-1.6 2.2-1.9.8-.3 1.7-.5 2.5-.5.9 0 1.7.1 2.4.4.7.3 1.2.7 1.7 1.1.4.5.8 1 1 1.7.2.7.3 1.4.3 2.1v10.5h-4.3v-9.4zM399.8 139.2h2.3v-4.4h4.3v4.4h3.6v3.4h-3.6v7.4c0 .5.1.9.4 1.1.3.2.7.3 1.3.3.4 0 .8 0 1.3-.1v3.4c-.4 0-.8.1-1.3.1h-1.3c-.7 0-1.3-.1-1.9-.2-.6-.1-1.1-.4-1.5-.7-.4-.3-.7-.8-1-1.3-.2-.6-.3-1.3-.3-2.1v-7.9h-2.3v-3.4zM415.6 148c0 .5.1.9.3 1.4.2.4.4.8.8 1.2.4.3.8.6 1.3.8s1.2.3 1.9.3c1.6 0 2.7-.6 3.3-1.8l4 1c-.6 1.4-1.5 2.5-2.7 3.1-1.2.7-2.8 1-4.7 1-1.3 0-2.5-.2-3.6-.6-1-.4-1.9-.9-2.6-1.6-.7-.7-1.3-1.5-1.7-2.5-.4-1-.6-2.1-.6-3.3 0-1.2.2-2.4.6-3.4.4-1 1-1.9 1.7-2.6.7-.7 1.6-1.3 2.6-1.6 1-.4 2.2-.6 3.4-.6 2.6 0 4.6.7 5.9 2.1 1.3 1.4 2 3.4 2 5.9v1.2h-11.9zm7.4-2.7c0-.4-.1-.8-.2-1.2-.1-.4-.3-.8-.5-1.1-.3-.3-.6-.6-1-.8-.4-.2-1-.3-1.6-.3-.7 0-1.4.1-1.9.3-.5.2-.9.5-1.2.9-.3.3-.5.7-.7 1.1-.2.4-.3.8-.3 1.1h7.4zM430 139.2h4.2v3.9h.1c.2-.5.4-1 .7-1.6.3-.5.7-1 1.1-1.4.4-.4.9-.7 1.4-1 .5-.3 1.1-.4 1.7-.4h.4v4.2h-.4c-.7 0-1.3.1-1.9.4-.6.2-1.1.6-1.5 1-.4.4-.8.9-1 1.5-.3.6-.4 1.2-.4 1.9v6.9H430v-15.4zM451.6 145.3c0-.5-.1-1-.2-1.4-.2-.4-.4-.7-.6-.9-.3-.2-.5-.4-.9-.5-.3-.1-.7-.1-1-.1-.8 0-1.6.3-2.1 1-.6.7-.9 1.5-.9 2.6v8.7h-4.3v-15.4h4.1v2h.1c.7-.9 1.4-1.6 2.2-1.9.8-.3 1.7-.5 2.5-.5.9 0 1.7.1 2.4.4.7.3 1.2.7 1.7 1.1.4.5.8 1 1 1.7.2.7.3 1.4.3 2.1v10.5h-4.3v-9.4zM468.2 152.6c-.5.8-1.1 1.4-1.9 1.8-.8.4-1.8.6-3 .6-.6 0-1.2-.1-1.9-.2-.6-.2-1.2-.4-1.7-.8s-.9-.9-1.3-1.5c-.3-.6-.5-1.4-.5-2.3 0-1 .2-1.8.6-2.4.4-.6 1-1.1 1.7-1.5.7-.4 1.6-.6 2.7-.8 1-.1 2.2-.2 3.5-.2h1.7v-.6c0-.9-.2-1.6-.6-2.1-.4-.5-1.1-.7-2.1-.7-.9 0-1.6.2-2 .6-.4.4-.7.8-.7 1.4h-4.1c0-.7.2-1.3.5-1.9.3-.6.7-1.2 1.3-1.6.6-.5 1.3-.8 2.2-1.1.9-.3 2-.4 3.2-.4 1.3 0 2.3.1 3.2.4s1.5.7 2 1.2.9 1.1 1 1.9.3 1.5.3 2.4v7.5c0 .4 0 .8.1 1.3 0 .4.1.8.2 1.1h-3.9l-.5-2.1zm-.1-4.7h-1.2c-.6 0-1.1 0-1.7.1s-1 .2-1.5.3c-.4.2-.8.4-1 .7-.3.3-.4.7-.4 1.1 0 .7.2 1.3.7 1.5s1 .4 1.8.4c.4 0 .8-.1 1.2-.2.4-.1.7-.3 1.1-.6.3-.3.6-.6.8-1 .2-.4.3-.9.3-1.5v-.8zM474 139.2h2.3v-4.4h4.3v4.4h3.6v3.4h-3.6v7.4c0 .5.1.9.4 1.1.3.2.7.3 1.3.3.4 0 .8 0 1.3-.1v3.4c-.3 0-.8.1-1.3.1H481c-.7 0-1.3-.1-1.9-.2-.6-.1-1.1-.4-1.5-.7-.4-.3-.7-.8-1-1.3-.2-.6-.3-1.3-.3-2.1v-7.9H474v-3.4zM486.1 134.5c0-.3.1-.6.2-1 .1-.3.3-.6.5-.8.2-.2.5-.4.8-.6.3-.1.6-.2 1-.2.3 0 .6.1.9.2.3.1.6.3.8.5.2.2.4.5.6.8.1.3.2.6.2 1 0 .3-.1.6-.2 1-.1.3-.3.6-.5.8-.2.2-.5.4-.8.6-.3.1-.6.2-1 .2s-.7-.1-1-.2c-.3-.2-.6-.3-.8-.6-.2-.2-.4-.5-.5-.8-.1-.3-.2-.6-.2-.9zm.4 4.7h4.3v15.4h-4.3v-15.4zM510.2 146.9c0 1-.2 2-.5 3-.4 1-.9 1.9-1.6 2.6-.7.8-1.6 1.4-2.7 1.8-1.1.5-2.3.7-3.7.7-1.5 0-2.8-.2-3.9-.7s-1.9-1.1-2.6-1.8c-.7-.8-1.2-1.6-1.5-2.6-.3-1-.5-2-.5-3s.2-2 .5-3c.4-1 .9-1.8 1.6-2.6.7-.8 1.6-1.4 2.7-1.8 1.1-.5 2.3-.7 3.7-.7 1.5 0 2.8.2 3.8.7 1.1.5 2 1.1 2.7 1.8.7.8 1.2 1.6 1.5 2.6.3 1 .5 2 .5 3zm-12.7 0c0 1.4.3 2.5 1 3.4.7.9 1.7 1.3 3.1 1.3 1.4 0 2.5-.4 3.1-1.3.7-.9 1-2 1-3.4s-.3-2.5-1-3.4c-.7-.9-1.7-1.3-3.1-1.3-1.4 0-2.5.4-3.1 1.3-.7.9-1 2-1 3.4zM522.5 145.3c0-.5-.1-1-.2-1.4s-.4-.7-.6-.9c-.3-.2-.5-.4-.9-.5-.3-.1-.7-.1-1-.1-.8 0-1.6.3-2.1 1-.6.7-.9 1.5-.9 2.6v8.7h-4.3v-15.4h4.1v2h.1c.7-.9 1.4-1.6 2.2-1.9.8-.3 1.7-.5 2.5-.5.9 0 1.7.1 2.4.4.7.3 1.2.7 1.7 1.1.4.5.8 1 1 1.7.2.7.3 1.4.3 2.1v10.5h-4.3v-9.4zM539.4 152.6c-.5.8-1.1 1.4-1.9 1.8-.8.4-1.8.6-3 .6-.6 0-1.2-.1-1.9-.2-.6-.2-1.2-.4-1.7-.8s-.9-.9-1.3-1.5c-.3-.6-.5-1.4-.5-2.3 0-1 .2-1.8.6-2.4.4-.6 1-1.1 1.7-1.5.7-.4 1.6-.6 2.7-.8 1-.1 2.2-.2 3.5-.2h1.7v-.6c0-.9-.2-1.6-.6-2.1-.4-.5-1.1-.7-2.1-.7-.9 0-1.6.2-2 .6-.4.4-.7.8-.7 1.4h-4.1c0-.7.2-1.3.5-1.9.3-.6.7-1.2 1.3-1.6.6-.5 1.3-.8 2.2-1.1.9-.3 2-.4 3.2-.4 1.3 0 2.3.1 3.2.4.8.3 1.5.7 2 1.2s.9 1.1 1 1.9c.2.7.3 1.5.3 2.4v7.5c0 .4 0 .8.1 1.3 0 .4.1.8.2 1.1h-3.9l-.5-2.1zm-.2-4.7H538c-.6 0-1.1 0-1.7.1s-1 .2-1.5.3c-.4.2-.8.4-1 .7-.3.3-.4.7-.4 1.1 0 .7.2 1.3.7 1.5s1 .4 1.8.4c.4 0 .8-.1 1.2-.2.4-.1.7-.3 1.1-.6.3-.3.6-.6.8-1 .2-.4.3-.9.3-1.5v-.8zM546.6 131.5h4.3v23.1h-4.3v-23.1zM386.7 180.3h-7.8l-1.4 4.7h-4.8l8-22.3h4.7L393 185h-4.9l-1.4-4.7zm-3.9-12.2l-2.9 8.6h5.7l-2.8-8.6zM394.2 164.8c0-.3.1-.6.2-1 .1-.3.3-.6.5-.8.2-.2.5-.4.8-.6.3-.1.6-.2 1-.2.3 0 .6.1.9.2.3.1.6.3.8.5s.4.5.6.8c.1.3.2.6.2 1 0 .3-.1.6-.2 1-.1.3-.3.6-.5.8-.2.2-.5.4-.8.6-.3.1-.6.2-1 .2s-.7-.1-1-.2c-.3-.2-.6-.3-.8-.6-.2-.2-.4-.5-.5-.8-.2-.3-.2-.6-.2-.9zm.3 4.8h4.3V185h-4.3v-15.4zM402.5 169.6h4.2v3.9h.1c.2-.5.4-1 .7-1.6.3-.5.7-1 1.1-1.4.4-.4.9-.7 1.4-1 .5-.3 1.1-.4 1.7-.4h.4v4.2h-.4c-.7 0-1.3.1-1.9.4-.6.2-1.1.6-1.5 1-.4.4-.8.9-1 1.5-.3.6-.4 1.2-.4 1.9v6.9h-4.3v-15.4zM413.8 169.6h4.1v2.1h.1c.6-.9 1.4-1.6 2.2-2 .9-.4 1.8-.6 2.8-.6 1.1 0 2 .2 2.9.7.9.4 1.6 1 2.3 1.8.6.8 1.1 1.6 1.5 2.6.3 1 .5 2 .5 3.1s-.2 2.1-.5 3.1-.8 1.8-1.4 2.6-1.4 1.3-2.2 1.8c-.9.4-1.9.7-3 .7-1 0-1.9-.2-2.7-.5-.8-.4-1.5-1-2.2-2h-.1v8.6h-4.3v-22zm11.9 7.6c0-.6-.1-1.2-.2-1.7s-.4-1-.7-1.4c-.3-.4-.7-.7-1.2-1-.5-.2-1-.4-1.7-.4-.6 0-1.2.1-1.6.4-.5.2-.9.6-1.2 1-.3.4-.6.9-.8 1.4-.2.6-.3 1.2-.3 1.8 0 .6.1 1.1.2 1.7.2.5.4 1 .8 1.4.3.4.8.7 1.3 1 .5.3 1.1.4 1.8.4.6 0 1.1-.1 1.6-.4.5-.3.9-.6 1.2-1 .3-.4.5-.9.7-1.5.1-.6.1-1.1.1-1.7zM448.3 177.3c0 1-.2 2-.5 3-.4 1-.9 1.9-1.6 2.6-.7.8-1.6 1.4-2.7 1.8-1.1.5-2.3.7-3.7.7-1.5 0-2.8-.2-3.9-.7-1.1-.5-1.9-1.1-2.6-1.8-.7-.8-1.2-1.6-1.5-2.6-.3-1-.5-2-.5-3s.2-2 .5-3c.4-1 .9-1.8 1.6-2.6.7-.8 1.6-1.4 2.7-1.8 1.1-.5 2.3-.7 3.7-.7 1.5 0 2.8.2 3.8.7 1.1.5 2 1.1 2.7 1.8.7.8 1.2 1.6 1.5 2.6.3 1 .5 1.9.5 3zm-12.7 0c0 1.4.3 2.5 1 3.4.7.9 1.7 1.3 3.1 1.3s2.5-.4 3.1-1.3c.7-.9 1-2 1-3.4s-.3-2.5-1-3.4c-.7-.9-1.7-1.3-3.1-1.3s-2.5.4-3.1 1.3c-.7.9-1 2-1 3.4zM450.2 169.6h4.2v3.9h.1c.2-.5.4-1 .7-1.6.3-.5.7-1 1.1-1.4.4-.4.9-.7 1.4-1 .5-.3 1.1-.4 1.7-.4h.4v4.2h-.4c-.7 0-1.3.1-1.9.4-.6.2-1.1.6-1.5 1-.4.4-.8.9-1 1.5-.3.6-.4 1.2-.4 1.9v6.9h-4.3v-15.4zM461.2 169.6h2.3v-4.4h4.3v4.4h3.6v3.4h-3.6v7.4c0 .5.1.9.4 1.1.3.2.7.3 1.3.3.4 0 .8 0 1.3-.1v3.4c-.3 0-.8.1-1.3.1h-1.3c-.7 0-1.3-.1-1.9-.2-.6-.1-1.1-.4-1.5-.7-.4-.3-.7-.8-1-1.3-.2-.6-.3-1.3-.3-2.1V173h-2.3v-3.4zM48.6 185h24.2v-44.8l47.6-52.5L103 70.2l-42.3 46.6-42.3-46.6L1 87.6l47.6 52.5V185zM242.5 185l-20-20c8.2-10.1 13.1-22.9 13.1-36.9 0-32.2-26.1-58.4-58.4-58.4s-58.4 26.1-58.4 58.4 26.1 58.4 58.4 58.4c9.3 0 18.2-2.2 26-6.1l22 22 17.3-17.4zm-99.2-56.9c0-18.7 15.2-33.9 33.9-33.9s33.9 15.2 33.9 33.9S196 162 177.3 162s-34-15.2-34-33.9z"/><g><path d="M309.2 185h-57.4V71.3H303c23.3 0 37.1 11.2 37.1 30 0 10.1-4.1 18-11.8 23.2 11.6 4.4 18.7 14.7 18.7 27.5.1 19.1-15.8 33-37.8 33zm-33.1-21.8h30.2c14.3 0 15.9-9.2 15.9-13.1 0-4.9-2.2-13.2-17.2-13.2h-28.9v26.3zm0-46.8h25.6c6.5 0 14-3.2 14-12.1 0-9.2-8.1-11.2-14.9-11.2h-24.7v23.3z"/></g></svg>