<svg id="Calque_1" xmlns="http://www.w3.org/2000/svg" width="552" height="204" viewBox="0 0 552 204"><style>.st0{fill:#05f}</style><path class="st0" d="M60.8 1.8c18.7 0 33.9 15.2 33.9 33.9S79.5 69.6 60.8 69.6 26.9 54.4 26.9 35.7 42.1 1.8 60.8 1.8"/><path d="M387 89.2h-7.9l-1.5 4.7h-4.8l8-22.5h4.7l7.8 22.5h-4.9l-1.4-4.7zm-3.8-12.4l-2.9 8.7h5.8l-2.9-8.7zM398.2 87.2c0 .5.1.9.3 1.4.2.5.4.8.8 1.2.4.3.8.6 1.3.8.5.2 1.2.3 1.9.3 1.6 0 2.7-.6 3.3-1.8l4 1c-.6 1.4-1.5 2.5-2.8 3.2-1.2.7-2.8 1-4.7 1-1.3 0-2.5-.2-3.6-.6-1-.4-1.9-.9-2.7-1.6-.7-.7-1.3-1.6-1.7-2.6-.4-1-.6-2.1-.6-3.4 0-1.3.2-2.4.6-3.4.4-1 1-1.9 1.7-2.6.7-.7 1.6-1.3 2.7-1.7 1-.4 2.2-.6 3.4-.6 2.6 0 4.6.7 5.9 2.2 1.3 1.4 2 3.4 2 6v1.2h-11.8zm7.4-2.8c0-.4-.1-.8-.2-1.2-.1-.4-.3-.8-.5-1.1-.3-.3-.6-.6-1-.8-.4-.2-1-.3-1.6-.3-.8 0-1.4.1-1.9.3-.5.2-.9.5-1.2.9-.3.3-.5.7-.7 1.1-.2.4-.3.8-.3 1.1h7.4zm-2.4-13.1h4.4l-4.2 4.2h-2.8l2.6-4.2zM412.6 78.3h4.2v3.9h.1c.2-.5.4-1.1.7-1.6.3-.5.7-1 1.1-1.4.4-.4.9-.8 1.4-1 .5-.3 1.1-.4 1.7-.4h.4V82h-.4c-.7 0-1.3.1-1.9.4-.6.2-1.1.6-1.5 1-.4.4-.8.9-1 1.5-.3.6-.4 1.2-.4 1.9v7h-4.4V78.3zM440 86c0 1-.2 2.1-.5 3-.4 1-.9 1.9-1.6 2.6-.7.8-1.6 1.4-2.7 1.8-1.1.5-2.3.7-3.7.7-1.5 0-2.8-.2-3.9-.7-1.1-.5-2-1.1-2.7-1.8-.7-.8-1.2-1.6-1.5-2.6-.3-1-.5-2-.5-3s.2-2 .5-3c.4-1 .9-1.9 1.6-2.6.7-.8 1.6-1.4 2.7-1.9s2.3-.7 3.7-.7c1.5 0 2.8.2 3.9.7 1.1.5 2 1.1 2.7 1.9.7.8 1.2 1.6 1.5 2.6.4 1 .5 2 .5 3zm-12.8.1c0 1.4.3 2.5 1 3.4.7.9 1.7 1.3 3.2 1.3 1.4 0 2.5-.4 3.2-1.3.7-.9 1-2 1-3.4s-.3-2.5-1-3.4c-.7-.9-1.7-1.4-3.2-1.4-1.4 0-2.5.5-3.2 1.4-.7.8-1 2-1 3.4zM442.2 78.3h4.2v2.2h.1c.6-.9 1.4-1.6 2.3-2 .9-.4 1.8-.6 2.8-.6 1.1 0 2.1.2 3 .7.9.5 1.7 1.1 2.3 1.8.6.8 1.1 1.6 1.5 2.6.4 1 .5 2 .5 3.1s-.2 2.1-.5 3.1-.8 1.9-1.4 2.6c-.6.8-1.4 1.3-2.3 1.8-.9.4-1.9.7-3 .7-1 0-1.9-.2-2.7-.5-.8-.4-1.5-1-2.3-2h-.1v8.7h-4.4V78.3zm12.1 7.7c0-.6-.1-1.2-.2-1.8-.2-.6-.4-1-.7-1.5-.3-.4-.7-.7-1.2-1-.5-.2-1-.4-1.7-.4-.6 0-1.2.1-1.6.4-.5.2-.9.6-1.2 1-.3.4-.6.9-.8 1.5-.2.6-.3 1.2-.3 1.8 0 .6.1 1.1.2 1.7.2.6.4 1 .8 1.5.3.4.8.8 1.3 1 .5.3 1.1.4 1.8.4.6 0 1.2-.1 1.6-.4.5-.3.9-.6 1.2-1 .3-.4.6-.9.7-1.5 0-.6.1-1.1.1-1.7zM477.7 86c0 1-.2 2.1-.5 3-.4 1-.9 1.9-1.6 2.6-.7.8-1.6 1.4-2.7 1.8-1.1.5-2.3.7-3.7.7-1.5 0-2.8-.2-3.9-.7-1.1-.5-2-1.1-2.7-1.8-.7-.8-1.2-1.6-1.5-2.6-.3-1-.5-2-.5-3s.2-2 .5-3c.4-1 .9-1.9 1.6-2.6.7-.8 1.6-1.4 2.7-1.9s2.3-.7 3.7-.7c1.5 0 2.8.2 3.9.7 1.1.5 2 1.1 2.7 1.9.7.8 1.2 1.6 1.5 2.6.4 1 .5 2 .5 3zm-12.8.1c0 1.4.3 2.5 1 3.4.7.9 1.7 1.3 3.2 1.3s2.5-.4 3.2-1.3c.7-.9 1-2 1-3.4s-.3-2.5-1-3.4c-.7-.9-1.7-1.4-3.2-1.4s-2.5.5-3.2 1.4c-.6.8-1 2-1 3.4zM479.7 78.3h4.2v3.9h.1c.2-.5.4-1.1.7-1.6.3-.5.7-1 1.1-1.4.4-.4.9-.8 1.4-1 .5-.3 1.1-.4 1.7-.4h.4V82h-.4c-.7 0-1.3.1-1.9.4-.6.2-1.1.6-1.5 1-.4.4-.8.9-1 1.5-.3.6-.4 1.2-.4 1.9v7h-4.4V78.3zM490.8 78.3h2.3v-4.5h4.4v4.5h3.6v3.4h-3.6v7.5c0 .5.1.9.4 1.1.3.2.7.3 1.3.3.4 0 .8 0 1.3-.1v3.4c-.4 0-.8.1-1.3.1h-1.3c-.7 0-1.4-.1-1.9-.2-.6-.1-1.1-.4-1.5-.7-.4-.3-.7-.8-1-1.3-.2-.6-.3-1.3-.3-2.1v-8h-2.3v-3.4zM373.9 103.8c0-.3.1-.7.2-1 .1-.3.3-.6.5-.8.2-.2.5-.4.8-.6.3-.1.7-.2 1-.2.3 0 .6.1.9.2.3.1.6.3.8.5.2.2.4.5.6.8.1.3.2.6.2 1 0 .3-.1.7-.2 1-.1.3-.3.6-.6.8-.2.2-.5.4-.8.6-.3.1-.6.2-1 .2s-.7-.1-1-.2c-.3-.2-.6-.3-.8-.6-.2-.2-.4-.5-.5-.8 0-.2-.1-.6-.1-.9zm.4 4.8h4.4v15.6h-4.4v-15.6zM392.4 114.7c0-.6-.1-1-.2-1.4-.2-.4-.4-.7-.6-.9-.3-.2-.5-.4-.9-.5-.3-.1-.7-.1-1-.1-.9 0-1.6.3-2.2 1-.6.7-.9 1.5-.9 2.6v8.8h-4.4v-15.6h4.2v2h.1c.7-.9 1.4-1.6 2.2-1.9.8-.3 1.7-.5 2.6-.5.9 0 1.7.1 2.4.4.7.3 1.3.7 1.7 1.2.4.5.8 1.1 1 1.7.2.7.3 1.4.3 2.1v10.6h-4.4v-9.5zM398.7 108.6h2.3v-4.5h4.4v4.5h3.6v3.4h-3.6v7.5c0 .5.1.9.4 1.1.3.2.7.3 1.3.3.4 0 .8 0 1.3-.1v3.4c-.4 0-.8.1-1.3.1h-1.3c-.7 0-1.4-.1-1.9-.2-.6-.1-1.1-.4-1.5-.7-.4-.3-.7-.8-1-1.3-.2-.6-.3-1.3-.3-2.1v-8h-2.3v-3.4zM414.7 117.5c0 .5.1.9.3 1.4.2.5.4.8.8 1.2.4.3.8.6 1.3.8.5.2 1.2.3 1.9.3 1.6 0 2.7-.6 3.3-1.8l4 1c-.6 1.4-1.5 2.5-2.8 3.2s-2.8 1-4.7 1c-1.3 0-2.5-.2-3.6-.6-1-.4-1.9-.9-2.7-1.6-.7-.7-1.3-1.6-1.7-2.6-.4-1-.6-2.1-.6-3.4 0-1.3.2-2.4.6-3.4.4-1 1-1.9 1.7-2.6s1.6-1.3 2.7-1.7c1-.4 2.2-.6 3.4-.6 2.6 0 4.6.7 5.9 2.2 1.3 1.4 2 3.4 2 6v1.2h-11.8zm7.4-2.7c0-.4-.1-.8-.2-1.2-.1-.4-.3-.8-.5-1.1-.3-.3-.6-.6-1-.8-.4-.2-1-.3-1.6-.3-.7 0-1.4.1-1.9.3s-.9.5-1.2.9c-.3.3-.5.7-.7 1.1-.2.4-.3.8-.3 1.1h7.4zM429.2 108.6h4.2v3.9h.1c.2-.5.4-1.1.7-1.6.3-.5.7-1 1.1-1.4.4-.4.9-.8 1.4-1 .5-.3 1.1-.4 1.7-.4h.4v4.2h-.4c-.7 0-1.3.1-1.9.4-.6.2-1.1.6-1.5 1-.4.4-.8.9-1 1.5-.3.6-.4 1.2-.4 1.9v7h-4.4v-15.5zM451 114.7c0-.6-.1-1-.2-1.4-.2-.4-.4-.7-.6-.9-.3-.2-.5-.4-.9-.5-.3-.1-.7-.1-1-.1-.9 0-1.6.3-2.2 1-.6.7-.9 1.5-.9 2.6v8.8h-4.4v-15.6h4.2v2h.1c.7-.9 1.4-1.6 2.2-1.9.8-.3 1.7-.5 2.6-.5.9 0 1.7.1 2.4.4.7.3 1.3.7 1.7 1.2.4.5.8 1.1 1 1.7s.3 1.4.3 2.1v10.6H451v-9.5zM467.9 122.1c-.5.8-1.1 1.4-1.9 1.8-.8.4-1.8.6-3 .6-.6 0-1.2-.1-1.9-.2-.6-.2-1.2-.4-1.7-.8s-.9-.9-1.3-1.5c-.3-.6-.5-1.4-.5-2.3 0-1 .2-1.8.6-2.4.4-.6 1-1.1 1.7-1.5.7-.4 1.6-.6 2.7-.8 1-.1 2.2-.2 3.5-.2h1.7v-.6c0-.9-.2-1.6-.6-2.1-.4-.5-1.1-.7-2.1-.7-.9 0-1.6.2-2.1.6-.5.4-.7.8-.7 1.4H458c0-.7.2-1.3.5-2 .3-.6.7-1.2 1.3-1.6.6-.5 1.3-.8 2.3-1.1.9-.3 2-.4 3.2-.4 1.3 0 2.3.1 3.2.4.8.3 1.5.7 2 1.2s.9 1.1 1.1 1.9c.2.7.3 1.6.3 2.4v7.6c0 .4 0 .9.1 1.3 0 .5.1.8.2 1.1h-3.9l-.4-2.1zm-.2-4.7h-1.2c-.6 0-1.1 0-1.7.1l-1.5.3c-.4.2-.8.4-1.1.7-.3.3-.4.7-.4 1.1 0 .8.2 1.3.7 1.5.5.3 1.1.4 1.8.4.4 0 .8-.1 1.2-.2.4-.1.8-.3 1.1-.6.3-.3.6-.6.8-1 .2-.4.3-.9.3-1.5v-.8zM473.7 108.6h2.4v-4.5h4.4v4.5h3.6v3.4h-3.6v7.5c0 .5.1.9.4 1.1.3.2.7.3 1.3.3.4 0 .8 0 1.3-.1v3.4c-.4 0-.8.1-1.3.1h-1.3c-.7 0-1.4-.1-1.9-.2-.6-.1-1.1-.4-1.5-.7s-.7-.8-1-1.3c-.2-.6-.3-1.3-.3-2.1v-8h-2.4v-3.4zM486 103.8c0-.3.1-.7.2-1 .1-.3.3-.6.5-.8.2-.2.5-.4.8-.6.3-.1.7-.2 1-.2.3 0 .6.1.9.2.3.1.6.3.8.5.2.2.4.5.6.8.1.3.2.6.2 1 0 .3-.1.7-.2 1-.1.3-.3.6-.6.8-.2.2-.5.4-.8.6-.3.1-.6.2-1 .2s-.7-.1-1-.2c-.3-.2-.6-.3-.8-.6-.2-.2-.4-.5-.5-.8-.1-.2-.1-.6-.1-.9zm.3 4.8h4.4v15.6h-4.4v-15.6zM510.3 116.4c0 1-.2 2.1-.5 3-.4 1-.9 1.9-1.6 2.6-.7.8-1.6 1.4-2.7 1.8-1.1.5-2.3.7-3.7.7-1.5 0-2.8-.2-3.9-.7-1.1-.5-2-1.1-2.7-1.8-.7-.8-1.2-1.6-1.5-2.6-.3-1-.5-2-.5-3s.2-2 .5-3c.4-1 .9-1.9 1.6-2.6.7-.8 1.6-1.4 2.7-1.9s2.3-.7 3.7-.7c1.5 0 2.8.2 3.9.7 1.1.5 2 1.1 2.7 1.9.7.8 1.2 1.6 1.5 2.6.3 1 .5 2 .5 3zm-12.9 0c0 1.4.3 2.5 1 3.4.7.9 1.7 1.3 3.2 1.3 1.4 0 2.5-.4 3.2-1.3.7-.9 1-2 1-3.4s-.3-2.5-1-3.4c-.7-.9-1.7-1.4-3.2-1.4-1.4 0-2.5.5-3.2 1.4-.6.9-1 2-1 3.4zM522.7 114.7c0-.6-.1-1-.2-1.4-.2-.4-.4-.7-.6-.9-.3-.2-.5-.4-.9-.5-.3-.1-.7-.1-1-.1-.9 0-1.6.3-2.2 1-.6.7-.9 1.5-.9 2.6v8.8h-4.4v-15.6h4.2v2h.1c.7-.9 1.4-1.6 2.2-1.9.8-.3 1.7-.5 2.6-.5.9 0 1.7.1 2.4.4.7.3 1.3.7 1.7 1.2.4.5.8 1.1 1 1.7s.3 1.4.3 2.1v10.6h-4.4v-9.5zM539.6 122.1c-.5.8-1.1 1.4-1.9 1.8-.8.4-1.8.6-3 .6-.6 0-1.2-.1-1.9-.2-.6-.2-1.2-.4-1.7-.8s-.9-.9-1.3-1.5c-.3-.6-.5-1.4-.5-2.3 0-1 .2-1.8.6-2.4.4-.6 1-1.1 1.7-1.5.7-.4 1.6-.6 2.7-.8 1-.1 2.2-.2 3.5-.2h1.7v-.6c0-.9-.2-1.6-.6-2.1-.4-.5-1.1-.7-2.1-.7-.9 0-1.6.2-2.1.6-.5.4-.7.8-.7 1.4h-4.2c0-.7.2-1.3.5-2 .3-.6.7-1.2 1.3-1.6.6-.5 1.3-.8 2.3-1.1.9-.3 2-.4 3.2-.4 1.3 0 2.3.1 3.2.4.8.3 1.5.7 2 1.2s.9 1.1 1.1 1.9c.2.7.3 1.6.3 2.4v7.6c0 .4 0 .9.1 1.3 0 .5.1.8.2 1.1h-3.9l-.5-2.1zm-.2-4.7h-1.2c-.6 0-1.1 0-1.7.1l-1.5.3c-.4.2-.8.4-1.1.7-.3.3-.4.7-.4 1.1 0 .8.2 1.3.7 1.5.5.3 1.1.4 1.8.4.4 0 .8-.1 1.2-.2.4-.1.8-.3 1.1-.6.3-.3.6-.6.8-1 .2-.4.3-.9.3-1.5v-.8zM546.6 100.8h4.4v23.4h-4.4v-23.4zM374.8 151.2c1.2 0 2.1-.3 2.5-1 .5-.6.7-1.7.7-3.1v-11h-3.8v-4h8.3v15.1c0 1.5-.2 2.8-.5 3.8-.4 1-.9 1.8-1.5 2.4-.6.6-1.4 1.1-2.3 1.3-.9.3-1.9.4-3 .4h-1.1c-.4 0-.8-.1-1.2-.1v-4c.3 0 .6.1.9.1.4 0 .7.1 1 .1zM389.4 147.9c0 .5.1.9.3 1.4.2.5.4.8.8 1.2.4.3.8.6 1.3.8.5.2 1.2.3 1.9.3 1.6 0 2.7-.6 3.3-1.8l4 1c-.6 1.4-1.5 2.5-2.8 3.2-1.2.7-2.8 1-4.7 1-1.3 0-2.5-.2-3.6-.6-1-.4-1.9-.9-2.7-1.6-.7-.7-1.3-1.6-1.7-2.6-.4-1-.6-2.1-.6-3.4 0-1.3.2-2.4.6-3.4.4-1 1-1.9 1.7-2.6.7-.7 1.6-1.3 2.7-1.7 1-.4 2.2-.6 3.4-.6 2.6 0 4.6.7 5.9 2.2 1.3 1.4 2 3.4 2 6v1.2h-11.8zm7.5-2.8c0-.4-.1-.8-.2-1.2-.1-.4-.3-.8-.5-1.1-.3-.3-.6-.6-1-.8-.4-.2-1-.3-1.6-.3-.8 0-1.4.1-1.9.3-.5.2-.9.5-1.2.9-.3.3-.5.7-.7 1.1-.2.4-.3.8-.3 1.1h7.4zM413.5 152.5c-.5.8-1.1 1.4-1.9 1.8-.8.4-1.8.6-3 .6-.6 0-1.2-.1-1.9-.2-.6-.2-1.2-.4-1.7-.8s-.9-.9-1.3-1.5c-.3-.6-.5-1.4-.5-2.3 0-1 .2-1.8.6-2.4.4-.6 1-1.1 1.7-1.5.7-.4 1.6-.6 2.7-.8 1-.1 2.2-.2 3.5-.2h1.7v-.6c0-.9-.2-1.6-.6-2.1-.4-.5-1.1-.7-2.1-.7-.9 0-1.6.2-2.1.6-.5.4-.7.8-.7 1.4h-4.2c0-.7.2-1.3.5-2 .3-.6.7-1.2 1.3-1.6.6-.5 1.3-.8 2.3-1.1.9-.3 2-.4 3.2-.4 1.3 0 2.3.1 3.2.4.8.3 1.5.7 2 1.2s.9 1.1 1.1 1.9c.2.7.3 1.6.3 2.4v7.6c0 .4 0 .9.1 1.3 0 .5.1.8.2 1.1H414l-.5-2.1zm-.1-4.8h-1.2c-.6 0-1.1 0-1.7.1l-1.5.3c-.4.2-.8.4-1.1.7-.3.3-.4.7-.4 1.1 0 .7.2 1.3.7 1.5.5.3 1.1.4 1.8.4.4 0 .8-.1 1.2-.2.4-.1.8-.3 1.1-.6.3-.3.6-.6.8-1 .2-.4.3-.9.3-1.5v-.8zM430.8 145.1c0-.6-.1-1-.2-1.4-.2-.4-.4-.7-.6-.9-.3-.2-.5-.4-.9-.5-.3-.1-.7-.1-1-.1-.9 0-1.6.3-2.2 1s-.9 1.5-.9 2.6v8.8h-4.4V139h4.2v2h.1c.7-.9 1.4-1.6 2.2-1.9.8-.3 1.7-.5 2.6-.5.9 0 1.7.1 2.4.4.7.3 1.3.7 1.7 1.2.4.5.8 1.1 1 1.7.2.7.3 1.4.3 2.1v10.6h-4.4v-9.5zM438.5 144.9h7.3v3.3h-7.3v-3.3zM449.4 132h4.5v18.3h8.6v4.2h-13.1V132zM468.1 147.9c0 .5.1.9.3 1.4.2.5.4.8.8 1.2.4.3.8.6 1.3.8.5.2 1.2.3 1.9.3 1.6 0 2.7-.6 3.3-1.8l4 1c-.6 1.4-1.5 2.5-2.8 3.2-1.2.7-2.8 1-4.7 1-1.3 0-2.5-.2-3.6-.6-1-.4-1.9-.9-2.7-1.6-.7-.7-1.3-1.6-1.7-2.6-.4-1-.6-2.1-.6-3.4 0-1.3.2-2.4.6-3.4.4-1 1-1.9 1.7-2.6.7-.7 1.6-1.3 2.7-1.7 1-.4 2.2-.6 3.4-.6 2.6 0 4.6.7 5.9 2.2 1.3 1.4 2 3.4 2 6v1.2h-11.8zm7.4-2.8c0-.4-.1-.8-.2-1.2-.1-.4-.3-.8-.5-1.1-.3-.3-.6-.6-1-.8-.4-.2-1-.3-1.6-.3-.7 0-1.4.1-1.9.3-.5.2-.9.5-1.2.9-.3.3-.5.7-.7 1.1-.2.4-.3.8-.3 1.1h7.4zM491.2 143.6c0-.6-.3-1.1-.8-1.5-.5-.3-1.2-.5-2-.5-.6 0-1.1.1-1.6.3-.5.2-.7.6-.7 1 0 .6.2 1 .7 1.2.5.3 1.1.5 1.8.6.7.1 1.5.3 2.3.4.8.1 1.6.4 2.3.7.7.3 1.3.8 1.8 1.3.5.6.7 1.4.7 2.4 0 .5-.1 1.1-.3 1.7-.2.6-.6 1.2-1.1 1.7-.5.5-1.3 1-2.2 1.3-.9.4-2.1.5-3.6.5-.9 0-1.8-.1-2.6-.2-.8-.2-1.5-.4-2.1-.8-.6-.4-1.1-.9-1.4-1.5-.4-.6-.6-1.4-.7-2.3l4.2-.1c0 .8.3 1.3.9 1.6.6.3 1.2.4 1.8.4.3 0 .6 0 .9-.1s.6-.1.8-.2c.3-.1.5-.3.6-.5.2-.2.2-.5.2-.8 0-.5-.2-.9-.7-1.1-.5-.2-1-.4-1.7-.5-.7-.1-1.4-.3-2.2-.4-.8-.1-1.5-.4-2.2-.7-.7-.3-1.3-.8-1.7-1.4-.5-.6-.7-1.4-.7-2.5 0-.6.1-1.2.4-1.8.2-.6.6-1.1 1.1-1.6.5-.5 1.2-.9 2-1.2.8-.3 1.8-.4 2.9-.4 2 0 3.6.4 4.8 1.2 1.2.8 1.9 2 2 3.7l-3.9.1zM508 152.5c-.5.8-1.1 1.4-1.9 1.8-.8.4-1.8.6-3 .6-.6 0-1.2-.1-1.9-.2-.6-.2-1.2-.4-1.7-.8s-.9-.9-1.3-1.5c-.3-.6-.5-1.4-.5-2.3 0-1 .2-1.8.6-2.4.4-.6 1-1.1 1.7-1.5.7-.4 1.6-.6 2.7-.8 1-.1 2.2-.2 3.5-.2h1.7v-.6c0-.9-.2-1.6-.6-2.1-.4-.5-1.1-.7-2.1-.7-.9 0-1.6.2-2.1.6-.5.4-.7.8-.7 1.4h-4.2c0-.7.2-1.3.5-2 .3-.6.7-1.2 1.3-1.6.6-.5 1.3-.8 2.3-1.1.9-.3 2-.4 3.2-.4 1.3 0 2.3.1 3.2.4s1.5.7 2 1.2.9 1.1 1.1 1.9c.2.7.3 1.6.3 2.4v7.6c0 .4 0 .9.1 1.3 0 .5.1.8.2 1.1h-3.9l-.5-2.1zm-.2-4.8h-1.2c-.6 0-1.1 0-1.7.1l-1.5.3c-.4.2-.8.4-1.1.7-.3.3-.4.7-.4 1.1 0 .7.2 1.3.7 1.5.5.3 1.1.4 1.8.4.4 0 .8-.1 1.2-.2.4-.1.8-.3 1.1-.6.3-.3.6-.6.8-1 .2-.4.3-.9.3-1.5v-.8zM526.6 139h4.2v14.3c0 1.2-.2 2.2-.5 3.2s-.8 1.8-1.5 2.5-1.6 1.2-2.7 1.6c-1.1.4-2.4.6-4 .6-2.3 0-4-.4-5.3-1.2-1.3-.8-2.1-1.9-2.4-3.4l4.2-.6c.2.6.6 1.1 1.3 1.4.7.3 1.4.4 2.3.4 1.6 0 2.7-.3 3.5-1 .7-.7 1.1-1.8 1.1-3.5v-1.6c-.5 1-1.2 1.7-2 2.2-.9.4-1.9.7-3 .7-1 0-1.9-.2-2.8-.5-.9-.3-1.7-.8-2.3-1.5-.7-.7-1.2-1.5-1.6-2.5-.4-1-.6-2.1-.6-3.4 0-1.1.2-2.1.5-3.1.4-1 .9-1.8 1.5-2.6.7-.7 1.4-1.3 2.3-1.8.9-.4 1.9-.7 3-.7 1.2 0 2.2.3 3.1.8.8.5 1.5 1.2 1.8 2.1V139zm0 7.6c0-1.4-.3-2.5-1-3.2-.7-.7-1.7-1.1-3-1.1-.6 0-1.1.1-1.6.3-.5.2-.9.5-1.2.9-.3.4-.6.9-.8 1.4-.2.5-.3 1.1-.3 1.7 0 .9.1 1.7.4 2.3.3.6.6 1.1 1 1.4.4.3.8.6 1.3.7s.9.2 1.3.2c.3 0 .6-.1 1.1-.2.4-.1.8-.3 1.3-.6.4-.3.8-.8 1.1-1.4.3-.6.4-1.4.4-2.4zM537.7 147.9c0 .5.1.9.3 1.4.2.5.4.8.8 1.2.4.3.8.6 1.3.8.5.2 1.2.3 1.9.3 1.6 0 2.7-.6 3.3-1.8l4 1c-.6 1.4-1.5 2.5-2.8 3.2-1.2.7-2.8 1-4.7 1-1.3 0-2.5-.2-3.6-.6-1-.4-1.9-.9-2.7-1.6-.7-.7-1.3-1.6-1.7-2.6-.4-1-.6-2.1-.6-3.4 0-1.3.2-2.4.6-3.4.4-1 1-1.9 1.7-2.6.7-.7 1.6-1.3 2.7-1.7 1-.4 2.2-.6 3.4-.6 2.6 0 4.6.7 5.9 2.2 1.3 1.4 2 3.4 2 6v1.2h-11.8zm7.4-2.8c0-.4-.1-.8-.2-1.2-.1-.4-.3-.8-.5-1.1-.3-.3-.6-.6-1-.8-.4-.2-1-.3-1.6-.3-.7 0-1.4.1-1.9.3-.5.2-.9.5-1.2.9-.3.3-.5.7-.7 1.1-.2.4-.3.8-.3 1.1h7.4zM383.8 182.7c-.7.9-1.4 1.6-2.3 2-.9.4-1.8.6-2.8.6-1.1 0-2.1-.2-3-.7-.9-.5-1.7-1.1-2.3-1.8-.6-.8-1.1-1.6-1.5-2.6-.4-1-.5-2-.5-3.1s.2-2.1.5-3.1.8-1.9 1.4-2.6c.6-.7 1.4-1.3 2.3-1.8.9-.4 1.9-.7 3-.7 1 0 1.9.2 2.7.6.8.4 1.5 1 2.3 2h.1v-9.9h4.4V185h-4.2v-2.3zm0-5.6c0-.6-.1-1.2-.2-1.7-.2-.5-.4-1-.7-1.4-.3-.4-.7-.8-1.3-1-.5-.3-1.1-.4-1.8-.4-.6 0-1.2.1-1.6.4-.5.3-.9.6-1.2 1-.3.4-.6.9-.7 1.5-.2.5-.2 1.1-.2 1.7 0 .6.1 1.2.3 1.8.2.6.4 1.1.8 1.5.3.4.7.8 1.2 1 .5.3 1.1.4 1.7.4.6 0 1.2-.1 1.6-.4.5-.2.9-.6 1.2-1 .3-.4.6-.9.8-1.5 0-.6.1-1.2.1-1.9zM394.9 178.2c0 .5.1.9.3 1.4.2.5.4.8.8 1.2.4.3.8.6 1.3.8.5.2 1.2.3 1.9.3 1.6 0 2.7-.6 3.3-1.8l4 1c-.6 1.4-1.5 2.5-2.8 3.2-1.2.7-2.8 1-4.7 1-1.3 0-2.5-.2-3.6-.6-1-.4-1.9-.9-2.7-1.6-.7-.7-1.3-1.6-1.7-2.6-.4-1-.6-2.1-.6-3.4 0-1.3.2-2.4.6-3.4.4-1 1-1.9 1.7-2.6.7-.7 1.6-1.3 2.7-1.7 1-.4 2.2-.6 3.4-.6 2.6 0 4.6.7 5.9 2.2 1.3 1.4 2 3.4 2 6v1.2h-11.8zm7.5-2.8c0-.4-.1-.8-.2-1.2-.1-.4-.3-.8-.5-1.1-.3-.3-.6-.6-1-.8-.4-.2-1-.3-1.6-.3-.8 0-1.4.1-1.9.3-.5.2-.9.5-1.2.9-.3.3-.5.7-.7 1.1-.2.4-.3.8-.3 1.1h7.4zM416.7 173.7c0-1.5.3-3 .8-4.4.5-1.4 1.3-2.6 2.3-3.7 1-1.1 2.2-2 3.6-2.6 1.4-.7 3.1-1 4.9-1 1.9 0 3.5.3 4.9 1 1.4.7 2.6 1.5 3.6 2.6s1.7 2.3 2.3 3.7c.5 1.4.8 2.9.8 4.4 0 1.5-.3 2.9-.8 4.3s-1.2 2.6-2.2 3.7l1.9 1.7-2.6 2.8-2.4-2.1c-.8.4-1.6.7-2.5.9-.9.2-1.9.3-3 .3-1.9 0-3.5-.3-4.9-1-1.4-.7-2.6-1.5-3.6-2.6s-1.7-2.3-2.3-3.7c-.6-1.4-.8-2.8-.8-4.3zm18.3-.1c0-1-.1-2-.4-2.9-.3-.9-.7-1.7-1.3-2.5-.6-.7-1.3-1.3-2.1-1.7-.8-.4-1.8-.6-2.9-.6-1.1 0-2.1.2-2.9.6-.8.4-1.5 1-2.1 1.7-.6.7-1 1.5-1.3 2.5-.3.9-.4 1.9-.4 2.9s.1 2 .4 2.9c.3.9.7 1.7 1.3 2.5.6.7 1.3 1.3 2.1 1.7.8.4 1.8.6 2.9.6.8 0 1.5-.1 2.1-.3l-2.3-2 2.4-2.7 2.9 2.5c.5-.7.9-1.5 1.2-2.4.3-.9.4-1.8.4-2.8zM452.6 182.8c-.7.9-1.4 1.6-2.3 2-.8.4-1.7.5-2.6.5-.9 0-1.8-.1-2.4-.4-.7-.3-1.2-.7-1.7-1.2-.4-.5-.8-1.1-1-1.7-.2-.7-.3-1.4-.3-2.1v-10.6h4.4v9.5c0 .6.1 1 .2 1.4.2.4.4.7.6.9.3.2.6.4.9.5.3.1.6.1 1 .1.9 0 1.6-.3 2.2-1 .6-.7.9-1.6.9-2.6v-8.8h4.4v15.6h-4.2v-2.1zM463.3 178.2c0 .5.1.9.3 1.4.2.5.4.8.8 1.2.4.3.8.6 1.3.8.5.2 1.2.3 1.9.3 1.6 0 2.7-.6 3.3-1.8l4 1c-.6 1.4-1.5 2.5-2.8 3.2-1.2.7-2.8 1-4.7 1-1.3 0-2.5-.2-3.6-.6-1-.4-1.9-.9-2.7-1.6-.7-.7-1.3-1.6-1.7-2.6-.4-1-.6-2.1-.6-3.4 0-1.3.2-2.4.6-3.4.4-1 1-1.9 1.7-2.6.7-.7 1.6-1.3 2.7-1.7 1-.4 2.2-.6 3.4-.6 2.6 0 4.6.7 5.9 2.2 1.3 1.4 2 3.4 2 6v1.2h-11.8zm7.5-2.8c0-.4-.1-.8-.2-1.2-.1-.4-.3-.8-.5-1.1-.3-.3-.6-.6-1-.8-.4-.2-1-.3-1.6-.3-.7 0-1.4.1-1.9.3-.5.2-.9.5-1.2.9-.3.3-.5.7-.7 1.1-.2.4-.3.8-.3 1.1h7.4zm-2.4-13.1h4.4l-4.2 4.2h-2.8l2.6-4.2zM477.5 161.5h4.4v9.9c.7-.9 1.5-1.6 2.3-2 .8-.4 1.7-.6 2.7-.6 1.1 0 2.1.2 3 .7.9.4 1.6 1 2.3 1.8.6.7 1.1 1.6 1.4 2.6.3 1 .5 2 .5 3.1s-.2 2.1-.5 3.1c-.4 1-.8 1.9-1.5 2.6-.6.8-1.4 1.4-2.3 1.8-.9.5-1.9.7-3 .7-1 0-1.9-.2-2.8-.6-.9-.4-1.6-1.1-2.2-2h-.1v2.2h-4.2v-23.3zm12 15.7c0-.6-.1-1.2-.2-1.7-.2-.5-.4-1-.7-1.5-.3-.4-.7-.8-1.2-1-.5-.3-1-.4-1.6-.4-.7 0-1.3.1-1.8.4-.5.3-.9.6-1.2 1-.3.4-.6.9-.7 1.4-.2.5-.2 1.1-.2 1.7 0 .6.1 1.2.3 1.8.2.6.4 1.1.8 1.5.3.4.7.7 1.2 1 .5.2 1 .4 1.6.4.6 0 1.2-.1 1.7-.4.5-.3.9-.6 1.2-1 .3-.4.6-.9.7-1.5 0-.5.1-1.1.1-1.7zM500.2 178.2c0 .5.1.9.3 1.4.2.5.4.8.8 1.2.4.3.8.6 1.3.8.5.2 1.2.3 1.9.3 1.6 0 2.7-.6 3.3-1.8l4 1c-.6 1.4-1.5 2.5-2.8 3.2-1.2.7-2.8 1-4.7 1-1.3 0-2.5-.2-3.6-.6-1-.4-1.9-.9-2.7-1.6-.7-.7-1.3-1.6-1.7-2.6-.4-1-.6-2.1-.6-3.4 0-1.3.2-2.4.6-3.4.4-1 1-1.9 1.7-2.6.7-.7 1.6-1.3 2.7-1.7 1-.4 2.2-.6 3.4-.6 2.6 0 4.6.7 5.9 2.2 1.3 1.4 2 3.4 2 6v1.2h-11.8zm7.5-2.8c0-.4-.1-.8-.2-1.2-.1-.4-.3-.8-.5-1.1-.3-.3-.6-.6-1-.8-.4-.2-1-.3-1.6-.3-.8 0-1.4.1-1.9.3-.5.2-.9.5-1.2.9-.3.3-.5.7-.7 1.1-.2.4-.3.8-.3 1.1h7.4zM525.9 174.5c-.2-.6-.6-1.1-1.1-1.5-.5-.5-1.2-.7-2.2-.7-.7 0-1.4.1-1.9.4-.5.3-.9.7-1.2 1.1-.3.5-.6 1-.7 1.7-.1.6-.2 1.3-.2 1.9 0 1.3.3 2.3 1 3.1.7.8 1.7 1.2 2.9 1.2.9 0 1.6-.2 2.1-.6.5-.4.9-.9 1.3-1.6l3.9 1.5c-.6 1.2-1.5 2.2-2.7 3-1.2.8-2.8 1.2-4.7 1.2-1.4 0-2.7-.2-3.7-.6-1.1-.4-1.9-1-2.6-1.7-.7-.7-1.2-1.6-1.5-2.5-.3-1-.5-2.1-.5-3.2 0-1.2.2-2.3.6-3.3.4-1 1-1.9 1.7-2.6.7-.7 1.6-1.3 2.7-1.7 1-.4 2.2-.6 3.5-.6 2.1 0 3.7.4 4.8 1.1 1.2.8 2 1.7 2.6 3l-4.1 1.4zM48.6 184.9h24.2v-44.8l47.6-52.5L103 70.2l-42.3 46.6-42.3-46.6L1 87.6l47.6 52.5v44.8zM242.4 184.9l-20-20c8.2-10.1 13.1-22.9 13.1-36.9 0-32.2-26.1-58.3-58.3-58.3s-58.3 26.1-58.3 58.3 26.1 58.3 58.3 58.3c9.3 0 18.2-2.2 26-6.1l22 21.9 17.2-17.2zM143.3 128c0-18.7 15.2-33.9 33.9-33.9S211 109.3 211 128s-15.2 33.9-33.9 33.9-33.8-15.2-33.8-33.9z"/><g><path d="M309 184.9h-57.4V71.3h51.2c23.2 0 37.1 11.2 37.1 29.9 0 10.1-4.1 18-11.8 23.2 11.6 4.4 18.7 14.7 18.7 27.4.1 19.2-15.8 33.1-37.8 33.1zm-33.1-21.8H306c14.3 0 15.9-9.2 15.9-13.1 0-4.9-2.2-13.2-17.2-13.2h-28.8v26.3zm0-46.8h25.5c6.5 0 14-3.2 14-12.1 0-9.2-8.1-11.2-14.9-11.2h-24.7v23.3z"/></g></svg>