<?xml version="1.0" encoding="utf-8"?>
<!-- Generator: Adobe Illustrator 19.2.1, SVG Export Plug-In . SVG Version: 6.00 Build 0)  -->
<svg version="1.1" id="Calque_1" xmlns="http://www.w3.org/2000/svg" xmlns:xlink="http://www.w3.org/1999/xlink" x="0px" y="0px"
	 width="100px" height="100px" viewBox="0 0 100 100" style="enable-background:new 0 0 100 100;" xml:space="preserve">
<path d="M96,30H4c-1.1,0-2-0.9-2-2V8c0-1.1,0.9-2,2-2h92c1.1,0,2,0.9,2,2v20C98,29.1,97.1,30,96,30z M6,26h88V10H6V26z"/>
<path d="M96,62H4c-1.1,0-2-0.9-2-2V40c0-1.1,0.9-2,2-2h92c1.1,0,2,0.9,2,2v20C98,61.1,97.1,62,96,62z M6,58h88V42H6V58z"/>
<path d="M96,94H4c-1.1,0-2-0.9-2-2V72c0-1.1,0.9-2,2-2h92c1.1,0,2,0.9,2,2v20C98,93.1,97.1,94,96,94z M6,90h88V74H6V90z"/>
</svg>
