<svg id="Calque_1" xmlns="http://www.w3.org/2000/svg" width="390" height="660" viewBox="0 0 390 660"><style>.st0{fill:#fff}</style><path class="st0" d="M315 19.5c30.6 0 55.5 24.9 55.5 55.5v510c0 30.6-24.9 55.5-55.5 55.5H75c-30.6 0-55.5-24.9-55.5-55.5V75c0-30.6 24.9-55.5 55.5-55.5h240M315 0H75C33.8 0 0 33.8 0 75v510c0 41.2 33.8 75 75 75h240c41.2 0 75-33.8 75-75V75c0-41.2-33.8-75-75-75z"/><path class="st0" d="M310.5 103.9v446.6h-231V103.9h231m4.5-19.5H75c-8.2 0-15 6.7-15 15V555c0 8.3 6.8 15 15 15h240c8.2 0 15-6.7 15-15V99.4c0-8.3-6.8-15-15-15zM195 581.2c-12.4 0-22.5 10.1-22.5 22.5s10.1 22.5 22.5 22.5 22.5-10.1 22.5-22.5-10.1-22.5-22.5-22.5zm36.1-518h-72.2c-5.4 0-9.8-4.4-9.8-9.8s4.4-9.8 9.8-9.8h72.2c5.4 0 9.8 4.4 9.8 9.8s-4.4 9.8-9.8 9.8z"/></svg>