<svg id="Calque_1" xmlns="http://www.w3.org/2000/svg" width="100" height="100" viewBox="0 0 100 100"><style>.st0{fill:#fff}</style><title>Cloudy Night</title><path class="st0" d="M67.9 98.9H24.3C11.5 99 1.1 88.7 1 76 .9 65 8.6 55.4 19.4 53.2 22 39.6 35.1 30.6 48.7 33.3c7.7 1.5 14.2 6.5 17.7 13.5 8.4.2 14.9 7.3 14.6 15.6 0 1-.2 2.1-.4 3.1 7.9 7 8.6 19.1 1.6 27-3.6 4.1-8.8 6.4-14.3 6.4zM44 39.3c-9.7-.1-17.7 7.3-18.5 17-.1 1.6-1.4 2.8-2.9 3-9.1 1-15.7 9.2-14.7 18.3.9 8.4 7.9 14.7 16.4 14.8h43.6c7 0 12.7-5.7 12.7-12.6-.1-4.2-2.2-8.1-5.6-10.5-1.3-.9-1.7-2.5-1.1-4 1.9-4.4-.1-9.4-4.4-11.4-1.5-.7-3.1-.9-4.7-.6-1.5.2-2.9-.7-3.4-2.1-2.7-7.2-9.6-11.9-17.3-11.9H44zm45.8 23.2c-1.8 0-3.3-1.4-3.3-3.2 0-1.2.7-2.4 1.8-2.9-13.4-10.6-15.7-30-5.2-43.4 1.5-1.9 3.1-3.6 5-5-1.4-.3-2.9-.4-4.3-.4-11.5 0-21.4 7.9-24 19.1-.5 1.7-2.3 2.7-4.1 2.2-1.6-.5-2.6-2-2.3-3.6C56.7 11.1 69.3 1.1 83.8 1.1c4.6 0 9.1 1.1 13.3 3.1 1.6.8 2.3 2.7 1.6 4.3-.3.7-.9 1.2-1.6 1.6-12.2 5.8-17.4 20.4-11.6 32.6 2.4 5.1 6.5 9.2 11.6 11.6 1.6.8 2.3 2.7 1.5 4.3-.3.7-.9 1.2-1.5 1.5-2.1 1-4.3 1.8-6.6 2.3-.2 0-.5 0-.7.1z"/></svg>