<svg xmlns="http://www.w3.org/2000/svg" width="112" height="82" viewBox="0 0 112 82"><path fill="#05F" d="M109.8 11.2c-2.4-5.9-9.1-8.7-14.9-6.3l-19.7 8.7L45.7 1.2c-.6-.2-1.2-.2-1.7 0L27 8.3c-.9.4-1.4 1.2-1.4 2.1 0 .9.6 1.8 1.4 2.1l25.8 10.8L33.4 32l-12.8-6.5c-.6-.3-1.3-.3-1.9-.1l-16 7c-.7.3-1.2.9-1.3 1.7-.1.8.1 1.5.6 2.1l20.6 20.9c.6.7 1.6.9 2.5.5l29.5-12-12 32.2c-.3.9-.1 1.9.6 2.5.4.4 1 .6 1.5.6.3 0 .7-.1 1-.2L64 71.5c.4-.2.8-.6 1-1l17.9-36.3 20.7-7.8c2.8-1.2 5-3.4 6.2-6.3 1.2-2.9 1.2-6.1 0-8.9zm-75.9-.8l10.9-4.6 24.6 10.3-10.7 4.7-24.8-10.4zm71.7 7.9c-.7 1.7-2 3.1-3.6 3.7l-21.5 8.1c-.5.2-1 .6-1.2 1.1l-18 36.5L48.9 74l11.7-31.6c.3-.9.1-1.8-.5-2.5-.4-.4-1-.7-1.6-.7-.3 0-.6.1-.8.2l-33 13.3L7.6 35.4l11.9-5.2 12.8 6.5c.6.3 1.3.3 1.9.1L96.7 9.2c1.7-.7 3.5-.7 5.2 0 1.7.7 3 2 3.7 3.8.7 1.6.7 3.5 0 5.3z"/></svg>