<svg xmlns="http://www.w3.org/2000/svg" width="110" height="82" viewBox="0 0 110 82"><path fill="#05F" d="M108.1 60.1c-1.3-3.2-3.8-5.7-7-7h-.1l-22.4-8.7-13.6-34c-.3-.6-.7-1.1-1.4-1.4l-18-7.7c-1-.4-2-.2-2.8.5-.7.7-1 1.8-.6 2.8l11.4 30-24.9-9.7-4.8-14.3c-.2-.7-.8-1.3-1.4-1.6l-18-7.7C3.7.9 2.7 1 2 1.4 1.3 1.9.9 2.7.9 3.6v33.5c0 1.1.6 2 1.6 2.4l33.1 13.3L2.4 68.3c-.9.4-1.5 1.4-1.5 2.4s.7 1.9 1.7 2.3l20.6 7.7c.3.1.6.2.9.2.2 0 .5 0 .7-.1l42.9-12.7L91.4 77c3.2 1.3 6.7 1.3 9.8 0 3.2-1.3 5.6-3.8 7-7 1.3-3.2 1.3-6.7-.1-9.9zm-59-51.7l11.5 4.9 11.6 28.5L60 37.1 49.1 8.4zM103.4 68c-.8 1.9-2.3 3.4-4.2 4.2-1.9.8-4 .8-6 0l-24.6-9.1c-.5-.2-1.1-.2-1.6-.1L24.1 75.7l-14-5.3 33-15.5c.9-.4 1.5-1.4 1.5-2.4s-.7-1.9-1.6-2.3L6 35.4V7.5l13.4 5.7 4.8 14.4c.2.7.8 1.3 1.5 1.6l73.6 28.7c1.9.8 3.4 2.3 4.1 4.2.8 1.9.8 4 0 5.9z"/></svg>