<svg id="Calque_1" xmlns="http://www.w3.org/2000/svg" width="78" height="94" viewBox="0 0 78 94"><style>.st0{fill:#0eadff}</style><path class="st0" d="M12.4 1C9.9 1 7.9 2.7 7.1 5H7c-3.3 0-6 2.7-6 6v10h4v13.4c-.1.4-.1.8 0 1.2v38.8c-.1.4-.1.8 0 1.2V87c0 3.3 2.7 6 6 6h56c3.3 0 6-2.7 6-6V75.4c.1-.3.1-.5 0-.8V35.4c.1-.3.1-.5 0-.8V21h4V11c0-3.3-2.7-6-6-6h-.1c-.9-2.3-2.8-4-5.3-4H12.4zm0 4h53.3c1 0 1.8.7 1.9 1.7l.1.6L68 9h3c1.1 0 2 .9 2 2v6H5v-6c0-1.1.9-2 2-2h3.1l.3-1.7.1-.6c.1-1 .9-1.7 1.9-1.7zM9 21h60v12H9V21zm0 16h60v36H9V37zm18 4v18h4v-6h3.3l5.9 8.8L35 69h4l3.1-4.3L45 69h4l-4.8-7.3L49 55h-4l-2.8 3.9-4.4-6.6c1.9-1 3.2-3 3.2-5.3 0-3.3-2.7-6-6-6h-8zm4 4h4c1.1 0 2 .9 2 2s-.9 2-2 2h-4v-4zM9 77h60v10c0 1.1-.9 2-2 2H11c-1.1 0-2-.9-2-2V77z"/></svg>