<svg width="19" height="19" viewBox="0 0 19 19" xmlns="http://www.w3.org/2000/svg"><title>Shape</title><path d="M18.67 17.127l-5.728-5.728c.881-1.156 1.377-2.643 1.377-4.24A7.144 7.144 0 0 0 7.16 0 7.146 7.146 0 0 0 0 7.16a7.144 7.144 0 0 0 7.159 7.158 7.104 7.104 0 0 0 4.24-1.376l5.729 5.728c.22.22.495.33.77.33.277 0 .551-.11.772-.33.44-.441.44-1.102 0-1.543zM7.16 12.116A4.935 4.935 0 0 1 2.204 7.16 4.935 4.935 0 0 1 7.16 2.203a4.935 4.935 0 0 1 4.956 4.957 4.937 4.937 0 0 1-4.956 4.956z" fill="#0054FF"/></svg>