<svg width="19px" height="19px" viewBox="0 0 19 19" version="1.1" xmlns="http://www.w3.org/2000/svg" xmlns:xlink="http://www.w3.org/1999/xlink"><title>Shape</title><g id="Accueil" stroke="none" stroke-width="1" fill="none" fill-rule="evenodd"><g id="YQB---Accueil_V3A_Carrousel_Mobile" transform="translate(-269.000000, -41.000000)" fill="#0054FF" fill-rule="nonzero"><path d="M287.669153,58.1269355 L281.942448,52.3993656 C282.823236,51.2429082 283.318877,49.7560344 283.318877,48.1586694 C283.318877,44.1936727 280.125097,41 276.159967,41 C272.194837,41 269,44.19473 269,48.1597268 C269,52.1247235 272.19378,55.3183962 276.15891,55.3183962 C277.756328,55.3183962 279.187476,54.8227716 280.399748,53.9420137 L286.127511,59.6695836 C286.347451,59.8895167 286.623152,60 286.89886,60 C287.174569,60 287.44922,59.8895167 287.67021,59.6695836 C288.110102,59.228676 288.110102,58.5678432 287.669178,58.126962 L287.669153,58.1269355 Z M276.159967,53.1159727 C273.406052,53.1159727 271.203555,50.9135492 271.203555,48.1597268 C271.203555,45.4059044 273.406052,43.2034808 276.159967,43.2034808 C278.913882,43.2034808 281.116379,45.4059044 281.116379,48.1597268 C281.116379,50.9124918 278.912851,53.1159727 276.159967,53.1159727 Z" id="Shape"></path></g></g></svg>