<svg id="Calque_1" xmlns="http://www.w3.org/2000/svg" width="50" height="94" viewBox="0 0 50 94"><style>.st0{fill:#0eadff}</style><path class="st0" d="M31 1C16.1 1 7 11.2 7 23c-1 0-2.1.4-2.9 1.1S3 26 3 27v60c0 3.5 3.3 6 6.8 6h30.4c3.5 0 6.8-2.5 6.8-6V27c0-2.3-1.9-4-4-4 0-4.7-3.4-7.8-6.3-9.6-1.9-1.1-2.8-1.2-3.9-1.6.1-.1.1-.3.2-.4.4-.3 1.1-.5 1.8-.5h3.8c.5 0 1-.1 1.6-.5.4-.3.6-1 .8-1.6l.3.2 1.2-4v-.1l.1-.1c.2-.8.1-1.8-.4-2.6S40.5 1 39.6 1H31zm0 4h7.3l-.6 2h-2.9c-1.5 0-3 .4-4.3 1.4s-2.2 2.7-2.2 4.6v1.6l1.6.3s2.4.6 4.8 1.9S39 20.1 39 23H11c0-9.8 6.9-18 20-18zM7 27h36v60c0 .9-1.1 2-2.8 2H9.8C8.1 89 7 87.9 7 87V27z"/></svg>