<svg id="Calque_1" xmlns="http://www.w3.org/2000/svg" width="100" height="100" viewBox="0 0 100 100"><style>.st0{fill:#fff}</style><title>icon-snow</title><path class="st0" d="M73.9 66.9H30.1c-12.8.2-23.2-10-23.4-22.8-.2-11.1 7.6-20.7 18.5-22.9C28.1 7.4 41.6-1.4 55.4 1.6 62.8 3.1 69.1 8 72.6 14.7c4.6.2 8.8 2.4 11.6 6.1C87 24.4 88 29 86.9 33.4c4.1 3.6 6.5 8.8 6.4 14.3 0 10.6-8.7 19.3-19.4 19.2zm-24-59.2c-9.6-.1-17.6 7.2-18.4 16.7-.1 1.7-1.5 3-3.1 3.1-9 .7-15.7 8.5-15.1 17.5.6 8.7 8 15.3 16.7 15.1h43.8c6.9 0 12.5-5.5 12.6-12.4 0-4.1-2.1-8-5.5-10.3-1.4-.9-1.9-2.7-1.3-4.2 1.2-2.8.9-6-1-8.4-1.9-2.4-4.9-3.7-7.9-3.3-1.6.2-3.1-.7-3.6-2.2-2.7-7-9.6-11.7-17.2-11.6zm.7 91.3c-1.6 0-2.9-1.4-2.9-3s1.4-2.9 3-2.9 2.9 1.3 2.9 3c0 1.6-1.3 2.9-3 2.9zm-18.3 0c-1.6 0-3-1.3-3-3 0-1.6 1.3-3 3-3 1.6.1 2.9 1.3 3 2.9.1 1.7-1.3 3.1-3 3.1.1 0 .1 0 0 0zm-18.4 0c-1.6 0-3-1.4-2.9-3 0-1.6 1.4-3 3-2.9 1.6 0 3 1.4 2.9 3 0 1.6-1.3 2.9-3 2.9zm46-6.8c-1.6 0-3-1.3-3-3 0-1.6 1.3-3 3-3 1.6.1 2.9 1.4 3 3 0 1.6-1.3 3-3 3zm-18.4 0c-1.6 0-3-1.4-2.9-3 0-1.6 1.4-3 3-2.9 1.6 0 2.9 1.3 2.9 3 0 1.5-1.4 2.9-3 2.9zm-18.5 0c-1.6 0-3-1.3-3-3 0-1.6 1.3-3 3-3 1.6 0 3 1.2 3 2.8v.2c0 1.7-1.4 3-3 3zm46-6.9c-1.6 0-3-1.4-2.9-3 0-1.6 1.4-3 3-2.9 1.6 0 2.9 1.3 2.9 3 0 1.6-1.3 2.9-3 2.9zm-18.4 0c-1.6 0-2.9-1.4-2.9-3s1.4-2.9 3-2.9 2.9 1.3 2.9 3c0 1.6-1.3 2.9-3 2.9zm-18.3 0c-1.6 0-3-1.3-3-3 0-1.6 1.3-3 3-3 1.6 0 3 1.3 3 3s-1.3 3-3 3zm-18.3 0c-1.6 0-3-1.4-2.9-3s1.4-3 3-2.9c1.6 0 2.9 1.3 2.9 3 0 1.6-1.3 2.9-3 2.9zm45.9-6.7c-1.6 0-3-1.3-3-3 0-1.6 1.3-3 3-3 1.6 0 3 1.3 3 3s-1.4 3-3 3zm-18.4 0c-1.6 0-2.9-1.4-2.9-3s1.4-2.9 3-2.9 2.9 1.3 2.9 3c0 1.6-1.3 2.9-3 2.9zm-18.5 0c-1.6 0-3-1.3-3-3 0-1.6 1.3-3 3-3 1.6 0 3 1.2 3 2.8v.1c0 1.8-1.4 3.1-3 3.1z"/></svg>