<svg xmlns="http://www.w3.org/2000/svg" viewBox="0 0 57 49" width="57" height="49"><style>tspan{white-space:pre}.shp0{fill:#fff}</style><g id="np_parking_1541332_000000 copy 4"><path id="Shape" fill-rule="evenodd" class="shp0" d="M56.17 0c.22 0 .43.08.59.23.15.15.24.36.24.57v17.6c0 .21-.09.42-.24.57-.16.15-.37.23-.59.23H49.5v28c0 .21-.09.42-.24.57-.16.15-.37.23-.59.23h-3.34c-.22 0-.43-.08-.59-.23a.82.82 0 0 1-.24-.57v-28h-6.67c-.22 0-.43-.08-.59-.23a.82.82 0 0 1-.24-.57V.8c0-.44.37-.8.83-.8h18.34zm-8.34 19.2h-1.66v27.2h1.66V19.2zm7.5-17.6H38.67v16h16.66v-16z"/><path id="Shape" fill-rule="evenodd" class="shp0" d="M44.77 16c-.2 0-.4-.08-.54-.22a.72.72 0 0 1-.23-.53V4.75c0-.41.35-.75.77-.75h3.1c.84-.01 1.63.31 2.22.88.58.56.91 1.32.91 2.12s-.33 1.56-.91 2.12c-.59.57-1.38.89-2.22.88h-2.32v5.25c0 .2-.08.39-.23.53-.14.14-.34.22-.55.22zm.78-7.5h2.32c.43 0 .83-.16 1.14-.44.6-.59.6-1.53 0-2.12-.31-.28-.71-.44-1.14-.44h-2.32v3z"/></g><g id="icon icon-car-parking copy 4"><g id="svg"><g id="Group"><path id="Shape" fill-rule="evenodd" class="shp0" d="M31.3 35.74c1.3 0 2.32 1.02 2.28 2.2 0 1.49-1.15 2.15-2 2.61l-.48.26c-1.06.59-1.67.92-3.03.92-1.7 0-3.1-1.35-3.1-2.99 0-1.65 1.4-3 3.1-3h3.23zm-.37 3.69c.92-.53 1.33-.83 1.36-1.42 0-.53-.44-.92-.95-.92H28.1c-.95 0-1.73.76-1.73 1.68 0 .92.78 1.68 1.73 1.68 1.02 0 1.33-.2 2.35-.76l.48-.26zM15 38.77c0 1.65-1.4 3-3.1 3-1.36 0-1.94-.33-3.03-.93l-.48-.26c-.88-.46-2.04-1.12-2.04-2.6 0-1.25 1.05-2.24 2.31-2.24h3.24c1.73 0 3.13 1.35 3.1 3.03zm-1.33-.03c0-.93-.79-1.68-1.74-1.68H8.7c-.55 0-.96.42-.96.92 0 .62.38.92 1.33 1.45l.48.26c1.02.56 1.36.76 2.35.76.98 0 1.77-.79 1.77-1.71z"/><path id="Shape" fill-rule="evenodd" class="shp0" d="M39.3 32.97c0 .66-.3 1.78-2.35 1.78h-1.53c.34.89.58 1.48.61 1.58l.04.1v9.36c0 1.25-1.06 2.24-2.32 2.24h-3.23c-1.29 0-2.32-1.02-2.32-2.24v-.89H11.8v.89c0 1.25-1.06 2.24-2.32 2.24H6.25c-1.3 0-2.32-1.02-2.32-2.24V36.4l.03-.1c.04-.1.28-.69.62-1.58H3.05C1 34.72.7 33.6.7 32.94c0-1.29.85-2.67 3.2-2.67h2.45c.99-2.44 1.94-4.78 2.18-5.28.78-1.48 2.62-2.1 3.84-2.5.38-.13 2.28-.82 7.63-.82 5.28 0 7.22.66 7.59.82 1.36.36 3.2 1.02 3.85 2.47l2.18 5.31h2.48c2.35 0 3.17 1.38 3.2 2.7zm-31.52-2.6h.03l-.07.16c-.2.46-.61 1.48-.2 2.08.37.52 1.33.79 2.76.79h19.4c1.47 0 2.42-.3 2.76-.79.41-.6 0-1.59-.2-2.08l-.07-.16c-.89-2.21-1.74-4.29-2.01-4.88-.48-1.06-2.38-1.58-3-1.75l-.1-.03c-.03 0-1.74-.73-7.08-.73-5.35 0-7.08.73-7.08.73l-.07.03c-1.09.37-2.55.83-3.1 1.85-.2.39-1.05 2.47-1.97 4.78zM5.16 33.4c.23-.56.47-1.19.71-1.81H3.93c-1.22 0-1.84.42-1.84 1.35 0 .23 0 .46.99.46h2.08zm5.24 12.39v-.89H6.14c-.3 0-.57-.07-.85-.17v1.06c0 .52.45.92.96.92h3.23c.54 0 .95-.43.95-.92h-.03zm24.27 0v-1.06c-.27.1-.54.17-.85.17h-4.25v.89c0 .52.44.92.95.92h3.23c.51 0 .92-.4.92-.92zm.04-3v-6.13c-.17-.36-.65-1.61-1.26-3.13-.68.79-1.91 1.19-3.75 1.19H10.3c-1.84 0-3.07-.4-3.75-1.22-.47 1.25-.92 2.37-1.22 3.16v6.13c0 .43.37.79.85.79h27.64c.48 0 .85-.36.85-.79h.04zm2.21-9.39c.99 0 .99-.23 1.02-.46 0-.89-.61-1.35-1.84-1.35h-1.97c.24.62.48 1.25.71 1.81h2.08z"/></g></g></g></svg>