<svg xmlns="http://www.w3.org/2000/svg" width="104" height="85" viewBox="0 0 104 85"><path fill="#FFF" d="M100.6 42.8c1.5-1.4 1.7-3.6 1.7-5.7 0-9.1-7.3-9.1-11.2-9.1H70.8c3.5-15-1.2-23-6.9-25.5C59.8.7 55.2 2 53.1 5.6c-.2.3-.3.7-.3 1.1v11.1c0 .6.1 1.2-.1 1.5-2.1 6.1-6.3 11.5-12.3 16.3-.5.4-.8.8-1 1.1l-.2.2c-1.3 1.6-5.3 3.3-7.8 3.3v-1.6c0-1.2-1-2.1-2.1-2.1H3.8c-1.2 0-2.1 1-2.1 2.1v42.5c0 1.2 1 2.1 2.1 2.1h25.5c1.2 0 2.1-1 2.1-2.1V79h3.8c1.8 0 3.5.7 4.8 1.9 1.6 1.5 3.7 2.3 6 2.3h34.8c4.6 0 8.5-1.8 11-5.2 1.8-2.3 2.7-5.4 2.7-8.2.4-.3.6-.8.6-1.3 1.6-1.1 2.8-2.7 3.6-4.7.9-2.4 1-5.1.5-7.4.1-.3.2-.6.2-.9 0-.2-.1-.4-.1-.6 1.9-2.1 2.8-5 2.5-8 0-1.5-.5-2.9-1.2-4.1zM27.2 79.1H6V40.8h21.3v38.3zm67.7-16.6c-.5 1.2-1.4 2.7-3.3 3.4-.3.1-.5.2-.7.4H80.4c-1.2 0-2.1 1-2.1 2.1 0 1.2 1 2.1 2.1 2.1h9.9c-.1 1.6-.6 3.4-1.8 5-1.2 1.6-3.5 3.5-7.6 3.5H46.1c-1.3 0-2.3-.4-3.1-1.1-2.1-2-4.8-3.1-7.7-3.1h-3.8V44.5c3.4-.1 8.7-2 11.1-4.9l.3-.4c.1-.1.1-.2.2-.2 6.7-5.3 11.3-11.4 13.7-18.2.4-1.1.3-2.3.3-3.1V7.3c2.1-1.4 3.2-1.8 5.2-1 4.2 1.8 7.8 9 3.8 23.2-.2.6 0 1.3.4 1.9.4.5 1 .8 1.7.8h23c5.7 0 6.9.9 6.9 4.8 0 2.7-.2 2.7-1.5 2.7-.7 0-1.4.4-1.7.9H80.4c-1.2 0-2.1 1-2.1 2.1 0 1.2 1 2.1 2.1 2.1h16.5c.4.6.7 1.5.8 2.4.2 1.8-.4 4.3-2.4 5.7-.2.1-.3.3-.4.4H80.4c-1.2 0-2.1 1-2.1 2.1 0 1.2 1 2.1 2.1 2.1h14.8c.3 1.7.3 3.4-.3 5z"/></svg>