<svg id="Calque_1" xmlns="http://www.w3.org/2000/svg" width="100" height="100" viewBox="0 0 100 100"><style>.st0{fill:#fff}</style><title>icon-thunderstorm</title><path class="st0" d="M91.7 40.2c1.2-5.1.2-10.5-3-14.7-3.1-4.3-8-7-13.2-7.2-4.7-9.8-14.7-16-25.6-16-13.8.1-25.6 10-28.2 23.6-14.4 3.3-23.3 17.7-20 32.2 2.6 11.1 12 19.3 23.3 20.5-.2-1-.4-2.1-.4-3.1 0-1.6.3-3.1.8-4.6C15 69.5 7.7 59.8 9.2 49.4c1.2-8.5 7.8-15.1 16.3-16.3 1.9-.2 3.3-1.7 3.4-3.6.6-11.5 10.5-20.3 22-19.7 8.4.5 15.8 6 18.6 13.9.7 1.6 2.3 2.6 4.1 2.4 3.5-.5 7 1 9 3.9 2.1 2.8 2.5 6.6 1.1 9.8-.7 1.7-.1 3.7 1.4 4.8 6.6 4.4 8.4 13.3 4 19.8-2.7 4-7.2 6.4-12 6.4h-6c.9 2.5.9 5.2.2 7.8h5.9c12.2-.1 22-10 21.9-22.2-.2-6.2-2.8-12-7.4-16.2zM61.3 73.9c-.4-.9-1.1-1.7-2.1-2.1-.5-.2-.9-.3-1.4-.3h-9.9l6.8-7.2c1.5-1.5 1.5-4 0-5.5s-3.9-1.5-5.3 0L36.1 72.6c-1.6 1.5-1.7 3.9-.2 5.5.4.4.8.7 1.3.9h.3c.4.1.7.2 1.1.2l10 .2-11.2 11.7c-1.5 1.5-1.5 4 0 5.5s3.9 1.5 5.3 0l17.8-18.5c.4-.4.6-.8.8-1.3.2-.5.3-1 .3-1.5 0-.4-.1-1-.3-1.4z"/></svg>