<svg xmlns="http://www.w3.org/2000/svg" viewBox="0 0 42 40" width="42" height="40"><style>tspan{white-space:pre}.shp0{fill:#fff}</style><g id="np_construction_2705368_000000 copy 4"><path id="Shape" fill-rule="evenodd" class="shp0" d="M37.42 21.57v13.92h2.4V40h-8.49v-4.51h2.38V21.57h-1.74V16.8H9.91v4.77H8.17v13.92h2.38V40H2.07v-4.51h2.39V21.57H2.78V16.8H.12l-.12.12V0h42v16.8h-2.83v4.77h-1.75zM1.33 10.1l8.53-8.74H1.33v8.74zm.03 3.51L13.33 1.36h-1.59L1.33 12.04l.03 1.57zM3.4 36.85v1.79h5.82v-1.79H3.4zm3.44-1.51V21.57H5.79v13.77h1.05zM8.58 16.8H4.04v3.4h4.54v-3.4zm3.31-1.36L25.65 1.36H15.2L1.45 15.44h10.44zM29.11 1.36h-1.58L13.78 15.44h1.55L29.11 1.36zm-2.09 14.08L40.67 1.47v-.11h-9.68L17.21 15.44h9.81zM40.67 5V3.38L28.86 15.44h1.65L40.67 5zm-8.31 10.44h8.35V6.93l-8.35 8.51zm.3 21.41v1.79h5.86v-1.76l-5.86-.03zm3.48-1.51V21.57h-1.06v13.81l1.06-.04zm1.75-15.1v-3.4h-4.55v3.4h4.55z"/></g></svg>