<svg id="Calque_1" xmlns="http://www.w3.org/2000/svg" width="100" height="100" viewBox="0 0 100 100"><style>.st0{fill:#fff}</style><path class="st0" d="M50 1C22.9 1 1 22.9 1 50s21.9 49 49 49 49-21.9 49-49S77.1 1 50 1zm20.8 38.3v1.4c0 14.2-10.8 30.6-30.6 30.6-6.1 0-11.7-1.8-16.5-4.8.8.1 1.7.2 2.6.2 5 0 9.7-1.7 13.3-4.6-4.7-.1-8.7-3.2-10-7.5.7.1 1.3.2 2 .2 1 0 1.9-.1 2.8-.4-4.9-1-8.6-5.3-8.6-10.5v-.1c1.4.8 3.1 1.3 4.9 1.3-2.9-1.9-4.8-5.2-4.8-8.9 0-2 .5-3.8 1.5-5.4 5.3 6.5 13.2 10.8 22.2 11.2-.2-.8-.3-1.6-.3-2.4 0-5.9 4.8-10.7 10.7-10.7 3.1 0 5.9 1.3 7.8 3.4 2.4-.5 4.7-1.4 6.8-2.6-.8 2.5-2.5 4.6-4.7 5.9 2.2-.3 4.2-.8 6.2-1.7-1.3 2-3.2 3.9-5.3 5.4z"/></svg>