<svg id="Calque_1" xmlns="http://www.w3.org/2000/svg" width="100" height="92" viewBox="0 0 100 92"><style>.st0{fill:#fff}</style><path class="st0" d="M50.2 50.2c13.7 0 24.9-11 24.9-24.4 0-13.5-11.2-24.5-24.9-24.5s-24.9 11-24.9 24.5c0 13.4 11.1 24.4 24.9 24.4zm34.6 19.3c-19.4-12.9-46-13.7-66.2-1.9-5.5 3.2-10.4 7.2-14.7 11.9-.8.8-1.4 1.8-2.9 3.8l10 7.4 1.1-1.5c.4-.5.7-1.1 1.2-1.5 3.4-3.8 7.4-7 11.7-9.5 16.1-9.4 37.3-8.7 52.8 1.5 4.3 2.9 8.1 6.4 11.2 10.1l.5.8 9.5-8.1c-4-5-8.8-9.4-14.2-13z"/></svg>