<svg id="Calque_1" xmlns="http://www.w3.org/2000/svg" width="100" height="63" viewBox="0 0 100 63"><style>.st0{fill:#3957a7}.st1{fill:#fff}.st2{fill:#f9a533}</style><path class="st0" d="M99 58.9c0 1.8-1.5 3.3-3.3 3.3H4.3c-1.8 0-3.3-1.5-3.3-3.3V4.1C1 2.3 2.5.8 4.3.8h91.5c1.8 0 3.3 1.5 3.3 3.3v54.8z"/><path class="st1" d="M46.1 40.7h-4.8l3-18.4h4.8zm-8.8-18.4L32.7 35l-.5-2.7-1.6-8.3s-.2-1.7-2.3-1.7h-7.5l-.1.3s2.3.5 5 2.1l4.2 16h5l7.6-18.4h-5.2zm37.6 18.4h4.4l-3.8-18.4h-3.8c-1.8 0-2.2 1.4-2.2 1.4l-7.1 17h5l1-2.7h6.1l.4 2.7zm-5.2-6.5l2.5-6.9 1.4 6.9h-3.9zm-7-7.5l.7-3.9s-2.1-.8-4.3-.8c-2.4 0-8 1-8 6.1 0 4.8 6.6 4.8 6.6 7.3s-5.9 2-7.9.5L49 40s2.1 1 5.4 1c3.3 0 8.2-1.7 8.2-6.3 0-4.8-6.7-5.2-6.7-7.3.1-2.1 4.7-1.8 6.8-.7z"/><path class="st2" d="M32.2 32.2L30.6 24s-.2-1.7-2.3-1.7h-7.5l-.1.3s3.6.8 7.1 3.6c3.3 2.7 4.4 6 4.4 6z"/></svg>