<svg id="Calque_1" xmlns="http://www.w3.org/2000/svg" width="100" height="167" viewBox="0 0 100 167"><style>.st0{fill:#06f}</style><path class="st0" d="M58.4 33.3c8.7 0 15.7-7 15.7-15.7s-7-15.7-15.7-15.7-15.7 7-15.7 15.7c.1 8.7 7.1 15.7 15.7 15.7zm36.7 51.4C92 83.3 71.8 73.3 71.8 73.3S64.6 58 60.9 49.6c-3.5-7.9-6-10-11-10h-7.7c-4 0-5.5 1.5-7.9 2.9L13.6 60.1c-1.8 1-3 2.6-3.7 4.8L5.5 94.8c-.6 4.8 1.9 6.8 4.7 7.4 2.3.5 5.8-.7 6.5-4 .6-2.8 4.7-27.2 4.7-27.2L35 60.5c-2.2 10.4-4.5 21.7-5.2 25.6-1.3 6.6 2 11.6 4.6 15.5 2.4 3.6 32.9 51.9 36.9 57.1 4 5.3 7.7 7.9 13.3 4.7 4.7-2.6 3.9-8.7 1.3-13.1-2.6-4.5-33.5-54.8-33.5-54.8l5.2-22.4s3.6 5.1 5.4 8c.9 1.4 1.8 1.9 4.2 3.2 2.8 1.6 16.7 7.9 20.9 9.8 3.7 1.7 8.4 2.3 10.2-1 1.9-3.1-.5-7.1-3.2-8.4zm-74.5 42.4S7.6 146 3.9 151.3c-2.7 4-4.8 8.8-.1 12.4 5.2 4 9.4-1.2 12.1-4.3 2.5-2.8 12.6-17 15.4-20.6 1.9-2.4 2.9-4.5 3.8-6.5.5-1.4 2.6-6.9 3.9-10.6l-12.2-16.8-6.2 22.2z"/></svg>