<svg id="Calque_1" xmlns="http://www.w3.org/2000/svg" width="152" height="152" viewBox="0 0 152 152"><style>.st0{fill:#fff}</style><path class="st0" d="M76 77.8V63.5c0-1.7-1.4-3.1-3.1-3.1s-3.1 1.4-3.1 3.1v15.6c0 .8.3 1.6.9 2.2l18.8 18.8c.6.6 1.4.9 2.2.9.8 0 1.6-.3 2.2-.9 1.2-1.2 1.2-3.2 0-4.4L76 77.8zm74.1-50.9l-12.5-12.5-12.5-12.5c-1.2-1.2-3.2-1.2-4.4 0l-12.5 12.5-20.4 20.3c-4.7-1.6-9.7-2.5-15-2.5C47 32.2 26 53.3 26 79.1c0 5.3.9 10.4 2.6 15.2L1.9 120.7c-.6.5-.9 1.3-.9 2.2v25c0 1.7 1.4 3.1 3.1 3.1h25c.8 0 1.6-.3 2.2-.9L58 123.5c4.7 1.6 9.7 2.5 14.9 2.5 25.8 0 46.9-21 46.9-46.9 0-5.2-.9-10.3-2.5-15l20.3-20.3 12.5-12.5c1.2-1.2 1.2-3.2 0-4.4zM122.9 8.5l8.1 8.1-8.1 8.1-8.1-8.1 8.1-8.1zM27.8 144.8H7.2v-20.6l23.9-23.7c4.5 8.8 11.7 16 20.6 20.4l-23.9 23.9zm45.1-25c-22.4 0-40.6-18.2-40.6-40.6s18.2-40.6 40.6-40.6 40.6 18.2 40.6 40.6c0 22.3-18.2 40.6-40.6 40.6zm41.7-61.9C110.1 49 102.9 41.8 94 37.3L110.4 21 131 41.6l-16.4 16.3zm20.8-20.7l-8.1-8.1 8.1-8.1 8.1 8.1-8.1 8.1zM22.9 126c-1.7 0-3.1 1.4-3.1 3.1 0 1.7 1.4 3.1 3.1 3.1s3.1-1.4 3.1-3.1c0-1.7-1.4-3.1-3.1-3.1zm9.3-9.4c-1.7 0-3.1 1.4-3.1 3.1s1.4 3.1 3.1 3.1 3.1-1.4 3.1-3.1-1.3-3.1-3.1-3.1z"/></svg>