<svg id="Calque_1" xmlns="http://www.w3.org/2000/svg" width="94" height="58" viewBox="0 0 94 58"><style>.st0{fill:#0eadff}</style><path class="st0" d="M93 10.6c-.2-1-1-1.6-2-1.6H68.8C66 4.2 60.9 1 55 1H37c-3.3 0-6 2.7-6 6v2H3c-1.1 0-2 .9-2 2v36c0 1.1.9 2 2 2h28v2c0 3.3 2.7 6 6 6h18c5.9 0 11.1-3.2 13.9-8H91c1.1 0 2-.9 2-2V11v-.2-.2zM89 13v32H70.4c.3-1.3.6-2.6.6-4V17c0-1.4-.2-2.7-.6-4H89zm-4 16c0-2.2-1.8-4-4-4s-4 1.8-4 4 1.8 4 4 4 4-1.8 4-4zM67 17v24c0 6.7-5.3 12-12 12H37c-1.1 0-2-.9-2-2v-2h18c3.3 0 6-2.7 6-6V33h-4v10c0 1.1-.9 2-2 2H5V13h27.6c.3.1.5.1.8 0H53c1.1 0 2 .9 2 2v10h4V15c0-3.3-2.7-6-6-6H35V7c0-1.1.9-2 2-2h18c6.7 0 12 5.3 12 12zm-3.9 11.8c0-.1 0-.2-.1-.3-.2-.9-1-1.6-2-1.6H48.4c-.7-1.2-2-2-3.4-2-2.2 0-4 1.8-4 4s1.8 4 4 4c1.5 0 2.7-.8 3.4-2H61c1.1 0 2-.8 2.1-1.9v-.2zM29 29c0-2.2-1.8-4-4-4s-4 1.8-4 4 1.8 4 4 4 4-1.8 4-4z"/></svg>