<svg id="Calque_1" xmlns="http://www.w3.org/2000/svg" width="100" height="100" viewBox="0 0 100 100"><style>.st0{fill:#fff}</style><path class="st0" d="M44.6 56.8l14.1-7.3-14.1-7.4z"/><path class="st0" d="M50 1C22.9 1 1 22.9 1 50s21.9 49 49 49 49-21.9 49-49S77.1 1 50 1zm26.2 51c0 4.2-.5 8.5-.5 8.5s-.5 3.6-2.1 5.2c-2 2.1-4.2 2.1-5.2 2.2-7.4.5-18.4.5-18.4.5s-13.6-.1-17.8-.5c-1.2-.2-3.8-.2-5.8-2.2-1.6-1.6-2.1-5.2-2.1-5.2s-.5-4.2-.5-8.5v-4c0-4.2.5-8.5.5-8.5s.5-3.6 2.1-5.2c2-2.1 4.2-2.1 5.2-2.2 7.4-.5 18.4-.5 18.4-.5s11 0 18.3.5c1 .1 3.3.1 5.2 2.2 1.6 1.6 2.1 5.2 2.1 5.2s.5 4.2.5 8.5v4z"/></svg>