<?xml version="1.0" encoding="UTF-8"?>
<svg width="280px" height="37px" viewBox="0 0 280 37" version="1.1" xmlns="http://www.w3.org/2000/svg" xmlns:xlink="http://www.w3.org/1999/xlink">
    <!-- Generator: Sketch 57.1 (83088) - https://sketch.com -->
    <title>air-canada-vector-logo</title>
    <desc>Created with Sketch.</desc>
    <g id="Maquettes" stroke="none" stroke-width="1" fill="none" fill-rule="evenodd">
        <g id="Landing-page-V5" transform="translate(-120.000000, -994.000000)" fill-rule="nonzero">
            <g id="air-canada-vector-logo" transform="translate(120.000000, 994.000000)">
                <path d="M19.0399813,26.1416569 C19.0399813,24.9090257 19.5592535,24.7329355 20.7708887,25.4372962 C22.8479775,26.6699274 24.9250664,27.7264683 24.9250664,27.7264683 C24.9250664,27.0221077 25.6174294,26.4938372 26.8290645,26.8460175 C28.0406997,27.1981978 29.2523349,27.374288 29.2523349,27.374288 C29.2523349,27.374288 28.5599719,25.7894765 28.2137905,25.0851159 C27.6945182,23.8524847 28.2137905,23.148124 28.7330627,22.9720339 C28.7330627,22.9720339 28.0406997,22.4437634 27.5214275,22.0915831 C26.4828831,21.3872224 26.6559738,20.5067716 27.6945182,20.1545912 C29.0792441,19.4502306 30.9832423,18.7458699 30.9832423,18.7458699 C30.4639701,18.3936896 29.7716071,17.5132388 30.4639701,16.2806076 C31.156333,15.2240666 32.3679682,13.6392551 32.3679682,13.6392551 C32.3679682,13.6392551 30.4639701,13.6392551 29.0792441,13.6392551 C27.867609,13.6392551 27.5214275,12.5827141 27.5214275,11.8783535 C27.5214275,11.8783535 25.6174294,13.2870748 24.2327035,14.1675256 C23.0210683,15.0479764 21.9825239,14.1675256 22.1556146,12.7588043 C22.5017961,10.6457223 22.6748868,8.18045999 22.6748868,8.18045999 C21.9825239,8.88482065 20.7708887,8.70873049 20.0785257,7.6521895 C19.213072,5.89128784 18.3476183,3.77820586 18.3476183,3.77820586 C18.3476183,3.77820586 17.4821646,5.89128784 16.6167109,7.6521895 C16.0974387,8.70873049 14.8858036,8.88482065 14.1934406,8.35655016 C14.1934406,8.35655016 14.3665313,10.8218125 14.7127128,12.9348945 C14.8858036,14.1675256 13.8472591,15.0479764 12.6356239,14.1675256 C11.250898,13.2870748 9.17380917,11.8783535 9.17380917,11.8783535 C9.17380917,12.5827141 8.82762769,13.463165 7.61599251,13.6392551 C6.2312666,13.6392551 4.32726847,13.6392551 4.32726847,13.6392551 C4.32726847,13.6392551 5.53890365,15.2240666 6.2312666,16.2806076 C6.92362956,17.3371486 6.2312666,18.3936896 5.71199439,18.7458699 C5.71199439,18.7458699 7.44290178,19.6263207 9.00071843,20.1545912 C10.0392629,20.6828617 10.3854443,21.3872224 9.17380917,22.0915831 C8.82762769,22.4437634 7.96217399,22.9720339 7.96217399,22.9720339 C8.65453695,23.148124 9.17380917,23.8524847 8.65453695,25.0851159 C8.30835547,25.7894765 7.61599251,27.374288 7.61599251,27.374288 C7.61599251,27.374288 8.82762769,27.0221077 10.0392629,26.8460175 C11.250898,26.4938372 11.7701703,27.1981978 11.943261,27.7264683 C11.943261,27.7264683 14.0203499,26.4938372 16.0974387,25.4372962 C17.1359832,24.7329355 17.8283461,25.0851159 17.8283461,26.1416569 L17.8283461,29.1351897 C17.8283461,30.8960913 17.4821646,32.656993 16.9628924,33.713534 C9.17380917,32.8330831 2.59636108,26.4938372 2.59636108,18.0415093 C2.59636108,9.41309115 9.69308138,2.36948454 18.5207091,2.36948454 C27.3483368,2.36948454 34.4450571,9.41309115 34.4450571,18.0415093 C34.4450571,26.1416569 28.2137905,32.8330831 20.2516165,33.713534 L20.2516165,35.8266159 C29.5985164,34.9461651 36.8683274,27.374288 36.8683274,18.0415093 C36.8683274,8.00436983 28.5599719,0.0803123881 18.3476183,0.0803123881 C8.30835547,0.0803123881 0,8.00436983 0,17.8654191 C0,26.4938372 6.40435734,33.713534 14.8858036,35.2983455 C16.2705295,35.6505258 17.1359832,35.8266159 18.0014369,36.7070668 C18.8668905,34.9461651 19.0399813,31.4243618 19.0399813,29.48737 L19.0399813,26.1416569 Z" id="Path" fill="#F01428"></path>
                <path d="M93.6654804,27.6253027 L93.6654804,8.98952291 L103.012629,8.98952291 C107.950745,8.98952291 110.243442,11.0601651 110.419803,13.6484679 C110.419803,14.8563425 110.243442,16.0642171 109.361635,16.9269847 C108.479829,17.7897523 108.127106,18.1348593 106.539855,18.9976269 L113.594306,27.7978562 L108.479829,27.7978562 L102.130822,19.8603945 L97.8981514,19.8603945 L97.8981514,27.6253027 L93.6654804,27.6253027 Z M97.8981514,17.4446452 L99.8381255,17.4446452 C104.952603,17.4446452 106.010771,16.5818777 106.010771,14.1661284 C106.010771,11.7503792 103.718074,11.4052721 100.367209,11.4052721 L97.8981514,11.4052721 L97.8981514,17.4446452 Z" id="Shape" fill="#000000"></path>
                <path d="M52.8113879,27.7978562 L61.1879756,8.98952291 L66.3565084,8.98952291 L74.7330961,27.7978562 L69.5645633,27.7978562 L67.2476348,22.7474704 L58.3363713,22.7474704 L56.0194428,27.7978562 L52.8113879,27.7978562 Z M59.4057229,20.3093532 L66.0000579,20.3093532 L62.6137777,12.8208501 L59.4057229,20.3093532 Z" id="Shape" fill="#000000"></path>
                <rect id="Rectangle" fill="#000000" x="80.7117438" y="8.98952291" width="3.98576512" height="18.8083333"></rect>
                <path d="M145.480427,27.4422622 C143.364092,28.3106063 140.718672,28.657944 137.544169,28.657944 C133.840582,28.657944 130.84244,27.7895999 128.726105,26.0529116 C126.609769,24.3162234 125.551601,21.8848599 125.551601,18.7588212 C125.551601,15.6327824 126.609769,13.0277501 128.726105,11.4647307 C130.84244,9.72804246 133.840582,8.85969835 137.896892,8.85969835 C140.36595,8.85969835 142.835008,9.03336717 145.480427,9.55437364 L145.480427,12.6804124 C142.658646,11.8120683 140.013227,11.4647307 138.073253,11.4647307 C135.604195,11.4647307 133.840582,12.159406 132.429692,13.3750877 C131.195163,14.5907695 130.489718,16.5011265 130.489718,18.7588212 C130.489718,21.0165158 131.195163,22.753204 132.606053,24.1425546 C134.016943,25.3582364 135.956917,26.0529116 138.425975,26.0529116 C140.718672,26.0529116 143.18773,25.5319052 145.480427,24.6635611 L145.480427,27.4422622 Z" id="Path" fill="#000000"></path>
                <path d="M150.462633,27.7978562 L158.839221,8.98952291 L164.007754,8.98952291 L172.384342,27.7978562 L167.215809,27.7978562 L164.89888,22.7474704 L155.987617,22.7474704 L153.670688,27.7978562 L150.462633,27.7978562 Z M157.235194,20.3093532 L163.829529,20.3093532 L160.621474,12.8208501 L157.235194,20.3093532 Z" id="Shape" fill="#000000"></path>
                <path d="M205.266904,27.7978562 L213.643492,8.98952291 L218.812024,8.98952291 L227.188612,27.7978562 L222.020079,27.7978562 L219.703151,22.7474704 L210.791887,22.7474704 L208.474959,27.7978562 L205.266904,27.7978562 Z M211.861239,20.3093532 L218.455574,20.3093532 L215.069294,12.8208501 L211.861239,20.3093532 Z" id="Shape" fill="#000000"></path>
                <path d="M267.880682,12.8208501 L271.266962,20.3093532 L264.672627,20.3093532 L267.880682,12.8208501 Z M266.454879,8.98952291 L258.078292,27.7978562 L261.286347,27.7978562 L263.603275,22.7474704 L272.514539,22.7474704 L274.831467,27.7978562 L280,27.7978562 L271.623412,8.98952291 L266.454879,8.98952291 Z" id="Shape" fill="#000000"></path>
                <polygon id="Path" fill="#000000" points="179.359431 27.7978562 179.359431 8.98952291 184.257193 8.98952291 195.741601 22.399168 195.741601 8.98952291 199.288256 8.98952291 199.288256 27.7978562 194.728271 27.7978562 182.906086 13.6916062 182.906086 27.7978562"></polygon>
                <path d="M234.163701,27.7978562 L234.163701,8.98952291 L243.113555,8.98952291 C246.383695,8.98952291 248.793271,9.86027909 250.514397,11.253489 C252.235522,12.8208501 253.096085,15.0848161 253.096085,17.8712359 C253.096085,21.0059581 252.235522,23.4440754 250.342284,25.0114365 C248.449046,26.7529488 246.039469,27.623705 242.76933,27.623705 L234.163701,27.623705 L234.163701,27.7978562 Z M238.466516,25.1855877 L241.736655,25.1855877 C243.974118,25.1855877 245.695244,24.663134 246.900032,23.4440754 C248.10482,22.2250167 248.621158,20.6576556 248.621158,18.2195383 C248.621158,16.478026 248.10482,14.9106649 247.244258,13.6916062 C246.555807,12.8208501 245.867357,12.2983964 245.006794,11.9500939 C244.146231,11.6017914 242.941443,11.4276402 241.220317,11.4276402 L238.638628,11.4276402 L238.638628,25.1855877 L238.466516,25.1855877 Z" id="Shape" fill="#000000"></path>
            </g>
        </g>
    </g>
</svg>