<?xml version="1.0" encoding="UTF-8"?>
<svg width="642px" height="494px" viewBox="0 0 642 494" version="1.1" xmlns="http://www.w3.org/2000/svg" xmlns:xlink="http://www.w3.org/1999/xlink">
    <title>Group 2</title>
    <defs>
        <circle id="path-1" cx="305" cy="253" r="224"></circle>
        <filter x="-1.8%" y="-1.8%" width="103.6%" height="103.6%" filterUnits="objectBoundingBox" id="filter-2">
            <feGaussianBlur stdDeviation="7.5" in="SourceAlpha" result="shadowBlurInner1"></feGaussianBlur>
            <feOffset dx="0" dy="1" in="shadowBlurInner1" result="shadowOffsetInner1"></feOffset>
            <feComposite in="shadowOffsetInner1" in2="SourceAlpha" operator="arithmetic" k2="-1" k3="1" result="shadowInnerInner1"></feComposite>
            <feColorMatrix values="0 0 0 0 0   0 0 0 0 0   0 0 0 0 0  0 0 0 0.0697934878 0" type="matrix" in="shadowInnerInner1"></feColorMatrix>
        </filter>
        <ellipse id="path-3" cx="303.5" cy="304" rx="303.5" ry="303.560694"></ellipse>
        <filter x="-43.4%" y="-90.2%" width="186.8%" height="280.4%" filterUnits="objectBoundingBox" id="filter-5">
            <feOffset dx="7" dy="9" in="SourceAlpha" result="shadowOffsetOuter1"></feOffset>
            <feGaussianBlur stdDeviation="7.5" in="shadowOffsetOuter1" result="shadowBlurOuter1"></feGaussianBlur>
            <feColorMatrix values="0 0 0 0 0   0 0 0 0 0   0 0 0 0 0  0 0 0 0.0863745629 0" type="matrix" in="shadowBlurOuter1" result="shadowMatrixOuter1"></feColorMatrix>
            <feMerge>
                <feMergeNode in="shadowMatrixOuter1"></feMergeNode>
                <feMergeNode in="SourceGraphic"></feMergeNode>
            </feMerge>
        </filter>
        <linearGradient x1="-7.06093564%" y1="57.1563312%" x2="74.0822343%" y2="46.5082939%" id="linearGradient-6">
            <stop stop-color="#FFFFFF" offset="0%"></stop>
            <stop stop-color="#FAFDFF" offset="40%"></stop>
            <stop stop-color="#D2ECFF" offset="100%"></stop>
        </linearGradient>
        <filter x="-26.9%" y="-55.4%" width="153.8%" height="210.8%" filterUnits="objectBoundingBox" id="filter-7">
            <feOffset dx="7" dy="9" in="SourceAlpha" result="shadowOffsetOuter1"></feOffset>
            <feGaussianBlur stdDeviation="7.5" in="shadowOffsetOuter1" result="shadowBlurOuter1"></feGaussianBlur>
            <feColorMatrix values="0 0 0 0 0   0 0 0 0 0   0 0 0 0 0  0 0 0 0.0863745629 0" type="matrix" in="shadowBlurOuter1" result="shadowMatrixOuter1"></feColorMatrix>
            <feMerge>
                <feMergeNode in="shadowMatrixOuter1"></feMergeNode>
                <feMergeNode in="SourceGraphic"></feMergeNode>
            </feMerge>
        </filter>
        <linearGradient x1="32.1545438%" y1="48.0663356%" x2="77.1402298%" y2="69.8068032%" id="linearGradient-8">
            <stop stop-color="#D2ECFF" offset="0%"></stop>
            <stop stop-color="#FAFDFF" offset="60%"></stop>
            <stop stop-color="#FFFFFF" offset="100%"></stop>
        </linearGradient>
        <filter x="-62.2%" y="-131.4%" width="224.3%" height="362.9%" filterUnits="objectBoundingBox" id="filter-9">
            <feOffset dx="7" dy="9" in="SourceAlpha" result="shadowOffsetOuter1"></feOffset>
            <feGaussianBlur stdDeviation="7.5" in="shadowOffsetOuter1" result="shadowBlurOuter1"></feGaussianBlur>
            <feColorMatrix values="0 0 0 0 0   0 0 0 0 0   0 0 0 0 0  0 0 0 0.0863745629 0" type="matrix" in="shadowBlurOuter1" result="shadowMatrixOuter1"></feColorMatrix>
            <feMerge>
                <feMergeNode in="shadowMatrixOuter1"></feMergeNode>
                <feMergeNode in="SourceGraphic"></feMergeNode>
            </feMerge>
        </filter>
        <linearGradient x1="32.1545438%" y1="48.1219616%" x2="77.1402298%" y2="69.2370176%" id="linearGradient-10">
            <stop stop-color="#D2ECFF" offset="0%"></stop>
            <stop stop-color="#FAFDFF" offset="60%"></stop>
            <stop stop-color="#FFFFFF" offset="100%"></stop>
        </linearGradient>
        <filter x="-33.1%" y="-73.0%" width="166.2%" height="246.0%" filterUnits="objectBoundingBox" id="filter-11">
            <feOffset dx="7" dy="9" in="SourceAlpha" result="shadowOffsetOuter1"></feOffset>
            <feGaussianBlur stdDeviation="7.5" in="shadowOffsetOuter1" result="shadowBlurOuter1"></feGaussianBlur>
            <feColorMatrix values="0 0 0 0 0   0 0 0 0 0   0 0 0 0 0  0 0 0 0.0863745629 0" type="matrix" in="shadowBlurOuter1" result="shadowMatrixOuter1"></feColorMatrix>
            <feMerge>
                <feMergeNode in="shadowMatrixOuter1"></feMergeNode>
                <feMergeNode in="SourceGraphic"></feMergeNode>
            </feMerge>
        </filter>
        <linearGradient x1="32.1545438%" y1="48.2754201%" x2="77.1402298%" y2="67.6651199%" id="linearGradient-12">
            <stop stop-color="#D2ECFF" offset="0%"></stop>
            <stop stop-color="#FAFDFF" offset="60%"></stop>
            <stop stop-color="#FFFFFF" offset="100%"></stop>
        </linearGradient>
        <filter x="-29.3%" y="-77.5%" width="158.7%" height="255.1%" filterUnits="objectBoundingBox" id="filter-13">
            <feOffset dx="-20" dy="41" in="SourceAlpha" result="shadowOffsetOuter1"></feOffset>
            <feGaussianBlur stdDeviation="23" in="shadowOffsetOuter1" result="shadowBlurOuter1"></feGaussianBlur>
            <feColorMatrix values="0 0 0 0 0   0 0 0 0 0   0 0 0 0 0  0 0 0 0.09 0" type="matrix" in="shadowBlurOuter1" result="shadowMatrixOuter1"></feColorMatrix>
            <feMerge>
                <feMergeNode in="shadowMatrixOuter1"></feMergeNode>
                <feMergeNode in="SourceGraphic"></feMergeNode>
            </feMerge>
        </filter>
        <linearGradient x1="50.5924267%" y1="56.0508035%" x2="48.9593221%" y2="42.3038434%" id="linearGradient-14">
            <stop stop-color="#F9FDFF" offset="0%"></stop>
            <stop stop-color="#E1F3FF" offset="6%"></stop>
            <stop stop-color="#D6EFFF" offset="12%"></stop>
            <stop stop-color="#B2DAF3" offset="19%"></stop>
            <stop stop-color="#ACD2EB" offset="20%"></stop>
            <stop stop-color="#AAD0E8" offset="22%"></stop>
            <stop stop-color="#FFFFFF" offset="47%"></stop>
            <stop stop-color="#FFFFFF" offset="58%"></stop>
            <stop stop-color="#B2DAF3" offset="100%"></stop>
        </linearGradient>
        <linearGradient x1="61.8669325%" y1="4.77157794%" x2="40.9524008%" y2="100.75218%" id="linearGradient-15">
            <stop stop-color="#FFFFFF" offset="0%"></stop>
            <stop stop-color="#F7F6F7" offset="42.415455%"></stop>
            <stop stop-color="#BBE5FF" offset="81.4110008%"></stop>
            <stop stop-color="#B2DAF3" offset="100%"></stop>
        </linearGradient>
        <linearGradient x1="50%" y1="0.168918919%" x2="50%" y2="100%" id="linearGradient-16">
            <stop stop-color="#FFFFFF" offset="0%"></stop>
            <stop stop-color="#DBF1FF" offset="100%"></stop>
        </linearGradient>
    </defs>
    <g id="Maquettes" stroke="none" stroke-width="1" fill="none" fill-rule="evenodd">
        <g id="Landing-page" transform="translate(-678.000000, -107.000000)">
            <g id="Group-2" transform="translate(715.000000, 92.000000)">
                <g id="Oval">
                    <use fill="#0159FF" fill-rule="evenodd" xlink:href="#path-1"></use>
                    <use fill="black" fill-opacity="1" filter="url(#filter-2)" xlink:href="#path-1"></use>
                </g>
                <g id="Line">
                    <mask id="mask-4" fill="white">
                        <use xlink:href="#path-3"></use>
                    </mask>
                    <g id="Mask"></g>
                    <path d="M-691.329957,651.077892 C-621.47943,562.601297 -361.152613,517.423952 -77.3024602,510.522038 C111.930975,505.920761 242.680661,443.351638 314.946599,322.814668" stroke="#FFFFFF" stroke-width="3" stroke-linecap="round" stroke-linejoin="round" stroke-dasharray="0,18" mask="url(#mask-4)"></path>
                </g>
                <g id="nuage1-copy-2" filter="url(#filter-5)" transform="translate(398.000000, 46.500000) scale(-1, 1) translate(-398.000000, -46.500000) translate(345.000000, 21.000000)" fill="url(#linearGradient-6)" fill-rule="nonzero">
                    <path d="M95.3300912,28.6801799 C95.2387683,28.6801799 95.3300912,28.2654275 95.3300912,28.2193439 C95.3318427,23.6115787 92.5627176,19.4637554 88.3306626,17.7350243 C84.0986077,16.0062931 79.2504713,17.0425789 76.0761842,20.3544108 C75.042167,17.2789313 72.4806559,14.9796851 69.3335116,14.3020989 C70.8588303,8.73614937 67.9766754,2.90574792 62.6531925,0.788272012 C57.3297095,-1.3292039 51.2811262,0.94889479 48.633659,6.06849699 C45.8130434,3.51501936 41.7699107,2.87056462 38.3068541,4.4224569 C34.8437974,5.97434917 32.6060432,9.43344449 32.5912733,13.2575375 C32.591314,14.438158 32.8027233,15.609057 33.2153129,16.7138069 L32.5912733,16.7138069 C29.7640044,16.7104784 27.1558199,18.2499026 25.7724983,20.7384407 C25.1111012,21.8966282 24.5995809,23.1356267 24.2504503,24.4251281 C22.4133787,22.1208583 19.6887468,20.7180021 16.7619742,20.5694675 C13.6168616,20.5357632 10.6759038,22.1378692 8.97787919,24.8099042 C7.27985454,27.4819392 7.06376313,30.8478093 8.4059308,33.7186527 L8.20806456,33.7186527 C3.61998184,33.9139351 0,37.7247095 0,42.3593263 C0,46.9939432 3.61998184,50.8047176 8.20806456,51 L8.84732472,51 L95.3300912,51 C101.285817,50.7771105 106,45.8396478 106,39.8247287 C106,33.8098097 101.285817,28.8723469 95.3300912,28.6494575 L95.3300912,28.6801799 Z" id="Path"></path>
                </g>
                <g id="nuage1" filter="url(#filter-7)" transform="translate(92.000000, 29.000000)" fill="url(#linearGradient-8)" fill-rule="nonzero">
                    <path d="M153.787223,46.3110136 C153.6399,46.3110136 153.787223,45.6436087 153.787223,45.5694526 C153.790048,38.154798 149.322875,31.4802659 142.495692,28.6984521 C135.668509,25.9166384 127.847458,27.5841934 122.726674,32.9134773 C121.05859,27.9645233 116.926341,24.2646568 111.849344,23.1743088 C114.31,14.2177775 109.660486,4.83569949 101.072603,1.42833133 C92.4847201,-1.97903682 82.7270998,1.68679989 78.4561858,9.92508463 C73.9059473,5.81611777 67.3835352,4.77908375 61.7969061,7.2763345 C56.210277,9.77358526 52.600315,15.3398404 52.576488,21.4934371 C52.5765537,23.3932504 52.9176008,25.27742 53.5831935,27.055145 L52.576488,27.055145 C48.0155165,27.0497888 43.8079736,29.5269764 41.5763888,33.5314448 C40.5094179,35.3951596 39.6842296,37.3889127 39.1210095,39.4639332 C36.1574316,35.7559829 31.7620349,33.4985557 27.0405433,33.2595391 C21.9668239,33.2053033 17.2224487,35.7833562 14.4831825,40.0831014 C11.7439163,44.3828467 11.395316,49.7990871 13.560511,54.4187478 L13.2413117,54.4187478 C5.83978202,54.7329895 0,60.8651542 0,68.3230176 C0,75.7808809 5.83978202,81.9130456 13.2413117,82.2272873 L14.272571,82.2272873 L14.272571,82.2272873 L153.787223,82.2272873 C163.395044,81.8686214 171,73.9234291 171,64.2444318 C171,54.5654344 163.395044,46.6202421 153.787223,46.2615762 L153.787223,46.3110136 Z" id="Path"></path>
                </g>
                <g id="nuage1-copy" filter="url(#filter-9)" transform="translate(320.000000, 450.000000)" fill="url(#linearGradient-10)" fill-rule="nonzero">
                    <path d="M66.5511957,19.6824764 C66.487442,19.6824764 66.5511957,19.3978424 66.5511957,19.3662164 C66.5524185,16.2040246 64.6192557,13.3574792 61.6648022,12.1710951 C58.7103488,10.9847109 55.3258007,11.6958875 53.1097889,13.9687133 C52.3879279,11.8580901 50.5997032,10.280176 48.4026402,9.81516592 C49.4674853,5.99539663 47.4554149,1.99414073 43.7390212,0.540970988 C40.0226274,-0.912198755 35.8000315,0.651202307 33.9517997,4.16465479 C31.9826907,2.41226819 29.1601264,1.96999533 26.7425208,3.03501944 C24.3249152,4.10004355 22.7627094,6.47393249 22.7523983,9.09831003 C22.7524268,9.90853983 22.9000144,10.7120979 23.1880487,11.4702597 L22.7523983,11.4702597 C20.7786446,11.4679754 18.9578365,12.524443 17.9921215,14.2322632 C17.5303914,15.0270978 17.1732923,15.8773909 16.9295597,16.7623428 C15.6470757,15.1809812 13.7449742,14.2182367 11.7017556,14.1163012 C9.50611093,14.0931708 7.45298948,15.1926553 6.26757604,17.0264048 C5.0821626,18.8601543 4.93130634,21.1700652 5.86829131,23.1402518 L5.73015828,23.1402518 C2.52715713,23.2742692 0,25.8895065 0,29.0701259 C0,32.2507454 2.52715713,34.8659826 5.73015828,35 L6.17643424,35 L6.17643424,35 L66.5511957,35 C70.7089664,34.8470367 74,31.4585818 74,27.3306962 C74,23.2028105 70.7089664,19.8143557 66.5511957,19.6613924 L66.5511957,19.6824764 Z" id="Path"></path>
                </g>
                <g id="nuage2" filter="url(#filter-11)" transform="translate(422.000000, 352.000000)" fill-rule="nonzero">
                    <path d="M119.54,52.81462 C119.54,47.6925287 115.351955,43.5402533 110.18574,43.5402533 C109.271438,43.53919 108.362191,43.6746728 107.488595,43.9421426 C108.645336,40.3050059 107.708424,36.3319162 105.045117,33.5802809 C102.381809,30.8286456 98.4164757,29.7369077 94.7034834,30.7330165 C90.990491,31.7291253 88.1214645,34.6543618 87.2210306,38.3620653 C86.3009161,33.8629059 82.3099434,30.6301557 77.6796851,30.6334264 C76.8369983,30.6412216 75.9987516,30.7554961 75.1852157,30.9734865 C75.1928928,30.8602609 75.1928928,30.746652 75.1852157,30.6334264 C75.1852157,23.4368881 69.3010125,17.6029412 62.0424799,17.6029412 C54.7839474,17.6029412 48.8997442,23.4368881 48.8997442,30.6334264 C48.9037418,32.1480251 49.1782131,33.6499572 49.7104468,35.0696651 C46.9367681,33.8401124 43.733564,34.0227587 41.1203467,35.5594717 C38.5071295,37.0961847 36.809475,39.795508 36.567711,42.798304 C32.7838335,40.4209463 27.8976322,40.6749106 24.3852128,43.4314991 C20.8727935,46.1880876 19.501766,50.844871 20.9669051,55.0420021 C22.4320442,59.2391333 26.413156,62.0593642 30.8927931,62.0735294 L112.103363,62.0735294 L112.103363,61.8880421 C116.435002,60.988537 119.538103,57.2024511 119.54,52.81462 Z" id="Path" fill="#FFFFFF"></path>
                    <path d="M112.247013,63 L30.5738949,63 C24.4358602,63 19.46,58.0083618 19.46,51.8508641 C19.46,45.6933663 24.4358602,40.7017281 30.5738949,40.7017281 C32.3939868,40.6951808 34.186718,41.1461269 35.7883974,42.0133912 C36.6179604,37.2433772 40.7369217,33.7561611 45.5636439,33.7374219 C46.5453191,33.7338683 47.5217347,33.8813217 48.4588603,34.1746429 C48.1499669,33.0345119 47.9929451,31.8583649 47.9918899,30.6768748 C47.8801331,23.0576182 53.9466405,16.7901063 61.5418136,16.677995 C69.1369866,16.5658837 75.3846878,22.6516273 75.4964449,30.2708839 C80.262922,29.3528342 85.0218411,31.8959372 86.9216534,36.3763631 C88.8673342,31.3830591 94.0802354,28.4859817 99.3319906,29.4793001 C104.583746,30.4726185 108.387143,35.0750409 108.386725,40.4362725 C108.382803,41.3895054 108.262572,42.338672 108.028714,43.2625941 C113.231417,42.4123878 118.1878,45.7945054 119.310672,50.9611337 C120.433545,56.1277621 117.330343,61.2726094 112.247013,62.6720842 L112.247013,63 Z M30.5738949,41.9040859 C25.2463167,42.1158 21.0360828,46.5100084 21.0360828,51.8586716 C21.0360828,57.2073347 25.2463167,61.6015431 30.5738949,61.8132572 L111.064022,61.8132572 L111.064022,61.8132572 L111.530992,61.703952 C114.694968,61.0686077 117.251819,58.7347248 118.180167,55.6346133 C119.108515,52.5345018 118.257035,49.1734902 115.965866,46.8941928 C113.674697,44.6148955 110.317308,43.7888453 107.234865,44.7460225 L106.083004,45.1051684 L106.503278,43.9808858 C106.907934,42.8752834 107.118591,41.7077103 107.125905,40.5299627 C107.143211,35.3881233 103.251111,31.0805438 98.1484751,30.5941955 C93.0458388,30.1078471 88.4147256,33.6030524 87.4664522,38.6561584 L86.9060878,41.6074002 L86.2990263,38.6561584 C85.8001988,36.1722593 84.3003245,34.00557 82.1544896,32.6690413 C80.0086547,31.3325126 77.407637,30.94497 74.9672118,31.5981619 L74.1733622,31.8167725 L74.1733622,30.8486402 L74.1733622,30.6768748 C74.1733622,23.7432219 68.5702927,18.1223856 61.6585562,18.1223856 C54.7468197,18.1223856 49.1437501,23.7432219 49.1437501,30.6768748 C49.1428972,32.1371515 49.401165,33.5859221 49.9064684,34.9553948 L50.3890045,36.2826728 L49.1437501,35.6580714 C48.0194449,35.1449632 46.7988275,34.8787702 45.5636439,34.8773196 C41.005904,34.903283 37.2260111,38.4238285 36.8624293,42.9815234 L36.8624293,43.9808858 L35.9440542,43.4655896 C34.3396546,42.4406972 32.4759581,41.8987824 30.5738949,41.9040859 Z" id="Shape" fill="#FFFFFF"></path>
                    <path d="M139,49.8832117 C139,42.6269157 133.128909,36.7445255 125.886551,36.7445255 C124.60482,36.7430192 123.330174,36.9349532 122.105506,37.3138686 C123.727107,32.1612584 122.413679,26.5327146 118.68007,22.6345646 C114.946461,18.7364146 109.387583,17.1897859 104.182453,18.6009401 C98.9773239,20.0120942 94.955324,24.1561792 93.6930336,29.4087591 C92.4031534,23.03495 86.8083319,18.4552205 80.3173156,18.459854 C79.135979,18.4708972 77.9608668,18.6327861 76.8203958,18.9416058 C76.8311581,18.7812029 76.8311581,18.6202569 76.8203958,18.459854 C76.8203958,8.26475816 68.5715128,0 58.3959999,0 C48.220487,0 39.971604,8.26475816 39.971604,18.459854 C39.9772081,20.6055356 40.3619809,22.7332727 41.1081029,24.7445255 C37.2197683,23.0026592 32.7292953,23.2614082 29.0659066,25.4384183 C25.402518,27.6154283 23.0226286,31.4394697 22.683707,35.6934307 C17.3792058,32.3255073 10.529391,32.68529 5.60543856,36.5904571 C0.681486169,40.4956241 -1.24051494,47.0927339 0.813418395,53.0386697 C2.86735173,58.9846055 8.44834949,62.9799326 14.7282146,63 L128.574808,63 L128.574808,62.7372263 C134.647199,61.4629275 138.997341,56.0993057 139,49.8832117 Z" id="Path" fill="url(#linearGradient-12)"></path>
                </g>
                <g id="avion4" filter="url(#filter-13)" transform="translate(299.556378, 234.519021) rotate(-8.000000) translate(-299.556378, -234.519021) translate(14.056378, 126.519021)" fill-rule="nonzero">
                    <path d="M550.025607,96.616389 L548.682115,95.7429446 C545.636866,93.8168877 542.412485,91.9356228 539.008973,90.0991499 L538.001354,89.6288337 C527.188471,83.7985521 515.257518,80.3399453 503.003388,79.483441 C484.530374,78.6771846 452.756789,79.483441 428.641108,79.9537572 L428.641108,79.9537572 L412.989427,80.6256375 L396.330127,81.0287657 L415.273363,33.9971438 C416.149395,31.612874 415.797797,28.9502438 414.332919,26.8752125 L397.875143,3.15783747 L383.499779,3.15783747 L391.493556,30.03305 L345.814829,83.2459708 L345.814829,83.2459708 L233.297378,88.4866372 C233.297378,88.4866372 178.953128,86.1350561 167.399098,82.6412785 L155.777892,79.0803128 L157.255733,71.0177491 C157.429416,70.0012499 157.162416,68.958853 156.521468,68.1510971 C155.88052,67.3433412 154.926189,66.8465539 153.897003,66.7849031 L147.784115,67.1880313 L142.342973,70.883373 C142.342973,70.883373 122.190593,50.7269636 108.755674,38.4987419 C95.3207542,26.2705202 74.8996765,1.61251275 74.8996765,1.61251275 L54.7472972,7.7266236 L100.761897,109.382115 L1.47784115,132.158858 C8.3599015,136.063464 15.9336944,138.596172 23.7798076,139.616729 C32.5125053,139.616729 111.106785,122.013465 111.106785,122.013465 C129.57706,133.899619 150.067373,142.302327 171.563923,146.805848 C190.271364,150.890112 209.274985,153.473863 228.393632,154.532472 L72.6829148,197.868752 L58.0388525,183.288949 L40.6406317,183.893642 L63.3456457,211.843863 C69.2306072,214.784509 75.7917933,216.106284 82.3560569,215.67358 C92.8352941,214.800136 272.930391,166.760694 272.930391,166.760694 C272.930391,166.760694 278.102835,178.317035 281.058517,179.727984 C284.018599,180.329689 287.092291,180.001137 289.858389,178.787351 C291.6314,182.799895 294.950268,185.925585 299.061309,187.454607 C305.778769,189.940564 342.523274,188.462428 342.523274,188.462428 L342.523274,188.462428 L343.732417,188.462428 C349.696713,188.20096 354.954116,184.467457 357.167336,178.921727 L357.167336,178.921727 C358.767474,175.759106 359.726322,172.311131 359.988669,168.776335 C360.674065,163.119105 359.26417,157.406696 356.025368,152.718395 L356.025368,152.718395 L356.025368,152.718395 C355.325582,151.812392 354.512905,150.999552 353.607083,150.299626 L353.607083,150.299626 L505.354499,144.118327 C516.161222,143.768638 526.901139,142.282314 537.396782,139.683917 C550.831702,135.921387 569.774938,124.969738 570.110811,117.175927 C570.37951,113.346209 562.184209,104.678953 550.025607,96.616389 Z" id="Path" fill="#B2DAF3"></path>
                    <path d="M568.70378,115.563414 C568.70378,123.357225 549.219511,134.308875 535.986116,138.138592 C525.434903,140.663846 514.65342,142.104666 503.809483,142.438626 L352.062067,148.552737 L351.659019,148.552737 C352.755753,149.239018 353.731707,150.101661 354.547527,151.105882 L355.689495,177.309215 C351.945332,181.856781 346.909076,185.160289 341.246957,186.782727 C341.246957,186.782727 304.636801,188.260864 297.784992,185.842095 C293.673951,184.313072 290.355083,181.187382 288.582072,177.174838 C288.582072,177.174838 282.805057,179.52642 279.849374,178.048283 C276.893692,176.570146 271.654073,165.080993 271.654073,165.080993 C271.654073,165.080993 91.357453,213.254811 80.6095173,214.128256 C74.0618621,214.524939 67.5259431,213.180404 61.6662808,210.23135 L39.1627905,182.281129 L56.5610113,181.743625 L71.2050736,196.256239 L227.18449,152.852771 C208.110854,151.828704 189.150901,149.267251 170.489129,145.193336 C148.997471,140.673885 128.509963,132.272327 110.031991,120.400952 C110.031991,120.400952 31.3705372,137.937028 22.705014,138.004216 C14.7228703,137.022877 7.00971876,134.489354 0,130.546345 L99.3512301,107.50085 L53.7396782,6.11411085 L73.8920575,0 C73.8920575,0 94.0444369,24.3892554 107.479356,36.7518531 C120.914276,49.1144509 141.066655,69.0692962 141.066655,69.0692962 L146.440623,65.3739544 L152.284813,65.3739544 C153.322449,65.4139409 154.290918,65.9050434 154.936451,66.7185777 C155.581984,67.5321121 155.840239,68.58699 155.643543,69.6068004 L154.501575,77.8709283 L166.12278,81.4318939 C177.676811,84.9928596 232.021061,87.2772526 232.021061,87.2772526 L344.538512,82.0365862 L390.217238,28.7564774 L382.223461,1.88126488 L396.330127,1.54532472 L412.787903,25.0611357 C414.300248,27.1968376 414.628908,29.9530806 413.661173,32.3846311 L394.785111,79.416253 C394.785111,79.416253 408.690253,78.8787487 427.096093,78.3412445 C451.211773,77.6693642 483.052533,77.0646719 501.458372,77.8709283 C513.704281,78.7734378 525.625807,82.229312 536.456338,88.016321 L537.463957,88.4866372 C540.889861,90.300714 544.181417,92.1819789 547.204273,94.1304318 L548.480591,95.0038762 C560.706368,103.06644 568.901669,111.733696 568.70378,115.563414 Z" id="Path" fill="url(#linearGradient-14)"></path>
                    <path d="M358.712352,167.163822 C357.704733,178.384223 350.517051,187.320231 342.590449,186.917103 C334.663846,186.513975 329.155529,177.174838 329.961624,165.954437 C330.767719,154.734036 338.156925,145.798028 346.083528,146.133968 C354.01013,146.469908 359.652796,155.876233 358.712352,167.163822 Z" id="Path" fill="#7FBFEB"></path>
                    <path d="M354.950575,166.962258 C354.950575,174.688881 349.979654,180.399864 344.605687,180.399864 L343.933941,180.399864 C338.895846,179.727984 335.134068,173.681061 335.402767,166.156001 C335.671465,158.630942 340.037814,152.718395 345.143083,152.718395 L345.814829,152.718395 C351.188797,152.919959 355.286448,159.302822 354.950575,166.962258 Z" id="Path" fill="#B2DAF3"></path>
                    <path d="M353.674257,166.962258 C353.674257,174.285753 349.03921,180.399864 343.933941,180.399864 C338.828671,180.399864 335.134068,173.681061 335.402767,166.156001 C335.671465,158.630942 340.037814,152.718395 345.143083,152.718395 C350.248353,152.718395 354.01013,159.571574 353.674257,166.962258 Z" id="Path" fill="#6395B8"></path>
                    <path d="M449.399516,104.123178 L461.185758,104.122967 C461.566835,104.122936 461.875764,104.431854 461.87577,104.81293 C461.87577,104.812938 461.87577,104.812947 461.875746,104.812955 L461.875535,116.601788 C461.875503,116.982855 461.566589,117.291769 461.185522,117.2918 L449.39928,117.292011 C449.018203,117.292043 448.709274,116.983125 448.709267,116.602048 C448.709267,116.60204 448.709267,116.602032 448.709292,116.602024 L448.709503,104.813191 C448.709535,104.432124 449.018449,104.12321 449.399516,104.123178 Z" id="Rectangle" fill="#BBCCC7" transform="translate(455.292519, 110.707489) rotate(-5.160000) translate(-455.292519, -110.707489) "></path>
                    <path d="M422.272749,105.140392 L434.058991,105.14018 C434.440068,105.140149 434.748997,105.449067 434.749003,105.830143 C434.749003,105.830151 434.749003,105.83016 434.748979,105.830168 L434.748767,117.619001 C434.748736,118.000067 434.439822,118.308981 434.058755,118.309013 L422.272512,118.309224 C421.891436,118.309256 421.582507,118.000338 421.5825,117.619262 C421.5825,117.619253 421.5825,117.619245 421.582525,117.619237 L421.582736,105.830404 C421.582768,105.449337 421.891682,105.140423 422.272749,105.140392 Z" id="Rectangle" fill="#BBCCC7" transform="translate(428.165752, 111.724702) rotate(-5.170000) translate(-428.165752, -111.724702) "></path>
                    <path d="M396.7874,106.440329 L408.626858,106.440118 C409.007935,106.440087 409.316864,106.749005 409.316871,107.130081 C409.316871,107.130089 409.316871,107.130098 409.316846,107.130106 L409.316635,118.972165 C409.316603,119.353232 409.007689,119.662146 408.626622,119.662177 L396.787164,119.662389 C396.406088,119.66242 396.097159,119.353502 396.097152,118.972426 C396.097152,118.972417 396.097152,118.972409 396.097177,118.972401 L396.097388,107.130342 C396.09742,106.749275 396.406334,106.440361 396.7874,106.440329 Z" id="Rectangle" fill="#BBCCC7" transform="translate(402.707011, 113.051253) rotate(-5.142765) translate(-402.707011, -113.051253) "></path>
                    <path d="M368.095284,107.128498 L379.881527,107.128287 C380.262603,107.128256 380.571532,107.437174 380.571539,107.81825 C380.571539,107.818258 380.571539,107.818267 380.571515,107.818275 L380.571304,119.607108 C380.571272,119.988175 380.262358,120.297089 379.881291,120.29712 L368.095049,120.297331 C367.713973,120.297362 367.405044,119.988444 367.405037,119.607368 C367.405037,119.60736 367.405037,119.607351 367.405061,119.607343 L367.405272,107.81851 C367.405304,107.437443 367.714218,107.128529 368.095284,107.128498 Z" id="Rectangle" fill="#BBCCC7" transform="translate(373.988288, 113.712809) rotate(-5.150000) translate(-373.988288, -113.712809) "></path>
                    <path d="M340.896503,108.088192 L352.682746,108.087981 C353.063822,108.087949 353.372751,108.396867 353.372758,108.777944 C353.372758,108.777952 353.372758,108.77796 353.372733,108.777969 L353.372522,120.566801 C353.372491,120.947868 353.063577,121.256782 352.68251,121.256814 L340.896267,121.257025 C340.515191,121.257056 340.206262,120.948138 340.206255,120.567062 C340.206255,120.567054 340.206255,120.567046 340.20628,120.567037 L340.206491,108.778204 C340.206522,108.397138 340.515436,108.088224 340.896503,108.088192 Z" id="Rectangle" fill="#BBCCC7" transform="translate(346.789507, 114.672503) rotate(-5.160000) translate(-346.789507, -114.672503) "></path>
                    <path d="M313.891122,109.041183 L325.677365,109.040972 C326.058441,109.040941 326.36737,109.349859 326.367377,109.730935 C326.367377,109.730943 326.367377,109.730952 326.367352,109.73096 L326.367141,121.519793 C326.36711,121.900859 326.058196,122.209773 325.677129,122.209805 L313.890887,122.210016 C313.50981,122.210048 313.200881,121.90113 313.200874,121.520053 C313.200874,121.520045 313.200874,121.520037 313.200899,121.520029 L313.20111,109.731196 C313.201142,109.350129 313.510056,109.041215 313.891122,109.041183 Z" id="Rectangle" fill="#BBCCC7" transform="translate(319.784126, 115.625494) rotate(-5.160000) translate(-319.784126, -115.625494) "></path>
                    <path d="M286.68449,110.067405 L298.470732,110.067194 C298.851809,110.067163 299.160738,110.376081 299.160745,110.757157 C299.160745,110.757165 299.160745,110.757174 299.16072,110.757182 L299.160509,122.546015 C299.160477,122.927081 298.851563,123.235995 298.470496,123.236027 L286.684254,123.236238 C286.303178,123.23627 285.994248,122.927352 285.994242,122.546275 C285.994242,122.546267 285.994242,122.546259 285.994266,122.54625 L285.994477,110.757418 C285.994509,110.376351 286.303423,110.067437 286.68449,110.067405 Z" id="Rectangle" fill="#BBCCC7" transform="translate(292.577493, 116.651716) rotate(-5.160000) translate(-292.577493, -116.651716) "></path>
                    <path d="M259.589894,111.007523 L271.376136,111.007312 C271.757212,111.007281 272.066142,111.316199 272.066148,111.697275 C272.066148,111.697283 272.066148,111.697292 272.066124,111.6973 L272.065913,123.486133 C272.065881,123.8672 271.756967,124.176114 271.375901,124.176145 L259.589658,124.176356 C259.208582,124.176387 258.899653,123.867469 258.899646,123.486393 C258.899646,123.486385 258.899646,123.486376 258.899671,123.486368 L258.899881,111.697535 C258.899913,111.316468 259.208827,111.007554 259.589894,111.007523 Z" id="Rectangle" fill="#BBCCC7" transform="translate(265.482897, 117.591834) rotate(-5.150000) translate(-265.482897, -117.591834) "></path>
                    <path d="M232.533609,112.046891 L244.319852,112.04668 C244.700928,112.046648 245.009857,112.355566 245.009864,112.736643 C245.009864,112.736651 245.009864,112.736659 245.00984,112.736667 L245.009628,124.5255 C245.009597,124.906567 244.700683,125.215481 244.319616,125.215512 L232.533374,125.215724 C232.152297,125.215755 231.843368,124.906837 231.843361,124.525761 C231.843361,124.525752 231.843361,124.525744 231.843386,124.525736 L231.843597,112.736903 C231.843629,112.355836 232.152543,112.046922 232.533609,112.046891 Z" id="Rectangle" fill="#BBCCC7" transform="translate(238.426613, 118.631202) rotate(-5.160000) translate(-238.426613, -118.631202) "></path>
                    <path d="M205.38811,112.939009 L217.174352,112.938798 C217.555429,112.938766 217.864358,113.247684 217.864365,113.628761 C217.864365,113.628769 217.864365,113.628777 217.86434,113.628785 L217.864129,125.417618 C217.864097,125.798685 217.555183,126.107599 217.174117,126.107631 L205.387874,126.107842 C205.006798,126.107873 204.697869,125.798955 204.697862,125.417879 C204.697862,125.417871 204.697862,125.417862 204.697887,125.417854 L204.698098,113.629021 C204.698129,113.247954 205.007043,112.93904 205.38811,112.939009 Z" id="Rectangle" fill="#BBCCC7" transform="translate(211.281113, 119.523320) rotate(-5.160000) translate(-211.281113, -119.523320) "></path>
                    <path d="M178.248652,113.965231 L190.034895,113.96502 C190.415971,113.964988 190.7249,114.273906 190.724907,114.654983 C190.724907,114.654991 190.724907,114.654999 190.724882,114.655007 L190.724671,126.44384 C190.72464,126.824907 190.415726,127.133821 190.034659,127.133853 L178.248416,127.134064 C177.86734,127.134095 177.558411,126.825177 177.558404,126.444101 C177.558404,126.444093 177.558404,126.444084 177.558429,126.444076 L177.55864,114.655243 C177.558671,114.274176 177.867585,113.965262 178.248652,113.965231 Z" id="Rectangle" fill="#BBCCC7" transform="translate(184.141655, 120.549542) rotate(-5.160000) translate(-184.141655, -120.549542) "></path>
                    <path d="M448.585322,103.258598 L460.371565,103.258387 C460.752641,103.258356 461.06157,103.567274 461.061577,103.94835 C461.061577,103.948358 461.061577,103.948367 461.061552,103.948375 L461.061341,115.737208 C461.06131,116.118274 460.752396,116.427188 460.371329,116.42722 L448.585086,116.427431 C448.20401,116.427463 447.895081,116.118545 447.895074,115.737468 C447.895074,115.73746 447.895074,115.737452 447.895099,115.737443 L447.89531,103.948611 C447.895341,103.567544 448.204255,103.25863 448.585322,103.258598 Z" id="Rectangle" fill="#7FBFEB" transform="translate(454.478326, 109.842909) rotate(-5.160000) translate(-454.478326, -109.842909) "></path>
                    <path d="M423.219261,104.613487 L435.058719,104.613275 C435.439796,104.613244 435.748725,104.922162 435.748731,105.303239 C435.748731,105.303247 435.748731,105.303255 435.748707,105.303263 L435.748495,117.145322 C435.748464,117.526389 435.43955,117.835303 435.058483,117.835335 L423.219025,117.835546 C422.837949,117.835577 422.52902,117.526659 422.529013,117.145583 C422.529013,117.145575 422.529013,117.145567 422.529037,117.145558 L422.529249,105.303499 C422.52928,104.922432 422.838194,104.613518 423.219261,104.613487 Z" id="Rectangle" fill="#7FBFEB" transform="translate(429.138872, 111.224411) rotate(-5.142765) translate(-429.138872, -111.224411) "></path>
                    <path d="M394.313507,105.172787 L406.099749,105.172576 C406.480826,105.172544 406.789755,105.481462 406.789761,105.862538 C406.789761,105.862547 406.789761,105.862555 406.789737,105.862563 L406.789525,117.651396 C406.789494,118.032463 406.48058,118.341377 406.099513,118.341408 L394.31327,118.34162 C393.932194,118.341651 393.623265,118.032733 393.623258,117.651657 C393.623258,117.651649 393.623258,117.65164 393.623283,117.651632 L393.623494,105.862799 C393.623526,105.481733 393.93244,105.172819 394.313507,105.172787 Z" id="Rectangle" fill="#7FBFEB" transform="translate(400.206510, 111.757098) rotate(-5.170000) translate(-400.206510, -111.757098) "></path>
                    <path d="M367.2752,106.196847 L379.061443,106.196636 C379.442519,106.196605 379.751448,106.505523 379.751455,106.886599 C379.751455,106.886607 379.751455,106.886616 379.751431,106.886624 L379.75122,118.675457 C379.751188,119.056524 379.442274,119.365438 379.061207,119.365469 L367.274965,119.36568 C366.893889,119.365711 366.58496,119.056793 366.584953,118.675717 C366.584953,118.675709 366.584953,118.6757 366.584977,118.675692 L366.585188,106.886859 C366.58522,106.505792 366.894134,106.196878 367.2752,106.196847 Z" id="Rectangle" fill="#7FBFEB" transform="translate(373.168204, 112.781158) rotate(-5.150000) translate(-373.168204, -112.781158) "></path>
                    <path d="M340.149485,107.223612 L351.935727,107.223401 C352.316804,107.223369 352.625733,107.532287 352.625739,107.913364 C352.625739,107.913372 352.625739,107.91338 352.625715,107.913388 L352.625504,119.702221 C352.625472,120.083288 352.316558,120.392202 351.935491,120.392234 L340.149249,120.392445 C339.768172,120.392476 339.459243,120.083558 339.459236,119.702482 C339.459236,119.702474 339.459236,119.702465 339.459261,119.702457 L339.459472,107.913624 C339.459504,107.532557 339.768418,107.223643 340.149485,107.223612 Z" id="Rectangle" fill="#7FBFEB" transform="translate(346.042488, 113.807923) rotate(-5.160000) translate(-346.042488, -113.807923) "></path>
                    <path d="M314.282888,108.533908 L326.122346,108.533697 C326.503422,108.533666 326.812351,108.842584 326.812358,109.22366 C326.812358,109.223668 326.812358,109.223677 326.812333,109.223685 L326.812122,121.065744 C326.812091,121.446811 326.503177,121.755725 326.12211,121.755756 L314.282652,121.755968 C313.901575,121.755999 313.592646,121.447081 313.592639,121.066005 C313.592639,121.065996 313.592639,121.065988 313.592664,121.06598 L313.592875,109.223921 C313.592907,108.842854 313.901821,108.53394 314.282888,108.533908 Z" id="Rectangle" fill="#7FBFEB" transform="translate(320.202499, 115.144832) rotate(-5.142765) translate(-320.202499, -115.144832) "></path>
                    <path d="M285.93143,109.068721 L297.717672,109.06851 C298.098749,109.068479 298.407678,109.377397 298.407684,109.758473 C298.407684,109.758481 298.407684,109.75849 298.40766,109.758498 L298.407449,121.547331 C298.407417,121.928397 298.098503,122.237311 297.717436,122.237343 L285.931194,122.237554 C285.550117,122.237586 285.241188,121.928668 285.241181,121.547591 C285.241181,121.547583 285.241181,121.547575 285.241206,121.547566 L285.241417,109.758734 C285.241449,109.377667 285.550363,109.068753 285.93143,109.068721 Z" id="Rectangle" fill="#7FBFEB" transform="translate(291.824433, 115.653032) rotate(-5.160000) translate(-291.824433, -115.653032) "></path>
                    <path d="M258.775839,110.142789 L270.562082,110.142578 C270.943158,110.142547 271.252087,110.451465 271.252094,110.832541 C271.252094,110.832549 271.252094,110.832557 271.252069,110.832566 L271.251859,122.621399 C271.251827,123.002465 270.942913,123.311379 270.561846,123.311411 L258.775604,123.311622 C258.394528,123.311653 258.085599,123.002735 258.085592,122.621659 C258.085592,122.62165 258.085592,122.621642 258.085616,122.621634 L258.085827,110.832801 C258.085859,110.451734 258.394773,110.14282 258.775839,110.142789 Z" id="Rectangle" fill="#7FBFEB" transform="translate(264.668843, 116.727100) rotate(-5.150000) translate(-264.668843, -116.727100) "></path>
                    <path d="M231.646472,111.054249 L243.432715,111.054038 C243.813791,111.054007 244.12272,111.362925 244.122727,111.744001 C244.122727,111.744009 244.122727,111.744018 244.122702,111.744026 L244.122491,123.532859 C244.12246,123.913926 243.813546,124.22284 243.432479,124.222871 L231.646236,124.223082 C231.26516,124.223114 230.956231,123.914196 230.956224,123.533119 C230.956224,123.533111 230.956224,123.533103 230.956249,123.533095 L230.95646,111.744262 C230.956491,111.363195 231.265405,111.054281 231.646472,111.054249 Z" id="Rectangle" fill="#7FBFEB" transform="translate(237.539476, 117.638560) rotate(-5.160000) translate(-237.539476, -117.638560) "></path>
                    <path d="M204.507014,112.080471 L216.293257,112.08026 C216.674333,112.080229 216.983262,112.389147 216.983269,112.770223 C216.983269,112.770231 216.983269,112.77024 216.983244,112.770248 L216.983033,124.559081 C216.983002,124.940148 216.674088,125.249062 216.293021,125.249093 L204.506778,125.249304 C204.125702,125.249336 203.816773,124.940418 203.816766,124.559341 C203.816766,124.559333 203.816766,124.559325 203.816791,124.559317 L203.817002,112.770484 C203.817033,112.389417 204.125947,112.080503 204.507014,112.080471 Z" id="Rectangle" fill="#7FBFEB" transform="translate(210.400018, 118.664782) rotate(-5.160000) translate(-210.400018, -118.664782) "></path>
                    <path d="M177.410507,113.000294 L189.19675,113.000084 C189.577826,113.000052 189.886755,113.30897 189.886762,113.690047 C189.886762,113.690055 189.886762,113.690063 189.886737,113.690071 L189.886527,125.478904 C189.886495,125.859971 189.577581,126.168885 189.196514,126.168917 L177.410272,126.169127 C177.029195,126.169159 176.720266,125.860241 176.720259,125.479164 C176.720259,125.479156 176.720259,125.479148 176.720284,125.47914 L176.720495,113.690307 C176.720526,113.30924 177.02944,113.000326 177.410507,113.000294 Z" id="Rectangle" fill="#7FBFEB" transform="translate(183.303511, 119.584605) rotate(-5.150000) translate(-183.303511, -119.584605) "></path>
                    <path d="M344.336988,81.9693982 L390.015715,28.6892894 L382.021938,1.81407684 L396.330127,1.54532472 L412.787903,25.0611357 C414.300248,27.1968376 414.628908,29.9530806 413.661173,32.3846311 L394.785111,79.416253 C394.785111,79.416253 408.690253,78.8787487 427.096093,78.3412445 L344.336988,81.9693982 Z" id="Path" fill="url(#linearGradient-15)"></path>
                    <path d="M155.643543,69.8755525 L154.501575,77.8709283 C151.858679,77.1551687 149.374546,75.9470459 147.179544,74.3099626 C144.936144,72.9491628 142.974945,71.1700454 141.402528,69.0692962 L146.776496,65.3739544 L152.620686,65.3739544 C153.657377,65.4925426 154.589868,66.060038 155.171649,66.9264188 C155.753431,67.7927996 155.925929,68.8708403 155.643543,69.8755525 L155.643543,69.8755525 Z" id="Path" fill="url(#linearGradient-16)"></path>
                    <path d="M547.271448,94.0632438 C545.225414,97.109097 542.294723,99.4541193 538.874623,100.782047 C527.598389,104.210963 515.970338,106.352215 504.212531,107.16491 L502.936214,97.0867052 C502.936214,97.0867052 529.201481,93.3913635 533.635005,91.8460388 C535.216243,91.1817685 536.319144,89.7194906 536.523512,88.016321 L537.531131,88.4866372 C540.957036,90.300714 544.114242,92.1819789 547.271448,94.0632438 Z" id="Path" fill="#7FBFEB"></path>
                    <path d="M288.380548,177.242027 C288.380548,177.242027 282.603533,179.593608 279.647851,178.115471 C276.692168,176.637334 271.45255,165.148181 271.45255,165.148181 L283.409628,161.251275 L288.380548,177.242027 Z" id="Path" fill="#7FBFEB"></path>
                </g>
            </g>
        </g>
    </g>
</svg>