<?xml version="1.0" encoding="UTF-8"?>
<svg width="1440px" height="421px" viewBox="0 0 1440 421" version="1.1" xmlns="http://www.w3.org/2000/svg" xmlns:xlink="http://www.w3.org/1999/xlink">
    <title>sun + palmier2 + palmier1 Mask</title>
    <defs>
        <rect id="path-1" x="0" y="0" width="1440" height="421"></rect>
        <linearGradient x1="51.5637242%" y1="44.4851422%" x2="48.5182956%" y2="-35.7487781%" id="linearGradient-3">
            <stop stop-color="#DD8F7C" offset="0%"></stop>
            <stop stop-color="#DFA89B" offset="36%"></stop>
            <stop stop-color="#DEA89B" offset="68%"></stop>
            <stop stop-color="#DFD2CE" offset="100%"></stop>
        </linearGradient>
        <linearGradient x1="50%" y1="68.8310616%" x2="50%" y2="0%" id="linearGradient-4">
            <stop stop-color="#DD8F7C" offset="0%"></stop>
            <stop stop-color="#F7AC9A" offset="61.2304688%"></stop>
            <stop stop-color="#FEB5A3" offset="100%"></stop>
            <stop stop-color="#FED39D" offset="100%"></stop>
        </linearGradient>
        <linearGradient x1="32.3442143%" y1="33.7143725%" x2="100.582973%" y2="69.5118096%" id="linearGradient-5">
            <stop stop-color="#DD8F7C" offset="0%"></stop>
            <stop stop-color="#DFA89B" offset="36%"></stop>
            <stop stop-color="#DEA89B" offset="68%"></stop>
            <stop stop-color="#DFD2CE" offset="100%"></stop>
        </linearGradient>
        <linearGradient x1="80.7072685%" y1="56.0289696%" x2="100.582973%" y2="57.8258846%" id="linearGradient-6">
            <stop stop-color="#DD8F7C" offset="0%"></stop>
            <stop stop-color="#DFA89B" offset="36%"></stop>
            <stop stop-color="#DEA89B" offset="68%"></stop>
            <stop stop-color="#DFD2CE" offset="100%"></stop>
        </linearGradient>
        <linearGradient x1="11.8022235%" y1="48.3265654%" x2="100.582973%" y2="57.8234217%" id="linearGradient-7">
            <stop stop-color="#DD8F7C" offset="0%"></stop>
            <stop stop-color="#DFA89B" offset="36%"></stop>
            <stop stop-color="#DEA89B" offset="68%"></stop>
            <stop stop-color="#DFD2CE" offset="100%"></stop>
        </linearGradient>
        <linearGradient x1="0%" y1="-1.63219453%" x2="100.582973%" y2="84.9679613%" id="linearGradient-8">
            <stop stop-color="#DFD2CE" offset="0%"></stop>
            <stop stop-color="#DEA89B" offset="32%"></stop>
            <stop stop-color="#DFA89B" offset="64%"></stop>
            <stop stop-color="#DD8F7C" offset="100%"></stop>
        </linearGradient>
        <linearGradient x1="2.08263044%" y1="49.0629208%" x2="101.005404%" y2="52.7030915%" id="linearGradient-9">
            <stop stop-color="#96CAAA" offset="7%"></stop>
            <stop stop-color="#62A97F" offset="54%"></stop>
            <stop stop-color="#3D9160" offset="92%"></stop>
        </linearGradient>
        <linearGradient x1="-19.242418%" y1="51.5364829%" x2="100.582973%" y2="54.8222426%" id="linearGradient-10">
            <stop stop-color="#DFD2CE" offset="0%"></stop>
            <stop stop-color="#DEA89B" offset="32%"></stop>
            <stop stop-color="#DFA89B" offset="64%"></stop>
            <stop stop-color="#DD8F7C" offset="100%"></stop>
        </linearGradient>
        <linearGradient x1="55.6475398%" y1="40.1556161%" x2="71.1688922%" y2="62.3460097%" id="linearGradient-11">
            <stop stop-color="#DD8F7C" offset="0%"></stop>
            <stop stop-color="#DFA89B" offset="36%"></stop>
            <stop stop-color="#DEA89B" offset="68%"></stop>
            <stop stop-color="#DFD2CE" offset="100%"></stop>
        </linearGradient>
        <linearGradient x1="25.2904018%" y1="46.5542028%" x2="100.582973%" y2="72.559354%" id="linearGradient-12">
            <stop stop-color="#DD8F7C" offset="0%"></stop>
            <stop stop-color="#DFA89B" offset="36%"></stop>
            <stop stop-color="#DEA89B" offset="68%"></stop>
            <stop stop-color="#DFD2CE" offset="100%"></stop>
        </linearGradient>
        <linearGradient x1="60.7603293%" y1="43.410603%" x2="75.4431639%" y2="35.2155532%" id="linearGradient-13">
            <stop stop-color="#DD8F7C" offset="0%"></stop>
            <stop stop-color="#DFA89B" offset="36%"></stop>
            <stop stop-color="#DEA89B" offset="68%"></stop>
            <stop stop-color="#DFD2CE" offset="100%"></stop>
        </linearGradient>
        <linearGradient x1="108.444059%" y1="63.1240605%" x2="18.1762645%" y2="20.3387993%" id="linearGradient-14">
            <stop stop-color="#DFD2CE" offset="0%"></stop>
            <stop stop-color="#DEA89B" offset="32%"></stop>
            <stop stop-color="#DFA89B" offset="64%"></stop>
            <stop stop-color="#DD8F7C" offset="100%"></stop>
        </linearGradient>
        <filter x="-14.9%" y="-11.8%" width="129.8%" height="123.7%" filterUnits="objectBoundingBox" id="filter-15">
            <feOffset dx="10" dy="17" in="SourceAlpha" result="shadowOffsetOuter1"></feOffset>
            <feGaussianBlur stdDeviation="5.5" in="shadowOffsetOuter1" result="shadowBlurOuter1"></feGaussianBlur>
            <feColorMatrix values="0 0 0 0 0   0 0 0 0 0   0 0 0 0 0  0 0 0 0.03 0" type="matrix" in="shadowBlurOuter1" result="shadowMatrixOuter1"></feColorMatrix>
            <feMerge>
                <feMergeNode in="shadowMatrixOuter1"></feMergeNode>
                <feMergeNode in="SourceGraphic"></feMergeNode>
            </feMerge>
        </filter>
        <linearGradient x1="26.0641242%" y1="41.068617%" x2="81.6968127%" y2="91.7548282%" id="linearGradient-16">
            <stop stop-color="#DD8F7C" offset="0%"></stop>
            <stop stop-color="#DFA89B" offset="36%"></stop>
            <stop stop-color="#DEA89B" offset="68%"></stop>
            <stop stop-color="#DFD2CE" offset="100%"></stop>
        </linearGradient>
        <linearGradient x1="26.5802507%" y1="43.783934%" x2="103.289563%" y2="43.783934%" id="linearGradient-17">
            <stop stop-color="#DD8F7C" offset="0%"></stop>
            <stop stop-color="#DFA89B" offset="36%"></stop>
            <stop stop-color="#DEA89B" offset="68%"></stop>
            <stop stop-color="#DFD2CE" offset="100%"></stop>
        </linearGradient>
        <linearGradient x1="-9.20228051%" y1="26.9822981%" x2="100%" y2="63.3380256%" id="linearGradient-18">
            <stop stop-color="#DFD2CE" offset="0%"></stop>
            <stop stop-color="#DEA89B" offset="32%"></stop>
            <stop stop-color="#DFA89B" offset="64%"></stop>
            <stop stop-color="#DD8F7C" offset="100%"></stop>
        </linearGradient>
        <linearGradient x1="-39.6710622%" y1="52.8028379%" x2="96.2234048%" y2="43.0604442%" id="linearGradient-19">
            <stop stop-color="#DFD2CE" offset="0%"></stop>
            <stop stop-color="#DEA89B" offset="32%"></stop>
            <stop stop-color="#DFA89B" offset="64%"></stop>
            <stop stop-color="#DD8F7C" offset="100%"></stop>
        </linearGradient>
        <linearGradient x1="66.2704992%" y1="5.98385873%" x2="-8.55044719%" y2="129.747357%" id="linearGradient-20">
            <stop stop-color="#DD8F7C" offset="0%"></stop>
            <stop stop-color="#DFA89B" offset="36%"></stop>
            <stop stop-color="#DEA89B" offset="68%"></stop>
            <stop stop-color="#DFD2CE" offset="100%"></stop>
        </linearGradient>
        <linearGradient x1="-11.7455092%" y1="33.8848083%" x2="119.637608%" y2="68.9728197%" id="linearGradient-21">
            <stop stop-color="#DD8F7C" offset="0%"></stop>
            <stop stop-color="#DFA89B" offset="36%"></stop>
            <stop stop-color="#DEA89B" offset="68%"></stop>
            <stop stop-color="#DFD2CE" offset="100%"></stop>
        </linearGradient>
        <linearGradient x1="50%" y1="0%" x2="50%" y2="100%" id="linearGradient-22">
            <stop stop-color="#FEB5A3" offset="0%"></stop>
            <stop stop-color="#DD8F7C" offset="100%"></stop>
        </linearGradient>
    </defs>
    <g id="Maquettes" stroke="none" stroke-width="1" fill="none" fill-rule="evenodd">
        <g id="Landing-page" transform="translate(0.000000, -1366.000000)">
            <g id="sun-+-palmier2-+-palmier1-Mask" transform="translate(0.000000, 1366.000000)">
                <mask id="mask-2" fill="white">
                    <use xlink:href="#path-1"></use>
                </mask>
                <g id="Mask"></g>
                <g id="sun" mask="url(#mask-2)" fill-rule="nonzero">
                    <g transform="translate(720.500000, 359.500000) rotate(2.000000) translate(-720.500000, -359.500000) translate(565.000000, 203.000000)" id="Path">
                        <path d="M264.66563,45.7514438 L261.12913,69.6785508 C260.904617,71.2228162 261.31064,72.7927301 262.254951,74.0316061 C263.199261,75.2704822 264.601678,76.0731271 266.14357,76.2571789 L290.107314,79.0690119 C291.495329,79.1014432 292.758658,79.8819059 293.414285,81.1120006 C294.069912,82.3420954 294.016446,83.8315908 293.274329,85.0109986 L282.717614,106.815967 C282.055044,108.192159 281.972761,109.778794 282.489387,111.216766 C283.006013,112.654737 284.077869,113.822469 285.46236,114.455665 L307.314761,124.641927 C308.619911,125.110029 309.574462,126.246493 309.814663,127.618247 C310.054864,128.990002 309.543715,130.385748 308.476,131.273609 L291.690822,148.569034 C290.553996,149.642033 289.909173,151.139738 289.909173,152.707204 C289.909173,154.274669 290.553996,155.772374 291.690822,156.845373 L309.426104,173.451104 C310.562346,174.289025 311.152836,175.683575 310.965861,177.087525 C310.778887,178.491475 309.844279,179.680834 308.528783,180.188892 L287.415352,191.489277 C286.045873,192.19564 285.026412,193.437886 284.596951,194.923591 C284.167489,196.409296 284.365965,198.007212 285.145658,199.341188 L296.916396,220.562569 C297.643696,221.710441 297.718227,223.157765 297.112718,224.374974 C296.50721,225.592184 295.310522,226.400648 293.960516,226.504556 L270.155122,230.642725 C267.109532,231.15669 265.054175,234.053652 265.562951,237.115246 L270.260689,260.883193 C270.692295,262.229569 270.359271,263.705359 269.391987,264.732828 C268.424704,265.760297 266.977046,266.175986 265.615734,265.817164 L241.81034,262.36869 C240.283188,262.111367 238.718225,262.501676 237.487908,263.446726 C236.25759,264.391777 235.471948,265.807049 235.31796,267.355714 L232.467647,291.441982 C232.476918,292.844585 231.720645,294.139475 230.497654,294.815006 C229.274662,295.490537 227.781698,295.438034 226.60867,294.678242 L204.967403,284.067552 C203.600751,283.360255 202.006311,283.243417 200.552046,283.743999 C199.09778,284.244582 197.909343,285.319333 197.261001,286.720224 L187.179337,308.843514 C186.713617,310.155337 185.582934,311.114769 184.218157,311.356198 C182.85338,311.597626 181.464734,311.083864 180.58139,310.01069 L163.268376,293.086639 C162.203991,291.977886 160.736938,291.351616 159.204041,291.351616 C157.671144,291.351616 156.20409,291.977886 155.139705,293.086639 L138.776796,311.39008 C137.965315,312.539943 136.589689,313.147089 135.198269,312.969497 C133.806848,312.791905 132.625859,311.85845 132.126065,310.541224 L120.83038,289.001523 C120.11605,287.650866 118.889648,286.647118 117.429006,286.217671 C115.968365,285.788224 114.397108,285.969425 113.071194,286.720224 L91.9577624,298.657251 C90.7716204,299.451198 89.2494207,299.532836 87.9859557,298.870267 C86.7224907,298.207697 85.9183128,296.906091 85.8876509,295.474044 L81.8233154,271.653044 C81.6100648,270.11039 80.7640255,268.727914 79.4903582,267.840861 C78.2166909,266.953807 76.6317225,266.643193 75.119801,266.98434 L51.472758,271.706097 C50.1401513,272.114675 48.6919016,271.768384 47.6850972,270.80043 C46.6782929,269.832476 46.2697687,268.393641 46.6166688,267.037394 L49.9948178,243.00418 C50.2350452,241.485692 49.8462198,239.93456 48.9188289,238.711763 C47.991438,237.488965 46.6063654,236.701151 45.085945,236.531658 L21.1222006,233.719825 C19.716848,233.699303 18.4340951,232.911296 17.7749647,231.663587 C17.1158344,230.415878 17.1849001,228.90642 17.9551859,227.724785 L28.5119015,205.97287 C29.2104547,204.600431 29.3178351,202.999933 28.8089318,201.545653 C28.3000284,200.091373 27.2194674,198.910839 25.819939,198.280119 L3.91475414,188.093856 C2.57801847,187.648475 1.58949603,186.505596 1.33661021,185.113139 C1.08372439,183.720681 1.60676146,182.300472 2.70073185,181.409121 L19.5386933,164.113696 C20.658563,163.042202 21.2924279,161.556101 21.2924279,160.002053 C21.2924279,158.448005 20.658563,156.961905 19.5386933,155.890411 L1.59227671,139.443841 C0.453186296,138.614175 -0.145546609,137.226516 0.0302891431,135.823683 C0.206124896,134.420851 1.1285814,133.225817 2.43681396,132.706052 L23.5502452,121.45872 C24.9321852,120.751074 25.9637885,119.503364 26.403035,118.008311 C26.8422814,116.513257 26.6505141,114.902436 25.8727226,113.553756 L14.1547683,92.332375 C13.3593366,91.1849705 13.2312112,89.6988985 13.8184072,88.4310653 C14.4056032,87.1632321 15.619459,86.3050695 17.0050815,86.1781745 L40.7576916,82.1461121 C42.2752556,81.9260048 43.6385651,81.0951964 44.5344695,79.8445228 C45.4303739,78.5938492 45.7818679,77.030809 45.5082137,75.5144306 L40.7576916,51.6934305 C40.3315742,50.3313418 40.6856589,48.8440801 41.679059,47.8234125 C42.6724591,46.8027449 44.1440169,46.4142525 45.5082137,46.8125129 L69.4191745,50.2609873 C70.9357395,50.4864781 72.478347,50.0826148 73.6927535,49.1421406 C74.90716,48.2016663 75.689014,46.8053939 75.8587711,45.2739627 L78.6563007,21.1876954 C78.6802498,19.7637041 79.4695759,18.4644216 80.7189148,17.7924978 C81.9682536,17.120574 83.4816531,17.1813964 84.6736286,17.9514348 L106.209328,28.5621253 C107.592155,29.327577 109.228872,29.4823911 110.729499,28.98968 C112.230126,28.496969 113.460284,27.4008541 114.126865,25.9625061 L123.997394,3.6800561 C124.498774,2.39151672 125.645967,1.46968246 127.006877,1.26176648 C128.367787,1.0538505 129.735684,1.59143661 130.595342,2.67204051 L147.908355,19.5960918 C148.988922,20.7936557 150.522554,21.4766548 152.131041,21.4766548 C153.739529,21.4766548 155.27316,20.7936557 156.353728,19.5960918 L172.188801,1.61097146 C173.019581,0.467292881 174.398752,-0.138074225 175.798049,0.0267443321 C177.197346,0.19156289 178.399902,1.1010229 178.945099,2.40677325 L190.188001,23.8934214 C190.881967,25.2642551 192.104265,26.2895761 193.570265,26.7306223 C195.036266,27.1716686 196.618018,26.9899467 197.947187,26.2277733 L219.060618,14.3968535 C220.200802,13.5865336 221.687935,13.4596601 222.947688,14.0652313 C224.207441,14.6708025 225.042639,15.9140346 225.13073,17.3147934 L229.195065,41.1888469 C229.450213,42.7073027 230.30818,44.0564131 231.572166,44.9267207 C232.836153,45.7970282 234.397685,46.1138441 235.89858,45.8044973 L259.598406,41.08274 C260.954554,40.6100853 262.45936,40.9231194 263.517445,41.8979895 C264.57553,42.8728596 265.016402,44.3524836 264.66563,45.7514438 Z" fill="url(#linearGradient-3)"></path>
                        <path d="M281,155.499972 C281,85.6428453 224.374747,29.0097308 154.517615,29 C84.6604838,28.9902692 28.0194726,85.6076063 28,155.46473 C27.9805374,225.321854 84.5899838,281.970751 154.44711,282 C188.010456,282.028033 220.207974,268.711101 243.945811,244.983186 C267.683648,221.25527 281.014038,189.063324 281,155.499972 Z" fill="url(#linearGradient-4)"></path>
                    </g>
                </g>
                <g id="palmier2" mask="url(#mask-2)" fill-rule="nonzero">
                    <g transform="translate(163.000000, 104.000000)" id="Path">
                        <polygon fill="#CC8473" points="146.302636 73.6744961 136.564419 68.3153488 125.887829 71.4641085 99.4257364 276.133488 114.543953 271.796124 128.390155 279.282248"></polygon>
                        <polygon fill="#D4B79D" points="134.979612 79.7634884 120.007364 80.9103876 120.257597 93.4011628 133.936977 89.4808527 146.448605 96.2371318 149.388837 84.08"></polygon>
                        <polygon fill="#FEB5A3" points="149.659922 84.5804651 146.740543 96.7167442 134.208062 89.9604651 135.27155 80.2431008"></polygon>
                        <polygon fill="#DD8F7C" points="120.27845 81.39 120.549535 93.8807752 134.208062 89.9604651 135.27155 80.2431008"></polygon>
                        <polygon fill="#D4B79D" points="133.290543 93.7348062 118.088915 95.1736434 118.36 107.83124 132.206202 103.848372 144.884651 110.688062 147.845736 98.3849612"></polygon>
                        <polygon fill="#FEB5A3" points="148.137674 98.8854264 145.176589 111.188527 132.49814 104.327984 133.582481 94.2144186"></polygon>
                        <polygon fill="#DD8F7C" points="118.380853 95.6532558 118.651938 108.310853 132.49814 104.327984 133.582481 94.2144186"></polygon>
                        <polygon fill="#D4B79D" points="136.50186 65.687907 121.73814 66.5428682 121.988372 78.8876744 135.50093 75.0090698 147.866589 81.681938 150.744264 69.6916279"></polygon>
                        <polygon fill="#FEB5A3" points="151.036202 70.1712403 148.158527 82.1824031 135.792868 75.4886822 136.793798 66.1675194"></polygon>
                        <polygon fill="#DD8F7C" points="122.030078 67.0224806 122.28031 79.3672868 135.792868 75.4886822 136.793798 66.1675194"></polygon>
                        <polygon fill="#D4B79D" points="132.101938 107.872946 116.691783 109.603721 116.962868 122.407287 130.975891 118.36186 143.80031 125.305814 146.803101 112.856744"></polygon>
                        <polygon fill="#FEB5A3" points="147.095039 113.336357 144.092248 125.806279 131.267829 118.862326 132.393876 108.352558"></polygon>
                        <polygon fill="#DD8F7C" points="116.983721 110.083333 117.254806 122.886899 131.267829 118.862326 132.393876 108.352558"></polygon>
                        <polygon fill="#D4B79D" points="130.308605 122.949457 114.66907 124.930465 114.940155 137.900853 129.12 133.813721 142.11124 140.841085 145.155736 128.225194"></polygon>
                        <polygon fill="#FEB5A3" points="145.447674 128.725659 142.424031 141.320698 129.411938 134.293333 130.600543 123.42907"></polygon>
                        <polygon fill="#DD8F7C" points="114.961008 125.43093 115.232093 138.380465 129.411938 134.293333 130.600543 123.42907"></polygon>
                        <polygon fill="#D4B79D" points="128.723798 137.608915 112.875736 139.88186 113.146822 153.01907 127.493488 148.890233 140.65155 156.001008 143.716899 143.239147"></polygon>
                        <polygon fill="#FEB5A3" points="144.008837 143.71876 140.943488 156.48062 127.785426 149.369845 129.015736 138.10938"></polygon>
                        <polygon fill="#DD8F7C" points="113.167674 140.382326 113.43876 153.498682 127.785426 149.369845 129.015736 138.10938"></polygon>
                        <polygon fill="#D4B79D" points="127.138992 152.247519 111.082403 154.79155 111.353488 168.074729 125.866977 163.904186 139.171008 171.098372 142.278062 158.16969"></polygon>
                        <polygon fill="#FEB5A3" points="142.57 158.670155 139.462946 171.577984 126.158915 164.383798 127.43093 152.727132"></polygon>
                        <polygon fill="#DD8F7C" points="111.353488 155.292016 111.645426 168.575194 126.158915 164.383798 127.43093 152.727132"></polygon>
                        <polygon fill="#D4B79D" points="125.533333 167.115504 109.247364 169.951473 109.51845 183.38062 124.219612 179.147519 137.690465 186.425116 140.839225 173.371318"></polygon>
                        <polygon fill="#FEB5A3" points="141.11031 173.85093 137.982403 186.904729 124.51155 179.627132 125.825271 167.595116"></polygon>
                        <polygon fill="#DD8F7C" points="109.539302 170.431085 109.810388 183.860233 124.51155 179.627132 125.825271 167.595116"></polygon>
                        <polygon fill="#D4B79D" points="123.990233 181.337054 107.495736 184.464961 107.766822 198.06093 122.634806 193.786124 136.251628 201.147132 139.442093 187.926512"></polygon>
                        <polygon fill="#FEB5A3" points="139.734031 188.406124 136.543566 201.626744 122.926744 194.265736 124.282171 181.816667"></polygon>
                        <polygon fill="#DD8F7C" points="107.787674 184.944574 108.05876 198.540543 122.926744 194.265736 124.282171 181.816667"></polygon>
                        <polygon fill="#D4B79D" points="122.342868 196.496977 105.639845 199.895969 105.931783 213.637907 120.966589 209.321395 134.72938 216.765814 137.96155 203.399225"></polygon>
                        <polygon fill="#FEB5A3" points="138.232636 203.878837 135.021318 217.245426 121.258527 209.801008 122.634806 196.976589"></polygon>
                        <polygon fill="#DD8F7C" points="105.931783 200.375581 106.202868 214.138372 121.258527 209.801008 122.634806 196.976589"></polygon>
                        <polygon fill="#D4B79D" points="120.737209 211.448372 103.804806 215.139302 104.096744 229.048062 119.298372 224.668992 133.227984 232.196822 136.481008 218.684264"></polygon>
                        <polygon fill="#FEB5A3" points="136.772946 219.163876 133.519922 232.676434 119.59031 225.148605 121.029147 211.927984"></polygon>
                        <polygon fill="#DD8F7C" points="104.096744 215.618915 104.388682 229.527674 119.59031 225.148605 121.029147 211.927984"></polygon>
                        <polygon fill="#D4B79D" points="119.04814 227.10876 101.886357 231.070775 102.178295 245.125504 117.567597 240.704729 131.643178 248.315969 134.937907 234.636589"></polygon>
                        <polygon fill="#FEB5A3" points="135.229845 235.137054 131.935116 248.795581 117.859535 241.184341 119.340078 227.588372"></polygon>
                        <polygon fill="#DD8F7C" points="102.178295 231.550388 102.470233 245.625969 117.859535 241.184341 119.340078 227.588372"></polygon>
                        <polygon fill="#D4B79D" points="117.338217 242.748295 99.9887597 247.002248 100.280698 261.223798 115.836822 256.740465 130.079225 264.455969 133.394806 250.609767"></polygon>
                        <polygon fill="#FEB5A3" points="133.686744 251.110233 130.35031 264.935581 116.12876 257.220078 117.630155 243.227907"></polygon>
                        <polygon fill="#DD8F7C" points="100.280698 247.502713 100.572636 261.703411 116.12876 257.220078 117.630155 243.227907"></polygon>
                        <polygon fill="#D4B79D" points="115.690853 258.075039 98.1120155 262.600078 98.4039535 276.967597 114.126899 272.442558 128.515271 280.241473 131.893411 266.270155"></polygon>
                        <polygon fill="#916B4D" points="132.185349 266.749767 128.807209 280.721085 114.418837 272.922171 115.982791 258.554651"></polygon>
                        <polygon fill="#815E3C" points="98.4039535 263.100543 98.6958915 277.468062 114.418837 272.922171 115.982791 258.554651"></polygon>
                        <path d="M138.024109,72.882093 C138.357752,71.9020155 138.753953,59.2444186 144.467597,47.4209302 C155.290155,24.9834109 180.480233,-0.68627907 227.294574,18.5607752 L208.735659,25.6924031 C208.735659,25.6924031 196.787054,21.0839535 193.096124,21.8763566 C195.569038,23.9051111 197.592914,26.4260785 199.039147,29.2790698 L176.956124,43.0418605 L168.46907,32.094186 C168.427293,37.3092015 168.965825,42.5126785 170.074729,47.6086047 L138.024109,72.882093 Z" fill="#DD8F7C"></path>
                        <path d="M137.127442,72.7778295 C137.461085,71.8186047 137.87814,59.1610078 143.57093,47.3375194 C154.310078,24.9 179.604419,-0.769689922 226.460465,18.4773643 L207.90155,25.6089922 C207.90155,25.6089922 196.015504,20.9379845 192.262016,21.772093 C194.487977,23.982634 196.447562,26.4461116 198.100775,29.1122481 L176.059457,42.9375969 L167.593256,31.9899225 C167.538772,37.205535 168.077451,42.4104329 169.198915,47.5043411 L137.127442,72.7778295 Z" fill="url(#linearGradient-5)"></path>
                        <path d="M211.300543,44.6266667 C168.69845,35.8268217 137.940698,71.1930233 138.003161,73.0697674 C148.075116,73.9872868 166.175271,76.0725581 186.256434,79.3255814 C193.262946,73.6536434 203.293101,65.25 203.293101,65.25 L200.540543,81.7027907 C209.36124,83.2458915 218.307054,84.9975194 226.856667,86.8951163 C229.817752,79.7426357 233.696357,71.2972868 233.696357,71.2972868 L237.866899,89.5434109 C248.027118,91.9458577 257.961831,95.2178946 267.561163,99.3233333 C268.207597,97.8844961 257.55186,54.3023256 211.300543,44.6266667 Z" fill="url(#linearGradient-6)"></path>
                        <path d="M210.424729,44.313876 C167.822636,35.5348837 137.085736,70.9844961 137.148199,72.7569767 C147.199302,73.6744961 165.32031,75.7597674 185.401473,78.9085271 C192.407984,73.2157364 202.43814,64.8329457 202.43814,64.8329457 L199.685581,81.2857364 C208.506279,82.8288372 217.43124,84.5596124 226.001705,86.478062 C228.941938,79.3255814 232.820543,70.9844961 232.820543,70.9844961 L236.991085,89.2097674 C247.158822,91.6186186 257.100506,94.8976304 266.706202,99.0105426 C267.352636,97.5508527 256.696899,53.8852713 210.424729,44.313876 Z" fill="url(#linearGradient-7)"></path>
                        <path d="M58.6169767,13.1182171 C68.3071221,13.7613589 77.8847407,15.5676641 87.1434884,18.4982171 L102.637054,6.61217054 L95.9224806,22.1265891 C98.7998195,23.5524873 101.483648,25.3393707 103.90907,27.444031 C106.408873,29.6660674 108.789407,32.0187589 111.040698,34.4922481 L123.031008,23.4611628 L119.13155,44.5224031 C125.437619,53.3902837 130.673228,62.9725681 134.72938,73.0697674 C157.750775,-31.1937984 64.7685271,4.06813953 58.6169767,13.1182171 Z" fill="#B1DFB3"></path>
                        <path d="M59.034031,13.5144186 C68.7306602,14.1330463 78.3164537,15.9255687 87.5813953,18.8527132 L103.054109,6.94581395 L96.2978295,22.4810853 C99.1671966,23.9181174 101.843613,25.7117369 104.263566,27.8193798 C106.756815,30.0487032 109.13039,32.4083567 111.374341,34.8884496 L123.343798,23.8573643 L119.486047,44.9186047 C125.814902,53.7827591 131.071644,63.3652891 135.146434,73.465969 C158.167829,-30.7558915 65.1855814,4.44348837 59.034031,13.5144186 Z" fill="url(#linearGradient-8)"></path>
                        <path d="M75.4034109,27.9027907 C42.5186822,21.5010078 16.4944961,43.0418605 0,71.4849612 C8.12309551,68.6917108 16.5062805,66.7216623 25.0232558,65.6044961 L32.571938,53.9895349 L35.9083721,64.2073643 C42.9148837,63.4775194 50.9014729,62.9562016 59.8889922,62.8310853 L68.0632558,50.3194574 L70.4821705,62.997907 C91.8041229,64.1057669 112.977123,67.1913146 133.72845,72.2148062 C133.72845,72.2148062 123.427209,37.2448062 75.4034109,27.9027907 Z" fill="url(#linearGradient-9)"></path>
                        <path d="M76.3000775,28.1113178 C43.4153488,21.7095349 17.3703101,43.2503876 0.875813953,71.6726357 C9.00651693,68.9103921 17.3872904,66.9478943 25.8990698,65.8130233 L33.4686047,54.1772093 L36.784186,64.4158915 C43.7906977,63.7068992 51.7981395,63.1855814 60.7648062,63.0396124 L68.9599225,50.5279845 L71.3788372,63.2064341 C92.6938024,64.3154588 113.859774,67.4009995 134.604264,72.4233333 C134.604264,72.4233333 124.303023,37.4533333 76.3000775,28.1113178 Z" fill="url(#linearGradient-10)"></path>
                        <path d="M70.1276744,91.712093 L73.4849612,110.250155 C81.8260465,104.661628 90.3756589,99.0939535 98.2579845,93.964186 L101.740388,80.8686822 L103.512868,90.5860465 C121.091705,79.2213178 134.479147,70.8385271 134.479147,70.8385271 C47.7735659,40.0807752 25.2734884,127.411938 27.5464341,143.072326 C35.4496124,136.503721 48.7327907,127.015736 63.3713953,117.068992 L70.1276744,91.712093 Z" fill="url(#linearGradient-11)"></path>
                        <path d="M70.3987597,92.4210853 L73.7768992,110.959147 C82.1179845,105.37062 90.6467442,99.8029457 98.5290698,94.694031 L102.032326,81.5776744 L103.783953,91.274186 C121.383643,79.9303101 134.750233,71.5683721 134.750233,71.5683721 C48.0655039,40.7897674 25.5445736,128.12093 27.8175194,143.760465 C35.6581395,137.212713 49.003876,127.724729 63.6424806,117.777984 L70.3987597,92.4210853 Z" fill="url(#linearGradient-12)"></path>
                        <path d="M206.608682,121.677442 L195.68186,134.918915 C195.336717,134.906416 194.997073,134.828581 194.68093,134.689535 C188.852755,126.893145 182.039867,119.884001 174.412093,113.836822 L179.583566,97.8844961 L165.925039,104.807597 L164.944961,104.578217 C152.057984,88.584186 138.086667,71.213876 138.086667,71.213876 C226.64814,69.2954264 228.066124,151.642791 219.641628,168.512636 C219.310135,168.458375 218.982694,168.38174 218.66155,168.283256 C213.698605,160.275814 213.427519,158.023721 203.063721,144.511163 L206.608682,121.677442 Z" fill="url(#linearGradient-13)"></path>
                        <path d="M205.837132,121.468915 L194.91031,134.710388 C188.762159,126.798688 181.61243,119.719054 173.640543,113.649147 L178.812016,97.6968217 L165.174341,104.619922 C152.224806,88.5007752 137.335969,70.9844961 137.335969,70.9844961 C228.232946,68.8992248 225.876589,154.291085 218.89093,168.262403 C213.91754,159.875897 208.342178,151.861314 202.20876,144.281783 L205.837132,121.468915 Z" fill="url(#linearGradient-14)"></path>
                    </g>
                </g>
                <g id="palmier1" filter="url(#filter-15)" mask="url(#mask-2)" fill-rule="nonzero">
                    <g transform="translate(959.000000, 0.000000)" id="Path">
                        <path d="M188.169756,115.399512 C181.824634,114.602683 175.509024,113.864878 169.311463,113.21561 C166.616016,118.822927 163.713984,124.381057 160.605366,129.89 C208.511246,228.824206 225.864306,339.785157 210.451463,448.621707 C220.97748,444.824472 231.355935,440.771463 241.586829,436.462683 C251.18813,442.089675 260.809106,447.992114 270.449756,454.17 C275.61126,335.737749 247.080872,218.269915 188.169756,115.399512 Z" fill="#CC8473"></path>
                        <path d="M207.765854,415.597561 C208.326585,426.841707 208.562683,438.17439 208.503659,449.536585 C219.482195,445.601626 230.303333,441.420732 240.967073,436.993902 C241.793415,424.952927 242.22626,412.921789 242.26561,400.900488 C230.952602,406.094634 219.452683,410.993659 207.765854,415.597561 Z" fill="#FEB5A3"></path>
                        <path d="M276.116098,418.13561 C274.778211,430.589756 273.056667,442.984878 270.951463,455.320976 C260.887805,448.946341 250.912683,442.837317 240.937561,436.993902 C241.763902,424.952927 242.196748,412.921789 242.236098,400.900488 C253.450732,406.370081 264.744065,412.115122 276.116098,418.13561 Z" fill="#DD8F7C"></path>
                        <path d="M209.536585,379.622195 C210.776098,390.561382 211.759837,401.589106 212.487805,412.705366 C222.669512,408.249024 232.644634,403.497561 242.472195,398.539512 C242.472195,386.734634 242.147561,374.929756 241.439268,363.301951 C230.932927,368.987967 220.298699,374.428049 209.536585,379.622195 Z" fill="#FEB5A3"></path>
                        <path d="M274.463415,378.146585 C274.020732,390.335122 273.135366,402.494146 271.895854,414.623659 C262.058455,409.055691 252.221057,403.694309 242.383659,398.539512 C242.383659,386.734634 242.059024,374.929756 241.350732,363.301951 C252.230894,368.004228 263.268455,372.952439 274.463415,378.146585 Z" fill="#DD8F7C"></path>
                        <path d="M208.79878,343.676341 C210.648211,354.300732 212.232033,365.013659 213.550244,375.815122 C222.876098,370.837398 232.034715,365.643252 241.026098,360.232683 C240.29813,348.781951 239.225854,337.350894 237.809268,325.939512 C228.365366,332.078049 218.695203,337.990325 208.79878,343.676341 Z" fill="#FEB5A3"></path>
                        <path d="M270.184146,338.511707 C270.518618,350.316585 270.518618,362.200163 270.184146,374.162439 C260.445122,369.302764 250.774959,364.659512 241.173659,360.232683 C240.445691,348.781951 239.373415,337.350894 237.956829,325.939512 C248.522195,329.894146 259.264634,334.084878 270.184146,338.511707 Z" fill="#DD8F7C"></path>
                        <path d="M205.759024,307.878049 C208.277398,318.128618 210.520325,328.487398 212.487805,338.95439 C220.987317,333.543821 229.309756,327.956179 237.455122,322.191463 C236.018862,311.035854 234.257967,299.949106 232.172439,288.93122 C223.554878,295.423902 214.750407,301.739512 205.759024,307.878049 Z" fill="#FEB5A3"></path>
                        <path d="M263.484878,299.378537 C264.586667,310.947317 265.314634,322.516098 265.66878,334.084878 C256.165854,329.933496 246.721951,325.998537 237.337073,322.28 C235.900813,311.12439 234.139919,300.037642 232.05439,289.019756 C242.442683,292.207073 252.919512,295.66 263.484878,299.378537 Z" fill="#DD8F7C"></path>
                        <path d="M200.417317,272.256829 C203.427561,282.094228 206.201707,292.089024 208.739756,302.24122 C216.412927,296.476504 223.899187,290.574065 231.198537,284.533902 C229.093333,273.771789 226.683171,263.058862 223.968049,252.395122 C216.314553,259.202602 208.464309,265.823171 200.417317,272.256829 Z" fill="#FEB5A3"></path>
                        <path d="M254.36561,260.806098 C256.156016,272.020732 257.621789,283.235366 258.762927,294.45 C249.555122,290.967561 240.366992,287.652358 231.198537,284.50439 C229.093333,273.742276 226.683171,263.02935 223.968049,252.36561 C234.02187,254.962683 244.15439,257.776179 254.36561,260.806098 Z" fill="#DD8F7C"></path>
                        <path d="M192.744146,237.04878 C196.28561,246.551707 199.600813,256.162846 202.689756,265.882195 C209.536585,259.822358 216.196504,253.634634 222.669512,247.319024 C219.915041,236.911057 216.885122,226.601463 213.579756,216.390244 C206.94935,223.414146 200.004146,230.300325 192.744146,237.04878 Z" fill="#FEB5A3"></path>
                        <path d="M242.855854,222.941951 C245.334878,233.743415 247.499106,244.564553 249.348537,255.405366 C240.33748,252.493496 231.483821,249.768537 222.787561,247.230488 C219.95439,236.881545 216.885122,226.601463 213.579756,216.390244 C223.200732,218.367561 233.146341,220.551463 242.855854,222.941951 Z" fill="#DD8F7C"></path>
                        <path d="M182.739512,202.253902 C186.772846,211.343659 190.599593,220.541626 194.219756,229.847805 C200.240244,223.59122 206.063984,217.196911 211.690976,210.664878 C208.287236,200.709431 204.686748,190.813008 200.889512,180.97561 C195.065772,188.215935 189.015772,195.308699 182.739512,202.253902 Z" fill="#FEB5A3"></path>
                        <path d="M228.985122,185.904146 C232.113415,196.262927 234.887561,206.562683 237.455122,217.157561 C228.778537,214.85561 220.190488,212.671707 211.690976,210.664878 C208.287236,200.709431 204.686748,190.813008 200.889512,180.97561 C210.136667,182.470894 219.50187,184.11374 228.985122,185.904146 Z" fill="#DD8F7C"></path>
                        <path d="M170.462439,168.07878 C174.869593,176.676667 179.168537,185.441789 183.359268,194.374146 C188.553415,187.97 193.540976,181.418293 198.380976,174.778049 C194.446016,165.255447 190.294634,155.821382 185.926829,146.475854 C181.00813,153.735854 175.853333,160.936829 170.462439,168.07878 Z" fill="#FEB5A3"></path>
                        <path d="M212.782927,149.78122 C216.540813,159.618618 219.983902,169.603577 223.112195,179.736098 C214.750407,177.945691 206.506667,176.293008 198.380976,174.778049 C194.446016,165.255447 190.294634,155.821382 185.926829,146.475854 C194.741138,147.420244 203.693171,148.522033 212.782927,149.78122 Z" fill="#DD8F7C"></path>
                        <path d="M155.883415,134.641463 C160.821789,142.845854 165.553577,151.158455 170.07878,159.579268 C174.46626,153.066911 178.666829,146.426667 182.680488,139.658537 C178.273333,130.60813 173.620244,121.64626 168.72122,112.772927 C164.678049,120.180488 160.39878,127.47 155.883415,134.641463 Z" fill="#FEB5A3"></path>
                        <path d="M194.27878,114.69122 C198.587561,124.135122 202.611057,133.647886 206.349268,143.229512 C198.380976,141.960488 190.471707,140.78 182.739512,139.717561 C178.332358,130.667154 173.679268,121.705285 168.780244,112.831951 C177.073171,113.333659 185.631707,113.953415 194.27878,114.69122 Z" fill="#DD8F7C"></path>
                        <path d="M208.326585,415.98122 C208.887317,427.225366 209.152927,438.528537 209.06439,449.920244 C220.062602,445.985285 230.88374,441.794553 241.527805,437.348049 C242.334472,425.346423 242.75748,413.325122 242.796829,401.284146 C231.523171,406.44878 220.013415,411.377317 208.326585,415.98122 Z" fill="#FEB5A3"></path>
                        <path d="M276.676829,418.489756 C275.378293,430.983252 273.656748,443.388211 271.512195,455.704634 C261.478049,449.33 251.483252,443.211138 241.527805,437.348049 C242.334472,425.346423 242.75748,413.325122 242.796829,401.284146 C254.070488,406.71439 265.363821,412.449593 276.676829,418.489756 Z" fill="#DD8F7C"></path>
                        <path d="M210.038293,380.005854 C211.238455,390.945041 212.222195,401.972764 212.989512,413.089024 C223.141707,408.603171 233.136504,403.88122 242.973902,398.923171 C242.973902,387.118293 242.629593,375.372439 241.940976,363.68561 C231.473984,369.391301 220.839756,374.831382 210.038293,380.005854 Z" fill="#FEB5A3"></path>
                        <path d="M274.965122,378.530244 C274.492927,390.708943 273.627236,402.867967 272.368049,415.007317 C262.53065,409.4 252.693252,404.038618 242.855854,398.923171 C242.855854,387.118293 242.511545,375.372439 241.822927,363.68561 C252.781789,368.387886 263.829187,373.336098 274.965122,378.530244 Z" fill="#DD8F7C"></path>
                        <path d="M209.359512,344.06 C211.208943,354.68439 212.792764,365.397317 214.110976,376.19878 C223.476179,371.201382 232.634797,366.007236 241.586829,360.616341 C240.878537,349.16561 239.786585,337.714878 238.399512,326.323171 C228.95561,332.461707 219.246098,338.364146 209.359512,344.06 Z" fill="#FEB5A3"></path>
                        <path d="M270.744878,338.895366 C271.07935,350.700244 271.07935,362.583821 270.744878,374.546098 C261.045203,369.666748 251.375041,365.023496 241.73439,360.616341 C241.026098,349.16561 239.934146,337.714878 238.547073,326.323171 C249.132114,330.277805 259.864715,334.468537 270.744878,338.895366 Z" fill="#DD8F7C"></path>
                        <path d="M206.349268,308.202683 C208.788943,318.512276 210.982683,328.890732 212.930488,339.338049 C221.46935,333.92748 229.801626,328.339837 237.927317,322.575122 C236.471382,311.419512 234.710488,300.332764 232.644634,289.314878 C224.125447,295.787886 215.360325,302.083821 206.349268,308.202683 Z" fill="#FEB5A3"></path>
                        <path d="M264.04561,299.762195 C265.167073,311.301463 265.875366,322.899756 266.259024,334.439024 C256.736423,330.287642 247.29252,326.352683 237.927317,322.634146 C236.471382,311.478537 234.710488,300.391789 232.644634,289.373902 C243.013252,292.580894 253.480244,296.043659 264.04561,299.762195 Z" fill="#DD8F7C"></path>
                        <path d="M201.007561,272.610976 C204.017805,282.448374 206.782114,292.453008 209.300488,302.624878 C217.003171,296.722439 224.469756,290.82 231.78878,284.917561 C229.663902,274.135772 227.25374,263.432683 224.558293,252.808293 C216.924472,259.556748 209.074228,266.157642 201.007561,272.610976 Z" fill="#FEB5A3"></path>
                        <path d="M254.955854,261.189756 C256.765935,272.365041 258.231707,283.579675 259.353171,294.833659 C250.086341,291.331545 240.898211,288.006504 231.78878,284.858537 C229.663902,274.076748 227.25374,263.373659 224.558293,252.749268 C234.572764,255.346341 244.705285,258.159837 254.955854,261.189756 Z" fill="#DD8F7C"></path>
                        <path d="M193.304878,237.402927 C196.866016,246.905854 200.18122,256.507154 203.250488,266.206829 C210.097317,260.186341 216.757236,254.008455 223.230244,247.673171 C220.475772,237.284878 217.445854,226.975285 214.140488,216.74439 C207.451057,223.768293 200.505854,230.654472 193.304878,237.402927 Z" fill="#FEB5A3"></path>
                        <path d="M243.446098,223.32561 C245.925122,234.127073 248.08935,244.948211 249.93878,255.789024 C240.947398,252.896829 232.09374,250.181707 223.377805,247.643659 C220.623333,237.255366 217.593415,226.945772 214.288049,216.714878 C223.85,218.741382 233.56935,220.944959 243.446098,223.32561 Z" fill="#DD8F7C"></path>
                        <path d="M183.329756,202.637561 C187.382764,211.806016 191.199675,221.003984 194.780488,230.231463 C200.800976,223.974878 206.634553,217.580569 212.28122,211.048537 C208.936504,201.073415 205.326179,191.236016 201.450244,181.536341 C195.646179,188.658618 189.606016,195.692358 183.329756,202.637561 Z" fill="#FEB5A3"></path>
                        <path d="M229.545854,186.287805 C232.674146,196.656423 235.49748,207.074228 238.015854,217.54122 C229.339268,215.239268 220.75122,213.055366 212.28122,211.048537 C208.936504,201.073415 205.326179,191.236016 201.450244,181.536341 C210.687561,182.86439 220.072439,184.487561 229.545854,186.287805 Z" fill="#DD8F7C"></path>
                        <path d="M171.170732,168.462439 C175.656585,177.109512 180.02439,185.904146 184.038049,194.757805 C189.232195,188.324146 194.200081,181.762602 198.941707,175.073171 C195.006748,165.530894 190.855366,156.096829 186.487561,146.770976 C181.568862,154.149024 176.463252,161.379512 171.170732,168.462439 Z" fill="#FEB5A3"></path>
                        <path d="M213.343659,150.164878 C217.08187,160.002276 220.524959,169.987236 223.672927,180.119756 C215.439024,178.319512 207.087073,176.666829 198.941707,175.073171 C195.006748,165.530894 190.855366,156.096829 186.487561,146.770976 C195.311707,147.803902 204.283415,148.895854 213.343659,150.164878 Z" fill="#DD8F7C"></path>
                        <path d="M156.414634,135.025122 C161.313659,143.209837 166.045447,151.522439 170.61,159.962927 C174.977805,153.440732 179.198049,146.800488 183.211707,140.10122 C178.784878,131.050813 174.131789,122.088943 169.252439,113.21561 C165.268293,120.564146 160.959512,127.853659 156.414634,135.025122 Z" fill="#FEB5A3"></path>
                        <path d="M194.780488,115.074878 C199.108943,124.51878 203.142276,134.031545 206.880488,143.613171 C198.882683,142.314634 191.002927,141.163659 183.270732,140.10122 C178.843902,131.050813 174.190813,122.088943 169.311463,113.21561 C177.692927,113.687805 186.221951,114.307561 194.780488,115.074878 Z" fill="#DD8F7C"></path>
                        <path d="M180.02439,118.173659 C180.02439,116.727561 173.885854,100.053171 175.125366,81.7260976 C177.486341,46.9312195 196.816829,0.42 267.764146,0.951219512 L247.37122,19.8980488 C247.37122,19.8980488 229.398293,20.1636585 225.030488,23.0853659 C229.267299,24.4475265 233.183116,26.6564492 236.540244,29.5780488 L215.055366,59.0902439 L198.351463,49.2921951 C200.998885,56.0964858 204.404424,62.5808711 208.503659,68.6226829 L180.02439,118.173659 Z" fill="#DD8F7C"></path>
                        <path d="M178.873415,118.498293 C178.873415,117.081707 172.705366,100.407317 173.944878,82.0802439 C176.276341,47.2558537 195.606829,0.744634146 266.554146,1.30536585 L246.16122,20.2521951 C246.16122,20.2521951 228.217805,20.5178049 223.85,23.4395122 C227.918755,25.13257 231.772406,27.3021059 235.330244,29.9026829 L213.874878,59.414878 L197.141463,49.6168293 C199.801221,56.3838784 203.216771,62.8288728 207.323171,68.8292683 L178.873415,118.498293 Z" fill="url(#linearGradient-16)"></path>
                        <path d="M260.504146,43.2126829 C200.682927,54.0731707 179.08,116.04878 180.02439,118.409756 C193.718049,114.366585 218.390244,107.608293 246.043171,101.292683 C252.181707,90.2256098 260.799268,74.082439 260.799268,74.082439 L265.816341,96.8953659 C278.093415,94.2982927 290.606585,91.8782927 302.736098,89.9009756 C302.736098,79.07 303.44439,66.0846341 303.44439,66.0846341 L318.466098,87.54 C332.930772,85.3823803 347.552267,84.4543449 362.173819,84.7658537 C362.262195,82.6409756 325.608049,31.4668293 260.504146,43.2126829 Z" fill="#DD8F7C"></path>
                        <path d="M259.235122,43.2421951 C199.295854,54.0731707 177.810976,116.04878 178.843902,118.46878 C192.419512,114.396098 217.032683,107.667317 244.774146,101.263171 C250.912683,90.1960976 259.530244,74.0529268 259.530244,74.0529268 L264.517805,96.8658537 C276.82439,94.2687805 289.308049,91.8487805 301.437561,89.8714634 C301.437561,79.0404878 302.175366,66.055122 302.175366,66.055122 L317.197073,87.54 C331.659414,85.3585459 346.282106,84.4205609 360.904794,84.7363415 C360.993171,82.6704878 324.339024,31.4963415 259.235122,43.2421951 Z" fill="url(#linearGradient-17)"></path>
                        <path d="M45.684878,81.9917073 C58.6179869,77.7580413 72.0152164,75.1023774 85.5853659,74.082439 L99.4856098,50.4726829 L98.8363415,74.082439 C103.319755,74.4359147 107.741462,75.3480157 111.99878,76.797561 C116.400924,78.3880067 120.715747,80.2104777 124.925122,82.2573171 L134.693659,61.5987805 L140.596098,91.1109756 C153.497301,99.3139273 165.384518,109.011915 176.010732,120.003415 C151.368049,-27.2919512 48.9312195,66.9995122 45.684878,81.9917073 Z" fill="#DD8F7C"></path>
                        <path d="M46.4521951,82.2573171 C59.3758003,78.0259768 72.7629816,75.3703406 86.3231707,74.3480488 L100.223415,50.7382927 L99.5741463,74.3480488 C104.047119,74.7254195 108.457343,75.6471068 112.707073,77.0926829 C117.128734,78.6577006 121.454783,80.4807506 125.662927,82.552439 L135.431463,61.8939024 L141.333902,91.4060976 C154.235106,99.6090493 166.122323,109.307037 176.748537,120.298537 C152.135366,-27.0263415 49.6985366,67.2946341 46.4521951,82.2573171 Z" fill="url(#linearGradient-18)"></path>
                        <path d="M75.2265854,92.4390244 C29.1580488,101.292683 6.58121951,142.875366 0,188.412683 C9.13096473,180.568704 19.0166503,173.648725 29.5121951,167.754146 C31.312439,158.546341 33.2602439,148.689268 33.2602439,148.689268 L42.9402439,160.317073 C51.6463415,155.713171 61.7690244,150.843659 73.3673171,146.003659 C75.2560976,136.382683 77.44,125.345122 77.44,125.345122 L87.1790244,140.543902 C115.445841,130.82577 144.550713,123.742201 174.121951,119.383659 C174.121951,119.383659 142.484878,79.4831707 75.2265854,92.4390244 Z" fill="#DD8F7C"></path>
                        <path d="M76.4956098,92.232439 C30.397561,101.086098 7.8502439,142.609756 1.26902439,188.206098 C10.4052991,180.36896 20.2902851,173.44947 30.7812195,167.547561 C32.4634146,158.310244 34.5292683,148.512195 34.5292683,148.512195 L44.2682927,159.992439 C52.9743902,155.388537 63.0970732,150.548537 74.6953659,145.679024 C76.5841463,136.058049 78.7680488,125.020488 78.7680488,125.020488 L88.5365854,140.24878 C116.815904,130.565734 145.930962,123.52161 175.509024,119.206585 C175.509024,119.206585 143.753902,79.3060976 76.4956098,92.232439 Z" fill="url(#linearGradient-19)"></path>
                        <path d="M101.699024,178.02439 L115.746829,200.365122 C123.715122,188.560244 131.860488,177.020976 139.356585,166.278537 L137.054634,147.420244 L144.403171,159.225122 C161.313659,135.290732 174.328537,117.435854 174.328537,117.435854 C45.684878,122.659512 61.9756098,247.909268 73.1607317,267.062683 C79.9485366,254.431463 92.3141463,235.130488 106.155366,214.560488 L101.699024,178.02439 Z" fill="#DD8F7C"></path>
                        <path d="M102.436829,178.850732 L116.484634,201.191463 C124.452927,189.534146 132.56878,177.876829 140.09439,167.104878 L137.792439,148.276098 L145.140976,160.080976 C162.080976,136.117073 175.066341,118.262195 175.066341,118.262195 C46.4226829,123.456341 62.772439,248.676585 73.7804878,267.83 C80.5682927,255.19878 92.9339024,235.897805 106.775122,215.327805 L102.436829,178.850732 Z" fill="url(#linearGradient-20)"></path>
                        <path d="M294.649756,145.738049 L287.360244,168.669024 C286.913309,168.81757 286.443995,168.887468 285.973171,168.87561 C274.325731,161.785775 261.806024,156.2402 248.72878,152.378293 L247.135122,128.94561 L233.146341,145.08878 L231.759268,145.324878 C206.673902,131.277073 179.404634,115.812683 179.404634,115.812683 C293.439756,67.0880488 338.327805,173.331951 336.173415,199.656829 C335.708528,199.768854 335.234347,199.838006 334.756829,199.863415 C324.161951,192.042683 322.627317,189.268537 302.086829,177.139024 L294.649756,145.738049 Z" fill="#DD8F7C"></path>
                        <path d="M293.557805,145.88561 L286.268293,168.816585 C274.161803,161.714638 261.173063,156.237339 247.636829,152.525854 L246.043171,129.093171 L231.936341,145.236341 C206.585366,131.070488 178.165122,116.04878 178.165122,116.04878 C295.24,65.8780488 336.704634,178.02439 334.933902,199.863415 C324.131253,191.542975 312.739151,184.017284 300.847317,177.34561 L293.557805,145.88561 Z" fill="url(#linearGradient-21)"></path>
                    </g>
                </g>
                <path d="M0,415.848449 C240,354.61615 480,324 720,324 C960,324 1200,354.61615 1440,415.848449 L1440,961 C1200.5,961 960.666667,961 720.5,961 C480.333333,961 240.166667,961 0,961 L0,415.848449 Z" id="Rectangle" fill="url(#linearGradient-22)" mask="url(#mask-2)"></path>
            </g>
        </g>
    </g>
</svg>