<?xml version="1.0" encoding="UTF-8"?>
<svg width="320px" height="185px" viewBox="0 0 320 185" version="1.1" xmlns="http://www.w3.org/2000/svg" xmlns:xlink="http://www.w3.org/1999/xlink">
    <title>palmier2 + palmier1 + sun + Rectangle Mask</title>
    <defs>
        <rect id="path-1" x="0" y="0" width="320" height="185"></rect>
        <filter x="-51.0%" y="-48.5%" width="202.0%" height="197.1%" filterUnits="objectBoundingBox" id="filter-3">
            <feOffset dx="-10" dy="7" in="SourceAlpha" result="shadowOffsetOuter1"></feOffset>
            <feGaussianBlur stdDeviation="8" in="shadowOffsetOuter1" result="shadowBlurOuter1"></feGaussianBlur>
            <feColorMatrix values="0 0 0 0 0   0 0 0 0 0   0 0 0 0 0  0 0 0 0.02 0" type="matrix" in="shadowBlurOuter1" result="shadowMatrixOuter1"></feColorMatrix>
            <feMerge>
                <feMergeNode in="shadowMatrixOuter1"></feMergeNode>
                <feMergeNode in="SourceGraphic"></feMergeNode>
            </feMerge>
        </filter>
        <linearGradient x1="32.3442143%" y1="33.6362158%" x2="100.582973%" y2="69.6054492%" id="linearGradient-4">
            <stop stop-color="#DD8F7C" offset="0%"></stop>
            <stop stop-color="#DFA89B" offset="36%"></stop>
            <stop stop-color="#DEA89B" offset="68%"></stop>
            <stop stop-color="#DFD2CE" offset="100%"></stop>
        </linearGradient>
        <linearGradient x1="80.7072685%" y1="56.0579033%" x2="100.582973%" y2="57.8634419%" id="linearGradient-5">
            <stop stop-color="#DD8F7C" offset="0%"></stop>
            <stop stop-color="#DFA89B" offset="36%"></stop>
            <stop stop-color="#DEA89B" offset="68%"></stop>
            <stop stop-color="#DFD2CE" offset="100%"></stop>
        </linearGradient>
        <linearGradient x1="11.8022235%" y1="48.3185344%" x2="100.582973%" y2="57.8609672%" id="linearGradient-6">
            <stop stop-color="#DD8F7C" offset="0%"></stop>
            <stop stop-color="#DFA89B" offset="36%"></stop>
            <stop stop-color="#DEA89B" offset="68%"></stop>
            <stop stop-color="#DFD2CE" offset="100%"></stop>
        </linearGradient>
        <linearGradient x1="0%" y1="-1.87998365%" x2="100.582973%" y2="85.1357768%" id="linearGradient-7">
            <stop stop-color="#DFD2CE" offset="0%"></stop>
            <stop stop-color="#DEA89B" offset="32%"></stop>
            <stop stop-color="#DFA89B" offset="64%"></stop>
            <stop stop-color="#DD8F7C" offset="100%"></stop>
        </linearGradient>
        <linearGradient x1="2.08263044%" y1="49.0584236%" x2="101.005404%" y2="52.716064%" id="linearGradient-8">
            <stop stop-color="#96CAAA" offset="7%"></stop>
            <stop stop-color="#62A97F" offset="54%"></stop>
            <stop stop-color="#3D9160" offset="92%"></stop>
        </linearGradient>
        <linearGradient x1="-19.242418%" y1="51.5438566%" x2="100.582973%" y2="54.8453852%" id="linearGradient-9">
            <stop stop-color="#DFD2CE" offset="0%"></stop>
            <stop stop-color="#DEA89B" offset="32%"></stop>
            <stop stop-color="#DFA89B" offset="64%"></stop>
            <stop stop-color="#DD8F7C" offset="100%"></stop>
        </linearGradient>
        <linearGradient x1="55.6475398%" y1="40.1083717%" x2="71.1688922%" y2="62.4052597%" id="linearGradient-10">
            <stop stop-color="#DD8F7C" offset="0%"></stop>
            <stop stop-color="#DFA89B" offset="36%"></stop>
            <stop stop-color="#DEA89B" offset="68%"></stop>
            <stop stop-color="#DFD2CE" offset="100%"></stop>
        </linearGradient>
        <linearGradient x1="25.2904018%" y1="46.537666%" x2="100.582973%" y2="72.667619%" id="linearGradient-11">
            <stop stop-color="#DD8F7C" offset="0%"></stop>
            <stop stop-color="#DFA89B" offset="36%"></stop>
            <stop stop-color="#DEA89B" offset="68%"></stop>
            <stop stop-color="#DFD2CE" offset="100%"></stop>
        </linearGradient>
        <linearGradient x1="60.7089358%" y1="43.410603%" x2="75.3216423%" y2="35.2155532%" id="linearGradient-12">
            <stop stop-color="#DD8F7C" offset="0%"></stop>
            <stop stop-color="#DFA89B" offset="36%"></stop>
            <stop stop-color="#DEA89B" offset="68%"></stop>
            <stop stop-color="#DFD2CE" offset="100%"></stop>
        </linearGradient>
        <linearGradient x1="108.164918%" y1="63.1240605%" x2="18.328261%" y2="20.3387993%" id="linearGradient-13">
            <stop stop-color="#DFD2CE" offset="0%"></stop>
            <stop stop-color="#DEA89B" offset="32%"></stop>
            <stop stop-color="#DFA89B" offset="64%"></stop>
            <stop stop-color="#DD8F7C" offset="100%"></stop>
        </linearGradient>
        <filter x="-31.2%" y="-24.9%" width="162.4%" height="149.8%" filterUnits="objectBoundingBox" id="filter-14">
            <feOffset dx="10" dy="17" in="SourceAlpha" result="shadowOffsetOuter1"></feOffset>
            <feGaussianBlur stdDeviation="5.5" in="shadowOffsetOuter1" result="shadowBlurOuter1"></feGaussianBlur>
            <feColorMatrix values="0 0 0 0 0   0 0 0 0 0   0 0 0 0 0  0 0 0 0.03 0" type="matrix" in="shadowBlurOuter1" result="shadowMatrixOuter1"></feColorMatrix>
            <feMerge>
                <feMergeNode in="shadowMatrixOuter1"></feMergeNode>
                <feMergeNode in="SourceGraphic"></feMergeNode>
            </feMerge>
        </filter>
        <linearGradient x1="25.9929666%" y1="41.068617%" x2="81.7910423%" y2="91.7548282%" id="linearGradient-15">
            <stop stop-color="#DD8F7C" offset="0%"></stop>
            <stop stop-color="#DFA89B" offset="36%"></stop>
            <stop stop-color="#DEA89B" offset="68%"></stop>
            <stop stop-color="#DFD2CE" offset="100%"></stop>
        </linearGradient>
        <linearGradient x1="26.5802507%" y1="43.783934%" x2="103.289563%" y2="43.783934%" id="linearGradient-16">
            <stop stop-color="#DD8F7C" offset="0%"></stop>
            <stop stop-color="#DFA89B" offset="36%"></stop>
            <stop stop-color="#DEA89B" offset="68%"></stop>
            <stop stop-color="#DFD2CE" offset="100%"></stop>
        </linearGradient>
        <linearGradient x1="-9.20228051%" y1="27.0505233%" x2="100%" y2="63.2984913%" id="linearGradient-17">
            <stop stop-color="#DFD2CE" offset="0%"></stop>
            <stop stop-color="#DEA89B" offset="32%"></stop>
            <stop stop-color="#DFA89B" offset="64%"></stop>
            <stop stop-color="#DD8F7C" offset="100%"></stop>
        </linearGradient>
        <linearGradient x1="-39.6710622%" y1="52.7945302%" x2="96.2234048%" y2="43.0810133%" id="linearGradient-18">
            <stop stop-color="#DFD2CE" offset="0%"></stop>
            <stop stop-color="#DEA89B" offset="32%"></stop>
            <stop stop-color="#DFA89B" offset="64%"></stop>
            <stop stop-color="#DD8F7C" offset="100%"></stop>
        </linearGradient>
        <linearGradient x1="66.3188688%" y1="5.98385873%" x2="-8.72450845%" y2="129.747357%" id="linearGradient-19">
            <stop stop-color="#DD8F7C" offset="0%"></stop>
            <stop stop-color="#DFA89B" offset="36%"></stop>
            <stop stop-color="#DEA89B" offset="68%"></stop>
            <stop stop-color="#DFD2CE" offset="100%"></stop>
        </linearGradient>
        <linearGradient x1="-11.7455092%" y1="33.9325742%" x2="119.637608%" y2="68.9165837%" id="linearGradient-20">
            <stop stop-color="#DD8F7C" offset="0%"></stop>
            <stop stop-color="#DFA89B" offset="36%"></stop>
            <stop stop-color="#DEA89B" offset="68%"></stop>
            <stop stop-color="#DFD2CE" offset="100%"></stop>
        </linearGradient>
        <linearGradient x1="51.5637242%" y1="44.4851422%" x2="48.5182956%" y2="-35.7487781%" id="linearGradient-21">
            <stop stop-color="#DD8F7C" offset="0%"></stop>
            <stop stop-color="#DFA89B" offset="36%"></stop>
            <stop stop-color="#DEA89B" offset="68%"></stop>
            <stop stop-color="#DFD2CE" offset="100%"></stop>
        </linearGradient>
        <linearGradient x1="50%" y1="68.8310616%" x2="50%" y2="0%" id="linearGradient-22">
            <stop stop-color="#DD8F7C" offset="0%"></stop>
            <stop stop-color="#F7AC9A" offset="61.2304688%"></stop>
            <stop stop-color="#FEB5A3" offset="100%"></stop>
            <stop stop-color="#FED39D" offset="100%"></stop>
        </linearGradient>
        <rect id="path-23" x="0" y="0" width="320" height="361"></rect>
        <linearGradient x1="50%" y1="0%" x2="50%" y2="22.3980996%" id="linearGradient-25">
            <stop stop-color="#FEB5A3" offset="0%"></stop>
            <stop stop-color="#DD8F7C" offset="100%"></stop>
        </linearGradient>
    </defs>
    <g id="Maquettes" stroke="none" stroke-width="1" fill="none" fill-rule="evenodd">
        <g id="Landing-page---Mobile" transform="translate(0.000000, -1508.000000)">
            <g id="palmier2-+-palmier1-+-sun-+-Rectangle-Mask" transform="translate(0.000000, 1508.000000)">
                <mask id="mask-2" fill="white">
                    <use xlink:href="#path-1"></use>
                </mask>
                <g id="Mask"></g>
                <g id="palmier2" filter="url(#filter-3)" mask="url(#mask-2)" fill-rule="nonzero">
                    <g transform="translate(0.000000, 87.000000)" id="Path">
                        <polygon fill="#CC8473" points="53.498725 27.0052424 49.9377352 25.0408574 46.0336093 26.1950291 36.3571723 101.21619 41.8854755 99.6263373 46.9486388 102.370361"></polygon>
                        <polygon fill="#D4B79D" points="49.3582165 29.2371505 43.8832899 29.6575442 43.9747929 34.2360134 48.9769542 32.7990314 53.5521017 35.2755323 54.6272614 30.8193594"></polygon>
                        <polygon fill="#FEB5A3" points="54.7263896 31.0028039 53.6588551 35.4513333 49.0760824 32.9748324 49.4649699 29.4129515"></polygon>
                        <polygon fill="#DD8F7C" points="43.9824181 29.8333452 44.0815463 34.4118144 49.0760824 32.9748324 49.4649699 29.4129515"></polygon>
                        <polygon fill="#D4B79D" points="48.7405716 34.3583097 43.1817673 34.8857127 43.2808955 39.5253301 48.3440588 38.0654175 52.9802083 40.5724925 54.0629932 36.062815"></polygon>
                        <polygon fill="#FEB5A3" points="54.1697466 36.2462595 53.0869617 40.755937 48.4508122 38.2412185 48.847325 34.5341107"></polygon>
                        <polygon fill="#DD8F7C" points="43.2885208 35.0615137 43.387649 39.7011311 48.4508122 38.2412185 48.847325 34.5341107"></polygon>
                        <polygon fill="#D4B79D" points="49.9148594 24.0777737 44.5161854 24.3911581 44.6076883 28.9161227 49.5488476 27.4944277 54.0706184 29.9403545 55.1229023 25.5453298"></polygon>
                        <polygon fill="#FEB5A3" points="55.2296558 25.7211308 54.1773719 30.123799 49.6556011 27.6702287 50.0216129 24.2535747"></polygon>
                        <polygon fill="#DD8F7C" points="44.6229388 24.5669591 44.7144417 29.0919236 49.6556011 27.6702287 50.0216129 24.2535747"></polygon>
                        <polygon fill="#D4B79D" points="48.3059325 39.5406171 42.6708759 40.1750294 42.770004 44.8681514 47.8941693 43.3853083 52.5836955 45.9306008 53.6817309 41.3674187"></polygon>
                        <polygon fill="#FEB5A3" points="53.7884843 41.5432197 52.6904489 46.1140454 48.0009227 43.5687528 48.412686 39.7164181"></polygon>
                        <polygon fill="#DD8F7C" points="42.7776293 40.3508304 42.8767575 45.0439524 48.0009227 43.5687528 48.412686 39.7164181"></polygon>
                        <polygon fill="#D4B79D" points="47.6501614 45.0668829 41.931227 45.7930175 42.0303552 50.5472876 47.2155224 49.0491575 51.9660506 51.6250241 53.0793365 47.0006938"></polygon>
                        <polygon fill="#FEB5A3" points="53.1860899 47.1841383 52.0804292 51.8008251 47.3222758 49.2249585 47.7569148 45.2426839"></polygon>
                        <polygon fill="#DD8F7C" points="42.0379804 45.976462 42.1371086 50.7230886 47.3222758 49.2249585 47.7569148 45.2426839"></polygon>
                        <polygon fill="#D4B79D" points="47.0706427 50.4402784 41.2754559 51.2734222 41.3745841 56.0888405 46.6207532 54.5754233 51.4322834 57.1818641 52.5531945 52.5040291"></polygon>
                        <polygon fill="#FEB5A3" points="52.6599479 52.6798301 51.5390368 57.357665 46.7275067 54.7512243 47.1773962 50.6237229"></polygon>
                        <polygon fill="#DD8F7C" points="41.3822093 51.4568667 41.4813375 56.2646415 46.7275067 54.7512243 47.1773962 50.6237229"></polygon>
                        <polygon fill="#D4B79D" points="46.491124 55.8060302 40.6196847 56.7385398 40.7188129 61.6074628 46.025984 60.0787586 50.8908909 62.7157734 52.0270525 57.9767903"></polygon>
                        <polygon fill="#FEB5A3" points="52.133806 58.1602348 50.9976443 62.8915744 46.1327375 60.2545596 46.5978775 55.9818312"></polygon>
                        <polygon fill="#DD8F7C" points="40.7188129 56.9219843 40.8255664 61.7909073 46.1327375 60.2545596 46.5978775 55.9818312"></polygon>
                        <polygon fill="#D4B79D" points="45.9039801 61.2558609 39.9486631 62.2953797 40.0477913 67.2178074 45.4235896 65.6661726 50.3494984 68.3337615 51.5009106 63.5489172"></polygon>
                        <polygon fill="#FEB5A3" points="51.6000388 63.7247182 50.4562519 68.5095625 45.5303431 65.8419736 46.0107335 61.4316618"></polygon>
                        <polygon fill="#DD8F7C" points="40.0554165 62.4711807 40.1545447 67.3936084 45.5303431 65.8419736 46.0107335 61.4316618"></polygon>
                        <polygon fill="#D4B79D" points="45.3397119 66.4687423 39.3081424 67.6152705 39.4072706 72.5988463 44.8440709 71.0319245 49.8233565 73.7300875 50.9900191 68.884095"></polygon>
                        <polygon fill="#FEB5A3" points="51.0967725 69.059896 49.9301099 73.9058884 44.9508244 71.2077255 45.4464653 66.6445433"></polygon>
                        <polygon fill="#DD8F7C" points="39.4148959 67.7910715 39.5140241 72.7746473 44.9508244 71.2077255 45.4464653 66.6445433"></polygon>
                        <polygon fill="#D4B79D" points="44.7373175 72.0255822 38.6294955 73.2714762 38.736249 78.3085566 44.2340513 76.7263478 49.2667135 79.4550848 50.4486266 74.5555877"></polygon>
                        <polygon fill="#FEB5A3" points="50.5477548 74.7313887 49.373467 79.6308858 44.3408047 76.9021487 44.8440709 72.2013832"></polygon>
                        <polygon fill="#DD8F7C" points="38.736249 73.4472772 38.8353772 78.4920012 44.3408047 76.9021487 44.8440709 72.2013832"></polygon>
                        <polygon fill="#D4B79D" points="44.1501736 77.5059869 37.9584739 78.8588902 38.0652274 83.9571188 43.6240316 82.3519794 48.7176958 85.1112905 49.9072342 80.1582888"></polygon>
                        <polygon fill="#FEB5A3" points="50.0139876 80.3340898 48.8244493 85.2870915 43.730785 82.5277804 44.256927 77.6817879"></polygon>
                        <polygon fill="#DD8F7C" points="38.0652274 79.0346912 38.1719808 84.1329198 43.730785 82.5277804 44.256927 77.6817879"></polygon>
                        <polygon fill="#D4B79D" points="43.5325286 83.2462713 37.2569513 84.6985404 37.3637047 89.8502737 42.9911362 88.2298472 48.1381771 91.0197324 49.342966 86.0055825"></polygon>
                        <polygon fill="#FEB5A3" points="49.4497194 86.189027 48.2449306 91.1955334 43.0978896 88.4056482 43.6392821 83.4220723"></polygon>
                        <polygon fill="#DD8F7C" points="37.3637047 84.8743414 37.4704582 90.0337182 43.0978896 88.4056482 43.6392821 83.4220723"></polygon>
                        <polygon fill="#D4B79D" points="42.9072585 88.9789122 36.5630539 90.5381906 36.6698074 95.751072 42.3582408 94.107715 47.5662837 96.9358178 48.7786978 91.8605197"></polygon>
                        <polygon fill="#FEB5A3" points="48.8854512 92.0439642 47.6654119 97.1116188 42.4649942 94.283516 43.0140119 89.1547132"></polygon>
                        <polygon fill="#DD8F7C" points="36.6698074 90.7216351 36.7765608 95.926873 42.4649942 94.283516 43.0140119 89.1547132"></polygon>
                        <polygon fill="#D4B79D" points="42.3048641 94.5969003 35.8767818 96.2555444 35.9835352 101.521931 41.7329706 99.8632864 46.9943903 102.721963 48.2296801 97.6008042"></polygon>
                        <polygon fill="#916B4D" points="48.3364335 97.7766051 47.1011437 102.897764 41.8397241 100.039087 42.4116175 94.7727013"></polygon>
                        <polygon fill="#815E3C" points="35.9835352 96.4389889 36.0902887 101.705375 41.8397241 100.039087 42.4116175 94.7727013"></polygon>
                        <path d="M50.4715024,26.7147885 C50.5935063,26.355543 50.738386,21.7159257 52.8277033,17.3820492 C56.7852059,9.15762035 65.996503,-0.25155425 83.1151799,6.80341582 L76.3287111,9.41750007 C76.3287111,9.41750007 71.9594452,7.72828188 70.6097767,8.01873569 C71.5140514,8.76237169 72.2541252,9.68642735 72.7829718,10.7321857 L64.7078364,15.7769097 L61.6043613,11.7640611 C61.5890847,13.6756148 61.7860105,15.5829391 62.1915053,17.4508409 L50.4715024,26.7147885 Z" fill="#DD8F7C"></path>
                        <path d="M50.1436168,26.6765709 C50.2656207,26.324969 50.4181257,21.6853516 52.4998178,17.3514751 C56.4268194,9.12704626 65.6762426,-0.282128335 82.8101701,6.77284173 L76.0237013,9.38692598 C76.0237013,9.38692598 71.6773111,7.67477724 70.3047669,7.98051808 C71.118738,8.79078756 71.8353025,9.69377044 72.4398357,10.6710375 L64.3799508,15.7386921 L61.284101,11.7258435 C61.2641778,13.637616 61.4611574,15.5454612 61.8712449,17.4126232 L50.1436168,26.6765709 Z" fill="url(#linearGradient-4)"></path>
                        <path d="M77.2666163,16.3578173 C61.688239,13.1322514 50.4410014,26.0956633 50.4638423,26.7835802 C54.1468709,27.1198952 60.7655843,27.8842473 68.1086961,29.0766366 C70.6707787,26.9975988 74.3385219,23.9172598 74.3385219,23.9172598 L73.3319895,29.947998 C76.5574685,30.5136186 79.8286989,31.1556744 82.9550498,31.8512348 C84.0378347,29.229507 85.4561304,26.1338809 85.4561304,26.1338809 L86.9811796,32.821962 C90.6964834,33.7025742 94.3293263,34.9019329 97.8395297,36.4067734 C98.0759123,35.8793705 94.1794117,19.9044112 77.2666163,16.3578173 Z" fill="url(#linearGradient-5)"></path>
                        <path d="M76.946356,16.2431645 C61.3679787,13.0252421 50.1283663,26.0192281 50.1512072,26.6689274 C53.8266106,27.0052424 60.4529492,27.7695945 67.796061,28.9237662 C70.3581436,26.8370849 74.0258868,23.7643894 74.0258868,23.7643894 L73.0193544,29.7951276 C76.2448334,30.3607482 79.5084386,30.9951604 82.6424147,31.6983644 C83.7175743,29.0766366 85.1358701,26.0192281 85.1358701,26.0192281 L86.6609192,32.6996656 C90.3789721,33.5826253 94.0143642,34.7845407 97.5268946,36.2921206 C97.7632772,35.7570741 93.8667766,19.7515407 76.946356,16.2431645 Z" fill="url(#linearGradient-6)"></path>
                        <path d="M21.4345661,4.80845679 C24.9779775,5.04419915 28.480241,5.70629681 31.8659025,6.78048525 L37.5314601,2.42367817 L35.076131,8.11045794 C36.1282922,8.63311813 37.1096923,9.28809674 37.9966001,10.0595558 C38.9107072,10.8740389 39.7812009,11.7364134 40.6044342,12.643066 L44.9889506,8.5996433 L43.5630296,16.3195997 C45.86898,19.570104 47.7834937,23.0824716 49.2667135,26.7835802 C57.684985,-11.4340258 23.6840137,1.49116858 21.4345661,4.80845679 Z" fill="#B1DFB3"></path>
                        <path d="M21.587071,4.95368369 C25.1328534,5.18044047 28.6381062,5.83748604 32.0260326,6.91042512 L37.6839651,2.54597451 L35.2133854,8.2403978 C36.2626316,8.7671391 37.2413213,9.42458685 38.1262293,10.1971392 C39.03794,11.0142933 39.905889,11.8792197 40.7264382,12.7882929 L45.1033293,8.7448702 L43.6926588,16.4648266 C46.0069418,19.7139651 47.9291833,23.2264227 49.4192184,26.9288071 C57.8374899,-11.2735118 23.8365186,1.62875197 21.587071,4.95368369 Z" fill="url(#linearGradient-7)"></path>
                        <path d="M27.572889,10.2277133 C15.5478763,7.88115231 6.03156948,15.7769097 0,26.2026726 C2.97038567,25.1788121 6.03587869,24.4566947 9.15029504,24.0471996 L11.910634,19.7897583 L13.1306734,23.5350837 C15.692756,23.2675605 18.6132252,23.0764725 21.8997061,23.0306113 L24.8888025,18.4444986 L25.773331,23.0917595 C33.5701643,23.4978434 41.3125302,24.6288449 48.9007017,26.4701959 C48.9007017,26.4701959 45.1338303,13.6520108 27.572889,10.2277133 Z" fill="url(#linearGradient-8)"></path>
                        <path d="M27.9007746,10.3041485 C15.8757619,7.95758752 6.3518298,15.8533449 0.320260326,26.2714643 C3.29342783,25.2589694 6.35803903,24.5396196 9.47055536,24.1236349 L12.2385196,19.85855 L13.4509337,23.6115189 C16.0130163,23.3516392 18.9411107,23.1605512 22.2199664,23.1070465 L25.2166881,18.5209338 L26.1012166,23.1681947 C33.8954949,23.5747055 41.6352906,24.7057045 49.2209621,26.5466311 C49.2209621,26.5466311 45.4540906,13.728446 27.9007746,10.3041485 Z" fill="url(#linearGradient-9)"></path>
                        <path d="M25.6437018,33.6168882 L26.8713664,40.4119785 C29.9214648,38.3635149 33.0478156,36.3226947 35.9301585,34.4423885 L37.2035746,29.6422572 L37.8517205,33.204138 C44.2798027,29.038419 49.1752106,25.9657235 49.1752106,25.9657235 C17.4694383,14.6915297 9.24179799,46.7025965 10.0729498,52.4428809 C12.962918,50.0351717 17.8201996,46.5573696 23.1731222,42.91141 L25.6437018,33.6168882 Z" fill="url(#linearGradient-10)"></path>
                        <path d="M25.74283,33.8767679 L26.9781199,40.6718583 C30.0282182,38.6233946 33.1469438,36.5825744 36.0292867,34.7099117 L37.310328,29.9021369 L37.9508487,33.4563742 C44.3865562,29.2982987 49.2743388,26.2332467 49.2743388,26.2332467 C17.5761917,14.9514094 9.34092618,46.9624762 10.172078,52.6951171 C13.0391704,50.2950514 17.9193278,46.8172493 23.2722504,43.1712897 L25.74283,33.8767679 Z" fill="url(#linearGradient-11)"></path>
                        <path d="M75.550936,44.6006282 L71.5553072,49.4542641 C71.4290979,49.4496828 71.3049,49.4211526 71.1892954,49.3701854 C69.058097,46.5124341 66.566817,43.943246 63.7775564,41.7266642 L65.6686174,35.8793705 L60.6740813,38.4170195 L60.3156948,38.3329408 C55.6032928,32.47036 50.4943781,26.1033068 50.4943781,26.1033068 C82.8787973,25.4001029 83.397314,55.5843681 80.3167147,61.7679768 C80.195497,61.7480875 80.0757611,61.7199971 79.9583281,61.683898 C78.1435196,58.7487859 78.0443914,57.9232856 74.2546442,52.9702839 L75.550936,44.6006282 Z" fill="url(#linearGradient-12)"></path>
                        <path d="M75.2688019,44.5241929 L71.2731731,49.3778289 C69.0249687,46.4778108 66.4105155,43.8827848 63.4954223,41.6578725 L65.3864833,35.8105788 L60.3995725,38.3482278 C55.6642948,32.4397859 50.2198693,26.0192281 50.2198693,26.0192281 C83.458316,25.254876 82.5966632,56.5550953 80.0422058,61.6762545 C78.2235781,58.602197 76.1848262,55.6644672 73.9420091,52.8862051 L75.2688019,44.5241929 Z" fill="url(#linearGradient-13)"></path>
                    </g>
                </g>
                <g id="palmier1" filter="url(#filter-14)" mask="url(#mask-2)" fill-rule="nonzero">
                    <g transform="translate(186.000000, 0.000000)" id="Path">
                        <path d="M89.6786992,54.9159959 C86.6547154,54.5368031 83.6447967,54.1856985 80.6911382,53.8767266 C79.4065312,56.5451209 78.0234688,59.1901082 76.5419512,61.8116886 C99.3731283,108.892221 107.643319,161.696006 100.297805,213.488839 C105.314336,211.681821 110.260542,209.753087 115.136423,207.702636 C119.712249,210.380393 124.297453,213.18923 128.892033,216.129145 C131.351923,159.769937 117.754796,103.869674 89.6786992,54.9159959 Z" fill="#CC8473"></path>
                        <path d="M99.8617886,180.653545 C100.45252,185.859254 100.921355,191.107096 101.268293,196.397071 C106.120732,194.2764 110.874715,192.015287 115.558374,189.655864 C115.558374,184.038192 115.403659,178.42052 115.066098,172.887113 C110.058943,175.592958 104.99084,178.181769 99.8617886,180.653545 Z" fill="#FEB5A3"></path>
                        <path d="M130.804878,179.951336 C130.593902,185.751582 130.171951,191.537785 129.58122,197.309943 C124.892873,194.660274 120.204526,192.108915 115.516179,189.655864 C115.516179,184.038192 115.361463,178.42052 115.023902,172.887113 C120.209214,175.124819 125.469539,177.47956 130.804878,179.951336 Z" fill="#DD8F7C"></path>
                        <path d="M99.5101626,163.547733 C100.391572,168.603638 101.146396,173.701675 101.774634,178.841845 C106.219187,176.47306 110.584038,174.001284 114.869187,171.426518 C114.522249,165.977376 114.01122,160.537597 113.336098,155.10718 C108.835285,158.02837 104.22664,160.841887 99.5101626,163.547733 Z" fill="#FEB5A3"></path>
                        <path d="M128.765447,161.090001 C128.924851,166.707673 128.924851,172.362797 128.765447,178.055371 C124.123984,175.742763 119.515339,173.533145 114.939512,171.426518 C114.592575,165.977376 114.081545,160.537597 113.406423,155.10718 C118.441707,156.9891 123.561382,158.983374 128.765447,161.090001 Z" fill="#DD8F7C"></path>
                        <path d="M98.0614634,146.512142 C99.2616802,151.390154 100.330623,156.319661 101.268293,161.300664 C105.319024,158.725897 109.285366,156.066866 113.167317,153.323569 C112.482818,148.014869 111.643604,142.738938 110.649675,137.495778 C106.542683,140.585497 102.346612,143.590952 98.0614634,146.512142 Z" fill="#FEB5A3"></path>
                        <path d="M125.572683,142.467418 C126.097778,147.972736 126.444715,153.478055 126.613496,158.983374 C122.084553,157.007826 117.58374,155.135269 113.111057,153.365702 C112.426558,148.057001 111.587344,142.781071 110.593415,137.53791 C115.544309,139.054682 120.537398,140.697851 125.572683,142.467418 Z" fill="#DD8F7C"></path>
                        <path d="M95.5156911,129.560816 C96.9503252,134.242209 98.272439,138.998505 99.4820325,143.829703 C103.138943,141.086407 106.706775,138.27757 110.185528,135.403195 C109.182222,130.28175 108.033577,125.183713 106.739593,120.109082 C103.09206,123.348606 99.3507588,126.499184 95.5156911,129.560816 Z" fill="#FEB5A3"></path>
                        <path d="M121.226585,124.111674 C122.079864,129.448462 122.778428,134.785251 123.322276,140.122039 C118.933984,138.464826 114.555068,136.887197 110.185528,135.389151 C109.182222,130.267706 108.033577,125.169669 106.739593,120.095038 C111.531084,121.330926 116.360081,122.669804 121.226585,124.111674 Z" fill="#DD8F7C"></path>
                        <path d="M91.8587805,112.806108 C93.5465854,117.328334 95.1265583,121.902056 96.5986992,126.527273 C99.8617886,123.643534 103.035799,120.698938 106.120732,117.693483 C104.807995,112.740569 103.363984,107.834468 101.788699,102.975182 C98.6287534,106.317697 95.3187805,109.594672 91.8587805,112.806108 Z" fill="#FEB5A3"></path>
                        <path d="M115.74122,106.09299 C116.922683,111.23316 117.954119,116.382693 118.835528,121.541589 C114.541003,120.155896 110.321491,118.85915 106.176992,117.651351 C104.826748,112.726525 103.363984,107.834468 101.788699,102.975182 C106.373902,103.916142 111.113821,104.955411 115.74122,106.09299 Z" fill="#DD8F7C"></path>
                        <path d="M87.0907317,96.2480194 C89.0129539,100.573627 90.8367209,104.95073 92.5620325,109.379328 C95.4313008,106.401962 98.2068022,103.359056 100.888537,100.250611 C99.2663686,95.5130406 97.5504336,90.8035587 95.7407317,86.1221652 C92.9652304,89.5676708 90.081897,92.9429555 87.0907317,96.2480194 Z" fill="#FEB5A3"></path>
                        <path d="M109.13065,88.4675433 C110.621545,93.3970507 111.943659,98.2984697 113.167317,103.340331 C109.032195,102.244884 104.939268,101.205615 100.888537,100.250611 C99.2663686,95.5130406 97.5504336,90.8035587 95.7407317,86.1221652 C100.147778,86.833737 104.611084,87.6155297 109.13065,88.4675433 Z" fill="#DD8F7C"></path>
                        <path d="M81.2396748,79.9848583 C83.3400542,84.0763962 85.3888618,88.2475178 87.3860976,92.4982231 C89.8615447,89.450636 92.2385366,86.3328279 94.5452033,83.1728872 C92.6698645,78.6412983 90.6913821,74.1518419 88.6097561,69.7045181 C86.2655827,73.1593865 83.8088889,76.5861666 81.2396748,79.9848583 Z" fill="#FEB5A3"></path>
                        <path d="M101.408943,71.2774663 C103.199892,75.9588598 104.840813,80.7104743 106.331707,85.5323096 C102.346612,84.680296 98.4177778,83.8938219 94.5452033,83.1728872 C92.6698645,78.6412983 90.6913821,74.1518419 88.6097561,69.7045181 C92.8105149,70.1539319 97.0769106,70.6782479 101.408943,71.2774663 Z" fill="#DD8F7C"></path>
                        <path d="M74.2915447,64.0728017 C76.6450949,67.9770839 78.9001897,71.9328614 81.0568293,75.9401343 C83.147832,72.8410517 85.1497561,69.6811111 87.0626016,66.4603124 C84.9622222,62.1534303 82.7446341,57.8886808 80.4098374,53.6660639 C78.4829268,57.1911532 76.4434959,60.6600658 74.2915447,64.0728017 Z" fill="#FEB5A3"></path>
                        <path d="M92.5901626,54.5789356 C94.6436585,59.0730734 96.5611924,63.5999809 98.3427642,68.1596582 C94.5452033,67.5557585 90.7757724,66.9939912 87.0907317,66.4884007 C84.9903523,62.1815187 82.7727642,57.9167692 80.4379675,53.6941522 C84.3902439,53.9329033 88.4691057,54.2278311 92.5901626,54.5789356 Z" fill="#DD8F7C"></path>
                        <path d="M100.100894,180.836119 C100.672873,186.041829 101.141707,191.289671 101.507398,196.579645 C106.345772,194.44493 111.109133,192.197861 115.79748,189.838439 C115.79748,184.220766 115.633388,178.631183 115.305203,173.069687 C110.316802,175.784895 105.248699,178.373706 100.100894,180.836119 Z" fill="#FEB5A3"></path>
                        <path d="M131.043984,180.13391 C130.818943,185.929475 130.406369,191.715678 129.80626,197.492517 C125.117913,194.824123 120.429566,192.272763 115.74122,189.838439 C115.74122,184.220766 115.577127,178.631183 115.248943,173.069687 C120.471762,175.307393 125.736775,177.662134 131.043984,180.13391 Z" fill="#DD8F7C"></path>
                        <path d="M99.7773984,163.730307 C100.658808,168.786212 101.413631,173.88425 102.04187,179.02442 C106.505176,176.646272 110.870027,174.174496 115.136423,171.609092 C114.798862,166.15995 114.278455,160.710808 113.617398,155.289754 C109.116585,158.210944 104.489187,161.01978 99.7773984,163.730307 Z" fill="#FEB5A3"></path>
                        <path d="M129.032683,161.272575 C129.192087,166.890248 129.192087,172.545371 129.032683,178.237946 C124.409973,175.915974 119.801328,173.706357 115.206748,171.609092 C114.869187,166.15995 114.34878,160.710808 113.687724,155.289754 C118.732385,157.171675 123.847371,159.165948 129.032683,161.272575 Z" fill="#DD8F7C"></path>
                        <path d="M98.3427642,146.666628 C99.5054743,151.572728 100.550976,156.511598 101.479268,161.483238 C105.548753,158.908472 109.519783,156.24944 113.392358,153.506144 C112.698482,148.197443 111.859268,142.921513 110.874715,137.678352 C106.814607,140.758709 102.63729,143.754801 98.3427642,146.666628 Z" fill="#FEB5A3"></path>
                        <path d="M125.839919,142.649992 C126.37439,148.141267 126.711951,153.66063 126.894797,159.151904 C122.356477,157.176356 117.855664,155.303799 113.392358,153.534232 C112.698482,148.225532 111.859268,142.949601 110.874715,137.70644 C115.816233,139.232575 120.804634,140.880425 125.839919,142.649992 Z" fill="#DD8F7C"></path>
                        <path d="M95.7969919,129.729346 C97.231626,134.410739 98.5490515,139.171717 99.7492683,144.012277 C103.420244,141.203441 106.978699,138.394605 110.466829,135.585769 C109.454146,130.454962 108.305501,125.361606 107.020894,120.305701 C103.382737,123.517137 99.6414363,126.658352 95.7969919,129.729346 Z" fill="#FEB5A3"></path>
                        <path d="M121.507886,124.294248 C122.370542,129.612311 123.069106,134.9491 123.603577,140.304614 C119.187154,138.638038 114.808238,137.055727 110.466829,135.557681 C109.454146,130.426873 108.305501,125.333517 107.020894,120.277612 C111.793631,121.5135 116.622629,122.852379 121.507886,124.294248 Z" fill="#DD8F7C"></path>
                        <path d="M92.1260163,112.974638 C93.8231978,117.496865 95.4031707,122.065905 96.865935,126.681759 C100.129024,123.816746 103.303035,120.876831 106.387967,117.862013 C105.07523,112.918462 103.63122,108.012361 102.055935,103.143712 C98.8678591,106.486227 95.5578862,109.763202 92.1260163,112.974638 Z" fill="#FEB5A3"></path>
                        <path d="M116.02252,106.275564 C117.203984,111.415734 118.23542,116.565267 119.116829,121.724163 C114.83168,120.347833 110.612168,119.055769 106.458293,117.847969 C105.145556,112.904418 103.701545,107.998317 102.12626,103.129668 C106.683333,104.094035 111.31542,105.142667 116.02252,106.275564 Z" fill="#DD8F7C"></path>
                        <path d="M87.3720325,96.4305937 C89.3036314,100.793652 91.12271,105.170755 92.8292683,109.561903 C95.6985366,106.584536 98.4787263,103.54163 101.169837,100.433185 C99.5757995,95.6862521 97.8551762,91.0048586 96.0079675,86.3890046 C93.2418428,89.7783335 90.3631978,93.1255299 87.3720325,96.4305937 Z" fill="#FEB5A3"></path>
                        <path d="M109.397886,88.6501177 C110.88878,93.5843064 112.234336,98.5419022 113.434553,103.522905 C109.299431,102.427459 105.206504,101.388189 101.169837,100.433185 C99.5757995,95.6862521 97.8551762,91.0048586 96.0079675,86.3890046 C100.410325,87.0209927 104.883008,87.7934227 109.397886,88.6501177 Z" fill="#DD8F7C"></path>
                        <path d="M81.5772358,80.1674326 C83.715122,84.2823775 85.796748,88.4675433 87.7095935,92.6807975 C90.1850407,89.6191661 92.5526558,86.4966767 94.812439,83.3133291 C92.9371003,78.7723773 90.9586179,74.2829209 88.8769919,69.8449599 C86.5328184,73.356005 84.0995664,76.7968293 81.5772358,80.1674326 Z" fill="#FEB5A3"></path>
                        <path d="M101.676179,71.4600407 C103.457751,76.1414342 105.098672,80.8930486 106.598943,85.7148839 C102.674797,84.8581889 98.6943902,84.0717148 94.812439,83.3133291 C92.9371003,78.7723773 90.9586179,74.2829209 88.8769919,69.8449599 C93.082439,70.3365062 97.3582114,70.8561409 101.676179,71.4600407 Z" fill="#DD8F7C"></path>
                        <path d="M74.5447154,64.255376 C76.8795122,68.1502954 79.134607,72.106073 81.31,76.1227086 C83.391626,73.0189447 85.4029268,69.8590041 87.3157724,66.6709751 C85.2060163,62.364093 82.9884282,58.0993435 80.6630081,53.8767266 C78.7642276,57.3737275 76.7107317,60.8426401 74.5447154,64.255376 Z" fill="#FEB5A3"></path>
                        <path d="M92.8292683,54.7615099 C94.8921409,59.2556477 96.8143631,63.7825553 98.595935,68.3422326 C94.7843089,67.7242886 91.0289431,67.1765656 87.3439024,66.6709751 C85.2341463,62.364093 83.0165583,58.0993435 80.6911382,53.8767266 C84.6856098,54.1014335 88.7504065,54.3963613 92.8292683,54.7615099 Z" fill="#DD8F7C"></path>
                        <path d="M85.796748,56.2361489 C85.796748,55.5479841 82.8712195,47.613022 83.4619512,38.8915859 C84.5871545,22.333497 93.7997561,0.199868421 127.612114,0.452663671 L117.893171,9.4690276 C117.893171,9.4690276 109.327561,9.59542522 107.245935,10.9857991 C109.265131,11.6340203 111.131347,12.6851962 112.731301,14.0755188 L102.491951,28.1196994 L94.5311382,23.4570315 C95.7928568,26.6950382 97.4158827,29.7808093 99.3695122,32.6559697 L85.796748,56.2361489 Z" fill="#DD8F7C"></path>
                        <path d="M85.2482114,56.3906349 C85.2482114,55.7165142 82.3086179,47.7815522 82.8993496,39.0601161 C84.0104878,22.487983 93.2230894,0.354354407 127.035447,0.621193838 L117.316504,9.63755777 C117.316504,9.63755777 108.764959,9.76395539 106.683333,11.1543293 C108.622437,11.9600169 110.459025,12.9924495 112.154634,14.2300048 L101.92935,28.2741854 L93.9544715,23.6115174 C95.2220695,26.8318018 96.8498661,29.8988276 98.8069106,32.754279 L85.2482114,56.3906349 Z" fill="url(#linearGradient-15)"></path>
                        <path d="M124.152114,20.5639303 C95.6422764,25.7321887 85.3466667,55.2249679 85.796748,56.3485024 C92.3229268,54.4244496 104.081301,51.2083323 117.260244,48.2028776 C120.185772,42.9363099 124.292764,35.2541431 124.292764,35.2541431 L126.683821,46.1102947 C132.534878,44.8744068 138.498455,43.722784 144.279187,42.7818239 C144.279187,37.6276096 144.616748,31.4481702 144.616748,31.4481702 L151.775854,41.6582895 C158.669487,40.6315275 165.637857,40.1898966 172.606255,40.3381365 C172.648374,39.3269555 155.179593,14.9743464 124.152114,20.5639303 Z" fill="#DD8F7C"></path>
                        <path d="M123.547317,20.5779744 C94.9812195,25.7321887 84.7418699,55.2249679 85.2341463,56.3765907 C91.704065,54.4384938 103.434309,51.2364206 116.655447,48.1888334 C119.580976,42.9222657 123.687967,35.240099 123.687967,35.240099 L126.064959,46.0962505 C131.930081,44.8603626 137.879593,43.7087398 143.660325,42.7677797 C143.660325,37.6135655 144.011951,31.434126 144.011951,31.434126 L151.171057,41.6582895 C158.063578,40.6201852 165.032519,40.1738196 172.001458,40.3240923 C172.043577,39.3409997 154.574797,14.9883906 123.547317,20.5779744 Z" fill="url(#linearGradient-16)"></path>
                        <path d="M21.7726829,39.0179835 C27.9363959,37.0032784 34.3213015,35.7395086 40.7886179,35.2541431 L47.413252,24.0187987 L47.1038211,35.2541431 C49.2405444,35.4223541 51.3478593,35.8564022 53.3768293,36.5462077 C55.4748206,37.3030646 57.5311964,38.170337 59.5373171,39.1443812 L64.1928455,29.3134547 L67.0058537,43.3576353 C73.1543612,47.261233 78.8196189,51.8762842 83.8839024,57.1068881 C72.1395935,-12.9876171 23.3198374,31.8835398 21.7726829,39.0179835 Z" fill="#DD8F7C"></path>
                        <path d="M22.138374,39.1443812 C28.2975577,37.1307828 34.6776744,35.8670261 41.1402439,35.3805408 L47.764878,24.1451963 L47.4554472,35.3805408 C49.5871945,35.5601229 51.6890369,35.9987328 53.7143902,36.6866496 C55.8216834,37.4314058 57.8834089,38.2989537 59.8889431,39.284823 L64.5444715,29.4538966 L67.3574797,43.4980771 C73.5059873,47.4016748 79.1712449,52.016726 84.2355285,57.2473299 C72.5052846,-12.8612195 23.6855285,32.0239816 22.138374,39.1443812 Z" fill="url(#linearGradient-17)"></path>
                        <path d="M35.8517886,43.9896234 C13.8962602,48.2028776 3.13650407,67.991128 0,89.6612987 C4.3516719,85.9285282 9.06303167,82.6354676 14.0650407,79.8303723 C14.9230081,75.4485879 15.8513008,70.7578316 15.8513008,70.7578316 L20.4646341,76.2912388 C24.6138211,74.1003466 29.4381301,71.7830568 34.9656911,69.4798112 C35.8658537,64.9014083 36.9066667,59.6488848 36.9066667,59.6488848 L41.5481301,66.8816378 C55.0196432,62.2570003 68.8905603,58.8860915 82.9837398,56.8119603 C82.9837398,56.8119603 67.9060163,37.8242282 35.8517886,43.9896234 Z" fill="#DD8F7C"></path>
                        <path d="M36.4565854,43.8913142 C14.4869919,48.1045684 3.74130081,67.8647304 0.604796748,89.5629894 C4.95899929,85.8334745 9.67002568,82.540647 14.6698374,79.732063 C15.4715447,75.3362345 16.4560976,70.6735665 16.4560976,70.6735665 L21.097561,76.1367528 C25.246748,73.9458606 30.0710569,71.642615 35.5986179,69.3253252 C36.4987805,64.7469223 37.5395935,59.4943988 37.5395935,59.4943988 L42.195122,66.741196 C55.6725933,62.1332552 69.5483646,58.7811168 83.6447967,56.7276952 C83.6447967,56.7276952 68.510813,37.7399631 36.4565854,43.8913142 Z" fill="url(#linearGradient-18)"></path>
                        <path d="M48.4681301,84.7177471 L55.1630894,95.3491918 C58.9606504,89.7315196 62.8426016,84.240245 66.415122,79.1281632 L65.3180488,70.1539319 L68.8202439,75.7716041 C76.8795122,64.3817736 83.0821951,55.8850444 83.0821951,55.8850444 C21.7726829,58.3708644 29.5365854,117.974367 34.8672358,127.08904 C38.1021951,121.078131 43.9954472,111.893237 50.5919512,102.104443 L48.4681301,84.7177471 Z" fill="#DD8F7C"></path>
                        <path d="M48.8197561,85.1109842 L55.5147154,95.7424289 C59.3122764,90.1949775 63.1801626,84.6475262 66.766748,79.5214003 L65.6696748,70.5612131 L69.1718699,76.1788853 C77.2452033,64.7750107 83.4338211,56.2782815 83.4338211,56.2782815 C22.1243089,58.7500572 29.9163415,118.339515 35.1626016,127.454189 C38.397561,121.443279 44.290813,112.258385 50.8873171,102.469591 L48.8197561,85.1109842 Z" fill="url(#linearGradient-19)"></path>
                        <path d="M140.425366,69.3534136 L136.951301,80.2657419 C136.738299,80.3364315 136.514631,80.3696942 136.290244,80.3640511 C130.73926,76.9901605 124.772568,74.3511477 118.540163,72.5133542 L117.78065,61.3622748 L111.113821,69.0444416 L110.452764,69.156795 C98.4974797,62.4717651 85.5013821,55.1126145 85.5013821,55.1126145 C139.848699,31.9256723 161.241626,82.4847224 160.214878,95.0121315 C159.993321,95.0654416 159.767333,95.0983492 159.539756,95.1104407 C154.490407,91.3887329 153.759024,90.0685799 143.969756,84.2964217 L140.425366,69.3534136 Z" fill="#DD8F7C"></path>
                        <path d="M139.904959,69.4236345 L136.430894,80.3359628 C130.661135,76.9563081 124.470909,74.3497864 118.019756,72.5835751 L117.260244,61.4324957 L110.537154,69.1146625 C98.4552846,62.3734558 84.9106504,55.2249679 84.9106504,55.2249679 C140.706667,31.3498609 160.468049,84.7177471 159.624146,95.1104407 C154.475776,91.1509334 149.046482,87.5696285 143.379024,84.394731 L139.904959,69.4236345 Z" fill="url(#linearGradient-20)"></path>
                    </g>
                </g>
                <g id="sun" mask="url(#mask-2)" fill-rule="nonzero">
                    <g transform="translate(160.500000, 184.889068) rotate(2.000000) translate(-160.500000, -184.889068) translate(100.000000, 124.000000)" id="Path">
                        <path d="M102.972801,17.800401 L101.596864,27.1096613 C101.509513,27.7104848 101.667484,28.3212873 102.034884,28.8032937 C102.402285,29.2853002 102.94792,29.5975832 103.54782,29.6691918 L112.871335,30.7631847 C113.411366,30.7758027 113.902886,31.0794553 114.157969,31.5580453 C114.413053,32.0366352 114.392251,32.6161495 114.103517,33.0750187 L109.996242,41.558624 C109.738458,42.0940554 109.706444,42.7113635 109.907446,43.2708316 C110.108449,43.8302998 110.525473,44.2846261 111.064133,44.530982 L119.566193,48.4941261 C120.073985,48.676249 120.445369,49.1184103 120.538824,49.6521156 C120.632278,50.1858208 120.433407,50.7288603 120.017993,51.074298 L113.487426,57.8033864 C113.045124,58.2208553 112.794244,58.8035637 112.794244,59.4134137 C112.794244,60.0232637 113.045124,60.6059721 113.487426,61.023441 L120.387648,67.4841914 C120.829723,67.8101993 121.059463,68.3527735 120.986718,68.8990049 C120.913972,69.4452362 120.550347,69.9079774 120.03853,70.1056461 L111.823979,74.5022591 C111.29116,74.7770819 110.894521,75.2603995 110.727431,75.838439 C110.560341,76.4164786 110.637562,77.0381756 110.940915,77.5571826 L115.520527,85.8137328 C115.803496,86.2603325 115.832494,86.8234389 115.59691,87.2970156 C115.361326,87.7705924 114.895734,88.0851396 114.37049,88.1255668 L105.108584,89.7355941 C103.923644,89.9355612 103.123972,91.0626749 103.32192,92.2538419 L105.149657,101.501178 C105.317581,102.025009 105.188012,102.599191 104.811674,102.998946 C104.435335,103.398701 103.872098,103.560432 103.342456,103.420826 L94.0805505,102.079137 C93.486385,101.97902 92.8775089,102.130877 92.3988322,102.498566 C91.9201555,102.866254 91.6144876,103.41689 91.5545762,104.019426 L90.4456119,113.39061 C90.4492187,113.936318 90.1549778,114.440117 89.6791515,114.702944 C89.2033253,114.965771 88.6224612,114.945344 88.1660742,114.649734 L79.74616,110.521459 C79.2144402,110.246273 78.5940954,110.200815 78.0282878,110.395575 C77.4624803,110.590336 77.0000981,111.008487 76.7478491,111.553528 L72.8254013,120.160981 C72.6442048,120.671369 72.2042927,121.044653 71.6733024,121.138585 C71.142312,121.232517 70.6020348,121.032629 70.2583543,120.615092 L63.5224229,114.030493 C63.1083053,113.599113 62.5375225,113.355452 61.941122,113.355452 C61.3447215,113.355452 60.7739387,113.599113 60.359821,114.030493 L53.9935445,121.151767 C53.6778236,121.599142 53.1426122,121.835363 52.6012556,121.766267 C52.0598991,121.697172 51.6004145,121.333995 51.4059611,120.821505 L47.0111766,112.441107 C46.7332542,111.91561 46.2561008,111.525085 45.6878127,111.358001 C45.1195245,111.190917 44.5081994,111.261416 43.9923293,111.553528 L35.7777789,116.197837 C35.3162896,116.506736 34.7240511,116.538499 34.2324779,116.280715 C33.7409047,116.02293 33.4280253,115.516518 33.4160957,114.959355 L31.8347947,105.691377 C31.7518259,105.091181 31.4226594,104.553304 30.9271169,104.208181 C30.4315743,103.863057 29.8149145,103.742207 29.226675,103.874936 L20.0263785,105.712019 C19.5079045,105.870983 18.9444376,105.736252 18.5527227,105.359653 C18.1610079,104.983053 18.0020643,104.42325 18.1370319,103.895578 L19.45136,94.5450345 C19.5448247,93.9542404 19.3935453,93.3507453 19.0327276,92.8749945 C18.67191,92.3992437 18.1330232,92.0927306 17.541477,92.0267867 L8.21796229,90.9327938 C7.67118525,90.9248092 7.17210773,90.6182211 6.91566152,90.1327781 C6.65921532,89.647335 6.68608654,89.0600543 6.98577973,88.6003184 L11.0930549,80.1373545 C11.3648393,79.6033832 11.4066175,78.9806813 11.2086198,78.4148683 C11.010622,77.8490553 10.5902108,77.3897477 10.0456998,77.1443551 L1.5231037,73.181211 C1.00302326,73.0079277 0.618421284,72.5632706 0.520031624,72.0215105 C0.421641964,71.4797504 0.625138702,70.9271931 1.05076705,70.5803977 L7.60187101,63.8513094 C8.03757597,63.4344258 8.28419219,62.8562324 8.28419219,62.2516028 C8.28419219,61.6469732 8.03757597,61.0687798 7.60187101,60.6518962 L0.619503156,54.2530698 C0.17632007,53.930274 -0.056627459,53.3903806 0.0117845219,52.8445842 C0.0801965028,52.2987877 0.439094372,51.8338388 0.948085173,51.6316152 L9.16263559,47.2556436 C9.70030355,46.9803213 10.1016669,46.4948779 10.2725634,45.9132012 C10.44346,45.3315245 10.3688495,44.7048064 10.0662361,44.1800787 L5.50716065,35.9235285 C5.19768402,35.4771107 5.14783459,34.8989283 5.37629348,34.4056556 C5.60475236,33.9123829 6.07702425,33.5784997 6.61612496,33.529129 L15.8574942,31.9603845 C16.447929,31.8747478 16.9783485,31.5515073 17.3269158,31.0649108 C17.6754831,30.5783143 17.812238,29.9701861 17.705768,29.3802125 L15.8574942,20.112235 C15.6917057,19.5822905 15.8294686,19.0036453 16.2159683,18.6065367 C16.602468,18.2094281 17.1750033,18.0582783 17.705768,18.2132285 L27.0087464,19.5549179 C27.5987925,19.642649 28.198971,19.485519 28.6714572,19.119611 C29.1439433,18.753703 29.4481373,18.2104587 29.5141842,17.6146286 L30.6026122,8.24344418 C30.61193,7.68941542 30.9190312,7.18390679 31.4051083,6.92248306 C31.8911855,6.66105932 32.4800001,6.68472334 32.943759,6.98432029 L41.3226005,11.1125954 C41.8606135,11.4104078 42.4974068,11.4706409 43.0812519,11.278943 C43.6650971,11.0872452 44.1437118,10.6607825 44.4030569,10.101168 L48.2433592,1.43179032 C48.4384298,0.930461489 48.8847653,0.571805718 49.4142512,0.490912362 C49.9437372,0.410019006 50.4759412,0.619176302 50.8104062,1.03960418 L57.5463375,7.62420292 C57.9667512,8.09013614 58.5634374,8.35586891 59.1892476,8.35586891 C59.8150578,8.35586891 60.411744,8.09013614 60.8321577,7.62420292 L66.9930705,0.626776677 C67.3162999,0.181808484 67.8528906,-0.053720197 68.3973117,0.0104053511 C68.9417328,0.0745308992 69.409608,0.428372253 69.6217266,0.936397308 L73.9959747,9.29615432 C74.2659743,9.82950119 74.7415309,10.2284203 75.3119039,10.4000171 C75.8822769,10.5716138 76.4976854,10.5009117 77.014822,10.2043748 L85.2293724,5.60134814 C85.6729808,5.28607899 86.2515759,5.23671663 86.741705,5.47232471 C87.2318341,5.7079328 87.5567825,6.19163405 87.5910557,6.73662378 L89.1723566,16.0252427 C89.2716263,16.6160245 89.6054333,17.1409196 90.0972094,17.479528 C90.5889854,17.8181364 91.1965268,17.9413991 91.7804764,17.8210423 L101.001309,15.9839599 C101.528942,15.8000653 102.114414,15.9218568 102.52608,16.301147 C102.937746,16.6804373 103.109275,17.256111 102.972801,17.800401 Z" fill="url(#linearGradient-21)"></path>
                        <path d="M109.327974,60.499989 C109.327974,33.3208498 87.2969272,11.2867441 60.117786,11.2829582 C32.9386448,11.2791723 10.9014668,33.3071394 10.8938907,60.4862776 C10.8863184,87.6654158 32.9112156,109.705662 60.0903547,109.717042 C73.1487625,109.727949 85.6757713,104.546763 94.9113928,95.3150016 C104.147014,86.0832403 109.333436,73.5583992 109.327974,60.499989 Z" fill="url(#linearGradient-22)"></path>
                    </g>
                </g>
                <g id="Rectangle" mask="url(#mask-2)">
                    <g transform="translate(0.000000, 173.000000)">
                        <mask id="mask-24" fill="white">
                            <use xlink:href="#path-23"></use>
                        </mask>
                        <g id="Mask" stroke="none" fill="none"></g>
                        <path d="M-175,42.7350422 C-63.3333333,14.2450141 48.3333333,0 160,0 C271.666667,0 383.333333,14.2450141 495,42.7350422 L495,392 C383.565972,392 271.976852,392 160.232639,392 C48.4884259,392 -63.255787,392 -175,392 L-175,42.7350422 Z" id="Rectangle" stroke="none" fill="url(#linearGradient-25)" fill-rule="evenodd" mask="url(#mask-24)"></path>
                    </g>
                </g>
            </g>
        </g>
    </g>
</svg>