<?xml version="1.0" encoding="UTF-8"?>
<svg width="1440px" height="382px" viewBox="0 0 1440 382" version="1.1" xmlns="http://www.w3.org/2000/svg" xmlns:xlink="http://www.w3.org/1999/xlink">
    <title>Oval + ville Mask</title>
    <defs>
        <rect id="path-1" x="0" y="0" width="1440" height="384"></rect>
        <rect id="path-3" x="0" y="0" width="368" height="349"></rect>
        <filter x="-1.5%" y="-7.6%" width="103.0%" height="115.2%" filterUnits="objectBoundingBox" id="filter-5">
            <feOffset dx="3" dy="5" in="SourceAlpha" result="shadowOffsetOuter1"></feOffset>
            <feGaussianBlur stdDeviation="6" in="shadowOffsetOuter1" result="shadowBlurOuter1"></feGaussianBlur>
            <feColorMatrix values="0 0 0 0 0   0 0 0 0 0   0 0 0 0 0  0 0 0 0.15 0" type="matrix" in="shadowBlurOuter1" result="shadowMatrixOuter1"></feColorMatrix>
            <feMerge>
                <feMergeNode in="shadowMatrixOuter1"></feMergeNode>
                <feMergeNode in="SourceGraphic"></feMergeNode>
            </feMerge>
        </filter>
    </defs>
    <g id="Maquettes" stroke="none" stroke-width="1" fill="none" fill-rule="evenodd">
        <g id="Landing-page" transform="translate(0.000000, -2825.000000)">
            <g id="Oval-+-ville-Mask" transform="translate(0.000000, 2825.000000)">
                <mask id="mask-2" fill="white">
                    <use xlink:href="#path-1"></use>
                </mask>
                <g id="Mask"></g>
                <g id="Oval" mask="url(#mask-2)">
                    <g transform="translate(529.000000, 138.000000)">
                        <mask id="mask-4" fill="white">
                            <use xlink:href="#path-3"></use>
                        </mask>
                        <g id="Mask" stroke="none" fill="none"></g>
                        <circle id="Oval" stroke="none" fill="#0159FF" fill-rule="evenodd" mask="url(#mask-4)" cx="184" cy="184" r="184"></circle>
                    </g>
                </g>
                <g id="ville" filter="url(#filter-5)" mask="url(#mask-2)" fill="#FFFFFF" fill-rule="nonzero">
                    <g transform="translate(-396.000000, 2.000000)" id="Shape">
                        <path d="M0.285714286,340.639046 L0.285714286,439.610028 L2256.28571,439.610028 L2256.28571,401.569391 L2241.81571,401.569391 L2241.81571,400.677421 L2242.67059,397.48643 L2244.19176,393.529098 L2246.7061,390.413485 L2247.38497,389.772774 L2251.33247,389.772774 L2256.19771,386.23002 L2256.19771,382.800332 L2238.45908,373.06404 L2238.45908,372.93841 L2241.47628,372.93841 L2241.55171,372.85047 L2241.55171,372.146944 L2241.69,371.996189 L2241.69,370.739893 L2241.69,369.119271 L2241.57685,367.335331 L2241.57685,366.744872 L2241.57685,366.091598 L2241.57685,361.493556 L2241.57685,360.375453 L2240.83512,360.375453 L2240.64655,357.68698 L2240.47054,354.910566 L2240.30711,346.418006 L2240.14368,337.862632 L2240.01796,334.885211 L2239.87968,331.832412 L2239.76653,328.741925 L2239.64081,325.588622 L2239.55281,322.385068 L2238.72308,322.385068 L2238.72308,325.952948 L2238.72308,329.470576 L2238.72308,332.385182 L2234.77558,332.385182 L2172.52063,333.164086 L2168.43484,333.164086 L2168.32169,330.287168 L2168.19597,326.819792 L2168.08283,323.314727 L2167.29081,323.314727 L2167.15252,326.468029 L2167.01424,329.583643 L2166.83823,332.636442 L2166.66223,335.638988 L2166.44851,338.578721 L2166.23479,347.096406 L2165.98336,355.538714 L2165.71935,358.290002 L2165.12848,361.166919 L2164.83934,363.604133 L2164.75133,361.091541 L2163.89646,361.091541 L2163.82103,362.184518 L2163.7456,366.732309 L2163.82103,367.360457 L2163.82103,367.950916 L2163.6576,369.697167 L2163.6576,371.292663 L2163.6576,372.548959 L2163.88389,372.699714 L2163.88389,373.315299 L2164.02218,373.40324 L2164.87705,373.40324 L2167.68054,373.40324 L2144.93837,383.327977 L2144.93837,385.224983 L2144.42293,384.848094 L2139.87199,380.614378 L2134.93132,374.785165 L2130.2798,367.850412 L2126.43286,360.45083 L2123.47852,352.712048 L2121.42934,344.722007 L2121.0899,311.078406 L2120.73789,310.462821 L2120.39846,310.37488 L2120.39846,304.244157 L2120.13445,303.741638 L2118.87729,303.402439 L2118.87729,292.799302 L2118.77671,292.610858 L2118.37442,292.497791 L2117.84641,292.497791 L2117.44411,292.623421 L2117.35611,292.799302 L2117.35611,303.415002 L2116.09894,303.766764 L2115.84751,304.269283 L2115.84751,310.400006 L2115.4955,310.487947 L2115.16864,311.116095 L2114.92978,344.759696 L2112.91831,352.749737 L2109.98911,360.513645 L2106.21761,367.92579 L2101.6038,374.873106 L2097.04028,380.300304 L2092.31333,384.747591 L2092.62762,366.958442 L2077.16446,366.958442 L2077.16446,365.03631 L2068.15057,365.03631 L2068.15057,364.935806 L2068.50258,363.063926 L2068.50258,362.385526 L2051.56853,362.322711 L2051.45538,358.051305 L2051.21652,356.568876 L2051.04052,356.568876 L2050.03478,352.938181 L2049.28048,356.480936 L2049.19248,353.377885 L2049.04162,347.360228 L2048.85304,345.978303 L2048.72733,345.978303 L2048.36275,344.39537 L2048.22446,339.056113 L2048.13646,335.965625 L2048.13646,334.106308 L2047.97303,333.01333 L2047.87245,333.01333 L2047.20615,330.186665 L2046.741,332.912827 L2046.33871,331.241953 L2045.8987,333.880174 L2040.02773,283.301706 L2040.17859,283.188639 L2040.17859,282.899691 L2040.07801,282.899691 L2040.17859,282.899691 L2040.34202,282.786625 L2040.44259,282.786625 L2040.59345,282.59818 L2040.65631,282.51024 L2040.74431,282.271543 L2040.74431,282.020284 L2040.74431,281.919781 L2040.74431,281.668521 L2040.63117,281.442388 L2040.56831,281.354447 L2040.41745,281.191129 L2040.31688,281.128314 L2040.14087,281.040374 L2040.05287,281.040374 L2039.92715,281.040374 L2039.75115,281.040374 L2039.75115,280.0479 L2039.66315,279.407189 L2039.66315,278.904671 L2039.66315,279.0303 L2039.66315,276.718716 L2039.66315,276.580524 L2039.66315,276.429768 L2039.66315,276.216198 L2039.66315,275.80162 L2039.66315,275.713679 L2039.66315,275.851872 L2039.66315,275.186035 L2039.66315,274.90965 L2039.66315,275.261413 L2039.66315,275.361917 L2039.66315,274.985028 L2039.66315,274.708643 L2039.66315,274.57045 L2039.66315,274.846835 L2039.66315,274.997591 L2039.66315,274.69608 L2039.66315,274.369443 L2039.66315,274.105621 L2039.66315,274.193562 L2039.66315,274.658391 L2039.66315,274.784021 L2039.66315,275.085532 L2039.66315,275.236287 L2039.66315,275.110657 L2039.66315,275.37448 L2039.66315,275.512672 L2039.66315,275.889561 L2039.66315,276.002627 L2039.66315,275.814183 L2039.66315,276.404642 L2039.66315,276.743842 L2039.66315,276.429768 L2039.66315,276.329264 L2039.66315,277.170983 L2039.66315,276.995101 L2039.66315,276.856909 L2039.66315,279.168493 L2039.66315,279.306685 L2039.66315,279.633322 L2039.66315,280.650922 L2039.73858,281.027811 L2039.60029,281.027811 L2039.48715,281.027811 L2039.38657,281.027811 L2039.22314,281.140877 L2039.13514,281.216255 L2038.98428,281.404699 L2038.98428,281.49264 L2038.8837,281.718773 L2038.8837,281.982595 L2038.8837,282.070536 L2038.8837,282.334358 L2038.99685,282.560491 L2038.99685,282.635869 L2039.14771,282.811751 L2039.23571,282.811751 L2039.41172,282.912254 L2039.51229,282.912254 L2039.42429,282.912254 L2039.34886,282.912254 L2039.34886,283.188639 L2039.52486,283.301706 L2036.01736,334.118871 L2036.01736,334.056056 L2035.90422,332.950515 L2035.64021,332.950515 L2035.0242,330.12385 L2034.64705,332.297242 L2034.40819,331.179138 L2033.94304,333.942989 L2033.76703,333.942989 L2033.76703,335.287226 L2033.85503,340.111401 L2033.96818,347.021028 L2033.88018,347.548673 L2033.6916,347.548673 L2033.6916,349.093916 L2033.79218,354.784936 L2033.90532,361.493556 L2013.95407,361.493556 L2013.95407,382.285251 L2007.98252,382.285251 L2008.39739,368.151923 L2005.54362,368.151923 L1998.2269,365.903154 L1998.9812,288.012815 L1987.9307,286.681142 L1981.22999,286.681142 L1976.06304,287.145971 L1976.15104,263.477358 L1961.39189,260.437123 L1954.60318,260.437123 L1951.81227,260.952204 L1950.07738,260.952204 L1950.07738,261.278841 L1947.95277,261.680855 L1947.7139,261.680855 L1939.0143,263.288914 L1939.27831,309.457784 L1934.81536,309.357281 L1928.07694,309.357281 L1916.30985,309.646229 L1916.96358,366.644369 L1900.94727,366.644369 L1899.96667,366.958442 L1899.33809,368.026294 L1899.33809,358.541261 L1899.23752,358.541261 L1899.23752,356.392995 L1898.3575,356.392995 L1898.47064,335.387729 L1894.586,335.387729 L1894.1837,336.128944 L1894.1837,345.96574 L1893.69341,345.475784 L1892.63739,344.646629 L1891.50594,343.930541 L1890.31163,343.314956 L1890.31163,339.797328 L1877.11137,339.797328 L1876.83479,342.309919 L1876.83479,343.440585 L1875.97991,343.905415 L1874.92389,344.621503 L1873.9433,345.450659 L1873.03814,346.39288 L1872.64842,346.895399 L1872.64842,336.041003 L1872.64842,335.299789 L1868.76377,335.299789 L1868.76377,356.305054 L1868.61291,356.305054 L1868.61291,358.478446 L1868.61291,370.350441 L1867.84604,366.908191 L1867.64489,366.619243 L1849.74283,366.619243 L1849.34053,347.53611 L1863.50881,338.139017 L1863.25738,337.762128 L1863.18195,337.674188 L1862.55336,338.088765 L1859.23444,334.194248 L1859.77502,333.842486 L1859.2973,333.101271 L1859.22187,333.038456 L1858.60586,333.453034 L1855.27436,329.558517 L1855.81495,329.206754 L1855.29951,328.427851 L1854.68349,328.854991 L1851.32686,324.922785 L1851.86744,324.571023 L1851.36457,323.792119 L1851.36457,323.729304 L1850.73599,324.156445 L1848.92567,322.033305 L1848.92567,321.844861 L1849.1771,321.769483 L1850.1074,320.915202 L1848.69938,301.203921 L1849.31539,301.128543 L1849.50396,301.128543 L1850.43427,300.739091 L1850.61027,300.663714 L1850.73599,300.550647 L1850.82399,300.437581 L1850.82399,300.311951 L1850.82399,300.173758 L1850.74856,300.048129 L1850.61027,299.947625 L1850.44684,299.872247 L1849.90626,299.646114 L1850.08226,299.583299 L1838.07631,291.316873 L1838.74261,290.889733 L1838.37803,290.336962 L1843.2307,287.962563 L1843.63299,288.603274 L1844.42501,288.088193 L1844.073,287.535423 L1848.90052,285.173587 L1849.31539,285.801735 L1850.1074,285.286653 L1849.7554,284.72132 L1854.57035,282.372047 L1854.97264,283.012758 L1855.76466,282.51024 L1855.41265,281.944907 L1860.20246,279.608196 L1860.60475,280.236344 L1860.68018,280.236344 L1861.4722,279.721263 L1861.13276,279.15593 L1865.89743,276.831783 L1866.29972,277.472494 L1866.37515,277.472494 L1867.16717,276.944849 L1866.82773,276.392079 L1871.61754,274.055369 L1872.03241,274.733769 L1872.13298,274.733769 L1872.84957,274.256376 L1872.47242,273.653354 L1877.28737,271.316644 L1877.65195,271.89454 L1877.73995,271.89454 L1878.10453,271.668407 L1868.61291,256.278784 L1868.52491,256.278784 L1868.12262,256.530043 L1868.53748,257.19588 L1864.43912,260.700945 L1864.09968,260.148175 L1864.02425,260.148175 L1863.26995,260.650693 L1863.67224,261.31653 L1859.59902,264.796469 L1859.25958,264.256262 L1858.455,264.783906 L1858.86986,265.449743 L1854.78407,268.929682 L1854.44463,268.402038 L1853.65262,268.917119 L1854.06748,269.582956 L1849.98169,273.075458 L1849.62968,272.547814 L1848.82509,273.062895 L1849.25253,273.716169 L1845.14159,277.233797 L1844.80216,276.69359 L1844.01014,277.221234 L1844.42501,277.874508 L1840.31407,281.379573 L1839.97463,280.851929 L1839.18262,281.36701 L1839.61005,282.032847 L1835.47397,285.550475 L1835.13454,285.022831 L1834.32995,285.537912 L1834.75739,286.203749 L1833.06021,287.648489 L1824.80062,281.957469 L1824.4109,281.957469 L1820.9034,284.38212 L1820.28739,283.125825 L1820.94111,282.698684 L1820.4131,281.869529 L1819.87252,282.221292 L1817.44619,277.196108 L1818.08734,276.768968 L1817.54676,275.964939 L1816.99361,276.316701 L1814.5547,271.291518 L1815.19586,270.864378 L1814.65527,270.035222 L1814.10212,270.399548 L1811.58779,265.374365 L1812.24151,264.959787 L1811.70093,264.130632 L1811.13521,264.482395 L1808.62087,259.457212 L1809.28717,259.030071 L1808.73401,258.200916 L1808.18086,258.565242 L1805.66653,253.540059 L1806.32025,253.112918 L1805.77967,252.283763 L1805.21395,252.648089 L1802.69961,247.509839 L1803.40362,247.057572 L1802.90076,246.278669 L1802.28474,246.680684 L1799.77041,241.492182 L1800.37385,241.090168 L1800.37385,241.027353 L1800.13499,240.637901 L1784.45811,250.776208 L1784.73468,251.203349 L1785.41355,250.776208 L1789.18506,255.16068 L1788.61933,255.512443 L1789.14734,256.329035 L1789.81364,255.889332 L1793.50971,260.210989 L1792.95656,260.587878 L1793.49714,261.417033 L1794.16344,260.97733 L1797.84694,265.273861 L1797.29379,265.65075 L1797.83437,266.467342 L1798.50067,266.027639 L1802.15903,270.311608 L1801.60587,270.675933 L1802.14646,271.517651 L1802.80018,271.077948 L1806.44597,275.349354 L1805.89282,275.701116 L1806.44597,276.530272 L1807.0997,276.090568 L1810.73291,280.336848 L1810.17976,280.688611 L1810.70777,281.505203 L1811.37407,281.078062 L1814.98214,285.299216 L1814.42898,285.663542 L1814.957,286.467571 L1815.61072,286.040431 L1816.62903,287.233912 L1799.12925,299.357166 L1798.89039,299.633551 L1798.77725,299.633551 L1798.61381,299.721492 L1798.4881,299.821996 L1798.13609,300.198884 L1798.04809,300.324514 L1798.04809,300.450143 L1798.04809,300.588336 L1798.12352,300.701403 L1798.26181,300.814469 L1798.43781,300.889847 L1799.93384,301.266736 L1800.12242,301.266736 L1800.22299,301.266736 L1799.93384,305.902467 L1799.74527,306.04066 L1799.92127,306.304482 L1799.92127,306.668808 L1795.20689,308.967829 L1794.75431,308.314555 L1793.96229,308.842199 L1794.32687,309.382407 L1789.39878,311.781931 L1788.95877,311.141221 L1788.14161,311.656302 L1788.49362,312.183946 L1783.56552,314.583471 L1783.12551,313.930197 L1782.30835,314.470404 L1782.67293,314.998049 L1777.64426,317.4227 L1777.17911,316.731737 L1776.42481,317.221692 L1776.81453,317.799588 L1771.78586,320.31218 L1771.38356,319.746847 L1771.38356,319.42021 L1770.22697,319.42021 L1768.41665,307.611029 L1767.39834,314.219145 L1763.62684,306.819563 L1758.92503,306.819563 L1758.43474,308.502999 L1712.35954,308.691444 L1712.13325,307.02057 L1709.97092,307.02057 L1709.97092,289.18117 L1709.60634,290.437466 L1709.60634,307.1462 L1707.44401,307.1462 L1706.2497,325.148919 L1706.2497,318.578492 L1706.08627,318.95538 L1706.08627,327.975584 L1703.9868,326.392651 L1702.86792,325.990637 L1695.81521,323.741867 L1690.49739,323.000653 L1690.49739,316.844803 L1690.01967,316.631233 L1684.51328,315.274434 L1683.67097,315.186493 L1682.4138,315.186493 L1681.33264,315.249308 L1680.93035,315.337249 L1675.42395,316.706611 L1675.05937,316.907618 L1675.05937,320.802135 L1674.27993,320.802135 L1667.73009,313.075916 L1667.73009,312.887472 L1667.31522,312.887472 L1667.23979,306.756748 L1666.96321,305.035623 L1666.72435,306.756748 L1666.72435,312.874909 L1666.39749,312.874909 L1666.39749,313.151294 L1660.11165,320.689069 L1658.50248,320.689069 L1658.50248,322.52326 L1658.23847,322.52326 L1658.12533,322.52326 L1658.12533,324.583586 L1658.12533,326.09114 L1655.33441,326.09114 L1653.83838,326.191644 L1653.83838,326.015763 L1653.83838,324.131319 L1653.52409,324.131319 L1653.52409,322.586075 L1652.11606,322.586075 L1645.91823,315.689011 L1645.91823,315.538256 L1645.70451,315.538256 L1645.56622,315.538256 L1645.56622,309.94774 L1645.31479,308.364807 L1645.0885,309.94774 L1645.0885,315.538256 L1644.71135,315.538256 L1644.71135,315.802078 L1638.89066,322.711705 L1637.63349,322.711705 L1637.43234,322.711705 L1637.43234,324.382578 L1637.21863,324.382578 L1637.21863,324.445393 L1637.21863,326.329837 L1637.21863,327.736888 L1635.67231,327.736888 L1635.37059,288.9676 L1633.7237,288.728904 L1633.59798,274.557887 L1633.40941,274.557887 L1633.61056,274.495072 L1633.61056,274.080495 L1631.52366,273.716169 L1631.52366,269.947282 L1631.38537,269.947282 L1631.38537,267.836705 L1629.1979,267.836705 L1621.17717,256.73105 L1621.17717,256.329035 L1621.07659,256.329035 L1620.92573,256.329035 L1620.69944,256.329035 L1620.69944,247.534965 L1620.37258,245.022373 L1620.08343,247.534965 L1620.08343,256.329035 L1619.76914,256.329035 L1619.64342,256.329035 L1619.64342,256.768739 L1611.76098,267.484942 L1609.63637,267.484942 L1609.48551,267.484942 L1609.48551,270.223667 L1609.48551,273.188525 L1609.48551,274.608139 L1607.47404,275.311665 L1607.47404,275.738805 L1607.65004,275.738805 L1607.47404,275.80162 L1607.54947,289.294237 L1606.50602,289.357052 L1604.38141,289.947511 L1604.6077,335.073655 L1602.80995,335.073655 L1602.80995,326.279585 L1602.80995,322.787083 L1602.13108,321.782046 L1601.42706,320.940328 L1600.64762,320.249365 L1599.86817,319.734284 L1599.03844,319.407647 L1598.37214,319.29458 L1598.37214,314.859856 L1598.09557,313.075916 L1597.83156,314.859856 L1597.83156,319.282017 L1591.9983,319.407647 L1591.14343,319.407647 L1590.30113,319.646343 L1590.20055,319.646343 L1589.87369,319.520714 L1589.01882,319.369958 L1583.43699,319.508151 L1583.43699,315.111115 L1583.17299,313.352301 L1582.92155,315.111115 L1582.92155,319.520714 L1582.05411,319.520714 L1581.72724,319.608654 L1581.72724,316.832241 L1581.47581,315.199056 L1581.23695,316.832241 L1581.23695,319.734284 L1580.38207,320.161424 L1579.69063,320.663943 L1579.5272,320.663943 L1578.27003,320.588565 L1578.06889,320.588565 L1577.83002,320.588565 L1574.27224,320.412684 L1573.29165,320.412684 L1573.29165,316.19153 L1573.05279,314.533219 L1572.78878,316.19153 L1572.78878,320.412684 L1571.80819,320.513187 L1570.55102,320.789572 L1569.38186,321.241839 L1568.26298,321.844861 L1567.20696,322.598638 L1566.23894,323.503171 L1566.23894,327.372562 L1564.52919,327.535881 L1564.52919,335.563611 L1561.6377,335.563611 L1560.25482,335.626426 L1560.25482,352.473352 L1556.73475,352.473352 L1556.86047,382.121933 L1554.34613,382.121933 L1553.08896,354.935692 L1552.77467,354.935692 L1552.86267,354.1191 L1553.88098,351.99596 L1554.28327,351.631634 L1554.937,351.367812 L1555.16329,350.752227 L1555.16329,350.073827 L1555.16329,349.696938 L1554.83643,349.395427 L1555.17586,349.093916 L1555.46501,348.503457 L1555.96788,348.503457 L1556.68446,348.792405 L1557.25019,349.031102 L1557.57705,349.031102 L1557.71534,348.704465 L1557.61477,348.30245 L1556.86047,346.64414 L1556.30731,346.191873 L1555.5153,345.852673 L1555.20101,345.852673 L1554.78614,345.852673 L1554.53471,346.103932 L1554.53471,346.455695 L1554.13241,346.73208 L1552.78724,347.460732 L1552.10837,347.825058 L1551.85694,347.887872 L1551.60551,347.825058 L1551.1655,347.423043 L1550.95178,347.335102 L1550.88892,346.945651 L1550.97692,346.078806 L1551.21578,346.078806 L1551.5175,346.405443 L1551.81922,346.405443 L1552.86267,346.254688 L1554.29585,345.865236 L1554.48442,345.576288 L1554.48442,345.237088 L1554.62271,344.483311 L1554.68557,343.465711 L1554.23299,342.548615 L1552.88782,342.548615 L1552.68667,345.061207 L1551.81922,345.174274 L1551.15293,345.174274 L1550.75063,344.809948 L1550.75063,343.07626 L1550.18491,342.586304 L1549.05346,342.586304 L1549.05346,343.113948 L1548.57573,343.365208 L1548.51287,344.043607 L1548.08544,344.206926 L1547.89686,344.483311 L1547.70829,345.149148 L1546.80313,347.460732 L1545.7471,347.649176 L1544.89223,348.026065 L1543.9745,348.503457 L1542.8179,349.332613 L1542.8179,350.689412 L1542.8179,351.028612 L1543.52192,351.292434 L1544.52765,351.65676 L1544.16307,351.882893 L1544.0625,352.310034 L1543.98707,353.126626 L1543.98707,354.382922 L1543.98707,354.923129 L1536.06691,354.923129 L1535.91605,351.430627 L1536.14234,350.965797 L1536.49435,350.63916 L1537.07265,350.400464 L1537.28637,349.860257 L1537.28637,349.257235 L1537.28637,348.943161 L1536.99722,348.666776 L1537.31151,348.402954 L1537.55037,347.875309 L1538.0281,347.875309 L1538.66925,348.139132 L1539.17212,348.340139 L1539.42355,348.340139 L1539.54927,348.051191 L1539.46127,347.699428 L1538.80754,346.229562 L1538.30467,345.827547 L1537.6258,345.538599 L1537.3618,345.538599 L1536.99722,345.538599 L1536.7835,345.764733 L1536.7835,346.066244 L1536.43149,346.30494 L1535.77777,346.669265 L1535.77777,345.727044 L1536.58235,345.513473 L1536.74578,345.262214 L1536.74578,344.960703 L1536.8715,344.294866 L1536.8715,343.402896 L1536.48178,342.573741 L1535.66462,342.573741 L1535.58919,343.440585 L1535.30004,336.556084 L1536.26806,336.556084 L1536.26806,335.123907 L1535.01089,335.123907 L1534.65889,326.706725 L1534.31945,318.327233 L1534.79717,318.239292 L1534.79717,317.410137 L1533.67829,317.322196 L1533.67829,316.643796 L1533.67829,315.814641 L1533.57772,315.010612 L1533.40172,314.206582 L1533.15028,313.427679 L1532.83599,312.661339 L1532.45884,311.920124 L1532.01883,311.216598 L1531.51597,310.538199 L1530.96281,309.910051 L1530.35937,309.332155 L1529.70565,308.80451 L1529.08963,309.357281 L1528.53648,309.960303 L1528.03361,310.613576 L1527.5936,311.291976 L1527.20388,312.008065 L1526.88959,312.761842 L1526.63816,313.528183 L1526.46215,314.332212 L1526.34901,315.123678 L1526.34901,315.940271 L1526.34901,316.756863 L1526.43701,317.4227 L1526.31129,317.4227 L1525.46899,317.573455 L1524.91584,316.61867 L1524.84041,314.596034 L1524.53869,306.656245 L1525.19241,306.656245 L1525.4187,306.580867 L1525.4187,305.57583 L1525.1547,305.57583 L1523.10551,302.121017 L1523.10551,301.530558 L1522.95465,301.178795 L1522.95465,301.015477 L1522.87922,299.193848 L1522.71579,299.193848 L1522.71579,299.068218 L1522.71579,298.99284 L1522.15007,298.99284 L1521.5592,299.193848 L1521.5592,299.281788 L1521.63463,299.445107 L1521.50891,299.445107 L1521.50891,299.507922 L1521.58434,301.316988 L1521.58434,301.392365 L1521.48377,301.781817 L1521.48377,301.982824 L1516.79453,301.982824 L1515.13507,306.756748 L1514.93392,306.819563 L1514.93392,307.786911 L1515.13507,307.786911 L1515.23564,310.789458 L1489.67743,310.789458 L1489.40085,310.123621 L1488.96084,309.244214 L1488.4454,308.402496 L1487.89225,307.598466 L1487.62824,298.088307 L1485.83049,297.8873 L1485.70478,295.965168 L1485.39048,293.590768 L1484.92533,291.241495 L1484.32189,288.942474 L1483.58016,286.681142 L1482.70014,284.470061 L1481.68184,282.334358 L1480.53782,280.26147 L1479.28065,278.276523 L1477.89776,276.35439 L1476.38916,274.557887 L1474.77999,272.824199 L1474.51598,261.856737 L1474.51598,260.97733 L1474.42798,260.097923 L1474.28969,259.231079 L1474.10112,258.364235 L1473.86226,257.509953 L1473.56054,256.693361 L1473.2211,255.889332 L1472.83138,255.110428 L1472.39137,254.344088 L1471.90107,253.615437 L1471.38564,252.924474 L1471.0462,252.535022 L1471.15935,252.535022 L1471.23478,252.434518 L1471.23478,251.115408 L1471.33535,250.989778 L1471.33535,250.575201 L1471.23478,250.575201 L1471.23478,250.122934 L1470.7822,250.122934 L1470.70677,250.236001 L1470.70677,250.801334 L1470.61876,250.914401 L1470.61876,251.328978 L1470.70677,251.328978 L1470.70677,252.409393 L1470.2919,252.9496 L1469.78903,253.678251 L1469.34902,254.432029 L1468.94673,255.223495 L1468.59472,256.014961 L1468.30557,256.844117 L1468.04157,257.685835 L1467.84042,258.540116 L1467.70213,259.40696 L1467.60156,260.286367 L1467.60156,260.449686 L1467.60156,261.329093 L1467.60156,262.2085 L1467.84042,273.012643 L1466.34439,274.784021 L1465.70324,275.638302 L1465.61524,272.007607 L1465.61524,271.228703 L1465.53981,270.462363 L1465.41409,269.696023 L1465.25066,268.942245 L1465.04951,268.201031 L1464.79808,267.472379 L1464.49636,266.768853 L1464.15692,266.077891 L1463.77977,265.412054 L1463.35233,264.771343 L1462.89975,264.143195 L1462.63575,263.841684 L1462.63575,263.753744 L1462.63575,262.597951 L1462.71118,262.510011 L1462.71118,262.133122 L1462.63575,262.133122 L1462.63575,261.731107 L1462.5226,261.731107 L1462.5226,259.834101 L1462.15802,259.607967 L1461.83116,256.592858 L1461.20258,253.16317 L1460.33513,249.80886 L1459.22882,246.529928 L1457.88365,243.3515 L1456.32477,240.286138 L1454.55216,237.371532 L1452.57841,234.582555 L1450.41608,231.956897 L1450.2275,231.75589 L1450.1395,231.655386 L1448.20346,229.645313 L1448.06517,229.494557 L1447.83888,229.268424 L1447.58745,229.042291 L1447.28573,228.753343 L1444.90968,226.61764 L1442.39535,224.695507 L1441.4399,224.293493 L1440.43417,224.054797 L1440.24559,211.253143 L1440.24559,209.996847 L1440.14502,208.740551 L1439.96902,207.54707 L1439.96902,207.195307 L1439.71758,206.026952 L1439.39072,204.883723 L1439.01357,203.753057 L1438.48556,202.87365 L1437.95755,201.818361 L1437.36668,200.800762 L1436.72552,199.820851 L1436.00894,198.891192 L1435.70722,198.551992 L1435.70722,198.426363 L1435.70722,198.350985 L1435.70722,198.187666 L1435.70722,196.3786 L1435.70722,196.265534 L1435.70722,196.114778 L1435.70722,195.536882 L1435.64436,195.536882 L1435.64436,195.021801 L1435.01577,195.021801 L1435.01577,195.172556 L1435.01577,195.260497 L1435.01577,195.411253 L1435.01577,196.202719 L1435.01577,196.303223 L1435.01577,196.466541 L1435.01577,197.031874 L1435.01577,198.225355 L1434.47519,198.891192 L1433.82146,199.833414 L1433.74603,199.94648 L1433.11745,200.989206 L1432.55173,202.057057 L1432.04886,203.162598 L1431.62142,204.293264 L1431.25684,205.436493 L1430.96769,206.617411 L1430.96769,206.642537 L1430.75398,207.823455 L1430.60312,209.079751 L1430.52769,210.336047 L1430.52769,211.592342 L1430.67855,224.519626 L1429.68538,224.808574 L1428.75508,225.260841 L1426.24074,227.308603 L1425.92645,227.610114 L1423.5504,229.909135 L1421.35036,232.421727 L1420.98578,232.886556 L1419.85433,234.381548 L1419.35146,235.034822 L1418.9366,235.587592 L1417.06342,238.439383 L1415.39139,241.429367 L1413.94564,244.519855 L1412.68848,247.723409 L1411.68274,251.014904 L1410.91587,254.356651 L1410.40043,257.773776 L1410.40043,258.313983 L1410.40043,258.942131 L1410.19928,261.454722 L1410.19928,261.5301 L1410.27471,273.59054 L1410.12385,273.427221 L1410.12385,262.522574 L1410.12385,261.643167 L1410.04842,260.776322 L1409.93528,259.896915 L1409.75928,259.042634 L1409.54556,258.17579 L1409.26898,257.346635 L1408.94212,256.530043 L1408.57754,255.738576 L1408.1501,254.959673 L1407.68495,254.205896 L1407.19465,253.489807 L1406.76722,252.9496 L1406.76722,250.989778 L1406.76722,250.537512 L1406.31464,250.537512 L1406.31464,251.793808 L1406.31464,253.050103 L1406.45292,253.050103 L1406.1512,253.426992 L1405.66091,254.155644 L1405.19576,254.909421 L1404.79346,255.688325 L1404.42888,256.479791 L1404.10202,257.308946 L1403.83802,258.150664 L1403.6243,258.992382 L1403.46087,259.87179 L1403.36029,260.738634 L1403.28486,261.618041 L1403.28486,262.497448 L1403.28486,273.414658 L1401.91455,274.997591 L1401.75112,275.186035 L1400.14194,276.995101 L1398.88477,278.954923 L1397.62761,280.977559 L1396.57159,283.075573 L1395.64128,285.223839 L1394.84927,287.447482 L1394.18297,289.708814 L1393.66753,291.995273 L1393.27781,294.31942 L1393.03894,296.668693 L1393.03894,298.339567 L1392.0835,298.427507 L1392.0835,311.078406 L1357.93882,311.078406 L1350.24496,311.668865 L1328.5211,323.628801 L1313.33451,330.601242 L1313.77452,228.564899 L1309.66358,224.243241 L1309.99045,210.248106 L1309.99045,209.745588 L1309.99045,209.67021 L1309.99045,209.268195 L1300.76284,187.207641 L1301.02684,177.006519 L1301.02684,176.692445 L1297.89649,170.008952 L1297.82106,169.820507 L1294.36385,175.951231 L1294.26328,176.252742 L1293.97413,186.617182 L1283.58993,207.320937 L1283.27563,208.300847 L1282.92363,219.507006 L1278.52354,219.507006 L1278.62411,381.64454 L1278.62411,382.10937 L1272.11198,382.10937 L1273.04229,252.321452 L1271.50854,252.9496 L1268.30277,255.16068 L1263.50039,258.929568 L1259.96774,261.919552 L1256.64882,269.696023 L1256.64882,264.670839 L1249.9104,270.587993 L1248.82924,274.080495 L1239.16162,284.356994 L1239.02333,343.943104 L1246.44062,351.87033 L1240.68279,351.380375 L1240.44393,351.304997 L1239.71477,351.116553 L1237.66559,350.689412 L1236.72271,350.563782 L1234.93754,350.312523 L1234.08266,350.249708 L1233.05178,350.186894 L1232.1592,350.186894 L1230.37402,350.186894 L1229.56943,350.186894 L1228.52598,350.186894 L1227.63339,350.186894 L1226.95452,350.287397 L1224.91791,350.538657 L1222.90644,350.940671 L1222.07671,351.141678 L1221.6367,351.254745 L1216.29374,351.669323 L1216.29374,351.229619 L1223.43445,343.830037 L1223.43445,284.419809 L1213.64111,274.281502 L1212.19537,270.826689 L1205.53238,264.997476 L1205.53238,268.502542 L1202.31403,262.29644 L1199.03283,259.53259 L1194.41902,255.851643 L1191.37668,253.703377 L1189.99379,253.100355 L1190.57209,382.021429 C1188.05775,382.159621 1183.50681,382.209873 1183.50681,382.209873 L1179.34558,374.672099 L1179.24501,374.672099 L1179.24501,374.584158 L1179.34558,374.584158 L1178.33985,372.662025 L1178.1387,372.762529 L1178.35242,372.649462 L1173.82661,364.847866 L1169.58996,356.757321 L1169.41396,356.292491 L1169.30081,356.066358 L1169.36367,356.066358 L1167.3522,352.297471 L1167.28934,352.159278 L1165.68017,349.282361 L1165.61731,349.031102 L1165.52931,348.867783 L1164.54872,346.983339 L1164.39786,346.669265 L1160.92807,340.073713 L1159.99777,338.289773 L1158.09945,334.671641 L1157.15657,332.887701 L1156.75428,331.794723 L1156.90514,331.179138 C1158.09858,329.778138 1158.74587,327.99374 1158.72803,326.153955 C1158.70419,322.573903 1156.2488,319.467965 1152.76906,318.616181 L1152.69363,318.465425 L1152.51762,318.553366 L1152.09018,318.477988 L1151.91418,318.289544 L1151.80104,318.176477 L1151.26045,316.706611 L1150.65701,314.62116 L1150.36786,314.709101 L1150.65701,314.633723 L1139.3425,267.748764 L1138.66363,265.236173 L1138.66363,265.072854 L1138.44992,264.319077 L1138.44992,264.143195 L1135.93558,255.097866 C1137.46009,253.738016 1138.34726,251.803893 1138.38307,249.762127 C1138.41887,247.720361 1137.60005,245.756364 1136.12415,244.343974 L1135.24414,243.56507 L1135.16871,243.640448 C1134.58795,243.296284 1133.94869,243.06205 1133.28296,242.949485 L1131.58578,229.984513 L1131.37206,226.931714 L1131.17091,226.931714 L1131.17091,226.74327 L1126.70797,194.268024 L1126.70797,193.363491 L1126.64511,193.363491 L1126.64511,193.250424 L1126.64511,193.14992 L1126.43139,191.994128 L1122.15702,159.581697 L1122.15702,159.04149 L1122.15702,158.903297 L1122.09416,158.463594 L1121.17643,143.488548 L1121.17643,142.232252 L1121.11357,142.232252 L1121.11357,142.018682 L1121.00043,141.051334 L1117.22892,71.7917472 L1117.22892,71.0505327 L1117.22892,67.9349191 L1117.45521,67.6962229 L1117.34207,67.5957192 L1117.45521,67.4826526 L1117.22892,67.2565194 L1117.22892,67.0932009 L1117.22892,66.9047566 L1117.22892,66.6409344 L1117.44264,66.4148012 L1117.35464,66.3268605 L1118.02094,66.3268605 L1118.02094,65.0705647 L1118.24723,65.296698 L1119.05182,64.4801057 L1118.96382,64.4047279 L1118.96382,64.3293502 L1118.86324,64.2414095 L1118.72495,63.789143 L1118.6621,63.5755727 L1118.97639,63.2614988 L1120.42213,63.2614988 L1120.42213,62.608225 L1120.42213,62.3946547 L1120.42213,61.1383589 L1120.42213,60.0328186 L1120.42213,59.3669818 L1120.42213,56.1885535 L1119.16496,56.1885535 L1119.44154,56.037798 L1119.31582,55.8242277 C1121.99359,54.6558726 1123.65305,53.060377 1123.65305,51.276437 C1123.65305,49.4924969 1122.06902,47.9598161 1119.49183,46.804024 L1119.15239,46.7286462 C1118.76267,46.5653278 1118.33523,46.4020093 1117.89522,46.2638168 L1117.80722,45.5728541 L1117.80722,41.0501893 L1117.90779,41.0501893 L1117.90779,40.8114931 L1117.83236,40.8114931 L1117.83236,40.6733005 L1117.90779,40.6733005 L1117.83236,39.8818342 L1117.83236,37.7210054 C1117.86697,34.5570998 1116.31429,31.5859562 1113.69628,29.806342 L1113.69628,29.7435272 L1113.69628,29.504831 L1113.69628,29.3917643 L1113.69628,29.2912607 L1113.69628,29.1656311 L1113.16827,29.1656311 L1113.16827,29.1279422 L1112.82884,29.1279422 L1112.82884,28.2485352 L1112.9797,28.2485352 L1112.9797,28.0600908 L1112.9797,27.8590835 L1112.82884,27.8590835 L1112.82884,27.6706391 L1113.36942,27.6706391 L1113.36942,26.514847 L1112.8917,26.514847 L1112.8917,26.225899 L1112.66541,26.225899 L1112.66541,26.1505212 L1112.53969,26.1505212 L1112.66541,26.1505212 L1112.66541,25.5977511 L1112.66541,24.4796478 L1112.66541,24.3540182 L1112.66541,24.2535146 L1112.66541,24.0901961 L1112.66541,23.9771295 C1112.67223,23.8977103 1112.67223,23.8178525 1112.66541,23.7384333 C1112.66541,23.6756185 1112.66541,23.6128037 1112.66541,23.537426 L1112.66541,23.4620482 C1112.59896,22.988483 1112.38318,22.5484144 1112.04939,22.2057524 L1112.04939,22.1429377 L1112.04939,21.7157971 L1112.04939,21.439412 L1112.04939,20.534879 C1112.04939,19.0147611 1111.18195,1.33867941 1109.94992,0.911538844 C1109.85688,0.875014549 1109.75981,0.849709917 1109.66077,0.836161097 L1109.10762,0.610027855 L1108.56704,0.610027855 L1108.45389,0.610027855 L1108.25275,0.610027855 C1108.17052,0.631730198 1108.09055,0.661175576 1108.01389,0.69796856 C1107.8481,0.773510543 1107.68838,0.861712586 1107.53616,0.961790676 C1106.65614,1.56481265 1106.06528,18.9645093 1106.06528,20.1831162 L1106.06528,21.0248344 L1106.06528,21.2509676 L1106.06528,21.3389083 L1106.06528,21.4645379 L1106.06528,21.9293674 C1105.75332,22.2823502 1105.5522,22.7192619 1105.48698,23.1856632 C1105.48145,23.2651327 1105.48145,23.3448898 1105.48698,23.4243594 C1105.48075,23.5247667 1105.48075,23.625463 1105.48698,23.7258703 L1105.48698,23.9645665 L1105.48698,24.127885 L1105.48698,24.9821661 L1105.36126,25.1203587 L1105.49955,25.2585512 L1105.36126,25.3841808 L1105.51212,25.5349363 L1105.37383,25.6731288 L1105.49955,25.7987584 L1105.37383,25.924388 L1105.46183,25.9997657 L1105.17269,25.9997657 L1105.17269,26.3892174 L1104.79554,26.3892174 L1104.79554,27.5450095 L1105.33612,27.5450095 L1105.33612,27.695765 L1105.17269,27.695765 L1105.17269,28.2485352 L1105.24812,28.2485352 L1105.24812,28.3992907 L1105.24812,29.2284459 C1105.13552,29.2752753 1105.0263,29.3298455 1104.92125,29.3917643 L1104.66982,29.3917643 L1104.66982,29.4797051 L1104.17952,29.4797051 L1104.17952,29.793779 C1101.62537,31.5840194 1100.11627,34.5155569 1100.14402,37.6330647 C1100.13774,37.7418535 1100.13774,37.8509129 1100.14402,37.9597016 L1100.14402,38.0727682 C1100.14402,38.0727682 1100.14402,38.1732719 1100.14402,38.2235237 L1100.14402,38.437094 L1100.24459,38.437094 C1100.24459,38.437094 1100.24459,38.4999088 1100.24459,38.5375977 L1100.24459,45.8366762 C1096.69938,47.0050313 1094.39876,48.8643491 1094.39876,50.9498001 C1094.39876,52.6457994 1095.90736,54.1910432 1098.37141,55.3342724 L1098.82399,55.7739759 L1098.98742,55.9247314 L1097.36567,55.9247314 L1097.36567,63.0981803 L1098.06969,63.0981803 L1098.06969,63.3117506 L1098.83656,63.2363729 L1098.83656,63.4248172 L1098.83656,63.5630098 L1099.54057,63.5630098 L1098.82399,63.5630098 L1098.82399,63.789143 L1099.33943,63.789143 L1099.76687,64.1785947 L1099.62858,64.1785947 L1099.62858,64.681113 L1099.40229,64.9198092 L1099.61601,64.693676 L1099.61601,64.7816167 L1099.44,64.9700611 L1099.55315,65.0580018 L1099.45257,65.1710684 L1099.64115,65.4348905 L1099.72915,65.4348905 L1100.30745,65.9374088 L1100.49602,65.7489644 L1100.49602,65.8494681 L1100.49602,66.6534974 L1101.09946,66.6534974 L1101.09946,66.7288752 L1100.48345,66.7288752 L1100.48345,66.9424454 L1101.0366,66.9424454 L1101.12461,67.0303861 L1101.12461,67.1937046 L1101.25032,67.1937046 L1101.07432,67.1937046 L1101.07432,67.9223562 L1101.07432,69.4047852 L1101.07432,71.7289324 L1098.34627,141.817674 L1098.34627,142.332756 L1098.34627,142.621704 L1098.34627,143.28754 L1097.65482,159.04149 L1097.65482,159.141993 L1097.65482,159.393252 L1097.65482,159.920897 L1093.88332,192.785594 L1093.7576,193.476557 L1093.7576,193.577061 L1093.7576,193.740379 L1093.7576,194.305712 L1089.88553,227.698054 L1089.88553,227.974439 L1088.16321,242.861545 C1087.47133,243.040864 1086.81901,243.347625 1086.23974,243.766078 L1085.3723,244.570107 C1084.13013,245.918113 1083.44705,247.687495 1083.4614,249.519912 C1083.43355,251.594568 1084.31548,253.577533 1085.87516,254.94711 L1083.13454,265.160795 L1083.13454,265.336676 L1081.87737,269.89703 L1070.72629,318.540803 C1067.33889,319.482662 1064.99474,322.564933 1064.99361,326.078578 C1064.99813,327.757475 1065.54977,329.389215 1066.56507,330.726872 L1047.45612,369.056456 L1046.52581,370.651952 L1046.63896,370.651952 L1046.63896,370.752456 L1046.52581,370.689641 L1045.58294,372.536396 L1045.70865,372.599211 L1045.70865,372.72484 L1045.57037,372.662025 L1044.52692,375.111802 L1043.52118,377.159564 L1043.03089,377.724897 L1043.14403,377.825401 L1042.95546,378.189727 L1042.77945,378.114349 L1041.82401,379.973667 L1041.93715,379.973667 L1040.8057,382.033992 L1030.91179,382.033992 L1030.91179,378.516364 L1028.93804,377.033935 L1029.47862,336.166633 L1030.24549,336.166633 L1030.24549,333.792234 L1030.4215,333.603789 L1030.5975,333.440471 L1030.79865,333.289715 L1031.02494,333.151523 L1031.25123,333.038456 L1031.47752,332.92539 L1031.74152,332.837449 L1031.99295,332.762071 L1032.25696,332.762071 L1032.53354,332.762071 L1033.08669,332.762071 L1033.08669,332.045983 L1033.56441,332.045983 L1033.56441,331.731909 L1029.50376,331.731909 L1029.81805,308.352244 L1030.38378,308.138674 L1030.48435,308.138674 L1030.48435,306.518052 L1031.05008,306.304482 L1031.15065,306.304482 L1031.15065,304.545668 L1032.2821,304.055712 L1032.50839,303.955209 L1032.50839,303.02555 L1029.80548,303.02555 L1029.91863,294.382235 L1029.91863,292.761613 L1036.80791,288.377141 L1036.80791,286.668579 L1038.55537,285.52535 L1038.55537,284.985142 L1038.81938,284.809261 L1038.81938,282.623306 L1040.27769,281.605707 L1040.60455,281.379573 L1040.60455,279.934833 L1031.38951,280.010211 L1031.5278,270.23623 L1033.5267,268.276408 L1035.27416,266.555283 L1035.27416,265.123106 L1030.15749,265.185921 L1030.15749,261.216026 L1030.15749,261.027582 L1030.15749,260.876826 L1030.15749,260.788885 L1030.15749,260.726071 L1029.78034,260.726071 L1029.67977,260.663256 L1029.59176,260.663256 L1029.27747,260.550189 L1028.97575,260.474812 L1028.64889,260.474812 L1028.32203,260.474812 L1027.99516,260.550189 L1027.69344,260.688382 L1027.39172,260.663256 L1027.14029,260.876826 L1026.914,261.115522 L1026.05912,261.115522 L1025.22939,260.311493 L1024.37452,260.311493 L1023.51964,261.128085 L1022.87849,261.128085 L1022.04876,260.324056 L1021.10588,260.324056 L1020.25101,261.153211 L1019.40871,261.153211 L1019.18242,260.914515 L1018.93098,260.726071 L1018.65441,260.562752 L1018.35269,260.449686 L1018.03839,260.374308 L1017.71153,260.374308 L1017.38467,260.374308 L1017.07037,260.449686 L1016.76865,260.575315 L1016.47951,260.738634 L1016.2155,260.939641 L1015.98921,261.1909 L1015.15948,261.1909 L1014.30461,260.386871 L1013.4623,260.386871 L1012.62,261.216026 L1011.97885,261.216026 L1011.14911,260.411997 L1010.30681,260.411997 L1009.45194,261.241152 L1008.60964,261.241152 L1008.39592,261.002456 L1008.13191,260.801448 L1007.85533,260.650693 L1007.55361,260.537626 L1007.27704,260.663256 L1006.96275,260.663256 L1006.63588,260.663256 L1006.30902,260.751197 L1006.0073,260.864263 L1005.73072,261.040145 L1005.47929,261.241152 L1005.24043,261.479848 L1004.4107,261.479848 L1003.58096,260.675819 L1002.72609,260.675819 L1001.88379,261.492411 L1001.24263,261.492411 L1000.4129,260.700945 L999.583172,260.700945 L998.715726,261.517537 L997.885995,261.517537 L997.735135,261.354219 L997.47113,261.153211 L997.332841,261.065271 L997.194553,260.989893 L996.892833,260.876826 L996.578541,260.801448 L996.264249,260.801448 L995.937385,260.801448 L995.623093,260.876826 L995.321373,261.002456 L995.044796,261.165774 L994.793363,261.366782 L994.567072,261.618041 L993.72477,261.618041 L992.882468,260.814011 L992.052737,260.814011 L991.210435,261.630604 L990.581851,261.630604 L989.75212,260.826574 L988.897246,260.826574 L988.067515,261.65573 L987.162355,261.65573 L986.936065,261.429596 L986.684631,261.228589 L986.408054,261.065271 L986.106334,260.952204 L985.792042,260.889389 L985.465178,260.889389 L985.138315,260.889389 L984.836594,260.97733 L984.534874,261.090396 L984.258297,261.266278 L983.994292,261.467285 L983.780574,261.705981 L982.938271,261.705981 L982.108541,260.889389 L981.27881,260.889389 L980.713084,261.454722 L979.455917,261.354219 L979.015908,260.927078 L978.186177,260.927078 L977.884457,261.216026 L977.507307,261.216026 L975.7347,261.216026 L975.458123,261.115522 L975.156403,261.040145 L974.842111,261.040145 L974.515248,261.040145 L974.200956,261.115522 L971.68662,261.115522 L971.598619,261.027582 L970.768888,261.027582 L970.655743,261.153211 L968.60656,261.153211 L968.480843,261.040145 L967.651112,261.040145 L967.575682,261.115522 L966.318514,261.115522 L964.985917,261.115522 L964.684196,261.115522 L964.369904,261.115522 L964.043041,261.115522 L963.728749,261.1909 L963.464744,261.303967 L961.666994,261.379344 L961.314987,261.379344 L961.025838,261.090396 L960.196108,261.090396 L959.756099,261.517537 L958.498931,261.668293 L957.933206,261.115522 L957.103475,261.115522 L956.273744,261.944678 L955.444014,261.944678 L955.230295,261.718544 L954.991433,261.517537 L954.702285,261.366782 L954.400565,261.241152 L954.098844,261.178337 L953.784552,261.178337 L953.47026,261.178337 L953.155969,261.241152 L952.854248,261.366782 L952.577671,261.5301 L952.33881,261.74367 L952.112519,261.969803 L951.29536,261.969803 L950.453058,261.178337 L949.447324,261.178337 L948.617593,261.994929 L948.001581,261.994929 L947.17185,261.203463 L946.354691,261.203463 L945.524961,262.020055 L944.69523,262.020055 L944.418653,261.919552 L944.16722,261.731107 L943.890643,261.567789 L943.601494,261.442159 L943.287202,261.442159 L942.97291,261.442159 L942.646047,261.442159 L942.344326,261.517537 L942.055178,261.630604 L941.879174,261.74367 L941.766029,261.74367 L941.527167,261.957241 L941.439166,262.057744 L941.313449,262.195937 L940.483718,262.195937 L939.666559,261.417033 L938.836829,261.417033 L938.01967,262.233626 L937.403657,262.233626 L936.586498,261.442159 L935.756768,261.442159 L934.939609,262.258752 L934.109878,262.258752 L933.896159,262.020055 L933.657298,261.831611 L933.368149,261.668293 L933.066429,261.555226 L932.77728,261.555226 L932.462988,261.555226 L932.148696,261.555226 L931.834404,261.630604 L931.545256,261.756233 L931.268679,261.906989 L931.017245,262.120559 L930.803527,262.359255 L929.973796,262.359255 L929.156637,261.580352 L928.339478,261.580352 L927.522319,262.384381 L926.906307,262.384381 L926.089148,261.592915 L925.259417,261.592915 L924.45483,262.409507 L923.637671,262.409507 L923.411381,262.183374 L923.172519,261.982366 L922.895942,261.819048 L922.606794,261.718544 L922.292502,261.643167 L921.97821,261.643167 L921.663918,261.643167 L921.349626,261.718544 L921.060477,261.844174 L920.796472,261.994929 L920.545039,262.195937 L920.33132,262.434633 L919.514161,262.434633 L918.697002,261.643167 L917.879843,261.643167 L917.062684,262.447196 L916.446672,262.447196 L915.629513,261.65573 L914.812354,261.65573 L914.007767,262.459759 L913.178036,262.459759 L912.976889,262.233626 L912.725455,262.032618 L912.448879,261.8693 L912.147158,261.768796 L911.845438,261.693418 L911.543718,261.693418 L911.229426,261.693418 L910.915134,261.781359 L910.625985,261.906989 L910.525412,261.906989 L910.43741,261.906989 L910.072832,261.906989 L910.072832,262.007492 L910.072832,262.145685 L910.072832,262.334129 L910.072832,266.228646 L905.195021,266.228646 L905.195021,267.635697 L905.471598,267.912083 L906.841911,269.281445 L908.740234,271.165889 L908.815664,280.7263 L900.01549,280.801677 L900.01549,282.221292 L900.304639,282.434862 L901.700095,283.427336 L901.700095,285.550475 L902.001815,285.751483 L902.001815,286.29169 L903.648705,287.384667 L903.648705,289.030415 L910.185977,293.264132 L910.185977,294.834501 L910.185977,303.289372 L907.671641,303.289372 L907.671641,304.206468 L907.88536,304.294409 L908.966524,304.771801 L908.966524,306.492926 L909.079669,306.492926 L909.60768,306.731622 L909.60768,308.301992 L909.708253,308.301992 L910.248835,308.490437 L910.412267,331.405272 L906.527619,331.405272 L906.527619,331.706783 L906.980199,331.706783 L906.980199,332.410308 L907.495638,332.410308 L907.747071,332.410308 L908.011077,332.410308 L908.26251,332.485686 L908.501372,332.573627 L908.727662,332.67413 L908.941381,332.79976 L909.155099,332.92539 L909.356246,333.088708 L909.519678,333.239464 L909.68311,333.402782 L909.68311,335.739492 L910.28655,335.739492 L910.28655,376.066587 L909.217958,377.498764 L908.916237,377.73746 L908.916237,382.234999 L888.436976,382.234999 L888.147827,334.143996 L886.664369,333.892737 L885.407201,333.892737 L885.231198,302.648661 L883.835742,302.648661 L883.710025,278.980048 L882.679148,278.980048 L882.389999,225.801048 L882.012849,225.801048 L882.012849,224.783448 L881.484838,224.783448 L881.484838,223.954293 L880.441389,223.954293 L880.441389,223.539715 L878.429921,223.539715 L878.429921,221.027124 L878.228774,220.826116 L875.148713,217.647688 L871.930364,221.228131 L871.930364,221.454264 L871.930364,223.966856 L840.86575,223.966856 L840.86575,223.564841 L838.816567,223.564841 L838.741137,224.004545 L838.653135,224.406559 L838.376558,224.406559 L838.275985,224.946767 L838.187983,225.424159 L838.074838,225.424159 L837.961693,226.052307 L837.697687,227.308603 L837.697687,232.497104 L837.031389,232.497104 L836.867957,233.263445 L836.629095,233.263445 L836.44052,234.205667 L836.302231,234.205667 L836.075941,235.374022 L836.075941,278.439841 L821.945376,278.439841 L821.442509,271.505089 L819.959051,252.962163 L818.085871,201.818361 L816.187548,252.974726 L814.678947,271.580466 L814.17608,278.527782 L799.203213,278.527782 L799.203213,235.487088 L798.926636,234.331296 L798.712917,233.389074 L798.474055,233.389074 L798.298052,232.622734 L797.380319,232.622734 L797.380319,227.446795 L797.066028,226.127685 L796.927739,225.499537 L796.814594,225.034707 L796.688877,224.469374 L796.437444,224.469374 L796.33687,224.092486 L796.236297,223.640219 L792.603082,223.640219 L792.603082,224.042234 L763.021926,224.042234 L763.021926,222.107538 L762.871066,221.868842 L759.615002,218.489406 L756.233221,221.718086 L756.233221,221.94422 L756.233221,223.652782 L754.825193,223.652782 L754.825193,224.06736 L754.108607,224.06736 L754.108607,224.883952 L753.542882,224.883952 L753.542882,225.914114 L753.190875,225.914114 L752.914298,278.980048 L751.807991,278.980048 L751.682274,302.610972 L750.060527,302.610972 L749.884524,333.779671 L748.72793,333.779671 L747.131327,334.043493 L746.85475,382.159621 L744.52899,382.159621 L743.762117,333.164086 L737.991718,319.721721 L737.991718,316.317159 L736.948268,312.322139 L736.457973,314.633723 L735.867104,314.633723 L732.347035,306.430111 L732.347035,304.193905 L717.550171,304.269283 L714.218676,305.085875 L712.207208,305.550704 L712.056348,294.847064 L708.284845,294.847064 L706.009371,295.625968 L706.336235,321.618727 L702.564732,312.221635 L702.564732,310.487947 L691.074219,310.487947 L689.025036,310.990465 L687.340431,311.39248 L687.239858,303.000424 L684.18494,303.000424 L682.927773,303.490379 L683.166634,325.211733 L682.638624,326.706725 L678.024819,326.706725 L665.163993,326.706725 L652.303168,326.706725 L652.303168,327.963021 L652.202594,327.66151 L652.202594,322.447883 L652.114592,322.070994 L651.951161,303.226557 L651.19686,303.226557 L651.008285,280.374537 L651.838015,279.545382 L651.838015,274.030243 L647.588789,274.030243 L646.256191,275.613176 L646.256191,280.977559 L646.960205,280.977559 L647.136208,302.246646 L646.872203,301.191358 L645.212742,301.191358 L639.165765,282.648432 L639.090335,269.457326 L624.80891,269.633208 L624.896912,283.088136 L619.365374,303.678824 L617.115044,312.045754 L616.93904,281.580581 L617.16533,281.580581 L617.705913,280.173529 L617.705913,274.683517 L613.519544,274.683517 L613.092107,276.216198 L613.092107,281.555455 L613.783549,281.555455 L614.047555,330.789687 L614.122985,330.789687 L614.122985,333.226901 L613.142394,333.226901 L612.840674,330.714309 L610.225765,310.03568 L610.162906,296.455123 L588.665339,296.631004 L588.665339,309.080896 L588.640195,309.080896 L588.640195,298.289315 L588.07447,298.289315 L588.07447,295.236516 L587.961325,294.784249 L587.961325,235.738347 L587.609318,232.572482 L587.471029,231.818705 L585.82414,228.992039 L584.02639,227.572425 L585.937285,227.29604 L585.937285,226.366381 L585.811568,225.700544 L584.717832,225.574915 L584.717832,211.11495 L585.975,210.90138 L585.975,210.172728 L585.849283,209.368699 L585.120126,209.255632 L584.730404,206.906359 L582.907511,204.53196 L580.657181,204.117382 L580.883471,204.016879 L581.273193,203.715368 L581.562341,203.325916 L581.750916,202.886213 L581.813775,202.396257 L581.750916,201.918865 L581.562341,201.479161 L581.260621,201.114836 L580.883471,200.825888 L580.556607,200.700258 L579.90288,180.122133 L579.312011,200.725384 L578.997719,200.863576 L578.607997,201.165087 L578.306277,201.541976 L578.117702,201.994243 L578.117702,202.471635 L578.117702,202.949027 L578.318849,203.388731 L578.607997,203.76562 L578.997719,204.054568 L579.224009,204.129945 L576.898249,204.645027 L574.811351,207.107366 L574.421629,209.431514 L573.541611,209.607395 L573.541611,210.336047 L573.793045,211.127513 L574.786207,211.265706 L574.786207,225.713107 L573.52904,225.901551 L573.52904,226.843773 L573.767902,227.497047 L575.427363,227.672928 L573.516468,229.180483 L571.844435,232.032275 L571.492428,235.210703 L571.492428,294.87219 L571.492428,296.731508 L550.397154,296.894826 L550.397154,310.299502 L548.184539,325.626311 L548.184539,323.616238 L547.480525,321.254402 L547.480525,282.309232 L548.159396,282.309232 L548.159396,276.995101 L546.83937,275.474983 L542.766146,275.537798 L542.766146,280.927307 L543.558162,281.70621 L543.558162,308.214051 L542.300994,304.093401 L536.241446,283.992669 L536.241446,270.713622 L522.538318,270.902067 L522.538318,284.068046 L516.25248,302.234083 L515.523322,302.234083 L515.523322,282.585617 L516.227336,282.585617 L516.227336,277.346864 L514.065008,275.864435 L510.054643,275.864435 L510.054643,281.228818 L510.884374,281.718773 L510.796372,316.091026 L509.086624,322.900149 L509.086624,327.045925 L490.882836,327.045925 L489.7891,324.118756 L489.877101,304.80949 L488.192497,304.369786 L485.464443,304.369786 L485.464443,312.297013 L484.119273,312.033191 L481.69294,311.593487 L479.983192,311.593487 L479.983192,303.904957 L479.329464,303.741638 L471.220733,303.741638 L471.220733,313.289486 L468.706397,319.784536 L468.115529,316.794552 L467.411515,319.998106 L467.411515,323.088594 L465.852627,327.033362 L464.168022,327.033362 L461.82969,320.902639 L461.98055,297.296841 L459.302783,296.580752 L455.883287,296.580752 L455.883287,298.35213 L447.321975,298.414944 L447.259116,305.889904 L437.201775,305.965282 L437.201775,308.063296 L434.410863,314.734227 L434.058856,313.302049 L432.952548,317.309633 L432.952548,318.276981 L426.74214,333.189212 L426.352418,374.835417 L416.295076,374.835417 L416.295076,369.521286 L422.015189,363.239807 L419.500854,362.599096 L417.07452,361.80763 L414.660758,360.890534 L412.297283,359.847808 L409.958951,358.66689 L407.658334,357.410594 L405.395432,355.978417 L403.157674,354.420611 L400.95763,352.737174 L398.807874,350.953234 L396.68326,349.043665 L395.275232,347.686865 L395.275232,345.814984 L394.018065,345.814984 L394.018065,347.674302 L392.522035,348.993413 L391.264867,350.174331 L390.762,350.174331 L382.540124,347.347665 L382.540124,336.895284 L382.690984,336.895284 L382.690984,336.15407 L378.39147,336.15407 L378.39147,329.947969 L380.076075,328.503228 L376.178855,325.651437 L373.978812,326.380089 L370.207308,329.10625 L371.829055,330.437924 L371.829055,336.128944 L358.792226,336.128944 L358.792226,335.777181 L358.968229,335.777181 L358.968229,334.960589 L351.035501,334.960589 L351.035501,332.071108 L342.901626,332.071108 L341.983894,330.638931 L341.606743,330.148976 L341.606743,323.239349 L345.793112,321.983053 L350.670923,318.616181 L349.024033,318.616181 L348.219445,318.52824 L347.42743,318.364921 L346.635414,318.151351 L345.881114,317.874966 L345.139385,317.535766 L344.435371,317.158877 L343.731357,316.706611 L343.07763,316.204093 L342.449046,315.663885 L341.858177,315.073426 L340.425006,297.284278 L340.425006,291.329436 L340.349576,291.254058 L340.223859,291.153555 L340.223859,291.002799 L340.123286,290.814355 L339.997569,290.701288 L339.909567,290.53797 L339.796422,290.41234 L339.544988,290.148518 L339.205553,290.022888 L338.87869,289.897259 L338.702686,289.897259 L338.526683,289.897259 L338.338107,289.809318 L336.515214,289.809318 L336.402069,290.010325 L336.402069,290.161081 L336.301496,290.161081 L335.622625,290.274148 L335.522052,290.487718 L335.522052,291.266621 L335.66034,291.417377 L335.773485,291.580695 L336.100349,291.706325 L336.477499,291.794265 L336.804363,291.794265 L336.967795,291.794265 L337.093511,291.957584 L337.219228,292.032962 L337.332373,292.158591 L337.583807,292.447539 L337.696952,293.779213 L337.696952,294.030472 L337.520948,294.244042 L337.131226,294.583242 L242.152207,294.821938 L241.988775,294.683746 L241.712198,294.357109 L241.712198,294.030472 L241.812772,292.774176 L242.051634,292.472665 L242.17735,292.347036 L242.303067,292.271658 L242.428784,292.108339 L242.592216,292.108339 L242.906508,292.108339 L243.283658,292.007836 L243.610522,291.894769 L243.723667,291.718888 L243.861955,291.580695 L243.861955,290.789229 L243.635665,290.588222 L242.981938,290.475155 L242.981938,290.311836 L242.755648,290.110829 L240.781894,290.110829 L240.593319,290.211333 L240.329314,290.211333 L240.253884,290.211333 L239.92702,290.336962 L239.600157,290.437466 L239.348723,290.726414 L239.223006,290.839481 L239.147576,291.002799 L239.02186,291.115866 L238.933858,291.30431 L238.870999,291.442503 L238.745283,291.568132 L238.669853,291.568132 L238.669853,297.497848 L235.677793,315.199056 L236.054944,315.374937 L235.602363,315.789515 L234.936065,316.342285 L234.232051,316.832241 L233.502893,317.271944 L232.748593,317.661396 L231.956577,318.000596 L231.15199,318.289544 L230.347402,318.452862 L229.492528,318.603618 L228.637654,318.704121 L226.890191,318.704121 L236.004657,322.045868 L236.243519,322.121246 L236.243519,332.096234 L235.702937,332.096234 L235.702937,334.973152 L219.221468,334.973152 L219.221468,335.789744 L219.221468,336.179196 L212.432763,336.179196 L212.432763,330.538428 L214.079652,329.282132 L210.521868,326.581096 L207.353805,325.865007 L203.682876,328.666547 L205.36748,330.086161 L205.36748,336.254573 L199.207359,336.254573 L199.207359,336.995788 L199.056499,336.995788 L199.056499,347.347665 L191.438062,350.136642 L188.810582,350.136642 L187.352267,348.943161 L185.089365,347.058717 L183.593336,345.651666 L183.593336,343.691844 L182.260738,343.691844 L182.260738,345.651666 L180.752137,347.046154 L178.476663,349.031102 L176.289192,350.890419 L173.938288,352.624108 L171.562241,354.232166 L169.148479,355.714595 L166.634144,357.058832 L164.119808,358.315127 L161.605473,359.395542 L159.367714,360.212134 L159.166568,344.031044 L158.776846,325.927822 L158.525412,302.121017 L158.374552,301.970261 L158.072832,301.844632 L157.60768,301.731565 L157.029382,301.656187 L157.029382,300.864721 L156.903666,299.256662 L156.903666,298.741581 L156.903666,297.837048 L157.041954,297.585789 L157.041954,297.095834 L157.041954,296.970204 L157.041954,296.794323 L156.941381,296.543064 L156.840807,296.291804 L155.369921,296.291804 L155.231633,296.543064 L155.231633,297.045582 L155.231633,297.510411 L155.231633,298.151122 L154.917341,300.236573 L154.917341,301.656187 L154.515047,301.731565 L154.024752,301.857195 L153.647601,302.00795 L153.433883,302.158706 L153.433883,302.322024 L153.672745,324.734341 L153.446455,324.734341 L153.446455,318.653869 L151.145838,318.653869 L150.982406,318.880003 L150.982406,322.460446 L124.003587,322.548386 L124.003587,318.779499 L121.941832,318.779499 L121.941832,309.420095 L121.85383,289.407303 L121.85383,289.218859 L121.652684,289.055541 L121.300677,288.904785 L120.79781,288.791719 L120.194369,288.716341 L120.194369,287.887186 L120.194369,286.316816 L120.194369,285.814298 L120.194369,284.93489 L120.194369,284.63338 L120.194369,284.118298 L120.194369,283.967543 L120.194369,283.728847 L120.194369,283.515276 L118.522336,283.515276 L118.522336,283.804224 L118.522336,284.306743 L118.522336,284.759009 L118.522336,285.39972 L118.459478,287.598238 L118.459478,288.791719 L118.157757,288.791719 L117.592032,288.904785 L117.139452,289.042978 L116.837731,289.218859 L116.712015,289.407303 L116.712015,298.35213 L113.631954,298.35213 L113.631954,298.641078 L113.631954,302.121017 L69.4299375,302.34715 L69.4299375,298.879774 L69.3167924,298.590826 L65.2938558,298.590826 L65.2938558,289.721377 L65.1555673,289.532933 L64.8538471,289.369615 L64.4012667,289.218859 L63.8355413,289.09323 L63.8355413,287.836934 L63.571536,285.701231 L63.571536,285.047957 L63.571536,284.608254 L63.571536,284.105735 L63.4583909,283.82935 L62.0377915,283.82935 L61.9623614,284.055483 L61.8869313,284.281617 L61.8869313,284.432372 L61.8869313,284.558002 L61.8869313,284.960016 L62.0000764,285.236401 L62.0000764,286.128371 L62.0000764,286.618327 L61.899503,288.188697 L61.899503,289.005289 L61.434351,289.005289 L60.9314839,289.118355 L60.5794769,289.269111 L60.3657584,289.444992 L60.3657584,289.620874 L60.0640382,309.658792 L59.9886081,319.043321 L58.1154282,319.043321 L58.1154282,322.812208 L31.4886165,322.900149 L31.4886165,319.344832 L31.2497546,319.118699 L28.7982776,319.118699 L29.0119961,302.950172 L29.0119961,302.786854 L28.8108493,302.636098 L28.433699,302.485343 L27.9434036,302.34715 L27.7548284,302.34715 L27.7548284,300.852158 L27.264533,298.791833 L27.264533,298.163685 L27.3399631,297.698856 L27.3399631,297.183774 L27.1388162,296.945078 L25.6930734,296.945078 L25.554785,297.196337 L25.4039248,297.447597 L25.3159231,297.623478 L25.2279214,297.76167 L25.2279214,298.151122 L25.4416399,298.402381 L25.4416399,299.294351 L25.3787815,299.79687 L25.1902063,301.404928 L25.1902063,302.208958 L24.7501976,302.208958 L24.2850456,302.296898 L23.9833253,302.422528 L23.8324652,302.573283 L23.5056016,326.21677 L23.0781646,340.551105 L0.285714286,340.639046 Z M2148.09386,387.46119 L2157.98777,390.036596 L2159.38323,390.036596 L2161.67127,393.642165 L2162.28729,395.199972 L2158.39007,393.642165 L2151.07335,389.634581 L2148.09386,387.46119 Z M1771.13213,352.435663 L1771.20756,331.719346 L1771.20756,320.789572 L1781.2649,335.161596 L1781.67977,334.897774 L1781.67977,334.822396 L1781.25233,334.206811 L1785.38841,330.67662 L1785.76556,331.216827 L1786.54501,330.701746 L1786.54501,330.638931 L1786.13014,330.023346 L1790.24108,326.505718 L1790.61823,327.033362 L1791.42282,326.518281 L1791.42282,326.442903 L1791.00795,325.827318 L1795.13146,322.297127 L1795.49604,322.849897 L1796.30063,322.322253 L1796.30063,322.322253 L1795.87319,321.694105 L1799.00354,319.030758 L1798.85268,321.442846 L1800.33613,322.272001 L1800.33613,322.272001 L1799.9087,359.734742 L1787.9656,359.596549 L1786.70844,356.933202 L1786.70844,352.624108 L1781.29004,352.624108 L1773.74704,352.624108 L1773.74704,352.624108 L1771.13213,352.435663 Z M1116.03462,245.587706 L1111.49624,245.587706 L1111.49624,245.587706 L1110.36479,245.587706 L1110.36479,245.587706 L1105.82641,245.587706 L1105.82641,245.13544 L1106.59329,236.793636 L1106.59329,236.793636 L1107.1213,230.072453 L1106.88243,230.072453 L1106.88243,230.072453 L1107.08358,230.072453 L1107.08358,229.997076 L1106.88243,229.997076 L1106.88243,229.205609 L1107.09615,229.205609 L1107.09615,229.205609 L1107.09615,229.205609 L1107.09615,229.205609 L1107.09615,229.205609 L1107.09615,229.205609 L1107.37273,229.142795 L1107.2093,228.476958 L1107.2093,228.476958 L1107.71216,222.28342 L1107.71216,222.28342 L1107.8756,221.240694 L1107.8756,221.240694 L1108.15217,219.469317 L1107.93846,219.469317 L1107.93846,219.205495 L1108.16475,219.205495 L1108.45389,213.250653 L1108.86876,208.09984 L1108.86876,208.09984 L1108.86876,208.024462 L1108.86876,208.024462 L1108.86876,207.069678 L1110.46536,187.358397 L1110.46536,187.685034 L1111.01852,194.519283 L1111.01852,194.657475 L1111.01852,194.657475 L1111.01852,194.770542 L1111.01852,194.770542 L1111.01852,195.788141 L1111.01852,195.788141 L1111.01852,196.328349 L1111.08137,196.328349 L1111.08137,196.428852 L1111.08137,196.428852 L1111.14423,197.421326 L1111.14423,197.421326 L1111.21966,198.187666 L1111.62196,201.617354 L1112.12482,207.961648 L1112.12482,207.961648 L1112.25054,209.293321 L1113.04256,219.130117 L1113.11799,219.130117 L1113.11799,219.205495 L1113.04256,219.205495 L1113.13056,219.795954 L1113.13056,219.795954 L1113.13056,219.795954 L1114.27458,226.83121 L1115.53175,240.273575 L1116.03462,245.587706 Z M1128.93316,320.601128 L1094.3359,320.601128 L1102.14291,272.120673 L1102.25606,271.505089 L1102.65835,269.495015 L1119.63011,269.495015 L1128.93316,320.601128 Z M1071.64402,373.239921 L1072.71262,371.053967 L1072.8509,371.15447 L1073.74349,369.684604 L1073.63035,369.609227 L1073.70578,369.471034 L1073.81892,369.533849 L1074.53551,368.076546 L1074.24636,367.938353 L1075.36524,365.626769 C1075.36524,363.955896 1076.38355,361.782504 1078.24415,359.496045 L1078.24415,359.496045 L1078.24415,359.496045 L1078.24415,359.496045 C1083.52426,352.950744 1095.64336,345.425533 1110.66651,345.425533 C1130.59262,345.425533 1148.16782,358.717142 1148.72098,365.300132 L1148.98498,365.71471 L1148.83412,365.80265 L1152.0399,372.209759 L1152.17819,372.134381 L1152.27876,372.347951 L1152.27876,372.347951 L1153.02049,374.006262 L1153.17135,373.943447 L1153.4605,374.496217 L1153.38507,374.571595 L1153.64907,374.84798 L1153.93822,375.413313 C1153.15261,376.771168 1152.75271,378.317523 1152.78163,379.885726 C1152.78228,380.664457 1152.87512,381.440376 1153.0582,382.19731 L1072.19718,382.19731 C1072.32636,381.964001 1072.4357,381.72026 1072.52404,381.468659 L1072.7629,381.041518 L1072.68747,381.041518 C1072.78805,380.75257 1072.8509,380.451059 1072.92633,380.136985 L1072.92633,380.136985 L1072.92633,379.760097 C1073.01764,379.241601 1073.0639,378.716188 1073.06462,378.189727 C1073.08472,376.723615 1072.73448,375.276115 1072.04632,373.981136 L1072.04632,373.428366 L1071.71945,373.428366 C1071.69813,373.364092 1071.67294,373.301163 1071.64402,373.239921 L1071.64402,373.239921 Z M984.358871,331.78216 L985.741755,331.78216 L985.741755,331.78216 L984.358871,331.78216 Z M954.186846,369.018768 L954.186846,335.538485 L954.727428,335.375166 L954.727428,333.528412 L954.840573,333.377656 L954.96629,333.252026 L955.104578,333.126397 L955.242867,333.01333 L955.406299,332.912827 L955.569731,332.824886 L955.745734,332.762071 L955.909166,332.699256 L956.047454,332.699256 L956.650895,332.699256 L956.650895,332.133923 L956.99033,332.133923 L956.99033,331.895227 L954.199418,331.895227 L954.58914,327.824829 L956.022311,324.055941 L958.385786,320.814698 L961.528705,318.302107 L965.224778,316.731737 L968.883136,316.216656 L969.562007,316.216656 L973.220365,316.706611 L976.991868,318.264418 L980.147359,320.777009 L982.510834,324.030815 L983.931434,327.799703 L984.296012,331.895227 L981.467385,331.895227 L981.467385,332.133923 L981.794249,332.133923 L981.794249,332.711819 L982.372546,332.711819 L982.535978,332.711819 L982.711981,332.774634 L982.887985,332.850012 L983.051416,332.92539 L983.214848,333.038456 L983.365708,333.151523 L983.503997,333.264589 L983.629713,333.402782 L983.742859,333.553537 L983.742859,335.47567 L984.296012,335.613863 L984.094866,369.295153 L984.094866,369.546412 L982.636551,369.546412 L982.636551,376.883179 L982.636551,377.197253 L982.133684,377.197253 L982.133684,380.488748 L982.611408,382.272688 L955.519444,382.272688 L956.060026,380.262615 L956.060026,376.983683 L955.594874,376.983683 L955.594874,369.37053 L954.199418,369.37053 L954.186846,369.018768 Z M122.230981,357.398032 L123.261858,357.398032 L123.337288,357.398032 L124.669886,350.362775 L126.467636,350.362775 L128.215099,349.370301 L130.943153,349.370301 L131.031155,349.282361 L132.175177,346.958214 L143.414256,346.958214 L144.671424,349.357738 L147.374335,349.357738 L149.146941,350.350212 L151.007549,350.350212 L152.453292,357.43572 L154.125325,357.43572 L154.125325,360.714652 L153.383596,360.714652 L152.654439,360.714652 L152.227002,360.714652 L152.101285,360.714652 L152.101285,361.719689 L151.133266,361.933259 L151.133266,366.154413 L151.749278,366.154413 L151.91271,366.330295 L152.050998,366.531302 L152.151572,366.757435 L152.239574,366.996131 L152.239574,367.222265 L152.239574,367.71222 L152.239574,367.963479 L152.164143,368.189612 L152.050998,368.415746 L151.925282,368.629316 L151.749278,368.81776 L151.573275,369.043893 L151.422415,369.295153 L151.321841,369.558975 L151.233839,369.83536 L151.233839,370.124308 L151.233839,370.689641 L151.233839,370.966026 L151.334413,371.242411 L151.447558,371.506233 L151.598418,371.757492 L151.786993,371.983626 L151.786993,374.144454 L151.170981,374.144454 L151.170981,374.885669 L124.770459,374.885669 L124.770459,374.207269 L124.192162,374.144454 L124.192162,371.996189 L124.368166,371.757492 L124.519026,371.506233 L124.745316,371.217285 L124.833318,370.9409 L124.833318,370.639389 L124.833318,370.061493 L124.833318,369.772545 L124.757888,369.483597 L124.632171,369.219775 L124.493883,368.968516 L124.330451,368.72982 L124.154447,368.541375 L124.02873,368.327805 L123.928157,368.101672 L123.840155,367.862975 L123.840155,367.611716 L123.840155,367.121761 L123.840155,366.883065 L123.915585,366.644369 L124.016159,366.405672 L124.141876,366.192102 L124.141876,366.192102 L124.242449,366.192102 L124.720173,366.053909 L124.845889,366.053909 L124.845889,361.694563 L124.204734,361.694563 L124.204734,360.903097 L123.928157,360.903097 L123.337288,360.903097 L122.230981,360.903097 L122.230981,357.398032 Z M64.8287037,360.840282 L64.9418488,336.041003 L66.4755934,336.041003 L67.8836212,329.043436 L69.7190861,329.043436 L71.4539775,328.063525 L74.156888,328.063525 L75.1500505,326.103703 L106.126663,325.990637 L107.38383,328.402725 L110.036454,328.402725 L111.783917,329.370072 L113.619382,329.370072 L115.014838,336.392766 L116.875446,336.392766 L116.875446,336.292262 L116.97602,360.714652 L116.586298,360.714652 L115.932571,360.714652 L115.32913,360.714652 L115.014838,360.714652 L115.014838,361.506119 L114.826263,361.506119 L114.511971,361.80763 L114.511971,366.192102 L115.077696,366.192102 L115.215985,366.367983 L115.32913,366.568991 L115.442275,366.795124 L115.517705,367.021257 L115.517705,367.272516 L115.517705,367.49865 L115.517705,367.749909 L115.517705,367.988605 L115.517705,368.227301 L115.417132,368.453434 L115.291415,368.654442 L115.140555,368.842886 L114.964551,369.081582 L114.838835,369.332841 L114.738261,369.584101 L114.650259,369.860486 L114.650259,370.149434 L114.650259,370.425819 L114.650259,370.72733 L114.650259,370.991152 L114.687975,371.217285 L114.788548,371.481107 L114.926836,371.732366 L115.10284,371.9585 L115.10284,374.106765 L114.549686,374.106765 L114.549686,374.860543 L67.544186,374.860543 L67.544186,374.106765 L66.9156021,374.106765 L66.9156021,371.971063 L67.0916056,371.744929 L67.2424657,371.49367 L67.3556108,371.229848 L67.4436125,370.966026 L67.4436125,370.689641 L67.4436125,370.111745 L67.4436125,369.822797 L67.3681825,369.558975 L67.2550374,369.295153 L67.1041773,369.043893 L66.9281738,368.81776 L66.7773137,368.629316 L66.6390252,368.428309 L66.5384518,368.202175 L66.4630217,367.963479 L66.4630217,367.737346 L66.4630217,367.234828 L66.4630217,366.996131 L66.5384518,366.769998 L66.6515969,366.556428 L66.7898853,366.342858 L66.9407455,366.166976 L67.5316143,366.166976 L67.5316143,361.945822 L66.7018836,361.732252 L66.7018836,360.903097 L66.5258801,360.903097 L66.0732998,360.903097 L65.3315708,360.903097 L64.8287037,360.840282 Z M28.0942637,360.714652 L28.0942637,357.460846 L29.6908667,357.460846 L31.1366095,350.413027 L32.9720744,350.413027 L34.7069658,349.433116 L37.4098763,349.433116 L38.667044,347.046154 L48.9883908,347.046154 L50.0946984,349.345176 L50.3084169,349.420553 L52.9610407,349.420553 L54.5576437,350.325086 L54.7336471,350.413027 L56.4182519,350.413027 L57.6754196,357.410594 L57.851423,357.410594 L59.5737428,357.410594 L59.5737428,360.802593 L58.1154282,360.802593 L57.6879912,360.802593 L57.5622745,360.802593 L57.5622745,361.594059 L56.5816837,361.594059 L56.5816837,365.92828 L56.6571137,365.92828 L57.2479825,366.003658 L57.3611276,366.129287 L57.4994161,366.330295 L57.6125612,366.568991 L57.6879912,366.807687 L57.6879912,367.046383 L57.6879912,367.285079 L57.6879912,367.536339 L57.6879912,367.787598 L57.6125612,368.026294 L57.4868444,368.252427 L57.348556,368.453434 L57.1851242,368.641879 L57.0091207,368.880575 L56.8456889,369.144397 L56.7199721,369.420782 L56.6319704,369.697167 L56.6319704,369.973552 L56.6319704,370.275063 L56.6319704,370.564011 L56.6319704,370.852959 L56.7199721,371.129344 L56.8456889,371.40573 L56.996549,371.656989 L57.1725525,371.895685 L57.1725525,374.069077 L56.5439686,374.069077 L56.5439686,374.747476 L31.1868962,374.747476 L31.1868962,373.993699 L30.5457407,373.993699 L30.5457407,371.845433 L30.7468875,371.6193 L30.8977477,371.368041 L31.0234644,371.104219 L31.1240378,370.840396 L31.1868962,370.564011 L31.1868962,370.275063 L31.1868962,369.986115 L31.1868962,369.697167 L31.0988945,369.433345 L30.9731777,369.169523 L30.8223176,368.930827 L30.6337424,368.704694 L30.4703106,368.503686 L30.3320222,368.302679 L30.2063054,368.076546 L30.1308754,367.83785 L30.1308754,367.611716 L30.1308754,367.121761 L30.1308754,366.883065 L30.2188771,366.656931 L30.3445939,366.443361 L30.495454,366.229791 L30.6714575,366.053909 L31.3000413,366.053909 L31.3628997,361.845319 L30.105732,361.669437 L30.105732,360.626712 L29.8040118,360.626712 L29.2257146,360.626712 L28.3834123,360.626712 L28.0942637,360.714652 Z"></path>
                    </g>
                </g>
            </g>
        </g>
    </g>
</svg>
