<?xml version="1.0" encoding="UTF-8"?>
<svg width="320px" height="242px" viewBox="0 0 320 242" version="1.1" xmlns="http://www.w3.org/2000/svg" xmlns:xlink="http://www.w3.org/1999/xlink">
    <title>city-zoomed</title>
    <defs>
        <rect id="path-1" x="0" y="0" width="320" height="242"></rect>
        <filter x="-2.3%" y="-12.0%" width="104.7%" height="124.0%" filterUnits="objectBoundingBox" id="filter-3">
            <feOffset dx="3" dy="5" in="SourceAlpha" result="shadowOffsetOuter1"></feOffset>
            <feGaussianBlur stdDeviation="6" in="shadowOffsetOuter1" result="shadowBlurOuter1"></feGaussianBlur>
            <feColorMatrix values="0 0 0 0 0   0 0 0 0 0   0 0 0 0 0  0 0 0 0.15 0" type="matrix" in="shadowBlurOuter1" result="shadowMatrixOuter1"></feColorMatrix>
            <feMerge>
                <feMergeNode in="shadowMatrixOuter1"></feMergeNode>
                <feMergeNode in="SourceGraphic"></feMergeNode>
            </feMerge>
        </filter>
    </defs>
    <g id="Maquettes" stroke="none" stroke-width="1" fill="none" fill-rule="evenodd">
        <g id="Landing-page---Mobile" transform="translate(0.000000, -2662.000000)">
            <g id="city-zoomed" transform="translate(0.000000, 2662.000000)">
                <mask id="mask-2" fill="white">
                    <use xlink:href="#path-1"></use>
                </mask>
                <g id="Mask"></g>
                <circle id="Oval" fill="#0159FF" mask="url(#mask-2)" cx="160" cy="195" r="100"></circle>
                <g id="ville" mask="url(#mask-2)">
                    <g transform="translate(-542.000000, 0.000000)" filter="url(#filter-3)">
                        <path d="M0.181024115,215.996122 L0.181024115,278.752722 L1429.54744,278.752722 L1429.54744,254.6315 L1420.37947,254.6315 L1420.37947,254.06591 L1420.92111,252.042532 L1421.8849,249.533224 L1423.47794,247.557642 L1423.90807,247.151373 L1426.40914,247.151373 L1429.49168,244.904944 L1429.49168,242.730211 L1418.25276,236.556516 L1418.25276,236.476856 L1420.16441,236.476856 L1420.2122,236.421093 L1420.2122,235.974994 L1420.29982,235.879401 L1420.29982,235.082796 L1420.29982,234.055174 L1420.22813,232.923994 L1420.22813,232.549589 L1420.22813,232.135354 L1420.22813,229.219777 L1420.22813,228.510798 L1419.75819,228.510798 L1419.63871,226.806062 L1419.52719,225.045563 L1419.42365,219.660509 L1419.3201,214.235623 L1419.24045,212.347668 L1419.15283,210.411916 L1419.08114,208.452266 L1419.00149,206.452785 L1418.94573,204.421441 L1418.42003,204.421441 L1418.42003,206.683801 L1418.42003,208.914297 L1418.42003,210.762422 L1415.91895,210.762422 L1376.47519,211.256318 L1373.88649,211.256318 L1373.81481,209.432091 L1373.73515,207.233459 L1373.66347,205.010929 L1373.16166,205.010929 L1373.07404,207.010409 L1372.98642,208.985992 L1372.87491,210.921744 L1372.7634,212.825631 L1372.62799,214.689689 L1372.49258,220.090676 L1372.33328,225.443866 L1372.16601,227.188433 L1371.79164,229.01266 L1371.60844,230.558075 L1371.55268,228.964864 L1371.01105,228.964864 L1370.96326,229.657911 L1370.91547,232.541623 L1370.96326,232.939926 L1370.96326,233.314331 L1370.85971,234.421613 L1370.85971,235.433302 L1370.85971,236.229908 L1371.00308,236.325501 L1371.00308,236.715837 L1371.0907,236.7716 L1371.63234,236.7716 L1373.40858,236.7716 L1358.9995,243.064785 L1358.9995,244.26766 L1358.67293,244.028678 L1355.78952,241.344117 L1352.65919,237.647866 L1349.71206,233.250602 L1347.2747,228.558595 L1345.40287,223.651503 L1344.10454,218.585091 L1343.88948,197.251989 L1343.66645,196.861652 L1343.45139,196.80589 L1343.45139,192.918454 L1343.28412,192.599812 L1342.4876,192.384728 L1342.4876,185.661376 L1342.42388,185.541885 L1342.16899,185.47019 L1341.83445,185.47019 L1341.57957,185.549851 L1341.52381,185.661376 L1341.52381,192.392694 L1340.72729,192.615744 L1340.56798,192.934386 L1340.56798,196.821822 L1340.34496,196.877584 L1340.13786,197.275887 L1339.98652,218.608989 L1338.71209,223.675401 L1336.85619,228.598425 L1334.46663,233.298399 L1331.54339,237.703629 L1328.65202,241.144965 L1325.6571,243.96495 L1325.85623,232.685012 L1316.05901,232.685012 L1316.05901,231.466206 L1310.34795,231.466206 L1310.34795,231.402477 L1310.57097,230.215535 L1310.57097,229.785367 L1299.84182,229.745537 L1299.77014,227.037078 L1299.6188,226.097083 L1299.50728,226.097083 L1298.87007,223.794892 L1298.39215,226.041321 L1298.3364,224.073704 L1298.24081,220.257963 L1298.12134,219.381697 L1298.04168,219.381697 L1297.81069,218.377973 L1297.72307,214.992399 L1297.66732,213.032749 L1297.66732,211.853772 L1297.56377,211.160725 L1297.50005,211.160725 L1297.07789,209.368362 L1296.78318,211.096997 L1296.52829,210.037511 L1296.24951,211.710383 L1292.52975,179.639036 L1292.62533,179.567342 L1292.62533,179.384122 L1292.56161,179.384122 L1292.62533,179.384122 L1292.72888,179.312428 L1292.7926,179.312428 L1292.88819,179.192937 L1292.92801,179.137175 L1292.98377,178.98582 L1292.98377,178.826498 L1292.98377,178.76277 L1292.98377,178.603449 L1292.91208,178.46006 L1292.87226,178.404297 L1292.77667,178.300739 L1292.71295,178.260908 L1292.60144,178.205146 L1292.54568,178.205146 L1292.46603,178.205146 L1292.35452,178.205146 L1292.35452,177.575827 L1292.29876,177.169558 L1292.29876,176.850916 L1292.29876,176.930577 L1292.29876,175.464822 L1292.29876,175.377196 L1292.29876,175.281603 L1292.29876,175.14618 L1292.29876,174.8833 L1292.29876,174.827538 L1292.29876,174.915164 L1292.29876,174.492963 L1292.29876,174.31771 L1292.29876,174.54076 L1292.29876,174.604488 L1292.29876,174.365506 L1292.29876,174.190253 L1292.29876,174.102626 L1292.29876,174.27788 L1292.29876,174.373472 L1292.29876,174.182287 L1292.29876,173.975169 L1292.29876,173.807882 L1292.29876,173.863645 L1292.29876,174.158389 L1292.29876,174.238049 L1292.29876,174.429235 L1292.29876,174.524827 L1292.29876,174.445167 L1292.29876,174.612454 L1292.29876,174.700081 L1292.29876,174.939062 L1292.29876,175.010757 L1292.29876,174.891266 L1292.29876,175.265671 L1292.29876,175.480754 L1292.29876,175.281603 L1292.29876,175.217874 L1292.29876,175.7516 L1292.29876,175.640075 L1292.29876,175.552449 L1292.29876,177.018203 L1292.29876,177.10583 L1292.29876,177.312948 L1292.29876,177.958198 L1292.34655,178.19718 L1292.25893,178.19718 L1292.18725,178.19718 L1292.12353,178.19718 L1292.01998,178.268874 L1291.96422,178.316671 L1291.86864,178.436162 L1291.86864,178.491924 L1291.80492,178.635313 L1291.80492,178.8026 L1291.80492,178.858363 L1291.80492,179.02565 L1291.8766,179.169039 L1291.8766,179.216835 L1291.97219,179.32836 L1292.02794,179.32836 L1292.13946,179.392089 L1292.20318,179.392089 L1292.14742,179.392089 L1292.09963,179.392089 L1292.09963,179.567342 L1292.21114,179.639036 L1289.98885,211.861738 L1289.98885,211.821908 L1289.91716,211.120895 L1289.74989,211.120895 L1289.3596,209.328532 L1289.12064,210.70666 L1288.9693,209.997681 L1288.67459,211.750214 L1288.56307,211.750214 L1288.56307,212.602582 L1288.61883,215.661548 L1288.69052,220.042879 L1288.63476,220.377454 L1288.51528,220.377454 L1288.51528,221.357279 L1288.579,224.965903 L1288.65069,229.219777 L1276.00989,229.219777 L1276.00989,242.403602 L1272.22641,242.403602 L1272.48926,233.441788 L1270.68116,233.441788 L1266.0454,232.015864 L1266.52331,182.626308 L1259.52189,181.781906 L1255.27643,181.781906 L1252.00272,182.07665 L1252.05848,167.068598 L1242.70731,165.140812 L1238.40609,165.140812 L1236.63781,165.46742 L1235.53861,165.46742 L1235.53861,165.674538 L1234.19249,165.929452 L1234.04115,165.929452 L1228.52922,166.949107 L1228.69649,196.224368 L1225.86884,196.160639 L1221.59948,196.160639 L1214.14404,196.343859 L1214.55823,232.485861 L1204.41054,232.485861 L1203.78925,232.685012 L1203.39099,233.362127 L1203.39099,227.347754 L1203.32727,227.347754 L1203.32727,225.985558 L1202.76971,225.985558 L1202.84139,212.66631 L1200.38014,212.66631 L1200.12525,213.136308 L1200.12525,219.37373 L1199.81461,219.063054 L1199.14553,218.537294 L1198.42866,218.083229 L1197.67197,217.692892 L1197.67197,215.462396 L1189.30849,215.462396 L1189.13325,217.055608 L1189.13325,217.772553 L1188.59162,218.067297 L1187.92254,218.521362 L1187.30125,219.047122 L1186.72776,219.644576 L1186.48083,219.963219 L1186.48083,213.080545 L1186.48083,212.610548 L1184.01958,212.610548 L1184.01958,225.929796 L1183.924,225.929796 L1183.924,227.307924 L1183.924,234.835848 L1183.43812,232.653148 L1183.31068,232.469929 L1171.96821,232.469929 L1171.71332,220.369488 L1180.69012,214.410877 L1180.53082,214.171895 L1180.48302,214.116133 L1180.08476,214.379013 L1177.98195,211.909535 L1178.32445,211.686485 L1178.02177,211.216488 L1177.97398,211.176657 L1177.58368,211.439537 L1175.4729,208.97006 L1175.81541,208.74701 L1175.48883,208.253114 L1175.09854,208.52396 L1172.97182,206.030584 L1173.31433,205.807535 L1172.99572,205.313639 L1172.99572,205.273809 L1172.59746,205.544655 L1171.45047,204.198391 L1171.45047,204.0789 L1171.60977,204.031104 L1172.1992,203.489412 L1171.30709,190.990668 L1171.69739,190.942872 L1171.81687,190.942872 L1172.40629,190.695924 L1172.51781,190.648128 L1172.59746,190.576433 L1172.65321,190.504739 L1172.65321,190.425078 L1172.65321,190.337451 L1172.60542,190.257791 L1172.51781,190.194062 L1172.41426,190.146266 L1172.07175,190.002877 L1172.18327,189.963047 L1164.57648,184.721381 L1164.99864,184.450535 L1164.76765,184.100028 L1167.84222,182.594444 L1168.09711,183.000712 L1168.59892,182.674104 L1168.37589,182.323598 L1171.43454,180.825979 L1171.69739,181.224282 L1172.1992,180.897673 L1171.97617,180.539201 L1175.02685,179.049548 L1175.28174,179.455817 L1175.78355,179.137175 L1175.56052,178.778702 L1178.59527,177.297015 L1178.85015,177.695318 L1178.89795,177.695318 L1179.39975,177.36871 L1179.18469,177.010237 L1182.20351,175.536517 L1182.4584,175.942786 L1182.50619,175.942786 L1183.008,175.608211 L1182.79294,175.257705 L1185.82769,173.776018 L1186.09054,174.206185 L1186.15426,174.206185 L1186.60828,173.903475 L1186.36932,173.521104 L1189.42,172.039418 L1189.65099,172.405856 L1189.70675,172.405856 L1189.93774,172.262467 L1183.924,162.504047 L1183.86824,162.504047 L1183.61335,162.663368 L1183.87621,163.085569 L1181.27955,165.308099 L1181.06449,164.957593 L1181.01669,164.957593 L1180.53878,165.276235 L1180.79367,165.698436 L1178.21294,167.905034 L1177.99788,167.562493 L1177.4881,167.897068 L1177.75095,168.319269 L1175.16226,170.525867 L1174.9472,170.191292 L1174.44539,170.517901 L1174.70824,170.940102 L1172.11954,173.154666 L1171.89652,172.820091 L1171.38674,173.1467 L1171.65756,173.560935 L1169.05294,175.791431 L1168.83787,175.44889 L1168.33607,175.783465 L1168.59892,176.197699 L1165.99429,178.42023 L1165.77923,178.085655 L1165.27742,178.412263 L1165.54824,178.834464 L1162.92768,181.064961 L1162.71262,180.730386 L1162.20285,181.056994 L1162.47367,181.479196 L1161.39836,182.395292 L1156.16521,178.786668 L1155.91829,178.786668 L1153.69599,180.324117 L1153.3057,179.527511 L1153.71989,179.256666 L1153.38535,178.730906 L1153.04285,178.953955 L1151.50556,175.767532 L1151.91179,175.496686 L1151.56928,174.986859 L1151.21881,175.209908 L1149.67356,172.023485 L1150.07979,171.752639 L1149.73728,171.22688 L1149.38681,171.457895 L1147.79377,168.271472 L1148.20796,168.008593 L1147.86545,167.482833 L1147.50702,167.705882 L1145.91398,164.519459 L1146.33613,164.248613 L1145.98566,163.722854 L1145.63519,163.953869 L1144.04215,160.767446 L1144.45634,160.4966 L1144.11384,159.970841 L1143.7554,160.201856 L1142.16236,156.943739 L1142.60841,156.656961 L1142.2898,156.163065 L1141.89951,156.417979 L1140.30646,153.127997 L1140.68879,152.873083 L1140.68879,152.833253 L1140.53745,152.586305 L1130.60483,159.014914 L1130.78006,159.28576 L1131.21018,159.014914 L1133.59975,161.795068 L1133.24131,162.018117 L1133.57585,162.535911 L1133.99801,162.257099 L1136.33978,164.997423 L1135.98931,165.236405 L1136.33182,165.762164 L1136.75397,165.483352 L1139.08778,168.207744 L1138.73731,168.446726 L1139.07982,168.964519 L1139.50198,168.685707 L1141.81985,171.402133 L1141.46938,171.633149 L1141.81189,172.166874 L1142.22608,171.888062 L1144.53599,174.596522 L1144.18552,174.819572 L1144.53599,175.345331 L1144.95018,175.066519 L1147.25213,177.759047 L1146.90166,177.982096 L1147.2362,178.49989 L1147.65836,178.229044 L1149.94438,180.905639 L1149.59391,181.136655 L1149.92845,181.646483 L1150.34264,181.375637 L1150.98782,182.132412 L1139.90024,189.819658 L1139.7489,189.994911 L1139.67721,189.994911 L1139.57366,190.050673 L1139.49401,190.114402 L1139.27098,190.353383 L1139.21523,190.433044 L1139.21523,190.512705 L1139.21523,190.600331 L1139.26302,190.672026 L1139.35064,190.74372 L1139.46215,190.791517 L1140.41001,191.030498 L1140.52949,191.030498 L1140.59321,191.030498 L1140.41001,193.969974 L1140.29053,194.0576 L1140.40204,194.224887 L1140.40204,194.455903 L1137.41509,195.913692 L1137.12834,195.499457 L1136.62653,195.834031 L1136.85752,196.176571 L1133.73516,197.698088 L1133.45637,197.291819 L1132.93864,197.618428 L1133.16166,197.953002 L1130.0393,199.474519 L1129.76051,199.060284 L1129.24277,199.402825 L1129.47377,199.737399 L1126.28768,201.274848 L1125.99296,200.836715 L1125.51505,201.147391 L1125.76197,201.51383 L1122.57589,203.107041 L1122.321,202.748569 L1122.321,202.541451 L1121.5882,202.541451 L1120.44121,195.053357 L1119.79602,199.243503 L1117.40646,194.551496 L1114.42747,194.551496 L1114.11682,195.618947 L1084.9243,195.738438 L1084.78092,194.678953 L1083.41091,194.678953 L1083.41091,183.367151 L1083.17992,184.163757 L1083.17992,194.758613 L1081.8099,194.758613 L1081.0532,206.173973 L1081.0532,202.007725 L1080.94965,202.246707 L1080.94965,207.966336 L1079.61946,206.962613 L1078.91056,206.707699 L1074.44207,205.281775 L1071.07278,204.811778 L1071.07278,200.908409 L1070.77011,200.772987 L1067.28134,199.912652 L1066.74767,199.85689 L1065.95115,199.85689 L1065.26614,199.89672 L1065.01125,199.952483 L1061.52249,200.820783 L1061.2915,200.94824 L1061.2915,203.417718 L1060.79765,203.417718 L1056.64777,198.518592 L1056.64777,198.399101 L1056.38492,198.399101 L1056.33713,194.511665 L1056.16189,193.420316 L1056.01056,194.511665 L1056.01056,198.391135 L1055.80346,198.391135 L1055.80346,198.566389 L1051.82085,203.346023 L1050.8013,203.346023 L1050.8013,204.509067 L1050.63403,204.509067 L1050.56235,204.509067 L1050.56235,205.815501 L1050.56235,206.771428 L1048.79407,206.771428 L1047.84621,206.835156 L1047.84621,206.723631 L1047.84621,205.528723 L1047.64708,205.528723 L1047.64708,204.548898 L1046.75497,204.548898 L1042.82812,200.175532 L1042.82812,200.07994 L1042.69271,200.07994 L1042.60509,200.07994 L1042.60509,196.535044 L1042.44579,195.531321 L1042.30241,196.535044 L1042.30241,200.07994 L1042.06346,200.07994 L1042.06346,200.247227 L1038.37556,204.628558 L1037.57904,204.628558 L1037.4516,204.628558 L1037.4516,205.688044 L1037.31619,205.688044 L1037.31619,205.727874 L1037.31619,206.922783 L1037.31619,207.814981 L1036.33647,207.814981 L1036.1453,183.231728 L1035.10186,183.080373 L1035.0222,174.09466 L1034.90273,174.09466 L1035.03017,174.05483 L1035.03017,173.79195 L1033.70794,173.560935 L1033.70794,171.171117 L1033.62033,171.171117 L1033.62033,169.83282 L1032.23438,169.83282 L1027.15257,162.790825 L1027.15257,162.535911 L1027.08885,162.535911 L1026.99326,162.535911 L1026.84989,162.535911 L1026.84989,156.959671 L1026.64279,155.366459 L1026.45959,156.959671 L1026.45959,162.535911 L1026.26046,162.535911 L1026.18081,162.535911 L1026.18081,162.814723 L1021.18662,169.60977 L1019.8405,169.60977 L1019.74492,169.60977 L1019.74492,171.346371 L1019.74492,173.22636 L1019.74492,174.126525 L1018.47048,174.572624 L1018.47048,174.84347 L1018.58199,174.84347 L1018.47048,174.8833 L1018.51827,183.438846 L1017.85716,183.478676 L1016.51104,183.853081 L1016.65441,212.467159 L1015.51538,212.467159 L1015.51538,206.890919 L1015.51538,204.676355 L1015.08526,204.03907 L1014.63921,203.505344 L1014.14537,203.067211 L1013.65152,202.740603 L1013.12582,202.533485 L1012.70366,202.461791 L1012.70366,199.649772 L1012.52843,198.518592 L1012.36116,199.649772 L1012.36116,202.453825 L1008.6653,202.533485 L1008.12366,202.533485 L1007.58999,202.68484 L1007.52627,202.68484 L1007.31918,202.60518 L1006.77754,202.509587 L1003.24098,202.597214 L1003.24098,199.809094 L1003.07371,198.693846 L1002.91441,199.809094 L1002.91441,202.60518 L1002.36481,202.60518 L1002.15771,202.660942 L1002.15771,200.900443 L1001.99841,199.864856 L1001.84707,200.900443 L1001.84707,202.740603 L1001.30544,203.011449 L1000.86735,203.330091 L1000.7638,203.330091 L999.967278,203.282295 L999.839835,203.282295 L999.688496,203.282295 L997.434339,203.17077 L996.813052,203.17077 L996.813052,200.494175 L996.661713,199.442655 L996.494443,200.494175 L996.494443,203.17077 L995.873156,203.234498 L995.076634,203.409752 L994.335869,203.69653 L993.626965,204.0789 L992.957886,204.556864 L992.344564,205.13042 L992.344564,207.583966 L991.261295,207.687524 L991.261295,212.777835 L989.429294,212.777835 L988.55312,212.817665 L988.55312,223.500148 L986.322859,223.500148 L986.402511,242.300044 L984.809468,242.300044 L984.012946,225.061495 L983.813815,225.061495 L983.869572,224.543702 L984.514755,223.197438 L984.769642,222.966422 L985.183833,222.799135 L985.327207,222.408798 L985.327207,221.978631 L985.327207,221.73965 L985.120111,221.548464 L985.335172,221.357279 L985.518372,220.982874 L985.836981,220.982874 L986.290998,221.166093 L986.649433,221.317448 L986.856529,221.317448 L986.944146,221.110331 L986.880424,220.855417 L986.402511,219.803898 L986.052042,219.51712 L985.550233,219.302036 L985.351103,219.302036 L985.08825,219.302036 L984.928946,219.461357 L984.928946,219.684407 L984.674059,219.85966 L983.821781,220.321691 L983.391659,220.552707 L983.232354,220.592537 L983.07305,220.552707 L982.794267,220.297793 L982.658859,220.242031 L982.619033,219.995083 L982.674789,219.445425 L982.826128,219.445425 L983.017294,219.652543 L983.208459,219.652543 L983.869572,219.55695 L984.777607,219.310002 L984.897085,219.126783 L984.897085,218.911699 L984.984703,218.433736 L985.024529,217.788485 L984.737781,217.206963 L983.885502,217.206963 L983.758059,218.800174 L983.208459,218.871869 L982.786302,218.871869 L982.531415,218.640853 L982.531415,217.541537 L982.17298,217.230861 L981.456111,217.230861 L981.456111,217.565435 L981.153432,217.724757 L981.113606,218.154924 L980.842789,218.258482 L980.723311,218.433736 L980.603832,218.855937 L980.030337,220.321691 L979.361258,220.441182 L978.819623,220.680164 L978.238162,220.982874 L977.505362,221.508634 L977.505362,222.368968 L977.505362,222.584052 L977.951415,222.751339 L978.588632,222.982354 L978.357641,223.125744 L978.293919,223.396589 L978.246128,223.914383 L978.246128,224.710989 L978.246128,225.053529 L973.22804,225.053529 L973.132457,222.838965 L973.275831,222.544221 L973.498858,222.337104 L973.865258,222.185749 L974.000666,221.843208 L974.000666,221.460838 L974.000666,221.261686 L973.817466,221.086433 L974.016597,220.919146 L974.167936,220.584571 L974.470614,220.584571 L974.87684,220.751858 L975.195449,220.879315 L975.354753,220.879315 L975.434406,220.696096 L975.378649,220.473046 L974.964458,219.541018 L974.645849,219.286104 L974.215727,219.102885 L974.048458,219.102885 L973.817466,219.102885 L973.682058,219.246274 L973.682058,219.437459 L973.459031,219.588814 L973.04484,219.81983 L973.04484,219.222375 L973.554614,219.086952 L973.658162,218.927631 L973.658162,218.736446 L973.737814,218.314245 L973.737814,217.748655 L973.490892,217.222895 L972.973153,217.222895 L972.925362,217.772553 L972.742162,213.407154 L973.355484,213.407154 L973.355484,212.499023 L972.558962,212.499023 L972.335936,207.161765 L972.120875,201.848404 L972.423553,201.792642 L972.423553,201.266882 L971.714649,201.21112 L971.714649,200.780953 L971.714649,200.255193 L971.650927,199.745365 L971.539414,199.235537 L971.380109,198.741642 L971.180979,198.255712 L970.942022,197.785715 L970.66324,197.339616 L970.344631,196.909449 L969.994161,196.511146 L969.611831,196.144707 L969.19764,195.810133 L968.807344,196.160639 L968.456874,196.54301 L968.138265,196.957245 L967.859483,197.387412 L967.612561,197.841477 L967.413431,198.319441 L967.254126,198.80537 L967.142613,199.315198 L967.070926,199.81706 L967.070926,200.334853 L967.070926,200.852647 L967.126683,201.274848 L967.047031,201.274848 L966.513361,201.370441 L966.162891,200.76502 L966.1151,199.482485 L965.923935,194.447937 L966.338126,194.447937 L966.4815,194.400141 L966.4815,193.762856 L966.31423,193.762856 L965.0159,191.57219 L965.0159,191.197786 L964.920317,190.974736 L964.920317,190.871177 L964.872526,189.716099 L964.768978,189.716099 L964.768978,189.636438 L964.768978,189.588642 L964.410543,189.588642 L964.036178,189.716099 L964.036178,189.771861 L964.083969,189.87542 L964.004317,189.87542 L964.004317,189.91525 L964.052108,191.062363 L964.052108,191.110159 L963.988387,191.357107 L963.988387,191.484564 L961.01736,191.484564 L959.965951,194.511665 L959.838508,194.551496 L959.838508,195.164882 L959.965951,195.164882 L960.029673,197.06877 L943.836384,197.06877 L943.661149,196.646569 L943.382367,196.088945 L943.055793,195.555219 L942.705323,195.045391 L942.538053,189.015086 L941.399027,188.887629 L941.319375,187.668822 L941.120245,186.163237 L940.825531,184.673585 L940.443201,183.215796 L939.973253,181.781906 L939.415688,180.37988 L938.770505,179.02565 L938.04567,177.71125 L937.249148,176.452613 L936.372974,175.233807 L935.417148,174.09466 L934.3976,172.995344 L934.230331,166.040976 L934.230331,165.483352 L934.174574,164.925728 L934.086957,164.37607 L933.967478,163.826412 L933.816139,163.28472 L933.624974,162.766927 L933.409913,162.257099 L933.162991,161.763204 L932.884209,161.277274 L932.573565,160.815243 L932.246991,160.37711 L932.03193,160.130162 L932.103617,160.130162 L932.151409,160.066433 L932.151409,159.229997 L932.21513,159.150337 L932.21513,158.887457 L932.151409,158.887457 L932.151409,158.600679 L931.864661,158.600679 L931.816869,158.672373 L931.816869,159.030846 L931.761113,159.10254 L931.761113,159.36542 L931.816869,159.36542 L931.816869,160.050501 L931.554017,160.393042 L931.235408,160.855073 L930.956626,161.333036 L930.701739,161.834898 L930.478713,162.33676 L930.295513,162.862519 L930.128243,163.396245 L930.0008,163.937937 L929.913182,164.487595 L929.84946,165.045219 L929.84946,165.148778 L929.84946,165.706402 L929.84946,166.264026 L930.0008,173.114835 L929.052939,174.238049 L928.646712,174.779741 L928.590956,172.477551 L928.590956,171.983655 L928.543165,171.497726 L928.463512,171.011796 L928.359965,170.533833 L928.232521,170.063835 L928.073217,169.601804 L927.882051,169.155705 L927.666991,168.717572 L927.428034,168.295371 L927.157217,167.889102 L926.870469,167.490799 L926.703199,167.299613 L926.703199,167.243851 L926.703199,166.510974 L926.75099,166.455211 L926.75099,166.21623 L926.703199,166.21623 L926.703199,165.961316 L926.631512,165.961316 L926.631512,164.758441 L926.400521,164.615052 L926.193425,162.703198 L925.795164,160.528465 L925.245564,158.401527 L924.544625,156.322386 L923.692347,154.306974 L922.704659,152.363256 L921.581564,150.515131 L920.331024,148.746666 L918.961007,147.08176 L918.841529,146.954303 L918.785772,146.890574 L917.559128,145.616005 L917.471511,145.520413 L917.328137,145.377023 L917.168833,145.233634 L916.977667,145.050415 L915.472241,143.696185 L913.879197,142.477379 L913.273841,142.222465 L912.636623,142.07111 L912.517145,133.953697 L912.517145,133.157091 L912.453423,132.360486 L912.34191,131.60371 L912.34191,131.380661 L912.182606,130.639817 L911.97551,129.914906 L911.736554,129.197961 L911.402014,128.640337 L911.067475,127.971188 L910.69311,127.325937 L910.286884,126.704585 L909.832866,126.115097 L909.641701,125.900013 L909.641701,125.820353 L909.641701,125.772556 L909.641701,125.668998 L909.641701,124.521885 L909.641701,124.450191 L909.641701,124.354598 L909.641701,123.988159 L909.601875,123.988159 L909.601875,123.661551 L909.203614,123.661551 L909.203614,123.757144 L909.203614,123.812906 L909.203614,123.908499 L909.203614,124.41036 L909.203614,124.474089 L909.203614,124.577648 L909.203614,124.93612 L909.203614,125.692896 L908.86111,126.115097 L908.446918,126.712551 L908.399127,126.784246 L908.000866,127.445428 L907.642431,128.122543 L907.323823,128.823556 L907.053005,129.540501 L906.822014,130.265413 L906.638814,131.014222 L906.638814,131.030154 L906.503405,131.778964 L906.407823,132.575569 L906.360031,133.372175 L906.360031,134.168781 L906.455614,142.365854 L905.826362,142.549073 L905.236935,142.835851 L903.643892,144.134319 L903.444761,144.325504 L901.939335,145.783292 L900.545422,147.376504 L900.31443,147.671248 L899.597561,148.619209 L899.278952,149.033444 L899.0161,149.38395 L897.829282,151.192245 L896.769908,153.088167 L895.853908,155.047817 L895.057386,157.079162 L894.420169,159.166269 L893.93429,161.28524 L893.607716,163.452008 L893.607716,163.794548 L893.607716,164.192851 L893.480273,165.786063 L893.480273,165.833859 L893.528064,173.481274 L893.432482,173.377715 L893.432482,166.463177 L893.432482,165.905553 L893.38469,165.355895 L893.313003,164.798271 L893.20149,164.256579 L893.066082,163.706922 L892.890847,163.181162 L892.683751,162.663368 L892.45276,162.161506 L892.181942,161.667611 L891.887229,161.189647 L891.576586,160.735582 L891.305768,160.393042 L891.305768,159.150337 L891.305768,158.863559 L891.01902,158.863559 L891.01902,159.660164 L891.01902,160.45677 L891.106638,160.45677 L890.915473,160.695752 L890.604829,161.157783 L890.310116,161.635747 L890.055229,162.129642 L889.824238,162.631504 L889.617142,163.157264 L889.449872,163.690989 L889.314464,164.224715 L889.210916,164.782339 L889.147194,165.331997 L889.099403,165.889621 L889.099403,166.447245 L889.099403,173.369749 L888.231194,174.373472 L888.127646,174.492963 L887.108098,175.640075 L886.311576,176.88278 L885.515055,178.165316 L884.845976,179.495647 L884.25655,180.857843 L883.754741,182.267835 L883.332585,183.701726 L883.006011,185.151548 L882.759089,186.625269 L882.60775,188.114921 L882.60775,189.174407 L882.002393,189.230169 L882.002393,197.251989 L860.36886,197.251989 L855.494146,197.626394 L841.730249,205.21008 L832.108265,209.631242 L832.387047,144.930924 L829.782421,142.190601 L829.989517,133.316413 L829.989517,132.99777 L829.989517,132.949974 L829.989517,132.69506 L824.143046,118.706663 L824.310316,112.238225 L824.310316,112.039073 L822.326977,107.801131 L822.279185,107.68164 L820.08875,111.569076 L820.025028,111.760261 L819.841828,118.332259 L813.262558,131.460321 L813.063428,132.081674 L812.840401,139.187397 L810.052575,139.187397 L810.116297,241.997333 L810.116297,242.292078 L805.990314,242.292078 L806.57974,159.994739 L805.607983,160.393042 L803.576852,161.795068 L800.534139,164.184885 L798.295913,166.080807 L796.193095,171.011796 L796.193095,167.825373 L791.923738,171.577386 L791.238729,173.79195 L785.113476,180.308185 L785.025859,218.091195 L789.725337,223.117777 L786.077267,222.807101 L785.925928,222.759305 L785.463946,222.639814 L784.165615,222.368968 L783.568224,222.289307 L782.437163,222.129986 L781.895528,222.090156 L781.24238,222.050326 L780.676849,222.050326 L779.545788,222.050326 L779.036014,222.050326 L778.374901,222.050326 L777.809371,222.050326 L777.379249,222.114054 L776.088884,222.273375 L774.814449,222.528289 L774.288744,222.655746 L774.009961,222.727441 L770.624744,222.990321 L770.624744,222.711509 L775.148988,218.019501 L775.148988,180.348015 L768.944083,173.919407 L768.028082,171.728741 L763.806517,168.032491 L763.806517,170.255021 L761.767421,166.319788 L759.688499,164.567256 L756.765264,162.233201 L754.837681,160.871005 L753.961507,160.488634 L754.327907,242.236315 C752.734863,242.323942 749.851454,242.355806 749.851454,242.355806 L747.214967,237.576172 L747.151245,237.576172 L747.151245,237.520409 L747.214967,237.520409 L746.577749,236.301602 L746.450306,236.365331 L746.585714,236.293636 L743.718236,231.346715 L741.033957,226.216574 L740.922444,225.92183 L740.850757,225.778441 L740.890583,225.778441 L739.616148,223.388623 L739.576322,223.300997 L738.556774,221.47677 L738.516948,221.317448 L738.461192,221.21389 L737.839905,220.018981 L737.744322,219.81983 L735.545922,215.63765 L734.956495,214.506469 L733.753747,212.212245 L733.156356,211.081065 L732.901469,210.388018 L732.997052,209.997681 C733.753197,209.10932 734.163312,207.977849 734.152008,206.811258 C734.136903,204.541179 732.581204,202.571733 730.376495,202.031624 L730.328704,201.936031 L730.21719,201.991793 L729.946373,201.943997 L729.83486,201.824506 L729.763173,201.752812 L729.420669,200.820783 L729.038338,199.498417 L728.855138,199.55418 L729.038338,199.506383 L721.869642,169.777057 L721.43952,168.183846 L721.43952,168.080287 L721.304111,167.602324 L721.304111,167.490799 L719.711067,161.755237 C720.676971,160.892969 721.239071,159.666559 721.261756,158.371894 C721.28444,157.077229 720.765649,155.831876 719.830546,154.936292 L719.27298,154.442397 L719.225189,154.490193 C718.857232,154.271962 718.452204,154.123436 718.030406,154.05206 L716.955102,145.831089 L716.819693,143.895337 L716.69225,143.895337 L716.69225,143.775846 L713.864597,123.183588 L713.864597,122.610032 L713.824771,122.610032 L713.824771,122.538337 L713.824771,122.474609 L713.689362,121.741731 L710.981188,101.189303 L710.981188,100.846763 L710.981188,100.759136 L710.941362,100.480324 L710.359901,90.9847837 L710.359901,90.188178 L710.320075,90.188178 L710.320075,90.052755 L710.248388,89.4393686 L707.858822,45.5224942 L707.858822,45.0524968 L707.858822,43.0769146 L708.002196,42.9255595 L707.930509,42.8618311 L708.002196,42.7901366 L707.858822,42.6467475 L707.858822,42.5431888 L707.858822,42.4236979 L707.858822,42.2564107 L707.994231,42.1130217 L707.938474,42.0572593 L708.360631,42.0572593 L708.360631,41.2606535 L708.504005,41.4040426 L709.013779,40.8862488 L708.958022,40.8384525 L708.958022,40.7906561 L708.894301,40.7348937 L708.806683,40.4481157 L708.766857,40.3126927 L708.965988,40.1135413 L709.881988,40.1135413 L709.881988,39.6993063 L709.881988,39.5638833 L709.881988,38.7672776 L709.881988,38.0662645 L709.881988,37.6440635 L709.881988,35.628651 L709.085466,35.628651 L709.260701,35.5330583 L709.181049,35.3976353 C710.87764,34.656792 711.929049,33.6451027 711.929049,32.5139225 C711.929049,31.3827424 710.925431,30.4108834 709.292562,29.6780061 L709.077501,29.6302098 C708.830579,29.526651 708.559762,29.4230923 708.280979,29.3354656 L708.225222,28.8973325 L708.225222,26.0295518 L708.288944,26.0295518 L708.288944,25.8781967 L708.241153,25.8781967 L708.241153,25.7905701 L708.288944,25.7905701 L708.241153,25.2887085 L708.241153,23.9185466 C708.263076,21.9123428 707.279326,20.0283677 705.620596,18.8999305 L705.620596,18.8601002 L705.620596,18.7087451 L705.620596,18.6370506 L705.620596,18.5733221 L705.620596,18.4936615 L705.286057,18.4936615 L705.286057,18.4697634 L705.070996,18.4697634 L705.070996,17.9121394 L705.166578,17.9121394 L705.166578,17.7926485 L705.166578,17.6651916 L705.070996,17.6651916 L705.070996,17.5457007 L705.4135,17.5457007 L705.4135,16.8128234 L705.110822,16.8128234 L705.110822,16.6296041 L704.967448,16.6296041 L704.967448,16.5818078 L704.887796,16.5818078 L704.967448,16.5818078 L704.967448,16.2313012 L704.967448,15.5223221 L704.967448,15.4426616 L704.967448,15.3789331 L704.967448,15.2753744 L704.967448,15.2036798 C704.971773,15.1533209 704.971773,15.1026837 704.967448,15.0523248 C704.967448,15.0124945 704.967448,14.9726642 704.967448,14.9248678 L704.967448,14.8770715 C704.925348,14.5767881 704.788631,14.2977446 704.577152,14.0804658 L704.577152,14.0406355 L704.577152,13.7697895 L704.577152,13.5945363 L704.577152,13.0209801 C704.577152,12.0570872 704.027552,0.848844445 703.246961,0.577998494 C703.188011,0.554838771 703.12651,0.538793334 703.063761,0.53020215 L702.713291,0.386813117 L702.370787,0.386813117 L702.2991,0.386813117 L702.171656,0.386813117 C702.119561,0.400574376 702.068888,0.419245422 702.020317,0.442575519 C701.915276,0.490476004 701.814083,0.546404117 701.717639,0.609862724 C701.160074,0.992233478 700.785708,12.0252229 700.785708,12.7979305 L700.785708,13.3316564 L700.785708,13.4750454 L700.785708,13.5308078 L700.785708,13.6104684 L700.785708,13.9052125 C700.588058,14.1290357 700.460632,14.4060774 700.419308,14.7018182 C700.415806,14.7522091 700.415806,14.8027824 700.419308,14.8531733 C700.415363,14.9168407 700.415363,14.9806913 700.419308,15.0443587 L700.419308,15.1957138 L700.419308,15.2992725 L700.419308,15.8409644 L700.339656,15.9285911 L700.427273,16.0162177 L700.339656,16.0958783 L700.435239,16.191471 L700.347621,16.2790976 L700.427273,16.3587582 L700.347621,16.4384187 L700.403378,16.4862151 L700.220178,16.4862151 L700.220178,16.7331629 L699.981221,16.7331629 L699.981221,17.4660401 L700.323726,17.4660401 L700.323726,17.5616328 L700.220178,17.5616328 L700.220178,17.9121394 L700.267969,17.9121394 L700.267969,18.007732 L700.267969,18.5334918 C700.196628,18.5631859 700.127431,18.5977884 700.060873,18.6370506 L699.901569,18.6370506 L699.901569,18.692813 L699.590926,18.692813 L699.590926,18.8919644 C697.972653,20.0271396 697.016512,21.8860009 697.03409,23.8627842 C697.030116,23.9317662 697.030116,24.0009197 697.03409,24.0699017 L697.03409,24.1415962 C697.03409,24.1415962 697.03409,24.2053247 697.03409,24.2371889 L697.03409,24.3726119 L697.097812,24.3726119 C697.097812,24.3726119 697.097812,24.4124422 697.097812,24.4363403 L697.097812,29.0646197 C694.851621,29.805463 693.393986,30.9844395 693.393986,32.306805 C693.393986,33.3822228 694.349812,34.3620478 695.910995,35.0869591 L696.197742,35.3657711 L696.30129,35.4613638 L695.273777,35.4613638 L695.273777,40.0099825 L695.719829,40.0099825 L695.719829,40.1454055 L696.205708,40.0976092 L696.205708,40.2171 L696.205708,40.3047266 L696.65176,40.3047266 L696.197742,40.3047266 L696.197742,40.4481157 L696.524316,40.4481157 L696.795134,40.6950635 L696.707516,40.6950635 L696.707516,41.0137058 L696.564143,41.1650608 L696.699551,41.0216718 L696.699551,41.0774342 L696.588038,41.1969251 L696.659725,41.2526875 L696.596003,41.324382 L696.715482,41.4916692 L696.771238,41.4916692 L697.137638,41.8103115 L697.257117,41.6908206 L697.257117,41.7545491 L697.257117,42.2643768 L697.639447,42.2643768 L697.639447,42.3121731 L697.249151,42.3121731 L697.249151,42.4475961 L697.599621,42.4475961 L697.655377,42.5033585 L697.655377,42.6069172 L697.73503,42.6069172 L697.623517,42.6069172 L697.623517,43.0689486 L697.623517,44.0089433 L697.623517,45.4826639 L695.895064,89.9252981 L695.895064,90.2519064 L695.895064,90.4351257 L695.895064,90.8573268 L695.456977,100.846763 L695.456977,100.910491 L695.456977,101.069812 L695.456977,101.404387 L693.067412,122.243593 L692.987759,122.681726 L692.987759,122.745454 L692.987759,122.849013 L692.987759,123.207486 L690.534472,144.381266 L690.534472,144.55652 L689.443237,153.996298 C689.004873,154.110002 688.591574,154.304517 688.224559,154.569854 L687.674959,155.079681 C686.887942,155.93444 686.455155,157.056389 686.464246,158.218308 C686.446601,159.533829 687.005378,160.791209 687.993567,161.659645 L686.25715,168.136049 L686.25715,168.247574 L685.460628,171.139253 L678.395479,201.983827 C676.249272,202.581052 674.764055,204.535492 674.76334,206.763462 C674.766204,207.828035 675.115718,208.862707 675.758992,209.710903 L663.65186,234.015344 L663.062434,235.027033 L663.134121,235.027033 L663.134121,235.090762 L663.062434,235.050931 L662.465042,236.221942 L662.544695,236.261772 L662.544695,236.341433 L662.457077,236.301602 L661.795964,237.854984 L661.158747,239.153451 L660.848103,239.511924 L660.91979,239.575652 L660.800312,239.806668 L660.688799,239.758871 L660.083442,240.937848 L660.155129,240.937848 L659.438259,242.244281 L653.169632,242.244281 L653.169632,240.013785 L651.919093,239.07379 L652.261598,213.160206 L652.747476,213.160206 L652.747476,211.654621 L652.858989,211.53513 L652.970502,211.431571 L653.097945,211.335979 L653.241319,211.248352 L653.384693,211.176657 L653.528067,211.104963 L653.695337,211.049201 L653.854641,211.001404 L654.021911,211.001404 L654.197146,211.001404 L654.547615,211.001404 L654.547615,210.547339 L654.850294,210.547339 L654.850294,210.348187 L652.277528,210.348187 L652.476658,195.523355 L652.835093,195.387932 L652.898815,195.387932 L652.898815,194.36031 L653.25725,194.224887 L653.320972,194.224887 L653.320972,193.109639 L654.037841,192.798963 L654.181215,192.735235 L654.181215,192.145746 L652.468693,192.145746 L652.54038,186.665099 L652.54038,185.637477 L656.90532,182.857323 L656.90532,181.77394 L658.012485,181.049028 L658.012485,180.706488 L658.179755,180.594963 L658.179755,179.208869 L659.10372,178.563619 L659.310816,178.42023 L659.310816,177.504133 L653.472311,177.551929 L653.559928,171.354337 L654.826398,170.111632 L655.933563,169.020282 L655.933563,168.112151 L652.691719,168.151982 L652.691719,165.634707 L652.691719,165.515217 L652.691719,165.419624 L652.691719,165.363861 L652.691719,165.324031 L652.452763,165.324031 L652.389041,165.284201 L652.333284,165.284201 L652.134154,165.212506 L651.942989,165.16471 L651.735893,165.16471 L651.528797,165.16471 L651.321702,165.212506 L651.130537,165.300133 L650.939371,165.284201 L650.780067,165.419624 L650.636693,165.570979 L650.095058,165.570979 L649.569354,165.061151 L649.027719,165.061151 L648.486084,165.578945 L648.079858,165.578945 L647.554153,165.069117 L646.956762,165.069117 L646.415127,165.594877 L645.881458,165.594877 L645.738084,165.443522 L645.578779,165.324031 L645.403544,165.220472 L645.212379,165.148778 L645.013249,165.100982 L644.806153,165.100982 L644.599057,165.100982 L644.399927,165.148778 L644.208762,165.228438 L644.025562,165.331997 L643.858292,165.459454 L643.714918,165.618775 L643.189214,165.618775 L642.647579,165.108948 L642.113909,165.108948 L641.58024,165.634707 L641.174013,165.634707 L640.648309,165.12488 L640.114639,165.12488 L639.573005,165.65064 L639.039335,165.65064 L638.903926,165.499284 L638.736657,165.371828 L638.561422,165.276235 L638.370257,165.20454 L638.195022,165.284201 L637.995891,165.284201 L637.788796,165.284201 L637.5817,165.339963 L637.390535,165.411658 L637.2153,165.523183 L637.055996,165.65064 L636.904656,165.801995 L636.378952,165.801995 L635.853248,165.292167 L635.311613,165.292167 L634.777943,165.809961 L634.371717,165.809961 L633.846012,165.308099 L633.320308,165.308099 L632.770708,165.825893 L632.245004,165.825893 L632.149421,165.722334 L631.982151,165.594877 L631.894534,165.539115 L631.806917,165.491318 L631.615751,165.419624 L631.416621,165.371828 L631.21749,165.371828 L631.010395,165.371828 L630.811264,165.419624 L630.620099,165.499284 L630.444864,165.602843 L630.28556,165.7303 L630.142186,165.889621 L629.608516,165.889621 L629.074847,165.379794 L628.549142,165.379794 L628.015473,165.897587 L627.617212,165.897587 L627.091507,165.38776 L626.549872,165.38776 L626.024168,165.913519 L625.450672,165.913519 L625.307298,165.77013 L625.147994,165.642673 L624.972759,165.539115 L624.781594,165.46742 L624.582463,165.42759 L624.375368,165.42759 L624.168272,165.42759 L623.977107,165.483352 L623.785942,165.555047 L623.610707,165.666572 L623.443437,165.794029 L623.308028,165.945384 L622.774359,165.945384 L622.248654,165.42759 L621.72295,165.42759 L621.364515,165.786063 L620.567993,165.722334 L620.289211,165.451488 L619.763506,165.451488 L619.572341,165.634707 L619.333384,165.634707 L618.210289,165.634707 L618.035054,165.570979 L617.843889,165.523183 L617.644758,165.523183 L617.437662,165.523183 L617.238532,165.570979 L615.645488,165.570979 L615.589732,165.515217 L615.064027,165.515217 L614.99234,165.594877 L613.69401,165.594877 L613.614358,165.523183 L613.088653,165.523183 L613.040862,165.570979 L612.24434,165.570979 L611.400027,165.570979 L611.208862,165.570979 L611.009731,165.570979 L610.802636,165.570979 L610.603505,165.618775 L610.436235,165.69047 L609.297209,165.738266 L609.074183,165.738266 L608.890983,165.555047 L608.365279,165.555047 L608.086496,165.825893 L607.289974,165.921485 L606.931539,165.570979 L606.405835,165.570979 L605.880131,166.096739 L605.354426,166.096739 L605.219017,165.95335 L605.067678,165.825893 L604.884478,165.7303 L604.693313,165.65064 L604.502148,165.610809 L604.303017,165.610809 L604.103887,165.610809 L603.904756,165.65064 L603.713591,165.7303 L603.538356,165.833859 L603.387017,165.969282 L603.243643,166.112671 L602.725904,166.112671 L602.192234,165.610809 L601.555017,165.610809 L601.029312,166.128603 L600.639017,166.128603 L600.113312,165.626741 L599.595573,165.626741 L599.069869,166.144535 L598.544164,166.144535 L598.36893,166.080807 L598.209625,165.961316 L598.03439,165.857757 L597.85119,165.778096 L597.65206,165.778096 L597.452929,165.778096 L597.245834,165.778096 L597.054668,165.825893 L596.871468,165.897587 L596.759955,165.969282 L596.688268,165.969282 L596.536929,166.104705 L596.481173,166.168433 L596.401521,166.25606 L595.875816,166.25606 L595.358077,165.762164 L594.832373,165.762164 L594.314633,166.279958 L593.924338,166.279958 L593.406598,165.778096 L592.880894,165.778096 L592.363155,166.29589 L591.83745,166.29589 L591.702042,166.144535 L591.550703,166.025044 L591.367502,165.921485 L591.176337,165.849791 L590.993137,165.849791 L590.794007,165.849791 L590.594876,165.849791 L590.395746,165.897587 L590.212546,165.977248 L590.037311,166.072841 L589.878007,166.208264 L589.742598,166.359619 L589.216894,166.359619 L588.699154,165.865723 L588.181415,165.865723 L587.663676,166.375551 L587.27338,166.375551 L586.755641,165.873689 L586.229937,165.873689 L585.720163,166.391483 L585.202423,166.391483 L585.059049,166.248094 L584.90771,166.120637 L584.732476,166.017078 L584.549276,165.95335 L584.350145,165.905553 L584.151015,165.905553 L583.951884,165.905553 L583.752754,165.95335 L583.569554,166.03301 L583.402284,166.128603 L583.24298,166.25606 L583.107571,166.407415 L582.589832,166.407415 L582.072093,165.905553 L581.554353,165.905553 L581.036614,166.415381 L580.646318,166.415381 L580.128579,165.913519 L579.61084,165.913519 L579.101066,166.423347 L578.575362,166.423347 L578.447918,166.279958 L578.288614,166.152501 L578.113379,166.048942 L577.922214,165.985214 L577.731049,165.937418 L577.539883,165.937418 L577.340753,165.937418 L577.141622,165.99318 L576.958422,166.072841 L576.894701,166.072841 L576.838944,166.072841 L576.607953,166.072841 L576.607953,166.136569 L576.607953,166.224196 L576.607953,166.343687 L576.607953,168.813164 L573.517448,168.813164 L573.517448,169.705363 L573.692683,169.880616 L574.560892,170.748916 L575.76364,171.943825 L575.811431,178.005995 L570.235778,178.053791 L570.235778,178.953955 L570.418978,179.089378 L571.303117,179.718697 L571.303117,181.064961 L571.494282,181.192417 L571.494282,181.534958 L572.537726,182.228005 L572.537726,183.271558 L576.67964,185.95612 L576.67964,186.951877 L576.67964,192.313034 L575.086596,192.313034 L575.086596,192.894556 L575.222005,192.950318 L575.907013,193.253028 L575.907013,194.344378 L575.9787,194.344378 L576.31324,194.495733 L576.31324,195.49149 L576.376961,195.49149 L576.719466,195.610981 L576.823014,210.14107 L574.361761,210.14107 L574.361761,210.332255 L574.648509,210.332255 L574.648509,210.778355 L574.975083,210.778355 L575.134387,210.778355 L575.301657,210.778355 L575.460961,210.826151 L575.6123,210.881913 L575.755674,210.945642 L575.891083,211.025302 L576.026492,211.104963 L576.153935,211.208522 L576.257483,211.304114 L576.361031,211.407673 L576.361031,212.88936 L576.743361,212.88936 L576.743361,238.460404 L576.066318,239.368535 L575.875153,239.51989 L575.875153,242.371738 L562.899812,242.371738 L562.716612,211.877671 L561.776716,211.718349 L560.980194,211.718349 L560.868681,191.906765 L559.984542,191.906765 L559.90489,176.898713 L559.251742,176.898713 L559.068542,143.178392 L558.829585,143.178392 L558.829585,142.533141 L558.495046,142.533141 L558.495046,142.007381 L557.833933,142.007381 L557.833933,141.744501 L556.559498,141.744501 L556.559498,140.15129 L556.432054,140.023833 L554.480576,138.00842 L552.44148,140.278747 L552.44148,140.422136 L552.44148,142.015347 L532.759425,142.015347 L532.759425,141.760433 L531.461095,141.760433 L531.413303,142.039245 L531.357547,142.294159 L531.182312,142.294159 L531.11859,142.6367 L531.062834,142.93941 L530.991147,142.93941 L530.91946,143.337713 L530.75219,144.134319 L530.75219,147.4243 L530.330034,147.4243 L530.226486,147.91023 L530.075147,147.91023 L529.955668,148.507684 L529.868051,148.507684 L529.724677,149.248527 L529.724677,176.556172 L520.771771,176.556172 L520.453163,172.158908 L519.513267,160.401008 L518.326449,127.971188 L517.123701,160.408974 L516.167875,172.206705 L515.849266,176.611934 L506.362691,176.611934 L506.362691,149.320222 L506.187456,148.587345 L506.052048,147.98989 L505.900709,147.98989 L505.789195,147.503961 L505.207735,147.503961 L505.207735,144.221945 L505.008604,143.385509 L504.920987,142.987206 L504.8493,142.692462 L504.769648,142.33399 L504.610343,142.33399 L504.546621,142.095008 L504.4829,141.80823 L502.180952,141.80823 L502.180952,142.063144 L483.438793,142.063144 L483.438793,140.836371 L483.34321,140.685016 L481.280218,138.542146 L479.137575,140.589423 L479.137575,140.732812 L479.137575,141.816196 L478.24547,141.816196 L478.24547,142.079076 L477.791453,142.079076 L477.791453,142.596869 L477.433018,142.596869 L477.433018,143.250086 L477.209992,143.250086 L477.034757,176.898713 L476.333818,176.898713 L476.254165,191.882866 L475.226652,191.882866 L475.115139,211.646655 L474.382339,211.646655 L473.370756,211.813942 L473.195522,242.323942 L471.721956,242.323942 L471.236078,211.256318 L467.580043,202.732637 L467.580043,200.573835 L466.918929,198.040629 L466.608286,199.506383 L466.233921,199.506383 L464.00366,194.304548 L464.00366,192.88659 L454.628597,192.934386 L452.517815,193.45218 L451.24338,193.746924 L451.147797,186.959843 L448.758231,186.959843 L447.316527,187.453739 L447.523623,203.935511 L445.134057,197.9769 L445.134057,196.877584 L437.853847,196.877584 L436.555517,197.196227 L435.488177,197.451141 L435.424456,192.129814 L433.488908,192.129814 L432.692386,192.44049 L432.843725,206.213804 L432.509186,207.161765 L429.585951,207.161765 L421.437532,207.161765 L413.289114,207.161765 L413.289114,207.95837 L413.225392,207.767185 L413.225392,204.461271 L413.169635,204.222289 L413.066088,192.273203 L412.588174,192.273203 L412.468696,177.782945 L412.994401,177.257185 L412.994401,173.760086 L410.302157,173.760086 L409.457844,174.763809 L409.457844,178.165316 L409.903896,178.165316 L410.015409,191.651851 L409.848139,190.982702 L408.79673,190.982702 L404.96546,179.224801 L404.917669,170.860441 L395.869181,170.971966 L395.924937,179.503613 L392.420241,192.559981 L390.994467,197.865376 L390.882954,178.547686 L391.026328,178.547686 L391.368833,177.655488 L391.368833,174.174321 L388.716415,174.174321 L388.445597,175.14618 L388.445597,178.531754 L388.883684,178.531754 L389.050954,209.750733 L389.098745,209.750733 L389.098745,211.296148 L388.477458,211.296148 L388.286293,209.702937 L386.629528,196.590806 L386.589701,187.979498 L372.969178,188.091023 L372.969178,195.985386 L372.953247,195.985386 L372.953247,189.142543 L372.594813,189.142543 L372.594813,187.206791 L372.523126,186.920013 L372.523126,149.479543 L372.3001,147.472097 L372.212482,146.994133 L371.169039,145.20177 L370.030012,144.301606 L371.240725,144.126352 L371.240725,143.536864 L371.161073,143.114663 L370.468099,143.035003 L370.468099,133.866071 L371.264621,133.730648 L371.264621,133.268616 L371.184969,132.758789 L370.722986,132.687094 L370.476065,131.197441 L369.321108,129.691857 L367.895334,129.428977 L368.038708,129.365248 L368.285629,129.174063 L368.468829,128.927115 L368.588308,128.648303 L368.628134,128.337627 L368.588308,128.034917 L368.468829,127.756105 L368.277664,127.525089 L368.038708,127.34187 L367.831612,127.262209 L367.417421,114.213807 L367.043055,127.278141 L366.843925,127.365768 L366.597003,127.556953 L366.405838,127.795935 L366.28636,128.082713 L366.28636,128.385423 L366.28636,128.688133 L366.413803,128.966945 L366.597003,129.205927 L366.843925,129.389146 L366.987299,129.436943 L365.513733,129.763551 L364.191507,131.324898 L363.944585,132.798619 L363.38702,132.910144 L363.38702,133.372175 L363.546324,133.874037 L364.175577,133.961663 L364.175577,143.122629 L363.379055,143.24212 L363.379055,143.839574 L363.530394,144.253809 L364.581803,144.365334 L363.37109,145.321261 L362.311716,147.129556 L362.088689,149.144969 L362.088689,186.975775 L362.088689,188.154752 L348.723053,188.25831 L348.723053,196.758094 L347.321174,206.476684 L347.321174,205.202114 L346.875122,203.704496 L346.875122,179.009718 L347.305244,179.009718 L347.305244,175.640075 L346.468896,174.676183 L343.888165,174.716013 L343.888165,178.133451 L344.389974,178.627347 L344.389974,195.435728 L343.593452,192.822861 L339.754217,180.077169 L339.754217,171.657047 L331.072129,171.776538 L331.072129,180.124966 L327.08952,191.643885 L326.627537,191.643885 L326.627537,179.184971 L327.073589,179.184971 L327.073589,175.863125 L325.703572,174.92313 L323.162667,174.92313 L323.162667,178.324637 L323.688371,178.635313 L323.632615,200.430446 L322.549345,204.748049 L322.549345,207.376848 L311.015709,207.376848 L310.322735,205.520757 L310.378491,193.276927 L309.311152,192.998115 L307.5827,192.998115 L307.5827,198.024697 L306.730421,197.85741 L305.193134,197.578598 L304.109864,197.578598 L304.109864,192.70337 L303.695673,192.599812 L298.558107,192.599812 L298.558107,198.654015 L296.965063,202.772467 L296.590698,200.876545 L296.144646,202.90789 L296.144646,204.86754 L295.156959,207.368882 L294.08962,207.368882 L292.608089,203.481446 L292.703672,188.513224 L291.00708,188.059159 L288.840541,188.059159 L288.840541,189.182373 L283.416227,189.222203 L283.376401,193.962007 L277.004226,194.009804 L277.004226,195.340135 L275.235948,199.570112 L275.012921,198.661981 L274.311982,201.203154 L274.311982,201.81654 L270.377164,211.27225 L270.130243,237.67973 L263.758068,237.67973 L263.758068,234.310088 L267.382242,230.327059 L265.789198,229.92079 L264.251911,229.418929 L262.722589,228.837407 L261.225128,228.176224 L259.743598,227.427415 L258.285963,226.630809 L256.852223,225.722678 L255.434414,224.734887 L254.040501,223.667435 L252.678449,222.536255 L251.332327,221.325415 L250.440223,220.46508 L250.440223,219.278138 L249.643701,219.278138 L249.643701,220.457114 L248.69584,221.29355 L247.899318,222.04236 L247.580709,222.04236 L242.371456,220.249997 L242.371456,213.622237 L242.467039,213.622237 L242.467039,213.15224 L239.742934,213.15224 L239.742934,209.217007 L240.810273,208.300911 L238.341056,206.492616 L236.947142,206.954647 L234.557577,208.683281 L235.58509,209.527684 L235.58509,213.136308 L227.325159,213.136308 L227.325159,212.913258 L227.436672,212.913258 L227.436672,212.395464 L222.410619,212.395464 L222.410619,210.563271 L217.257122,210.563271 L216.675662,209.65514 L216.436705,209.344464 L216.436705,204.963133 L219.089123,204.166527 L222.179627,202.031624 L221.136184,202.031624 L220.62641,201.975861 L220.124601,201.872302 L219.622792,201.736879 L219.144879,201.561626 L218.674931,201.346543 L218.228879,201.107561 L217.782827,200.820783 L217.368636,200.502141 L216.970375,200.1596 L216.596009,199.785195 L215.687974,188.505258 L215.687974,184.729347 L215.640183,184.681551 L215.560531,184.617822 L215.560531,184.522229 L215.496809,184.402739 L215.417157,184.331044 L215.3614,184.227485 L215.289714,184.147825 L215.130409,183.980538 L214.915348,183.900877 L214.708253,183.821216 L214.596739,183.821216 L214.485226,183.821216 L214.365748,183.765454 L213.210791,183.765454 L213.139105,183.892911 L213.139105,183.988504 L213.075383,183.988504 L212.645261,184.060198 L212.581539,184.195621 L212.581539,184.689517 L212.669157,184.785109 L212.740844,184.888668 L212.947939,184.968329 L213.186896,185.024091 L213.393992,185.024091 L213.497539,185.024091 L213.577192,185.12765 L213.656844,185.175446 L213.728531,185.255107 L213.887835,185.438326 L213.959522,186.282728 L213.959522,186.442049 L213.848009,186.577472 L213.601087,186.792556 L153.423862,186.943911 L153.320314,186.856284 L153.145079,186.649167 L153.145079,186.442049 L153.208801,185.645444 L153.36014,185.454258 L153.439792,185.374598 L153.519444,185.326801 L153.599097,185.223243 L153.702644,185.223243 L153.901775,185.223243 L154.140731,185.159514 L154.347827,185.08782 L154.419514,184.976295 L154.507132,184.888668 L154.507132,184.386813 L154.363758,184.25935 L153.949566,184.187655 L153.949566,184.084096 L153.806192,183.956639 L152.555653,183.956639 L152.436175,184.020368 L152.268905,184.020368 L152.221114,184.020368 L152.014018,184.100028 L151.806922,184.163757 L151.647618,184.346976 L151.567966,184.418671 L151.520175,184.522229 L151.440522,184.593924 L151.384766,184.713415 L151.34494,184.801041 L151.265288,184.880702 L151.217496,184.880702 L151.217496,188.640681 L149.321774,199.864856 L149.560731,199.976381 L149.273983,200.239261 L148.851826,200.589767 L148.405774,200.900443 L147.943792,201.179255 L147.465878,201.426203 L146.96407,201.641287 L146.454296,201.824506 L145.944522,201.928065 L145.402887,202.023658 L144.861252,202.087386 L143.754087,202.087386 L149.52887,204.206357 L149.680209,204.254154 L149.680209,210.579203 L149.337705,210.579203 L149.337705,212.40343 L138.895303,212.40343 L138.895303,212.921224 L138.895303,213.168172 L134.594085,213.168172 L134.594085,209.591412 L135.637529,208.794806 L133.383372,207.082104 L131.376137,206.628039 L129.050293,208.404469 L130.117633,209.304634 L130.117633,213.215968 L126.214676,213.215968 L126.214676,213.685966 L126.119093,213.685966 L126.119093,220.249997 L121.292171,222.018462 L119.62744,222.018462 L118.703475,221.261686 L117.269735,220.066777 L116.321874,219.174579 L116.321874,217.931874 L115.477561,217.931874 L115.477561,219.174579 L114.521735,220.058811 L113.08003,221.317448 L111.694082,222.496425 L110.204587,223.595741 L108.69916,224.615396 L107.169838,225.555391 L105.576795,226.407759 L103.983751,227.204365 L102.390707,227.889446 L100.972898,228.40724 L100.845455,218.146958 L100.598533,206.667869 L100.439229,191.57219 L100.343646,191.476598 L100.152481,191.396937 L99.8577678,191.325242 L99.4913677,191.277446 L99.4913677,190.775585 L99.4117155,189.755929 L99.4117155,189.429321 L99.4117155,188.855765 L99.4993329,188.696444 L99.4993329,188.385767 L99.4993329,188.306107 L99.4993329,188.194582 L99.4356112,188.035261 L99.3718894,187.87594 L98.4399589,187.87594 L98.3523415,188.035261 L98.3523415,188.353903 L98.3523415,188.648647 L98.3523415,189.054916 L98.153211,190.377282 L98.153211,191.277446 L97.898324,191.325242 L97.5876805,191.404903 L97.348724,191.500496 L97.2133152,191.596088 L97.2133152,191.699647 L97.3646544,205.911094 L97.2212805,205.911094 L97.2212805,202.055522 L95.7636455,202.055522 L95.6600976,202.198911 L95.6600976,204.469237 L78.5667389,204.525 L78.5667389,202.135182 L77.260443,202.135182 L77.260443,196.20047 L77.2046865,183.51054 L77.2046865,183.391049 L77.077243,183.287491 L76.8542169,183.191898 L76.5356082,183.120203 L76.1532777,183.072407 L76.1532777,182.546647 L76.1532777,181.55089 L76.1532777,181.232248 L76.1532777,180.674624 L76.1532777,180.483438 L76.1532777,180.15683 L76.1532777,180.061237 L76.1532777,179.909882 L76.1532777,179.774459 L75.0939036,179.774459 L75.0939036,179.957679 L75.0939036,180.276321 L75.0939036,180.563099 L75.0939036,180.969368 L75.0540775,182.363428 L75.0540775,183.120203 L74.8629123,183.120203 L74.5044774,183.191898 L74.2177296,183.279525 L74.0265643,183.391049 L73.9469122,183.51054 L73.9469122,189.182373 L71.9954336,189.182373 L71.9954336,189.365592 L71.9954336,191.57219 L43.9897256,191.715579 L43.9897256,189.516947 L43.9180386,189.333728 L41.3691687,189.333728 L41.3691687,183.709692 L41.2815513,183.590201 L41.0903861,183.486642 L40.8036382,183.391049 L40.4452034,183.311389 L40.4452034,182.514783 L40.2779338,181.160553 L40.2779338,180.746318 L40.2779338,180.467506 L40.2779338,180.148864 L40.2062468,179.973611 L39.3061771,179.973611 L39.2583858,180.117 L39.2105945,180.260389 L39.2105945,180.355981 L39.2105945,180.435642 L39.2105945,180.690556 L39.2822815,180.865809 L39.2822815,181.431399 L39.2822815,181.742075 L39.2185597,182.737833 L39.2185597,183.255626 L38.9238466,183.255626 L38.6052379,183.327321 L38.3822118,183.422914 L38.2468031,183.534438 L38.2468031,183.645963 L38.0556378,196.351825 L38.0078465,202.30247 L36.821029,202.30247 L36.821029,204.692287 L19.9506963,204.748049 L19.9506963,202.493655 L19.7993572,202.350266 L18.2461396,202.350266 L18.3815483,192.09795 L18.3815483,191.994391 L18.2541048,191.898799 L18.0151482,191.803206 L17.7045047,191.715579 L17.5850264,191.715579 L17.5850264,190.767618 L17.2743829,189.461185 L17.2743829,189.062882 L17.3221742,188.768138 L17.3221742,188.44153 L17.1947307,188.290175 L16.2787306,188.290175 L16.1911132,188.449496 L16.0955306,188.608817 L16.039774,188.720342 L15.9840175,188.807968 L15.9840175,189.054916 L16.1194262,189.214237 L16.1194262,189.779827 L16.0796001,190.09847 L15.9601219,191.118125 L15.9601219,191.627953 L15.6813392,191.627953 L15.3866261,191.683715 L15.1954609,191.763376 L15.0998783,191.858968 L14.8927826,206.851088 L14.6219652,215.94036 L0.181024115,215.996122 Z M1360.99877,245.685618 L1367.2674,247.31866 L1368.15154,247.31866 L1369.60121,249.604918 L1369.9915,250.592709 L1367.52228,249.604918 L1362.88653,247.063746 L1360.99877,245.685618 Z M1122.16169,223.47625 L1122.20949,210.340221 L1122.20949,203.409752 L1128.58166,212.522921 L1128.84451,212.355634 L1128.84451,212.307838 L1128.5737,211.917501 L1131.19425,209.679039 L1131.43321,210.021579 L1131.92705,209.694971 L1131.92705,209.65514 L1131.6642,209.264804 L1134.26883,207.034308 L1134.50778,207.368882 L1135.01756,207.042274 L1135.01756,206.994477 L1134.7547,206.604141 L1137.3673,204.365678 L1137.59829,204.716185 L1138.10806,204.381611 L1138.10806,204.381611 L1137.83724,203.983308 L1139.82058,202.294503 L1139.725,203.823986 L1140.6649,204.349746 L1140.6649,204.349746 L1140.39408,228.104529 L1132.82712,228.016903 L1132.0306,226.328099 L1132.0306,223.595741 L1128.59759,223.595741 L1123.81846,223.595741 L1123.81846,223.595741 L1122.16169,223.47625 Z M707.102127,155.724932 L704.226683,155.724932 L704.226683,155.724932 L703.509813,155.724932 L703.509813,155.724932 L700.634369,155.724932 L700.634369,155.438154 L701.120247,150.148692 L701.120247,150.148692 L701.454787,145.886851 L701.303448,145.886851 L701.303448,145.886851 L701.430891,145.886851 L701.430891,145.839055 L701.303448,145.839055 L701.303448,145.337193 L701.438856,145.337193 L701.438856,145.337193 L701.438856,145.337193 L701.438856,145.337193 L701.438856,145.337193 L701.438856,145.337193 L701.614091,145.297363 L701.510543,144.875162 L701.510543,144.875162 L701.829152,140.947896 L701.829152,140.947896 L701.9327,140.286713 L701.9327,140.286713 L702.107935,139.163499 L701.972526,139.163499 L701.972526,138.996212 L702.1159,138.996212 L702.2991,135.2203 L702.561952,131.954217 L702.561952,131.954217 L702.561952,131.90642 L702.561952,131.90642 L702.561952,131.301 L703.573535,118.802256 L703.573535,119.009374 L703.924004,123.342909 L703.924004,123.430535 L703.924004,123.430535 L703.924004,123.50223 L703.924004,123.50223 L703.924004,124.147481 L703.924004,124.147481 L703.924004,124.490021 L703.96383,124.490021 L703.96383,124.55375 L703.96383,124.55375 L704.003657,125.183068 L704.003657,125.183068 L704.051448,125.668998 L704.306335,127.843731 L704.624944,131.86659 L704.624944,131.86659 L704.704596,132.710992 L705.206405,138.948415 L705.254196,138.948415 L705.254196,138.996212 L705.206405,138.996212 L705.262161,139.370616 L705.262161,139.370616 L705.262161,139.370616 L705.986996,143.831608 L706.783518,152.35529 L707.102127,155.724932 Z M715.274441,203.290261 L693.354159,203.290261 L698.30056,172.549245 L698.372247,172.158908 L698.627134,170.884339 L709.380179,170.884339 L715.274441,203.290261 Z M678.97694,236.668041 L679.653984,235.281947 L679.741601,235.345676 L680.307132,234.413647 L680.235445,234.36585 L680.283236,234.278224 L680.354923,234.318054 L680.80894,233.393991 L680.62574,233.306365 L681.334645,231.84061 C681.334645,230.781125 681.979828,229.402997 683.15868,227.953174 L683.15868,227.953174 L683.15868,227.953174 L683.15868,227.953174 C686.504072,223.802858 694.182542,219.03119 703.700978,219.03119 C716.325849,219.03119 727.461225,227.459279 727.811694,231.633493 L727.978964,231.896373 L727.883381,231.952135 L729.914512,236.014824 L730.00213,235.967028 L730.065851,236.102451 L730.065851,236.102451 L730.535799,237.153971 L730.631382,237.11414 L730.814582,237.464647 L730.766791,237.512443 L730.93406,237.687696 L731.11726,238.046169 C730.61951,238.907172 730.366141,239.887702 730.38446,240.882085 C730.384877,241.375872 730.443697,241.867875 730.559695,242.34784 L679.32741,242.34784 C679.409256,242.199901 679.478531,242.045347 679.534505,241.885809 L679.685845,241.614963 L679.638053,241.614963 C679.701775,241.431743 679.741601,241.240558 679.789392,241.041407 L679.789392,241.041407 L679.789392,240.802425 C679.847239,240.473652 679.876554,240.140492 679.87701,239.806668 C679.889743,238.877019 679.667839,237.959173 679.231827,237.138038 L679.231827,236.787532 L679.024732,236.787532 C679.011219,236.746777 678.995259,236.706874 678.97694,236.668041 L678.97694,236.668041 Z M623.674429,210.380052 L624.550603,210.380052 L624.550603,210.380052 L623.674429,210.380052 Z M604.557904,233.991446 L604.557904,212.761903 L604.900409,212.658344 L604.900409,211.487334 L604.972096,211.391741 L605.051748,211.31208 L605.139365,211.23242 L605.226983,211.160725 L605.33053,211.096997 L605.434078,211.041234 L605.545591,211.001404 L605.649139,210.961574 L605.736757,210.961574 L606.119087,210.961574 L606.119087,210.603101 L606.334148,210.603101 L606.334148,210.451746 L604.565869,210.451746 L604.812791,207.870744 L605.720826,205.480926 L607.218287,203.425684 L609.209592,201.832472 L611.551366,200.836715 L613.869245,200.510107 L614.299366,200.510107 L616.617245,200.820783 L619.006811,201.808574 L621.00608,203.401785 L622.503541,205.464994 L623.403611,207.854812 L623.634602,210.451746 L621.842428,210.451746 L621.842428,210.603101 L622.049524,210.603101 L622.049524,210.96954 L622.415924,210.96954 L622.519472,210.96954 L622.630985,211.00937 L622.742498,211.057167 L622.846046,211.104963 L622.949594,211.176657 L623.045176,211.248352 L623.132794,211.320046 L623.212446,211.407673 L623.284133,211.503266 L623.284133,212.722073 L623.634602,212.809699 L623.507159,234.166699 L623.507159,234.32602 L622.583194,234.32602 L622.583194,238.978198 L622.583194,239.177349 L622.264585,239.177349 L622.264585,241.264456 L622.567263,242.395636 L605.402217,242.395636 L605.744722,241.121067 L605.744722,239.041926 L605.450009,239.041926 L605.450009,234.214495 L604.565869,234.214495 L604.557904,233.991446 Z M77.4436431,226.622843 L78.096791,226.622843 L78.1445823,226.622843 L78.9888954,222.161851 L80.1279217,222.161851 L81.235087,221.532532 L82.9635394,221.532532 L83.019296,221.47677 L83.7441308,220.003049 L90.8650361,220.003049 L91.661558,221.524566 L93.3740799,221.524566 L94.4971758,222.153885 L95.6760281,222.153885 L96.5920282,226.646741 L97.6514023,226.646741 L97.6514023,228.725882 L97.1814544,228.725882 L96.7194717,228.725882 L96.4486543,228.725882 L96.3690021,228.725882 L96.3690021,229.363166 L95.7556803,229.498589 L95.7556803,232.175185 L96.145976,232.175185 L96.2495238,232.28671 L96.3371412,232.414166 L96.400863,232.557555 L96.4566195,232.708911 L96.4566195,232.8523 L96.4566195,233.162976 L96.4566195,233.322297 L96.4088282,233.465686 L96.3371412,233.609075 L96.257489,233.744498 L96.145976,233.863989 L96.0344629,234.007378 L95.9388803,234.166699 L95.8751585,234.333986 L95.819402,234.50924 L95.819402,234.692459 L95.819402,235.050931 L95.819402,235.226185 L95.8831238,235.401438 L95.9548107,235.568725 L96.0503933,235.728046 L96.1698716,235.871435 L96.1698716,237.241597 L95.7795759,237.241597 L95.7795759,237.711595 L79.0526172,237.711595 L79.0526172,237.281427 L78.6862171,237.241597 L78.6862171,235.879401 L78.7977302,235.728046 L78.8933128,235.568725 L79.0366867,235.385506 L79.0924433,235.210253 L79.0924433,235.019067 L79.0924433,234.652629 L79.0924433,234.469409 L79.044652,234.28619 L78.9649998,234.118903 L78.8773824,233.959582 L78.7738345,233.808226 L78.6623215,233.688736 L78.5826693,233.553313 L78.5189475,233.409924 L78.463191,233.258569 L78.463191,233.099247 L78.463191,232.788571 L78.463191,232.637216 L78.5109823,232.485861 L78.5747041,232.334506 L78.6543563,232.199083 L78.6543563,232.199083 L78.718078,232.199083 L79.0207563,232.111456 L79.1004085,232.111456 L79.1004085,229.347234 L78.6941824,229.347234 L78.6941824,228.845373 L78.5189475,228.845373 L78.1445823,228.845373 L77.4436431,228.845373 L77.4436431,226.622843 Z M41.0744556,228.805542 L41.1461426,213.080545 L42.1178992,213.080545 L43.0100037,208.643451 L44.1729256,208.643451 L45.2721257,208.022099 L46.9846477,208.022099 L47.6139,206.779394 L67.2401982,206.707699 L68.0367201,208.237182 L69.7173812,208.237182 L70.8245465,208.850569 L71.9874684,208.850569 L72.8716077,213.303595 L74.05046,213.303595 L74.05046,213.239866 L74.1141817,228.725882 L73.86726,228.725882 L73.4530686,228.725882 L73.0707381,228.725882 L72.8716077,228.725882 L72.8716077,229.227743 L72.7521294,229.227743 L72.5529989,229.418929 L72.5529989,232.199083 L72.9114338,232.199083 L72.9990512,232.310608 L73.0707381,232.438065 L73.1424251,232.581454 L73.1902164,232.724843 L73.1902164,232.884164 L73.1902164,233.027553 L73.1902164,233.186874 L73.1902164,233.338229 L73.1902164,233.489584 L73.1264947,233.632973 L73.0468425,233.76043 L72.9512599,233.879921 L72.8397468,234.031276 L72.7600946,234.190597 L72.6963729,234.349918 L72.6406163,234.525172 L72.6406163,234.708391 L72.6406163,234.883644 L72.6406163,235.07483 L72.6406163,235.242117 L72.664512,235.385506 L72.7282337,235.552793 L72.8158511,235.712114 L72.9273642,235.855503 L72.9273642,237.217699 L72.5768946,237.217699 L72.5768946,237.695662 L42.7949428,237.695662 L42.7949428,237.217699 L42.3966819,237.217699 L42.3966819,235.863469 L42.5081949,235.72008 L42.6037776,235.560759 L42.6754645,235.393472 L42.7312211,235.226185 L42.7312211,235.050931 L42.7312211,234.684493 L42.7312211,234.501273 L42.6834298,234.333986 L42.6117428,234.166699 L42.5161602,234.007378 L42.4046471,233.863989 L42.3090645,233.744498 L42.2214471,233.617041 L42.1577253,233.473652 L42.109934,233.322297 L42.109934,233.178908 L42.109934,232.860266 L42.109934,232.708911 L42.1577253,232.565522 L42.2294123,232.430099 L42.3170297,232.294676 L42.4126123,232.183151 L42.7869776,232.183151 L42.7869776,229.506555 L42.2612732,229.371133 L42.2612732,228.845373 L42.1497601,228.845373 L41.8630123,228.845373 L41.3930644,228.845373 L41.0744556,228.805542 Z M17.8000873,228.725882 L17.8000873,226.662673 L18.8116701,226.662673 L19.7276702,222.193715 L20.8905921,222.193715 L21.9897922,221.572362 L23.7023142,221.572362 L24.498836,220.058811 L31.0382804,220.058811 L31.7392196,221.5166 L31.8746283,221.564396 L33.5552894,221.564396 L34.5668722,222.137952 L34.6783852,222.193715 L35.7457245,222.193715 L36.5422463,226.630809 L36.6537594,226.630809 L37.7449943,226.630809 L37.7449943,228.781644 L36.821029,228.781644 L36.5502115,228.781644 L36.4705594,228.781644 L36.4705594,229.283506 L35.8492723,229.283506 L35.8492723,232.031796 L35.8970636,232.031796 L36.2714289,232.079592 L36.3431159,232.159253 L36.4307333,232.28671 L36.5024202,232.438065 L36.5502115,232.58942 L36.5502115,232.740775 L36.5502115,232.89213 L36.5502115,233.051451 L36.5502115,233.210772 L36.5024202,233.362127 L36.4227681,233.505516 L36.3351506,233.632973 L36.2316028,233.752464 L36.1200897,233.903819 L36.0165419,234.071106 L35.9368897,234.24636 L35.8811332,234.421613 L35.8811332,234.596866 L35.8811332,234.788052 L35.8811332,234.971271 L35.8811332,235.15449 L35.9368897,235.329743 L36.0165419,235.504997 L36.1121245,235.664318 L36.2236376,235.815673 L36.2236376,237.193801 L35.8253767,237.193801 L35.8253767,237.623968 L19.7595311,237.623968 L19.7595311,237.146005 L19.3533049,237.146005 L19.3533049,235.783809 L19.4807484,235.64042 L19.576331,235.481099 L19.6559832,235.313811 L19.719705,235.146524 L19.7595311,234.971271 L19.7595311,234.788052 L19.7595311,234.604832 L19.7595311,234.421613 L19.7037745,234.254326 L19.6241223,234.087038 L19.5285397,233.935683 L19.4090614,233.792294 L19.3055136,233.664837 L19.2178962,233.537381 L19.138244,233.393991 L19.0904527,233.242636 L19.0904527,233.099247 L19.0904527,232.788571 L19.0904527,232.637216 L19.1462092,232.493827 L19.2258614,232.358404 L19.321444,232.222981 L19.4329571,232.111456 L19.831218,232.111456 L19.8710441,229.442827 L19.0745223,229.331302 L19.0745223,228.670119 L18.883357,228.670119 L18.516957,228.670119 L17.9832873,228.670119 L17.8000873,228.725882 Z" id="Shape" fill="#FFFFFF" fill-rule="nonzero"></path>
                    </g>
                </g>
            </g>
        </g>
    </g>
</svg>