<?xml version="1.0" encoding="UTF-8"?>
<svg width="321px" height="197px" viewBox="0 0 321 197" version="1.1" xmlns="http://www.w3.org/2000/svg" xmlns:xlink="http://www.w3.org/1999/xlink">
    <title>upside-down-beach-zoomed</title>
    <defs>
        <rect id="path-1" x="0" y="0" width="321" height="197"></rect>
        <filter x="-31.6%" y="-30.2%" width="163.3%" height="160.6%" filterUnits="objectBoundingBox" id="filter-3">
            <feOffset dx="-10" dy="7" in="SourceAlpha" result="shadowOffsetOuter1"></feOffset>
            <feGaussianBlur stdDeviation="8" in="shadowOffsetOuter1" result="shadowBlurOuter1"></feGaussianBlur>
            <feColorMatrix values="0 0 0 0 0   0 0 0 0 0   0 0 0 0 0  0 0 0 0.05 0" type="matrix" in="shadowBlurOuter1" result="shadowMatrixOuter1"></feColorMatrix>
            <feMerge>
                <feMergeNode in="shadowMatrixOuter1"></feMergeNode>
                <feMergeNode in="SourceGraphic"></feMergeNode>
            </feMerge>
        </filter>
        <linearGradient x1="100%" y1="26.6352653%" x2="14.2023625%" y2="60.2221409%" id="linearGradient-4">
            <stop stop-color="#7FBFEB" offset="0%"></stop>
            <stop stop-color="#78B4DE" offset="100%"></stop>
        </linearGradient>
        <linearGradient x1="11.9595095%" y1="45.4604353%" x2="89.4681759%" y2="56.4941285%" id="linearGradient-5">
            <stop stop-color="#78B4DE" offset="0%"></stop>
            <stop stop-color="#B2DAF3" offset="100%"></stop>
        </linearGradient>
        <linearGradient x1="92.4081036%" y1="66.9672921%" x2="-28.7673266%" y2="-30.9807486%" id="linearGradient-6">
            <stop stop-color="#78B4DE" offset="0%"></stop>
            <stop stop-color="#B2DAF3" offset="100%"></stop>
        </linearGradient>
        <linearGradient x1="95.1831137%" y1="54.0582452%" x2="-13.5654932%" y2="50%" id="linearGradient-7">
            <stop stop-color="#78B4DE" offset="0%"></stop>
            <stop stop-color="#B2DAF3" offset="100%"></stop>
        </linearGradient>
        <linearGradient x1="83.9745948%" y1="22.9859337%" x2="-19.6048086%" y2="83.2413317%" id="linearGradient-8">
            <stop stop-color="#78B4DE" offset="0%"></stop>
            <stop stop-color="#B2DAF3" offset="100%"></stop>
        </linearGradient>
        <linearGradient x1="39.9678777%" y1="14.3858952%" x2="73.4722655%" y2="64.6398004%" id="linearGradient-9">
            <stop stop-color="#78B4DE" offset="0%"></stop>
            <stop stop-color="#B2DAF3" offset="100%"></stop>
        </linearGradient>
        <filter x="-26.6%" y="-21.2%" width="153.2%" height="142.4%" filterUnits="objectBoundingBox" id="filter-10">
            <feOffset dx="10" dy="17" in="SourceAlpha" result="shadowOffsetOuter1"></feOffset>
            <feGaussianBlur stdDeviation="5.5" in="shadowOffsetOuter1" result="shadowBlurOuter1"></feGaussianBlur>
            <feColorMatrix values="0 0 0 0 0   0 0 0 0 0   0 0 0 0 0  0 0 0 0.03 0" type="matrix" in="shadowBlurOuter1" result="shadowMatrixOuter1"></feColorMatrix>
            <feMerge>
                <feMergeNode in="shadowMatrixOuter1"></feMergeNode>
                <feMergeNode in="SourceGraphic"></feMergeNode>
            </feMerge>
        </filter>
        <linearGradient x1="81.3718393%" y1="0%" x2="6.36021416%" y2="50%" id="linearGradient-11">
            <stop stop-color="#B2DAF3" offset="0%"></stop>
            <stop stop-color="#78B4DE" offset="100%"></stop>
        </linearGradient>
        <linearGradient x1="109.45573%" y1="39.3123394%" x2="9.50177698%" y2="54.3882062%" id="linearGradient-12">
            <stop stop-color="#B2DAF3" offset="0%"></stop>
            <stop stop-color="#78B4DE" offset="100%"></stop>
        </linearGradient>
        <linearGradient x1="80.040082%" y1="30.4438617%" x2="15.9141856%" y2="60.4962548%" id="linearGradient-13">
            <stop stop-color="#78B4DE" offset="0%"></stop>
            <stop stop-color="#B2DAF3" offset="100%"></stop>
        </linearGradient>
        <linearGradient x1="83.9745948%" y1="34.0251226%" x2="-10.5522071%" y2="56.6149503%" id="linearGradient-14">
            <stop stop-color="#78B4DE" offset="0%"></stop>
            <stop stop-color="#B2DAF3" offset="100%"></stop>
        </linearGradient>
        <linearGradient x1="67.9298465%" y1="0%" x2="13.266566%" y2="111.525968%" id="linearGradient-15">
            <stop stop-color="#78B4DE" offset="0%"></stop>
            <stop stop-color="#B2DAF3" offset="100%"></stop>
        </linearGradient>
        <linearGradient x1="20.9212613%" y1="35.2221332%" x2="77.8033487%" y2="68.9484261%" id="linearGradient-16">
            <stop stop-color="#78B4DE" offset="0%"></stop>
            <stop stop-color="#B2DAF3" offset="100%"></stop>
        </linearGradient>
        <rect id="path-17" x="0" y="0" width="320" height="299"></rect>
    </defs>
    <g id="Maquettes" stroke="none" stroke-width="1" fill="none" fill-rule="evenodd">
        <g id="Landing-page---Mobile" transform="translate(0.000000, -4170.000000)">
            <g id="upside-down-beach-zoomed" transform="translate(0.000000, 4170.000000)">
                <mask id="mask-2" fill="white">
                    <use xlink:href="#path-1"></use>
                </mask>
                <g id="Mask"></g>
                <g id="palmier2" filter="url(#filter-3)" mask="url(#mask-2)" fill-rule="nonzero">
                    <g transform="translate(50.000000, 46.832090) scale(1, -1) rotate(-7.000000) translate(-50.000000, -46.832090) translate(-29.000000, -36.000000)" id="Path">
                        <polygon fill="#6EA5CC" points="86.2530464 43.4349641 80.5118587 40.2754669 74.2174517 42.1318252 58.6166655 162.795116 67.5296442 160.238013 75.6927033 164.651475"></polygon>
                        <polygon fill="#FFFFFF" points="79.5775327 47.0247431 70.7506103 47.7009002 70.8981355 55.0648646 78.9628445 52.753637 86.3391027 56.7368165 88.0725234 49.5695522"></polygon>
                        <polygon fill="#B2DAF3" points="88.2323424 49.8646026 86.5112154 57.0195731 79.1226634 53.0363936 79.7496454 47.3074997"></polygon>
                        <polygon fill="#7FBFEB" points="70.9104292 47.9836567 71.0702482 55.3476212 79.1226634 53.0363936 79.7496454 47.3074997"></polygon>
                        <polygon fill="#FFFFFF" points="78.5817378 55.2615649 69.6195841 56.1098345 69.779403 63.5721491 77.9424621 61.2240403 85.4170705 65.2563948 87.1627849 58.0030742"></polygon>
                        <polygon fill="#B2DAF3" points="87.3348976 58.2981245 85.5891832 65.5514451 78.1145748 61.5067968 78.7538505 55.5443214"></polygon>
                        <polygon fill="#7FBFEB" points="69.7916967 56.3925911 69.9515157 63.8549057 78.1145748 61.5067968 78.7538505 55.5443214"></polygon>
                        <polygon fill="#FFFFFF" points="80.4749774 38.7264526 71.7709927 39.2304969 71.9185179 46.5084051 79.8848768 44.221765 87.1750787 48.1557694 88.8716181 41.0868553"></polygon>
                        <polygon fill="#FFFFFF" points="89.0437308 41.3696118 87.3471914 48.4508197 80.0569895 44.5045216 80.6470901 39.0092092"></polygon>
                        <polygon fill="#FFFFFF" points="71.9431054 39.5132535 72.0906306 46.7911616 80.0569895 44.5045216 80.6470901 39.0092092"></polygon>
                        <polygon fill="#FFFFFF" points="77.8809933 63.5967367 68.7959019 64.6171191 68.9557208 72.16549 77.21713 69.7804998 84.7777947 73.8743232 86.5480967 66.5349462"></polygon>
                        <polygon fill="#B2DAF3" points="86.7202094 66.8177028 84.9499074 74.1693735 77.3892427 70.0755502 78.053106 63.8794932"></polygon>
                        <polygon fill="#7FBFEB" transform="translate(73.102957, 68.104011) rotate(7.000000) translate(-73.102957, -68.104011) " points="68.60835 65.4276815 69.6868926 72.9003109 77.5975636 69.5384877 77.5013691 63.3077107"></polygon>
                        <polygon fill="#FFFFFF" points="76.8237296 72.4851278 67.6034068 73.6530354 67.7632257 81.2997565 76.1229851 78.8901788 83.7819999 83.0331771 85.5768894 75.5954501"></polygon>
                        <polygon fill="#B2DAF3" points="85.7490021 75.8905004 83.9664063 83.3159337 76.2950978 79.1729353 76.9958423 72.7678844"></polygon>
                        <polygon fill="#7FBFEB" transform="translate(71.967346, 77.114022) rotate(7.000000) translate(-71.967346, -77.114022) " points="67.4209342 74.4825393 68.5099645 82.0405837 76.5137578 78.6301682 76.4286997 72.1874603"></polygon>
                        <polygon fill="#FFFFFF" points="75.8894036 81.1276438 66.5461431 82.467664 66.7059621 90.2127352 75.1640715 87.7785699 82.9214364 91.9707434 84.7286197 84.44696"></polygon>
                        <polygon fill="#B2DAF3" points="84.9007324 84.7297165 83.0935491 92.2534999 75.3361842 88.0613265 76.0615163 81.4226941"></polygon>
                        <polygon fill="#7FBFEB" transform="translate(70.967619, 85.897433) rotate(7.000000) translate(-70.967619, -85.897433) " points="66.3679038 83.3039471 67.4689199 90.9596085 75.5673338 87.512803 75.4782136 80.8352582"></polygon>
                        <polygon fill="#FFFFFF" points="74.9550775 89.7578659 65.4888794 91.2577051 65.6486984 99.0888326 74.2051579 96.6300798 82.0485792 100.871428 83.88035 93.2492948"></polygon>
                        <polygon fill="#B2DAF3" points="84.0524627 93.5443451 82.2206919 101.154185 74.3772706 96.9128364 75.1271902 90.0406225"></polygon>
                        <polygon fill="#7FBFEB" transform="translate(69.961836, 94.649367) rotate(7.000000) translate(-69.961836, -94.649367) " points="65.3034658 92.1014763 66.42867 99.8532565 74.6202062 96.3578587 74.5270238 89.445477"></polygon>
                        <polygon fill="#FFFFFF" points="74.0084577 98.5233194 64.4070282 100.195271 64.5668472 108.112455 73.2339506 105.616821 81.175722 109.907345 83.0320803 102.211449"></polygon>
                        <polygon fill="#B2DAF3" points="83.1918992 102.494205 81.3478347 110.190101 73.4060633 105.899578 74.1805704 98.806076"></polygon>
                        <polygon fill="#7FBFEB" transform="translate(68.949724, 103.538019) rotate(7.000000) translate(-68.949724, -103.538019) " points="64.2387995 101.033477 65.3622892 108.87217 73.6606481 105.338884 73.5649017 98.2038674"></polygon>
                        <polygon fill="#FFFFFF" points="73.0987192 106.907666 63.3743521 108.751731 63.534171 116.767265 72.2996246 114.247043 80.3274523 118.586742 82.2083981 110.792496"></polygon>
                        <polygon fill="#B2DAF3" points="82.3805108 111.075252 80.499565 118.869498 72.4717372 114.5298 73.2708319 107.190423"></polygon>
                        <polygon fill="#7FBFEB" transform="translate(67.975328, 112.057205) rotate(7.000000) translate(-67.975328, -112.057205) " points="63.2111002 109.596761 64.3465757 117.533071 72.7395551 113.963395 72.6382484 106.58134"></polygon>
                        <polygon fill="#FFFFFF" points="72.1275119 115.845233 62.2802071 117.849116 62.4523198 125.950706 71.3161235 123.405897 79.4300075 127.794771 81.3355409 119.914468"></polygon>
                        <polygon fill="#B2DAF3" points="81.4953598 120.197225 79.6021202 128.077527 71.4882361 123.688654 72.2996246 116.127989"></polygon>
                        <polygon fill="#7FBFEB" transform="translate(66.944031, 121.124026) rotate(7.000000) translate(-66.944031, -121.124026) " points="62.1211486 118.701578 63.26861 126.735505 71.7669139 123.115738 71.6508411 115.512546"></polygon>
                        <polygon fill="#FFFFFF" points="71.1808921 124.659861 61.1983559 126.835857 61.3704686 135.035798 70.3326224 132.454107 78.5448565 136.892156 80.4626837 128.925797"></polygon>
                        <polygon fill="#FFFFFF" points="80.6347964 129.208554 78.7169692 137.174913 70.504735 132.736864 71.3530047 124.942618"></polygon>
                        <polygon fill="#FFFFFF" points="61.3704686 127.118614 61.5425813 135.318554 70.504735 132.736864 71.3530047 124.942618"></polygon>
                        <path d="M81.3724222,42.9678011 C81.5691224,42.3899942 81.8027039,34.9276796 85.1711952,27.9571156 C91.5516586,14.7290258 106.402525,-0.404597362 134.002025,10.9425466 L123.060575,15.1470138 C123.060575,15.1470138 116.016248,12.430092 113.840252,12.897255 C115.298164,14.0933118 116.491345,15.5795537 117.343975,17.2615411 L104.324879,25.3754252 L99.3213173,18.9211992 C99.2966876,21.9957233 99.6141802,25.0634448 100.267937,28.0677595 L81.3724222,42.9678011 Z" fill="#FFFFFF"></path>
                        <path d="M80.8437904,42.9063323 C81.0404906,42.3408192 81.2863658,34.8785046 84.6425633,27.9079405 C90.9738517,14.6798507 105.886187,-0.453772417 133.510274,10.8933715 L122.568824,15.0978387 C122.568824,15.0978387 115.561379,12.3440356 113.348502,12.8357862 C114.660823,14.1390156 115.8161,15.5913643 116.790756,17.163191 L103.796247,25.3139564 L98.8049792,18.8597304 C98.7728581,21.9346064 99.0904375,25.0031656 99.751599,28.0062906 L80.8437904,42.9063323 Z" fill="url(#linearGradient-4)"></path>
                        <path d="M124.572708,26.3097512 C99.4565487,21.1217829 81.3232471,41.9720062 81.3600723,43.078445 C87.2980163,43.6193706 97.9690032,44.848747 109.807898,46.7665741 C113.938602,43.4226704 119.851903,38.4682836 119.851903,38.4682836 L118.229126,48.1680632 C123.429388,49.0778017 128.703413,50.1104778 133.743856,51.2292103 C135.48957,47.0124494 137.77621,42.0334751 137.77621,42.0334751 L140.234963,52.7905183 C146.224943,54.2068863 152.081975,56.135923 157.741283,58.5562935 C158.122389,57.7080238 151.840276,32.0140576 124.572708,26.3097512 Z" fill="#FFFFFF"></path>
                        <path d="M124.05637,26.1253448 C98.9402106,20.9496703 80.8192028,41.8490686 80.8560279,42.8940385 C86.7816782,43.4349641 97.4649589,44.6643405 109.303853,46.5206988 C113.434558,43.1645013 119.347858,38.2224083 119.347858,38.2224083 L117.725082,47.9221879 C122.925344,48.8319264 128.187075,49.8523088 133.239811,50.9833351 C134.973232,46.7665741 137.259872,41.8490686 137.259872,41.8490686 L139.718625,52.5938181 C145.713037,54.0139617 151.574179,55.9471104 157.237238,58.3718871 C157.618345,57.5113236 151.336232,31.7681823 124.05637,26.1253448 Z" fill="url(#linearGradient-5)"></path>
                        <path d="M34.5577699,7.73387423 C40.2706168,8.11303992 45.9171233,9.17795124 51.3756387,10.9056653 L60.5099051,3.89821995 L56.5513132,13.0447802 C58.2476548,13.8854216 59.829912,14.9388827 61.2598247,16.1796899 C62.7335891,17.4896964 64.1370383,18.876731 65.4642919,20.3349821 L72.5332061,13.831581 L70.2342722,26.2482824 C73.9520289,31.4763613 77.038694,37.1256185 79.4300075,43.078445 C93.0023227,-18.3903737 38.1844302,2.39838077 34.5577699,7.73387423 Z" fill="#FFFFFF"></path>
                        <path d="M34.8036451,7.96745574 C40.5203146,8.33216911 46.1716406,9.38895469 51.6338077,11.1146593 L60.7557804,4.09492017 L56.7726009,13.2537742 C58.4642428,14.1009796 60.0421302,15.1584121 61.4688187,16.4009777 C62.9387196,17.7152803 64.3380659,19.1064193 65.6609921,20.5685636 L72.7176125,14.0651626 L70.4432662,26.4818639 C74.1744572,31.7077461 77.2735813,37.3571481 79.6758828,43.3120265 C93.248198,-18.1322047 38.4303054,2.61966852 34.8036451,7.96745574 Z" fill="url(#linearGradient-6)"></path>
                        <path d="M44.4542497,16.4501527 C25.0669843,12.6759673 9.72436712,25.3754252 0,42.1441189 C4.78898915,40.4973519 9.73131462,39.3359054 14.7525165,38.6772776 L19.202859,31.8296512 L21.1698612,37.8535954 C25.3005658,37.4233137 30.0090773,37.1159696 35.3076895,37.042207 L40.1268448,29.6659487 L41.5529214,37.1405571 C54.1233262,37.7936984 66.6059161,39.61279 78.8399069,42.5744007 C78.8399069,42.5744007 72.7667876,21.9577589 44.4542497,16.4501527 Z" fill="#FFFFFF"></path>
                        <path d="M44.9828815,16.5730904 C25.5956161,12.7989049 10.2407052,25.4983628 0.516338077,42.2547628 C5.30981222,40.626276 10.250716,39.469281 15.2688546,38.8002152 L19.7314908,31.940295 L21.6861992,37.976533 C25.8169039,37.5585451 30.5377091,37.251201 35.8240275,37.1651446 L40.6554767,29.7888864 L42.0815533,37.2634947 C54.6478387,37.9173227 67.1262848,39.7364102 79.3562449,42.6973383 C79.3562449,42.6973383 73.2831257,22.0806965 44.9828815,16.5730904 Z" fill="url(#linearGradient-7)"></path>
                        <path d="M41.3439275,54.0690698 L43.3232234,64.9982257 C48.2407289,61.703497 53.281172,58.4210621 57.9282147,55.3967963 L59.9812733,47.6763126 L61.0262432,53.4052065 C71.389886,46.7051053 79.2824824,41.7630123 79.2824824,41.7630123 C28.1650127,23.6297107 14.9000417,75.1159933 16.2400619,84.3486099 C20.8993984,80.4760743 28.7305259,74.8824118 37.360748,69.0182865 L41.3439275,54.0690698 Z" fill="#FFFFFF"></path>
                        <path d="M41.5037464,54.4870577 L43.4953361,65.4162137 C48.4128416,62.121485 53.440991,58.8390501 58.0880337,55.827078 L60.153386,48.0943006 L61.1860621,53.8109007 C71.5619987,47.1230933 79.4423013,42.193294 79.4423013,42.193294 C28.3371254,24.0476987 15.0598606,75.5339813 16.3998808,84.7543041 C21.022336,80.8940622 28.8903448,75.3003997 37.5205669,69.4362744 L41.5037464,54.4870577 Z" fill="url(#linearGradient-8)"></path>
                        <path d="M121.806611,71.7352083 L115.364679,79.5417482 C115.161199,79.5343797 114.960961,79.4884919 114.774578,79.4065168 C111.338565,74.810138 107.322011,70.6778814 102.82504,67.1127531 L105.873893,57.7080238 L97.8214781,61.7895534 L97.2436712,61.654322 C89.6461252,52.2250052 81.4093035,41.9843 81.4093035,41.9843 C133.620918,40.8532737 134.456894,89.4013468 129.490213,99.3470016 C129.294781,99.3150119 129.101737,99.2698315 128.912407,99.2117702 C125.986491,94.4909649 125.826672,93.1632385 119.716671,85.1968796 L121.806611,71.7352083 Z" fill="#FFFFFF"></path>
                        <path d="M121.351742,71.6122706 L114.90981,79.4188106 C111.285154,74.7544501 107.070015,70.5806361 102.370171,67.0021092 L105.419024,57.59738 L97.3789026,61.6789095 C89.7444753,52.1758302 80.966728,41.8490686 80.966728,41.8490686 C134.555244,40.6196922 133.166049,90.9626547 129.047638,99.1994765 C126.115565,94.2551927 122.828597,89.5301774 119.212627,85.0616482 L121.351742,71.6122706 Z" fill="url(#linearGradient-9)"></path>
                    </g>
                </g>
                <g id="palmier1" filter="url(#filter-10)" mask="url(#mask-2)" fill-rule="nonzero">
                    <g transform="translate(279.500000, 70.500000) scale(1, -1) translate(-279.500000, -70.500000) translate(178.000000, -57.000000)" id="Path">
                        <path d="M105.229919,64.4932135 C101.681545,64.0478903 98.1496748,63.635554 94.6838211,63.2726981 C93.1764499,66.4064539 91.5535501,69.5127207 89.815122,72.5914984 C116.605463,127.882762 126.309791,189.895401 117.690488,250.720779 C123.576938,248.598621 129.380867,246.33352 135.102276,243.925477 C140.471599,247.070228 145.851924,250.368918 151.243252,253.821548 C154.129713,187.63343 138.174702,121.984296 105.229919,64.4932135 Z" fill="#6EA5CC"></path>
                        <path d="M116.76626,192.070064 C117.800515,198.007706 118.686233,203.99483 119.423415,210.031433 C124.638699,207.249537 129.760461,204.34669 134.788699,201.32289 C134.381599,194.923431 133.781951,188.534967 132.989756,182.157499 C127.708455,185.588137 122.300623,188.892325 116.76626,192.070064 Z" fill="#FFFFFF"></path>
                        <path d="M151.094715,189.18371 C151.281762,195.78109 151.281762,202.422454 151.094715,209.1078 C145.648374,206.391878 140.240542,203.796908 134.87122,201.32289 C134.464119,194.923431 133.864472,188.534967 133.072276,182.157499 C138.980732,184.367622 144.988211,186.709692 151.094715,189.18371 Z" fill="#FFFFFF"></path>
                        <path d="M115.066341,172.063507 C116.474688,177.792232 117.728997,183.581434 118.829268,189.431112 C123.582439,186.407312 128.236585,183.284552 132.791707,180.062831 C131.988509,173.828306 131.003767,167.632266 129.83748,161.474711 C125.018293,165.10327 120.09458,168.632869 115.066341,172.063507 Z" fill="#FFFFFF"></path>
                        <path d="M147.348293,167.313393 C147.964444,173.778826 148.371545,180.244259 148.569593,186.709692 C143.255285,184.389613 137.973984,182.190486 132.725691,180.112311 C131.922493,173.877786 130.937751,167.681746 129.771463,161.524191 C135.580894,163.305484 141.439837,165.235218 147.348293,167.313393 Z" fill="#FFFFFF"></path>
                        <path d="M112.079106,152.15591 C113.76252,157.653728 115.313902,163.23951 116.733252,168.913257 C121.024309,165.691536 125.21084,162.392846 129.292846,159.017186 C128.115556,153.002574 126.767724,147.015451 125.24935,141.055817 C120.969295,144.860307 116.579214,148.560338 112.079106,152.15591 Z" fill="#FFFFFF"></path>
                        <path d="M142.248537,145.756451 C143.249783,152.023963 144.069485,158.291474 144.707642,164.558986 C139.558374,162.612759 134.420108,160.759994 129.292846,159.000693 C128.115556,152.986081 126.767724,146.998958 125.24935,141.039324 C130.871734,142.490747 136.53813,144.063123 142.248537,145.756451 Z" fill="#FFFFFF"></path>
                        <path d="M107.788049,132.479222 C109.768537,137.790114 111.622493,143.161481 113.349919,148.593325 C117.178862,145.206669 120.903279,141.748542 124.523171,138.218943 C122.982791,132.402253 121.288374,126.64054 119.439919,120.933806 C115.732005,124.859247 111.848049,128.70772 107.788049,132.479222 Z" fill="#FFFFFF"></path>
                        <path d="M135.811951,124.595352 C137.198293,130.631956 138.408591,136.679555 139.442846,142.738149 C134.403604,141.110795 129.452385,139.5879 124.589187,138.169463 C123.004797,132.385759 121.288374,126.64054 119.439919,120.933806 C124.820244,122.038867 130.382114,123.259383 135.811951,124.595352 Z" fill="#FFFFFF"></path>
                        <path d="M102.193171,113.033442 C104.448726,118.113426 106.588753,123.253885 108.613252,128.45482 C111.980081,124.958208 115.236883,121.384627 118.383659,117.734076 C116.48019,112.170285 114.466694,106.639481 112.343171,101.141664 C109.086369,105.188057 105.703035,109.151983 102.193171,113.033442 Z" fill="#FFFFFF"></path>
                        <path d="M128.055041,103.89607 C129.804472,109.685272 131.355854,115.441486 132.791707,121.362636 C127.939512,120.076146 123.136829,118.855631 118.383659,117.734076 C116.48019,112.170285 114.466694,106.639481 112.343171,101.141664 C117.514444,101.977332 122.751734,102.895467 128.055041,103.89607 Z" fill="#FFFFFF"></path>
                        <path d="M95.3274797,93.9340251 C97.7920867,98.7391174 100.196179,103.637673 102.539756,108.629691 C105.444472,105.050612 108.233659,101.389065 110.940325,97.6780387 C108.739783,92.3561516 106.418211,87.0837448 103.97561,81.8608183 C101.224932,85.9182075 98.3422222,89.9426098 95.3274797,93.9340251 Z" fill="#FFFFFF"></path>
                        <path d="M118.994309,83.708085 C121.095827,89.2059023 123.021301,94.7861868 124.770732,100.448939 C120.09458,99.4483359 115.484444,98.5247026 110.940325,97.6780387 C108.739783,92.3561516 106.418211,87.0837448 103.97561,81.8608183 C108.904824,82.3886088 113.911057,83.0043643 118.994309,83.708085 Z" fill="#FFFFFF"></path>
                        <path d="M87.1744715,75.2469441 C89.9361518,79.8321238 92.5823035,84.4777794 95.1129268,89.183911 C97.5665312,85.5443559 99.9156098,81.8333293 102.160163,78.050831 C99.6955556,72.9928391 97.0934146,67.9843275 94.3537398,63.0252963 C92.0926829,67.1651527 89.6995935,71.2390353 87.1744715,75.2469441 Z" fill="#FFFFFF"></path>
                        <path d="M108.64626,64.0973707 C111.055854,69.3752753 113.305908,74.6916646 115.396423,80.0465386 C110.940325,79.3373202 106.517236,78.6775821 102.193171,78.0838179 C99.7285637,73.025826 97.1264228,68.0173144 94.386748,63.0582832 C99.0243902,63.3386719 103.810569,63.6850344 108.64626,64.0973707 Z" fill="#FFFFFF"></path>
                        <path d="M117.079837,192.284479 C118.114092,198.222121 118.99981,204.209244 119.736992,210.245848 C124.974282,207.452957 130.096043,204.550109 135.102276,201.537305 C134.706179,195.137846 134.095528,188.738387 133.319837,182.371914 C128.038537,185.802552 122.608699,189.101242 117.079837,192.284479 Z" fill="#B2DAF3"></path>
                        <path d="M151.408293,189.398125 C151.595339,195.995505 151.595339,202.636869 151.408293,209.322214 C145.983957,206.595297 140.576125,204.000327 135.184797,201.537305 C134.788699,195.137846 134.178049,188.738387 133.402358,182.371914 C139.321816,184.582037 145.323794,186.924107 151.408293,189.398125 Z" fill="#7FBFEB"></path>
                        <path d="M115.396423,172.244935 C116.760759,178.006647 117.987561,183.806844 119.076829,189.645526 C123.852005,186.621727 128.511653,183.498967 133.055772,180.277246 C132.241572,174.042721 131.256829,167.846681 130.101545,161.689125 C125.337371,165.306689 120.435664,168.825292 115.396423,172.244935 Z" fill="#B2DAF3"></path>
                        <path d="M147.66187,167.527807 C148.289024,173.976747 148.685122,180.458674 148.899675,186.907613 C143.574363,184.587534 138.293062,182.388408 133.055772,180.310233 C132.241572,174.075708 131.256829,167.879668 130.101545,161.722112 C135.899973,163.514401 141.753415,165.449632 147.66187,167.527807 Z" fill="#7FBFEB"></path>
                        <path d="M112.409187,152.353832 C114.092602,157.851649 115.638482,163.442929 117.046829,169.127672 C121.35439,165.828982 125.529919,162.530291 129.622927,159.231601 C128.434634,153.205993 127.086802,147.224368 125.579431,141.286725 C121.310379,145.058228 116.920298,148.747264 112.409187,152.353832 Z" fill="#B2DAF3"></path>
                        <path d="M142.578618,145.970866 C143.590867,152.216386 144.410569,158.483898 145.037724,164.773401 C139.855447,162.816178 134.717182,160.957916 129.622927,159.198614 C128.434634,153.173006 127.086802,147.191381 125.579431,141.253739 C131.17981,142.705162 136.846206,144.277538 142.578618,145.970866 Z" fill="#7FBFEB"></path>
                        <path d="M108.101626,132.677144 C110.093117,137.988035 111.947073,143.353905 113.663496,148.774753 C117.492439,145.410088 121.216856,141.957459 124.836748,138.416865 C123.296369,132.61117 121.601951,126.849457 119.753496,121.131727 C116.012575,125.057169 112.128618,128.905641 108.101626,132.677144 Z" fill="#B2DAF3"></path>
                        <path d="M136.142033,124.809767 C137.528374,130.84637 138.738672,136.893969 139.772927,142.952564 C134.744688,141.336206 129.793469,139.818808 124.919268,138.400371 C123.378889,132.594676 121.684472,126.832964 119.836016,121.115234 C125.183333,122.247784 130.618672,123.479295 136.142033,124.809767 Z" fill="#7FBFEB"></path>
                        <path d="M102.523252,113.247857 C104.78981,118.371823 106.924336,123.512282 108.926829,128.669235 C112.293659,125.172623 115.555962,121.599042 118.71374,117.948491 C116.843279,112.373704 114.824282,106.875887 112.656748,101.455039 C109.410949,105.435459 106.033117,109.366398 102.523252,113.247857 Z" fill="#B2DAF3"></path>
                        <path d="M128.368618,104.110485 C130.118049,109.905184 131.696938,115.727373 133.105285,121.57705 C128.253089,120.290561 123.450407,119.070046 118.71374,117.948491 C116.843279,112.373704 114.824282,106.875887 112.656748,101.455039 C117.82252,102.197245 123.070813,103.104384 128.368618,104.110485 Z" fill="#7FBFEB"></path>
                        <path d="M95.7235772,94.14844 C98.2321951,98.9810214 100.674797,103.89607 102.91935,108.844106 C105.824065,105.248533 108.602249,101.581489 111.253902,97.8429732 C109.05336,92.5100904 106.731789,87.2376837 104.289187,82.0257529 C101.538509,86.1491158 98.6833062,90.1900115 95.7235772,94.14844 Z" fill="#B2DAF3"></path>
                        <path d="M119.307886,83.9224998 C121.398401,89.4203171 123.323875,95.0006017 125.084309,100.663353 C120.479675,99.6572529 115.809024,98.7336196 111.253902,97.8429732 C109.05336,92.5100904 106.731789,87.2376837 104.289187,82.0257529 C109.223902,82.6030237 114.241138,83.2132814 119.307886,83.9224998 Z" fill="#7FBFEB"></path>
                        <path d="M87.4715447,75.461359 C90.2112195,80.035543 92.8573713,84.6811986 95.41,89.3983259 C97.8526016,85.753273 100.212683,82.0422463 102.457236,78.2982327 C99.981626,73.2402408 97.3794851,68.2317293 94.650813,63.2726981 C92.4227642,67.3795676 90.0131707,71.4534502 87.4715447,75.461359 Z" fill="#B2DAF3"></path>
                        <path d="M108.926829,64.3117855 C111.347425,69.5896901 113.602981,74.9060795 115.693496,80.2609535 C111.220894,79.5352416 106.814309,78.891997 102.490244,78.2982327 C100.014634,73.2402408 97.4124932,68.2317293 94.6838211,63.2726981 C99.3709756,63.5365933 104.14065,63.8829558 108.926829,64.3117855 Z" fill="#7FBFEB"></path>
                        <path d="M100.674797,66.043598 C100.674797,65.2354189 97.2419512,55.9166185 97.935122,45.6741849 C99.2554472,26.2284052 110.06561,0.234724993 149.741382,0.531607127 L138.337073,11.1204032 C138.337073,11.1204032 128.286098,11.2688443 125.843496,12.901696 C128.212842,13.6629654 130.402679,14.8974639 132.280081,16.5302555 L120.265122,33.0237073 L110.923821,27.5478813 C112.404335,31.3505887 114.30881,34.9745108 116.60122,38.3510923 L100.674797,66.043598 Z" fill="#FFFFFF"></path>
                        <path d="M100.031138,66.225026 C100.031138,65.4333403 96.5817886,56.11454 97.2749593,45.8721063 C98.5787805,26.4098331 109.388943,0.416152964 149.064715,0.729528549 L137.660407,11.3183247 C137.660407,11.3183247 127.625935,11.4667657 125.183333,13.0996175 C127.458698,14.0458151 129.61377,15.2583014 131.603415,16.7116834 L119.604959,33.2051353 L110.247154,27.7293093 C111.734567,31.5112035 113.644641,35.1131112 115.941057,38.4665465 L100.031138,66.225026 Z" fill="url(#linearGradient-11)"></path>
                        <path d="M145.681382,24.1502302 C112.227642,30.2198205 100.146667,64.8560695 100.674797,66.1755456 C108.332683,63.9159427 122.130081,60.1389422 137.59439,56.6093435 C141.027236,50.4242991 145.846423,41.4023809 145.846423,41.4023809 L148.652114,54.1518192 C155.517805,52.7003954 162.515528,51.3479324 169.298699,50.2428711 C169.298699,44.1897743 169.694797,36.9326554 169.694797,36.9326554 L178.095366,48.9233949 C186.184426,47.7175681 194.361185,47.1989178 202.537976,47.3730105 C202.587398,46.1854819 182.08935,17.5858364 145.681382,24.1502302 Z" fill="#FFFFFF"></path>
                        <path d="M144.971707,24.1667237 C111.451951,30.2198205 99.4369919,64.8560695 100.014634,66.2085325 C107.606504,63.9324362 121.370894,60.1719291 136.884715,56.5928501 C140.317561,50.4078056 145.136748,41.3858874 145.136748,41.3858874 L147.925935,54.1353257 C154.80813,52.683902 161.78935,51.3314389 168.57252,50.2263776 C168.57252,44.1732808 168.985122,36.916162 168.985122,36.916162 L177.385691,48.9233949 C185.473446,47.7042478 193.650875,47.1800371 201.828301,47.356517 C201.877724,46.2019754 181.379675,17.6023298 144.971707,24.1667237 Z" fill="url(#linearGradient-12)"></path>
                        <path d="M25.5482927,45.822626 C32.7808577,43.4565612 40.2729722,41.9723929 47.8617886,41.4023809 L55.6352033,28.2076194 L55.2721138,41.4023809 C57.7793672,41.5999275 60.2521123,42.1096725 62.6329268,42.9197785 C65.0947317,43.8086293 67.5077044,44.8271519 69.8617073,45.9710671 L75.3245528,34.4256507 L78.6253659,50.9191026 C85.8400886,55.5034783 92.4877609,60.9233833 98.4302439,67.066192 C84.6493496,-15.2526263 27.3637398,37.4439524 25.5482927,45.822626 Z" fill="#FFFFFF"></path>
                        <path d="M25.9773984,45.9710671 C33.2046486,43.606302 40.691144,42.1221492 48.2743902,41.550822 L56.0478049,28.3560604 L55.6847154,41.550822 C58.1861299,41.7617227 60.6524538,42.2768253 63.0290244,43.084713 C65.5017441,43.9593529 67.9209942,44.9781991 70.2743089,46.1360016 L75.7371545,34.5905853 L79.0379675,51.0840371 C86.2526903,55.6684128 92.9003625,61.0883178 98.8428455,67.2311265 C85.0784553,-15.1041853 27.7928455,37.608887 25.9773984,45.9710671 Z" fill="url(#linearGradient-13)"></path>
                        <path d="M42.0688618,51.661308 C16.3060163,56.6093435 3.6804065,79.8486172 0,105.298013 C5.10629708,100.914257 10.6346557,97.0468944 16.504065,93.7525972 C17.510813,88.6066402 18.6000813,83.0978272 18.6000813,83.0978272 L24.0134146,89.5962473 C28.8821138,87.0232688 34.5430081,84.3018492 41.0291057,81.5969231 C42.0853659,76.2200578 43.3066667,70.0515068 43.3066667,70.0515068 L48.7530081,78.5456345 C64.5606218,73.1144713 80.8369003,69.1556841 97.3739837,66.7198295 C97.3739837,66.7198295 79.681626,44.4206826 42.0688618,51.661308 Z" fill="#FFFFFF"></path>
                        <path d="M42.7785366,51.5458538 C16.999187,56.4938894 4.3900813,79.7001762 0.709674797,105.182559 C5.81894137,100.802626 11.3469087,96.9355372 17.2137398,93.637143 C18.1544715,88.4746926 19.3097561,82.9988665 19.3097561,82.9988665 L24.7560976,89.4148193 C29.6247967,86.8418408 35.2856911,84.1369147 41.7717886,81.4154951 C42.8280488,76.0386298 44.0493496,69.8700788 44.0493496,69.8700788 L49.5121951,78.3807 C65.3268002,72.9691455 81.6087747,69.0324022 98.1496748,66.6208688 C98.1496748,66.6208688 80.3913008,44.3217219 42.7785366,51.5458538 Z" fill="url(#linearGradient-14)"></path>
                        <path d="M56.8730081,99.4923184 L64.7289431,111.977861 C69.1850407,105.380481 73.7401626,98.931541 77.9321951,92.9279246 L76.644878,82.3886088 L80.7543902,88.9859896 C90.2112195,75.6098001 97.4895122,65.6312617 97.4895122,65.6312617 C25.5482927,68.5506027 34.6585366,138.548812 40.9135772,149.253063 C44.7095122,142.193865 51.6247154,131.407148 59.365122,119.911212 L56.8730081,99.4923184 Z" fill="#FFFFFF"></path>
                        <path d="M57.2856098,99.9541351 L65.1415447,112.439678 C69.5976423,105.924765 74.1362602,99.4098511 78.3447967,93.3897412 L77.0574797,82.8669189 L81.1669919,89.4642997 C90.6403252,76.0716167 97.9021138,66.0930784 97.9021138,66.0930784 C25.9608943,68.9959259 35.1041463,138.977642 41.2601626,149.681892 C45.0560976,142.622695 51.9713008,131.835978 59.7117073,120.340042 L57.2856098,99.9541351 Z" fill="url(#linearGradient-15)"></path>
                        <path d="M164.776585,81.4484821 L160.700081,94.2638942 C160.450143,94.3469119 160.187689,94.3859756 159.92439,94.3793483 C153.410808,90.4170593 146.409429,87.3178089 139.09626,85.1595087 L138.205041,72.0637079 L130.382114,81.0856261 L129.606423,81.2175737 C115.577967,73.3666906 100.328211,64.7241218 100.328211,64.7241218 C164.099919,37.4934328 189.202602,96.8698596 187.997805,111.582019 C187.737827,111.644626 187.472651,111.683273 187.20561,111.697473 C181.28065,107.326708 180.422439,105.776324 168.93561,98.9975149 L164.776585,81.4484821 Z" fill="#FFFFFF"></path>
                        <path d="M164.165935,81.5309493 L160.089431,94.3463614 C153.319135,90.3773031 146.055459,87.3162103 138.48561,85.241976 L137.59439,72.1461752 L129.705447,81.1680934 C115.528455,73.2512365 99.6350407,64.8560695 99.6350407,64.8560695 C165.106667,36.8172013 188.294878,99.4923184 187.304634,111.697473 C181.263483,107.047437 174.892693,102.841561 168.242439,99.112969 L164.165935,81.5309493 Z" fill="url(#linearGradient-16)"></path>
                    </g>
                </g>
                <g id="Rectangle" mask="url(#mask-2)">
                    <g transform="translate(0.000000, -289.000000)">
                        <mask id="mask-18" fill="white">
                            <use xlink:href="#path-17"></use>
                        </mask>
                        <g id="Mask" stroke="none" fill="none"></g>
                        <path d="M-175,299.381944 C-63.3333333,270.891916 48.3333333,256.646902 160,256.646902 C271.666667,256.646902 383.333333,270.891916 495,299.381944 L-175,299.381944 Z" id="Rectangle" stroke="none" fill="#FFFFFF" fill-rule="evenodd" mask="url(#mask-18)" transform="translate(160.000000, 278.014423) scale(1, -1) translate(-160.000000, -278.014423) "></path>
                    </g>
                </g>
            </g>
        </g>
    </g>
</svg>