<svg height="404" viewBox="0 0 1440 404" width="1440" xmlns="http://www.w3.org/2000/svg" xmlns:xlink="http://www.w3.org/1999/xlink"><filter id="a" height="135.6%" width="137.3%" x="-18.7%" y="-17.8%"><feOffset dx="-10" dy="7" in="SourceAlpha" result="shadowOffsetOuter1"/><feGaussianBlur in="shadowOffsetOuter1" result="shadowBlurOuter1" stdDeviation="8"/><feColorMatrix in="shadowBlurOuter1" result="shadowMatrixOuter1" type="matrix" values="0 0 0 0 0   0 0 0 0 0   0 0 0 0 0  0 0 0 0.05 0"/><feMerge><feMergeNode in="shadowMatrixOuter1"/><feMergeNode in="SourceGraphic"/></feMerge></filter><linearGradient id="b" x1="100%" x2="14.202363%" y1="26.635265%" y2="60.222141%"><stop offset="0" stop-color="#7fbfeb"/><stop offset="1" stop-color="#78b4de"/></linearGradient><linearGradient id="c"><stop offset="0" stop-color="#78b4de"/><stop offset="1" stop-color="#b2daf3"/></linearGradient><linearGradient id="d" x1="11.95951%" x2="89.468176%" xlink:href="#c" y1="45.460435%" y2="56.494129%"/><linearGradient id="e" x1="92.408104%" x2="-28.767327%" xlink:href="#c" y1="66.967292%" y2="-30.980749%"/><linearGradient id="f" x1="95.183114%" x2="-13.565493%" xlink:href="#c" y1="54.058245%" y2="50%"/><linearGradient id="g" x1="83.974595%" x2="-19.604809%" xlink:href="#c" y1="22.985934%" y2="83.241332%"/><linearGradient id="h" x1="39.967878%" x2="73.472266%" xlink:href="#c" y1="14.385895%" y2="64.6398%"/><filter id="i" height="126.6%" width="133.4%" x="-16.7%" y="-13.3%"><feOffset dx="10" dy="17" in="SourceAlpha" result="shadowOffsetOuter1"/><feGaussianBlur in="shadowOffsetOuter1" result="shadowBlurOuter1" stdDeviation="5.5"/><feColorMatrix in="shadowBlurOuter1" result="shadowMatrixOuter1" type="matrix" values="0 0 0 0 0   0 0 0 0 0   0 0 0 0 0  0 0 0 0.03 0"/><feMerge><feMergeNode in="shadowMatrixOuter1"/><feMergeNode in="SourceGraphic"/></feMerge></filter><linearGradient id="j"><stop offset="0" stop-color="#b2daf3"/><stop offset="1" stop-color="#78b4de"/></linearGradient><linearGradient id="k" x1="81.331504%" x2="6.416322%" xlink:href="#j" y1="0%" y2="50%"/><linearGradient id="l" x1="109.45573%" x2="9.501777%" xlink:href="#j" y1="39.29858%" y2="54.393856%"/><linearGradient id="m" x1="80.040082%" x2="15.914186%" xlink:href="#c" y1="30.418686%" y2="60.509767%"/><linearGradient id="n" x1="83.974595%" x2="-10.552207%" xlink:href="#c" y1="34.004557%" y2="56.623466%"/><linearGradient id="o" x1="67.906794%" x2="13.313795%" xlink:href="#c" y1="0%" y2="111.525968%"/><linearGradient id="p" x1="20.921261%" x2="77.803349%" xlink:href="#c" y1="35.203109%" y2="68.97282%"/><mask id="q" fill="#fff"><path d="m0 .263524h1440v402h-1440z" fill="#fff" fill-rule="evenodd"/></mask><g fill="none" fill-rule="evenodd" mask="url(#q)" transform="translate(0 .736476)"><g fill="none" fill-rule="nonzero" filter="url(#a)" transform="matrix(.99254615 .12186934 .12186934 -.99254615 65.876173 236.622242)"><path d="m146.302636 73.6744961-9.738217-5.3591473-10.67659 3.1487597-26.4620926 204.6693795 15.1182166-4.337364 13.846202 7.486124z" fill="#6ea5cc"/><path d="m134.979612 79.7634884-14.972248 1.1468992.250233 12.4907752 13.67938-3.9203101 12.511628 6.7562791 2.940232-12.1571318z" fill="#fff"/><path d="m149.659922 84.5804651-2.919379 12.1362791-12.532481-6.7562791 1.063488-9.7173643z" fill="#b2daf3"/><path d="m120.27845 81.39.271085 12.4907752 13.658527-3.9203101 1.063488-9.7173643z" fill="#7fbfeb"/><path d="m133.290543 93.7348062-15.201628 1.4388372.271085 12.6575966 13.846202-3.982868 12.678449 6.83969 2.961085-12.3031008z" fill="#fff"/><path d="m148.137674 98.8854264-2.961085 12.3031006-12.678449-6.860543 1.084341-10.1135654z" fill="#b2daf3"/><path d="m118.380853 95.6532558.271085 12.6575972 13.846202-3.982869 1.084341-10.1135654z" fill="#7fbfeb"/><path d="m136.50186 65.687907-14.76372.8549612.250232 12.3448062 13.512558-3.8786046 12.365659 6.6728682 2.877675-11.9903101z" fill="#fff"/><path d="m151.036202 70.1712403-2.877675 12.0111628-12.365659-6.6937209 1.00093-9.3211628z" fill="#fff"/><path d="m122.030078 67.0224806.250232 12.3448062 13.512558-3.8786046 1.00093-9.3211628z" fill="#fff"/><path d="m132.101938 107.872946-15.410155 1.730775.271085 12.803566 14.013023-4.045427 12.824419 6.943954 3.002791-12.44907z" fill="#fff"/><path d="m147.095039 113.336357-3.002791 12.469922-12.824419-6.943953 1.126047-10.509768z" fill="#b2daf3"/><path d="m116.373657 110.978599 1.829427 12.675093 13.4181-5.702333-.163165-10.56866z" fill="#7fbfeb" transform="matrix(.99254615 .12186934 -.12186934 .99254615 15.002385 -14.250429)"/><path d="m130.308605 122.949457-15.639535 1.981008.271085 12.970388 14.179845-4.087132 12.99124 7.027364 3.044496-12.615891z" fill="#fff"/><path d="m145.447674 128.725659-3.023643 12.595039-13.012093-7.027365 1.188605-10.864263z" fill="#b2daf3"/><path d="m114.359559 126.337472 1.847216 12.819974 13.576055-5.784756-.144276-10.928137z" fill="#7fbfeb" transform="matrix(.99254615 .12186934 -.12186934 .99254615 16.850532 -13.901765)"/><path d="m128.723798 137.608915-15.848062 2.272945.271086 13.13721 14.346666-4.128837 13.158062 7.110775 3.065349-12.761861z" fill="#fff"/><path d="m144.008837 143.71876-3.065349 12.76186-13.158062-7.110775 1.23031-11.260465z" fill="#b2daf3"/><path d="m112.573406 141.300366 1.867547 12.985552 13.73655-5.84648-.151166-11.326468z" fill="#7fbfeb" transform="matrix(.99254615 .12186934 -.12186934 .99254615 18.653556 -13.584056)"/><path d="m127.138992 152.247519-16.056589 2.544031.271085 13.283179 14.513489-4.170543 13.304031 7.194186 3.107054-12.928682z" fill="#fff"/><path d="m142.57 158.670155-3.107054 12.907829-13.304031-7.194186 1.272015-11.656666z" fill="#b2daf3"/><path d="m110.767904 156.222757 1.908574 13.14859 13.894505-5.928903-.158057-11.724799z" fill="#7fbfeb" transform="matrix(.99254615 .12186934 -.12186934 .99254615 20.449996 -13.265493)"/><path d="m125.533333 167.115504-16.285969 2.835969.271086 13.429147 14.701162-4.233101 13.470853 7.277597 3.14876-13.053798z" fill="#fff"/><path d="m141.11031 173.85093-3.127907 13.053799-13.470853-7.277597 1.313721-12.032016z" fill="#b2daf3"/><path d="m108.962014 171.373239 1.905666 13.296011 14.075698-5.993169-.162405-12.102433z" fill="#7fbfeb" transform="matrix(.99254615 .12186934 -.12186934 .99254615 22.274618 -12.943893)"/><path d="m123.990233 181.337054-16.494497 3.127907.271086 13.595969 14.867984-4.274806 13.616822 7.361008 3.190465-13.22062z" fill="#fff"/><path d="m139.734031 188.406124-3.190465 13.22062-13.616822-7.361008 1.355427-12.449069z" fill="#b2daf3"/><path d="m107.218828 185.898303 1.925997 13.46159 14.236193-6.054894-.171837-12.521461z" fill="#7fbfeb" transform="matrix(.99254615 .12186934 -.12186934 .99254615 24.023343 -12.63476)"/><path d="m122.342868 196.496977-16.703023 3.398992.291938 13.741938 15.034806-4.316512 13.762791 7.444419 3.23217-13.366589z" fill="#fff"/><path d="m138.232636 203.878837-3.211318 13.366589-13.762791-7.444418 1.376279-12.824419z" fill="#b2daf3"/><path d="m105.37005 201.341916 1.946326 13.627168 14.414845-6.139857-.196883-12.896554z" fill="#7fbfeb" transform="matrix(.99254615 .12186934 -.12186934 .99254615 25.884553 -12.306942)"/><g fill="#fff"><path d="m120.737209 211.448372-16.932403 3.69093.291938 13.90876 15.201628-4.37907 13.929612 7.52783 3.253024-13.512558z"/><path d="m136.772946 219.163876-3.253024 13.512558-13.929612-7.527829 1.438837-13.220621z"/><path d="m104.096744 215.618915.291938 13.908759 15.201628-4.379069 1.438837-13.220621z"/><path d="m119.04814 227.10876-17.161783 3.962015.291938 14.054729 15.389302-4.420775 14.075581 7.61124 3.294729-13.67938z"/><path d="m135.229845 235.137054-3.294729 13.658527-14.075581-7.61124 1.480543-13.595969z"/><path d="m102.178295 231.550388.291938 14.075581 15.389302-4.441628 1.480543-13.595969z"/><path d="m133.686744 251.110233-3.336434 13.825348-14.22155-7.715503 1.501395-13.992171z"/><path d="m100.280698 247.502713.291938 14.200698 15.556124-4.483333 1.501395-13.992171z"/><path d="m138.024109 72.882093c.333643-.9800775.729844-13.6376744 6.443488-25.4611628 10.822558-22.4375193 36.012636-48.10720927 82.826977-28.860155l-18.558915 7.1316279s-11.948605-4.6084496-15.639535-3.8160465c2.472914 2.0287545 4.49679 4.5497219 5.943023 7.4027132l-22.083023 13.7627907-8.487054-10.9476745c-.041777 5.2150155.496755 10.4184925 1.605659 15.5144187z"/></g><path d="m137.127442 72.7778295c.333643-.9592248.750698-13.6168217 6.443488-25.4403101 10.739148-22.4375194 36.033489-48.10720932 82.889535-28.8601551l-18.558915 7.1316279s-11.886046-4.6710077-15.639534-3.8368992c2.225961 2.210541 4.185546 4.6740186 5.838759 7.3401551l-22.041318 13.8253488-8.466201-10.9476744c-.054484 5.2156125.484195 10.4205104 1.605659 15.5144186z" fill="url(#b)"/><path d="m211.300543 44.6266667c-42.602093-8.799845-73.359845 26.5663566-73.297382 28.4431007 10.071955.9175194 28.17211 3.0027907 48.253273 6.255814 7.006512-5.671938 17.036667-14.0755814 17.036667-14.0755814l-2.752558 16.4527907c8.820697 1.5431008 17.766511 3.2947287 26.316124 5.1923256 2.961085-7.1524806 6.83969-15.5978295 6.83969-15.5978295l4.170542 18.2461241c10.160219 2.4024468 20.094932 5.6744837 29.694264 9.7799224.646434-1.4388372-10.009303-45.0210077-56.26062-54.6966666z" fill="#fff"/><path d="m210.424729 44.313876c-42.602093-8.7789923-73.338993 26.6706201-73.27653 28.4431007 10.051103.9175194 28.172111 3.0027907 48.253274 6.1515504 7.006511-5.6927907 17.036667-14.0755814 17.036667-14.0755814l-2.752559 16.4527907c8.820698 1.5431008 17.745659 3.273876 26.316124 5.1923256 2.940233-7.1524806 6.818838-15.4935659 6.818838-15.4935659l4.170542 18.2252713c10.167737 2.4088512 20.109421 5.687863 29.715117 9.8007752.646434-1.4596899-10.009303-45.1252713-56.281473-54.6966666z" fill="url(#d)"/><path d="m58.6169767 13.1182171c9.6901454.6431418 19.267764 2.449447 28.5265117 5.38l15.4935656-11.88604656-6.7145734 15.51441856c2.8773389 1.4258982 5.5611674 3.2127816 7.9865894 5.3174419 2.499803 2.2220364 4.880337 4.5747279 7.131628 7.0482171l11.99031-11.0310853-3.899458 21.0612403c6.306069 8.8678806 11.541678 18.450165 15.59783 28.5473643 23.021395-104.2635658-69.9608529-69.00162787-76.1124033-59.9515503z" fill="#fff"/><path d="m59.034031 13.5144186c9.6966292.6186277 19.2824227 2.4111501 28.5473643 5.3382946l15.4727137-11.90689925-6.7562795 15.53527135c2.8693671 1.4370321 5.5457835 3.2306516 7.9657365 5.3382945 2.493249 2.2293234 4.866824 4.5889769 7.110775 7.0690698l11.969457-11.0310853-3.857751 21.0612404c6.328855 8.8641544 11.585597 18.4466844 15.660387 28.5473643 23.021395-104.2218605-69.9608526-69.02248063-76.112403-59.9515504z" fill="url(#e)"/><path d="m75.4034109 27.9027907c-32.8847287-6.4017829-58.9089148 15.1390698-75.4034109 43.5821705 8.12309551-2.7932504 16.5062805-4.7632989 25.0232558-5.8804651l7.5486822-11.6149612 3.3364341 10.2178294c7.0065116-.7298449 14.9931008-1.2511627 23.9806201-1.376279l8.1742636-12.5116279 2.4189147 12.6784496c21.3219524 1.1078599 42.4949525 4.1934076 63.2462795 9.2168992 0 0-10.301241-34.97-58.3250391-44.3120155z" fill="#fff"/><path d="m76.3000775 28.1113178c-32.8847287-6.4017829-58.9297674 15.1390698-75.42426355 43.5613179 8.13070298-2.7622436 16.51147645-4.7247414 25.02325585-5.8596124l7.5695349-11.635814 3.3155813 10.2386822c7.0065117-.7089923 15.0139535-1.2303101 23.9806202-1.3762791l8.1951163-12.5116279 2.4189147 12.6784496c21.3149652 1.1090247 42.4809368 4.1945654 63.2254268 9.2168992 0 0-10.301241-34.97-58.3041865-44.3120155z" fill="url(#f)"/><path d="m70.1276744 91.712093 3.3572868 18.538062c8.3410853-5.588527 16.8906977-11.1562015 24.7730233-16.285969l3.4824035-13.0955038 1.77248 9.7173643c17.578837-11.3647287 30.966279-19.7475194 30.966279-19.7475194-86.7055811-30.7577519-109.2056586 56.5734109-106.9327129 72.2337989 7.9031783-6.568605 21.1863566-16.05659 35.8249612-26.003334z" fill="#fff"/><path d="m70.3987597 92.4210853 3.3781395 18.5380617c8.3410853-5.588527 16.869845-11.1562013 24.7521706-16.265116l3.5032562-13.1163566 1.751627 9.6965116c17.59969-11.3438759 30.96628-19.7058139 30.96628-19.7058139-86.6847291-30.7786047-109.2056594 56.5525579-106.9327136 72.1920929 7.8406201-6.547752 21.1863566-16.035736 35.8249612-25.982481z" fill="url(#g)"/><path d="m206.608682 121.677442-10.926822 13.241473c-.345143-.012499-.684787-.090334-1.00093-.22938-5.828175-7.79639-12.641063-14.805534-20.268837-20.852713l5.171473-15.9523259-13.658527 6.9231009-.980078-.22938c-12.886977-15.994031-26.858294-33.364341-26.858294-33.364341 88.561473-1.9184496 89.979457 80.428915 81.554961 97.29876-.331493-.054261-.658934-.130896-.980078-.22938-4.962945-8.007442-5.234031-10.259535-15.597829-23.772093z" fill="#fff"/><path d="m205.837132 121.468915-10.926822 13.241473c-6.148151-7.9117-13.29788-14.991334-21.269767-21.061241l5.171473-15.9523253-13.637675 6.9231003c-12.949535-16.1191468-27.838372-33.6354259-27.838372-33.6354259 90.896977-2.0852713 88.54062 83.3065889 81.554961 97.2779069-4.97339-8.386506-10.548752-16.401089-16.68217-23.98062z" fill="url(#h)"/></g><g fill="none" fill-rule="nonzero" filter="url(#i)" transform="matrix(1 0 0 -1 1075 391.263524)"><path d="m167.434797 102.683313c-5.645935-.709025-11.26561-1.365529-16.780244-1.943253-2.398428 4.989431-4.980678 9.935095-7.746748 14.836992 42.626995 88.032366 58.067872 186.766214 44.353415 283.609756 9.366124-3.378807 18.600948-6.985203 27.704471-10.819187 8.543306 5.006938 17.104119 10.258971 25.682439 15.756098 4.592743-105.381865-20.793801-209.905586-73.213333-301.440406z" fill="#6ea5cc"/><g fill="#fff"><path d="m184.871545 369.801686c.498943 10.005122.709024 20.089025.656504 30.199187 9.76878-3.501355 19.397507-7.221544 28.886179-11.160569.735284-10.714146 1.120433-21.419539 1.155447-32.116178-10.066396 4.621788-20.299106 8.980975-30.69813 13.07756z"/><path d="m245.690081 372.06006c-1.19046 11.081789-2.722303 22.111057-4.595528 33.087805-8.954716-5.672195-17.830651-11.108048-26.706586-16.307561.735285-10.714146 1.120434-21.419539 1.155448-32.116178 9.978861 4.866883 20.02775 9.978861 30.146666 15.335934z"/><path d="m186.447154 337.790548c1.102927 9.733767 1.978266 19.546315 2.626017 29.437643 9.059756-3.965285 17.935691-8.193171 26.680325-12.604878 0-10.504066-.288862-21.008131-.919106-31.354635-9.348618 5.059458-18.81103 9.900082-28.387236 14.52187z"/><path d="m244.219512 336.47754c-.393902 10.845447-1.181707 21.664634-2.284634 32.457561-8.753387-4.954417-17.506775-9.725013-26.260163-14.311788 0-10.504066-.288861-21.008131-.919105-31.354635 9.681246 4.18412 19.502547 8.587074 29.463902 13.208862z"/><path d="m185.79065 305.80567c1.645637 9.453659 3.054933 18.986098 4.227887 28.597317 8.298211-4.429214 16.447615-9.051002 24.448211-13.865366-.647751-10.188943-1.60187-20.360379-2.862358-30.514308-8.403252 5.462113-17.007832 10.722899-25.81374 15.782357z"/><path d="m240.411789 301.210142c.297615 10.504065.297615 21.078157 0 31.722276-8.665854-4.324173-17.270434-8.455772-25.81374-12.394797-.647751-10.188943-1.60187-20.360379-2.862358-30.514308 9.401138 3.518861 18.959837 7.247804 28.676098 11.186829z"/><path d="m183.085854 273.952093c2.240867 9.12103 4.236639 18.338347 5.987317 27.651951 7.562927-4.814363 14.968292-9.786287 22.216097-14.915772-1.277994-9.926342-2.844851-19.791409-4.700569-29.595203-7.667967 5.777235-15.502249 11.39691-23.502845 16.859024z"/><path d="m234.450732 266.389166c.980379 10.293984 1.62813 20.587968 1.943252 30.881951-8.455773-3.693929-16.859025-7.195284-25.209756-10.504065-1.277995-9.926341-2.844851-19.791409-4.700569-29.595203 9.243577 2.836098 18.565934 5.908537 27.967073 9.217317z"/><path d="m178.332764 242.256077c2.678537 8.753387 5.146992 17.646829 7.405366 26.680325 6.827642-5.129485 13.48897-10.381518 19.983984-15.756098-1.873225-9.576206-4.017805-19.108645-6.43374-28.597317-6.810136 6.057344-13.795339 11.948374-20.95561 17.67309z"/><path d="m226.336341 232.067134c1.593117 9.978861 2.897372 19.957723 3.912765 29.936585-8.193171-3.098699-16.368835-6.048591-24.526992-8.849675-1.873225-9.576206-4.017805-19.108645-6.43374-28.597317 8.945962 2.310894 17.961951 4.814363 27.047967 7.510407z"/><path d="m171.505122 210.927703c3.151219 8.455772 6.101111 17.007832 8.849675 25.656179 6.092357-5.392087 12.018401-10.897968 17.77813-16.517643-2.450949-9.261084-5.146992-18.434634-8.08813-27.52065-5.899783 6.249919-12.079675 12.37729-18.539675 18.382114z"/><path d="m216.094878 198.375345c2.205854 9.61122 4.131599 19.239946 5.777236 28.886179-8.018103-2.591003-15.896152-5.015691-23.634147-7.274065-2.520975-9.208564-5.252032-18.355854-8.19317-27.44187 8.560813 1.759431 17.410488 3.702683 26.050081 5.829756z"/><path d="m162.602927 179.966971c3.588889 8.08813 6.993956 16.272547 10.215203 24.553252 5.357073-5.567154 10.539079-11.256856 15.546016-17.069106-3.028672-8.858428-6.232412-17.664336-9.611219-26.417723-5.182006 6.442493-10.565339 12.753685-16.15 18.933577z"/><path d="m203.752602 165.418841c2.783577 9.217317 5.252032 18.382114 7.536666 27.809512-7.720488-2.048293-15.362195-3.991545-22.925122-5.777236-3.028672-8.858428-6.232412-17.664336-9.611219-26.417723 8.228184 1.330515 16.561409 2.79233 24.999675 4.385447z"/><path d="m151.678699 149.557703c3.921518 7.65046 7.746748 15.449729 11.475691 23.397805 4.621789-5.698456 9.059756-11.528212 13.366423-17.436748-3.501355-8.473279-7.195285-16.867778-11.081789-25.183496-4.376693 6.46-8.963468 12.867479-13.760325 19.222439z"/><path d="m189.335772 133.276402c3.343794 8.753387 6.40748 17.638076 9.191057 26.654065-7.440379-1.593117-14.775718-3.063686-22.006016-4.411707-3.501355-8.473279-7.195285-16.867778-11.081789-25.183496 7.843036.840325 15.808618 1.820704 23.896748 2.941138z"/><path d="m138.706179 119.804939c4.3942 7.300325 8.60458 14.696937 12.631138 22.189837 3.904011-5.794743 7.641707-11.703279 11.21309-17.72561-3.921518-8.053116-8.06187-16.027452-12.421057-23.923008-3.597643 6.591301-7.405366 13.077561-11.423171 19.458781z"/><path d="m172.87065 102.053069c3.833984 8.403252 7.41412 16.867777 10.740407 25.393577-7.090244-1.129187-14.127968-2.179594-21.00813-3.12496-3.921518-8.053116-8.06187-16.027452-12.421057-23.923008 7.379106.446423 14.994553.997887 22.68878 1.654391z"/><path d="m185.370488 370.143069c.498943 10.005122.735284 20.062764.656504 30.199187 9.786287-3.501355 19.415013-7.230299 28.886179-11.18683.717778-10.679132 1.094173-21.375772 1.129187-32.089918-10.031382 4.595528-20.272846 8.980975-30.67187 13.077561z"/><path d="m246.189024 372.375182c-1.155447 11.116803-2.68729 22.154824-4.595528 33.114065-8.928455-5.672195-17.821897-11.116802-26.680325-16.333821.717778-10.679132 1.094173-21.375772 1.129187-32.089918 10.031382 4.83187 20.080271 9.935094 30.146666 15.309674z"/></g><path d="m186.893577 338.13193c1.067914 9.733767 1.943252 19.546315 2.626016 29.437643 9.033496-3.991545 17.926938-8.193171 26.680326-12.604878 0-10.504065-.306369-20.95561-.919106-31.354635-9.313604 5.076965-18.776016 9.917589-28.387236 14.52187z" fill="#b2daf3"/><path d="m244.665935 336.818922c-.420163 10.836694-1.190461 21.655881-2.310894 32.457561-8.753388-4.989431-17.506775-9.760027-26.260163-14.311788 0-10.504065-.306369-20.95561-.919106-31.354635 9.751274 4.18412 19.581328 8.587074 29.490163 13.208862z" fill="#7fbfeb"/><path d="m186.289593 306.147052c1.645637 9.453659 3.054933 18.986098 4.227887 28.597317 8.333225-4.44672 16.482628-9.068509 24.448211-13.865365-.630244-10.188944-1.60187-20.377887-2.836098-30.514309-8.403252 5.462113-17.042845 10.714146-25.84 15.782357z" fill="#b2daf3"/><path d="m240.910732 301.551524c.297615 10.504065.297615 21.078157 0 31.722276-8.63084-4.34168-17.23542-8.473279-25.81374-12.394796-.630244-10.188944-1.60187-20.377887-2.836098-30.514309 9.418645 3.518861 18.968591 7.247804 28.649838 11.186829z" fill="#7fbfeb"/><path d="m183.611057 274.240955c2.17084 9.17355 4.122845 18.408374 5.856016 27.704471 7.597941-4.814363 15.01206-9.786287 22.242358-14.915772-1.295501-9.926341-2.862358-19.791409-4.700569-29.595203-7.580434 5.759729-15.379702 11.361897-23.397805 16.806504z" fill="#b2daf3"/><path d="m234.949675 266.730548c.997886 10.267724 1.62813 20.587968 1.969512 30.855691-8.473279-3.693929-16.876531-7.195284-25.209756-10.504065-1.295501-9.926341-2.862358-19.791409-4.700569-29.595203 9.22607 2.853604 18.539675 5.934797 27.940813 9.243577z" fill="#7fbfeb"/><path d="m178.857967 242.571199c2.678537 8.753387 5.138239 17.655582 7.379106 26.706585 6.853903-5.252032 13.497724-10.504065 20.010244-15.756098-1.890732-9.593712-4.035312-19.117398-6.43374-28.571056-6.792628 6.004823-13.777832 11.878346-20.95561 17.620569z" fill="#b2daf3"/><path d="m226.861545 232.408516c1.610623 9.943848 2.914878 19.92271 3.912764 29.936585-8.245691-3.116206-16.421355-6.074851-24.526992-8.875935-1.890732-9.593713-4.035312-19.117398-6.43374-28.571057 8.910949 2.310895 17.926938 4.814363 27.047968 7.510407z" fill="#7fbfeb"/><path d="m172.004065 211.242825c3.168726 8.455772 6.118618 16.999078 8.849675 25.629918 6.092358-5.357073 12.018401-10.8542 17.77813-16.491382-2.450949-9.243577-5.146992-18.417127-8.08813-27.52065-5.952304 6.249919-12.132195 12.37729-18.539675 18.382114z" fill="#b2daf3"/><path d="m216.620081 198.716727c2.205854 9.61122 4.131599 19.239946 5.777236 28.886179-8.000596-2.573496-15.878645-4.989431-23.634146-7.247805-2.450949-9.243577-5.146992-18.417127-8.08813-27.52065 8.508292 1.803198 17.156639 3.763956 25.94504 5.882276z" fill="#7fbfeb"/><path d="m163.12813 180.308353c3.606396 8.158157 7.00271 16.342575 10.188943 24.553252 5.357073-5.567154 10.547832-11.256856 15.572277-17.069106-2.976152-8.875934-6.188645-17.629322-9.63748-26.260162-5.164499 6.337452-10.539079 12.596125-16.12374 18.776016z" fill="#b2daf3"/><path d="m204.251545 165.760223c2.783577 9.226071 5.295799 18.495908 7.536666 27.809512-7.720487-2.048292-15.362195-3.991544-22.898861-5.777236-2.976152-8.875934-6.188645-17.629322-9.63748-26.260162 8.219431 1.181707 16.570163 2.626016 24.999675 4.227886z" fill="#7fbfeb"/><path d="m152.308943 149.899085c3.991545 7.694228 7.878049 15.519756 11.449431 23.397805 4.621789-5.724716 9.042249-11.563225 13.261382-17.515529-3.501355-8.490786-7.195284-16.885284-11.081789-25.183496-4.376693 6.565041-8.919701 12.998781-13.629024 19.30122z" fill="#b2daf3"/><path d="m189.834715 133.617784c3.326288 8.753388 6.389973 17.638076 9.191057 26.654065-7.326585-1.60187-14.758211-3.072439-22.006016-4.490488-3.501355-8.490786-7.195284-16.885284-11.081789-25.183496 7.851789.919106 15.834879 1.890732 23.896748 3.019919z" fill="#7fbfeb"/><path d="m139.178862 120.146321c4.359187 7.282818 8.569566 14.679431 12.631138 22.189837 3.886504-5.803496 7.641707-11.712032 11.213089-17.673089-3.939024-8.053117-8.079376-16.027453-12.421056-23.923009-3.545122 6.538781-7.379106 13.025041-11.423171 19.406261z" fill="#b2daf3"/><path d="m173.317073 102.394451c3.851491 8.403252 7.44038 16.867777 10.766667 25.393577-7.116504-1.155447-14.127968-2.179594-21.00813-3.124959-3.939025-8.053117-8.079377-16.027453-12.421057-23.923009 7.457886.420163 15.047073.971626 22.66252 1.654391z" fill="#7fbfeb"/><path d="m160.186992 105.151768c0-1.286748-5.462114-16.12374-4.359187-32.431301 2.100813-30.9607317 19.301219-72.34674799 82.43065-71.87406506l-18.145772 16.85902436s-15.992439.2363415-19.878943 2.8360976c3.769945 1.2120603 7.254267 3.1775756 10.241463 5.7772358l-19.117398 26.2601626-14.863252-8.718374c2.355694 6.0545066 5.385968 11.824359 9.033496 17.2004065z" fill="#fff"/><path d="m159.162846 105.44063c0-1.260488-5.488374-16.0974801-4.385448-32.4050411 2.074553-30.9869918 19.27496-72.3730081 82.404391-71.87406501l-18.145773 16.85902441s-15.966179.2363414-19.852683 2.8360975c3.620408 1.506495 7.049414 3.4369636 10.215204 5.7509756l-19.091139 26.2601626-14.889512-8.7183739c2.366672 6.0213688 5.405852 11.7561709 9.059756 17.0953658z" fill="url(#k)"/><path d="m231.798455 38.4509548c-53.229349 9.6637398-72.451788 64.8100812-71.611463 66.9108942 12.184715-3.597642 34.138211-9.6112194 58.743984-15.2308942 5.462113-9.847561 13.130081-24.2118699 13.130081-24.2118699l4.464228 20.2991057c10.924227-2.3108944 22.058536-4.4642277 32.851463-6.2236586 0-9.6374797.630244-21.1919512.630244-21.1919512l13.366423 19.0911382c12.870771-1.9198655 25.881081-2.745638 38.891443-2.4684553.078638-1.8907317-32.536484-47.4258536-90.466403-36.9743089z" fill="#fff"/><path d="m230.669268 38.4772149c-53.33439 9.6374797-72.451788 64.7838211-71.532683 66.9371541 12.079675-3.623902 33.980651-9.6112191 58.665204-15.3096744 5.462113-9.847561 13.130081-24.2118699 13.130081-24.2118699l4.437967 20.2991057c10.950488-2.3108943 22.058537-4.4642277 32.851464-6.2236585 0-9.6374797.656504-21.1919513.656504-21.1919513l13.366423 19.1173984c12.868694-1.9410735 25.88007-2.7756992 38.891443-2.4947154.078638-1.8382114-32.536484-47.3733334-90.466403-36.9217887z" fill="url(#l)"/><path d="m40.6507317 72.9568084c11.5079729-3.7671463 23.4289236-6.130175 35.5037398-7.0377235l12.3685366-21.0081301-.5777235 21.0081301c3.9893735.3145251 7.9238399 1.1261191 11.7120325 2.4159349 3.9170589 1.41519 7.7564199 3.0368378 11.5019509 4.8581301l8.692114-18.3821138 5.252033 26.2601626c11.479583 7.2990452 22.056914 15.9283841 31.512195 25.7086993-21.927236-131.0644717-113.0762604-47.1632522-115.9648783-33.8230896z" fill="#fff"/><path d="m41.3334959 73.1931499c11.4995165-3.7650769 23.4115263-6.128081 35.4774797-7.0377236l12.3685366-21.0081301-.5777236 21.0081301c3.9800831.3357872 7.9043324 1.1559112 11.6857724 2.4421951 3.934426 1.392564 7.783775 3.0147269 11.528211 4.8581301l8.692114-18.3821138 5.252033 26.2601626c11.479583 7.2990452 22.056914 15.9283842 31.512195 25.7086987-21.900976-131.0907312-113.0500002-47.1632515-115.9386181-33.8493491z" fill="url(#m)"/><path d="m66.9371545 82.252906c-40.9921138 7.8780488-61.08113824 44.878618-66.9371545 85.398049 8.12479782-6.979628 16.9211516-13.137076 26.2601626-18.382114 1.6018699-8.193171 3.3350407-16.964065 3.3350407-16.964065l8.6133333 10.346504c7.746748-4.096585 16.7539837-8.429512 27.0742276-12.736179 1.6806504-8.560813 3.6239025-18.382114 3.6239025-18.382114l8.6658536 13.523984c25.1520157-8.647264 51.0497397-14.950274 77.3624387-18.828537 0 0-28.150894-35.5037394-87.9978045-23.975528z" fill="#fff"/><path d="m68.0663415 82.0690849c-41.018374 7.8780487-61.08113825 44.8260971-66.93715451 85.3980491 8.12952267-6.973541 16.92525401-13.130553 26.26016261-18.382114 1.4968293-8.219431 3.3350406-16.937805 3.3350406-16.937805l8.6658537 10.215203c7.746748-4.096585 16.7539837-8.403252 27.0742276-12.736179 1.6806505-8.560813 3.6239025-18.382113 3.6239025-18.382113l8.6921138 13.550243c25.1631402-8.616043 51.0699272-14.883956 77.3886992-18.723496 0 0-28.255935-35.5037394-88.1028455-24.0017881z" fill="url(#n)"/><path d="m90.4925203 158.407378 12.4998377 19.878943c7.090244-10.504065 14.338049-20.771789 21.00813-30.330488l-2.048293-16.780244 6.538781 10.504065c15.047073-21.296992 26.627804-37.18439 26.627804-37.18439-114.4680483 4.648049-99.9724385 116.096179-90.0198369 133.139024 6.0398374-11.239349 17.0428455-28.413496 29.3588618-46.716829z" fill="#fff"/><path d="m91.1490244 159.142662 12.4998376 19.878943c7.090244-10.372764 14.311788-20.745528 21.00813-30.330488l-2.048293-16.753983 6.538781 10.504065c15.073333-21.323252 26.627805-37.210651 26.627805-37.210651-114.4680492 4.621789-99.9199191 116.043659-90.1248785 133.086504 6.0398374-11.239349 17.0428455-28.413496 29.3588618-46.716829z" fill="url(#o)"/><path d="m262.181463 129.67876-6.48626 20.404146c-.397685.132177-.815284.194373-1.234227.183821-10.363976-6.308585-21.504101-11.243078-33.140326-14.679431l-1.418048-20.850569-12.447317 14.364309-1.234228.210081c-22.321138-12.499837-46.585529-26.260162-46.585529-26.260162 101.469269-43.3555287 141.410976 51.181057 139.493984 74.605122-.413659.09968-.835589.161212-1.260488.183821-9.427398-6.958943-10.792926-9.427399-29.07-20.220325z" fill="#fff"/><path d="m261.209837 129.81006-6.48626 20.404147c-10.772441-6.319364-22.329915-11.193104-34.374553-14.49561l-1.418048-20.850569-12.552358 14.364309c-22.55748-12.604878-47.846016-25.971301-47.846016-25.971301 104.174065-44.6422763 141.069593 55.146342 139.493983 74.578862-9.612275-7.403587-19.749048-14.100001-30.330487-20.036504z" fill="url(#p)"/></g><path d="m0 135.263524c240-61.2322988 480-91.8484484 720-91.8484484s480 30.6161496 720 91.8484484z" fill="#fff" transform="matrix(1 0 0 -1 0 135.6786)"/></g></svg>