<?xml version="1.0" encoding="UTF-8"?>
<svg width="1440px" height="398px" viewBox="0 0 1440 398" version="1.1" xmlns="http://www.w3.org/2000/svg" xmlns:xlink="http://www.w3.org/1999/xlink">
    <title>upside-down-beach</title>
    <defs>
        <polygon id="path-1" points="0 0 1440 0 1440 398 0 398"></polygon>
        <linearGradient x1="100%" y1="26.850112%" x2="14.202363%" y2="60.1281448%" id="linearGradient-3">
            <stop stop-color="#7FBFEB" offset="0%"></stop>
            <stop stop-color="#78B4DE" offset="100%"></stop>
        </linearGradient>
        <linearGradient x1="11.95951%" y1="45.5021779%" x2="89.468176%" y2="56.4344132%" id="linearGradient-4">
            <stop stop-color="#78B4DE" offset="0%"></stop>
            <stop stop-color="#B2DAF3" offset="100%"></stop>
        </linearGradient>
        <linearGradient x1="92.408104%" y1="66.8112718%" x2="-28.767327%" y2="-30.2361024%" id="linearGradient-5">
            <stop stop-color="#78B4DE" offset="0%"></stop>
            <stop stop-color="#B2DAF3" offset="100%"></stop>
        </linearGradient>
        <linearGradient x1="95.183114%" y1="54.020928%" x2="-13.565493%" y2="50%" id="linearGradient-6">
            <stop stop-color="#78B4DE" offset="0%"></stop>
            <stop stop-color="#B2DAF3" offset="100%"></stop>
        </linearGradient>
        <linearGradient x1="83.974595%" y1="23.2343379%" x2="-19.604809%" y2="82.9356662%" id="linearGradient-7">
            <stop stop-color="#78B4DE" offset="0%"></stop>
            <stop stop-color="#B2DAF3" offset="100%"></stop>
        </linearGradient>
        <linearGradient x1="39.874773%" y1="14.385895%" x2="73.6901049%" y2="64.6398%" id="linearGradient-8">
            <stop stop-color="#78B4DE" offset="0%"></stop>
            <stop stop-color="#B2DAF3" offset="100%"></stop>
        </linearGradient>
        <linearGradient x1="81.6222821%" y1="0%" x2="6.01183528%" y2="50%" id="linearGradient-9">
            <stop stop-color="#B2DAF3" offset="0%"></stop>
            <stop stop-color="#78B4DE" offset="100%"></stop>
        </linearGradient>
        <linearGradient x1="109.45573%" y1="39.3969833%" x2="9.501777%" y2="54.3534529%" id="linearGradient-10">
            <stop stop-color="#B2DAF3" offset="0%"></stop>
            <stop stop-color="#78B4DE" offset="100%"></stop>
        </linearGradient>
        <linearGradient x1="80.040082%" y1="30.5987431%" x2="15.914186%" y2="60.413126%" id="linearGradient-11">
            <stop stop-color="#78B4DE" offset="0%"></stop>
            <stop stop-color="#B2DAF3" offset="100%"></stop>
        </linearGradient>
        <linearGradient x1="83.974595%" y1="34.1516408%" x2="-10.552207%" y2="56.5625609%" id="linearGradient-12">
            <stop stop-color="#78B4DE" offset="0%"></stop>
            <stop stop-color="#B2DAF3" offset="100%"></stop>
        </linearGradient>
        <linearGradient x1="68.0729815%" y1="0%" x2="12.9733216%" y2="111.525968%" id="linearGradient-13">
            <stop stop-color="#78B4DE" offset="0%"></stop>
            <stop stop-color="#B2DAF3" offset="100%"></stop>
        </linearGradient>
        <linearGradient x1="20.921261%" y1="35.3391716%" x2="77.803349%" y2="68.7983582%" id="linearGradient-14">
            <stop stop-color="#78B4DE" offset="0%"></stop>
            <stop stop-color="#B2DAF3" offset="100%"></stop>
        </linearGradient>
    </defs>
    <g id="Page-1" stroke="none" stroke-width="1" fill="none" fill-rule="evenodd">
        <g id="upside-down-beach">
            <mask id="mask-2" fill="white">
                <use xlink:href="#path-1"></use>
            </mask>
            <g id="path-1"></g>
            <g id="Group" mask="url(#mask-2)">
                <g transform="translate(0.000000, -41.000000)">
                    <g id="Path" transform="translate(215.895821, 154.629589) scale(-1, 1) rotate(173.000000) translate(-215.895821, -154.629589) translate(81.895821, 15.629589)" fill-rule="nonzero">
                        <polygon fill="#6EA5CC" points="146.302636 73.3349821 136.564419 68.0005314 125.887829 71.1347807 99.4257362 274.860983 114.543953 270.543607 128.390155 277.995232"></polygon>
                        <polygon fill="#FFFFFF" points="134.979612 79.3959146 120.007364 80.5375285 120.257597 92.9707425 133.936977 89.0684984 146.448605 95.7936425 149.388837 83.6925344"></polygon>
                        <polygon fill="#B2DAF3" points="149.659922 84.1906932 146.740543 96.2710447 134.208062 89.5459006 135.27155 79.8733168"></polygon>
                        <polygon fill="#7FBFEB" points="120.27845 81.0149307 120.549535 93.4481447 134.208062 89.5459006 135.27155 79.8733168"></polygon>
                        <polygon fill="#FFFFFF" points="133.290543 93.3028484 118.088915 94.735055 118.36 107.334322 132.206202 103.369808 144.884651 110.177979 147.845736 97.9315741"></polygon>
                        <polygon fill="#B2DAF3" points="148.137674 98.429733 145.176589 110.676137 132.49814 103.84721 133.582481 93.7802506"></polygon>
                        <polygon fill="#7FBFEB" points="118.380853 95.2124572 118.651938 107.811724 132.49814 103.84721 133.582481 93.7802506"></polygon>
                        <polygon fill="#FFFFFF" points="136.50186 65.3851976 121.73814 66.2362189 121.988372 78.5241366 135.50093 74.6634057 147.866589 81.3055234 150.744264 69.3704682"></polygon>
                        <polygon fill="#FFFFFF" points="151.036202 69.8478704 148.158527 81.8036822 135.792868 75.1408079 136.793798 65.8625998"></polygon>
                        <polygon fill="#FFFFFF" points="122.030078 66.7136211 122.28031 79.0015388 135.792868 75.1408079 136.793798 65.8625998"></polygon>
                        <polygon fill="#FFFFFF" points="132.101938 107.375835 116.691783 109.098635 116.962868 121.843198 130.975891 117.816413 143.80031 124.728368 146.803101 112.336667"></polygon>
                        <polygon fill="#B2DAF3" points="147.095039 112.814069 144.092248 125.226526 131.267829 118.314573 132.393876 107.853237"></polygon>
                        <polygon fill="#7FBFEB" transform="translate(123.998060, 114.985463) rotate(7.000000) translate(-123.998060, -114.985463) " points="116.376762 110.47119 118.198998 123.08772 131.619358 117.403795 131.462096 106.883207"></polygon>
                        <polygon fill="#FFFFFF" points="130.308605 122.382869 114.66907 124.354748 114.940155 137.265365 129.12 133.197068 142.11124 140.192047 145.155736 127.634294"></polygon>
                        <polygon fill="#B2DAF3" points="145.447674 128.132453 142.424031 140.66945 129.411938 133.674469 130.600543 122.860272"></polygon>
                        <polygon fill="#7FBFEB" transform="translate(122.071776, 130.197823) rotate(7.000000) translate(-122.071776, -130.197823) " points="114.362629 125.759332 116.202572 138.520076 129.780922 132.754014 129.642748 121.87557"></polygon>
                        <polygon fill="#FFFFFF" points="128.723798 136.974772 112.875736 139.237243 113.146822 152.313913 127.493488 148.204103 140.65155 155.282109 143.716899 142.579058"></polygon>
                        <polygon fill="#B2DAF3" points="144.008837 143.056461 140.943488 155.759511 127.785426 148.681504 129.015736 137.472931"></polygon>
                        <polygon fill="#7FBFEB" transform="translate(120.375972, 145.027599) rotate(7.000000) translate(-120.375972, -145.027599) " points="112.576447 140.653319 114.436628 153.578878 128.175497 147.751283 128.030655 136.47632"></polygon>
                        <polygon fill="#FFFFFF" points="127.138992 151.545917 111.082403 154.078225 111.353488 167.300191 125.866977 163.148867 139.171008 170.3099 142.278062 157.440797"></polygon>
                        <polygon fill="#B2DAF3" points="142.57 157.938956 139.462946 170.787302 126.158915 163.626269 127.43093 152.02332"></polygon>
                        <polygon fill="#7FBFEB" transform="translate(118.669896, 159.804222) rotate(7.000000) translate(-118.669896, -159.804222) " points="110.77091 155.506996 112.672024 168.594829 126.568883 162.685098 126.417373 151.013616"></polygon>
                        <polygon fill="#FFFFFF" points="125.533333 166.345386 109.247364 169.168286 109.51845 182.535548 124.219612 178.321954 137.690465 185.566014 140.839225 172.572371"></polygon>
                        <polygon fill="#B2DAF3" points="141.11031 173.049773 137.982403 186.043417 124.51155 178.799357 125.825271 166.822788"></polygon>
                        <polygon fill="#7FBFEB" transform="translate(116.953086, 174.811691) rotate(7.000000) translate(-116.953086, -174.811691) " points="108.964986 170.587707 110.86311 183.822294 124.941185 177.848487 124.785537 165.801087"></polygon>
                        <polygon fill="#FFFFFF" points="123.990233 180.501399 107.495736 183.614892 107.766822 197.148206 122.634806 192.8931 136.251628 200.220186 139.442093 187.060491"></polygon>
                        <polygon fill="#B2DAF3" points="139.734031 187.537893 136.543566 200.697588 122.926744 193.370502 124.282171 180.978802"></polygon>
                        <polygon fill="#7FBFEB" transform="translate(115.300242, 189.195354) rotate(7.000000) translate(-115.300242, -189.195354) " points="107.221765 185.045882 109.140126 198.445285 123.37872 192.409944 123.213875 179.945424"></polygon>
                        <polygon fill="#FFFFFF" points="122.342868 195.591461 105.639845 198.974789 105.931783 212.6534 120.966589 208.35678 134.72938 215.766893 137.96155 202.461901"></polygon>
                        <polygon fill="#B2DAF3" points="138.232636 202.939303 135.021318 216.244295 121.258527 208.834183 122.634806 196.068862"></polygon>
                        <polygon fill="#7FBFEB" transform="translate(113.550897, 204.503640) rotate(7.000000) translate(-113.550897, -204.503640) " points="105.372959 200.418379 107.311555 213.982597 121.728836 207.862579 121.539156 195.024683"></polygon>
                        <g id="Group" transform="translate(100.000000, 10.949309)" fill="#FFFFFF">
                            <polygon id="Path" points="20.737209 199.524646 3.80480599 203.198567 4.09674399 217.043232 19.298372 212.684342 33.2279839 220.177481 36.4810079 206.727193"></polygon>
                            <polygon id="Path" points="36.7729459 207.204595 33.5199219 220.654883 19.59031 213.161745 21.029147 200.002048"></polygon>
                            <polygon id="Path" points="4.09674399 203.67597 4.38868199 217.520634 19.59031 213.161745 21.029147 200.002048"></polygon>
                            <polygon id="Path" points="19.04814 215.112867 1.886357 219.056624 2.178295 233.046584 17.567597 228.646181 31.6431779 236.222347 34.9379069 222.606005"></polygon>
                            <polygon id="Path" points="35.2298449 223.104164 31.9351159 236.699748 17.859535 229.123583 19.340078 215.590268"></polygon>
                            <polygon id="Path" points="2.178295 219.534026 2.47023299 233.544743 17.859535 229.123583 19.340078 215.590268"></polygon>
                            <polygon id="Path" points="33.6867439 239.003734 30.3503099 252.76537 16.12876 245.085423 17.630155 231.157732"></polygon>
                            <polygon id="Path" points="0.280697999 235.412838 0.572635999 249.548095 16.12876 245.085423 17.630155 231.157732"></polygon>
                            <path d="M38.0241089,61.5969219 C38.3577519,60.6213609 38.7539529,48.022094 44.4675969,36.2530917 C55.2901549,13.9189712 80.4802328,-11.6324252 127.294574,7.5259329 L108.735659,14.6246961 C108.735659,14.6246961 96.7870538,10.0374836 93.0961238,10.8262351 C95.5690378,12.8456405 97.5929138,15.3549905 99.0391468,18.1948344 L76.9561238,31.8942021 L68.4690699,20.9969777 C68.4272929,26.1879609 68.9658249,31.3674587 70.0747289,36.4399014 L38.0241089,61.5969219 Z" id="Path"></path>
                        </g>
                        <path d="M137.127442,72.4424476 C137.461085,71.4876432 137.87814,58.8883763 143.57093,47.1193741 C154.310078,24.7852534 179.604419,-0.76614296 226.460465,18.3922151 L207.90155,25.4909784 C207.90155,25.4909784 196.015504,20.841496 192.262016,21.6717607 C194.487977,23.8721149 196.447562,26.3242401 198.100775,28.9780902 L176.059457,42.7397277 L167.593256,31.8425034 C167.538772,37.0340808 168.077451,42.214993 169.198915,47.285427 L137.127442,72.4424476 Z" fill="url(#linearGradient-3)"></path>
                        <path d="M211.300543,44.4210138 C168.69845,35.6617211 137.940698,70.8649447 138.002877,72.7330402 C148.075116,73.6463314 166.175271,75.7219932 186.256434,78.9600256 C193.262946,73.3142255 203.293101,64.9493086 203.293101,64.9493086 L200.540543,81.32628 C209.36124,82.8622697 218.307054,84.6058256 226.856667,86.4946778 C229.817752,79.375158 233.696357,70.9687277 233.696357,70.9687277 L237.866899,89.1307683 C248.027117,91.5221439 257.96183,94.7791023 267.561162,98.8656219 C268.207596,97.4334153 257.551859,54.0520844 211.300543,44.4210138 L211.300543,44.4210138 Z" fill="#FFFFFF"></path>
                        <path d="M210.424729,44.1096645 C167.822636,35.3711284 137.085736,70.6573785 137.147915,72.4216909 C147.199302,73.3349821 165.32031,75.4106439 185.401473,78.5448932 C192.407984,72.8783365 202.43814,64.5341762 202.43814,64.5341762 L199.685581,80.9111476 C208.506279,82.4471373 217.43124,84.1699366 226.001705,86.0795454 C228.941938,78.9600256 232.820543,70.6573785 232.820543,70.6573785 L236.991085,88.7986623 C247.158821,91.1964128 257.100505,94.4603139 266.706201,98.5542726 C267.352635,97.1013094 256.696898,53.636952 210.424729,44.1096645 L210.424729,44.1096645 Z" fill="url(#linearGradient-4)"></path>
                        <path d="M58.6169766,13.0577645 C68.307122,13.6979425 77.8847405,15.4959237 87.1434882,18.4129718 L102.637054,6.58169969 L95.9224804,22.0246232 C98.7998193,23.4439504 101.483648,25.2225994 103.90907,27.3175608 C106.408873,29.5293574 108.789407,31.871207 111.040698,34.3332976 L123.031008,23.3530468 L119.13155,44.3172306 C125.437619,53.1442454 130.673228,62.6823718 134.72938,72.7330402 C157.750775,-31.0500481 64.768527,4.04939233 58.6169766,13.0577645 Z" fill="#FFFFFF"></path>
                        <path d="M59.0340309,13.4521401 C68.7306601,14.067917 78.3164535,15.852179 87.5813951,18.7658343 L103.054109,6.91380558 L96.2978293,22.3774858 C99.1671964,23.8078956 101.843613,25.5932496 104.263566,27.6911798 C106.756815,29.9102299 109.13039,32.2590094 111.374341,34.7276733 L123.343798,23.7474225 L119.486047,44.7116064 C125.814902,53.5349122 131.071644,63.073283 135.146434,73.127416 C158.167829,-30.6141592 65.1855813,4.42301146 59.0340309,13.4521401 Z" fill="url(#linearGradient-5)"></path>
                        <path d="M75.4034107,27.7742064 C42.5186821,21.4019248 16.4944961,42.8435108 0,71.1555373 C8.12309549,68.375159 16.5062805,66.4141891 25.0232557,65.3021711 L32.5719379,53.7407351 L35.908372,63.9114777 C42.9148836,63.1849961 50.9014728,62.6660807 59.8889921,62.541541 L68.0632557,50.0875704 L70.4821704,62.7075939 C91.8041227,63.8103485 112.977123,66.8816771 133.72845,71.8820189 C133.72845,71.8820189 123.427209,37.0731711 75.4034107,27.7742064 L75.4034107,27.7742064 Z" fill="#FFFFFF"></path>
                        <path d="M76.3000773,27.9817725 C43.4153487,21.6094909 17.3703101,43.051077 0.875813948,71.3423469 C9.00651691,68.5928325 17.3872904,66.6393785 25.8990697,65.5097373 L33.4686046,53.9275446 L36.7841859,64.1190439 C43.7906976,63.4133189 51.7981394,62.8944035 60.7648061,62.7491071 L68.9599224,50.2951365 L71.3788371,62.9151601 C92.6938022,64.0190741 113.859774,67.0903957 134.604264,72.0895851 C134.604264,72.0895851 124.303023,37.2807372 76.3000773,27.9817725 Z" fill="url(#linearGradient-6)"></path>
                        <path d="M70.1276743,91.2894564 L73.484961,109.74209 C81.8260463,104.179316 90.3756587,98.6372991 98.2579843,93.5311711 L101.740388,80.4960153 L103.512868,90.1685991 C121.091705,78.8562424 134.479147,70.5120821 134.479147,70.5120821 C47.7735658,39.8960711 25.2734883,126.824786 27.546434,142.413006 C35.4496123,135.874671 48.7327906,126.43041 63.3713952,116.529503 L70.1276743,91.2894564 Z" fill="#FFFFFF"></path>
                        <path d="M70.3987596,91.9951815 L73.776899,110.447814 C82.1179843,104.885041 90.646744,99.3430241 98.5290696,94.2576528 L102.032326,81.2017403 L103.783953,90.8535674 C121.383643,79.5619675 134.750233,71.2385638 134.750233,71.2385638 C48.0655038,40.601796 25.5445735,127.530511 27.8175193,143.097974 C35.6581394,136.580396 49.0038759,127.136136 63.6424805,117.235228 L70.3987596,91.9951815 Z" fill="url(#linearGradient-7)"></path>
                        <path d="M206.608682,121.116716 L195.68186,134.297169 C195.336717,134.284727 194.997073,134.207251 194.68093,134.068846 C188.852755,126.308384 182.039867,119.33154 174.412093,113.312228 L179.583566,97.4334153 L165.925039,104.324612 L164.944961,104.09629 C152.057984,88.1759638 138.086667,70.8857013 138.086667,70.8857013 C226.64814,68.9760925 228.066124,150.943976 219.641628,167.73608 C219.310135,167.682069 218.982694,167.605787 218.66155,167.507757 C213.698605,159.537215 213.427519,157.295501 203.063721,143.845213 L206.608682,121.116716 Z" fill="#FFFFFF"></path>
                        <path d="M205.837132,120.90915 L194.91031,134.089603 C188.762159,126.214362 181.61243,119.167353 173.640543,113.125418 L178.812016,97.2466057 L165.174341,104.137802 C152.224806,88.0929373 137.335969,70.6573785 137.335969,70.6573785 C228.232946,68.5817167 225.876589,153.580066 218.89093,167.487 C213.91754,159.139141 208.342178,151.161492 202.20876,143.61689 L205.837132,120.90915 Z" fill="url(#linearGradient-8)"></path>
                    </g>
                    <g id="Path" transform="translate(1236.500000, 227.766918) scale(-1, 1) rotate(-180.000000) translate(-1236.500000, -227.766918) translate(1075.000000, 25.266918)" fill-rule="nonzero">
                        <path d="M167.434797,102.210118 C161.788862,101.50436 156.169187,100.850882 150.654553,100.27582 C148.256125,105.242258 145.673875,110.165131 142.907805,115.044439 C185.5348,202.671126 200.975677,300.949979 187.26122,397.347237 C196.627344,393.984001 205.862168,390.394224 214.965691,386.577908 C223.508997,391.561773 232.06981,396.789603 240.64813,402.261398 C245.240873,297.365163 219.854329,193.323119 167.434797,102.210118 L167.434797,102.210118 Z" fill="#6EA5CC"></path>
                        <g id="Group" transform="translate(138.000000, 99.539171)" fill="#FFFFFF">
                            <path d="M46.871545,268.55836 C47.370488,278.517376 47.580569,288.554809 47.528049,298.61838 C57.296829,295.133161 66.925556,291.430116 76.414228,287.509243 C77.149512,276.844471 77.534661,266.188411 77.569675,255.541066 C67.503279,260.141555 57.270569,264.480654 46.871545,268.55836 L46.871545,268.55836 Z" id="Path"></path>
                            <path d="M107.690081,270.806327 C106.499621,281.837048 104.967778,292.81549 103.094553,303.741654 C94.139837,298.095598 85.263902,292.684795 76.387967,287.509243 C77.123252,276.844471 77.508401,266.188411 77.543415,255.541066 C87.522276,260.38552 97.571165,265.473941 107.690081,270.806327 L107.690081,270.806327 Z" id="Path"></path>
                            <path d="M48.447154,236.694739 C49.550081,246.38365 50.42542,256.150979 51.073171,265.996725 C60.132927,262.049713 69.008862,257.84131 77.753496,253.449934 C77.753496,242.994274 77.464634,232.538614 76.83439,222.23979 C67.485772,227.275933 58.02336,232.09425 48.447154,236.694739 Z" id="Path"></path>
                            <path d="M106.219512,235.387782 C105.82561,246.18325 105.037805,256.952579 103.934878,267.695769 C95.181491,262.764183 86.428103,258.015571 77.674715,253.449934 C77.674715,242.994274 77.385854,232.538614 76.75561,222.23979 C86.436856,226.404628 96.258157,230.787292 106.219512,235.387782 L106.219512,235.387782 Z" id="Path"></path>
                            <path d="M47.79065,204.857257 C49.436287,214.267351 50.845583,223.755861 52.018537,233.322789 C60.316748,228.913986 68.466152,224.313497 76.466748,219.521319 C75.818997,209.379329 74.864878,199.254766 73.60439,189.14763 C65.201138,194.584572 56.596558,199.821114 47.79065,204.857257 Z" id="Path"></path>
                            <path d="M102.411789,200.282906 C102.709404,210.738565 102.709404,221.263929 102.411789,231.858997 C93.745935,227.554751 85.141355,223.442191 76.598049,219.521319 C75.950298,209.379329 74.996179,199.254766 73.735691,189.14763 C83.136829,192.650275 92.695528,196.362034 102.411789,200.282906 Z" id="Path"></path>
                            <path d="M45.085854,173.15047 C47.326721,182.229468 49.322493,191.404309 51.073171,200.674993 C58.636098,195.882816 66.041463,190.933804 73.289268,185.827957 C72.011274,175.947359 70.444417,166.127753 68.588699,156.369138 C60.920732,162.11975 53.08645,167.713527 45.085854,173.15047 L45.085854,173.15047 Z" id="Path"></path>
                            <path d="M96.450732,165.622396 C97.431111,175.868942 98.078862,186.115488 98.393984,196.362034 C89.938211,192.685127 81.534959,189.199908 73.184228,185.906374 C71.906233,176.025777 70.339377,166.20617 68.483659,156.447555 C77.727236,159.270583 87.049593,162.328863 96.450732,165.622396 L96.450732,165.622396 Z" id="Path"></path>
                            <path d="M40.332764,141.600519 C43.011301,150.313568 45.479756,159.166026 47.73813,168.157893 C54.565772,163.052046 61.2271,157.824216 67.722114,152.474404 C65.848889,142.942328 63.704309,133.453817 61.288374,124.008872 C54.478238,130.038302 47.493035,135.902184 40.332764,141.600519 L40.332764,141.600519 Z" id="Path"></path>
                            <path d="M88.336341,131.45853 C89.929458,141.391405 91.233713,151.324282 92.249106,161.257158 C84.055935,158.172739 75.880271,155.236441 67.722114,152.448265 C65.848889,142.916189 63.704309,133.427678 61.288374,123.982733 C70.234336,126.282978 79.250325,128.77491 88.336341,131.45853 L88.336341,131.45853 Z" id="Path"></path>
                            <path d="M33.505122,110.416515 C36.656341,118.833321 39.606233,127.34597 42.354797,135.954463 C48.447154,130.587225 54.373198,125.106716 60.132927,119.512938 C57.681978,110.294532 54.985935,101.163257 52.044797,92.1191116 C46.145014,98.3402292 39.965122,104.439363 33.505122,110.416515 L33.505122,110.416515 Z" id="Path"></path>
                            <path d="M78.094878,97.9220024 C80.300732,107.488931 82.226477,117.073285 83.872114,126.675065 C75.854011,124.096002 67.975962,121.682488 60.237967,119.434521 C57.716992,110.268393 54.985935,101.163257 52.044797,92.1191116 C60.60561,93.8704347 69.455285,95.8047316 78.094878,97.9220024 L78.094878,97.9220024 Z" id="Path"></path>
                            <path d="M24.602927,79.5984596 C28.191816,87.6493171 31.596883,95.7960179 34.81813,104.038563 C40.175203,98.4970641 45.357209,92.8335819 50.364146,87.0481165 C47.335474,78.2305107 44.131734,69.4651829 40.752927,60.7521341 C35.570921,67.1649382 30.187588,73.4470464 24.602927,79.5984596 Z" id="Path"></path>
                            <path d="M65.752602,65.1173717 C68.536179,74.2922126 71.004634,83.4147755 73.289268,92.7987293 C65.56878,90.7598754 57.927073,88.8255785 50.364146,87.0481165 C47.335474,78.2305107 44.131734,69.4651829 40.752927,60.7521341 C48.981111,62.0765177 57.314336,63.5315962 65.752602,65.1173717 L65.752602,65.1173717 Z" id="Path"></path>
                            <path d="M13.678699,49.3293265 C17.600217,56.9445309 21.425447,64.7078586 25.15439,72.6193075 C29.776179,66.9471117 34.214146,61.1442209 38.520813,55.2629132 C35.019458,46.8286815 31.325528,38.4728669 27.439024,30.1954702 C23.062331,36.6257006 18.475556,43.003652 13.678699,49.3293265 L13.678699,49.3293265 Z" id="Path"></path>
                            <path d="M51.335772,33.1230545 C54.679566,41.8361033 57.743252,50.6798491 60.526829,59.6542897 C53.08645,58.0685143 45.751111,56.6047221 38.520813,55.2629132 C35.019458,46.8286815 31.325528,38.4728669 27.439024,30.1954702 C35.28206,31.0319227 43.247642,32.0077838 51.335772,33.1230545 L51.335772,33.1230545 Z" id="Path"></path>
                            <path d="M0.706179,19.713672 C5.100379,26.9803549 9.310759,34.3428812 13.337317,41.8012517 C17.241328,36.0332126 20.979024,30.1519048 24.550407,24.1573265 C20.628889,16.1413217 16.488537,8.20373375 12.12935,0.344562802 C8.531707,6.90548914 4.723984,13.3618585 0.706179,19.713672 Z" id="Path"></path>
                            <path d="M34.87065,2.04360785 C38.704634,10.4081352 42.28477,18.8336532 45.611057,27.3201638 C38.520813,26.1961804 31.483089,25.150614 24.602927,24.2096045 C20.681409,16.1935996 16.541057,8.25601172 12.18187,0.396840774 C19.560976,0.841206525 27.176423,1.39012922 34.87065,2.04360785 L34.87065,2.04360785 Z" id="Path"></path>
                            <path d="M47.370488,268.89817 C47.869431,278.857186 48.105772,288.868479 48.026992,298.95819 C57.813279,295.472971 67.442005,291.761211 76.913171,287.822913 C77.630949,277.192993 78.007344,266.545646 78.042358,255.880874 C68.010976,260.455225 57.769512,264.820462 47.370488,268.89817 L47.370488,268.89817 Z" id="Path"></path>
                            <path d="M108.189024,271.119997 C107.033577,282.18557 105.501734,293.172725 103.593496,304.081462 C94.665041,298.435407 85.771599,293.01589 76.913171,287.822913 C77.630949,277.192993 78.007344,266.545646 78.042358,255.880874 C88.07374,260.690478 98.122629,265.770184 108.189024,271.119997 L108.189024,271.119997 Z" id="Path"></path>
                        </g>
                        <path d="M186.893577,336.573718 C187.961491,346.262629 188.836829,356.029958 189.519593,365.875704 C198.553089,361.902553 207.446531,357.72029 216.199919,353.328913 C216.199919,342.873254 215.89355,332.469873 215.280813,322.118769 C205.967209,327.172338 196.504797,331.990655 186.893577,336.573718 Z" fill="#B2DAF3"></path>
                        <path d="M244.665935,335.266761 C244.245772,346.053516 243.475474,356.822845 242.355041,367.574748 C233.601653,362.60831 224.848266,357.859698 216.094878,353.328913 C216.094878,342.873254 215.788509,332.469873 215.175772,322.118769 C224.927046,326.283608 234.7571,330.666272 244.665935,335.266761 L244.665935,335.266761 Z" fill="#7FBFEB"></path>
                        <path d="M186.289593,304.736236 C187.93523,314.14633 189.344526,323.634841 190.51748,333.201768 C198.850705,328.77554 207.000108,324.17505 214.965691,319.400299 C214.335447,309.258309 213.363821,299.116319 212.129593,289.026609 C203.726341,294.463551 195.086748,299.691381 186.289593,304.736236 L186.289593,304.736236 Z" fill="#B2DAF3"></path>
                        <path d="M240.910732,300.161886 C241.208347,310.617545 241.208347,321.142908 240.910732,331.737976 C232.279892,327.416304 223.675312,323.303744 215.096992,319.400299 C214.466748,309.258309 213.495122,299.116319 212.260894,289.026609 C221.679539,292.529254 231.229485,296.241013 240.910732,300.161886 Z" fill="#7FBFEB"></path>
                        <path d="M183.611057,272.977172 C185.781897,282.108447 187.733902,291.300715 189.467073,300.553972 C197.065014,295.761795 204.479133,290.812784 211.709431,285.706937 C210.41393,275.826339 208.847073,266.006732 207.008862,256.248117 C199.428428,261.981304 191.62916,267.557655 183.611057,272.977172 Z" fill="#B2DAF3"></path>
                        <path d="M234.949675,265.501375 C235.947561,275.721782 236.577805,285.994468 236.919187,296.214874 C228.445908,292.537968 220.042656,289.052748 211.709431,285.759215 C210.41393,275.878617 208.847073,266.05901 207.008862,256.300395 C216.234932,259.140849 225.548537,262.207843 234.949675,265.501375 L234.949675,265.501375 Z" fill="#7FBFEB"></path>
                        <path d="M178.857967,241.453359 C181.536504,250.166408 183.996206,259.027579 186.237073,268.036873 C193.090976,262.809043 199.734797,257.581213 206.247317,252.353383 C204.356585,242.803882 202.212005,233.324084 199.813577,223.913991 C193.020949,229.891142 186.035745,235.737598 178.857967,241.453359 L178.857967,241.453359 Z" fill="#B2DAF3"></path>
                        <path d="M226.861545,231.337509 C228.472168,241.235533 229.776423,251.168409 230.774309,261.136137 C222.528618,258.034292 214.352954,255.089281 206.247317,252.301105 C204.356585,242.751603 202.212005,233.271806 199.813577,223.861712 C208.724526,226.161958 217.740515,228.653889 226.861545,231.337509 Z" fill="#7FBFEB"></path>
                        <path d="M172.004065,210.269356 C175.172791,218.686161 178.122683,227.190097 180.85374,235.781164 C186.946098,230.448778 192.872141,224.976983 198.63187,219.365779 C196.180921,210.164799 193.484878,201.033523 190.54374,191.971952 C184.591436,198.193069 178.411545,204.292204 172.004065,210.269356 L172.004065,210.269356 Z" fill="#B2DAF3"></path>
                        <path d="M216.620081,197.800982 C218.825935,207.36791 220.75168,216.952264 222.397317,226.554045 C214.396721,223.992408 206.518672,221.587606 198.763171,219.33964 C196.312222,210.13866 193.616179,201.007384 190.675041,191.945813 C199.183333,193.740701 207.83168,195.692424 216.620081,197.800982 Z" fill="#7FBFEB"></path>
                        <path d="M163.12813,179.477439 C166.734526,187.598001 170.13084,195.744703 173.317073,203.917542 C178.674146,198.376043 183.864905,192.712561 188.88935,186.927096 C185.913198,178.092065 182.700705,169.379015 179.25187,160.787948 C174.087371,167.096196 168.712791,173.326027 163.12813,179.477439 L163.12813,179.477439 Z" fill="#B2DAF3"></path>
                        <path d="M204.251545,164.996351 C207.035122,174.179906 209.547344,183.407024 211.788211,192.677709 C204.067724,190.638856 196.426016,188.704559 188.88935,186.927096 C185.913198,178.092065 182.700705,169.379015 179.25187,160.787948 C187.471301,161.96421 195.822033,163.401863 204.251545,164.996351 L204.251545,164.996351 Z" fill="#7FBFEB"></path>
                        <path d="M152.308943,149.208306 C156.300488,156.867077 160.186992,164.656542 163.758374,172.498287 C168.380163,166.799952 172.800623,160.988349 177.019756,155.063475 C173.518401,146.611817 169.824472,138.256003 165.937967,129.996032 C161.561274,136.530819 157.018266,142.93491 152.308943,149.208306 L152.308943,149.208306 Z" fill="#B2DAF3"></path>
                        <path d="M189.834715,133.002034 C193.161003,141.715084 196.224688,150.558828 199.025772,159.533269 C191.699187,157.938781 184.267561,156.474989 177.019756,155.063475 C173.518401,146.611817 169.824472,138.256003 165.937967,129.996032 C173.789756,130.910902 181.772846,131.87805 189.834715,133.002034 L189.834715,133.002034 Z" fill="#7FBFEB"></path>
                        <path d="M139.178862,119.592651 C143.538049,126.841908 147.748428,134.204435 151.81,141.680231 C155.696504,135.903479 159.451707,130.022172 163.023089,124.088585 C159.084065,116.072579 154.943713,108.134991 150.602033,100.27582 C147.056911,106.784468 143.222927,113.240838 139.178862,119.592651 Z" fill="#B2DAF3"></path>
                        <path d="M173.317073,101.922587 C177.168564,110.287115 180.757453,118.712632 184.08374,127.199143 C176.967236,126.049021 169.955772,125.029593 163.07561,124.088585 C159.136585,116.072579 154.996233,108.134991 150.654553,100.27582 C158.112439,100.694047 165.701626,101.242969 173.317073,101.922587 L173.317073,101.922587 Z" fill="#7FBFEB"></path>
                        <path d="M160.186992,104.667198 C160.186992,103.386379 154.724878,88.6177606 155.827805,72.3853496 C157.928618,41.5672941 175.129024,0.371996803 238.258455,0.84250147 L220.112683,17.6238345 C220.112683,17.6238345 204.120244,17.8590868 200.23374,20.4468625 C204.003685,21.6533373 207.488007,23.6097949 210.475203,26.1974751 L191.357805,52.3366231 L176.494553,43.658426 C178.850247,49.6850316 181.880521,55.4282948 185.528049,60.7795679 L160.186992,104.667198 Z" fill="#FFFFFF"></path>
                        <path d="M159.162846,104.954728 C159.162846,103.700049 153.674472,88.9314303 154.777398,72.6990194 C156.851951,41.8548248 174.052358,0.659527432 237.181789,1.15617125 L219.036016,17.9375043 C219.036016,17.9375043 203.069837,18.1727566 199.183333,20.7605322 C202.803741,22.2600849 206.232747,24.1816573 209.398537,26.4850056 L190.307398,52.6241537 L175.417886,43.9459566 C177.784558,49.9395772 180.823738,55.6479516 184.477642,60.9625419 L159.162846,104.954728 Z" fill="url(#linearGradient-9)"></path>
                        <path d="M231.798455,38.2737615 C178.569106,47.8929679 159.346667,102.785179 160.186992,104.876311 C172.371707,101.295248 194.325203,95.3093825 218.930976,89.7156048 C224.393089,79.9134242 232.061057,65.6153103 232.061057,65.6153103 L236.525285,85.8208717 C247.449512,83.5206266 258.583821,81.3772165 269.376748,79.6258936 C269.376748,70.0328263 270.006992,58.5316012 270.006992,58.5316012 L283.373415,77.5347618 C296.244186,75.6237436 309.254496,74.8017765 322.265282,75.0776818 C322.343496,73.1956632 289.728374,27.8703806 231.798455,38.2737615 L231.798455,38.2737615 Z" fill="#FFFFFF"></path>
                        <path d="M230.669268,38.2999005 C177.334878,47.8929679 158.21748,102.785179 159.136585,104.928588 C171.21626,101.321387 193.117236,95.3616607 217.801789,89.6894656 C223.263902,79.8872851 230.93187,65.5891711 230.93187,65.5891711 L235.369837,85.7947326 C246.320325,83.4944875 257.428374,81.3510773 268.221301,79.5997545 C268.221301,70.0066872 268.877805,58.505462 268.877805,58.505462 L282.244228,77.5347618 C295.112922,75.6026333 308.124298,74.7718538 321.136095,75.0515428 C321.214309,73.2218024 288.599187,27.8965196 230.669268,38.2999005 L230.669268,38.2999005 Z" fill="url(#linearGradient-10)"></path>
                        <path d="M40.6507317,72.6206019 C52.1587046,68.8708157 64.0796553,66.5186766 76.1544715,65.6153103 L88.5230081,44.7039919 L87.9452846,65.6153103 C91.9346581,65.928386 95.8691245,66.7362399 99.6573171,68.0201119 C103.574376,69.4287803 107.413737,71.042955 111.159268,72.8558543 L119.851382,54.5584507 L125.103415,80.6975987 C136.582998,87.9630078 147.160329,96.5525801 156.61561,106.287825 C134.688374,-24.1726632 43.5393496,59.3419147 40.6507317,72.6206019 Z" fill="#FFFFFF"></path>
                        <path d="M41.3334959,72.8558543 C52.8330124,69.108128 64.7450222,66.7560133 76.8109756,65.8505626 L89.1795122,44.9392441 L88.6017886,65.8505626 C92.5818717,66.1848024 96.506121,67.001147 100.287561,68.2815033 C104.221987,69.66765 108.071336,71.2823375 111.815772,73.1172457 L120.507886,54.8198421 L125.759919,80.9589902 C137.239502,88.2243992 147.816833,96.8139717 157.272114,106.549216 C135.371138,-23.9374109 44.2221138,59.6033063 41.3334959,72.8558543 Z" fill="url(#linearGradient-11)"></path>
                        <path d="M66.9371545,81.8738604 C25.9450407,89.7156048 5.85601626,126.545664 0,166.87837 C8.12479782,159.930906 16.9211516,153.801833 26.2601626,148.580966 C27.8620325,140.425552 29.5952033,131.695077 29.5952033,131.695077 L38.2085366,141.993901 C45.9552846,137.916194 54.9625203,133.603235 65.2827642,129.316414 C66.9634146,120.795052 68.9066667,111.01901 68.9066667,111.01901 L77.5725203,124.480672 C102.724536,115.873257 128.62226,109.599293 154.934959,105.738902 C154.934959,105.738902 126.784065,70.3987743 66.9371545,81.8738604 L66.9371545,81.8738604 Z" fill="#FFFFFF"></path>
                        <path d="M68.0663415,81.6908864 C27.0479675,89.5326307 6.98520325,126.310412 1.12918699,166.695396 C9.25870966,159.753991 18.054441,153.625353 27.3893496,148.397992 C28.8861789,140.216439 30.7243902,131.538242 30.7243902,131.538242 L39.3902439,141.70637 C47.1369919,137.628663 56.1442276,133.341843 66.4644715,129.028883 C68.145122,120.507521 70.088374,110.73148 70.088374,110.73148 L78.7804878,124.21928 C103.943628,115.642942 129.850415,109.403913 156.169187,105.582067 C156.169187,105.582067 127.913252,70.2419394 68.0663415,81.6908864 Z" fill="url(#linearGradient-12)"></path>
                        <path d="M90.4925203,157.67739 L102.992358,177.464725 C110.082602,167.009066 117.330407,156.788659 124.000488,147.274009 L121.952195,130.571093 L128.490976,141.026752 C143.538049,119.827903 155.11878,104.013719 155.11878,104.013719 C40.6507317,108.640348 55.1463415,219.574893 65.0989431,236.539199 C71.1387805,225.351644 82.1417886,208.256641 94.4578049,190.037655 L90.4925203,157.67739 Z" fill="#FFFFFF"></path>
                        <path d="M91.1490244,158.409286 L103.648862,178.196621 C110.739106,167.871657 117.96065,157.546694 124.656992,148.005904 L122.608699,131.329129 L129.14748,141.784788 C144.220813,120.5598 155.775285,104.745615 155.775285,104.745615 C41.3072358,109.346105 55.8553659,220.25451 65.6504065,237.218817 C71.6902439,226.031262 82.693252,208.936259 95.0092683,190.717273 L91.1490244,158.409286 Z" fill="url(#linearGradient-13)"></path>
                        <path d="M262.181463,129.081162 L255.695203,149.39128 C255.297518,149.522848 254.879919,149.584757 254.460976,149.574254 C244.097,143.29474 232.956875,138.382987 221.32065,134.96247 L219.902602,114.207986 L207.455285,128.5061 L206.221057,128.715213 C183.899919,116.272979 159.635528,102.576066 159.635528,102.576066 C261.104797,59.4203322 301.046504,153.521265 299.129512,176.837385 C298.715853,176.936606 298.293923,176.997854 297.869024,177.020359 C288.441626,170.093485 287.076098,167.636405 268.799024,156.893216 L262.181463,129.081162 Z" fill="#FFFFFF"></path>
                        <path d="M261.209837,129.211857 L254.723577,149.521976 C243.951136,143.231733 232.393662,138.380453 220.349024,135.093166 L218.930976,114.338682 L206.378618,128.636796 C183.821138,116.090005 158.532602,102.785179 158.532602,102.785179 C262.706667,58.3486272 299.602195,157.67739 298.026585,177.020359 C288.41431,169.65089 278.277537,162.985335 267.696098,157.076189 L261.209837,129.211857 Z" fill="url(#linearGradient-14)"></path>
                    </g>
                    <path d="M0,132.6448 C240,71.6946784 480,41.219617 720,41.219617 C960,41.219617 1200,71.6946784 1440,132.6448 L0,132.6448 Z" id="Path" fill="#FFFFFF" fill-rule="nonzero" transform="translate(720.000000, 86.932208) scale(-1, 1) rotate(-180.000000) translate(-720.000000, -86.932208) "></path>
                </g>
            </g>
        </g>
    </g>
</svg>