<?xml version="1.0" encoding="UTF-8"?>
<svg width="320px" height="32px" viewBox="0 0 320 32" version="1.1" xmlns="http://www.w3.org/2000/svg" xmlns:xlink="http://www.w3.org/1999/xlink">
    <title>waves-zoomed</title>
    <defs>
        <rect id="path-1" x="0" y="0" width="320" height="32"></rect>
        <linearGradient x1="50%" y1="0%" x2="50%" y2="100%" id="linearGradient-3">
            <stop stop-color="#89D6CF" offset="0%"></stop>
            <stop stop-color="#32B9BE" offset="100%"></stop>
        </linearGradient>
        <linearGradient x1="50%" y1="0%" x2="50%" y2="163.157657%" id="linearGradient-4">
            <stop stop-color="#89D6CF" offset="0%"></stop>
            <stop stop-color="#32B9BE" offset="100%"></stop>
        </linearGradient>
    </defs>
    <g id="Maquettes" stroke="none" stroke-width="1" fill="none" fill-rule="evenodd">
        <g id="Landing-page---Mobile" transform="translate(0.000000, -2021.000000)">
            <g id="waves-zoomed" transform="translate(0.000000, 2021.000000)">
                <mask id="mask-2" fill="white">
                    <use xlink:href="#path-1"></use>
                </mask>
                <g id="Mask"></g>
                <g id="wave1" mask="url(#mask-2)" fill="url(#linearGradient-3)" fill-rule="nonzero">
                    <g transform="translate(-276.000000, 0.000000)" id="Path">
                        <path d="M758.842792,17.6220411 C735.131684,16.6178167 712.119431,-4.54528394 666.406912,6.94750707 C608.28974,21.5769498 602.461799,15.0308941 563.151279,5.17461698 C519.360608,-5.80986288 487.999548,17.3988801 459.571178,16.3326665 C430.256762,15.3780334 403.088825,-9.41763223 358.873849,5.03824082 C308.044723,21.6761324 301.468011,19.9156402 247.207013,4.75309067 C214.647919,-4.34691861 194.418601,18.1055566 127.091535,15.7127749 C103.380428,14.6961526 80.3681744,-6.45455019 34.6306963,5.03824082 C26.6937151,7.02189407 19.65526,8.64601017 13.1159862,9.99737394 C12.0801852,15.7251727 10.8447117,21.4777671 9.28477046,27.3543399 C5.76554294,39.206668 2.67061946,51.0052723 0,62.7501525 L884,62.7501525 C880.55565,43.4839204 876.512282,24.3168708 872.05709,5.17461698 C843.191936,0.698999341 821.290361,19.8412532 758.842792,17.6220411 Z"></path>
                    </g>
                </g>
                <path d="M13.7712647,17.9502819 C48.7539021,2.13001942 70.1557762,29.1852617 93.2979769,30.3471432 C115.787555,31.467529 140.545774,6.10323943 175.134766,18.105891 C206.191309,28.8844173 210.790744,35.990568 256.671141,20.0458183 C292.793278,7.48297379 310.983835,30.6376136 329.702705,31.6750079 C382.8759,34.3203632 398.839253,9.79636299 424.63338,19.7346 C435.893708,24.1020298 444.574623,27.4528133 451.971011,29.6832109 C453.69062,46.8624598 455.928183,63.9483433 458,81.0238527 L458,81.0238527 L428,81.023 L428,917 L-257,917 L-257,81.023 L-282.167138,81.0238527 C-282.927617,64.4060172 -283.972558,47.8249391 -285.673329,31.0557492 L-286,27.9092667 C-274.87434,27.5980485 -261.676863,24.6829706 -242.315729,17.9502819 C-206.183233,5.39781133 -188.003035,28.5628251 -169.284165,29.6002194 C-116.11097,32.2352008 -100.147617,7.71120053 -74.4260035,17.6494375 C-31.6015372,34.185502 -26.3805572,36.1358032 13.7712647,17.9502819 Z" id="Combined-Shape" fill="url(#linearGradient-4)" fill-rule="nonzero" mask="url(#mask-2)"></path>
            </g>
        </g>
    </g>
</svg>