<?xml version="1.0" encoding="UTF-8"?>
<svg width="1440px" height="85px" viewBox="0 0 1440 85" version="1.1" xmlns="http://www.w3.org/2000/svg" xmlns:xlink="http://www.w3.org/1999/xlink">
    <title>wave1 + Combined Shape Mask</title>
    <defs>
        <rect id="path-1" x="0" y="0" width="1440" height="85"></rect>
        <linearGradient x1="50%" y1="0%" x2="50%" y2="100%" id="linearGradient-3">
            <stop stop-color="#89D6CF" offset="0%"></stop>
            <stop stop-color="#32B9BE" offset="100%"></stop>
        </linearGradient>
        <linearGradient x1="50%" y1="0%" x2="50%" y2="163.157657%" id="linearGradient-4">
            <stop stop-color="#89D6CF" offset="0%"></stop>
            <stop stop-color="#32B9BE" offset="100%"></stop>
        </linearGradient>
    </defs>
    <g id="Maquettes" stroke="none" stroke-width="1" fill="none" fill-rule="evenodd">
        <g id="Landing-page" transform="translate(0.000000, -2247.000000)">
            <g id="wave1-+-Combined-Shape-Mask" transform="translate(0.000000, 2247.000000)">
                <mask id="mask-2" fill="white">
                    <use xlink:href="#path-1"></use>
                </mask>
                <g id="Mask"></g>
                <g id="wave1" mask="url(#mask-2)" fill="url(#linearGradient-3)" fill-rule="nonzero">
                    <g transform="translate(-39.000000, 0.000000)" id="Path">
                        <path d="M1594.08491,36.6051774 C1544.2755,34.4910875 1495.93414,-10.0613997 1399.90683,14.1331847 C1277.82132,44.9310376 1265.57869,31.1503034 1182.99992,10.4009026 C1091.00978,-12.723587 1025.13027,36.1353796 965.411401,33.8907903 C903.83123,31.8810999 846.760122,-20.3186507 753.878663,10.1138039 C647.102998,45.1398366 633.287439,41.4336543 519.302516,9.5135068 C450.906319,-9.64380169 408.41102,37.6230725 266.978486,32.5857966 C217.169067,30.4456068 168.827715,-14.0807805 72.7479671,10.1138039 C56.0749195,14.289784 41.2893868,17.7088676 27.5524733,20.5537541 C25.3765882,32.6118965 22.7812553,44.7222386 19.5043198,57.0935795 C12.1115534,82.0450603 5.6101135,106.883442 0,131.608724 L1857,131.608724 C1849.76453,91.0495173 1841.27071,50.6991101 1831.91178,10.4009026 C1771.27537,0.978847567 1725.26719,41.2770551 1594.08491,36.6051774 Z"></path>
                    </g>
                </g>
                <path d="M568.567244,38.4051705 C642.153033,5.15200772 687.17176,62.0203675 735.851255,64.4625669 C783.157962,66.817545 835.236741,13.5034578 907.9945,38.7322508 C973.321772,61.3880122 982.996658,76.3246788 1079.50583,42.8098518 C1155.48855,16.4035697 1193.75229,65.0731168 1233.12733,67.2536521 C1344.97686,72.814017 1378.55569,21.2661633 1432.81349,42.1556912 C1456.49953,51.3357447 1474.75979,58.3788736 1490.31805,63.0670244 C1493.93524,99.1766884 1498.64194,135.090104 1503,170.981715 L1503,170.981715 L1440,170.981 L1440,1020 L0,1020 L0,170.981 L-53.9375949,170.981715 C-55.5742873,135.243549 -57.8373682,99.5862641 -61.563519,63.5036089 L-62,59.3383091 C-38.5972348,58.6841485 -10.8364127,52.5568444 29.8896284,38.4051705 C105.89414,12.0206938 144.136088,60.7120463 183.511132,62.8925816 C295.360661,68.4311411 328.939488,16.8832875 383.044764,37.7728153 C473.125799,72.5305474 484.108102,76.6299537 568.567244,38.4051705 Z" id="Combined-Shape" fill="url(#linearGradient-4)" fill-rule="nonzero" mask="url(#mask-2)"></path>
            </g>
        </g>
    </g>
</svg>