<?xml version="1.0" encoding="UTF-8"?>
<svg width="137px" height="82px" viewBox="0 0 137 82" version="1.1" xmlns="http://www.w3.org/2000/svg" xmlns:xlink="http://www.w3.org/1999/xlink">
    <title>ybq-logo</title>
    <g id="Maquettes" stroke="none" stroke-width="1" fill="none" fill-rule="evenodd">
        <g id="Landing-page" transform="translate(-366.000000, -5616.000000)" fill-rule="nonzero">
            <g id="Group-4" transform="translate(366.000000, 5616.000000)">
                <g id="ybq-logo" transform="translate(0.000000, -0.000000)">
                    <polygon id="Path" fill="#000000" points="18.8063636 73.8481283 28.3304278 73.8481283 28.3304278 56.1406952 47.1734225 35.3855615 40.2941176 28.5062567 23.5830481 46.9243316 6.88663102 28.5062567 0 35.3928877 18.8063636 56.1406952"></polygon>
                    <path d="M95.3871658,73.8481283 L87.4748663,65.9358289 C94.9172518,56.8191044 94.2872111,43.557555 86.0140473,35.1874578 C77.7408835,26.8173606 64.4875724,26.0328926 55.2847777,33.3685818 C46.081983,40.704271 43.8919113,53.798897 50.206854,63.7299225 C56.5217966,73.6609479 69.3090921,77.2317624 79.855615,72.0092513 L88.5371658,80.6834759 L95.3871658,73.8481283 Z M56.2139572,51.3640107 C56.2180045,43.9676496 62.2172204,37.9749949 69.6135815,37.9790394 C77.0099427,37.983088 83.0025979,43.9823033 82.9985542,51.3786644 C82.9945064,58.7750256 76.9952916,64.7676814 69.5989305,64.7636384 C62.2059192,64.7515178 56.2179872,58.7570308 56.2139572,51.3640107 Z" id="Shape" fill="#000000"></path>
                    <path d="M121.724866,73.8408021 L99.0136364,73.8408021 L99.0136364,28.9604813 L119.24861,28.9604813 C128.435668,28.9604813 133.901016,33.3562032 133.901016,40.7922995 C133.901016,44.777754 132.296578,47.913369 129.234225,49.9427273 C133.805651,51.5712186 136.809973,55.9564651 136.677647,60.8074866 C136.677647,68.3534759 130.406417,73.8408021 121.724866,73.8408021 Z M108.640267,65.254492 L120.552674,65.254492 C126.208503,65.254492 126.823904,61.6353476 126.823904,60.0821925 C126.823904,58.1407487 125.937433,54.873262 120.03984,54.873262 L108.640267,54.873262 L108.640267,65.254492 Z M108.640267,46.7411765 L118.735775,46.7411765 C121.285294,46.7411765 124.267059,45.4810695 124.267059,41.9425134 C124.267059,38.4039572 121.072834,37.5467914 118.406096,37.5467914 L108.640267,37.5467914 L108.640267,46.7411765 Z" id="Shape" fill="#000000"></path>
                    <path d="M23.5830481,-2.01708072e-06 C29.0033565,-0.00296353701 33.8915943,3.25987084 35.9679103,8.26673249 C38.0442263,13.2735942 36.8996203,19.0382133 33.0679311,22.8719986 C29.2362419,26.7057839 23.4722496,27.8535424 18.4642532,25.7799649 C13.4562567,23.7063875 10.1907487,18.8199349 10.1907487,13.3996257 C10.1947857,6.00374953 16.1871753,0.00808182413 23.5830481,-2.01708072e-06" id="Path" fill="#0055FF"></path>
                </g>
            </g>
        </g>
    </g>
</svg>