<?xml version="1.0" encoding="utf-8"?>
<!-- Generator: Adobe Illustrator 18.0.0, SVG Export Plug-In . SVG Version: 6.00 Build 0)  -->
<!DOCTYPE svg PUBLIC "-//W3C//DTD SVG 1.1//EN" "http://www.w3.org/Graphics/SVG/1.1/DTD/svg11.dtd">
<svg version="1.1" id="Calque_1" xmlns="http://www.w3.org/2000/svg" xmlns:xlink="http://www.w3.org/1999/xlink" x="0px" y="0px"
	 width="112px" height="112px" viewBox="0 0 112 112" enable-background="new 0 0 112 112" xml:space="preserve">
<g>
	<g>
		<path d="M75,83.3c10-9.2,20.3-23.2,20.3-41.6C95.4,19.5,78.1,2,56,2C33.9,2,16.6,19.5,16.6,41.8C16.6,60.1,27,74.1,37,83.3
			C24.6,84.4,2,87.5,2,96.3C2,107.1,37.3,110,56,110c18.7,0,54-2.9,54-13.7C110,87.5,86.8,84.4,75,83.3z M21.1,41.8
			C21.1,22,36.4,6.5,56,6.5c19.6,0,34.9,15.5,34.9,35.3c0,28.7-29,46.6-34.9,50C50.1,88.4,21.1,70.6,21.1,41.8z M56,105.5
			c-32,0-49.5-6.1-49.5-9.2c0-2.1,10.1-7,33.6-8.7c0.5,0,0.8-0.2,1.2-0.5c7.1,5.7,13.1,8.9,13.7,9.2c0.3,0.2,0.7,0.2,1,0.2
			c0.3,0,0.7-0.1,1-0.2c0.6-0.3,6.4-3.3,13.3-8.9c0.1,0,0.2,0.1,0.4,0.1c24.3,1.6,34.8,6.6,34.8,8.8C105.5,99.4,88,105.5,56,105.5z
			 M56,53.2c9.4,0,17.1-7.7,17.1-17.1c0-9.4-7.7-17.1-17.1-17.1c-9.4,0-17.1,7.7-17.1,17.1C38.9,45.5,46.6,53.2,56,53.2z M56,23.4
			c6.9,0,12.6,5.7,12.6,12.6c0,7-5.7,12.6-12.6,12.6S43.4,43,43.4,36C43.4,29.1,49.1,23.4,56,23.4z"/>
	</g>
</g>
</svg>
