<?xml version="1.0" encoding="utf-8"?>
<!-- Generator: Adobe Illustrator 19.2.1, SVG Export Plug-In . SVG Version: 6.00 Build 0)  -->
<svg version="1.1" id="Calque_1" xmlns="http://www.w3.org/2000/svg" xmlns:xlink="http://www.w3.org/1999/xlink" x="0px" y="0px"
	 width="100px" height="63px" viewBox="0 0 100 63" style="enable-background:new 0 0 100 63;" xml:space="preserve">
<style type="text/css">
	.st0{fill:#0073A5;}
	.st1{fill:#FFFFFF;}
</style>
<g>
	<path class="st0" d="M99.6,59.5c0,1.8-1.5,3.3-3.3,3.3H4.8c-1.8,0-3.3-1.5-3.3-3.3V4.8C1.6,3,3,1.5,4.8,1.5h91.5
		c1.8,0,3.3,1.5,3.3,3.3V59.5z"/>
	<g>
		<path class="st1" d="M32,30.7v-1l-0.5,1h-4.1l-0.5-1.1v1.1h-7.6l-0.9-2.1h-1.5L16,30.7h-3.9l-2.8,0l5.7-12.9h5.5l0.8,1.8v-1.8H28
			l1.5,3.1l1.5-3.1h21.3c0,0,1.1,0,1.9,0.5l0-0.5h5.4v0.7c0,0,1-0.7,2.4-0.7c1.4,0,9.5,0,9.5,0l0.8,1.9v-1.9h6.1l1.1,1.9v-1.9h5.8
			v12.9h-6l-1.4-2.3v2.2h-7.4l-1-2.3h-1.5l-1,2.3h-4.5c0,0-1.7,0-2.9-0.9c0,0.5,0,0.9,0,0.9h-8.9c0,0,0-2.6,0-3
			c0-0.4-0.3-0.4-0.3-0.4h-0.3v3.4H32z"/>
		<path class="st1" d="M27.5,33.5h11.7l1.7,1.9l1.7-1.9h9c0,0,0.8,0,1.7,0.5v-0.5c0,0,7,0,8,0c1,0,1.9,0.5,1.9,0.5v-0.5h10.3V34
			c0,0,0.7-0.5,1.7-0.5c1,0,6.7,0,6.7,0V34c0,0,0.8-0.5,1.7-0.5c0.9,0,6.9,0,6.9,0s0,9.2,0,10.4c0,1.8-1.8,2.6-3.8,2.6h-7v-0.4
			c0,0-0.7,0.4-1.7,0.4c-1,0-18.5,0-18.5,0s0-2.8,0-3.2c0-0.3-0.1-0.4-0.4-0.4h-0.3v3.5h-5.8V43c0,0-0.6,0.3-1.7,0.3
			c-1.1,0-2.1,0-2.1,0v3.2h-7.1l-1.6-2l-1.7,2H27.5V33.5z"/>
		<polygon class="st0" points="64.5,35.5 71.9,35.5 71.9,37.5 66.8,37.5 66.8,39.2 71.7,39.2 71.7,40.9 66.8,40.9 66.8,42.7 
			71.9,42.7 71.9,44.7 64.5,44.7 		"/>
		<path class="st0" d="M86.1,39.1c2.8,0.1,3,1.5,3,3c0,1.7-1.4,2.6-2.9,2.6h-4.7v-2h3.7c0.6,0,1.6,0,1.6-0.9c0-0.4-0.2-0.7-0.8-0.8
			c-0.3,0-1.4-0.1-1.6-0.1c-2.5-0.1-3.1-1.3-3.1-2.8c0-1.7,1.2-2.7,2.7-2.7h4.7v2h-3.5c-0.8,0-1.6-0.1-1.6,0.8c0,0.6,0.4,0.7,1,0.7
			C84.7,39,85.9,39.1,86.1,39.1z"/>
		<path class="st0" d="M77.6,39.1c2.8,0.1,3,1.5,3,3c0,1.7-1.4,2.6-2.9,2.6H73v-2h3.7c0.6,0,1.6,0,1.6-0.9c0-0.4-0.2-0.7-0.8-0.8
			c-0.3,0-1.4-0.1-1.6-0.1c-2.5-0.1-3.1-1.3-3.1-2.8c0-1.7,1.2-2.7,2.7-2.7h4.7v2h-3.5c-0.8,0-1.6-0.1-1.6,0.8c0,0.6,0.4,0.7,1,0.7
			C76.2,39,77.4,39.1,77.6,39.1z"/>
		<path class="st0" d="M50.9,35.5H43l-2.6,2.8l-2.5-2.9h-8.9v9.2h8.6l2.7-3l2.6,3.1h4.3v-3.1h3c1.2,0,3.3,0,3.3-3.3
			C53.6,36,52,35.5,50.9,35.5z M36.5,42.7h-5.2v-1.8h5v-1.7h-5v-1.7l5.5,0l2.2,2.5L36.5,42.7z M45.1,43.8L41.8,40l3.2-3.6V43.8z
			 M50.2,39.7h-2.8v-2.2h2.8c0.9,0,1.2,0.6,1.2,1.1C51.4,39.1,51.1,39.7,50.2,39.7z"/>
		<path class="st0" d="M61.8,40.5c1.2-0.6,1.6-1.4,1.6-2.5c0-2-1.6-2.5-2.7-2.5h-5.9v9.2H57v-3.2H60c0.8,0,1.1,0.8,1.1,1.6l0.1,1.7
			h2.2l-0.1-1.9C63.3,41.3,62.9,40.6,61.8,40.5z M59.8,39.6H57v-2.1h2.8c0.9,0,1.2,0.6,1.2,1.1C61.1,39.1,60.8,39.6,59.8,39.6z"/>
		<rect x="55.7" y="19.6" class="st0" width="2.3" height="9.2"/>
		<polygon class="st0" points="37.3,19.7 44.6,19.7 44.6,21.6 39.5,21.6 39.5,23.4 44.5,23.4 44.5,25.1 39.5,25.1 39.5,26.9 
			44.6,26.9 44.6,28.8 37.3,28.8 		"/>
		<path class="st0" d="M53,24.7c1.2-0.6,1.6-1.4,1.6-2.5c0-2-1.6-2.5-2.7-2.5h-5.9v9.2h2.3v-3.2h2.9c0.8,0,1.1,0.8,1.1,1.6l0.1,1.7
			h2.2l-0.1-1.9C54.4,25.5,54,24.8,53,24.7z M51,23.7h-2.8v-2.1H51c0.9,0,1.2,0.6,1.2,1.1C52.3,23.3,51.9,23.7,51,23.7z"/>
		<path class="st0" d="M32.1,19.7l-2.8,6.2l-2.8-6.2H23v8.8l-3.9-8.8h-3l-4,9.2h2.4l0.9-2h4.5l0.9,2h4.5V22l3,6.8h2l3.1-6.7v6.7h2.3
			v-9.2H32.1z M16.2,24.8l1.3-3.2l1.4,3.2H16.2z"/>
		<path class="st0" d="M81.2,19.7V26l-3.8-6.4h-3.3v8.6l-3.8-8.6h-3l-3.1,7.1c0,0-1.3,0-1.4,0c-0.5-0.1-1.4-0.5-1.4-2.1V24
			c0-2.2,1.2-2.3,2.7-2.3h1.4v-2h-2.9c-1,0-3.3,0.8-3.3,4.5c-0.1,2.5,1.1,4.6,3.6,4.6h3l0.9-2H71l0.9,2h4.4v-6.7l4.1,6.7h3.1v-9.2
			H81.2z M67.3,24.8l1.3-3.2l1.4,3.2H67.3z"/>
	</g>
</g>
</svg>
