<?xml version="1.0" encoding="utf-8"?>
<!-- Generator: Adobe Illustrator 19.2.1, SVG Export Plug-In . SVG Version: 6.00 Build 0)  -->
<svg version="1.1" id="Calque_1" xmlns="http://www.w3.org/2000/svg" xmlns:xlink="http://www.w3.org/1999/xlink" x="0px" y="0px"
	 width="100px" height="100px" viewBox="0 0 100 100" style="enable-background:new 0 0 100 100;" xml:space="preserve">
<style type="text/css">
	.st0{fill:#FFFFFF;}
</style>
<title>icon-night</title>
<path class="st0" d="M70.1,99C43,98.9,21.2,76.9,21.3,49.8C21.4,22.8,43.4,0.9,70.4,1c1.8,0,3.6,0.1,5.4,0.3
	c1.5,0.2,2.6,1.3,2.9,2.7c0.2,1.4-0.5,2.9-1.8,3.5c-16,8.1-26,24.6-25.7,42.5c-0.3,17.9,9.7,34.4,25.7,42.5c1.3,0.6,2.1,2,1.8,3.5
	c-0.3,1.4-1.4,2.5-2.9,2.7C73.9,98.9,72,99,70.1,99z M64,7.9C40.8,10.9,24.4,32,27.3,55.3C29.7,74.5,44.8,89.6,64,92
	c-23.2-19.6-26.1-54.4-6.5-77.6C59.5,12.1,61.7,9.9,64,7.9z"/>
</svg>
