<?xml version="1.0" encoding="utf-8"?>
<!-- Generator: Adobe Illustrator 19.2.1, SVG Export Plug-In . SVG Version: 6.00 Build 0)  -->
<svg version="1.1" id="Calque_1" xmlns="http://www.w3.org/2000/svg" xmlns:xlink="http://www.w3.org/1999/xlink" x="0px" y="0px"
	 width="100px" height="100px" viewBox="0 0 100 100" style="enable-background:new 0 0 100 100;" xml:space="preserve">
<style type="text/css">
	.st0{fill:#FFFFFF;}
</style>
<title>icon-partly-cloudy</title>
<path class="st0" d="M8.3,43.3h-4c-1.8,0-3.3-1.5-3.3-3.3c0-1.8,1.5-3.3,3.3-3.3h4c1.8,0,3.3,1.5,3.3,3.3
	C11.5,41.9,10.1,43.3,8.3,43.3L8.3,43.3z M16.2,19.4c-0.9,0-1.7-0.3-2.3-1l-4-4c-1.3-1.3-1.3-3.4,0-4.7s3.4-1.3,4.7,0l4,4
	c1.3,1.2,1.3,3.3,0.1,4.6C18,19,17.1,19.4,16.2,19.4z M63.9,19.4c-1.8,0-3.3-1.4-3.3-3.2c0-0.9,0.3-1.7,1-2.3l4-4
	c1.3-1.3,3.4-1.3,4.7,0c1.3,1.3,1.3,3.4,0,4.7l0,0l-4,3.9C65.6,19,64.8,19.4,63.9,19.4L63.9,19.4z M40,11.6c-1.8,0-3.3-1.5-3.3-3.3
	l0,0v-4c0-1.8,1.5-3.3,3.3-3.3c1.8,0,3.3,1.5,3.3,3.3v4C43.3,10.1,41.8,11.6,40,11.6z M79.6,98.9H36c-12.8-0.2-23-10.6-22.9-23.4
	c0.1-10.8,7.7-20,18.2-22.3C33.9,39.5,47,30.6,60.6,33.2c7.7,1.5,14.3,6.4,17.7,13.5c8.4,0.4,14.8,7.4,14.5,15.8
	c0,1-0.2,1.9-0.4,2.9c8,7,8.8,19.1,1.8,27C90.6,96.6,85.3,99,79.6,98.9L79.6,98.9z M55.8,39.3c-9.7-0.1-17.7,7.4-18.4,17
	c-0.1,1.6-1.4,2.9-3,3.1c-9.1,1.2-15.5,9.5-14.4,18.6c1,8.1,7.8,14.3,15.9,14.5h43.7c7-0.1,12.6-5.8,12.5-12.8c0-4.2-2.1-8-5.5-10.3
	c-1.3-0.9-1.8-2.5-1.2-4c1.9-4.4-0.1-9.4-4.5-11.3c-1.4-0.6-3-0.8-4.5-0.6c-1.4,0.1-2.8-0.8-3.3-2.1C70.5,43.9,63.6,39.2,55.8,39.3z
	 M17.5,51c-1.4,0-2.7-1-3.1-2.3c-1-2.8-1.5-5.8-1.5-8.8c0.1-15,12.3-27,27.3-26.9c7.7,0.1,15,3.4,20.1,9.1c1.4,1.1,1.7,3.1,0.6,4.6
	c-1.1,1.4-3.1,1.7-4.6,0.6c-0.3-0.2-0.5-0.5-0.7-0.7l0,0c-7.4-8.6-20.4-9.6-29-2.2C22,28.2,19.4,34,19.4,40c0,2.3,0.4,4.6,1.1,6.8
	c0.6,1.7-0.3,3.5-2,4.1l0,0C18.2,51,17.8,51,17.5,51z"/>
</svg>
