<?xml version="1.0" encoding="utf-8"?>
<!-- Generator: Adobe Illustrator 18.0.0, SVG Export Plug-In . SVG Version: 6.00 Build 0)  -->
<!DOCTYPE svg PUBLIC "-//W3C//DTD SVG 1.1//EN" "http://www.w3.org/Graphics/SVG/1.1/DTD/svg11.dtd">
<svg version="1.1" id="Calque_1" xmlns="http://www.w3.org/2000/svg" xmlns:xlink="http://www.w3.org/1999/xlink" x="0px" y="0px"
	 width="124px" height="124px" viewBox="0 0 124 124" enable-background="new 0 0 124 124" xml:space="preserve">
<g>
	<g>
		<path fill="#FFFFFF" d="M119.3,69.8c-1.1-0.2-2.2,0.6-2.4,1.7c-4.6,26.8-27.7,46.3-54.9,46.3C31.3,117.9,6.2,92.8,6.2,62
			c0-30.8,25-55.9,55.8-55.9c2.8,0,5.5,0.2,8.1,0.6L51.4,17.4c-1,0.6-1.3,1.8-0.8,2.8l4,7.1l-9,15.3l-24.4,7.3c-0.5,0.2-1,0.5-1.2,1
			c-0.3,0.5-0.3,1.1-0.2,1.6l10.1,32.7c0.2,0.6,0.7,1.1,1.3,1.3l26.3,9.6v11.1c0,1.1,0.9,2.1,2.1,2.1c1.1,0,2.1-0.9,2.1-2.1V94.7
			c0-0.9-0.5-1.6-1.4-1.9l-26.7-9.7l-9.1-29.8l23.1-7c0.5-0.1,0.9-0.5,1.2-0.9l10.1-17c0.4-0.6,0.4-1.4,0-2.1L55.2,20L76.3,8
			c9.7,2.6,18.6,7.8,25.6,15l-8.7,9.9c-0.8,0.9-0.7,2.2,0.2,2.9c0.4,0.3,0.9,0.5,1.4,0.5c0.6,0,1.1-0.2,1.5-0.7l8.4-9.5
			c1.1,1.3,2.2,2.7,3.2,4.2c0.6,0.9,1.9,1.2,2.9,0.5c0.9-0.6,1.2-1.9,0.5-2.9c-1.6-2.3-3.3-4.5-5.2-6.5c0,0,0,0,0-0.1c0,0,0,0,0,0
			C98.2,12.8,87.9,6.7,76.7,3.8c0,0-0.1,0-0.1,0C71.8,2.6,67,2,62,2C29,2,2.1,28.9,2.1,62c0,33.1,26.9,60,59.9,60
			c29.2,0,54.1-20.9,59-49.8C121.2,71.1,120.5,70,119.3,69.8z M121.1,46.2c-1.9-4.2-6.7-6.1-10.9-4.4l-17.5,7L73.2,36.6
			c-0.6-0.4-1.4-0.4-2-0.1l-10.2,5.3c-0.6,0.3-1.1,1-1.1,1.7c0,0.7,0.3,1.4,0.9,1.8L76,55.5l-15.4,6.1L48.1,56
			c-0.6-0.3-1.3-0.2-1.9,0.1L36.1,62c-0.6,0.4-1,1-1,1.7c0,0.7,0.3,1.4,0.9,1.8L59,80.3c0.6,0.4,1.3,0.4,1.9,0.2l18.5-7.3l-8,20.8
			c-0.3,0.8-0.1,1.7,0.6,2.3c0.4,0.3,0.9,0.5,1.4,0.5c0.3,0,0.7-0.1,1-0.2l11.4-6c0.4-0.2,0.7-0.5,0.9-0.8l13.6-24.9l16.7-7.4
			c2.1-0.9,3.7-2.6,4.5-4.7C122.1,50.7,122.1,48.3,121.1,46.2z M65.9,43.8l6.1-3.1l16,10l-7.3,2.9L65.9,43.8z M117.5,51.3
			c-0.4,1.1-1.3,2-2.3,2.4l-17.4,7.7c-0.4,0.2-0.8,0.5-1,0.9L83.2,87.2l-6,3.1l7.7-20.1c0.3-0.8,0.1-1.6-0.5-2.2
			c-0.4-0.4-0.9-0.6-1.5-0.6c-0.3,0-0.5,0-0.8,0.1l-21.9,8.6L41.1,63.8l6.2-3.6l12.4,5.6c0.5,0.2,1.1,0.2,1.6,0l50.4-20.2
			c2.2-0.9,4.6,0.1,5.6,2.3C117.8,49,117.9,50.2,117.5,51.3z"/>
	</g>
</g>
</svg>
