<?xml version="1.0" encoding="utf-8"?>
<!-- Generator: Adobe Illustrator 19.2.1, SVG Export Plug-In . SVG Version: 6.00 Build 0)  -->
<svg version="1.1" id="Calque_1" xmlns="http://www.w3.org/2000/svg" xmlns:xlink="http://www.w3.org/1999/xlink" x="0px" y="0px"
	 width="100px" height="100px" viewBox="0 0 100 100" style="enable-background:new 0 0 100 100;" xml:space="preserve">
<style type="text/css">
	.st0{fill:#0054FF;}
</style>
<g>
	<path class="st0" d="M94.5,0.8H63.1c-2.5,0-4.5,2-4.5,4.5s2,4.5,4.5,4.5H84L39.3,54.5c-1.8,1.8-1.8,4.7,0,6.4
		c0.9,0.9,2.1,1.3,3.2,1.3s2.3-0.4,3.2-1.3l44.1-44.1v19.9c0,2.5,2,4.5,4.5,4.5s4.5-2,4.5-4.5V5.4C99,2.8,97,0.8,94.5,0.8z"/>
	<path class="st0" d="M78.7,46.6c-2.5,0-4.5,2-4.5,4.5v35.9c0,1.6-1.4,3-3,3h-58c-1.6,0-3-1.4-3-3v-58c0-1.6,1.4-3,3-3h36
		c2.5,0,4.5-2,4.5-4.5s-2-4.5-4.5-4.5h-36C6.4,16.9,1,22.4,1,29.1v58c0,6.7,5.4,12.1,12.1,12.1h58c6.7,0,12.1-5.4,12.1-12.1V51.2
		C83.3,48.7,81.2,46.6,78.7,46.6z"/>
</g>
</svg>
