<?xml version="1.0" encoding="utf-8"?>
<!-- Generator: Adobe Illustrator 18.0.0, SVG Export Plug-In . SVG Version: 6.00 Build 0)  -->
<!DOCTYPE svg PUBLIC "-//W3C//DTD SVG 1.1//EN" "http://www.w3.org/Graphics/SVG/1.1/DTD/svg11.dtd">
<svg version="1.1" id="Calque_1" xmlns="http://www.w3.org/2000/svg" xmlns:xlink="http://www.w3.org/1999/xlink" x="0px" y="0px"
	 width="112px" height="112px" viewBox="0 0 112 112" enable-background="new 0 0 112 112" xml:space="preserve">
<g>
	<g>
		<path d="M62.8,48.4H49.3c-1.2,0-2.2,1-2.2,2.2v31.5c0,1.2,1,2.2,2.2,2.2h13.5c1.2,0,2.2-1,2.2-2.2V50.6
			C65.1,49.4,64.1,48.4,62.8,48.4z M60.6,79.9h-9v-27h9V79.9z M56,42.7c5,0,9-4,9-9c0-5-4-9-9-9c-5,0-9,4-9,9
			C47,38.7,51,42.7,56,42.7z M56,29.2c2.5,0,4.5,2,4.5,4.5c0,2.5-2,4.5-4.5,4.5c-2.5,0-4.5-2-4.5-4.5C51.5,31.2,53.5,29.2,56,29.2z
			 M56,2C26.2,2,2,26.2,2,56s24.2,54,54,54s54-24.2,54-54S85.8,2,56,2z M56,105.5C28.7,105.5,6.5,83.3,6.5,56S28.7,6.5,56,6.5
			c27.3,0,49.5,22.2,49.5,49.5S83.3,105.5,56,105.5z"/>
	</g>
</g>
</svg>
