<?xml version="1.0" encoding="utf-8"?>
<!-- Generator: Adobe Illustrator 18.0.0, SVG Export Plug-In . SVG Version: 6.00 Build 0)  -->
<!DOCTYPE svg PUBLIC "-//W3C//DTD SVG 1.1//EN" "http://www.w3.org/Graphics/SVG/1.1/DTD/svg11.dtd">
<svg version="1.1" id="Calque_1" xmlns="http://www.w3.org/2000/svg" xmlns:xlink="http://www.w3.org/1999/xlink" x="0px" y="0px"
	 width="98px" height="77.2px" viewBox="0 0 98 77.2" enable-background="new 0 0 98 77.2" xml:space="preserve">
<polygon fill="#FFFFFF" points="0,75.4 2.8,55.6 8.4,55.6 5.6,75.4 "/>
<path fill="#FFFFFF" d="M21.3,75.4l-3.8-6.5c-0.2-0.3-0.4-0.7-0.6-1.1c-0.2-0.4-0.5-0.9-0.7-1.3c-0.2-0.4-0.4-0.9-0.6-1.3
	c-0.2-0.4-0.3-0.7-0.4-0.9c0,0.2,0,0.5,0,0.9c0,0.4-0.1,0.8-0.1,1.3c0,0.5-0.1,1-0.2,1.5c-0.1,0.5-0.1,1-0.2,1.4l-0.8,6.1H8.3
	l2.8-19.8H16l3.5,5.9c0.2,0.3,0.4,0.7,0.6,1.1c0.3,0.5,0.5,0.9,0.7,1.4c0.2,0.5,0.4,0.9,0.6,1.3c0.2,0.4,0.3,0.7,0.4,0.9
	c0-0.2,0-0.5,0-0.9c0-0.4,0.1-0.8,0.1-1.3c0-0.5,0.1-1,0.2-1.5c0.1-0.5,0.1-1,0.2-1.4l0.8-5.4h5.3l-2.8,19.8H21.3"/>
<path fill="#FFFFFF" d="M45.3,61.8c0,1-0.2,1.9-0.5,2.7c-0.3,0.8-0.8,1.4-1.4,2c-0.6,0.5-1.3,0.9-2.1,1.2c-0.8,0.3-1.7,0.4-2.6,0.4
	h-5.2v7.4h-2.9V55.6h8.3c0.9,0,1.7,0.1,2.5,0.4c0.8,0.3,1.5,0.7,2,1.2c0.6,0.5,1,1.2,1.3,1.9C45.1,59.9,45.3,60.8,45.3,61.8
	 M42.2,61.8c0-1.1-0.3-1.9-0.9-2.5c-0.6-0.6-1.4-0.9-2.5-0.9h-5.3v6.8h5.3c1.1,0,2-0.3,2.5-0.9C41.9,63.7,42.2,62.9,42.2,61.8"/>
<path fill="#FFFFFF" d="M58.8,75.4l-1.7-4.7h-7.9l-1.6,4.7h-3.1l7.1-19.8h3.1l7.2,19.8H58.8 M54.6,63.5c-0.1-0.4-0.2-0.8-0.4-1.2
	c-0.2-0.4-0.3-0.9-0.4-1.3c-0.1-0.4-0.3-0.8-0.4-1.2c-0.1-0.4-0.2-0.7-0.3-0.9c-0.1,0.2-0.1,0.5-0.3,0.9c-0.1,0.4-0.2,0.8-0.4,1.2
	c-0.1,0.4-0.3,0.9-0.4,1.3c-0.1,0.5-0.3,0.9-0.4,1.2L50.1,68h6.1L54.6,63.5z"/>
<path fill="#FFFFFF" d="M79.5,61.5c0,1.6-0.4,2.9-1.2,3.8c-0.8,1-1.8,1.6-3.2,2l4,8.1h-3.4l-3.9-7.8h-4.5v7.8h-2.9V55.6h8.7
	c0.9,0,1.7,0.1,2.5,0.4c0.8,0.2,1.4,0.6,2,1.1c0.6,0.5,1.1,1.1,1.4,1.8C79.3,59.6,79.5,60.5,79.5,61.5 M76.5,61.6
	c0-1-0.3-1.8-0.9-2.4c-0.6-0.5-1.4-0.8-2.4-0.8h-5.8v6.4h5.8c1,0,1.8-0.3,2.4-0.8C76.2,63.5,76.5,62.7,76.5,61.6"/>
<path fill="#FFFFFF" d="M98,65.5c0,1.8-0.3,3.3-0.8,4.7c-0.5,1.4-1.3,2.5-2.2,3.4l1.3,2.1l-2.4,1.5l-1.3-2c-0.9,0.4-1.9,0.5-2.9,0.5
	c-1.3,0-2.4-0.3-3.5-0.7c-1-0.5-1.9-1.2-2.6-2.1c-0.7-0.9-1.3-2-1.7-3.2c-0.4-1.2-0.6-2.6-0.6-4.1c0-1.5,0.2-2.9,0.6-4.1
	c0.4-1.3,1-2.3,1.7-3.2c0.7-0.9,1.6-1.6,2.6-2.1c1-0.5,2.2-0.8,3.5-0.8c1.3,0,2.4,0.2,3.5,0.8c1,0.5,1.9,1.2,2.6,2.1
	c0.7,0.9,1.3,2,1.7,3.2C97.8,62.6,98,64,98,65.5 M95,65.5c0-2.2-0.5-4-1.4-5.3c-0.9-1.3-2.3-2-4-2c-1.7,0-3.1,0.7-4,2
	c-0.9,1.3-1.4,3.1-1.4,5.3c0,1.1,0.1,2.1,0.4,3c0.2,0.9,0.6,1.7,1,2.3c0.5,0.6,1,1.1,1.7,1.5c0.7,0.3,1.4,0.5,2.3,0.5
	c0.3,0,0.5,0,0.7,0c0.2,0,0.4-0.1,0.6-0.1l-1.4-2.2l2.4-1.5l1.4,2.3c0.6-0.6,1-1.4,1.2-2.4C94.8,67.8,95,66.7,95,65.5"/>
<path fill="#FFFFFF" d="M50.3,20.3c0,1.3-0.2,2.3-0.6,3.2c-0.4,0.9-1,1.6-1.7,2.1c-0.7,0.5-1.6,0.9-2.6,1.2c-1,0.2-2.1,0.4-3.3,0.4
	h-2.7v6.4H34V13.7h8.5c1.1,0,2.2,0.1,3.2,0.4c1,0.2,1.8,0.6,2.4,1.1c0.7,0.5,1.2,1.2,1.6,2C50.1,18.1,50.3,19.1,50.3,20.3
	 M44.8,20.3c0-0.7-0.2-1.2-0.5-1.6c-0.4-0.4-1-0.6-1.9-0.6h-3v4.4h2.9c0.9,0,1.6-0.2,1.9-0.6C44.6,21.7,44.8,21.1,44.8,20.3"/>
<path fill="#FFFFFF" d="M55.7,33.5V19.9h-3.3v-3.5c0.6,0,1.2-0.1,1.6-0.2c0.5-0.1,0.8-0.3,1.2-0.5c0.3-0.2,0.6-0.5,0.8-0.8
	c0.2-0.3,0.4-0.7,0.5-1.2h4.6v19.8H55.7"/>
<path fill="#FFFFFF" d="M65.4,47.1H29.3c-3,0-5.5-2.5-5.5-5.5V5.5c0-3,2.5-5.5,5.5-5.5h36.1c3,0,5.5,2.5,5.5,5.5v36.1
	C70.9,44.6,68.4,47.1,65.4,47.1 M29.3,2.9c-1.4,0-2.5,1.1-2.5,2.5v36.1c0,1.4,1.1,2.5,2.5,2.5h36.1c1.4,0,2.5-1.1,2.5-2.5V5.5
	c0-1.4-1.1-2.5-2.5-2.5H29.3z"/>
</svg>
