<?xml version="1.0" encoding="utf-8"?>
<!-- Generator: Adobe Illustrator 20.0.0, SVG Export Plug-In . SVG Version: 6.00 Build 0)  -->
<svg version="1.1" id="Calque_1" xmlns="http://www.w3.org/2000/svg" xmlns:xlink="http://www.w3.org/1999/xlink" x="0px" y="0px"
	 width="102px" height="102px" viewBox="0 0 102 102" style="enable-background:new 0 0 102 102;" xml:space="preserve">
<style type="text/css">
	.st0{fill:#0EADFF;}
</style>
<path class="st0" d="M51,1c-7.6,0-16.8,1.8-17.9,2c0,0-0.2,0-0.3,0c-0.1,0-0.3,0-0.4,0.1c-0.1,0-0.1,0-0.2,0.1
	c-1.1,0.2-1.8,1.3-1.5,2.4c0.1,0.5,0.4,0.9,0.8,1.2c0.4,1.1,1.8,4.6,2.4,8.1c-3.5,1.1-8.7,2.9-9.1,3c-0.2,0-0.3,0.1-0.5,0.2
	c-0.1,0-0.1,0.1-0.2,0.1c-0.6,0.3-9.6,4.9-13.3,15.9c-0.7,2.2-3.2,8.9-5.4,15.6c-1.1,3.3-2.3,6.6-3.1,9.4S1,63.6,1,65.3V97
	c0,1.1,0.9,2,2,2h14c1.1,0,2-0.9,2-2V67c0,0.2,0.1-0.2,0.3-0.8s0.5-1.4,0.9-2.3c0.7-1.7,1.7-3.9,2.7-6c0.1-0.2,0.1-0.2,0.2-0.4V89
	c0,1.1,0.9,2,2,2h52c1.1,0,2-0.9,2-2V57.6c0.1,0.2,0.1,0.2,0.2,0.4c1,2.1,2,4.3,2.7,6c0.4,0.9,0.7,1.7,0.9,2.3S83,67.2,83,67v30
	c0,1.1,0.9,2,2,2h14c1.1,0,2-0.9,2-2V65.3c0-1.7-0.6-3.6-1.4-6.4s-1.9-6-3.1-9.4c-2.3-6.7-4.7-13.4-5.4-15.6
	c-3.5-10.4-11.6-15-12.9-15.7c-0.1,0-0.1-0.1-0.2-0.1c0,0-0.3-0.2-0.3-0.2c-0.2-0.1-0.4-0.2-0.6-0.2c-0.4-0.2-5.9-2-9.2-3.1
	c0.3-3.7,1.1-9.4,1.1-9.4c0,0,0,0,0-0.1c0,0,0-0.1,0-0.1c0,0,0,0,0-0.1c0,0,0-0.1,0-0.1c0,0,0,0,0-0.1c0-0.1,0-0.1,0-0.2
	c0,0,0,0,0-0.1c0,0,0-0.1-0.1-0.1c0,0,0,0,0-0.1c0,0,0-0.1-0.1-0.1c0,0,0,0,0-0.1c0,0,0-0.1-0.1-0.1c0,0,0,0-0.1-0.1
	c0,0,0-0.1-0.1-0.1c0,0,0-0.1-0.1-0.1c0,0,0,0-0.1-0.1c0,0,0-0.1-0.1-0.1c0,0,0,0-0.1,0c0,0-0.1-0.1-0.1-0.1c0,0,0,0-0.1-0.1
	c0,0,0,0-0.1-0.1c0,0,0,0-0.1-0.1c0,0-0.1,0-0.1-0.1c0,0,0,0-0.1,0c0,0-0.1,0-0.1-0.1c0,0,0,0-0.1-0.1c0,0-0.1,0-0.1,0
	c0,0-0.1,0-0.1-0.1c0,0-0.1,0-0.1,0c-0.1,0-0.1,0-0.2-0.1c0,0-0.1,0-0.2,0C65.9,2.7,58.5,1,51,1z M51,5c4,0,8,0.5,11,1.1l-4.8,3.3
	c-0.4,0.2-0.6,0.6-0.8,1c0,0-2.7,9-5.5,21.6c-2.9-12.7-5.5-21.6-5.5-21.6c-0.1-0.5-0.5-0.9-0.9-1.1L39,6.1C42.6,5.6,47.1,5,51,5z
	 M64.5,9.1c-0.3,2.5-0.7,4.4-0.8,6.9c0,0.9,0.6,1.7,1.4,2c2,0.6,7.5,2.5,9.4,3.1c-0.6,2.6-3.4,15.7,0.3,27.5c0,0.3,0,0.6,0.1,0.8V87
	H27V49.4c0,0,0-0.1,0-0.1c0,0,0,0,0.1-0.1c0-0.1,0-0.1,0.1-0.2c2.7-5.3,2.6-12.3,2-18.3c-0.6-5.3-1.4-8.2-1.8-9.6
	c1.8-0.6,7-2.3,9.4-3.1c0.9-0.3,1.5-1.1,1.4-2c-0.1-2.3-0.8-4.5-1.5-6.6l5.1,2.9c0.3,0.9,3.8,11.4,7.2,28.9c0.3,1.1,1.4,1.7,2.5,1.4
	c0.7-0.2,1.2-0.8,1.4-1.5c3.3-17.5,6.8-28.1,7.1-28.9L64.5,9.1z M23.9,22.9c0.4,2,0.9,4.7,1.3,8.3c0.6,5.8,0.4,12.7-1.8,16.6
	c-0.1,0.1-0.1,0.2-0.2,0.4c-0.1,0.1-0.1,0.2-0.1,0.3c-0.2,0.4-2,3.9-3.9,7.9c-1,2.1-2,4.3-2.8,6.1c-0.4,0.9-0.7,1.8-0.9,2.5
	S15,66.1,15,67v28H5V65.3c0-0.3,0.5-2.5,1.3-5.2s1.8-6,2.9-9.3c2.2-6.6,4.7-13.2,5.5-15.6C16.9,28.6,21.3,24.7,23.9,22.9z M78.3,23
	c2.6,1.9,6.9,5.7,9.1,12.2c0.8,2.4,3.3,9,5.5,15.6c1.1,3.3,2.2,6.6,2.9,9.3S97,65,97,65.3V95H87V67c0-0.9-0.2-1.4-0.4-2.1
	c-0.2-0.7-0.6-1.6-0.9-2.5c-0.8-1.9-1.8-4-2.8-6.1c-1.9-4-3.7-7.6-3.9-7.9C75.8,39.8,77.3,28.2,78.3,23z"/>
</svg>
