<?xml version="1.0" encoding="utf-8"?>
<!-- Generator: Adobe Illustrator 18.0.0, SVG Export Plug-In . SVG Version: 6.00 Build 0)  -->
<!DOCTYPE svg PUBLIC "-//W3C//DTD SVG 1.1//EN" "http://www.w3.org/Graphics/SVG/1.1/DTD/svg11.dtd">
<svg version="1.1" id="Calque_1" xmlns="http://www.w3.org/2000/svg" xmlns:xlink="http://www.w3.org/1999/xlink" x="0px" y="0px"
	 width="82px" height="135px" viewBox="0 0 82 135" enable-background="new 0 0 82 135" xml:space="preserve">
<g>
	<g>
		<path fill="#FFFFFF" d="M68.3,32.6H55.6V6.9h5.2c1.2,0,2.2-1,2.2-2.2s-1-2.2-2.2-2.2H21.1c-1.2,0-2.2,1-2.2,2.2s1,2.2,2.2,2.2h5.3
			v25.7H13.7C7,32.6,1.5,38.1,1.5,44.9v70.3c0,6.8,5.4,12.3,12.1,12.3h2.8v2.8c0,1.2,1,2.2,2.2,2.2c1.2,0,2.2-1,2.2-2.2v-2.8h40.4
			v2.8c0,1.2,1,2.2,2.2,2.2s2.2-1,2.2-2.2v-2.8h2.8c6.7,0,12.1-5.5,12.1-12.3V44.9C80.5,38.1,75,32.6,68.3,32.6z M30.7,6.9h20.5
			v25.7H30.7V6.9z M76.1,115.2c0,4.3-3.5,7.8-7.7,7.8H13.7c-4.3,0-7.7-3.5-7.7-7.8V44.9c0-4.3,3.5-7.8,7.7-7.8h54.7
			c4.3,0,7.7,3.5,7.7,7.8V115.2z M63.4,47.7H18.6c-1.2,0-2.2,1-2.2,2.2c0,1.2,1,2.2,2.2,2.2h2.8V55c0,1.2,1,2.2,2.2,2.2
			c1.2,0,2.2-1,2.2-2.2v-2.8h37.6c1.2,0,2.2-1,2.2-2.2C65.6,48.7,64.6,47.7,63.4,47.7z M63.4,87.9H18.6c-1.2,0-2.2,1-2.2,2.2v15.1
			c0,4,3.2,7.2,7.2,7.2h34.8c3.9,0,7.2-3.3,7.2-7.2V90.1C65.6,88.9,64.6,87.9,63.4,87.9z M61.2,105.2c0,1.5-1.2,2.8-2.8,2.8H23.6
			c-1.5,0-2.8-1.3-2.8-2.8V92.3h40.4V105.2z"/>
	</g>
</g>
</svg>
