<?xml version="1.0" encoding="utf-8"?>
<!-- Generator: Adobe Illustrator 20.0.0, SVG Export Plug-In . SVG Version: 6.00 Build 0)  -->
<svg version="1.1" id="Calque_1" xmlns="http://www.w3.org/2000/svg" xmlns:xlink="http://www.w3.org/1999/xlink" x="0px" y="0px"
	 width="64.8px" height="100.8px" viewBox="0 0 64.8 100.8" style="enable-background:new 0 0 64.8 100.8;" xml:space="preserve">
<style type="text/css">
	.st0{fill:#FFFFFF;}
</style>
<path class="st0" d="M32.4,2.4c-17.7,0-32,14.3-32,32c0,14.6,7.7,30.3,15.3,42.5s15.2,20.8,15.2,20.8c0.7,0.8,2,0.9,2.8,0.2
	c0.1-0.1,0.1-0.1,0.2-0.2c0,0,7.6-8.8,15.2-21.1s15.3-27.9,15.3-42.3C64.4,16.7,50.1,2.4,32.4,2.4z M32.4,6.4c15.5,0,28,12.5,28,28
	c0,12.9-7.3,28.2-14.7,40.1c-6.2,10-11.5,16.5-13.3,18.7c-1.9-2.2-7.1-8.5-13.3-18.4C11.7,62.9,4.4,47.6,4.4,34.4
	C4.4,18.9,16.9,6.4,32.4,6.4z M32.4,22.4c-7.7,0-14,6.3-14,14s6.3,14,14,14s14-6.3,14-14S40.1,22.4,32.4,22.4z M32.4,26.4
	c5.5,0,10,4.5,10,10s-4.5,10-10,10s-10-4.5-10-10S26.9,26.4,32.4,26.4z"/>
</svg>
