<?xml version="1.0" encoding="utf-8"?>
<!-- Generator: Adobe Illustrator 19.1.0, SVG Export Plug-In . SVG Version: 6.00 Build 0)  -->
<svg version="1.1" id="Calque_1" xmlns="http://www.w3.org/2000/svg" xmlns:xlink="http://www.w3.org/1999/xlink" x="0px" y="0px"
	 width="390px" height="660px" viewBox="0 0 390 660" style="enable-background:new 0 0 390 660;" xml:space="preserve">
<style type="text/css">
	.st0{fill:#FFFFFF;}
</style>
<path class="st0" d="M315,19.5c30.6,0,55.5,24.9,55.5,55.5v510c0,30.6-24.9,55.5-55.5,55.5H75c-30.6,0-55.5-24.9-55.5-55.5V75
	c0-30.6,24.9-55.5,55.5-55.5H315 M315,0H75C33.8,0,0,33.8,0,75v510c0,41.2,33.8,75,75,75h240c41.2,0,75-33.8,75-75V75
	C390,33.8,356.2,0,315,0L315,0z"/>
<path class="st0" d="M310.5,103.9v446.6h-231V103.9H310.5 M315,84.4H75c-8.2,0-15,6.7-15,15V555c0,8.3,6.8,15,15,15h240
	c8.2,0,15-6.7,15-15V99.4C330,91.1,323.2,84.4,315,84.4L315,84.4z"/>
<path class="st0" d="M195,581.2c-12.4,0-22.5,10.1-22.5,22.5s10.1,22.5,22.5,22.5s22.5-10.1,22.5-22.5S207.4,581.2,195,581.2
	L195,581.2z"/>
<path class="st0" d="M231.1,63.2h-72.2c-5.4,0-9.8-4.4-9.8-9.8s4.4-9.8,9.8-9.8h72.2c5.4,0,9.8,4.4,9.8,9.8S236.5,63.2,231.1,63.2z"
	/>
</svg>
