<?xml version="1.0" encoding="utf-8"?>
<!-- Generator: Adobe Illustrator 18.0.0, SVG Export Plug-In . SVG Version: 6.00 Build 0)  -->
<!DOCTYPE svg PUBLIC "-//W3C//DTD SVG 1.1//EN" "http://www.w3.org/Graphics/SVG/1.1/DTD/svg11.dtd">
<svg version="1.1" id="Calque_1" xmlns="http://www.w3.org/2000/svg" xmlns:xlink="http://www.w3.org/1999/xlink" x="0px" y="0px"
	 width="98px" height="98px" viewBox="0 0 98 98" enable-background="new 0 0 98 98" xml:space="preserve">
<path fill="#1D1D1B" d="M85.7,3.1c5.1,0,9.2,4.1,9.2,9.2v73.5c0,5.1-4.1,9.2-9.2,9.2H12.3c-5.1,0-9.2-4.1-9.2-9.2V12.3
	c0-5.1,4.1-9.2,9.2-9.2H85.7 M85.7,0H12.3C5.5,0,0,5.5,0,12.3v73.5C0,92.5,5.5,98,12.3,98h73.5C92.5,98,98,92.5,98,85.8V12.3
	C98,5.5,92.5,0,85.7,0L85.7,0z"/>
<path fill="#1D1D1B" d="M33.7,24.5v49h6.1V56h12.3c9.2,0,15.8-6.5,15.8-15.7c0-9.3-6.4-15.9-15.7-15.9H33.7z M39.8,29.9h10.8
	c7.1,0,11,3.7,11,10.4c0,6.5-4,10.2-11,10.2H39.8V29.9z"/>
</svg>
