<?xml version="1.0" encoding="utf-8"?>
<!-- Generator: Adobe Illustrator 18.0.0, SVG Export Plug-In . SVG Version: 6.00 Build 0)  -->
<!DOCTYPE svg PUBLIC "-//W3C//DTD SVG 1.1//EN" "http://www.w3.org/Graphics/SVG/1.1/DTD/svg11.dtd">
<svg version="1.1" id="Calque_1" xmlns="http://www.w3.org/2000/svg" xmlns:xlink="http://www.w3.org/1999/xlink" x="0px" y="0px"
	 width="112px" height="112px" viewBox="0 0 112 112" enable-background="new 0 0 112 112" xml:space="preserve">
<path d="M43.6,109.3c-0.2-0.2-0.3-0.4-0.5-0.6L29.9,82.2L3.4,68.9c-0.7-0.3-1.2-1-1.3-1.8c-0.1-0.8,0.1-1.6,0.6-2.1l3.2-3.2
	c0.4-0.4,1.1-0.7,1.7-0.7L34,60.9l17.6-17.6L16.7,21.1c-0.6-0.4-1-1.1-1.1-1.8c-0.1-0.7,0.2-1.5,0.7-2l6.8-6.8
	c0.6-0.6,1.5-0.9,2.4-0.6l46.2,13.4L89.5,5.5c4.7-4.7,12.3-4.7,17,0c4.7,4.7,4.7,12.3,0,17L88.6,40.4L102,86.5
	c0.2,0.8,0,1.8-0.6,2.4l-6.8,6.8c-0.5,0.5-1.2,0.8-1.9,0.7c-0.7-0.1-1.4-0.5-1.8-1.1L68.6,60.4L51,78l-0.1,26.4
	c0,0.6-0.3,1.2-0.7,1.7l-3.2,3.2c-0.5,0.5-1.3,0.8-2.1,0.7C44.4,109.9,44,109.7,43.6,109.3z M33.4,78.7c0.2,0.2,0.3,0.4,0.4,0.6
	l12.1,24.2l0.2-0.2l0.1-26.4c0-0.6,0.3-1.2,0.7-1.7l20.4-20.4c0.5-0.5,1.3-0.7,2-0.7c0.7,0.1,1.4,0.5,1.8,1.1l22.2,34.9l3.7-3.7
	L83.6,40.3c-0.2-0.8,0-1.8,0.6-2.4l18.9-18.9c2.8-2.8,2.8-7.4,0-10.2s-7.4-2.8-10.2,0L74,27.7c-0.6,0.6-1.5,0.9-2.4,0.6L25.5,15
	l-3.7,3.7l35,22.3c0.6,0.4,1,1,1.1,1.8c0.1,0.7-0.2,1.4-0.7,2L36.7,65c-0.4,0.4-1.1,0.7-1.7,0.7L8.6,65.9l-0.2,0.2l24.3,12.2
	C33,78.3,33.2,78.5,33.4,78.7z"/>
</svg>
