<?xml version="1.0" encoding="utf-8"?>
<!-- Generator: Adobe Illustrator 20.0.0, SVG Export Plug-In . SVG Version: 6.00 Build 0)  -->
<svg version="1.1" id="Calque_1" xmlns="http://www.w3.org/2000/svg" xmlns:xlink="http://www.w3.org/1999/xlink" x="0px" y="0px"
	 width="78px" height="94px" viewBox="0 0 78 94" style="enable-background:new 0 0 78 94;" xml:space="preserve">
<style type="text/css">
	.st0{fill:#0EADFF;}
</style>
<path class="st0" d="M12.4,1C9.9,1,7.9,2.7,7.1,5H7c-3.3,0-6,2.7-6,6v8v2h2h2v13.4c-0.1,0.4-0.1,0.8,0,1.2v38.8
	c-0.1,0.4-0.1,0.8,0,1.2V87c0,3.3,2.7,6,6,6h56c3.3,0,6-2.7,6-6V75.4c0.1-0.3,0.1-0.5,0-0.8V35.4c0.1-0.3,0.1-0.5,0-0.8V21h2h2v-2
	v-8c0-3.3-2.7-6-6-6h-0.1c-0.9-2.3-2.8-4-5.3-4H12.4z M12.4,5h53.3c1,0,1.8,0.7,1.9,1.7l0.1,0.6L68,9h1.7H71c1.1,0,2,0.9,2,2v6H7H5
	v-6c0-1.1,0.9-2,2-2h1.3h1.8l0.3-1.7l0.1-0.6C10.6,5.7,11.4,5,12.4,5z M9,21h60v12H9V21z M9,37h60v36H9V37z M27,41v2v16h4v-6h3.3
	l5.9,8.8L35,69h4l3.1-4.3L45,69h4l-4.8-7.3L49,55h-4l-2.8,3.9l-4.4-6.6c1.9-1,3.2-3,3.2-5.3c0-3.3-2.7-6-6-6h-6H27z M31,45h4
	c1.1,0,2,0.9,2,2s-0.9,2-2,2h-4V45z M9,77h60v10c0,1.1-0.9,2-2,2H11c-1.1,0-2-0.9-2-2V77z"/>
</svg>
