<?xml version="1.0" encoding="utf-8"?>
<!-- Generator: Adobe Illustrator 18.0.0, SVG Export Plug-In . SVG Version: 6.00 Build 0)  -->
<!DOCTYPE svg PUBLIC "-//W3C//DTD SVG 1.1//EN" "http://www.w3.org/Graphics/SVG/1.1/DTD/svg11.dtd">
<svg version="1.1" id="Calque_1" xmlns="http://www.w3.org/2000/svg" xmlns:xlink="http://www.w3.org/1999/xlink" x="0px" y="0px"
	 width="98px" height="49.9px" viewBox="0 0 98 49.9" enable-background="new 0 0 98 49.9" xml:space="preserve">
<path fill="#FFFFFF" d="M11.7,40.2c-0.1,0.8-0.3,1.5-0.7,2.1c-0.3,0.6-0.8,1-1.3,1.4C9.2,44,8.6,44.3,8,44.4
	c-0.7,0.2-1.4,0.2-2.1,0.2H4l-0.6,4.1H0L1.8,36h5.5c0.7,0,1.4,0.1,2,0.2c0.6,0.2,1.1,0.4,1.5,0.7c0.4,0.3,0.7,0.8,0.8,1.3
	C11.8,38.8,11.8,39.5,11.7,40.2 M8.1,40.3c0.1-0.4,0-0.8-0.2-1c-0.2-0.3-0.6-0.4-1.2-0.4H4.9l-0.4,2.9h1.9c0.6,0,1-0.1,1.3-0.4
	C7.9,41.1,8.1,40.8,8.1,40.3"/>
<path fill="#FFFFFF" d="M18.5,48.8L17,44.5h-1.4l-0.6,4.3h-3.5L13.3,36H19c0.7,0,1.4,0.1,2,0.2c0.6,0.2,1.1,0.4,1.5,0.7
	c0.4,0.3,0.7,0.8,0.8,1.3c0.2,0.5,0.2,1.2,0.1,1.9c-0.1,1-0.5,1.7-1,2.4c-0.5,0.6-1.1,1.1-1.9,1.4l1.9,4.9H18.5 M19.8,40.3
	c0.1-0.4,0-0.7-0.2-1c-0.2-0.3-0.6-0.4-1.1-0.4h-2.1l-0.4,2.8H18c0.6,0,1-0.1,1.3-0.4C19.6,41.1,19.8,40.7,19.8,40.3"/>
<path fill="#FFFFFF" d="M35.8,42.4c-0.2,1.1-0.4,2-0.8,2.8c-0.4,0.8-0.9,1.5-1.5,2.1c-0.6,0.6-1.3,1-2.1,1.3
	C30.6,48.8,29.8,49,29,49c-0.9,0-1.6-0.1-2.3-0.4c-0.7-0.3-1.2-0.7-1.7-1.3c-0.4-0.6-0.8-1.2-0.9-2.1c-0.2-0.8-0.2-1.8,0-2.8
	c0.1-1.1,0.4-2,0.8-2.8c0.4-0.8,0.9-1.5,1.5-2.1c0.6-0.6,1.3-1,2.1-1.3c0.8-0.3,1.6-0.4,2.5-0.4c0.9,0,1.6,0.1,2.3,0.4
	c0.7,0.3,1.2,0.7,1.7,1.3c0.4,0.6,0.7,1.2,0.9,2.1C36,40.4,36,41.3,35.8,42.4 M32.2,42.4c0.2-1.2,0.1-2-0.2-2.6
	c-0.3-0.6-0.8-0.9-1.5-0.9c-0.7,0-1.3,0.3-1.8,0.9c-0.5,0.6-0.8,1.5-0.9,2.6c-0.2,1.2-0.1,2,0.2,2.6c0.3,0.6,0.8,0.9,1.5,0.9
	c0.7,0,1.3-0.3,1.8-0.9C31.7,44.4,32,43.6,32.2,42.4"/>
<path fill="#FFFFFF" d="M42.6,48.8L42,47.3c-0.2-0.4-0.3-0.8-0.5-1.2c-0.2-0.4-0.3-0.8-0.4-1.1c-0.2,0.3-0.4,0.7-0.7,1.1
	c-0.3,0.4-0.6,0.8-0.9,1.2l-1.1,1.5h-4l5.1-6.5L36.4,36h4.1l0.5,1.2c0.2,0.4,0.3,0.8,0.5,1.2c0.2,0.4,0.3,0.8,0.4,1.1
	c0.2-0.3,0.4-0.7,0.7-1.1c0.3-0.4,0.6-0.8,0.9-1.2l0.9-1.2h4l-4.9,6.2l3.3,6.5H42.6"/>
<polygon fill="#FFFFFF" points="47.7,48.8 49.5,36 53.1,36 51.3,48.8 "/>
<path fill="#FFFFFF" d="M64,40c0,0.7-0.1,1.2-0.3,1.7c-0.2,0.5-0.5,0.9-0.9,1.3c-0.4,0.3-0.8,0.6-1.3,0.8c-0.5,0.2-1.1,0.3-1.7,0.3
	h-3.3v4.8h-1.9V36h5.3c0.6,0,1.1,0.1,1.6,0.3c0.5,0.2,0.9,0.4,1.3,0.8c0.4,0.3,0.7,0.8,0.9,1.3C63.9,38.8,64,39.3,64,40 M62,40
	c0-0.7-0.2-1.2-0.6-1.6c-0.4-0.4-0.9-0.6-1.6-0.6h-3.4v4.4h3.4c0.7,0,1.3-0.2,1.6-0.6C61.9,41.2,62,40.7,62,40"/>
<path fill="#FFFFFF" d="M72.7,48.8l-1.1-3h-5.1l-1.1,3h-2L68.1,36h2l4.7,12.8H72.7 M70,41.1c-0.1-0.2-0.2-0.5-0.3-0.8
	c-0.1-0.3-0.2-0.6-0.3-0.8c-0.1-0.3-0.2-0.5-0.3-0.8c-0.1-0.2-0.1-0.4-0.2-0.6c0,0.1-0.1,0.3-0.2,0.6c-0.1,0.2-0.2,0.5-0.2,0.8
	c-0.1,0.3-0.2,0.6-0.3,0.8c-0.1,0.3-0.2,0.6-0.3,0.8l-1,2.9H71L70,41.1z"/>
<path fill="#FFFFFF" d="M86,39.8c0,1-0.3,1.9-0.7,2.5c-0.5,0.6-1.2,1-2.1,1.3l2.6,5.2h-2.2l-2.5-5.1h-2.9v5.1h-1.9V36h5.6
	c0.6,0,1.1,0.1,1.6,0.2c0.5,0.2,0.9,0.4,1.3,0.7c0.4,0.3,0.7,0.7,0.9,1.2C85.9,38.6,86,39.2,86,39.8 M84.1,39.9
	c0-0.7-0.2-1.2-0.6-1.5c-0.4-0.4-0.9-0.5-1.6-0.5h-3.7v4.1H82c0.6,0,1.2-0.2,1.6-0.5C83.9,41.1,84.1,40.6,84.1,39.9"/>
<path fill="#FFFFFF" d="M98,42.4c0,1.1-0.2,2.1-0.5,3c-0.3,0.9-0.8,1.6-1.5,2.2l0.9,1.3l-1.6,1l-0.9-1.3c-0.6,0.2-1.2,0.3-1.9,0.3
	c-0.8,0-1.6-0.2-2.2-0.5c-0.7-0.3-1.2-0.8-1.7-1.4c-0.5-0.6-0.8-1.3-1.1-2.1c-0.3-0.8-0.4-1.7-0.4-2.7c0-1,0.1-1.8,0.4-2.7
	c0.3-0.8,0.6-1.5,1.1-2.1c0.5-0.6,1-1,1.7-1.4c0.7-0.3,1.4-0.5,2.2-0.5c0.8,0,1.6,0.2,2.2,0.5c0.7,0.3,1.2,0.8,1.7,1.4
	c0.5,0.6,0.8,1.3,1.1,2.1C97.9,40.5,98,41.4,98,42.4 M96,42.4c0-1.4-0.3-2.6-0.9-3.4c-0.6-0.8-1.5-1.3-2.6-1.3c-1.1,0-2,0.4-2.6,1.3
	c-0.6,0.8-0.9,2-0.9,3.4c0,0.7,0.1,1.4,0.2,1.9c0.2,0.6,0.4,1.1,0.7,1.5c0.3,0.4,0.7,0.7,1.1,0.9c0.4,0.2,0.9,0.3,1.5,0.3
	c0.2,0,0.3,0,0.5,0c0.1,0,0.3,0,0.4-0.1l-0.9-1.4l1.6-1L95,46c0.4-0.4,0.6-0.9,0.8-1.5C96,43.9,96,43.2,96,42.4"/>
<path fill="#FFFFFF" d="M48.1,13.2c0,0.8-0.1,1.5-0.4,2.1c-0.3,0.6-0.6,1-1.1,1.4c-0.5,0.3-1,0.6-1.7,0.7c-0.6,0.1-1.3,0.2-2.1,0.2
	h-1.8v4.1h-3.5V9h5.5c0.7,0,1.4,0.1,2,0.2c0.6,0.2,1.1,0.4,1.6,0.7c0.4,0.3,0.8,0.8,1,1.3C48,11.8,48.1,12.4,48.1,13.2 M44.6,13.3
	c0-0.4-0.1-0.8-0.3-1C44,12,43.6,11.9,43,11.9h-1.9v2.9H43c0.6,0,1-0.1,1.2-0.4C44.4,14.1,44.6,13.8,44.6,13.3"/>
<path fill="#FFFFFF" d="M48.8,21.8c0-1.1,0.2-2,0.4-2.8c0.3-0.8,0.6-1.5,1.1-2.2c0.5-0.6,1-1.2,1.6-1.6c0.6-0.5,1.4-0.9,2.2-1.2
	c0.3-0.1,0.6-0.3,0.8-0.4c0.2-0.1,0.4-0.2,0.5-0.3s0.2-0.2,0.2-0.3c0-0.1,0.1-0.2,0.1-0.3c0-0.3-0.1-0.5-0.3-0.6
	c-0.2-0.2-0.6-0.2-1.1-0.2c-0.6,0-1.3,0.1-1.9,0.3c-0.6,0.2-1.3,0.5-1.9,1l-1.6-2.6c0.8-0.5,1.7-0.9,2.5-1.2
	c0.9-0.3,1.8-0.4,2.9-0.4c1.6,0,2.8,0.3,3.6,0.9c0.8,0.6,1.2,1.5,1.2,2.7c0,0.4,0,0.8-0.1,1.1c-0.1,0.3-0.2,0.7-0.5,1
	c-0.2,0.3-0.5,0.6-0.9,0.9c-0.4,0.3-0.9,0.6-1.5,0.8c-0.6,0.3-1.2,0.6-1.6,0.8c-0.4,0.2-0.8,0.5-1,0.7c-0.3,0.2-0.5,0.4-0.6,0.6
	c-0.1,0.2-0.2,0.4-0.3,0.6h6.7v2.9H48.8"/>
<path fill="#FFFFFF" d="M59.6,30.3H36.3c-1.9,0-3.5-1.6-3.5-3.5V3.5c0-1.9,1.6-3.5,3.5-3.5h23.3c1.9,0,3.5,1.6,3.5,3.5v23.3
	C63.1,28.8,61.5,30.3,59.6,30.3 M36.3,1.9c-0.9,0-1.6,0.7-1.6,1.6v23.3c0,0.9,0.7,1.6,1.6,1.6h23.3c0.9,0,1.6-0.7,1.6-1.6V3.5
	c0-0.9-0.7-1.6-1.6-1.6H36.3z"/>
</svg>
