<?xml version="1.0" encoding="utf-8"?>
<!-- Generator: Adobe Illustrator 19.2.1, SVG Export Plug-In . SVG Version: 6.00 Build 0)  -->
<svg version="1.1" id="Calque_1" xmlns="http://www.w3.org/2000/svg" xmlns:xlink="http://www.w3.org/1999/xlink" x="0px" y="0px"
	 width="100px" height="100px" viewBox="0 0 100 100" style="enable-background:new 0 0 100 100;" xml:space="preserve">
<style type="text/css">
	.st0{fill:#FFFFFF;}
</style>
<title>icon-rain</title>
<path class="st0" d="M50,99c-0.9,0-1.8-0.4-2.5-1c-1.4-1.3-1.4-3.4-0.1-4.8c0,0,0.1-0.1,0.1-0.1l0,0l20.4-20.2
	c1.4-1.3,3.5-1.3,4.9,0c1.4,1.3,1.4,3.5,0.1,4.8c0,0-0.1,0.1-0.1,0.1l0,0L52.4,98C51.8,98.7,50.9,99,50,99z M29.6,99
	c-0.9,0-1.8-0.4-2.5-1c-1.4-1.3-1.4-3.5-0.1-4.8c0,0,0.1-0.1,0.1-0.1l0,0L47.5,73c1.4-1.3,3.5-1.3,4.9,0c1.4,1.3,1.4,3.5,0.1,4.8
	c0,0-0.1,0.1-0.1,0.1l0,0L32,98.1C31.4,98.7,30.5,99,29.6,99z M9.2,98.7c-0.9,0-1.8-0.4-2.5-1c-1.4-1.3-1.4-3.5-0.1-4.8
	c0,0,0.1-0.1,0.1-0.1l0,0l20.4-20.2c1.4-1.3,3.5-1.3,4.9,0c1.4,1.3,1.4,3.4,0.1,4.8c0,0-0.1,0.1-0.1,0.1l0,0L11.6,97.7
	C11,98.4,10.1,98.7,9.2,98.7L9.2,98.7z M74.5,68.3H29.6c-13-0.1-23.5-10.7-23.5-23.7c0.1-11,7.8-20.6,18.6-22.9
	c2.9-14,16.6-23,30.6-20.1C63,3.1,69.5,8.1,73.1,15.1c4.7,0.2,9.1,2.4,11.9,6.2c2.8,3.7,3.8,8.4,2.7,12.9c8.1,7.1,8.8,19.4,1.7,27.5
	C85.7,66,80.2,68.4,74.5,68.3L74.5,68.3L74.5,68.3z M50,7.7c-9.8,0-18,7.4-18.9,17.2c-0.1,1.7-1.4,3-3.1,3.1
	c-9.2,0.9-16,9-15.1,18.3c0.8,8.6,8.1,15.2,16.7,15.2h44.9c7,0,12.8-5.7,12.8-12.7c0-4.2-2-8.1-5.5-10.5c-1.4-0.9-1.9-2.7-1.3-4.2
	c1.3-2.9,0.8-6.2-1.1-8.6c-1.9-2.5-5-3.9-8.2-3.4c-1.6,0.2-3.1-0.7-3.7-2.2C64.9,12.5,57.8,7.7,50,7.7z"/>
</svg>
