<?xml version="1.0" encoding="utf-8"?>
<!-- Generator: Adobe Illustrator 18.0.0, SVG Export Plug-In . SVG Version: 6.00 Build 0)  -->
<!DOCTYPE svg PUBLIC "-//W3C//DTD SVG 1.1//EN" "http://www.w3.org/Graphics/SVG/1.1/DTD/svg11.dtd">
<svg version="1.1" id="Calque_1" xmlns="http://www.w3.org/2000/svg" xmlns:xlink="http://www.w3.org/1999/xlink" x="0px" y="0px"
	 width="72px" height="122px" viewBox="0 0 72 122" enable-background="new 0 0 72 122" xml:space="preserve">
<g>
	<g>
		<path fill="#FFFFFF" d="M53.2,2c-1.4,0-2.5,1.1-2.5,2.5c0,0.1,0,0.1,0,0.2v112.9c0,1.4,1.1,2.5,2.5,2.5s2.5-1.1,2.5-2.5V80.7H68
			c1.4,0,2.5-1.1,2.5-2.5C70.5,47.1,64.4,2,53.2,2z M55.7,75.7V10.3c4.1,8.6,9.6,32.6,9.8,65.4H55.7z M33.5,2
			c-1.4,0-2.5,1.1-2.5,2.5V29c0,5.9-4.2,10.9-9.9,12V4.5c0-1.4-1.1-2.5-2.5-2.5c-1.4,0-2.5,1.1-2.5,2.5v36.6
			c-5.6-1.1-9.9-6.1-9.9-12V4.5C6.4,3.1,5.3,2,4,2S1.5,3.1,1.5,4.5V29c0,8.7,6.4,15.8,14.8,17v71.5c0,1.4,1.1,2.5,2.5,2.5
			c1.4,0,2.5-1.1,2.5-2.5V46.1C29.6,44.9,36,37.7,36,29V4.5C36,3.1,34.9,2,33.5,2z"/>
	</g>
</g>
</svg>
