<?xml version="1.0" encoding="utf-8"?>
<!-- Generator: Adobe Illustrator 18.0.0, SVG Export Plug-In . SVG Version: 6.00 Build 0)  -->
<!DOCTYPE svg PUBLIC "-//W3C//DTD SVG 1.1//EN" "http://www.w3.org/Graphics/SVG/1.1/DTD/svg11.dtd">
<svg version="1.1" id="Calque_1" xmlns="http://www.w3.org/2000/svg" xmlns:xlink="http://www.w3.org/1999/xlink" x="0px" y="0px"
	 width="104px" height="85px" viewBox="0 0 104 85" enable-background="new 0 0 104 85" xml:space="preserve">
<g>
	<g>
		<path fill="#FFFFFF" d="M100.6,42.8c1.5-1.4,1.7-3.6,1.7-5.7c0-9.1-7.3-9.1-11.2-9.1H70.8C74.3,13,69.6,5,63.9,2.5
			C59.8,0.7,55.2,2,53.1,5.6c-0.2,0.3-0.3,0.7-0.3,1.1v10.1c0,0.3,0,0.7,0,1c0,0.6,0.1,1.2-0.1,1.5c-2.1,6.1-6.3,11.5-12.3,16.3
			c-0.5,0.4-0.8,0.8-1,1.1l-0.2,0.2c-1.3,1.6-5.3,3.3-7.8,3.3v-1.6c0-1.2-1-2.1-2.1-2.1H3.8c-1.2,0-2.1,1-2.1,2.1v42.5
			c0,1.2,1,2.1,2.1,2.1h25.5c1.2,0,2.1-1,2.1-2.1v-2.1c0,0,0,0,0,0h3.8c1.8,0,3.5,0.7,4.8,1.9c1.6,1.5,3.7,2.3,6,2.3h34.8
			c4.6,0,8.5-1.8,11-5.2c1.8-2.3,2.7-5.4,2.7-8.2c0.4-0.3,0.6-0.8,0.6-1.3c1.6-1.1,2.8-2.7,3.6-4.7c0.9-2.4,1-5.1,0.5-7.4
			c0.1-0.3,0.2-0.6,0.2-0.9c0-0.2-0.1-0.4-0.1-0.6c1.9-2.1,2.8-5,2.5-8C101.8,45.4,101.3,44,100.6,42.8z M27.2,79.1H6V40.8h21.3
			V79.1z M94.9,62.5c-0.5,1.2-1.4,2.7-3.3,3.4c-0.3,0.1-0.5,0.2-0.7,0.4H80.4c-1.2,0-2.1,1-2.1,2.1c0,1.2,1,2.1,2.1,2.1h9.9
			c-0.1,1.6-0.6,3.4-1.8,5c-1.2,1.6-3.5,3.5-7.6,3.5H46.1c-1.3,0-2.3-0.4-3.1-1.1c-2.1-2-4.8-3.1-7.7-3.1h-3.8c0,0,0,0,0,0V44.5
			c3.4-0.1,8.7-2,11.1-4.9l0.3-0.4C43,39.1,43,39,43.1,39c6.7-5.3,11.3-11.4,13.7-18.2c0.4-1.1,0.3-2.3,0.3-3.1c0-0.3,0-0.5,0-0.8
			V7.3c2.1-1.4,3.2-1.8,5.2-1c4.2,1.8,7.8,9,3.8,23.2c-0.2,0.6,0,1.3,0.4,1.9c0.4,0.5,1,0.8,1.7,0.8h23c5.7,0,6.9,0.9,6.9,4.8
			c0,2.7-0.2,2.7-1.5,2.7c-0.7,0-1.4,0.4-1.7,0.9H80.4c-1.2,0-2.1,1-2.1,2.1c0,1.2,1,2.1,2.1,2.1h16.5c0.4,0.6,0.7,1.5,0.8,2.4
			c0.2,1.8-0.4,4.3-2.4,5.7c-0.2,0.1-0.3,0.3-0.4,0.4H80.4c-1.2,0-2.1,1-2.1,2.1c0,1.2,1,2.1,2.1,2.1h14.8
			C95.5,59.2,95.5,60.9,94.9,62.5z"/>
	</g>
</g>
</svg>
