<?xml version="1.0" encoding="utf-8"?>
<!-- Generator: Adobe Illustrator 19.2.1, SVG Export Plug-In . SVG Version: 6.00 Build 0)  -->
<svg version="1.1" id="Calque_1" xmlns="http://www.w3.org/2000/svg" xmlns:xlink="http://www.w3.org/1999/xlink" x="0px" y="0px"
	 width="100px" height="100px" viewBox="0 0 100 100" style="enable-background:new 0 0 100 100;" xml:space="preserve">
<style type="text/css">
	.st0{fill:#FFFFFF;}
</style>
<title>icon-thunderstorm</title>
<path class="st0" d="M91.7,40.2c1.2-5.1,0.2-10.5-3-14.7c-3.1-4.3-8-7-13.2-7.2C70.8,8.5,60.8,2.3,49.9,2.3
	c-13.8,0.1-25.6,10-28.2,23.6C7.3,29.2-1.6,43.6,1.7,58.1C4.3,69.2,13.7,77.4,25,78.6c-0.2-1-0.4-2.1-0.4-3.1c0-1.6,0.3-3.1,0.8-4.6
	C15,69.5,7.7,59.8,9.2,49.4c1.2-8.5,7.8-15.1,16.3-16.3c1.9-0.2,3.3-1.7,3.4-3.6C29.5,18,39.4,9.2,50.9,9.8
	c8.4,0.5,15.8,6,18.6,13.9c0.7,1.6,2.3,2.6,4.1,2.4c3.5-0.5,7,1,9,3.9c2.1,2.8,2.5,6.6,1.1,9.8c-0.7,1.7-0.1,3.7,1.4,4.8
	c6.6,4.4,8.4,13.3,4,19.8c-2.7,4-7.2,6.4-12,6.4h-6c0.9,2.5,0.9,5.2,0.2,7.8h5.9c12.2-0.1,22-10,21.9-22.2
	C98.9,50.2,96.3,44.4,91.7,40.2z M61.3,73.9c-0.4-0.9-1.1-1.7-2.1-2.1c-0.5-0.2-0.9-0.3-1.4-0.3l0,0h-9.9l6.8-7.2
	c1.5-1.5,1.5-4,0-5.5c-1.5-1.5-3.9-1.5-5.3,0l0,0L36.1,72.6c-1.6,1.5-1.7,3.9-0.2,5.5c0,0,0,0,0,0l0,0c0.4,0.4,0.8,0.7,1.3,0.9h0.3
	c0.4,0.1,0.7,0.2,1.1,0.2l0,0l10,0.2L37.4,91.1c-1.5,1.5-1.5,4,0,5.5c1.5,1.5,3.9,1.5,5.3,0l0,0l17.8-18.5c0.4-0.4,0.6-0.8,0.8-1.3
	c0.2-0.5,0.3-1,0.3-1.5l0,0C61.6,74.9,61.5,74.3,61.3,73.9z"/>
</svg>
