<?xml version="1.0" encoding="utf-8"?>
<!-- Generator: Adobe Illustrator 19.2.1, SVG Export Plug-In . SVG Version: 6.00 Build 0)  -->
<svg version="1.1" id="Calque_1" xmlns="http://www.w3.org/2000/svg" xmlns:xlink="http://www.w3.org/1999/xlink" x="0px" y="0px"
	 width="100px" height="100px" viewBox="0 0 100 100" style="enable-background:new 0 0 100 100;" xml:space="preserve">
<style type="text/css">
	.st0{fill:#FFFFFF;}
</style>
<path class="st0" d="M50,1C22.9,1,1,22.9,1,50c0,27.1,21.9,49,49,49c27.1,0,49-21.9,49-49C99,22.9,77.1,1,50,1z M70.8,39.3
	c0,0.5,0,0.9,0,1.4c0,14.2-10.8,30.6-30.6,30.6c-6.1,0-11.7-1.8-16.5-4.8c0.8,0.1,1.7,0.2,2.6,0.2c5,0,9.7-1.7,13.3-4.6
	c-4.7-0.1-8.7-3.2-10-7.5c0.7,0.1,1.3,0.2,2,0.2c1,0,1.9-0.1,2.8-0.4c-4.9-1-8.6-5.3-8.6-10.5c0,0,0-0.1,0-0.1
	c1.4,0.8,3.1,1.3,4.9,1.3c-2.9-1.9-4.8-5.2-4.8-8.9c0-2,0.5-3.8,1.5-5.4c5.3,6.5,13.2,10.8,22.2,11.2c-0.2-0.8-0.3-1.6-0.3-2.4
	c0-5.9,4.8-10.7,10.7-10.7c3.1,0,5.9,1.3,7.8,3.4c2.4-0.5,4.7-1.4,6.8-2.6c-0.8,2.5-2.5,4.6-4.7,5.9c2.2-0.3,4.2-0.8,6.2-1.7
	C74.8,35.9,72.9,37.8,70.8,39.3z"/>
</svg>
