<?xml version="1.0" encoding="utf-8"?>
<!-- Generator: Adobe Illustrator 19.2.1, SVG Export Plug-In . SVG Version: 6.00 Build 0)  -->
<svg version="1.1" id="Calque_1" xmlns="http://www.w3.org/2000/svg" xmlns:xlink="http://www.w3.org/1999/xlink" x="0px" y="0px"
	 width="100px" height="167px" viewBox="0 0 100 167" style="enable-background:new 0 0 100 167;" xml:space="preserve">
<style type="text/css">
	.st0{fill:#0066FF;}
</style>
<g>
	<g>
		<path class="st0" d="M58.4,33.3c8.7,0,15.7-7,15.7-15.7c0-8.7-7-15.7-15.7-15.7c-8.7,0-15.7,7-15.7,15.7
			C42.8,26.3,49.8,33.3,58.4,33.3z M95.1,84.7C92,83.3,71.8,73.3,71.8,73.3s-7.2-15.3-10.9-23.7c-3.5-7.9-6-10-11-10h-7.7
			c-4,0-5.5,1.5-7.9,2.9L13.6,60.1c-1.8,1-3,2.6-3.7,4.8L5.5,94.8c-0.6,4.8,1.9,6.8,4.7,7.4c2.3,0.5,5.8-0.7,6.5-4
			c0.6-2.8,4.7-27.2,4.7-27.2L35,60.5c-2.2,10.4-4.5,21.7-5.2,25.6c-1.3,6.6,2,11.6,4.6,15.5c2.4,3.6,32.9,51.9,36.9,57.1
			c4,5.3,7.7,7.9,13.3,4.7c4.7-2.6,3.9-8.7,1.3-13.1c-2.6-4.5-33.5-54.8-33.5-54.8l5.2-22.4c0,0,3.6,5.1,5.4,8
			c0.9,1.4,1.8,1.9,4.2,3.2c2.8,1.6,16.7,7.9,20.9,9.8c3.7,1.7,8.4,2.3,10.2-1C100.2,90,97.8,86,95.1,84.7z M20.6,127.1
			c0,0-13,18.9-16.7,24.2c-2.7,4-4.8,8.8-0.1,12.4c5.2,4,9.4-1.2,12.1-4.3c2.5-2.8,12.6-17,15.4-20.6c1.9-2.4,2.9-4.5,3.8-6.5
			c0.5-1.4,2.6-6.9,3.9-10.6l-12.2-16.8L20.6,127.1z"/>
	</g>
</g>
</svg>
