<?xml version="1.0" encoding="utf-8"?>
<!-- Generator: Adobe Illustrator 19.2.1, SVG Export Plug-In . SVG Version: 6.00 Build 0)  -->
<svg version="1.1" id="Calque_1" xmlns="http://www.w3.org/2000/svg" xmlns:xlink="http://www.w3.org/1999/xlink" x="0px" y="0px"
	 width="152px" height="152px" viewBox="0 0 152 152" style="enable-background:new 0 0 152 152;" xml:space="preserve">
<style type="text/css">
	.st0{fill:#FFFFFF;}
</style>
<g>
	<g>
		<path class="st0" d="M76,77.8V63.5c0-1.7-1.4-3.1-3.1-3.1s-3.1,1.4-3.1,3.1v15.6c0,0.8,0.3,1.6,0.9,2.2l18.8,18.8
			c0.6,0.6,1.4,0.9,2.2,0.9c0.8,0,1.6-0.3,2.2-0.9c1.2-1.2,1.2-3.2,0-4.4L76,77.8z M150.1,26.9l-12.5-12.5l0,0l0,0L125.1,1.9
			c-1.2-1.2-3.2-1.2-4.4,0l-12.5,12.5L87.8,34.7c-4.7-1.6-9.7-2.5-15-2.5C47,32.2,26,53.3,26,79.1c0,5.3,0.9,10.4,2.6,15.2
			L1.9,120.7C1.3,121.2,1,122,1,122.9v25c0,1.7,1.4,3.1,3.1,3.1h25c0.8,0,1.6-0.3,2.2-0.9L58,123.5c4.7,1.6,9.7,2.5,14.9,2.5
			c25.8,0,46.9-21,46.9-46.9c0-5.2-0.9-10.3-2.5-15l20.3-20.3l12.5-12.5C151.3,30.1,151.3,28.1,150.1,26.9z M122.9,8.5l8.1,8.1
			l-8.1,8.1l-8.1-8.1L122.9,8.5z M27.8,144.8H7.2v-20.6l23.9-23.7c4.5,8.8,11.7,16,20.6,20.4L27.8,144.8z M72.9,119.8
			c-22.4,0-40.6-18.2-40.6-40.6s18.2-40.6,40.6-40.6s40.6,18.2,40.6,40.6C113.5,101.5,95.3,119.8,72.9,119.8z M114.6,57.9
			C110.1,49,102.9,41.8,94,37.3L110.4,21L131,41.6L114.6,57.9z M135.4,37.2l-8.1-8.1l8.1-8.1l8.1,8.1L135.4,37.2z M22.9,126
			c-1.7,0-3.1,1.4-3.1,3.1c0,1.7,1.4,3.1,3.1,3.1s3.1-1.4,3.1-3.1C26,127.4,24.6,126,22.9,126z M32.2,116.6c-1.7,0-3.1,1.4-3.1,3.1
			s1.4,3.1,3.1,3.1s3.1-1.4,3.1-3.1S34,116.6,32.2,116.6z"/>
	</g>
</g>
</svg>
