<?xml version="1.0" encoding="utf-8"?>
<!-- Generator: Adobe Illustrator 20.0.0, SVG Export Plug-In . SVG Version: 6.00 Build 0)  -->
<svg version="1.1" id="Calque_1" xmlns="http://www.w3.org/2000/svg" xmlns:xlink="http://www.w3.org/1999/xlink" x="0px" y="0px"
	 width="94px" height="58px" viewBox="0 0 94 58" style="enable-background:new 0 0 94 58;" xml:space="preserve">
<style type="text/css">
	.st0{fill:#0EADFF;}
</style>
<path class="st0" d="M93,10.6c-0.2-1-1-1.6-2-1.6H69c-0.1,0-0.1,0-0.2,0C66,4.2,60.9,1,55,1H37c-3.3,0-6,2.7-6,6v2H3
	c-1.1,0-2,0.9-2,2v36c0,1.1,0.9,2,2,2h28v2c0,3.3,2.7,6,6,6h18c5.9,0,11.1-3.2,13.9-8c0,0,0.1,0,0.1,0h22c1.1,0,2-0.9,2-2V11
	c0-0.1,0-0.1,0-0.2C93,10.8,93,10.7,93,10.6z M89,13v32H70.4c0.3-1.3,0.6-2.6,0.6-4V17c0-1.4-0.2-2.7-0.6-4H89z M85,29
	c0-2.2-1.8-4-4-4s-4,1.8-4,4s1.8,4,4,4S85,31.2,85,29z M67,17v24c0,6.7-5.3,12-12,12H37c-1.1,0-2-0.9-2-2v-2h18c3.3,0,6-2.7,6-6V33
	h-4v10c0,1.1-0.9,2-2,2H33.4c-0.1,0-0.1,0-0.2,0H33c-0.1,0-0.3,0-0.4,0H5V13h27.6c0.3,0.1,0.5,0.1,0.8,0H53c1.1,0,2,0.9,2,2v10h4V15
	c0-3.3-2.7-6-6-6H35V7c0-1.1,0.9-2,2-2h18C61.7,5,67,10.3,67,17z M63.1,28.8c0-0.1,0-0.2-0.1-0.3c-0.2-0.9-1-1.6-2-1.6H48.4
	c-0.7-1.2-2-2-3.4-2c-2.2,0-4,1.8-4,4s1.8,4,4,4c1.5,0,2.7-0.8,3.4-2H61c1.1,0,2-0.8,2.1-1.9C63.1,29,63.1,28.9,63.1,28.8z M29,29
	c0-2.2-1.8-4-4-4s-4,1.8-4,4s1.8,4,4,4S29,31.2,29,29z"/>
</svg>
